<svg width="60" height="60" viewBox="0 0 60 60" fill="none" xmlns="http://www.w3.org/2000/svg">
<g clip-path="url(#clip0_638_201)">
<path fill-rule="evenodd" clip-rule="evenodd" d="M19.1565 0.824945C17.2936 1.50582 15.6793 3.20056 15.4994 4.6645C15.3337 6.01421 15.9737 7.09711 18.2959 9.39579C19.9746 11.0575 20.4526 11.8039 20.4726 12.7943C20.4854 13.4312 20.4173 13.5944 19.8616 14.2591C19.2747 14.9612 19.2504 15.0259 19.4669 15.3108C19.8152 15.769 20.467 15.8956 20.9906 15.607C21.5933 15.2748 22.298 14.2934 22.493 13.515C22.8566 12.0624 22.0859 10.5661 19.8409 8.36634C18.2295 6.78736 17.7061 6.07663 17.5813 5.29852C17.3895 4.10304 18.4525 2.82756 20.2472 2.09984C20.8714 1.84672 20.9729 1.75138 21.0152 1.37837C21.0534 1.04065 20.986 0.908372 20.6999 0.760397C20.221 0.512829 19.9835 0.522741 19.1565 0.824945ZM29.917 0.913918C28.7784 1.39761 27.6657 2.27861 27.0722 3.16646C26.6049 3.86539 26.5606 4.02882 26.5612 5.05449C26.5617 6.08524 26.6052 6.24278 27.0909 6.9771C27.382 7.41701 28.2534 8.40068 29.0273 9.16297C30.7068 10.8174 31.2735 11.6024 31.39 12.436C31.5102 13.2955 31.3483 13.8065 30.792 14.3232C30.2274 14.8477 30.1889 15.2255 30.6665 15.5539C31.1887 15.913 31.5787 15.8494 32.3107 15.2855C33.2093 14.593 33.5773 13.7183 33.4792 12.5087C33.3803 11.2881 32.7162 10.2683 30.7399 8.30132C29.0806 6.65012 28.5585 5.84747 28.5585 4.94829C28.5585 3.90244 29.4678 2.87641 30.9425 2.25796C31.8216 1.88944 32.0748 1.67881 32.0748 1.31666C32.0748 0.968789 31.5414 0.57183 31.0758 0.573246C30.8779 0.573954 30.3566 0.727121 29.917 0.913918ZM40.9579 0.88253C39.8955 1.29424 38.6221 2.26044 38.1014 3.05023C36.8085 5.01083 37.2973 6.51182 40.1359 9.2988C41.9851 11.1145 42.3727 11.7203 42.3789 12.8052C42.3834 13.5722 42.3355 13.7019 41.8644 14.1953C41.2459 14.8431 41.1876 15.3457 41.7003 15.6107C42.1982 15.8683 42.5247 15.8407 43.0827 15.494C43.7506 15.0791 44.3599 14.1027 44.4793 13.2556C44.6794 11.836 43.9295 10.4861 41.753 8.34864C39.9882 6.61531 39.5327 5.92771 39.5325 4.99726C39.5325 3.86515 40.5183 2.76726 42.0805 2.1599C42.4205 2.02774 42.8062 1.77817 42.9375 1.60529C43.157 1.31654 43.1495 1.26415 42.8444 0.961119C42.4101 0.529821 41.9207 0.509407 40.9579 0.88253ZM4.02435 20.3969C3.09125 20.6112 1.79007 21.2891 1.19342 21.8716C-0.0564666 23.0919 0.0285634 21.9166 0.0285634 37.9789V52.3161L0.487919 53.0503C1.02943 53.9159 2.28442 54.851 3.41843 55.2341C4.51327 55.6038 6.88949 55.6046 7.98162 55.2356C9.75287 54.6372 11.1522 53.2125 11.3777 51.7779L11.4878 51.0771H13.8511H16.2142L16.2785 51.8146C16.3988 53.1985 17.5891 54.4514 19.4132 55.1143C20.3805 55.4659 20.6152 55.5022 21.9221 55.5022C23.1507 55.5022 23.4987 55.4556 24.2744 55.1871C26.0624 54.5683 27.3829 53.2022 27.5562 51.7918L27.6439 51.0771H29.997H32.35L32.4361 51.7781C32.6126 53.2146 33.8361 54.4895 35.6796 55.1577C36.5165 55.461 36.8023 55.5022 38.0718 55.5022C39.3787 55.5022 39.6134 55.4659 40.5807 55.1143C42.4039 54.4517 43.5198 53.2777 43.7154 51.8166L43.8224 51.0181L46.1609 50.9855L48.4992 50.953L48.609 51.7101C48.8248 53.1976 50.1536 54.5774 51.9856 55.2164C53.0974 55.6041 55.4528 55.6132 56.5755 55.2341C57.7095 54.851 58.9645 53.9159 59.506 53.0503L59.9654 52.3161L60.0085 38.2269C60.056 22.6874 60.0935 23.3254 59.0644 22.1413C58.4818 21.4712 57.8914 21.0861 56.7858 20.6556C56.0495 20.3687 55.8053 20.3375 54.2913 20.3375C52.7592 20.3375 52.5386 20.3666 51.757 20.6703C50.7026 21.0804 49.6492 21.8638 49.1967 22.5746L48.8555 23.1106H46.1713H43.4871L43.2705 22.6686C42.9267 21.9666 41.2828 20.838 40.1463 20.5236C38.7425 20.1354 36.8326 20.202 35.5441 20.684C34.4641 21.088 33.5415 21.7822 32.9612 22.628L32.5488 23.2286H29.997H27.4451L27.0327 22.628C26.4524 21.7822 25.5298 21.088 24.4498 20.684C23.1779 20.2082 21.2494 20.1359 19.8881 20.5128C18.6996 20.842 17.3588 21.7421 16.7992 22.5867L16.3737 23.2286H13.7827H11.1915L10.805 22.6195C10.3084 21.8366 9.31972 21.0892 8.23687 20.6782C7.52194 20.4069 7.14362 20.3478 5.94233 20.32C5.15116 20.3017 4.28807 20.3362 4.02435 20.3969ZM5.06325 21.8113C3.9756 21.9611 2.92934 22.5339 2.37121 23.2851C2.12955 23.6103 2.10238 24.8676 2.0605 37.6248C2.02662 47.9293 2.06322 51.7387 2.19923 52.1047C2.4409 52.7544 3.28481 53.4697 4.19249 53.7941C5.24994 54.172 6.71559 54.0917 7.65492 53.6043C8.46143 53.1858 8.99303 52.6383 9.23805 51.9738C9.48131 51.3143 9.34018 23.9024 9.09133 23.4482C8.48237 22.3373 6.65022 21.5927 5.06325 21.8113ZM21.2062 21.8064C20.0741 21.9723 19.1543 22.5051 18.5473 23.3466C18.2623 23.7418 18.2474 24.3542 18.2056 37.5039C18.1752 47.0077 18.215 51.4375 18.3342 51.862C18.9328 53.9904 22.4991 54.7545 24.5146 53.186C25.5883 52.3506 25.5217 53.3629 25.5217 37.8878V23.865L25.1005 23.241C24.6193 22.528 23.702 21.9727 22.8256 21.864C22.5063 21.8244 22.1372 21.7768 22.0054 21.7582C21.8735 21.7396 21.5139 21.7612 21.2062 21.8064ZM37.3492 21.8305C36.2983 21.9728 35.428 22.4694 34.9118 23.221L34.4722 23.861V37.8858C34.4722 53.363 34.4056 52.3506 35.4793 53.186C36.6188 54.0728 38.2441 54.269 39.7569 53.7026C40.8228 53.3036 41.4444 52.6759 41.6683 51.7725C41.7759 51.338 41.8171 46.4148 41.7884 37.4352L41.7446 23.7596L41.3997 23.2876C40.5545 22.1313 39.0699 21.5972 37.3492 21.8305ZM53.652 21.8106C52.8933 21.914 52.4052 22.1156 51.6893 22.621C50.5613 23.417 50.6151 22.6519 50.6162 37.9118C50.6167 46.723 50.6743 51.7603 50.7776 52.035C51.1901 53.1315 52.4691 53.924 53.9539 54.0033C54.4724 54.031 55.1456 53.993 55.45 53.9189C56.2953 53.7129 57.2418 53.0456 57.6277 52.3835L57.9726 51.7916L57.9301 37.7167C57.8912 24.8711 57.8644 23.6104 57.6227 23.2851C56.8277 22.2152 55.1778 21.6024 53.652 21.8106ZM29.8771 24.7363L27.5995 24.7691V37.156V49.5431H29.997H32.3944V37.1598C32.3944 30.349 32.3406 24.7601 32.2746 24.7401C32.2085 24.72 31.1297 24.7184 29.8771 24.7363ZM43.8491 24.7233C43.7904 24.7665 43.7425 30.3421 43.7425 37.1135V49.4251H46.1399H48.5374V37.0348V24.6446H46.2465C44.9864 24.6446 43.9076 24.68 43.8491 24.7233ZM11.4565 37.1528V49.5431H13.854H16.2515V37.1528V24.7626H13.854H11.4565V37.1528ZM9.14247 56.6202C8.75504 56.9364 8.88498 57.7403 9.4356 58.4339C9.74088 58.8185 10.078 59.0429 10.6864 59.2668C11.4968 59.565 11.6029 59.5732 14.6097 59.5732C17.9059 59.5732 18.4626 59.4984 19.2617 58.9481C19.7075 58.641 20.2472 57.9019 20.2472 57.5981C20.2472 57.183 19.7848 56.8592 19.1919 56.8592C18.73 56.8592 18.5872 56.9233 18.3617 57.2317C17.7606 58.0541 17.8301 58.0392 14.601 58.0392C11.7667 58.0392 11.6616 58.0306 11.3461 57.7737C11.1667 57.6276 10.9738 57.3274 10.9176 57.1064C10.8613 56.8855 10.735 56.6332 10.6369 56.5459C10.3669 56.3058 9.47348 56.3503 9.14247 56.6202ZM49.4628 56.512C49.3126 56.5767 49.1419 56.8273 49.0835 57.0689C49.0252 57.3106 48.8299 57.6276 48.6496 57.7737C48.3328 58.0304 48.2256 58.0392 45.4234 58.0392C42.2492 58.0392 42.1705 58.0242 41.7033 57.3312C41.4804 57.0006 41.3183 56.9106 40.8904 56.8804C40.2372 56.8342 39.7456 57.1252 39.7492 57.556C39.7534 58.0295 40.3969 58.7591 41.1599 59.1553L41.851 59.5142L45.1282 59.5526C48.3974 59.5908 48.4076 59.5901 49.2707 59.2784C49.9191 59.0441 50.2415 58.833 50.5562 58.4365C51.1086 57.7406 51.2394 56.9367 50.8514 56.6202C50.545 56.3704 49.9073 56.3206 49.4628 56.512Z" stroke="white" stroke-width="0.5"/>
</g>
<defs>
<clipPath id="clip0_638_201">
<rect width="60" height="60" fill="white"/>
</clipPath>
</defs>
</svg>
