<svg viewBox="0 0 407 235" fill="none" xmlns="http://www.w3.org/2000/svg">
<path fill-rule="evenodd" clip-rule="evenodd" d="M88.6784 42.4154C88.7542 42.5131 89.5551 42.6533 90.4582 42.7268C91.3613 42.8003 94.3351 43.1023 97.0667 43.3978C103.235 44.0654 114.051 44.3072 120.324 43.9176C125.555 43.5929 126.983 43.2497 122.291 43.4448C120.35 43.5256 115.41 43.5829 111.312 43.5723C103.992 43.5531 101.613 43.4161 93.6686 42.557C90.4307 42.207 88.4734 42.1514 88.6784 42.4154ZM84.4425 43.1012C84.6475 43.6033 91.2711 44.5132 99.6806 45.1944C101.44 45.3371 106.604 45.451 111.443 45.4543C120.573 45.4606 124.403 45.2173 129.871 44.2843C132.525 43.8316 133.269 43.605 133.269 43.2497C133.269 43.121 133.075 43.0875 132.812 43.1706C132.56 43.2497 131.237 43.4886 129.871 43.7012C119.416 45.3294 97.1561 44.9528 85.0772 42.9436C84.5165 42.8503 84.3563 42.89 84.4425 43.1012ZM89.1734 49.4749C89.3007 50.4773 89.4233 53.5932 89.4456 56.3995C89.5093 64.3816 88.7693 66.4979 83.4655 73.5001C82.2484 75.1072 81.2525 76.4701 81.2525 76.5286C81.2525 76.6902 76.2294 83.8322 75.1966 85.139C73.8118 86.8912 72.7712 89.1542 69.7864 96.9055C67.6979 102.329 66.2662 108.874 65.0037 118.771C64.2784 124.456 63.9725 142.201 64.5999 142.201C64.942 142.201 65.0087 140.92 65.1179 132.257C65.2384 122.723 65.5079 118.77 66.3559 114.101C66.4926 113.349 66.6186 112.311 66.6361 111.796C66.6656 110.929 66.6837 110.906 66.8763 111.483C66.9908 111.827 67.2182 112.577 67.3818 113.15C67.8408 114.757 68.9206 116.361 69.8468 116.811C70.8591 117.303 71.1124 117.307 71.8315 116.843C72.4711 116.43 73.0773 114.882 74.0923 111.067C74.4579 109.692 75.6875 105.604 76.8248 101.982C77.9621 98.3595 79.3075 93.5332 79.8144 91.2567C80.8691 86.5201 82.3229 81.0575 83.2158 78.4747C83.9088 76.4698 84.2763 74.9804 84.034 75.1582C83.5797 75.4917 81.0251 83.7843 79.4194 90.1371C78.4206 94.0888 77.0713 98.962 76.4212 100.967C75.7709 102.971 74.5382 107.082 73.6819 110.102C72.8253 113.122 71.9408 115.816 71.7162 116.089C71.1474 116.781 70.4644 116.709 69.5289 115.86C68.7782 115.179 67.6602 112.863 67.6602 111.99C67.6602 111.777 67.4827 111.186 67.266 110.677C66.9032 109.826 66.9153 109.572 67.4145 107.494C67.9708 105.181 69.52 99.6466 70.0289 98.155C70.8291 95.8105 74.3327 87.4113 74.8506 86.5968C75.8433 85.0348 82.6917 75.491 84.6271 72.9722C86.8196 70.1184 87.7873 68.6027 88.5597 66.8123C89.3094 65.0744 90.059 61.9866 90.2789 59.7316C90.5792 56.6486 89.7169 47.6527 89.1209 47.6527C89.0226 47.6527 89.0461 48.4728 89.1734 49.4749ZM128.853 48.9714C128.489 50.6316 128.479 56.5036 128.833 59.3451C129.181 62.1343 129.779 65.0346 130.435 67.1195C131.496 70.491 136.407 81.0226 137.236 81.7027C137.375 81.8173 137.172 81.255 136.785 80.4532C130.594 67.6456 128.897 61.3352 129.133 52.0088C129.194 49.613 129.221 47.6527 129.192 47.6527C129.164 47.6527 129.011 48.246 128.853 48.9714ZM186.854 50.5262C188.876 51.519 213.516 51.5244 213.516 50.532C213.516 50.4196 213.038 50.3863 212.405 50.4546C207.358 51.0006 199.801 51.136 194.435 50.7767C188.895 50.406 186.444 50.325 186.854 50.5262ZM183.195 51.1579C183.195 51.7891 189.676 52.4601 200.948 52.9955C202.178 53.0538 203.389 53.008 203.693 52.8918C203.992 52.777 205.648 52.6275 207.372 52.5592C211.186 52.408 215.67 51.8974 216.762 51.4898C217.668 51.152 217.989 51.142 212.863 51.611C203.74 52.4457 192.467 52.2322 184.175 51.0679C183.535 50.9781 183.195 51.0094 183.195 51.1579ZM186.593 55.9484C186.593 56.0575 186.798 56.8831 187.048 57.7829C187.396 59.0348 187.503 60.3976 187.505 63.5843C187.508 67.4638 187.468 67.8191 186.921 68.7629C186.155 70.0864 184.236 72.2201 182.383 73.8102C181.569 74.5089 180.769 75.279 180.606 75.5212C179.795 76.7285 174.62 89.8073 173.282 94.0301C172.463 96.6173 170.387 104.72 170.387 105.332C170.387 105.973 171.949 108.201 173.01 109.071C175.044 110.741 175.572 110.251 176.943 105.424C177.526 103.373 178.353 100.477 178.783 98.9881C179.212 97.499 179.732 95.6716 179.937 94.927C180.195 93.9934 180.313 92.1841 180.319 89.0959C180.327 84.076 180.522 83.0181 182.371 77.9541C183.998 73.4951 184.319 72.8705 185.86 71.1597C187.864 68.9353 188.031 68.3386 188.031 63.3761C188.031 60.084 187.931 58.8736 187.556 57.6011C187.296 56.7156 186.972 55.9369 186.838 55.8707C186.703 55.8043 186.593 55.8393 186.593 55.9484ZM215.873 57.0763C215.88 59.3982 216.388 64.5782 216.797 66.4927C217.407 69.356 218.44 72.3915 219.165 73.4545C219.836 74.4385 219.824 74.3741 218.988 72.4776C218.387 71.1131 217.29 66.8871 216.927 64.5346C216.778 63.5683 216.578 61.2021 216.482 59.2761C216.388 57.3504 216.211 55.7747 216.089 55.7747C215.968 55.7747 215.87 56.3605 215.873 57.0763ZM188.363 70.561C185.894 76.0421 183.391 85.0871 182.83 90.5537C182.608 92.7177 183.073 91.1599 183.948 86.805C184.796 82.5845 186.664 76.0635 187.918 72.9449C188.357 71.8511 188.669 70.7969 188.61 70.6024C188.521 70.3075 188.48 70.3006 188.363 70.561ZM88.6261 72.2791C86.4618 76.9574 83.4851 86.5368 82.6886 91.3867C82.341 93.5019 82.8611 92.2797 83.7512 88.8895C84.8785 84.5939 87.2611 77.231 88.5871 73.9435C89.7344 71.0995 89.7098 71.1857 89.3745 71.1857C89.2409 71.1857 88.9042 71.6776 88.6261 72.2791ZM182.241 74.4895C181.09 75.6235 180.799 76.1577 179.085 80.2826C176.43 86.6722 174.98 90.6367 173.536 95.4477C170.578 105.305 170.559 105.465 172.086 107.406C172.661 108.137 173.449 108.923 173.838 109.153C175.118 109.912 175.187 109.77 177.323 102.008C177.717 100.576 178.398 98.28 178.836 96.9055C179.587 94.5482 179.643 94.0932 179.818 88.8876C179.95 84.9501 180.124 82.981 180.424 82.0151C180.991 80.1885 182.322 76.6112 183.09 74.8477C183.436 74.0555 183.671 73.3699 183.613 73.3239C183.556 73.2779 182.938 73.8025 182.241 74.4895ZM173.333 84.8984C172.724 85.8897 171.821 87.2632 171.324 87.9504C170.828 88.6377 170.058 90.1798 169.614 91.3773C169.17 92.5748 168.677 93.6182 168.519 93.696C168.361 93.7739 168.287 93.9655 168.355 94.1219C168.423 94.2783 168.324 94.7607 168.135 95.1938C167.828 95.8952 167.844 96.0518 168.284 96.6285L168.779 97.276L169.079 96.3617C169.744 94.3448 170.787 91.7626 172.628 87.5802C173.691 85.165 174.533 83.168 174.499 83.1424C174.466 83.117 173.941 83.9071 173.333 84.8984ZM219.072 87.5466C216.207 88.6839 212.541 92.7491 211.289 96.1766C210.969 97.0513 211.312 96.5971 213.003 93.9053C214.384 91.7057 214.922 91.0841 216.619 89.7217C217.877 88.7118 219.144 87.9198 220.051 87.575C220.921 87.2444 221.277 87.0256 220.952 87.021C220.657 87.0166 219.81 87.2532 219.072 87.5466ZM193.155 90.304C191.36 92.9763 187.795 102.094 186.203 108.083C185.543 110.565 185.008 114.087 185.291 114.087C185.379 114.087 185.657 112.985 185.908 111.64C186.745 107.159 189.729 98.4872 192.571 92.2718C193.559 90.1099 193.776 89.3799 193.155 90.304ZM93.8536 92.8986C91.9233 96.4396 90.4059 100.387 88.2716 107.422C86.2459 114.1 84.3037 122.835 84.7633 123.201C84.9206 123.326 84.9962 123.043 85.9406 118.772C87.7321 110.672 90.3225 102.342 93.0541 95.9007C94.0654 93.5155 94.8441 91.525 94.7842 91.4773C94.7246 91.4296 94.3059 92.0693 93.8536 92.8986ZM61.1958 143.595C61.4501 143.648 61.803 143.645 61.9799 143.588C62.1569 143.531 61.9488 143.487 61.5175 143.492C61.0862 143.496 60.9414 143.542 61.1958 143.595ZM137.321 210.04C137.465 210.141 138.582 210.571 139.804 210.996C142.24 211.843 144.827 213.272 145.587 214.191C145.855 214.514 146.075 215.136 146.076 215.572C146.077 216.048 146.182 216.314 146.339 216.237C146.725 216.046 146.656 214.74 146.224 214.075C145.678 213.233 143.397 211.911 140.85 210.96C138.702 210.158 136.776 209.656 137.321 210.04Z" fill="white"/>
<path fill-rule="evenodd" clip-rule="evenodd" d="M223.674 179.157C223.674 179.208 224.325 179.505 225.121 179.817C225.918 180.129 227.038 180.705 227.611 181.098C228.185 181.491 228.654 181.719 228.654 181.605C228.654 181.312 227.201 180.369 225.989 179.874C224.727 179.359 223.674 179.032 223.674 179.157Z" fill="white"/>
<path fill-rule="evenodd" clip-rule="evenodd" d="M357.039 113.55C356.979 113.799 355.477 114.347 351.974 115.398C349.235 116.22 342.1 118.364 336.117 120.163C330.135 121.963 324.06 123.766 322.619 124.172C321.177 124.577 318.052 125.473 315.673 126.163C304.834 129.306 291.002 133.287 286.579 134.536C283.912 135.289 281.671 135.969 281.599 136.047C281.447 136.212 274.461 138.228 251.074 144.86C245.745 146.371 241.322 147.679 241.245 147.767C241.112 147.919 237.759 148.892 223.412 152.94C220.024 153.896 213.746 155.68 209.46 156.903C205.174 158.127 201.607 159.128 201.532 159.128C201.458 159.128 200.659 159.402 199.758 159.736C197.934 160.413 191.894 162.163 174.791 166.968C160.126 171.089 158.598 171.529 158.279 171.721C158.002 171.888 145.235 175.604 135.345 178.396C132.101 179.312 125.201 181.289 120.012 182.789C110.587 185.513 107.313 186.443 86.8553 192.212C80.8727 193.899 75.9189 195.347 75.8468 195.429C75.7748 195.512 72.0005 196.621 67.4595 197.893C64.7733 198.646 61.6823 199.518 59.1038 200.25L59.0703 199.434C59.9549 199.185 60.8779 198.924 61.8242 198.657C67.8789 196.949 72.8916 195.489 72.9637 195.413C73.1044 195.264 75.0996 194.686 87.1174 191.316C94.9588 189.117 110.682 184.647 126.171 180.213C130.856 178.872 136.282 177.32 138.228 176.763C140.174 176.207 144.833 174.875 148.581 173.803C152.329 172.731 155.455 171.794 155.527 171.72C155.671 171.572 156.827 171.238 173.35 166.577C191.11 161.567 196.787 159.936 197.07 159.76C197.361 159.581 201.055 158.511 214.5 154.712C219.474 153.307 226.197 151.405 229.44 150.485C232.684 149.564 235.945 148.64 236.688 148.43C237.43 148.22 238.315 147.912 238.654 147.746C238.992 147.579 240.98 146.96 243.07 146.37C245.16 145.78 250.232 144.341 254.34 143.174C258.449 142.006 265.635 139.972 270.31 138.653C274.984 137.335 278.936 136.172 279.092 136.068C279.353 135.894 285.874 134.002 304.402 128.721C308.367 127.591 314.827 125.712 318.758 124.545C322.69 123.378 325.994 122.424 326.101 122.424C326.208 122.424 329.597 121.427 333.631 120.208C337.665 118.99 343.502 117.239 346.601 116.319C349.701 115.398 353.239 114.328 354.465 113.941C357.121 113.102 357.147 113.098 357.039 113.55Z" fill="white"/>
<path fill-rule="evenodd" clip-rule="evenodd" d="M356.019 117.582C353.304 118.542 332.295 125.377 332.059 125.377C332.017 125.377 331.726 125.046 331.412 124.641C330.758 123.798 329.197 123.083 328.01 123.083C327.187 123.083 323.455 124.221 321.668 125.017L320.686 125.454V127.362V129.27L318.134 130.067C316.731 130.505 312.193 131.929 308.051 133.231C303.909 134.533 300.415 135.599 300.287 135.599C300.158 135.599 300.014 135.678 299.966 135.776C299.918 135.873 296.405 137.042 292.158 138.374C274.601 143.879 268.187 145.878 267.781 145.969C267.48 146.037 267.143 145.765 266.653 145.057C265.835 143.874 264.483 142.987 263.023 142.673C261.78 142.407 262.354 142.279 255.909 144.25C253.03 145.13 249.968 146.056 249.104 146.308L247.534 146.765V149.773V152.782L241.514 154.623C232.328 157.434 226.61 159.248 226.465 159.4C226.393 159.475 224.332 160.166 221.885 160.935C197.164 168.703 189.74 171.066 189.434 171.262C189.065 171.499 185.849 172.582 181.971 173.776C180.172 174.331 172.399 176.815 164.697 179.297C156.996 181.78 143.157 186.207 133.945 189.135C124.732 192.063 116.953 194.582 116.657 194.732C116.047 195.043 113.388 195.914 105.155 198.498C91.1489 202.895 80.2804 206.389 80.1598 206.533C80.0878 206.619 76.0245 207.978 71.1302 209.552C67.6831 210.661 63.4006 212.039 60.0703 213.11L60.1218 214.358C61.0281 214.075 61.5859 213.904 61.589 213.909C61.5955 213.92 61.6594 214.398 61.7311 214.972L61.8615 216.015L60.2126 216.558L60.2493 217.447C61.1962 217.149 61.8792 216.954 61.9941 216.954C62.1821 216.954 62.5398 217.47 62.7895 218.101C63.1955 219.128 63.3193 219.248 63.9665 219.248H64.6897L64.1856 218.081C63.7197 217.002 62.8859 214.138 62.8859 213.618C62.8859 213.417 65.2296 212.478 65.3736 212.62C65.4055 212.652 65.6212 213.359 65.853 214.191C66.0849 215.024 66.5673 216.197 66.9253 216.799C67.6459 218.01 69.0231 219.425 69.2835 219.223C69.3754 219.151 69.1505 218.808 68.7836 218.461C67.2931 217.049 65.4979 212.872 66.1757 212.393C66.421 212.219 81.4661 207.377 82.319 207.197C82.726 207.112 82.777 207.279 82.777 208.7V210.3L81.7956 210.61C76.1831 212.382 73.7962 213.535 72.3991 215.151C71.9172 215.709 71.5228 216.314 71.5228 216.496C71.5228 216.678 71.8665 216.395 72.2865 215.867C73.5219 214.315 76.3137 212.84 80.6628 211.444C81.5875 211.147 82.4235 210.904 82.5206 210.904C82.6179 210.904 82.7713 212.054 82.8613 213.46C83.0142 215.841 83.333 217.233 84.0629 218.704C84.6251 219.836 84.6275 219.098 84.0668 217.469C83.6494 216.256 83.4971 215.179 83.469 213.238L83.4314 210.635L86.1795 210.037C93.5876 208.426 101.092 207.701 110.52 207.687C119.349 207.674 125.326 208.209 132.569 209.662C135.938 210.338 136.128 210.364 135.764 210.096C134.889 209.453 126.712 208.028 120.466 207.43C115.407 206.946 105.505 206.946 100.574 207.43C95.3729 207.94 91.1594 208.534 87.619 209.257C85.8916 209.609 84.2312 209.944 83.9292 210.002C83.4212 210.099 83.3667 209.993 83.2037 208.596C83.0519 207.294 83.093 207.036 83.4999 206.734C83.9208 206.421 88.2013 205.038 113.319 197.098C116.946 195.952 119.95 194.946 119.993 194.862C120.094 194.67 151.091 184.824 151.587 184.827C151.901 184.829 151.927 185.703 151.764 190.618C151.657 193.802 151.477 199.786 151.363 203.916C151.181 210.525 151.091 211.618 150.614 213.027C149.854 215.272 149.09 216.596 147.775 217.946C147.151 218.587 146.71 219.165 146.796 219.232C147.081 219.453 148.895 217.624 149.728 216.275C151.374 213.609 151.605 212.278 152.009 203.082C152.211 198.492 152.381 192.429 152.386 189.606L152.396 184.475L153.489 184.133C154.091 183.945 154.606 183.813 154.636 183.84C154.665 183.868 154.599 190.602 154.491 198.805C154.277 214.913 154.256 215.16 152.783 218.049L152.171 219.248H152.755C153.076 219.248 153.467 219.146 153.624 219.02C153.831 218.856 154.067 218.859 154.475 219.034C154.786 219.166 155.299 219.24 155.616 219.198C156.062 219.139 155.939 219.058 155.068 218.837C154.219 218.621 153.985 218.471 154.109 218.222C154.501 217.435 155.262 214.784 155.519 213.31C155.673 212.429 155.799 210.166 155.799 208.282C155.799 206.247 155.9 204.855 156.048 204.855C156.682 204.855 164.843 206.387 164.959 206.527C165.031 206.615 167.799 207.172 171.11 207.767C174.42 208.36 179.132 209.209 181.579 209.652C184.026 210.096 188.883 210.958 192.373 211.568C195.863 212.178 198.718 212.724 198.718 212.782C198.718 212.839 198.395 213.037 198 213.221C197.9 213.268 197.632 213.396 197.235 213.586L198.288 213.954C200.057 213.093 202.105 212.093 204.48 210.933C209.302 208.577 213.365 206.533 213.509 206.393C213.653 206.252 216.951 204.64 220.838 202.811C229.155 198.896 237.004 195.082 237.193 194.864C237.266 194.779 238.644 194.08 240.255 193.31L243.183 191.91L244.91 192.256C245.859 192.446 246.572 192.653 246.494 192.716C245.856 193.224 236.177 198.178 226.885 202.752C222.87 204.728 219.431 206.468 219.242 206.618C219.054 206.768 217.863 207.418 216.597 208.063C212.411 210.192 207.813 212.507 203.127 214.846C202.801 215.009 202.487 215.166 202.185 215.317L203.196 215.67C205.093 214.724 207.445 213.538 210.369 212.059C214.255 210.093 218.26 208.074 219.267 207.574C220.275 207.073 221.217 206.552 221.361 206.416C221.505 206.279 222.859 205.56 224.371 204.816C231.688 201.216 244.146 194.974 244.262 194.85C244.422 194.679 246.799 193.382 246.952 193.382C247.012 193.382 247.131 194.812 247.215 196.56C247.353 199.422 247.421 199.773 247.901 200.082C248.251 200.308 248.289 200.429 246.633 201.355L248.677 201.433C248.864 201.328 249.013 201.242 249.117 201.179C249.954 200.675 250.477 200.524 251.441 200.509C252.36 200.494 252.997 200.324 253.883 199.856C254.543 199.508 255.282 199.223 255.525 199.223C256.04 199.223 262.37 200.235 262.499 200.338C262.604 200.421 262.226 200.689 260.158 201.873L261.19 201.913C262.612 201.102 264.282 200.151 266.247 199.032C269.918 196.942 273.155 195.074 273.441 194.881C273.726 194.687 274.543 194.177 275.255 193.747C276.709 192.868 276.717 192.865 276.714 193.225C276.713 193.369 276.279 193.721 275.749 194.008C275.219 194.294 274.602 194.68 274.377 194.864C274.152 195.048 271.907 196.37 269.388 197.801C266.975 199.172 264.445 200.628 262.17 201.951L263.897 202.017C264.58 201.615 265.286 201.201 266.007 200.78C271.249 197.713 275.656 195.095 275.8 194.962C275.944 194.828 277.038 194.13 278.231 193.409L280.4 192.099L280.325 194.028L280.249 195.956L271.772 201.119C271.138 201.505 270.519 201.883 269.921 202.248L271.09 202.293C272.565 201.392 274.167 200.412 275.506 199.59C278.08 198.011 280.29 196.719 280.418 196.719C280.674 196.719 280.459 198.001 280.17 198.2C279.817 198.443 276.6 200.453 273.479 202.384L274.643 202.429C277.16 200.872 279.313 199.513 279.661 199.257L280.38 198.727V202.649L281.671 202.698C281.676 201.763 281.677 200.714 281.677 199.53C281.68 194.6 281.761 185.521 281.858 179.355C282.015 169.41 282.082 168.111 282.458 167.84C282.831 167.571 284.062 167.648 292.819 168.489C298.286 169.014 302.923 169.482 303.125 169.528C303.435 169.599 303.465 170.813 303.323 177.377C303.28 179.323 303.225 182.7 303.169 186.687L304.283 186.95C304.315 184.716 304.345 182.674 304.371 180.996L304.543 169.758L306.645 168.517C309.415 166.879 310.734 166.338 311.037 166.714C311.161 166.868 311.233 168.824 311.198 171.061C311.142 174.555 311.078 175.118 310.741 175.052C309.011 174.713 308.149 174.777 307.504 175.291C306.508 176.084 305.916 177.929 305.916 180.24C305.916 182.275 306.505 184.44 307.145 184.762C307.323 184.852 308.235 185.026 309.17 185.149L310.871 185.374L310.884 188.513L312.367 188.864C312.405 186.883 312.437 185.706 312.458 185.689C312.51 185.645 314.625 185.827 317.158 186.093L321.764 186.576L321.728 188.393L322.833 188.451C322.858 187.353 322.882 186.706 322.904 186.706C322.929 186.706 324.118 186.845 325.547 187.015C329.029 187.428 333.892 187.916 335.343 187.997L336.521 188.062L337.239 186.915C338.188 185.4 338.56 183.681 338.436 181.387C338.354 179.881 338.206 179.324 337.685 178.571C337.094 177.714 336.934 177.623 335.863 177.528C334.524 177.409 334.673 177.272 336.765 176.699C339.661 175.904 343.211 173.464 344.299 171.52C345.087 170.112 345.237 167.701 345.415 153.648C345.506 146.423 345.618 140.482 345.663 140.446C345.716 140.404 348.254 140.514 350.853 140.655L350.812 140.073C350.613 140.066 350.407 140.059 350.196 140.051C348.073 139.976 346.338 139.859 346.341 139.791C346.346 139.679 348.012 138.662 348.87 138.248C349.107 138.133 349.296 138.246 349.466 138.603C349.668 139.025 350.062 139.323 350.774 139.531L350.7 138.494L350.392 138.414L350.32 134.792C350.304 133.963 350.296 133.318 350.298 132.821L350.117 130.257C350.025 130.236 349.938 130.216 349.858 130.196C348.988 129.976 347.722 129.73 347.044 129.649L345.812 129.502V127.459V125.417L347.971 125.518C348.549 125.545 349.201 125.61 349.793 125.693L349.744 125.003C349.232 124.975 348.645 124.96 348.005 124.96C346.511 124.96 345.288 124.886 345.288 124.796C345.288 124.631 347.391 124.437 349.696 124.325L349.632 123.417C348.143 123.5 346.536 123.641 344.839 123.836C343.489 123.992 343.29 124.31 343.089 126.633C342.83 129.634 343.217 130.008 347.189 130.59C348.163 130.733 349.015 130.921 349.083 131.01C349.256 131.233 348.101 131.582 345.943 131.959C343.849 132.325 335.49 132.626 335.284 132.343C335.21 132.241 335.222 130.578 335.311 128.649L335.474 125.14L345.55 121.846C357.634 117.895 357.066 118.102 357.066 117.626C357.066 117.415 357.037 117.246 357.001 117.25C356.965 117.255 356.523 117.404 356.019 117.582ZM326.182 124.206C325.247 124.471 324.012 124.847 323.439 125.042L322.396 125.397L323.439 125.857C324.952 126.523 325.649 127.771 325.935 130.325C326.216 132.832 326.216 158.167 325.935 159.901C325.824 160.589 325.766 161.185 325.806 161.223C325.88 161.294 328.811 159.634 329.061 159.38C329.133 159.307 329.734 158.954 330.395 158.595L331.599 157.943L331.768 156.21C331.861 155.257 331.938 153.281 331.939 151.818L331.94 149.158H331.011C329.779 149.158 328.716 148.696 328.308 147.984C327.518 146.6 327.637 143.944 328.529 143.065C328.954 142.648 329.219 142.594 330.609 142.641L332.202 142.695L332.198 137.113C332.191 127.887 331.74 125.409 329.874 124.35C328.757 123.716 328.014 123.687 326.182 124.206ZM344.242 127.019C344.242 128.125 344.356 128.956 344.521 129.037C344.674 129.112 344.84 129.141 344.89 129.101C344.939 129.061 345.016 128.184 345.06 127.152C345.13 125.514 345.084 125.268 344.691 125.207C344.293 125.146 344.242 125.354 344.242 127.019ZM333.165 125.862C332.497 126.072 332.443 126.163 332.597 126.818C332.918 128.179 333.237 132.363 333.251 135.39C333.267 138.736 333.608 138.989 334.033 135.97C334.393 133.412 334.497 125.581 334.171 125.608C334.024 125.62 333.571 125.735 333.165 125.862ZM321.729 127.626C321.727 128.512 321.639 129.341 321.533 129.47C321.427 129.598 320.703 129.96 319.925 130.272L318.509 130.842L318.681 137.236C318.776 140.753 318.853 146.512 318.854 150.035L318.854 156.44L319.836 156.581C321.389 156.804 321.471 156.93 321.471 159.092C321.471 160.77 321.546 161.108 321.995 161.466C322.602 161.949 322.69 161.959 323.777 161.657C324.629 161.42 324.731 161.272 325.002 159.881C325.269 158.508 325.371 138.438 325.137 133.283C324.88 127.609 324.565 126.847 322.191 126.151C321.78 126.03 321.733 126.182 321.729 127.626ZM314.666 131.933L311.918 132.815L311.847 136.71L311.776 140.605H314.661H317.545L317.559 136.694C317.566 134.543 317.636 132.384 317.714 131.896C317.792 131.409 317.757 131.019 317.635 131.031C317.514 131.043 316.178 131.449 314.666 131.933ZM347.687 131.973C346.276 132.464 342.007 132.885 338.418 132.886C335.752 132.887 335.081 132.945 335.081 133.176C335.081 133.602 335.934 133.715 339.162 133.719C344.466 133.724 348.718 132.999 349.034 132.036C349.188 131.567 348.895 131.553 347.687 131.973ZM310.283 133.311C309.695 133.499 309.694 133.513 309.694 138.391C309.694 141.082 309.626 143.424 309.542 143.597C309.392 143.91 310.378 144.511 310.665 144.281C310.827 144.153 311.132 133.089 310.974 133.109C310.918 133.116 310.606 133.207 310.283 133.311ZM347.752 133.522C346.136 134.069 342.416 134.39 338.581 134.312L335.146 134.243L334.983 135.808C334.866 136.932 334.599 137.731 334.035 138.649C333.391 139.696 333.249 140.188 333.249 141.375V142.822L338.287 143.085C341.058 143.229 343.531 143.393 343.784 143.45C344.185 143.541 344.242 143.391 344.242 142.236C344.243 140.486 344.785 139.682 346.769 138.491C347.655 137.959 348.513 137.489 348.676 137.445C348.877 137.392 348.948 136.692 348.897 135.263L348.822 133.159L347.752 133.522ZM305.933 134.672C304.369 135.176 302.95 135.681 302.78 135.793C302.51 135.971 297.911 137.44 283.591 141.921L280.128 143.004L280.127 143.943C280.126 144.82 280.147 144.849 280.45 144.379C280.831 143.786 282.394 143.32 286.153 142.679C288.501 142.278 289.368 142.247 296.134 142.319L303.543 142.397L306.03 143.08C307.397 143.455 308.663 143.811 308.843 143.87C309.1 143.954 309.17 142.871 309.17 138.85C309.17 136.029 309.082 133.729 308.974 133.738C308.866 133.748 307.498 134.168 305.933 134.672ZM311.836 141.701L311.918 142.378L314.732 142.483L317.547 142.587L317.546 141.805L317.545 141.023H314.65H311.754L311.836 141.701ZM286.924 143.431C282.819 144.274 282.212 144.419 282.212 144.559C282.212 144.643 282.772 144.638 283.456 144.548C285.22 144.317 287.689 144.325 288.743 144.566C289.237 144.679 290.09 145.121 290.639 145.547L291.636 146.323L296.412 146.406L301.188 146.488L302.348 145.812L303.509 145.136L306.143 145.272C307.592 145.347 309.225 145.492 309.773 145.595C310.475 145.726 310.74 145.714 310.672 145.551C310.619 145.425 309.052 144.901 307.19 144.389C304.098 143.537 303.499 143.443 300.272 143.295C294.594 143.035 288.555 143.097 286.924 143.431ZM311.767 143.371C311.756 143.514 311.701 143.818 311.644 144.047C311.588 144.277 311.752 144.699 312.009 144.986C312.267 145.273 312.548 145.66 312.635 145.846C312.801 146.203 313.468 146.338 316.211 146.573L317.886 146.716L317.7 145.073C317.597 144.17 317.491 143.418 317.464 143.403C317.437 143.388 316.149 143.316 314.601 143.244C312.453 143.144 311.783 143.174 311.767 143.371ZM256.105 145.029C253.046 145.962 250.544 146.795 250.544 146.879C250.544 146.963 251.133 147.482 251.855 148.033C253.538 149.318 254.1 150.282 254.521 152.6C254.988 155.169 255.02 196.836 254.557 198.021C254.258 198.783 254.265 198.796 254.81 198.563C256.363 197.901 261.077 195.287 261.536 194.833C261.608 194.762 262.55 194.231 263.63 193.652C264.709 193.073 265.806 192.409 266.067 192.177C266.77 191.553 267.219 189.011 267.43 184.474L267.615 180.468L266.997 180.362C266.656 180.303 265.091 180.095 263.519 179.898C260.212 179.485 259.918 179.325 259.29 177.605C258.702 175.992 258.892 173.858 259.772 172.209C260.726 170.421 261.173 170.224 263.761 170.45C264.912 170.551 266.186 170.681 266.591 170.74L267.327 170.847L267.23 159.638C267.146 149.758 267.08 148.279 266.679 147.176C266.112 145.617 265.24 144.543 264.076 143.969C262.44 143.164 262.045 143.216 256.105 145.029ZM278.352 143.532C277.824 143.701 277.762 143.867 277.754 145.136C277.724 149.549 277.231 159.486 276.98 160.733C276.439 163.418 275.098 164.565 270.755 166.057L268.495 166.833L268.47 167.708C268.448 168.542 268.477 168.576 269.109 168.45C269.474 168.377 270.657 168.043 271.739 167.709C275.472 166.556 277.467 164.833 278.429 161.934C278.803 160.805 278.913 159.476 278.986 155.208C279.035 152.282 279.104 148.41 279.139 146.603C279.174 144.796 279.144 143.323 279.072 143.33C279 143.338 278.676 143.429 278.352 143.532ZM329.049 144.287C328.675 145.189 328.9 147.45 329.404 147.851C329.625 148.028 332.128 148.301 336.638 148.639C340.432 148.925 343.694 149.158 343.888 149.158C344.164 149.158 344.242 148.636 344.242 146.772V144.386L343.129 144.264C341.943 144.134 331.237 143.531 330.063 143.528C329.49 143.526 329.307 143.663 329.049 144.287ZM275.931 144.307C275.427 144.489 273.425 145.129 271.482 145.728C268.033 146.792 267.95 146.833 268.01 147.415C268.442 151.591 268.58 153.729 268.59 156.391L268.603 159.555L270.419 160.223C271.417 160.589 272.507 161.13 272.839 161.423L273.445 161.957L272.592 161.487C271.628 160.956 268.606 159.933 268.425 160.077C268.36 160.129 268.391 161.544 268.493 163.222C268.707 166.733 268.379 166.517 271.666 165.318C275.438 163.943 276.269 163.031 276.699 159.797C276.988 157.622 277.249 143.933 277.001 143.96C276.916 143.969 276.435 144.126 275.931 144.307ZM281.166 148.115C281.166 150.062 281.264 151.244 281.427 151.244C281.59 151.244 281.689 150.062 281.689 148.115C281.689 146.168 281.59 144.986 281.427 144.986C281.264 144.986 281.166 146.168 281.166 148.115ZM283.717 145.13L282.212 145.215V148.305V151.394L285.157 151.95C286.776 152.255 288.614 152.737 289.24 153.022C289.867 153.306 290.397 153.539 290.418 153.539C290.439 153.539 290.457 152.295 290.457 150.775C290.457 146.929 290.958 146.909 291.053 150.751L291.125 153.7L292.754 153.822C297.182 154.154 298.549 154.202 299.876 154.07L301.318 153.926V151.046C301.318 148.653 301.39 148.119 301.74 147.887C302.125 147.633 302.152 147.875 302.049 150.689C301.988 152.383 302.019 153.81 302.119 153.859C302.219 153.908 303.11 153.725 304.1 153.453C305.151 153.163 306.904 152.895 308.32 152.808L310.741 152.66V149.553C310.741 147.844 310.711 146.442 310.675 146.437C310.639 146.432 309.138 146.299 307.338 146.141L304.067 145.854L302.889 146.515C301.828 147.111 301.491 147.183 299.486 147.245C298.263 147.284 295.802 147.222 294.019 147.109L290.776 146.904L289.806 146.005C288.846 145.118 288.815 145.107 287.029 145.076C286.035 145.059 284.545 145.083 283.717 145.13ZM279.966 149.054L279.988 152.183L280.904 152.231C281.664 152.271 281.724 152.246 281.258 152.089C280.949 151.985 280.595 151.775 280.472 151.624C280.35 151.472 280.181 150.128 280.097 148.637L279.945 145.925L279.966 149.054ZM312.834 148.166V149.724L314.601 149.856C318.027 150.115 317.807 150.204 317.807 148.552V147.111L316.433 146.976C315.677 146.902 314.558 146.789 313.947 146.725L312.834 146.607V148.166ZM248.831 147.646C248.722 147.846 248.662 149.023 248.697 150.26C248.775 152.994 248.564 153.334 246.269 154.164L244.659 154.747L244.733 172.95C244.773 182.962 244.858 191.22 244.92 191.301C244.983 191.382 245.728 191.557 246.575 191.69L248.115 191.931L248.282 193.208C248.374 193.911 248.45 195.588 248.45 196.934C248.45 199.716 248.373 199.631 250.888 199.637C252.534 199.641 253.074 199.386 253.433 198.438C253.879 197.258 254.25 180.804 254.132 167.411C254.048 157.804 253.953 155.364 253.598 153.673C252.927 150.486 252.691 150.033 250.943 148.584C250.078 147.867 249.293 147.281 249.2 147.281C249.106 147.281 248.94 147.445 248.831 147.646ZM332.868 149.367C332.831 149.424 332.872 149.893 332.959 150.41L333.118 151.348L334.798 150.469C335.836 149.925 336.336 149.551 336.106 149.489C335.564 149.344 332.949 149.244 332.868 149.367ZM335.408 150.853L332.987 152.123V154.184V156.246L338.464 153.38C341.476 151.804 343.949 150.409 343.96 150.282C343.972 150.135 343.038 149.996 341.428 149.904C340.025 149.824 338.641 149.719 338.353 149.671C338.022 149.615 336.936 150.052 335.408 150.853ZM312.828 150.652C312.819 151.633 312.39 152.996 312.063 153.083C311.26 153.296 312.049 153.492 314.208 153.615C315.54 153.691 316.895 153.81 317.218 153.879C317.795 154.002 317.807 153.969 317.807 152.222V150.44L316.302 150.31C315.474 150.238 314.356 150.129 313.816 150.068C312.851 149.958 312.834 149.967 312.828 150.652ZM339.996 153.414L335.88 155.576L338.033 155.837C339.216 155.981 340.5 156.225 340.885 156.381C341.543 156.645 341.667 156.611 342.914 155.826L344.242 154.989V153.117C344.242 152.087 344.212 151.246 344.176 151.248C344.14 151.25 342.259 152.225 339.996 153.414ZM279.907 153.797L279.988 154.684L283.914 155.035C289.32 155.519 289.017 155.533 289.017 154.795C289.017 153.677 287.447 153.251 282.524 153.03L279.827 152.909L279.907 153.797ZM306.369 153.951C304.383 154.291 304.197 154.449 304.197 155.805V157.013L307.404 157.273C309.167 157.416 311.493 157.657 312.573 157.809L314.536 158.085L316.106 157.315L317.676 156.545L317.754 155.385L317.831 154.225L316.314 154.091C313.53 153.845 307.483 153.76 306.369 153.951ZM290.064 159.658C290.064 165.482 289.925 165.141 292.551 165.765C294.526 166.234 299.804 166.262 301.58 165.813L302.758 165.515L302.828 160.205L302.898 154.895H297.986C295.284 154.895 292.397 154.823 291.569 154.736L290.064 154.578V159.658ZM240.467 155.951C238.884 156.46 237.559 156.876 237.523 156.876C237.487 156.876 237.457 157.25 237.457 157.706C237.457 158.519 237.471 158.531 238.16 158.322C238.547 158.205 239.774 158.053 240.887 157.984C242.001 157.916 243.045 157.794 243.208 157.714C243.391 157.624 243.474 157.083 243.425 156.298L243.346 155.028L240.467 155.951ZM280.034 155.136C279.937 155.213 279.857 156.002 279.857 156.888C279.857 158.777 279.496 158.598 284.045 158.961C285.7 159.093 287.311 159.301 287.626 159.422C288.679 159.831 288.904 159.549 288.974 157.732C289.052 155.68 289.267 155.789 284.437 155.431C282.566 155.293 280.849 155.138 280.623 155.087C280.397 155.036 280.132 155.058 280.034 155.136ZM333.839 156.58C333.159 156.903 332.722 157.286 332.611 157.657C332.516 157.973 331.903 158.618 331.25 159.09L330.062 159.948L331.974 160.098C333.027 160.181 334.105 160.341 334.371 160.454C334.899 160.68 335.52 160.434 336.783 159.502C337.17 159.216 338.24 158.541 339.162 158.001C340.085 157.462 340.839 156.953 340.839 156.869C340.839 156.741 338.787 156.456 335.707 156.157C335.176 156.105 334.529 156.251 333.839 156.58ZM341.363 157.516C339.995 158.318 338.758 159.092 338.614 159.236C338.297 159.555 331.561 163.629 324.612 167.704C321.805 169.35 319.332 170.854 319.116 171.046C318.9 171.238 317.31 172.233 315.583 173.257L312.442 175.118L313.62 175.264C316.78 175.658 316.857 175.636 320.429 173.368C323.815 171.217 331.454 166.489 338.484 162.193C344.198 158.7 344.242 158.663 344.242 157.22C344.242 156.572 344.153 156.046 344.045 156.051C343.937 156.056 342.73 156.715 341.363 157.516ZM315.805 158.184C307.055 162.66 305.244 163.62 305.244 163.78C305.244 163.866 305.609 163.999 306.055 164.078C306.68 164.187 307.21 164.076 308.362 163.595C310.171 162.839 316.377 159.715 316.904 159.295C317.112 159.129 317.927 158.7 318.716 158.34C319.506 157.98 320.211 157.609 320.283 157.516C320.395 157.371 318.998 157.086 318.2 157.091C318.056 157.092 316.978 157.584 315.805 158.184ZM235.298 157.621L234.578 157.933L234.575 162.463C234.571 168.017 234.141 176.916 233.788 178.768C233.006 182.863 231.413 184.68 227.043 186.46C220.768 189.016 213.595 190.124 203.302 190.127C192.301 190.131 183.517 188.903 176.606 186.395C174.039 185.464 172.08 184.419 170.76 183.278C169.568 182.247 168.639 180.859 168.629 180.096C168.621 179.467 168.208 179.319 167.299 179.619C166.664 179.829 166.529 179.996 166.529 180.571C166.529 181.53 167.209 183.069 168.159 184.265C170.076 186.675 177.438 189.577 184.85 190.845C197.069 192.936 214.114 192.512 223.586 189.883C231.873 187.583 234.876 185.195 235.848 180.135C236.207 178.27 236.581 157.29 236.256 157.302C236.125 157.307 235.694 157.45 235.298 157.621ZM304.197 159.177V160.988L306.31 161.129C308.405 161.268 308.435 161.263 309.975 160.517C310.829 160.104 311.674 159.653 311.853 159.515C312.033 159.378 312.579 159.066 313.067 158.824C314.185 158.268 314.129 158.253 309.301 157.823C307.286 157.643 305.313 157.467 304.917 157.431L304.197 157.366V159.177ZM231.699 158.703C230.764 158.997 229.939 159.307 229.867 159.391C229.75 159.527 220.383 162.521 199.9 168.968C196.157 170.146 193.036 171.178 192.964 171.263C192.892 171.347 192.067 171.66 191.132 171.959C186.844 173.328 183.771 174.356 183.63 174.467C183.546 174.535 183.442 175.214 183.4 175.977L183.324 177.364L184.099 177.241C189.554 176.371 192.419 176.19 200.816 176.181C210.566 176.171 213.852 176.435 219.352 177.671C221.709 178.2 220.696 178.177 217.678 177.633C208.988 176.064 195.486 175.986 185.897 177.448C184.674 177.634 183.576 177.857 183.459 177.943C183.341 178.028 183.359 179.083 183.499 180.286C183.783 182.729 184.295 183.779 185.859 185.132L186.813 185.956L185.897 185.423C185.359 185.111 184.619 184.33 184.103 183.532C183.344 182.358 183.202 181.893 183.056 180.111C182.861 177.73 183.177 177.859 179.618 178.71C176.829 179.376 175.127 180.05 173.499 181.13C172.596 181.729 172.313 181.843 172.531 181.519C173.366 180.274 177.321 178.68 181.906 177.74L183.018 177.512V176.06C183.018 175.261 182.976 174.608 182.924 174.608C182.639 174.608 169.285 179.003 169.085 179.162C168.759 179.422 169.296 180.966 170.098 182.069C171.808 184.423 178.47 187.068 185.897 188.342C191.407 189.287 194.523 189.499 203.04 189.511C212.235 189.524 215.054 189.286 220.576 188.032C227.153 186.539 231.246 184.395 232.461 181.807C233.425 179.753 233.525 178.978 233.784 171.583C234.142 161.352 234.129 158.124 233.728 158.148C233.548 158.158 232.635 158.408 231.699 158.703ZM241.014 158.367C240.019 158.468 238.841 158.626 238.397 158.717L237.588 158.884L237.517 162.558C237.451 165.924 237.484 166.242 237.909 166.342C238.595 166.503 242.69 167.098 243.118 167.098C243.426 167.098 243.476 166.369 243.417 162.682C243.373 159.951 243.246 158.251 243.084 158.225C242.94 158.202 242.009 158.266 241.014 158.367ZM319.244 158.702C318.67 159.017 318.082 159.378 317.938 159.504C317.794 159.63 315.619 160.753 313.104 162C308.661 164.203 308.556 164.271 309.392 164.407C310.567 164.599 311.456 165.322 311.989 166.518C312.285 167.182 312.555 167.485 312.786 167.415C313.219 167.282 319.417 163.912 320.753 163.082L321.735 162.472L321.211 161.941C320.787 161.511 320.686 161.095 320.686 159.769C320.686 158.866 320.596 158.128 320.487 158.128C320.377 158.128 319.818 158.386 319.244 158.702ZM279.857 159.974C279.857 160.544 279.623 161.606 279.337 162.334C279.051 163.061 278.815 163.666 278.813 163.679C278.812 163.692 280.4 163.868 282.344 164.069L285.878 164.436L287.317 163.741L288.756 163.046V161.549V160.052L286.073 159.807C284.597 159.672 283.155 159.48 282.867 159.38C282.579 159.281 281.784 159.141 281.1 159.068L279.857 158.937V159.974ZM341.755 160.885C329.718 168.254 325.671 170.755 325.005 171.239C324.573 171.553 322.811 172.698 321.088 173.783C318.266 175.56 318.027 175.761 318.665 175.821C319.23 175.873 320.081 175.442 322.872 173.689C324.796 172.481 326.747 171.212 327.207 170.869C327.667 170.526 328.891 169.732 329.927 169.104C330.962 168.475 333.282 167.057 335.081 165.953C336.88 164.848 339.484 163.252 340.867 162.407C343.814 160.605 344.242 160.286 344.242 159.886C344.242 159.418 343.985 159.521 341.755 160.885ZM327.598 161.253C326.747 161.714 325.842 162.091 325.585 162.091C325.048 162.091 322.896 162.93 321.37 163.733L320.327 164.282L322.439 164.408C323.823 164.491 324.97 164.695 325.763 165.002L326.974 165.469L329.915 163.741C333.064 161.892 334.084 161.227 333.945 161.116C333.867 161.055 332.385 160.833 329.953 160.52C329.314 160.438 328.82 160.592 327.598 161.253ZM304.197 162.395C304.197 163.429 304.246 163.543 304.575 163.28C304.783 163.114 305.49 162.709 306.145 162.379C306.801 162.049 307.337 161.708 307.338 161.622C307.338 161.536 306.897 161.464 306.357 161.463C305.817 161.461 305.11 161.403 304.786 161.334C304.226 161.214 304.197 161.266 304.197 162.395ZM341.198 162.882C339.777 163.776 336.244 165.978 333.346 167.775C330.449 169.572 327.738 171.305 327.321 171.626C326.905 171.946 325.213 173.05 323.56 174.078L320.555 175.947L321.79 176.116L323.025 176.284L326.14 174.416C327.853 173.389 329.325 172.402 329.411 172.222C329.614 171.801 330.241 171.803 335.895 172.245C341.698 172.698 342.424 172.585 343.243 171.101C343.562 170.522 343.822 169.527 343.879 168.662C344.086 165.543 344.134 161.257 343.962 161.257C343.863 161.257 342.619 161.988 341.198 162.882ZM277.934 164.872C277.138 165.954 275.821 166.921 274.288 167.547C273.68 167.795 273.301 168.028 273.445 168.064C273.589 168.1 275.235 168.314 277.104 168.539C280.682 168.969 280.89 168.942 280.901 168.037C280.909 167.334 281.824 166.37 283.142 165.674C283.831 165.31 284.494 165.012 284.613 165.012C284.732 165.012 284.83 164.933 284.83 164.837C284.83 164.741 283.623 164.545 282.147 164.403C280.671 164.26 279.272 164.101 279.036 164.05C278.744 163.986 278.394 164.247 277.934 164.872ZM286.073 165.394C284.67 166.036 283.521 166.635 283.521 166.725C283.521 166.815 283.95 166.889 284.473 166.889C285.477 166.889 300.627 168.262 301.973 168.475C302.405 168.543 303.024 168.733 303.349 168.898C303.883 169.167 303.998 169.152 304.527 168.746C304.85 168.498 306.271 167.685 307.685 166.94C309.1 166.195 310.158 165.507 310.037 165.411C309.819 165.236 304.458 164.526 304.302 164.651C304.257 164.686 304.068 165.088 303.882 165.542C303.585 166.265 303.381 166.413 302.234 166.736C300.262 167.291 293.427 167.143 291.343 166.5C289.746 166.007 289.087 165.551 288.806 164.745L288.625 164.226L286.073 165.394ZM315.975 166.598C314.176 167.572 312.666 168.454 312.62 168.56C312.573 168.665 312.809 168.793 313.143 168.844C315.724 169.238 316.743 169.46 317.691 169.838L318.782 170.272L322.487 168.122C325.566 166.335 326.133 165.926 325.844 165.696C325.566 165.474 320.58 164.785 319.508 164.82C319.364 164.825 317.775 165.625 315.975 166.598ZM237.457 167.471V168.306L239.878 168.655C241.21 168.847 242.564 169.055 242.888 169.117C243.422 169.218 243.477 169.153 243.477 168.42V167.612L240.794 167.224C239.319 167.01 237.964 166.791 237.784 166.736C237.556 166.666 237.457 166.889 237.457 167.471ZM270.174 168.907C268.484 169.272 268.581 169.216 268.489 169.88C268.382 170.657 268.664 170.873 269.939 170.989C270.572 171.046 271.325 171.172 271.613 171.268C271.9 171.363 273.608 171.591 275.408 171.773C277.207 171.956 279.121 172.164 279.661 172.236L280.642 172.368V170.88C280.642 170.062 280.554 169.391 280.446 169.389C280.338 169.387 278.604 169.2 276.593 168.972C272.367 168.494 272.099 168.491 270.174 168.907ZM237.384 169.312C237.28 169.394 237.196 170.853 237.196 172.552C237.196 175.588 237.206 175.645 237.784 175.744C239.242 175.996 242.908 176.485 243.336 176.485C243.778 176.485 243.8 176.272 243.671 173.239C243.594 171.453 243.49 169.966 243.439 169.933C243.388 169.9 242.286 169.759 240.991 169.62C239.695 169.482 238.396 169.322 238.104 169.265C237.811 169.208 237.488 169.229 237.384 169.312ZM312.573 171.809V174.016L314.732 172.818C317.12 171.492 318.232 170.704 317.988 170.51C317.767 170.334 313.888 169.605 313.162 169.603C312.588 169.601 312.573 169.658 312.573 171.809ZM260.872 172.574C259.778 174.447 260.075 178.141 261.356 178.579C261.671 178.687 265.226 179.153 269.257 179.616C275.866 180.375 278.264 180.678 280.053 180.982L280.642 181.082V177.115V173.147H279.865C279.438 173.147 277.348 172.962 275.22 172.736C269.366 172.113 262.74 171.479 262.09 171.479C261.648 171.479 261.361 171.737 260.872 172.574ZM327.491 174.439C325.98 175.354 324.712 176.169 324.674 176.25C324.636 176.331 326.186 176.516 328.117 176.661C330.049 176.806 332.052 177.018 332.569 177.132C333.439 177.323 333.696 177.256 336.009 176.234C337.384 175.626 339.171 174.73 339.981 174.242L341.454 173.356H339.239C338.021 173.356 335.615 173.216 333.893 173.045C332.172 172.873 330.645 172.743 330.501 172.755C330.357 172.766 329.003 173.524 327.491 174.439ZM308.272 176.06C307.043 177.168 306.581 180.836 307.401 182.966L307.849 184.127L311.061 184.466C319.238 185.329 331.938 186.73 333.118 186.899C333.838 187.002 334.457 187.062 334.494 187.034C334.532 187.005 334.371 186.306 334.137 185.481C333.619 183.653 333.932 181.432 334.961 179.641C335.319 179.018 335.579 178.481 335.539 178.449C335.453 178.381 325.209 177.333 315.508 176.4C309.335 175.807 308.591 175.772 308.272 176.06ZM237.196 177.605C237.196 178.336 237.015 179.757 236.795 180.763C236.575 181.769 236.443 182.63 236.502 182.677C236.581 182.74 243.242 183.768 243.673 183.784C243.709 183.785 243.739 182.284 243.739 180.448C243.739 178.613 243.709 177.11 243.673 177.109C243.637 177.109 242.253 176.922 240.598 176.694C238.943 176.466 237.5 176.278 237.392 176.278C237.284 176.277 237.196 176.874 237.196 177.605ZM335.68 179.353C334.866 180.524 334.472 182.281 334.609 184.128C334.729 185.747 335.383 187.258 335.861 187.022C335.989 186.959 336.36 186.369 336.684 185.712C337.158 184.752 337.277 184.085 337.29 182.326C337.305 180.278 336.908 178.571 336.418 178.571C336.312 178.571 335.98 178.923 335.68 179.353ZM160.728 181.758L156.105 183.242L155.998 184.192C155.939 184.714 155.927 185.179 155.97 185.224C156.065 185.323 165.29 182.147 165.494 181.945C165.572 181.868 165.572 181.46 165.494 181.039L165.352 180.274L160.728 181.758ZM268.603 181.415V182.343L269.846 181.779C271.621 180.972 271.664 180.909 270.534 180.764C269.976 180.693 269.312 180.601 269.061 180.561C268.679 180.5 268.603 180.643 268.603 181.415ZM270.796 182.122L268.67 183.158L268.497 185.923C268.403 187.444 268.255 189.059 268.17 189.513C268.02 190.315 268.03 190.329 268.562 190.034C268.862 189.868 271.703 188.336 274.875 186.63L280.642 183.529V182.719C280.642 182.273 280.554 181.907 280.446 181.904C280.338 181.901 278.718 181.716 276.847 181.491C274.976 181.267 273.327 181.085 273.183 181.085C273.039 181.087 271.965 181.553 270.796 182.122ZM165.339 182.921C165.202 183.019 163.058 183.782 160.575 184.616L156.06 186.133L156.039 187.724C156.027 188.598 155.964 189.573 155.899 189.89C155.805 190.346 155.905 190.503 156.378 190.644C156.707 190.742 162.512 191.682 169.278 192.733C176.043 193.784 181.814 194.731 182.102 194.837C182.39 194.943 190.163 196.212 199.376 197.657C208.589 199.102 217.511 200.508 219.203 200.782L222.28 201.28L228.756 198.15C232.318 196.428 235.81 194.703 236.515 194.316C237.714 193.66 237.757 193.607 237.17 193.503C235.716 193.245 227.194 191.915 224.973 191.599C222.654 191.269 222.479 191.272 220.262 191.679C214.092 192.811 207.583 193.268 199.905 193.109C189.112 192.886 181.372 191.638 174.512 189.014C169.675 187.163 167.129 185.428 166.227 183.366C165.943 182.716 165.756 182.622 165.339 182.921ZM235.887 183.369C235.887 183.484 235.986 183.577 236.106 183.577C236.227 183.577 237.949 183.816 239.933 184.109C243.204 184.59 244.105 184.635 243.677 184.293C243.515 184.164 237.089 183.176 236.345 183.166C236.093 183.163 235.887 183.254 235.887 183.369ZM234.884 185.111C233.751 186.712 231.486 188.234 228.481 189.414L225.916 190.421L227.041 190.565C229.738 190.91 238.199 192.167 239.093 192.356C239.99 192.546 240.22 192.495 241.74 191.778L243.406 190.993L243.571 189.006C243.864 185.477 243.821 185.06 243.15 184.94C242.287 184.784 236.268 183.995 235.948 183.995C235.798 183.995 235.319 184.497 234.884 185.111ZM274.622 187.698C271.527 189.376 269.02 190.799 269.05 190.861C269.08 190.923 270.22 191.131 271.583 191.322C274.439 191.724 275.89 192.064 276.472 192.467C276.827 192.713 277.116 192.608 278.631 191.681C280.341 190.634 280.38 190.589 280.382 189.649C280.382 189.121 280.459 187.773 280.552 186.654C280.649 185.484 280.621 184.626 280.485 184.634C280.355 184.641 277.717 186.02 274.622 187.698ZM224.047 190.843C223.784 190.926 226.723 191.461 231.018 192.111C237.436 193.084 239.79 193.294 239.224 192.843C239.059 192.711 225.474 190.667 224.894 190.686C224.678 190.693 224.297 190.764 224.047 190.843ZM155.849 191.313C156.005 191.684 155.915 191.667 166.268 193.282C171.09 194.035 175.212 194.712 175.428 194.786C176.486 195.151 220.621 202.063 220.969 201.918C221.603 201.653 224.11 202.077 192.179 197.044C185.197 195.943 179.249 194.959 178.961 194.856C178.674 194.753 173.609 193.908 167.707 192.978C161.805 192.048 156.696 191.228 156.352 191.156C155.89 191.058 155.76 191.099 155.849 191.313ZM279.072 191.855C278.424 192.252 277.776 192.677 277.632 192.8C277.258 193.12 278.943 192.332 279.795 191.789C280.998 191.023 280.33 191.084 279.072 191.855ZM267.023 192.362C266.668 192.825 265.796 193.548 265.084 193.966C264.372 194.386 263.526 194.918 263.204 195.15C262.881 195.382 261.497 196.135 260.127 196.824C258.758 197.512 257.631 198.125 257.624 198.186C257.616 198.246 258.669 198.411 259.962 198.551C261.256 198.692 262.782 198.956 263.353 199.138L264.392 199.469L267.61 197.633C271.94 195.161 275.258 193.151 275.364 192.934C275.412 192.836 275.353 192.756 275.233 192.755C275.046 192.754 269.776 191.9 268.201 191.615C267.797 191.542 267.512 191.723 267.023 192.362ZM156.064 192.273C156.065 192.366 156.041 194.829 156.009 197.745C155.954 202.834 155.972 203.054 156.464 203.221C156.92 203.375 168.615 205.461 172.68 206.112C173.544 206.25 174.309 206.427 174.381 206.505C174.507 206.642 178.574 207.404 191.132 209.645C194.371 210.223 198.009 210.883 199.217 211.111L201.414 211.525L203.274 210.62C204.297 210.122 206.547 209.029 208.275 208.19C210.002 207.351 211.533 206.557 211.677 206.424C211.821 206.292 213.676 205.364 215.799 204.362C217.923 203.36 219.66 202.511 219.66 202.475C219.66 202.439 209.089 200.735 196.17 198.687C183.25 196.64 172.621 194.91 172.549 194.843C172.477 194.775 168.944 194.177 164.697 193.514C160.451 192.85 156.77 192.26 156.518 192.204C156.267 192.148 156.062 192.179 156.064 192.273ZM256.695 198.804C256.631 198.887 257.922 199.157 259.564 199.403C261.206 199.65 262.734 199.908 262.959 199.976C263.184 200.045 263.368 200.001 263.368 199.879C263.368 199.756 262.927 199.562 262.387 199.446C260.683 199.083 256.817 198.646 256.695 198.804ZM155.799 203.894C155.799 204.265 155.967 204.304 162.865 205.509C165.672 206 168.028 206.465 168.1 206.542C168.234 206.686 174.848 207.933 186.159 209.946C189.686 210.574 194.2 211.388 196.19 211.755C199.424 212.351 199.851 212.389 200.206 212.106C200.56 211.823 200.399 211.754 198.681 211.459C195.289 210.876 183.854 208.863 177.784 207.78C174.545 207.202 171.659 206.636 171.371 206.521C171.083 206.406 167.668 205.748 163.781 205.057C159.895 204.367 156.508 203.751 156.257 203.688C155.958 203.614 155.799 203.686 155.799 203.894Z" fill="white"/>
<path d="M68.0703 218.25C68.0703 218.25 81.7889 227.25 105.915 227.25C130.04 227.25 147.07 219.107 147.07 219.107" stroke="white"/>
<path fill-rule="evenodd" clip-rule="evenodd" d="M243.96 90.1194C243.527 91.016 242.75 92.8593 242.234 94.2157C240.667 98.3369 238.259 107.846 238.462 109.114C238.519 109.474 238.677 109.11 238.891 108.118C240.315 101.545 242.031 95.8439 244.159 90.62C244.599 89.5401 244.911 88.6189 244.853 88.5728C244.796 88.5269 244.394 89.2227 243.96 90.1194ZM264.922 88.2569C263.356 89.5163 262.059 91.2521 261.201 93.2365C260.222 95.4992 260.724 95.2802 261.839 92.9584C262.744 91.0738 264.242 89.2159 265.84 87.9985C266.518 87.4812 266.925 87.0579 266.744 87.0579C266.562 87.0579 265.743 87.5973 264.922 88.2569ZM299.948 86.4009C299.44 86.8483 298.721 87.6259 298.35 88.1288C297.545 89.2217 296.263 91.8609 296.461 92.0184C296.538 92.0799 296.742 91.8098 296.913 91.4184C297.524 90.0228 299.209 87.5646 300.158 86.683C301.376 85.552 301.192 85.3053 299.948 86.4009ZM324.65 85.8589C323.481 87.0247 322.436 88.4902 322.651 88.6614C322.722 88.7183 322.966 88.4802 323.192 88.1324C323.418 87.7846 324.189 86.8844 324.905 86.1321C326.449 84.5094 326.235 84.279 324.65 85.8589ZM344.608 84.0402C343.749 84.8182 342.93 85.983 342.632 86.8494C342.533 87.1361 342.862 86.7801 343.362 86.0585C343.863 85.3366 344.583 84.4218 344.963 84.0254C345.861 83.0894 345.647 83.0981 344.608 84.0402ZM324.146 71.5232C324.118 73.01 327.498 81.3211 327.977 80.9404C328.031 80.897 327.837 80.4176 327.545 79.8755C326.654 78.2227 325.69 75.8704 324.903 73.4293C324.491 72.1515 324.151 71.2938 324.146 71.5232ZM239.77 73.1009C238.332 76.6497 236.708 83.5767 235.917 89.5366C235.706 91.1251 235.413 92.6777 235.265 92.9869C234.935 93.6788 234.933 93.7305 235.248 93.7305C235.658 93.7305 236.004 92.3662 236.439 89.0388C237.107 83.9401 238.756 76.9086 240.116 73.3624C240.489 72.3898 240.745 71.4842 240.686 71.3501C240.627 71.2159 240.215 72.0038 239.77 73.1009ZM343.294 70.3764C343.266 71.2413 345.8 78.2321 346.065 78.0213C346.121 77.9769 345.698 76.7671 345.126 75.3329C344.553 73.8985 343.91 72.0793 343.698 71.2901C343.485 70.5008 343.303 70.0896 343.294 70.3764ZM323.929 70.3764C323.929 70.7778 323.983 70.9419 324.049 70.7413C324.115 70.5407 324.115 70.212 324.049 70.0114C323.983 69.8109 323.929 69.975 323.929 70.3764ZM303.72 70.9275C303.555 71.5801 303.469 72.1527 303.528 72.2001C303.588 72.2474 303.775 71.7551 303.944 71.1062C304.114 70.4573 304.2 69.8845 304.136 69.8336C304.072 69.7825 303.884 70.2748 303.72 70.9275ZM343.057 69.021C343.062 69.365 343.121 69.4806 343.188 69.2777C343.254 69.0748 343.25 68.7933 343.178 68.6521C343.106 68.5109 343.052 68.6769 343.057 69.021ZM304.267 68.9167C304.267 69.3181 304.321 69.4822 304.387 69.2816C304.453 69.081 304.453 68.7524 304.387 68.5518C304.321 68.3512 304.267 68.5153 304.267 68.9167ZM304.529 67.2486C304.529 67.65 304.583 67.8141 304.649 67.6135C304.715 67.4129 304.715 67.0843 304.649 66.8837C304.583 66.6831 304.529 66.8472 304.529 67.2486ZM305.475 65.6836C305.379 65.7597 305.484 66.2481 305.707 66.769C306.226 67.9813 306.043 69.9226 305.131 72.8571C304.761 74.0494 304.503 75.0609 304.559 75.1049C304.614 75.1489 305.045 74.2673 305.518 73.1455C306.607 70.5551 306.866 67.6206 306.118 66.3448C305.859 65.9051 305.57 65.6075 305.475 65.6836ZM341.564 63.9221C339.808 64.1402 331.89 64.1973 329.112 64.0119C327.557 63.9083 326.963 63.9298 327.145 64.0824C328.144 64.9165 342.564 64.7576 343.648 63.9006C343.933 63.6758 343.514 63.6802 341.564 63.9221ZM322.164 62.0906C321.443 62.2089 317.05 62.315 312.399 62.3269C307.749 62.3388 303.944 62.4103 303.944 62.486C303.944 62.7769 308.68 62.9155 314.898 62.8067C320.92 62.7012 323.638 62.4706 324.249 62.0137C324.559 61.7814 323.906 61.8056 322.164 62.0906ZM274.583 59.7608C274.583 60.8527 293.458 61.1598 298.231 60.1456C299.701 59.8334 299.84 59.4337 298.414 59.6228C294.985 60.0774 293.709 60.1725 289.394 60.2951C284.941 60.4214 278.582 60.1679 275.697 59.749C275.084 59.6599 274.583 59.6653 274.583 59.7608ZM264.117 60.087C264.093 61.082 264.762 66.1238 265.163 67.9784C265.616 70.068 267.148 74.5007 268.37 77.2575C269.518 79.8471 271.43 83.3796 271.606 83.2389C271.657 83.1984 271.22 82.2349 270.635 81.0976C267.325 74.661 265.548 69.1857 264.753 62.9739C264.293 59.3799 264.149 58.7278 264.117 60.087ZM279.716 59.305C280.098 59.6301 289.799 59.8374 292.409 59.5759C294.076 59.4089 293.457 59.3745 288.346 59.3501C285.03 59.3342 281.667 59.2631 280.874 59.1918C279.785 59.0942 279.502 59.1217 279.716 59.305ZM334.224 58.6924C330.836 58.7679 329.476 58.8615 329.973 58.9845C331.093 59.2616 340.83 59.054 341.219 58.7447C341.469 58.5452 341.288 58.5003 340.371 58.536C339.73 58.5608 336.963 58.6311 334.224 58.6924ZM326.752 58.2301C326.753 58.3162 327.512 58.3882 328.439 58.3903C329.367 58.3923 329.986 58.3235 329.815 58.2372C329.411 58.0324 326.752 58.0264 326.752 58.2301ZM306.304 57.4256C306.304 57.5539 306.8 57.6698 307.418 57.6861C308.531 57.7153 308.531 57.7155 307.172 57.8471C306.424 57.9194 305.726 58.047 305.621 58.1304C305.379 58.3227 305.849 58.3158 308.925 58.0829C310.295 57.9791 314.387 57.8646 318.019 57.8283C321.65 57.7922 324.481 57.7028 324.31 57.6296C323.712 57.3733 306.304 57.1763 306.304 57.4256ZM263.31 55.7942C262.805 55.893 259.715 56.0715 256.443 56.1908C250.851 56.3945 243.041 56.2556 237.918 55.8615C235.045 55.6407 236.339 56.1299 239.453 56.4423C243.703 56.8685 259.898 56.7974 262.638 56.3405C263.782 56.1497 264.838 55.8987 264.984 55.7825C265.304 55.5279 264.644 55.5323 263.31 55.7942ZM305.911 55.4514C304.393 55.7542 302.5 56.3687 302.669 56.5034C302.784 56.5945 304.632 56.1522 305.648 55.7906C306.502 55.4868 308.401 55.3338 308.401 55.569C308.401 55.6851 308.578 55.78 308.794 55.78C309.011 55.78 309.187 55.6393 309.187 55.4672C309.187 55.08 307.806 55.0733 305.911 55.4514ZM281.53 54.9459C276.061 55.0464 276.729 55.0673 286.642 55.1048C294.08 55.133 297.909 55.0777 297.653 54.9459C297.249 54.7382 292.829 54.7382 281.53 54.9459ZM280.664 54.0045C279.467 54.1521 278.405 54.3425 278.304 54.4275C278.204 54.5126 278.535 54.5212 279.039 54.4469C279.544 54.3725 283.346 54.2543 287.488 54.184C291.63 54.1135 294.955 53.9749 294.878 53.8754C294.66 53.5951 283.135 53.6998 280.664 54.0045ZM293.982 52.2427C293.045 52.3263 290.118 52.406 287.478 52.4193C284.353 52.4351 282.735 52.5165 282.841 52.6522C283.249 53.1787 296.08 52.75 296.08 52.2097C296.08 52.109 295.991 52.041 295.883 52.0583C295.775 52.0759 294.92 52.1589 293.982 52.2427ZM242.337 50.2609C242.121 50.2953 240.556 50.4367 238.859 50.5749C237.163 50.713 235.711 50.9086 235.632 51.0093C235.446 51.2485 235.327 51.2533 239.65 50.8529C241.704 50.6625 243.386 50.4267 243.386 50.3285C243.386 50.1533 243.12 50.1362 242.337 50.2609ZM241.223 49.2513C240.538 49.2994 239.978 49.4039 239.978 49.4838C239.978 49.5634 245.352 49.6287 251.919 49.6287C259.133 49.6287 263.519 49.5572 262.996 49.4483C262.107 49.2629 243.458 49.0942 241.223 49.2513ZM257.935 47.2405C256.494 47.3229 253.102 47.4013 250.398 47.4148C247.473 47.4292 245.483 47.5199 245.483 47.6384C245.483 48.0237 247.455 48.123 252.278 47.9799C258.038 47.8091 262.011 47.513 262.37 47.2276C262.655 47.0005 262.113 47.0022 257.935 47.2405ZM191.085 43.0461C192.724 43.571 213.762 44.2184 213.762 43.7441C213.762 43.606 211.614 43.4765 207.798 43.3844C204.517 43.3051 199.946 43.1537 197.639 43.0478C192.504 42.8124 190.353 42.8118 191.085 43.0461ZM212.844 40.9981C211.835 41.0892 207.023 41.2285 202.152 41.3073C195.853 41.4095 193.322 41.5177 193.391 41.6822C193.444 41.8094 194.186 41.9908 195.039 42.0853C196.815 42.2817 208.845 42.0797 211.402 41.8103C214.093 41.5267 217.147 41.0629 217.341 40.9082C217.562 40.7322 215.281 40.7779 212.844 40.9981ZM94.7417 32.6344C94.7417 32.749 95.007 32.8443 95.3315 32.8462C95.6561 32.8481 98.8117 32.9893 102.344 33.16C111.251 33.5908 124.236 33.8042 124.454 33.5235C124.569 33.3757 123.115 33.2616 119.973 33.1721C117.414 33.0992 111.487 32.9015 106.801 32.7326C96.728 32.3698 94.7417 32.3537 94.7417 32.6344ZM122.793 30.7681C120.702 30.8482 115.045 30.9255 110.222 30.9399C103.321 30.9606 101.521 31.0204 101.773 31.2206C102.237 31.5899 114.244 31.6979 121.799 31.401C128.273 31.1464 129.609 31.0323 129.609 30.7345C129.609 30.536 128.73 30.5404 122.793 30.7681ZM99.7227 27.4477C95.7782 27.6583 90.5004 28.2154 90.1966 28.4536C89.7381 28.8128 90.5274 28.8499 92.5749 28.5657C97.5661 27.8726 109.211 27.6259 117.025 28.0478C121.38 28.2828 125.998 28.6285 127.053 28.7982C127.818 28.9213 128.059 28.5956 127.36 28.3822C126.577 28.1435 120.56 27.6432 115.882 27.4283C110.568 27.1839 104.53 27.1912 99.7227 27.4477Z" fill="white"/>
<path fill-rule="evenodd" clip-rule="evenodd" d="M118.852 24.5713C128.031 25.2503 132.682 26.2146 134.547 27.8258C135.056 28.2655 135.212 28.6621 135.297 29.7339C135.374 30.7141 135.54 31.1861 135.898 31.447C136.483 31.8737 136.543 32.6438 136.018 32.9945C135.8 33.1403 135.577 33.8325 135.483 34.6551C135.394 35.4308 135.22 36.4234 135.097 36.8606C134.901 37.559 134.942 37.6838 135.436 37.8882C136.297 38.244 137.465 39.1742 137.722 39.7084C138.077 40.4439 137.305 41.7676 136.201 42.3175L135.277 42.7773L135.421 49.7565C135.575 57.2447 135.792 59.3124 136.875 63.6539C137.47 66.0345 137.645 66.4466 138.093 66.512C139.183 66.6715 139.302 66.9324 139.117 68.7659L138.942 70.5013L140.909 75.2189C142.064 77.9914 143.045 80.7702 143.288 81.9583C143.863 84.7756 147.563 92.9878 149.099 94.8576C149.851 95.7732 151.246 99.3902 151.419 100.872C151.483 101.427 151.746 101.956 152.111 102.261C152.434 102.531 152.741 103.068 152.793 103.453C152.845 103.838 152.999 104.261 153.135 104.393C153.271 104.525 153.373 104.819 153.361 105.045C153.349 105.272 153.528 106.264 153.759 107.25C155.291 113.795 155.804 118.384 155.944 126.813C156.029 131.873 156.137 133.614 156.369 133.612C156.54 133.61 157.209 133.481 157.857 133.326L159.035 133.043L159.114 131.734C159.18 130.634 159.263 130.435 159.637 130.493C159.976 130.544 160.101 130.824 160.161 131.662C160.222 132.502 160.373 132.837 160.8 133.078C161.108 133.252 161.308 133.427 161.245 133.468C161.181 133.508 160.01 133.776 158.643 134.062L156.156 134.583L156.078 135.761L156.001 136.939L157.518 136.605C158.353 136.422 159.094 136.206 159.166 136.127C159.238 136.047 160.298 135.82 161.522 135.622C162.746 135.425 163.837 135.195 163.945 135.112C164.055 135.029 164.071 134.532 163.981 134.006C163.833 133.136 163.762 133.059 163.19 133.147C162.383 133.271 162.581 132.741 163.527 132.241C164.172 131.901 164.179 131.867 164.106 129.253C164.051 127.297 163.942 126.58 163.686 126.501C163.422 126.419 163.451 126.324 163.805 126.102C164.245 125.827 164.246 125.796 163.819 125.528C163.42 125.278 163.412 125.198 163.745 124.842C163.993 124.579 164.128 123.894 164.138 122.858C164.146 121.988 164.26 120.897 164.39 120.433C164.756 119.133 165.22 114.082 165.319 110.323C165.397 107.394 165.497 106.719 166.062 105.352C166.842 103.462 166.872 103.563 166.378 106.423C166.169 107.632 165.88 109.997 165.735 111.68C165.404 115.537 165.081 153.215 165.332 158.667C165.516 162.677 165.526 162.73 166.073 162.598C166.378 162.524 166.745 162.374 166.889 162.265C167.06 162.136 167.155 153.542 167.163 137.348C167.177 110.42 167.152 110.946 168.737 103.388C170.328 95.7962 172.057 90.5958 175.271 83.733C176.5 81.1066 180.689 70.7148 181.787 67.5643C182.426 65.7316 183.197 61.8305 183.406 59.372C183.683 56.1024 184.06 55.6194 183.899 58.7393C183.748 61.6615 183.217 65.0166 182.587 67.0229C181.812 69.4872 177.697 79.7171 175.907 83.6275C173.498 88.8895 172.741 90.8517 171.355 95.4389C170.09 99.6254 169.126 104.037 168.406 108.938C168.006 111.661 167.956 114.744 167.946 137.095L167.936 162.194L171.582 161.199C173.587 160.651 175.616 160.055 176.09 159.873C176.564 159.692 178.398 159.168 180.166 158.709L183.381 157.873L183.305 148.08C183.264 142.693 183.338 135.93 183.471 133.051C183.603 130.171 183.673 127.781 183.627 127.739C183.58 127.698 183.374 127.982 183.169 128.372C182.521 129.601 180.458 131.649 178.669 132.838C177.721 133.468 175.801 134.429 174.404 134.973C173.006 135.516 171.656 136.051 171.404 136.161C171.112 136.288 170.946 136.286 170.946 136.155C170.946 136.042 172.194 135.46 173.718 134.862C178.141 133.126 180.928 131.057 182.892 128.054C183.624 126.935 183.925 126.171 184.068 125.073C184.193 124.121 184.221 124.721 184.149 126.76C184.087 128.5 183.959 136.164 183.864 143.792C183.727 154.815 183.759 157.66 184.019 157.66C184.198 157.66 188.428 156.576 193.418 155.252C198.408 153.928 206.555 151.781 211.522 150.483C216.489 149.184 220.612 148.05 220.684 147.963C220.756 147.876 223.819 147.008 227.49 146.035L234.166 144.266L234.244 131.189C234.344 114.444 234.021 109.009 232.45 101.028C231.542 96.4201 229.473 90.614 227.037 85.8422C224.263 80.4079 220.897 72.3686 219.619 68.1295C218.411 64.1204 218.042 61.7101 217.939 57.1574C217.844 52.9857 217.846 52.9726 218.067 55.9685C218.712 64.688 220.936 72.2308 225.725 81.9402C229.515 89.6239 231.259 93.8551 232.337 97.9851C233.044 100.694 234.008 106.106 234.287 108.938C234.811 114.243 235.078 125.455 234.906 134.853L234.734 144.211L235.366 144.057C235.714 143.972 236.11 143.818 236.247 143.715C236.632 143.426 236.762 122.163 236.419 115.687C235.923 106.325 235.254 102.657 232.859 96.1771C231.653 92.9117 227.887 83.8049 226.465 80.7141C225.2 77.9644 222.865 71.7139 221.866 68.4012C220.361 63.4176 220.113 61.7141 219.972 55.4338L219.844 49.7027L219.152 49.4785C218.109 49.1409 214.158 48.6602 210.395 48.4134C202.105 47.8695 187.494 48.3792 183.085 49.3663L181.742 49.6669L181.602 54.994C181.434 61.3553 180.632 66.3772 178.899 71.9216C177.891 75.1487 174.656 82.7752 174.622 82.0066C174.616 81.8691 174.715 81.5361 174.843 81.2665C174.97 80.9968 175.145 80.0341 175.233 79.127C175.324 78.173 175.774 76.4846 176.3 75.1217C179.075 67.9262 180.37 61.2589 180.37 54.1518C180.37 50.2199 180.447 50.4566 178.839 49.4083C177.955 48.8317 178.094 47.9051 179.163 47.2479C180.032 46.7141 180.05 46.6702 180.05 45.1267C180.05 43.8812 179.943 43.4404 179.538 43.0255C178.994 42.4683 179.063 41.8802 179.726 41.4373C179.958 41.2823 180.112 40.7972 180.117 40.2056C180.126 39.0491 180.413 38.6969 181.811 38.124C185.101 36.775 200.412 35.79 209.166 36.3639C215.812 36.7997 219.157 37.3354 220.337 38.1531C220.956 38.5819 221.032 38.7745 220.981 39.7854C220.931 40.7733 221.015 41.0014 221.589 41.4356C222.393 42.0441 222.427 42.3776 221.725 42.7739C221.266 43.0325 221.192 43.3124 221.18 44.8367C221.17 46.0855 221.263 46.6265 221.499 46.6898C221.682 46.7391 222.104 46.9984 222.436 47.2658C223.502 48.1249 223.153 49.2759 221.608 49.9934C221.179 50.1927 221.139 50.6053 221.142 54.739C221.146 61.93 222.067 66.2654 225.375 74.6635C225.786 75.7076 226.381 77.25 226.697 78.091C227.014 78.9319 227.361 79.6201 227.469 79.6201C227.578 79.6201 228.04 78.5524 228.495 77.2473C228.951 75.9423 229.801 73.5931 230.384 72.0271C232.463 66.4411 233.402 61.3836 233.116 57.3061C232.944 54.8685 232.895 54.6928 232.295 54.3763C230.91 53.6448 230.843 52.2327 232.172 51.7889C232.865 51.558 232.893 51.4926 232.794 50.3448C232.738 49.6836 232.559 48.9255 232.397 48.6604C232.178 48.3006 232.183 48.0028 232.415 47.4854C232.586 47.1042 232.726 46.551 232.726 46.2559C232.726 45.3954 233.66 44.6456 235.164 44.2984C239.583 43.2784 249.547 42.7161 256.345 43.1029C261.344 43.3875 264.231 43.7696 265.674 44.3381C266.533 44.6764 266.634 44.8065 266.709 45.6624C266.761 46.258 266.993 46.7843 267.331 47.0753C267.628 47.3306 267.792 47.6627 267.696 47.8136C267.6 47.9646 267.351 48.3252 267.143 48.6153C266.715 49.2115 266.618 51.3572 267.019 51.3572C267.603 51.3572 268.328 52.2243 268.328 52.9247C268.328 53.4944 268.154 53.7483 267.51 54.1175L266.693 54.5861L266.835 59.5629C266.957 63.8163 267.072 64.8766 267.625 66.8596C268.555 70.1908 269.454 72.8707 269.642 72.8707C269.833 72.8707 271.05 68.7739 271.49 66.6487C271.658 65.8367 271.799 63.6819 271.804 61.8604L271.813 58.5484L270.986 57.9264C269.965 57.158 269.952 56.824 270.914 56.0927C271.557 55.6038 271.657 55.3815 271.595 54.5844C271.555 54.0702 271.451 53.5925 271.364 53.5227C271.096 53.3069 271.191 52.2335 271.492 52.084C271.648 52.0062 271.715 51.7537 271.64 51.523C271.078 49.7911 274.137 49.0211 283.148 48.626C290.52 48.3027 298.495 48.8671 299.779 49.8029C300.086 50.0271 300.265 50.4454 300.265 50.9423C300.265 51.3829 300.437 51.8425 300.657 51.9899C301.101 52.2869 301.185 53.1633 300.788 53.3609C300.644 53.4326 300.526 53.9127 300.526 54.4279C300.526 54.9432 300.644 55.3646 300.788 55.3646C300.932 55.3646 301.05 55.1896 301.05 54.9755C301.05 53.8452 304.09 53.1561 310.655 52.799C315.808 52.5185 321.223 52.7726 323.594 53.4065C324.909 53.7578 325.008 53.8317 325.081 54.5209C325.124 54.927 325.36 55.4697 325.605 55.727L326.05 56.1946L329.191 55.8917C334.75 55.3555 341.722 55.5873 343.72 56.3745C344.388 56.6377 344.672 56.907 344.77 57.3683L344.903 58.0011L346.392 57.9818L346.416 58.6729C346.272 58.6825 346.157 58.6923 346.076 58.7022C344.95 58.8384 344.894 58.8785 344.819 59.6064C344.76 60.1649 344.907 60.5308 345.369 60.9773C345.715 61.3125 345.956 61.6816 345.905 61.7976C345.883 61.8485 346.095 61.8875 346.529 61.9144L346.545 62.3849C344.966 62.4544 344.505 62.6251 344.505 62.9536C344.505 63.0269 345.291 63.0644 346.569 63.0615L346.587 63.5984L344.636 63.6958L344.555 64.3647C344.475 65.0305 344.481 65.0341 345.974 65.1843C346.14 65.201 346.367 65.214 346.643 65.2239L346.657 65.6069L344.505 65.5669V66.3561C344.505 67.7478 345.052 70.3804 345.836 72.7653C347.057 76.4762 347.245 76.9577 349.341 81.7198C353.369 90.8717 353.664 92.3319 353.666 103.175L353.667 111.226L355.288 110.715C356.179 110.433 356.944 110.203 356.989 110.203C357.034 110.203 357.07 110.433 357.07 110.714C357.07 111.119 356.866 111.278 356.089 111.478C355.549 111.617 354.754 111.901 354.322 112.109C353.89 112.317 352.83 112.679 351.966 112.913C351.102 113.148 348.687 113.828 346.599 114.426C344.512 115.024 340.153 116.254 336.913 117.16C333.674 118.065 326.429 120.107 320.814 121.698C315.199 123.288 301.181 127.144 289.662 130.267C278.144 133.391 268.367 136.077 267.935 136.237C267.084 136.553 241.244 143.497 231.024 146.156C227.569 147.056 224.683 147.865 224.611 147.955C224.539 148.045 220.946 149.038 216.626 150.161C200.89 154.252 179.974 159.844 179.847 159.993C179.775 160.077 176.005 161.11 171.47 162.29C166.934 163.469 161.162 164.989 158.643 165.667C156.123 166.345 149.779 168.005 144.544 169.355C139.31 170.706 134.775 171.938 134.466 172.094C133.903 172.378 93.3566 183.222 59.1172 192.25L59.0703 191.101L60.8686 190.649L60.778 186.23C60.7283 183.798 60.6105 181.75 60.5162 181.678C60.4876 181.656 60.2564 181.607 59.8725 181.538V180.795C60.174 180.834 60.3637 180.856 60.4105 180.856C60.8817 180.862 60.8817 174.765 60.4105 174.652C60.3637 174.641 60.174 174.613 59.8725 174.571V173.922C60.2723 173.96 60.5161 173.974 60.5511 173.958C60.7087 173.887 60.7296 163.566 60.572 163.565C60.5657 163.565 60.311 163.617 59.8725 163.707V162.567C60.2166 162.485 60.4317 162.427 60.4778 162.404C60.6403 162.323 60.7073 162.119 60.6267 161.949C60.5461 161.78 60.495 159.25 60.5131 156.328C60.5312 153.406 60.5265 149.941 60.5021 148.628L60.4581 146.241L61.1869 146.308L61.9157 146.375L62.0466 168.135C62.1186 180.103 62.2469 189.951 62.3314 190.019C62.5037 190.157 64.1395 189.758 64.512 189.486C64.6581 189.38 64.6332 185.184 64.4489 178.811C64.2819 173.036 64.073 163.352 63.9845 157.29C63.8432 147.616 63.8712 146.27 64.2131 146.27C64.6361 146.27 64.7264 149.448 65.0814 176.853C65.1693 183.639 65.2895 189.232 65.3484 189.282C65.4073 189.331 68.841 188.493 72.9787 187.42C77.1164 186.346 80.9527 185.354 81.504 185.215L82.5059 184.962L82.5061 167.462C82.5061 157.836 82.588 148.205 82.688 146.059C82.7883 143.913 82.8627 142.137 82.8535 142.113C82.8443 142.089 82.2362 142.801 81.5019 143.696C77.8438 148.152 72.0334 151.863 68.0675 152.277C66.9973 152.388 67.0699 152.345 68.8615 151.807C72.4447 150.731 74.83 149.38 77.8933 146.692C82.1035 142.997 82.8509 141.6 83.075 137.007C83.1742 134.971 83.3469 133.67 83.537 133.527C83.7668 133.354 83.7972 134.501 83.6629 138.255C83.0907 154.245 83.0058 158.407 82.9977 170.895C82.9928 178.464 83.0731 184.657 83.176 184.657C83.2789 184.657 89.3752 183.053 96.723 181.093C104.071 179.133 114.324 176.416 119.507 175.056C124.69 173.696 129.39 172.407 129.951 172.191C130.512 171.976 134.105 170.994 137.935 170.011C141.766 169.027 146.431 167.807 148.302 167.299L151.706 166.376L151.876 153.528C152.033 141.695 151.798 123.274 151.431 118.745C150.733 110.117 149.24 103.347 146.804 97.759C144.82 93.208 141.189 90.719 136.117 90.4336C133.814 90.3041 132.027 90.6509 129.304 91.7557C127.244 92.5915 124.136 94.5686 122.626 96.0042C121.094 97.4599 118.852 99.9694 118.852 100.229C118.852 100.35 118.672 100.57 118.451 100.717C117.787 101.162 118.404 100.083 119.77 98.412C123.013 94.4459 128.115 91.2208 132.651 90.2687C136.801 89.3978 140.984 90.4271 143.972 93.0541L145.471 94.3727L143.938 90.7624C143.094 88.7767 141.891 86.1929 141.263 85.0206C139.982 82.6261 138.363 78.9806 136.43 74.1362C133.11 65.8135 132.097 62.0007 131.426 55.3005C131.153 52.5735 131.051 46.7733 131.279 46.957C131.347 47.0117 131.527 48.997 131.678 51.3688C132.275 60.6924 133.153 64.4838 136.806 73.5242C138.571 77.891 141.279 83.8283 142.489 85.9828C144.091 88.8353 147.757 97.8862 149.328 102.868C152.086 111.612 152.62 118.915 152.621 147.905C152.621 157.91 152.684 166.096 152.761 166.096C152.838 166.096 153.309 165.959 153.808 165.791L154.716 165.485L154.713 144.33C154.711 122.64 154.564 118.238 153.669 113.109C152.573 106.829 149.293 97.0933 145.774 89.6785C141.847 81.4021 137.309 70.6266 136.252 67.0705C134.479 61.1013 133.949 56.8676 133.924 48.459L133.905 41.8697L132.988 41.5801C132.484 41.4207 131.248 41.1756 130.24 41.0355C129.232 40.8953 128.172 40.6964 127.884 40.5934C125.605 39.7797 109.169 39.1284 100.329 39.5017C94.228 39.7593 87.149 40.3268 86.9155 40.5772C86.8435 40.6544 86.082 40.8328 85.2234 40.9737C82.8582 41.3616 82.7263 41.5481 83.025 44.0805C83.4896 48.0217 82.8244 56.188 81.531 62.4185C80.3438 68.1373 78.7543 72.477 74.2261 82.362C69.6382 92.3772 67.8335 96.8767 65.8502 103.243C64.5455 107.432 63.9233 110.018 62.978 115.18C62.0422 120.292 61.7869 124.301 61.7859 133.901C61.7848 141.48 61.744 142.295 61.3707 142.18C61.1429 142.109 60.8385 142.052 60.694 142.052C60.528 142.052 60.4487 140.906 60.4786 138.941C60.5045 137.229 60.5102 132.981 60.4911 129.5C60.455 122.786 60.6492 120.281 61.6531 114.527C62.677 108.66 63.7335 105.038 66.022 99.5518C68.2609 94.1846 70.8162 86.5224 70.4065 86.4047C69.9544 86.2748 70.1565 85.7367 70.6573 85.7367C71.1059 85.7367 71.4706 85.3573 71.4706 84.8905C71.4706 84.792 71.2148 84.6811 70.902 84.6442C69.9748 84.5341 70.0355 84.0854 70.9876 84.011C71.8018 83.9473 71.8897 83.853 72.7193 82.1511C74.096 79.3271 78.1965 69.3868 78.8965 67.176C79.6383 64.8337 80.1601 62.4173 80.8998 57.8956C81.4773 54.3655 81.8886 45.5645 81.5716 43.5199C81.4069 42.4579 81.3022 42.3002 80.6082 42.0686C79.4797 41.6921 78.8004 40.8929 78.8004 39.9423C78.8004 39.2204 78.9415 39.0424 80.0739 38.3362L81.3472 37.5421L81.2192 35.4329C81.1176 33.7644 80.9883 33.2329 80.6001 32.8884C79.943 32.3054 79.9815 31.8965 80.7637 31.1475C81.2423 30.6892 81.4182 30.2741 81.4187 29.6023C81.4192 28.2312 82.1153 27.3029 83.6433 26.6351C85.9849 25.6116 91.6197 24.824 99.8735 24.3667C103.918 24.1425 114.615 24.2579 118.852 24.5713ZM159.952 144.379C159.016 144.586 157.749 144.863 157.137 144.994L156.025 145.232V155.215V165.198L158.883 164.436L161.741 163.674L161.861 162.829C161.963 162.105 161.802 144.103 161.692 144.029C161.671 144.014 160.887 144.172 159.952 144.379ZM162.921 144.065C162.727 144.473 162.933 163.085 163.133 163.246C163.214 163.311 163.473 163.304 163.71 163.231C164.1 163.11 164.14 162.203 164.14 153.419C164.14 143.83 164.135 143.739 163.608 143.739C163.316 143.739 163.006 143.886 162.921 144.065ZM163.471 136.111C163.335 136.206 161.604 136.599 159.624 136.983L156.025 137.681V140.994V144.308L159.755 143.48C161.807 143.024 163.633 142.614 163.813 142.569C164.055 142.508 164.139 141.702 164.136 139.474C164.132 136.541 163.977 135.756 163.471 136.111ZM137.962 67.2376C137.962 67.8674 138.294 68.8532 138.476 68.7627C138.789 68.6071 138.62 67.1066 138.279 67.015C138.105 66.9682 137.962 67.0684 137.962 67.2376ZM300.399 62.2722C300.659 66.0315 300.867 67.5004 301.065 66.9651C301.402 66.0512 301.348 61.1733 300.997 60.8906C300.393 60.4036 300.286 60.65 300.399 62.2722ZM328.013 60.6283C326.645 60.7198 325.422 60.746 325.295 60.6865C325.163 60.6245 325.124 62.3274 325.205 64.668C325.38 69.7766 325.552 70.3587 330.104 81.3074C335.34 93.8996 335.12 92.8469 335.32 106.23L335.474 116.494L343.062 114.368C347.235 113.199 350.808 112.115 351.002 111.959C351.533 111.531 351.277 93.4691 350.708 91.2039C349.91 88.0271 348.919 85.2081 347.763 82.8252C346.378 79.9723 346.334 79.1666 347.703 81.7457C349.074 84.3269 349.932 86.5599 350.655 89.4278C351.677 93.4818 351.884 96.1881 351.791 104.248C351.743 108.336 351.741 111.68 351.787 111.68C351.832 111.68 352.077 111.59 352.332 111.48C352.758 111.296 352.798 110.708 352.852 103.834C352.886 99.5478 352.791 95.5378 352.628 94.3843C352.162 91.07 350.87 87.2756 347.604 79.6201C345.896 75.618 344.308 71.5367 344.074 70.5507C343.81 69.4391 343.637 67.5345 343.619 65.5388C343.594 62.8733 343.521 62.304 343.196 62.2279C340.258 61.5384 330.917 61.5373 326.362 62.2258C324.853 62.4538 325.189 61.9737 326.723 61.7086C330.736 61.0151 340.313 61.0562 343.297 61.7797C343.958 61.94 344.603 61.9845 344.806 61.8836C345.395 61.5898 344.445 61.021 343.017 60.813C341.245 60.5549 330.997 60.4287 328.013 60.6283ZM307.725 60.0356C305.853 60.1351 303.86 60.2893 303.295 60.3779L302.269 60.5388L302.244 63.8047C302.23 65.6008 302.058 67.7824 301.861 68.6524C301.509 70.2037 301.518 70.2796 302.312 72.5706C303.173 75.055 305.019 79.6226 307.462 85.3123C309.232 89.4351 310.777 94.1907 311.437 97.5481C311.856 99.6781 311.914 101.381 311.914 111.521C311.914 117.872 311.985 123.069 312.072 123.069C312.267 123.069 325.424 119.376 329.503 118.176L332.463 117.306V107.262C332.463 94.0736 332.126 91.7459 329.185 84.6684C328.396 82.7697 327.756 81.1182 327.762 80.9982C327.809 80.012 330.873 87.2678 331.66 90.2303C332.785 94.4642 332.987 97.0754 332.987 107.407C332.987 117.555 332.98 117.494 334.034 116.957C334.374 116.784 334.427 115.443 334.427 106.994C334.427 93.9325 334.317 93.3559 329.837 82.8541C324.976 71.4572 324.603 70.2212 324.385 64.7652L324.217 60.5614L323.478 60.4026C320.997 59.8696 313.935 59.7051 307.725 60.0356ZM307.918 58.3248C302.025 58.8234 300.599 59.1516 300.967 59.9242C301.077 60.1552 301.328 60.217 301.807 60.1309C304.319 59.6804 305.509 59.5646 309.535 59.379C315.14 59.1206 322.67 59.4992 324.757 60.1444C325.025 60.2271 325.133 60.1033 325.133 59.7169C325.133 59.2413 324.961 59.1333 323.759 58.8576C320.687 58.1527 313.003 57.8943 307.918 58.3248ZM300.677 58.0363C300.584 58.2297 300.616 58.4737 300.745 58.5784C300.886 58.6916 301.034 58.5493 301.11 58.2268C301.253 57.6244 300.939 57.4862 300.677 58.0363ZM277.097 57.2713C273.487 57.5512 272.628 57.74 272.746 58.2265C272.801 58.4505 272.844 60.105 272.842 61.903C272.838 65.5241 272.428 67.9943 271.199 71.7944C270.772 73.1165 270.423 74.4452 270.425 74.7473C270.43 75.4625 270.695 76.2454 270.932 76.2454C271.218 76.2454 273.234 70.8719 273.661 68.9688C273.87 68.0407 274.124 66.5221 274.225 65.5941C274.327 64.6661 274.516 63.7644 274.645 63.5904C274.812 63.3643 274.845 63.4246 274.758 63.8013C274.691 64.0913 274.562 65.0879 274.471 66.0159C274.216 68.6151 273.46 71.4639 272.247 74.3948C271.441 76.3429 271.194 77.2249 271.331 77.6569L271.519 78.2491L271.897 77.4055C272.105 76.9414 272.698 75.8974 273.214 75.0854C273.731 74.2733 274.682 72.7813 275.328 71.7695C276.843 69.3961 277.007 68.1283 276.196 65.0761C275.629 62.9435 275.629 62.1119 276.196 63.2974C276.663 64.2765 277.228 66.9092 277.228 68.1101C277.228 69.7032 276.673 70.9716 275.005 73.193C274.197 74.2687 273.129 75.928 272.63 76.8803L271.724 78.6117L274.576 85.6015C276.144 89.4461 277.695 93.4232 278.023 94.4396C278.35 95.456 278.655 96.2579 278.7 96.2214C278.745 96.1851 279.016 95.1822 279.302 93.9931C280.002 91.0854 281.569 86.844 281.858 87.0769C281.918 87.1254 281.505 88.5284 280.94 90.1946C280.374 91.8609 279.709 94.1384 279.461 95.2558C279.016 97.2576 279.019 97.3351 279.624 100.529C280.222 103.684 280.238 104.143 280.238 117.743C280.238 125.429 280.311 131.717 280.401 131.717C280.749 131.717 307.983 124.292 308.642 124.018L309.342 123.726L309.503 117.545C309.691 110.297 309.353 101.023 308.771 97.4572C307.986 92.6514 306.541 88.3152 304.291 84.0087C302.396 80.3824 301.266 77.8507 300.405 75.3058C299.343 72.1648 299.762 72.7056 301.014 76.0917C301.624 77.7423 303.065 80.8793 304.216 83.0625C306.436 87.2758 307.756 90.6213 308.606 94.197C309.72 98.8802 309.819 100.362 309.819 112.26C309.819 118.553 309.898 123.702 309.994 123.702C311.019 123.702 310.997 123.937 310.997 112.659C310.996 106.625 310.872 100.803 310.714 99.4463C310.187 94.8939 309.074 91.4897 305.067 82.1756C300.176 70.8038 299.053 66.5995 299.26 60.4283L299.348 57.7938L297.647 57.5096C295.594 57.1667 280.676 56.9937 277.097 57.2713ZM329.453 56.4378C325.487 56.7664 325.409 56.8037 325.399 58.3628C325.393 59.2166 325.966 59.3259 329.322 59.1111C332.849 58.8855 340.903 59.0466 341.562 59.3562C341.878 59.5045 339.684 59.5722 334.411 59.5766C328.267 59.5817 326.706 59.6405 326.297 59.882C326.017 60.0466 325.847 60.2273 325.919 60.2836C325.991 60.3402 327.169 60.2916 328.537 60.1763C330.984 59.9698 341.054 60.0868 343.016 60.3448L344.014 60.476L343.932 59.5549C343.852 58.6553 343.826 58.6311 342.803 58.514C342.002 58.4223 341.865 58.3546 342.223 58.2253C342.479 58.1325 343.064 58.1169 343.523 58.1909C344.179 58.2966 344.29 58.2704 344.039 58.0684C343.863 57.9268 343.72 57.5993 343.72 57.3403C343.72 56.76 343.487 56.7016 340.092 56.4272C337.01 56.1783 332.534 56.1828 329.453 56.4378ZM281.155 55.2977C277.785 55.4524 273.624 55.8012 272.721 56.0047C272.186 56.1254 271.559 56.3766 271.328 56.5628C270.947 56.8693 270.946 56.9324 271.316 57.2302C271.686 57.528 271.842 57.525 272.971 57.1987C274.932 56.6318 280.801 56.3622 288.615 56.4802C295.55 56.5846 298.849 56.882 299.577 57.4681C299.917 57.7421 300.788 57.126 300.788 56.6116C300.788 56.1825 300.556 56.1142 298.039 55.7999C293.579 55.2429 286.767 55.0404 281.155 55.2977ZM308.772 53.5918C308.34 53.6404 307.045 53.7792 305.893 53.9C302.964 54.2079 302.282 54.4163 301.894 55.1235C301.569 55.7152 301.683 56.4192 302.103 56.4192C302.22 56.4192 302.856 56.2325 303.516 56.0045C304.176 55.7765 305.276 55.5344 305.959 55.4665C308.241 55.24 321.724 55.2431 321.443 55.4701C321.087 55.7565 308.889 55.8974 308.672 55.6177C308.487 55.3777 305.486 55.7856 303.409 56.3327C302.11 56.6753 302.097 56.6875 302.097 57.5662V58.4537L304.126 58.1629C307.329 57.7037 318.448 57.574 321.338 57.9619C322.633 58.1359 323.9 58.3447 324.152 58.4259C324.624 58.5779 324.645 58.5252 324.711 57.0182C324.725 56.7096 324.841 56.5095 324.969 56.573C325.097 56.6367 325.148 56.5569 325.082 56.3958C325.016 56.2346 324.529 56.0733 324.001 56.0374C323.472 56.0014 323.039 55.8717 323.039 55.7491C323.039 55.624 323.332 55.5715 323.708 55.6293C324.335 55.7259 324.371 55.6854 324.296 54.9683C324.221 54.2455 324.147 54.1894 322.908 53.9209C321.637 53.6452 310.59 53.3881 308.772 53.5918ZM240.317 53.3487C238.662 53.5022 236.6 53.7416 235.736 53.8808L234.166 54.1337L234.161 58.282C234.153 64.3602 233.077 68.8317 229.591 77.2713L227.992 81.1444L228.429 82.2057C228.774 83.0433 228.917 83.1945 229.106 82.9227C229.522 82.3234 232.896 73.9228 233.736 71.3943C234.854 68.0302 235.25 66.4163 235.732 63.2708C235.96 61.7757 236.202 60.508 236.269 60.4543C236.721 60.09 235.774 66.3964 234.963 69.1485C234.125 71.9954 232.799 75.5291 230.831 80.1624C229.239 83.9095 229.218 83.9899 229.568 84.908L229.925 85.8422L230.556 83.9439C233.387 75.4188 233.649 74.8759 236.316 71.9756C237.249 70.9613 238.187 69.68 238.402 69.1282C238.993 67.61 239.128 63.8289 238.671 61.5867C238.264 59.5914 238.287 59.1364 238.745 60.1064C239.542 61.7959 239.752 65.9889 239.153 68.2652C238.695 70.0067 238.387 70.4895 236.551 72.3435C234.633 74.2814 233.772 75.7688 232.647 79.0928C232.136 80.6009 231.367 82.8733 230.938 84.1426L230.158 86.4504L230.946 88.15C233.352 93.3413 235.694 100.418 236.499 104.93C237.411 110.035 237.562 113.478 237.538 128.553L237.513 143.423L244.085 141.672C247.7 140.709 253.544 139.157 257.071 138.223C260.599 137.289 263.855 136.386 264.307 136.216C264.76 136.047 267.822 135.173 271.113 134.274L277.097 132.64L277.298 126.958C277.409 123.833 277.457 117.385 277.406 112.629C277.312 103.921 277.083 101.437 275.916 96.4815C275.305 93.8851 271.94 84.7311 271.171 83.5735C271.024 83.3514 270.97 83.1156 271.052 83.0498C271.265 82.8777 272.34 84.9158 273.414 87.5289C274.96 91.2908 276.395 96.2834 277.158 100.557L277.882 104.614L277.843 118.569L277.803 132.524L278.532 132.319L279.261 132.114L279.461 122.055C279.752 107.447 279.195 101.103 277.079 94.9116C276.105 92.0602 272.531 83.1698 270.691 79.0209C269.303 75.8936 266.926 68.8705 266.396 66.3323C265.712 63.0652 265.394 59.2352 265.585 56.601L265.764 54.1464L264.886 53.9217C262.848 53.4008 259.606 53.2088 251.705 53.1411C245.904 53.0913 242.402 53.1553 240.317 53.3487ZM297.385 52.2852C297.385 52.5801 299.89 53.2059 300.169 52.9808C300.245 52.9197 300.176 52.6718 300.015 52.4299C299.785 52.0848 299.471 51.9899 298.554 51.9899C297.726 51.9899 297.385 52.0762 297.385 52.2852ZM275.396 51.4633C273.05 51.8457 272.328 52.1021 272.122 52.6265C272.024 52.8739 271.991 53.1139 272.048 53.1597C272.184 53.2689 274.964 52.5687 275.135 52.382C275.207 52.3031 276.238 52.1188 277.425 51.9722C278.879 51.7932 279.584 51.6145 279.584 51.4262C279.584 51.067 277.725 51.0836 275.396 51.4633ZM243.931 50.7257C237.199 51.1281 233.042 51.7879 232.304 52.5714C231.821 53.0838 231.852 53.1991 232.577 53.5815C233.158 53.8888 233.267 53.8886 233.853 53.5792C234.213 53.3892 235.856 53.0935 237.602 52.9045C239.311 52.7195 240.993 52.4618 241.339 52.3318C242.217 52.0015 258.322 52.0041 259.191 52.3346C259.537 52.466 260.88 52.6838 262.176 52.8184C263.472 52.953 264.972 53.2365 265.51 53.448C266.297 53.7572 266.574 53.7825 266.923 53.5769C267.55 53.2076 267.188 52.2821 266.265 51.8976C264.016 50.9607 251.227 50.2895 243.931 50.7257ZM284.034 49.3735C283.386 49.4182 281.329 49.556 279.463 49.6796C275.407 49.9483 273.764 50.2096 273.001 50.7071C272.062 51.3199 272.592 51.5666 274.152 51.2433C276.173 50.8246 278.926 50.5696 279.518 50.7459C280.836 51.1389 280.274 52.2009 278.749 52.2009C278.344 52.2009 278.013 52.2829 278.013 52.3831C278.013 52.4833 277.496 52.6225 276.863 52.6923C276.23 52.7623 274.988 52.9819 274.102 53.1803L272.491 53.541L272.569 54.5055C272.618 55.1157 272.762 55.4519 272.961 55.4209C276.109 54.928 277.973 54.8443 285.867 54.8409C291.982 54.8384 295.334 54.9242 296.941 55.1244C298.209 55.2824 299.283 55.3773 299.327 55.3353C299.371 55.2935 299.471 54.8559 299.549 54.3628L299.691 53.4666L298.281 53.1363C297.506 52.9545 296.792 52.7028 296.695 52.5769C296.446 52.2517 297.258 51.8332 298.456 51.6702C299.182 51.5715 299.479 51.4257 299.479 51.168C299.479 50.3075 298.906 50.0927 295.773 49.7797C292.577 49.4604 286.049 49.2345 284.034 49.3735ZM263.151 47.1051C262.942 47.2118 263.508 47.3953 264.666 47.5957C266.578 47.9262 267.291 47.7642 266.354 47.2122C265.828 46.9024 263.687 46.8307 263.151 47.1051ZM237.16 46.4949C234.742 46.906 233.311 47.397 233.073 47.8971C232.827 48.4138 233.061 48.4138 234.964 47.8967C235.965 47.6248 237.667 47.2905 238.747 47.1536C241.911 46.7526 242.15 46.6987 242.15 46.384C242.15 45.9651 239.995 46.013 237.16 46.4949ZM192.936 45.7896C192.432 45.8358 190.9 45.9695 189.532 46.0866C185.704 46.4145 181.31 47.131 180.403 47.5754C179.405 48.0641 179.345 48.6897 180.249 49.167C180.878 49.4994 180.943 49.495 181.492 49.0854C182.21 48.5501 183.362 48.3037 187.046 47.8986C198.702 46.6166 216.262 47.2181 220.074 49.0299C220.954 49.4484 220.959 49.4486 221.475 49.0327C223.009 47.7967 220.983 46.9617 214.27 46.0627C212.726 45.856 194.727 45.6255 192.936 45.7896ZM200.789 44.4098C192.598 44.5673 184.279 44.908 182.399 45.1627C181.526 45.2811 181.417 45.364 181.417 45.9134C181.417 46.253 181.513 46.4831 181.631 46.4247C181.748 46.3662 183.25 46.1254 184.968 45.8894C193.897 44.6631 205.258 44.3836 212.641 45.2085C214.913 45.4623 217.467 45.8008 218.318 45.9607C219.169 46.1207 219.932 46.1981 220.013 46.1328C220.285 45.914 220.164 45.2948 219.804 45.0537C218.799 44.3817 212.8 44.1786 200.789 44.4098ZM242.935 44.1946C237.396 44.6133 234.163 45.2142 233.904 45.8733C233.631 46.5664 233.958 46.6942 235.221 46.388C237.204 45.9073 241.641 45.4431 242.151 45.6628C242.743 45.9183 242.973 46.6398 242.552 46.9216C242.371 47.0424 240.933 47.3287 239.356 47.5575C236.469 47.9762 234.48 48.4406 233.894 48.8329C233.629 49.0097 233.639 50.8432 233.906 51.1022C233.94 51.1359 235.604 50.9733 237.601 50.7409C246.245 49.7352 254.722 49.657 261.881 50.5169C263.879 50.7569 265.563 50.9132 265.623 50.8645C265.684 50.8155 265.758 50.225 265.787 49.5519L265.841 48.3284L264.158 47.9973C263.233 47.8153 262.43 47.5531 262.374 47.4149C262.223 47.038 263.708 46.5061 264.911 46.5061C265.91 46.5061 265.972 46.4702 265.972 45.8858C265.972 45.5445 265.841 45.2007 265.682 45.1214C265.523 45.0421 264.139 44.793 262.606 44.568C260.408 44.245 258.3 44.1425 252.621 44.0826C248.662 44.0407 244.303 44.0911 242.935 44.1946ZM186.522 40.0877C185.514 40.2477 184.454 40.4755 184.166 40.5936C183.878 40.7118 183.114 40.955 182.469 41.1342C180.846 41.5848 180.108 42.0127 180.108 42.5035C180.108 43.0156 179.973 43.0219 181.975 42.4153C182.892 42.1374 185.053 41.6552 186.777 41.3439C188.501 41.0326 190.003 40.7324 190.115 40.6768C190.226 40.6211 190.318 40.3914 190.318 40.1661C190.318 39.6667 189.303 39.6456 186.522 40.0877ZM195.161 37.4444C187.763 37.9226 182.738 38.6684 181.67 39.4467C181.119 39.8489 180.989 40.4928 181.417 40.7059C181.561 40.7776 181.679 40.7436 181.679 40.6304C181.679 40.4089 185.069 39.7198 188.173 39.3104C189.772 39.0995 190.146 39.1067 190.449 39.3547C190.895 39.7188 191.124 40.6533 190.854 41.0054C190.744 41.1484 189.371 41.4846 187.803 41.7526C186.235 42.0207 184.127 42.4683 183.119 42.7471C181.325 43.2438 181.286 43.2698 181.286 43.9839C181.286 44.4539 181.402 44.6945 181.613 44.6608C182.687 44.488 188.627 44.1759 191.676 44.132C193.647 44.1037 195.06 44.0223 194.817 43.951C194.574 43.8799 192.608 43.7041 190.449 43.5602C188.289 43.4166 186.345 43.2166 186.129 43.116C185.528 42.8361 188.369 42.8905 192.543 43.2388C196.446 43.5644 202.386 43.6085 209.428 43.3645C213.819 43.2124 217.685 43.3729 218.124 43.726C218.272 43.8454 217.622 43.8951 216.449 43.8546L214.532 43.7882L216.711 43.9879C217.909 44.0978 219.105 44.2803 219.367 44.3935C219.787 44.5745 219.857 44.4969 219.944 43.7555C220.056 42.815 220.293 42.9275 216.757 42.2481C215.965 42.0958 215.349 41.879 215.388 41.7661C215.485 41.4848 216.972 41.6124 219.066 42.0817C220.169 42.3287 220.908 42.3995 221.065 42.2736C221.476 41.9458 220.631 41.4508 219.363 41.2764C218.574 41.1678 218.174 41.0003 218.115 40.7531C218.046 40.4637 218.219 40.3895 218.963 40.3895C219.851 40.3895 219.899 40.3534 219.899 39.6768C219.899 38.9063 219.596 38.7388 217.412 38.301C213.219 37.4607 201.745 37.019 195.161 37.4444ZM96.7879 36.5907C88.6485 36.9646 82.6182 37.8146 80.9854 38.8179C79.9433 39.4585 79.8849 39.9219 80.7512 40.6751C81.5053 41.3306 82.0425 41.3823 82.5158 40.8449C83.2268 40.0377 84.4789 39.7508 90.0568 39.1181C100.231 37.9639 115.34 38.0198 125.92 39.2507C131.739 39.9276 132.504 40.0864 133.542 40.8328C134.942 41.8402 136.392 41.5331 136.392 40.2292C136.392 39.661 135.365 38.959 133.861 38.4986C132.299 38.0205 125.62 37.1104 121.47 36.8104C117.361 36.5132 101.537 36.3724 96.7879 36.5907ZM120.423 35.3694C120.423 35.8628 120.515 35.8862 123.499 36.1486C126.604 36.4217 132.47 37.1401 133.316 37.351C133.691 37.4444 133.774 37.3333 133.774 36.7362C133.774 36.0804 133.688 35.9944 132.923 35.8803C131.648 35.6902 125.599 35.1634 122.845 35.0024L120.423 34.8609V35.3694ZM128.996 31.2412C128.188 31.435 128.507 31.7419 129.52 31.7444C130.06 31.7457 131.149 31.899 131.941 32.085C132.733 32.2711 133.823 32.4698 134.363 32.5265C135.757 32.6733 135.673 32.1047 134.232 31.6394C133.121 31.281 129.864 31.0332 128.996 31.2412ZM90.9801 29.124C84.8066 29.8968 80.7459 31.2083 81.2498 32.2664C81.4655 32.7195 82.1812 32.6636 83.8695 32.062C85.6179 31.439 90.9053 30.3348 93.0872 30.1372C94.9738 29.9664 95.5542 29.7466 95.5542 29.2035C95.5542 28.8534 95.3817 28.7922 94.4416 28.8095C93.8296 28.8207 92.272 28.9622 90.9801 29.124ZM100.004 25.6388C93.0602 25.8957 86.4338 26.7389 84.2666 27.6419C83.3119 28.0399 82.7271 28.7422 82.7271 29.4912C82.7271 29.9512 82.825 30.0693 83.1284 29.9757C85.4653 29.2531 92.0937 28.1563 94.1233 28.1563C96.167 28.1563 97.0439 28.9995 95.9906 29.9516C95.5322 30.3658 94.9455 30.5257 92.9364 30.7839C89.7453 31.1941 84.8946 32.2285 83.5281 32.7899L82.4653 33.2269V35.2492C82.4653 37.2462 82.4726 37.27 83.0592 37.1513C84.4548 36.8691 88.9236 36.3646 92.9364 36.0359C96.284 35.762 99.8062 35.6846 108.592 35.6921L119.928 35.7016L119.848 35.2509L119.769 34.8002H106.549C93.3497 34.8002 93.3215 34.801 88.4414 35.399C83.4849 36.006 81.8608 36.0587 83.3585 35.5637C84.2187 35.2796 93.6335 34.2729 95.4311 34.2729C96.0748 34.2729 96.6013 34.178 96.6013 34.062C96.6013 33.946 95.9827 33.8481 95.2269 33.8445C93.1594 33.8348 89.9898 33.4619 89.678 33.1917C89.4739 33.0148 89.843 32.9907 91.1039 33.0985C97.2063 33.6205 116.684 33.8232 123.687 33.4374C125.554 33.3347 127.187 33.3027 127.315 33.3661C127.817 33.6165 126.78 33.811 124.185 33.9536C121.059 34.125 120.784 34.4838 123.778 34.4838C126.177 34.4838 132.105 35.0168 133.103 35.3224C133.491 35.4412 133.859 35.5384 133.922 35.5384C134.142 35.5384 134.025 33.5309 133.786 33.2276C133.643 33.0449 132.399 32.741 130.715 32.4771C128.59 32.1443 127.865 31.9479 127.803 31.6891C127.655 31.0731 129.091 30.6873 131.531 30.6873C133.684 30.6873 133.77 30.6687 133.925 30.1691C134.544 28.1831 131.65 27.1186 123.253 26.2426C116.302 25.5177 108.653 25.319 100.004 25.6388Z" fill="white"/>
</svg>
