<svg width="60" height="60" viewBox="0 0 60 60" fill="none" xmlns="http://www.w3.org/2000/svg">
<g clip-path="url(#clip0_638_195)">
<path fill-rule="evenodd" clip-rule="evenodd" d="M29.2369 0.197612C29.0435 0.301323 23.0259 4.6471 15.8644 9.85492C5.27474 17.5557 2.80747 19.3996 2.65044 19.7303C2.47325 20.1038 2.46001 21.725 2.48778 39.5118L2.51813 58.8864L2.77946 59.2528C3.3579 60.0638 1.02247 59.9997 29.9986 59.9997C58.9747 59.9997 56.6393 60.0638 57.2177 59.2528L57.4791 58.8864L57.5094 39.5118C57.5372 21.725 57.524 20.1038 57.3468 19.7303C57.1897 19.3996 54.7221 17.5553 44.1328 9.85445C36.9713 4.64628 30.9431 0.298394 30.7369 0.192456C30.267 -0.0490673 29.6931 -0.0470751 29.2369 0.197612ZM17.9622 12.6852L5.98442 21.3864L5.97974 38.9352L5.97517 56.4841H17.108H28.2408V50.344V44.2041L26.981 44.2088C23.7005 44.221 20.5713 42.8842 18.1934 40.4546C15.1397 37.3344 13.8831 32.7768 14.9393 28.652C15.2828 27.3109 16.2236 26.8689 18.983 26.7524C22.5605 26.6015 25.9954 27.9539 28.5099 30.5036C28.9491 30.949 29.4444 31.5188 29.6105 31.7698C29.7767 32.0208 29.9513 32.2262 29.9986 32.2262C30.0459 32.2262 30.2206 32.0208 30.3867 31.7698C30.5528 31.5188 31.0481 30.949 31.4874 30.5036C34.0018 27.9539 37.4367 26.6015 41.0142 26.7524C43.7736 26.8689 44.7144 27.3109 45.0579 28.652C46.7331 35.1941 42.582 42.1531 36.0001 43.8364C34.8058 44.1419 33.384 44.2944 32.4881 44.2131L31.7564 44.1468V50.3154V56.4841H42.8892H54.022L54.0175 38.9352L54.0129 21.3864L42.0841 12.7211C35.5233 7.95519 30.1069 4.03972 30.0476 4.01992C29.9884 4.00023 24.55 7.89953 17.9622 12.6852ZM18.4376 30.3073C18.1159 30.3803 18.0407 31.03 18.1815 32.5192C18.6386 37.3494 22.8799 40.9949 27.6842 40.6866L28.2408 40.6509V38.6813C28.2408 36.776 28.2297 36.6846 27.9014 35.8886C26.8241 33.2761 24.6497 31.3545 21.9065 30.5905C21.0627 30.3557 18.9751 30.1852 18.4376 30.3073ZM39.1951 30.3498C35.9746 30.8233 33.1681 33.0516 32.0494 36.0235C31.7803 36.7383 31.7564 36.9592 31.7564 38.7264V40.6509L32.3131 40.6866C36.3993 40.9489 40.1934 38.3144 41.4745 34.3255C41.744 33.4866 41.9425 31.7515 41.8642 30.9204C41.8174 30.4238 41.7818 30.37 41.4575 30.3052C41.0116 30.216 39.9652 30.2366 39.1951 30.3498Z" stroke="white" stroke-width="0.5"/>
</g>
<defs>
<clipPath id="clip0_638_195">
<rect width="60" height="60" fill="white"/>
</clipPath>
</defs>
</svg>
