<svg width="60" height="60" viewBox="0 0 60 60" fill="none" xmlns="http://www.w3.org/2000/svg">
<g clip-path="url(#clip0_638_186)">
<path fill-rule="evenodd" clip-rule="evenodd" d="M22.6742 0.141383C22.1802 0.424743 22.1544 0.560211 22.1544 2.87091C22.1544 4.44123 22.1964 5.15232 22.2971 5.28345C22.4887 5.53306 22.8973 5.74201 23.1938 5.74201C23.4241 5.74201 23.4359 5.80623 23.4359 7.05041V8.35881L20.5246 14.111C18.9234 17.2747 17.4688 20.226 17.292 20.6696C17.1154 21.1131 16.843 22.0438 16.6865 22.7378L16.4023 23.9997L16.4328 40.7401L16.4633 57.4803L16.7369 58.0076C17.1209 58.7476 17.7425 59.3533 18.4429 59.6703L19.0414 59.9412H29.9984H40.9555L41.5539 59.6703C42.2544 59.3533 42.8759 58.7476 43.26 58.0076L43.5336 57.4803L43.5641 40.7401L43.5945 23.9997L43.3104 22.7378C43.1539 22.0438 42.8814 21.1131 42.7048 20.6696C42.5281 20.226 41.0735 17.2747 39.4722 14.111L36.5609 8.35881V7.05041C36.5609 5.80623 36.5728 5.74201 36.803 5.74201C37.0995 5.74201 37.5082 5.53306 37.6998 5.28345C37.8004 5.15232 37.8425 4.44123 37.8425 2.87091C37.8425 0.540876 37.8168 0.410797 37.3011 0.13611C36.9393 -0.0565464 23.0105 -0.0515073 22.6742 0.141383ZM24.0219 2.87091V3.86701H29.9984H35.975V2.87091V1.87482H29.9984H24.0219V2.87091ZM25.3109 7.30177V8.86154L23.4361 12.561L21.5611 16.2605L21.9147 16.407C22.1091 16.4875 22.5589 16.757 22.9142 17.0058C23.2694 17.2547 23.7035 17.531 23.8789 17.6197C24.7811 18.0762 25.8876 17.9262 26.8852 17.2119C28.0933 16.3467 28.7373 16.1211 29.9984 16.1211C31.2596 16.1211 31.9036 16.3467 33.1116 17.2119C34.1093 17.9262 35.2157 18.0762 36.118 17.6197C36.2934 17.531 36.7275 17.2547 37.0827 17.0058C37.438 16.757 37.8877 16.4875 38.0821 16.407L38.4358 16.2605L36.5608 12.561L34.6859 8.86154V7.30177V5.74201H29.9984H25.3109V7.30177ZM27.8187 7.78435C27.4312 7.9531 27.3031 8.16322 27.3031 8.63045C27.3031 9.44736 27.7488 9.6092 29.9984 9.6092C32.2607 9.6092 32.6938 9.44923 32.6938 8.6131C32.6938 8.15724 32.5098 7.89181 32.0928 7.7465C31.5481 7.55666 28.2752 7.5856 27.8187 7.78435ZM29.283 18.0908C28.9862 18.1708 28.4777 18.4312 28.1531 18.6695C26.1821 20.1162 24.2656 20.1613 22.192 18.8096C20.6497 17.8044 20.8187 17.729 19.7775 19.8857C19.2856 20.9045 18.7609 22.1863 18.6114 22.7342L18.3397 23.7303L18.3088 40.3123C18.2784 56.6043 18.2819 56.9009 18.5075 57.2689C18.6339 57.4748 18.8825 57.7385 19.0599 57.8548C19.365 58.0546 19.9638 58.0662 29.9984 58.0662C40.0331 58.0662 40.6319 58.0546 40.937 57.8548C41.1144 57.7385 41.3629 57.4748 41.4894 57.2689C41.715 56.9009 41.7185 56.6043 41.6881 40.3123L41.6572 23.7303L41.3854 22.7342C41.236 22.1863 40.7112 20.9045 40.2194 19.8857C39.1782 17.729 39.3472 17.8044 37.8049 18.8096C35.732 20.1609 33.8146 20.1162 31.8457 18.6708C31.522 18.4333 30.9889 18.1693 30.6609 18.0842C29.9622 17.903 29.9802 17.9029 29.283 18.0908ZM21.2779 21.3572C20.9075 21.6871 20.442 23.0975 20.2715 24.4068C20.1875 25.0511 20.157 29.1151 20.1795 36.6604L20.2133 47.9499L20.5421 48.2327C20.9593 48.5915 21.3423 48.5915 21.7595 48.2327L22.0883 47.9499L22.1478 35.8987L22.2073 23.8475L22.5329 22.9686C22.7198 22.464 22.8304 21.9761 22.7926 21.8231C22.6194 21.1208 21.8197 20.8748 21.2779 21.3572ZM20.8993 50.4802C20.761 50.5025 20.5501 50.6287 20.4305 50.7606C20.2413 50.9696 20.2081 51.2499 20.1737 52.9365C20.1519 54.0013 20.1675 55.0508 20.2084 55.2686C20.3043 55.7803 20.6885 56.1337 21.1436 56.1289C21.5824 56.1243 21.8642 55.9233 22.0251 55.5002C22.2139 55.0035 22.1816 51.5206 21.9838 51.047C21.8124 50.6372 21.3677 50.4047 20.8993 50.4802Z" stroke="white" stroke-width="0.5"/>
</g>
<defs>
<clipPath id="clip0_638_186">
<rect width="60" height="60" fill="white"/>
</clipPath>
</defs>
</svg>
