<svg width="60" height="60" viewBox="0 0 60 60" fill="none" xmlns="http://www.w3.org/2000/svg">
<g clip-path="url(#clip0_638_179)">
<path fill-rule="evenodd" clip-rule="evenodd" d="M39.3385 0.808209C38.5693 1.37552 38.2226 2.14388 38.1773 3.38284C38.1178 5.01 38.224 5.1609 39.5185 5.29567L40.9245 5.44209L40.6078 8.43C40.0722 13.483 38.7518 21.0448 38.4045 21.0448C38.2236 21.0448 37.2537 20.1501 36.2499 19.0567C34.4957 17.1461 34.4244 16.9352 34.4244 13.6693C34.4244 10.8712 34.2754 10.2184 33.5804 9.97567C32.1926 9.49075 12.246 11.8845 11.7518 12.5955C11.5167 12.9327 11.3136 14.7201 11.2998 16.5672L11.2752 19.9254L5.62978 23.2155L-0.015625 26.5057L0.114211 40.4543L0.244047 54.403L7.6211 56.9458C11.6785 58.3442 15.546 59.5025 16.2159 59.5204C16.8852 59.5379 22.118 58.6334 27.844 57.5104L38.255 55.4687L39.5396 56.6378C43.5208 60.2628 51.1447 60.5807 55.7086 57.3116C58.539 55.2846 59.2201 53.2513 59.4183 46.2367C59.6377 38.4716 59.0386 33.1375 56.7675 22.6307C54.7506 13.299 53.9499 5.81687 54.9395 5.54597C57.159 4.93881 57.1703 4.92672 56.8619 3.46343C56.6942 2.66687 55.9909 1.56179 55.299 1.00746C54.1245 0.0662687 53.5934 0 47.2383 0C41.4124 0 40.2773 0.11597 39.3385 0.808209ZM40.4244 2.32836C40.0998 2.62388 39.8342 3.02687 39.8342 3.22388C39.8342 3.4209 43.2645 3.58209 47.4572 3.58209C51.6498 3.58209 55.0801 3.4209 55.0801 3.22388C55.0801 3.02687 54.8145 2.62388 54.49 2.32836C53.6706 1.58239 41.2437 1.58239 40.4244 2.32836ZM42.6075 6.36493C42.4422 6.92776 42.3036 8.29478 42.2996 9.40298C42.2962 10.5112 41.855 13.8358 41.3195 16.791C40.1573 23.2088 40.1554 23.2657 41.104 24.403C41.8457 25.2922 41.8565 25.2913 42.7049 24.2713C43.4957 23.3212 43.8714 23.254 47.7203 23.3758L51.8809 23.5075L53.0529 26.194C53.6977 27.6716 54.4659 30.0273 54.7595 31.4284C55.1524 33.3004 55.5399 34.0348 56.2216 34.1973C57.334 34.4619 57.2603 33.7916 55.0732 23.7313C53.6681 17.2688 52.7396 11.4506 52.5006 7.61194L52.3752 5.59701L47.6421 5.4694C43.0732 5.34627 42.8981 5.37761 42.6075 6.36493ZM21.6454 12.5857C17.7277 13.0433 14.2422 13.5152 13.8995 13.6348C13.2975 13.8452 12.9704 18.3779 13.5213 18.879C13.7342 19.0733 26.4385 17.5482 30.8588 16.7978C32.4301 16.5313 32.4572 16.4857 32.4572 14.0843V11.6418L30.6129 11.6982C29.5988 11.7291 25.5631 12.1285 21.6454 12.5857ZM22.3752 19.6124C17.7768 20.2339 13.9408 20.7936 13.8508 20.8563C13.6024 21.0287 16.3201 29.717 16.7652 30.1751C17.227 30.6497 39.8937 26.3628 39.7029 25.8372C39.6311 25.641 38.138 23.8796 36.3837 21.9228C33.8563 19.1028 32.9401 18.3775 31.9654 18.424C31.2891 18.4563 26.9736 18.9913 22.3752 19.6124ZM7.45487 24.1294C5.46946 25.3321 4.03093 26.4188 4.25815 26.5442C5.35929 27.1536 13.9432 29.9901 14.1409 29.8101C14.5624 29.4264 12.1486 21.9403 11.6042 21.9416C11.3067 21.9421 9.43978 22.9267 7.45487 24.1294ZM43.7563 26.2231C43.4927 26.8549 43.2768 30.2937 43.2768 33.8651C43.2768 41.0516 42.9581 40.4445 46.2773 39.5825C47.0288 39.3873 47.1631 39.18 46.7691 38.8213C46.4711 38.55 46.2277 37.9424 46.2277 37.47C46.2277 36.8127 46.4745 36.6707 47.2845 36.8637C48.0262 37.0401 48.6154 36.7984 49.2596 36.0528C49.7642 35.4685 50.9268 34.7651 51.8421 34.4901L53.5073 33.9896L52.8375 31.376C52.4691 29.9387 51.8032 27.9327 51.3577 26.9185L50.5472 25.0746H47.3918C44.4567 25.0746 44.2024 25.1548 43.7563 26.2231ZM1.96536 31.7539V35.7466L7.99044 37.5748C11.3047 38.5804 14.2924 39.403 14.6298 39.403C15.069 39.403 15.244 38.3928 15.244 35.8558V32.3082L10.449 30.6407C7.81142 29.7237 4.90782 28.7006 3.99552 28.3675C3.08323 28.0339 2.25356 27.7612 2.15126 27.7612C2.04897 27.7612 1.96536 29.5581 1.96536 31.7539ZM28.5655 30.0484C22.5026 31.2515 17.4793 32.293 17.4026 32.3633C17.3259 32.4331 17.1065 38.1766 16.9152 45.1258C16.6206 55.8304 16.6732 57.7585 17.2585 57.7437C17.6381 57.7339 22.2645 56.8648 27.5391 55.8121C34.9786 54.3278 37.0865 53.7546 36.9385 53.2554C36.8332 52.9016 36.7403 51.403 36.7319 49.9254C36.7147 46.9504 37.8463 44.4291 40.0324 42.5713C41.3003 41.4936 41.3096 41.4345 41.3096 34.6236C41.3096 28.3675 41.2334 27.7657 40.449 27.8109C39.9754 27.8382 34.628 28.8452 28.5655 30.0484ZM31.7195 35.4157C30.6375 35.6445 28.1475 36.1518 26.1867 36.5427L22.6211 37.2542V43.9254C22.6211 49.2242 22.7573 50.597 23.2845 50.597C24.5736 50.597 35.1321 48.3407 35.5275 47.9807C35.7483 47.7797 35.8668 44.8106 35.7911 41.3825C35.6367 34.3728 35.7645 34.56 31.7195 35.4157ZM51.1457 36.7164C50.6047 37.209 50.1621 38.0176 50.1621 38.5133C50.1621 39.3797 50.2339 39.3878 52.0063 38.7228C53.7586 38.0651 55.0801 36.973 55.0801 36.1831C55.0801 35.4448 52.0983 35.8491 51.1457 36.7164ZM29.0372 37.6688C26.7508 38.1484 24.8067 38.6073 24.7172 38.6884C24.6281 38.7698 24.6178 41.0418 24.6945 43.7373L24.8342 48.6381L29.3834 47.7698L33.9326 46.9016V41.8088C33.9326 39.0081 33.7663 36.7348 33.5637 36.7567C33.3611 36.7791 31.324 37.1897 29.0372 37.6688ZM55.8178 38.241C55.0063 39.0528 54.0104 39.8216 53.6047 39.9497C53.0568 40.1225 53.3726 40.5954 54.8342 41.7887C55.9162 42.6725 56.9677 43.4037 57.1703 43.414C57.3729 43.4243 57.5391 41.9216 57.5391 40.0746C57.5391 38.2276 57.484 36.7276 57.4162 36.741C57.3483 36.7545 56.6293 37.4297 55.8178 38.241ZM1.96733 41.0521L1.96929 44.5522L7.99192 46.4593C11.3042 47.5079 14.3003 48.3645 14.6499 48.3622C15.1265 48.3591 15.2495 47.499 15.1418 44.9266L14.9981 41.4949L9.34241 39.7719C6.23175 38.8245 3.29962 37.9375 2.82601 37.8004C2.05634 37.5779 1.96536 37.9213 1.96733 41.0521ZM43.8385 42.1607C36.2165 45.5955 36.9739 55.4328 45.0242 57.5633C53.2132 59.7309 60.0429 53.1161 56.6096 46.3433C54.3124 41.8119 48.6945 39.9721 43.8385 42.1607ZM1.96536 49.8667V53.1663L8.01897 55.2399C11.3485 56.3803 14.3455 57.3134 14.679 57.3134C15.1191 57.3134 15.246 56.3785 15.1418 53.9033L14.9981 50.4927L8.8506 48.5373C5.46946 47.4613 2.53683 46.5784 2.33421 46.5743C2.13159 46.5703 1.96536 48.0519 1.96536 49.8667Z" stroke="white" stroke-width="0.5"/>
</g>
<defs>
<clipPath id="clip0_638_179">
<rect width="60" height="60" fill="white"/>
</clipPath>
</defs>
</svg>
