<svg width="60" height="60" viewBox="0 0 60 60" fill="none" xmlns="http://www.w3.org/2000/svg">
<g clip-path="url(#clip0_638_208)">
<path fill-rule="evenodd" clip-rule="evenodd" d="M4.02985 4.03033C4.02985 6.9157 4.1606 7.61242 4.70149 7.61242C5.99552 7.61242 5.35388 9.4666 2.68657 13.4333L0 17.4287V36.7142C0 58.1535 0.0488058 58.5663 2.70537 59.4923C3.59373 59.8017 7.46104 60.0005 12.604 60.0005H21.0448V58.8811V57.7617H12.1791C5.88045 57.7617 3.15806 57.6063 2.77612 57.2244C2.42776 56.876 2.23881 55.0653 2.23881 52.0751V47.4632H8.08209C14.5012 47.4632 16.0007 47.0476 16.9276 45.013C17.2755 44.25 17.4627 41.1748 17.4627 36.2257C17.4627 25.2224 17.3382 25.0751 8.03866 25.0751H2.23881V21.9408V18.8065H10.2461H18.2539L18.4679 17.687L18.6819 16.5676H11.1318C6.9797 16.5676 3.58209 16.4136 3.58209 16.226C3.58209 16.0379 4.29269 14.829 5.16134 13.5394L6.74015 11.1945L13.7807 11.2026L20.8209 11.2106L22.2761 13.436C24.0251 16.1114 24.0743 16.5676 22.6119 16.5676C21.7164 16.5676 21.4925 16.7915 21.4925 17.687C21.4925 18.6945 21.6716 18.8065 23.2836 18.8065H25.0746V33.1348V47.4632H26.194H27.3134V32.3472V17.2312L24.8507 13.5529C22.5896 10.1754 21.72 7.61242 22.8358 7.61242C23.0969 7.61242 23.2836 6.12003 23.2836 4.03033V0.448242H13.6567H4.02985V4.03033ZM5.99687 2.87376C5.85851 3.23511 5.81507 3.89466 5.9006 4.34018C6.04254 5.07809 6.74104 5.16048 13.8036 5.27242L21.5507 5.39511L21.4097 3.92914L21.2687 2.46317L13.7588 2.34048C7.49463 2.23794 6.20731 2.3266 5.99687 2.87376ZM33.7858 6.47287L32.6866 7.57167V27.5485V47.5254L33.694 47.3826L34.7015 47.2393L34.8179 27.4182L34.9348 7.5972L46.2358 7.71675L57.5373 7.8363L57.6528 32.2935C57.754 53.6432 57.6828 56.8214 57.0931 57.3108C56.2599 58.0026 56.203 59.5527 57.0116 59.5527C57.3381 59.5527 58.0433 59.0862 58.5788 58.5166L59.5522 57.48V32.3548V7.22959L58.3724 6.30182C57.2507 5.41929 56.6449 5.37362 46.0388 5.37362H34.8846L33.7858 6.47287ZM7.16418 8.28406C7.16418 8.85003 8.18418 8.9557 13.6567 8.9557C19.1293 8.9557 20.1493 8.85003 20.1493 8.28406C20.1493 7.71809 19.1293 7.61242 13.6567 7.61242C8.18418 7.61242 7.16418 7.71809 7.16418 8.28406ZM39.0452 11.207C37.6612 12.4962 37.3639 14.1076 38.2581 15.472C39.8718 17.9351 42.5163 17.9351 44.13 15.472C46.1664 12.3641 41.7654 8.67272 39.0452 11.207ZM48.9801 11.3476C45.8821 14.0127 49.1436 18.7008 52.7852 16.8175C54.9533 15.6963 55.2994 13.1696 53.5276 11.3982C52.1458 10.016 50.5491 9.99809 48.9801 11.3476ZM40.0249 13.1781C39.579 14.34 40.2036 15.3 41.3042 15.1438C42.0439 15.0385 42.3134 14.7018 42.3134 13.8811C42.3134 13.0603 42.0439 12.7236 41.3042 12.6184C40.6984 12.5324 40.1866 12.7563 40.0249 13.1781ZM49.8636 13.2094C49.4284 14.3427 50.0664 15.2982 51.1549 15.1438C51.8781 15.0412 52.2045 14.6517 52.3057 13.7691C52.4284 12.7057 52.2891 12.5378 51.2843 12.5378C50.6445 12.5378 50.0051 12.84 49.8636 13.2094ZM38.9207 21.4585C37.4454 22.9344 37.3258 23.6705 38.267 25.4906C38.966 26.8429 39.7822 27.3224 41.3427 27.2996C42.9922 27.2754 44.7761 25.303 44.7761 23.503C44.7761 22.4418 42.3278 20.1497 41.194 20.1497C40.6634 20.1497 39.6407 20.7385 38.9207 21.4585ZM48.9801 21.1984C48.1093 21.9475 47.7613 22.6706 47.7613 23.7318C47.7613 24.793 48.1093 25.5162 48.9801 26.2653C50.5491 27.6148 52.1458 27.5969 53.5276 26.2147C55.3169 24.4259 54.8646 21.9144 52.5296 20.6705C51.1025 19.9106 50.3463 20.023 48.9801 21.1984ZM40.0249 23.0288C39.579 24.1908 40.2036 25.1508 41.3042 24.9945C42.0439 24.8893 42.3134 24.5526 42.3134 23.7318C42.3134 22.9111 42.0439 22.5744 41.3042 22.4691C40.6984 22.3832 40.1866 22.607 40.0249 23.0288ZM49.8757 23.0288C49.4319 24.1841 50.0458 25.0751 51.2843 25.0751C52.2891 25.0751 52.4284 24.9072 52.3057 23.8438C52.1427 22.4239 50.3396 21.8194 49.8757 23.0288ZM2.23881 36.2812V45.249L8.6194 45.1245L15 45.0005L15.1222 36.5257C15.2154 30.0453 15.1101 27.9659 14.6745 27.6891C14.361 27.4903 11.4349 27.3247 8.17164 27.3206L2.23881 27.3139V36.2812ZM49.8667 30.6663C49.0858 30.9945 48.274 31.809 47.9516 32.5872C46.4969 36.0999 51.351 38.9696 53.6987 35.9848C54.9148 34.4391 54.8825 32.6257 53.6194 31.4884C52.1772 30.1903 51.4025 30.0206 49.8667 30.6663ZM38.5401 31.6281C38.0297 32.2769 37.6119 33.2933 37.6119 33.887C37.6119 35.4282 39.5096 37.1647 41.194 37.1647C42.8785 37.1647 44.7761 35.4282 44.7761 33.887C44.7761 33.2933 44.3584 32.2769 43.8479 31.6281C42.5373 29.9615 39.8507 29.9615 38.5401 31.6281ZM40.1682 32.5187C39.5964 33.0905 39.8355 34.8242 40.5224 35.0879C41.7188 35.5469 42.5946 34.8878 42.4496 33.6372C42.3157 32.4842 40.8981 31.7893 40.1682 32.5187ZM50.134 32.9293C49.3778 33.8405 50.0758 35.1497 51.3175 35.1497C51.9591 35.1497 52.1642 34.8256 52.1642 33.8127C52.1642 32.2675 51.0761 31.7938 50.134 32.9293ZM40.9061 40.7199C38.5084 41.7448 37.7678 45.3327 39.4012 48.0121C39.8928 48.8185 40.2958 49.6156 40.2967 49.7839C40.2976 49.9518 36.9569 50.1533 32.8728 50.2317L25.4467 50.3736L24.1415 51.836C21.6681 54.6063 22.7816 58.5162 26.3485 59.585C27.3788 59.8935 30.6313 60.0269 34.8081 59.9315L41.5934 59.7766L43.1704 58.2475C44.5204 56.9382 44.7895 56.8281 45.0398 57.4805C45.4643 58.5864 47.5993 59.5527 49.6182 59.5527C52.4176 59.5527 54.7737 56.3973 53.8773 53.8487C53.3781 52.4284 47.0378 42.2494 46.1552 41.4506C45.1428 40.5345 42.2745 40.1351 40.9061 40.7199ZM49.7082 40.6348C49.7203 41.2241 50.5478 42.3121 51.0287 42.3699C51.2839 42.4008 51.7003 42.4509 51.9542 42.4818C52.2085 42.5127 52.3715 43.2005 52.3169 44.01C52.1458 46.5533 53.2101 47.396 54.107 45.4272C54.8951 43.6979 54.7384 42.6085 53.5276 41.3982C52.4982 40.3684 49.6916 39.8073 49.7082 40.6348ZM41.4784 43.0182C40.8296 43.5282 40.2985 44.2527 40.2985 44.627C40.2985 45.4832 43.0625 50.1497 43.5698 50.1497C43.7763 50.1497 44.8334 49.629 45.9193 48.9927L47.8939 47.8357L46.8945 46.0523C45.6081 43.7562 44.0928 42.09 43.2909 42.09C42.943 42.09 42.1272 42.5078 41.4784 43.0182ZM46.6791 50.8845C45.6322 51.5154 44.7761 52.2099 44.7761 52.4275C44.7761 53.4963 47.6436 57.3421 48.6246 57.5884C50.0212 57.939 51.9403 56.7045 51.9403 55.4553C51.9403 54.4576 49.4006 49.6899 48.8852 49.7194C48.7182 49.7288 47.726 50.2532 46.6791 50.8845ZM25.324 53.3839C24.386 54.7232 24.4464 55.7902 25.5224 56.8662C26.2473 57.5911 27.0148 57.7617 29.5522 57.7617H32.6866V55.0751V52.3885H29.3539C26.4175 52.3885 25.9379 52.5067 25.324 53.3839ZM34.9254 55.0751V57.7617H37.9903C41.4063 57.7617 42.5373 57.065 42.5373 54.96C42.5373 52.9894 41.4837 52.3885 38.0279 52.3885H34.9254V55.0751Z" stroke="white" stroke-width="0.5"/>
</g>
<defs>
<clipPath id="clip0_638_208">
<rect width="60" height="60" fill="white"/>
</clipPath>
</defs>
</svg>
