<svg width="60" height="60" viewBox="0 0 60 60" fill="none" xmlns="http://www.w3.org/2000/svg">
<path fill-rule="evenodd" clip-rule="evenodd" d="M16.9336 1.16016C16.3098 1.44961 15.754 2.05289 15.5324 2.68113C15.2817 3.39152 15.2817 5.98348 15.5324 6.69387C15.8612 7.62586 16.8994 8.42894 17.7832 8.43492L18.1641 8.4375V11.25V14.0625H17.8088C16.9048 14.0625 15.835 14.8943 15.5202 15.8419L15.3327 16.4062L11.6801 16.4088C7.60641 16.4116 7.48324 16.4324 6.71402 17.242C6.0423 17.9489 5.97656 18.3342 5.97656 21.5625C5.97656 24.7908 6.0423 25.1761 6.71402 25.883C7.48324 26.6926 7.60641 26.7134 11.6801 26.7162L15.3327 26.7188L15.5202 27.2831C15.6284 27.6089 15.8925 28.0275 16.1448 28.2735C16.9971 29.104 16.4505 29.0625 26.5549 29.0625C33.0355 29.0625 35.785 29.0239 36.1029 28.9288C37.0451 28.6465 37.8516 27.6102 37.8516 26.6817V26.25H39.7266H41.6016V29.8095C41.6016 33.7576 41.6464 34.0603 42.339 34.7892C43.0704 35.559 43.3519 35.6196 46.2169 35.6224C47.8071 35.6241 48.951 35.5741 49.2279 35.4913C49.8403 35.3078 50.4389 34.7865 50.7316 34.1818C50.9722 33.6851 50.9766 33.5428 50.9766 26.25C50.9766 18.9572 50.9722 18.8149 50.7316 18.3182C50.4389 17.7135 49.8403 17.1922 49.2279 17.0087C48.921 16.9168 47.0723 16.875 43.3165 16.875H37.8516V16.4433C37.8516 15.2339 36.6196 14.0625 35.3477 14.0625H35.0391V11.25V8.4375H35.3477C36.2588 8.4375 37.1988 7.83691 37.6066 6.99434C37.8225 6.54855 37.8516 6.2748 37.8516 4.6875C37.8516 2.64574 37.7149 2.16586 36.9555 1.53984C36.296 0.996328 35.8928 0.9375 32.8229 0.9375H29.9893L29.7018 1.2252C29.5204 1.40648 29.4141 1.64672 29.4141 1.875C29.4141 2.10328 29.5204 2.34352 29.7018 2.5248L29.9893 2.8125H32.7225C35.0066 2.8125 35.4984 2.8425 35.7161 2.99496C35.9624 3.16734 35.9766 3.2598 35.9766 4.6875C35.9766 6.1152 35.9624 6.20766 35.7161 6.38004C35.486 6.54129 34.4252 6.5625 26.5979 6.5625C19.1329 6.5625 17.7043 6.53637 17.5126 6.39621C17.3074 6.24609 17.2852 6.07898 17.2852 4.6875C17.2852 2.7491 17.2238 2.8125 19.1019 2.8125C20.3078 2.8125 20.4928 2.78531 20.7186 2.57484C20.8589 2.44418 21.005 2.21262 21.0432 2.06016C21.1241 1.73836 20.8386 1.1168 20.5611 1.01027C20.4568 0.970313 19.7034 0.938672 18.8869 0.940078C17.6911 0.942188 17.3112 0.984961 16.9336 1.16016ZM22.946 1.29375C22.6479 1.59187 22.6016 1.71141 22.6624 2.02617C22.8107 2.79363 23.6609 3.06855 24.2045 2.5248C24.6728 2.05664 24.5544 1.39934 23.9433 1.07379C23.5448 0.86168 23.331 0.908789 22.946 1.29375ZM26.3081 1.20105C25.8855 1.56469 25.862 2.10656 26.2509 2.52047C26.7864 3.09047 27.7734 2.71289 27.7734 1.93805C27.7734 1.11035 26.9154 0.678867 26.3081 1.20105ZM20.0391 11.25V14.0625H26.6016H33.1641V11.25V8.4375H26.6016H20.0391V11.25ZM17.5126 16.1038C17.2932 16.2642 17.2852 16.4589 17.2852 21.5625C17.2852 26.6661 17.2932 26.8608 17.5126 27.0212C17.7043 27.1614 19.1329 27.1875 26.5979 27.1875C34.4252 27.1875 35.486 27.1663 35.7161 27.005L35.9766 26.8227V21.5625V16.3023L35.7161 16.12C35.486 15.9587 34.4252 15.9375 26.5979 15.9375C19.1329 15.9375 17.7043 15.9636 17.5126 16.1038ZM20.0289 17.9627C19.5103 18.3608 19.4739 19.0106 19.9454 19.4498C20.1952 19.6826 20.3333 19.6875 26.6079 19.6875C32.9126 19.6875 33.0202 19.6836 33.324 19.4446C33.5623 19.2573 33.6328 19.0984 33.6328 18.75C33.6328 18.4016 33.5623 18.2427 33.324 18.0554C33.02 17.8162 32.9154 17.8125 26.615 17.8162C21.7688 17.8191 20.1697 17.8546 20.0289 17.9627ZM8.13762 18.4475C7.92293 18.6046 7.91016 18.7789 7.91016 21.5625C7.91016 24.3461 7.92293 24.5204 8.13762 24.6775C8.32207 24.8122 9.02637 24.8438 11.8583 24.8438H15.3516V21.5625V18.2812H11.8583C9.02637 18.2812 8.32207 18.3128 8.13762 18.4475ZM37.8516 21.5625V24.375H40.3553C42.6998 24.375 42.8784 24.3902 43.1637 24.6146L43.4682 24.8542L43.5018 29.1359C43.5336 33.2182 43.5457 33.4253 43.7626 33.5837C44.1105 33.838 48.4748 33.8242 48.8411 33.5675L49.1016 33.3852V26.25V19.1148L48.8411 18.9325C48.6146 18.7738 47.8818 18.75 43.2161 18.75H37.8516V21.5625ZM45.4568 37.7657C44.6972 38.2725 42.5732 41.6668 41.1384 44.6666C39.478 48.1382 38.6943 51.7473 39.1859 53.6586C39.7604 55.8926 41.7123 57.8701 44.1514 58.6897C44.9366 58.9535 45.2556 58.9945 46.5234 58.9941C47.8096 58.9936 48.0932 58.9559 48.8479 58.6847C52.3629 57.422 54.4166 54.0717 53.9121 50.4236C53.679 48.7386 53.0224 46.858 51.8528 44.5259C50.6645 42.1564 49.0806 39.7215 47.9554 38.5343C46.9575 37.4816 46.2218 37.2552 45.4568 37.7657ZM43.0286 50.8087C42.3868 51.0785 42.3912 51.8626 43.0417 53.1914C43.6798 54.4948 44.9546 55.5416 46.1332 55.73C46.7727 55.8323 47.2266 55.4684 47.2266 54.8534C47.2266 54.3446 47.0557 54.1567 46.2891 53.8222C45.999 53.6958 45.5589 53.3671 45.3109 53.0918C44.8931 52.6281 44.3006 51.5556 44.298 51.2584C44.2964 51.0825 43.9393 50.788 43.6397 50.7155C43.5037 50.6825 43.2287 50.7245 43.0286 50.8087Z" stroke="white" stroke-width="0.5"/>
</svg>
