<svg viewBox="0 0 372 235" fill="none" xmlns="http://www.w3.org/2000/svg">
<path fill-rule="evenodd" clip-rule="evenodd" d="M234.796 43.8755L235.269 43.5989C235.499 43.7191 235.718 43.8499 235.915 43.9883C237 44.7482 237.101 44.7758 243.986 46.2096C255.841 48.6783 262.811 50.2145 263.731 50.5611C264.304 50.7774 269.723 53.3342 275.773 56.2432C281.823 59.1521 287.527 61.8907 288.449 62.3289L290.125 63.1257L290.086 64.0679C290.045 65.0712 290.115 65.1682 290.994 65.3389C291.267 65.3918 291.596 65.6455 291.812 65.9694C292.154 66.4823 292.205 66.5033 292.765 66.3599C293.476 66.1779 294.56 66.407 294.925 66.8167C295.29 67.2254 295.641 68.2819 295.625 68.9202C295.61 69.4759 295.611 69.4755 296.009 68.659C296.243 68.1798 296.554 67.7983 296.761 67.7373C297.184 67.6128 297.737 67.8599 297.981 68.2821C298.132 68.5437 298.282 68.5746 299.015 68.494C299.854 68.4018 299.888 68.4148 300.58 69.0895C301.2 69.6941 301.366 69.7737 301.931 69.7359C302.465 69.7001 302.693 69.7903 303.253 70.2595C303.823 70.7376 304.053 70.8265 304.721 70.8265C305.425 70.8265 305.591 70.9 306.197 71.4793C306.775 72.0323 306.994 72.1361 307.632 72.1598C308.457 72.1901 308.83 72.4059 309.304 73.1271C309.589 73.5604 309.697 73.6018 310.551 73.6034C311.394 73.605 311.552 73.6628 312.137 74.1846C312.697 74.6831 312.847 74.743 313.211 74.6131C313.847 74.3867 314.37 74.5799 314.799 75.1988C315.044 75.5521 315.308 75.7468 315.526 75.7338C316.416 75.6811 316.825 75.7816 317.333 76.1779C317.754 76.5069 318.033 76.5969 318.529 76.5636C319.331 76.5099 319.995 76.8246 320.652 77.569C321.059 78.0301 321.242 78.1245 321.593 78.0543C322.142 77.9449 323.085 78.1926 323.527 78.5623C323.712 78.7177 324.029 78.8506 324.23 78.8575C325.438 78.8987 325.71 78.9588 326.15 79.28C326.418 79.4756 326.783 79.6128 326.961 79.5848C327.138 79.5569 327.488 79.6055 327.737 79.6926C327.987 79.7798 328.395 79.8922 328.644 79.9424C328.893 79.9926 329.42 80.2842 329.815 80.5904C330.271 80.9437 330.714 81.1472 331.026 81.1472C332.087 81.1472 337.736 82.1372 340.16 82.7479C343.116 83.4924 347.096 84.7812 349.652 85.8217C355.702 88.2842 361.675 92.2305 365.173 96.0768L366.325 97.3428H367.387C368.587 97.3428 369.067 97.5927 369.702 98.546C369.967 98.9436 370.159 99.0793 370.356 99.0085C370.697 98.8863 370.951 98.8164 371.169 98.8068L371.189 99.2823C371.103 99.2952 371.006 99.3219 370.892 99.3607C370.361 99.5419 370.037 99.9477 370.037 100.43C370.037 100.704 369.884 101.206 369.697 101.546C369.51 101.886 369.375 102.178 369.397 102.194C369.419 102.211 369.673 102.336 369.962 102.472L370.486 102.719L370.688 102.016C370.783 101.688 370.987 101.331 371.26 101.008L371.295 101.852C371.018 102.468 370.963 103.059 371.29 103.059C371.308 103.059 371.326 103.058 371.344 103.056L371.415 104.759C371.145 104.558 370.929 104.321 370.772 104.051C370.45 103.496 370.407 103.473 370.076 103.668C369.9 103.772 369.901 104.033 370.082 105.028L370.307 106.26L371.498 106.771L371.529 107.542L370.379 107.053V107.921C370.379 109.198 369.94 110.95 369.182 112.703C368.448 114.401 367.923 116.245 368.12 116.429C368.224 116.525 369.921 117.287 371.968 118.178L372 118.957C369.639 117.955 367.856 117.25 367.8 117.306C367.734 117.373 367.044 119.834 366.267 122.775L364.854 128.121L365.639 129.533C366.545 131.16 367.253 133.274 367.407 134.817L367.515 135.889L368.667 136.34V137.085C366.655 136.29 364.235 135.359 363.341 135.051C363.171 134.992 363.022 135.056 362.956 135.216C362.773 135.659 362.824 135.716 363.661 136.004C364.476 136.284 366.698 137.133 368.667 137.909V138.598C368.018 138.326 367.58 138.149 367.553 138.149C367.507 138.149 367.469 138.346 367.468 138.586C367.464 140.181 366.058 143.721 364.628 145.739C363.326 147.575 360.333 150.333 358.233 151.63C351.926 155.525 344.289 157.357 334.352 157.359C332.281 157.36 329.701 157.286 328.619 157.195C321.663 156.612 313.529 154.567 306.681 151.681C305.561 151.209 305.531 151.205 305.242 151.502C305.08 151.668 304.874 151.804 304.785 151.804C304.474 151.804 303.423 150.692 303.518 150.463C303.584 150.304 303.214 150.036 302.295 149.577C298.626 147.743 294.961 145.191 292.303 142.618C289.277 139.687 287.311 136.63 286.398 133.43C285.829 131.44 285.746 128.334 286.218 126.743C286.634 125.342 287.47 123.448 288.08 122.528C288.363 122.102 288.531 121.699 288.453 121.632C288.376 121.566 287.119 121.068 285.66 120.527C284.201 119.987 280.384 118.55 277.178 117.335C273.971 116.12 271.289 115.126 271.216 115.126C271.144 115.126 270.417 115.649 269.601 116.289C268.785 116.928 265.576 119.373 262.47 121.722C254.048 128.089 247.928 132.779 247.874 132.907C247.847 132.969 248.278 133.209 248.831 133.439L249.836 133.857L252.644 133.692C262.853 133.09 275.127 135.671 284.529 140.395C293.169 144.737 299.158 150.118 302.614 156.647C304.505 160.219 305.242 162.99 305.235 166.491C305.23 168.823 304.934 170.406 304.151 172.301C303.715 173.355 303.519 174.124 302.35 179.353C300.798 186.296 300.892 185.698 301.268 186.211C302.43 187.795 303.712 190.935 304.248 193.508C304.42 194.334 304.547 195.743 304.557 196.928L304.572 198.943L305.899 199.497C307.199 200.04 307.225 200.062 307.225 200.626C307.225 201.367 306.795 202.138 306.382 202.138C306.206 202.138 305.727 201.96 305.317 201.742C304.907 201.525 304.495 201.347 304.401 201.346C304.307 201.345 304.093 201.997 303.926 202.794C303.106 206.717 300.554 210.838 296.841 214.237C294.78 216.124 294.328 216.462 291.736 218.053C284.356 222.586 274.695 225.007 264.018 225C257.897 224.996 251.223 224.038 245.098 222.283C241.482 221.247 239.815 220.642 236.543 219.182C230.071 216.294 224.624 212.604 220.52 208.327C218.188 205.897 217.039 204.351 215.757 201.919C213.746 198.105 213.168 195.609 213.309 191.348C213.379 189.239 213.481 188.423 213.824 187.212C214.688 184.166 215.991 181.667 218.073 179.068C219.004 177.906 219.064 177.782 218.787 177.606C218.488 177.415 209.609 173.086 203.9 170.347L200.954 168.934L196.199 172.479C193.583 174.429 188.208 178.452 184.255 181.419C180.301 184.387 172.484 190.229 166.883 194.403C161.282 198.576 156.682 202.042 156.66 202.104C156.639 202.166 157.14 202.496 157.773 202.838C158.141 203.036 159.238 203.653 160.638 204.447L159.707 204.673C157.32 203.296 155.835 202.428 155.773 202.372C155.568 202.187 155.567 202.113 155.765 201.892C155.893 201.749 158.62 199.683 161.826 197.302C173.622 188.54 182.819 181.677 186.822 178.651C195.229 172.296 200.651 168.317 200.905 168.317C201.278 168.317 218.404 176.525 218.818 176.902C218.908 176.984 219.042 177.05 219.118 177.05C219.193 177.05 219.255 175.237 219.255 173.021V168.992L216.559 167.678C211.144 165.04 208.382 163.668 208.173 163.514C207.781 163.225 207.952 162.792 208.645 162.319C209.022 162.062 211.525 160.181 214.207 158.14L219.083 154.43L219.085 153.792C219.085 153.441 219.201 152.299 219.341 151.255C219.636 149.061 219.675 147.2 219.426 147.2C219.332 147.2 219.255 147.061 219.255 146.891C219.255 146.722 219.185 146.543 219.1 146.495C219.015 146.446 218.973 146.138 219.008 145.81C219.042 145.483 219.151 143.357 219.25 141.087C219.349 138.816 219.471 136.325 219.521 135.55L219.612 134.142L218.107 135.224C217.279 135.819 214.855 137.578 212.721 139.133C210.586 140.688 208.734 141.96 208.604 141.96C208.475 141.96 206.486 141.008 204.184 139.845C201.883 138.681 198.344 136.903 196.321 135.892C194.297 134.881 188.675 132.073 183.827 129.651C178.979 127.229 171.508 123.498 167.225 121.36C162.942 119.222 159.198 117.337 158.904 117.172C158.242 116.8 158.232 116.751 157.96 112.175C157.843 110.214 157.696 108.629 157.632 108.653C157.276 108.785 144.813 116.494 144.809 116.584C144.807 116.643 145.402 116.995 146.131 117.365C146.861 117.736 149.999 119.337 153.106 120.924C156.212 122.511 162.527 125.725 167.14 128.065C177.046 133.092 208.008 148.87 208.686 149.236C208.945 149.377 209.157 149.614 209.157 149.764C209.157 149.923 208.355 150.618 207.231 151.432C206.172 152.2 202.803 154.688 199.744 156.962C193.605 161.524 191.224 163.277 182.885 169.371C179.779 171.641 174.003 175.891 170.049 178.814C166.096 181.738 159.896 186.304 156.272 188.96C152.648 191.616 148.81 194.454 147.744 195.266C146.643 196.105 145.718 196.697 145.604 196.637C145.494 196.579 143.401 195.374 140.954 193.959C136.729 191.516 130.346 187.837 124.994 184.758C123.653 183.987 122.555 183.26 122.555 183.143C122.555 182.918 124.727 181.322 127.972 179.161L129.929 177.858L131.419 178.671C132.239 179.118 135.827 181.187 139.391 183.269C142.956 185.35 145.931 187.053 146.002 187.053C146.074 187.053 146.236 186.937 146.364 186.794C146.491 186.652 149.293 184.494 152.589 181.998C155.885 179.503 160.777 175.775 163.46 173.716C173.597 165.932 182.103 159.436 184.126 157.933C185.279 157.076 186.223 156.355 186.223 156.33C186.223 156.305 183.778 155.087 180.789 153.622C177.8 152.157 174.865 150.709 174.266 150.404L173.177 149.85L173.286 152.375C173.346 153.764 173.438 155.437 173.491 156.092L173.586 157.283L172.9 157.759C172.523 158.021 171.265 158.945 170.105 159.814C168.945 160.682 163.49 164.753 157.983 168.861C152.477 172.969 147.387 176.808 146.672 177.391L145.373 178.452L141.366 176.145C136.487 173.335 134.039 171.933 125.978 167.332C122.543 165.37 118.064 162.807 116.026 161.635L112.321 159.505L112.212 158.711C112.037 157.426 111.216 152.523 111.167 152.468C111.142 152.441 110.595 152.767 109.95 153.193C109.305 153.62 106.641 155.308 104.029 156.945C101.416 158.583 99.2806 159.971 99.2823 160.031C99.2852 160.134 101.973 161.711 114.169 168.766C120.889 172.654 121.015 172.732 121.015 172.992C121.015 173.201 114.213 177.875 113.582 178.1C113.427 178.155 113.169 178.093 113.008 177.961C112.846 177.829 110.173 176.277 107.067 174.511C103.96 172.745 100.417 170.724 99.1937 170.02C97.97 169.316 93.7725 166.906 89.8661 164.664C85.9596 162.423 80.6839 159.387 78.1424 157.918C75.6008 156.449 67.6296 151.876 60.4285 147.756C53.2274 143.635 43.2922 137.944 38.3503 135.108C33.4084 132.273 28.5178 129.477 27.4824 128.895C24.273 127.093 20.8076 124.901 20.8076 124.675C20.8076 124.477 25.0182 121.98 26.9124 121.054L27.7119 120.663L28.6239 121.214C29.1257 121.517 32.2702 123.32 35.6119 125.22C38.9536 127.12 42.3257 129.056 43.1057 129.522C43.8854 129.988 44.5606 130.369 44.606 130.369C44.6513 130.369 48.2877 128.25 52.6867 125.661C80.9361 109.034 84.0347 107.191 84.0429 107.02C84.0494 106.881 72.9037 101.277 72.8046 101.368C72.756 101.414 72.955 102.772 73.2472 104.387C73.5392 106.002 73.7781 107.359 73.7781 107.403C73.7781 107.447 73.1043 107.859 72.2805 108.317C65.15 112.288 48.2561 121.905 46.184 123.174L45.0323 123.879L41.1351 121.612C38.9916 120.366 35.2739 118.259 32.8735 116.93C30.4732 115.602 27.431 113.902 26.1132 113.153C24.7953 112.404 22.7996 111.273 21.678 110.64L19.639 109.489L19.086 107.455C18.7817 106.336 18.5024 105.392 18.465 105.358C18.3742 105.273 9.43284 109.937 9.42908 110.07C9.42617 110.176 12.1497 111.761 17.6916 114.879C19.3665 115.822 20.7085 116.674 20.6736 116.772C20.5784 117.042 19.5736 117.631 16.3194 119.324C13.6756 120.7 13.3314 120.838 12.982 120.667C12.2654 120.316 9.34967 118.573 8.57043 118.031C7.16341 117.051 5.13085 115.064 4.16985 113.728C0.980319 109.296 1.24149 104.825 4.95696 100.25C6.78414 98.0006 9.29609 96.0277 13.0001 93.9333C14.8466 92.8891 15.0272 92.7477 14.7912 92.5287C14.4922 92.2513 8.6192 95.6984 6.67427 97.2929C3.70621 99.726 1.99831 102.082 1.10286 104.978C0.706484 106.26 0.665234 106.62 0.743106 108.117C0.8434 110.044 1.27059 111.38 2.41592 113.35C3.35142 114.959 4.56486 116.34 6.14576 117.597C7.84475 118.947 8.29265 119.222 17.2134 124.376C21.3552 126.77 27.6706 130.427 31.2476 132.504C34.8246 134.58 38.714 136.833 39.8906 137.51C45.7311 140.868 66.4392 152.859 83.1913 162.582C93.4987 168.564 104.859 175.147 108.436 177.211C112.013 179.275 124.027 186.24 135.135 192.691C141.403 196.331 149.444 201 156.927 205.345L155.998 205.57C146.556 200.087 136.519 194.257 130.685 190.865C122.684 186.214 113.942 181.141 111.26 179.593C108.577 178.044 101.799 174.114 96.1986 170.858C85.0173 164.359 69.1552 155.174 52.8979 145.784C25.9886 130.241 7.94624 119.742 6.90754 119.022C3.67352 116.78 1.13863 113.482 0.27895 110.398C-0.0922715 109.066 -0.0931237 106.264 0.277242 104.935C1.03903 102.202 3.14621 99.2364 5.91762 96.9955C7.62072 95.6186 10.7019 93.6699 12.8954 92.5827C13.8113 92.1286 14.5572 91.7456 14.5531 91.7316C14.549 91.7175 14.448 91.3629 14.3289 90.9438C14.115 90.1912 14.0879 90.1686 12.2399 89.1972L10.3675 88.2129L10.1553 87.2602C9.74588 85.4232 9.66732 85.5183 12.678 84.2136C14.137 83.5813 17.0637 82.3363 19.1816 81.4467C21.2996 80.5572 25.2275 78.9011 27.9102 77.7666C30.593 76.6322 33.0575 75.5991 33.387 75.4712C35.0201 74.8368 43.4202 71.2503 43.5618 71.1269C43.8601 70.867 44.2885 70.9799 45.646 71.6766C46.3871 72.0568 49.6504 73.6552 52.8979 75.2287C56.1455 76.802 59.8808 78.6236 61.1987 79.2765L63.5947 80.4637L65.4084 80.5707C67.6633 80.7037 71.4462 81.2239 77.5434 82.2392C85.7511 83.6058 88.6213 83.8452 96.8416 83.8485C104.107 83.8514 108.168 83.4962 113.45 82.3959C119.975 81.0362 124.189 79.4219 131.497 75.4824C131.566 75.4448 126.214 72.8937 119.602 69.8132C107.806 64.318 107.58 64.2038 107.58 63.7486C107.58 63.2992 107.743 63.2081 112.714 60.8867C115.538 59.5681 117.943 58.4606 118.058 58.4257C118.269 58.3617 118.06 55.9028 117.026 46.3065L116.651 42.8246L115.282 42.1782L113.912 41.5316L113.762 40.6047C113.646 39.8829 113.665 39.6326 113.848 39.4738C113.978 39.3616 115.855 38.6236 118.02 37.8336C121.819 36.4478 133.155 32.3723 133.68 32.2036C133.883 32.1384 133.866 32.0949 133.595 31.9948C133.54 31.9746 133.365 31.9054 133.102 31.7996L134.11 31.4637C134.832 31.7084 135.027 31.6801 135.326 31.5798C135.644 31.4728 135.905 31.3451 135.905 31.296C135.905 31.2756 135.714 31.1797 135.394 31.0356L136.372 30.7097L136.947 30.9485L138.831 30.3038L140.716 29.6592L142.461 30.3454C143.421 30.7228 145.471 31.5537 147.017 32.1917C148.563 32.8299 149.847 33.334 149.871 33.3122C149.894 33.2903 149.423 31.7875 148.823 29.9725C148.807 29.9224 148.79 29.872 148.773 29.8214L149.469 30.1353C149.873 31.4409 150.184 32.3867 150.218 32.3551C150.243 32.3314 150.118 31.4926 149.938 30.4912C149.93 30.4434 149.921 30.391 149.911 30.3343L150.553 30.6238C150.821 32.0718 151.211 33.7838 151.353 33.9499C151.551 34.1828 151.89 34.2208 151.739 33.9931C151.682 33.9077 151.863 33.3538 152.142 32.7625C152.272 32.4875 152.46 32.058 152.665 31.5761L153.494 31.95C153.173 32.1463 153.009 32.4181 152.63 33.0968C152.286 33.7106 152.022 34.2273 152.042 34.2447C152.062 34.2624 155.583 35.719 159.866 37.4819C164.149 39.2447 167.827 40.7893 168.038 40.9145C168.34 41.0926 168.423 41.29 168.423 41.8235V42.5049L170.948 43.5029C176.44 45.6737 185.293 49.2814 185.495 49.4308C185.613 49.5178 185.709 49.645 185.709 49.7137C185.709 49.8665 183.283 51.1861 178.863 53.4366C171.556 57.158 168.731 58.6691 168.957 58.7361C169.412 58.871 176.554 61.9582 176.685 62.0768C176.9 62.2705 176.394 62.5801 172.788 64.4634C168.471 66.7176 163.797 69.2872 163.878 69.3618C163.912 69.3931 167.539 71.0585 171.939 73.0626L179.938 76.7066L180.47 76.4134C180.763 76.252 183.275 74.8083 186.052 73.2049C188.829 71.6015 191.871 69.8513 192.812 69.3156C197.426 66.6892 199.483 65.5112 203.423 63.2373C205.777 61.8794 209.05 59.9831 210.697 59.0233C212.344 58.0635 215.018 56.5219 216.638 55.5973L219.584 53.9165L218.684 53.4935C218.644 53.4748 218.584 53.4474 218.505 53.4122L219.186 53.0135L219.563 53.1591L220.407 53.4844L224.323 51.1901C226.478 49.9281 228.451 48.7715 228.71 48.6196L229.18 48.3436L227.981 47.8651L228.651 47.4728L229.873 47.9841L230.511 47.6272C231.891 46.8552 231.875 46.9174 230.796 46.543C230.685 46.5046 230.571 46.4616 230.456 46.4162L231.831 45.6113C231.983 45.6458 232.041 45.6118 232.076 45.4677L232.578 45.1743C232.617 45.6585 232.689 46.0406 232.764 46.1099C233.076 46.399 233.34 45.973 233.41 45.07C233.42 44.9361 233.423 44.8064 233.418 44.6822L233.889 44.4066C233.916 44.6545 233.915 44.9281 233.879 45.1297L233.777 45.711L234.815 45.2091C235.386 44.933 235.854 44.6634 235.855 44.6097C235.856 44.4974 235.308 44.1388 234.796 43.8755ZM138.729 31.0888C137.882 31.3997 133.877 32.8489 129.829 34.3095C118.029 38.5674 115.29 39.5713 115.155 39.6876C115.016 39.8084 123.784 43.7012 137.445 49.584C139.469 50.4554 141.219 51.2398 141.333 51.3269C141.48 51.4385 143.607 50.6664 148.521 48.7179C152.361 47.1956 158.138 44.9203 161.361 43.6615C164.584 42.4027 167.222 41.3263 167.223 41.2693C167.224 41.2123 167.014 41.0963 166.755 41.0111C166.141 40.8098 162.461 39.3044 152.592 35.2187C142.635 31.0961 141.104 30.4929 140.639 30.5101C140.436 30.5175 139.576 30.7779 138.729 31.0888ZM114.371 40.698C114.411 40.9603 114.722 41.189 115.538 41.5581C117.395 42.3975 132.482 48.9991 136.59 50.7699C138.708 51.6828 140.621 52.5378 140.841 52.6697C141.322 52.9587 141.458 52.8698 141.319 52.3571C141.234 52.0417 140.661 51.7337 138.09 50.6197C131.314 47.685 120.933 43.1667 117.804 41.7906C115.991 40.9932 114.465 40.3408 114.412 40.3408C114.36 40.3408 114.341 40.5015 114.371 40.698ZM166.541 42.3539C166.023 42.5735 162.365 44.0203 158.411 45.5692C141.456 52.2113 142.066 51.9554 142.066 52.4279C142.066 52.8517 142.078 52.848 146.901 50.8711C149.561 49.7812 152.121 48.7466 152.592 48.5721C153.063 48.3974 155.758 47.319 158.582 46.1756C161.406 45.0321 164.602 43.7574 165.685 43.3427C167.217 42.756 167.665 42.5156 167.708 42.2587C167.775 41.8519 167.712 41.8571 166.541 42.3539ZM117.482 43.953C117.692 45.4544 118.268 51.0222 118.81 56.7745C119.282 61.7943 119.408 62.6949 119.675 62.9625C119.984 63.2718 119.988 63.2702 119.988 62.835C119.988 62.3277 118.95 51.5141 118.439 46.698C118.112 43.6196 118.005 43.209 117.527 43.2012C117.445 43.1999 117.424 43.5381 117.482 43.953ZM167.354 43.3833C166.472 43.682 165.789 43.356 175.954 47.4857C182.124 49.9924 182.115 49.9884 182.115 50.2418C182.115 50.4619 179.58 51.8479 172.274 55.6219C170.674 56.4485 168.565 57.5425 167.588 58.0532L165.812 58.9814L165.896 60.8675L165.979 62.7537L165.361 63.1219C165.022 63.3243 161.509 65.1698 157.555 67.2227C153.602 69.2756 148.757 71.8167 146.789 72.8695L143.21 74.784L138.231 72.4296C135.493 71.1347 130.018 68.5523 126.064 66.6909C122.11 64.8296 118.826 63.2376 118.765 63.1535C118.704 63.0693 118.599 62.1527 118.532 61.1165C118.465 60.0803 118.361 59.2053 118.301 59.1721C118.24 59.1387 115.932 60.161 113.17 61.4436L108.149 63.7757L119.417 68.9893C125.614 71.8567 131.879 74.7222 133.338 75.357C134.797 75.992 137.476 77.1971 139.29 78.0353C141.105 78.8736 142.658 79.5594 142.742 79.5594C142.825 79.5594 145.8 78.0216 149.353 76.142L155.813 72.7246L158.053 73.7049C159.286 74.2441 163.182 76.0204 166.712 77.6525L173.13 80.6198L176.084 78.9426C177.708 78.02 179.017 77.2088 178.992 77.1399C178.968 77.0712 175.254 75.3451 170.74 73.3044C166.226 71.2636 162.507 69.5237 162.476 69.4377C162.405 69.2387 169.962 65.0711 174.626 62.7378C175.072 62.5146 175.437 62.2961 175.437 62.2524C175.437 62.2087 174.956 61.9799 174.369 61.744C172.145 60.8507 167.997 59.0508 167.785 58.8874C167.472 58.6465 167.731 58.4037 168.994 57.7564C169.574 57.459 171.628 56.4106 173.558 55.4266C179.123 52.5886 184.335 49.8453 184.428 49.7048C184.476 49.6337 184.227 49.4876 183.876 49.38C183.524 49.2723 182.041 48.689 180.579 48.0835C175.036 45.7871 168.424 43.1993 168.13 43.2114C167.962 43.2182 167.613 43.2957 167.354 43.3833ZM119.085 45.9378C119.207 47.095 119.653 51.5038 120.076 55.7353C120.499 59.9669 120.903 63.4755 120.973 63.5323C121.043 63.5892 123.17 64.6103 125.699 65.8016L130.298 67.9675L130.181 66.4199C130.117 65.5687 129.917 63.2289 129.737 61.2203C129.229 55.5598 129.154 54.0583 129.372 53.9336C129.664 53.7658 134.886 56.2164 135.065 56.6056C135.199 56.8971 135.521 60.3998 136.086 67.7303C136.187 69.0402 136.304 70.273 136.347 70.4697C136.408 70.7473 136.965 71.0785 138.833 71.9467L141.242 73.066L141.135 71.9065C141.029 70.7617 140.284 59.6113 140.097 56.3776C140.044 55.4606 139.958 54.3071 139.907 53.8142L139.812 52.9179L137.302 51.8469C134.736 50.7518 127.424 47.5573 122.016 45.1685C120.354 44.4344 118.964 43.8339 118.928 43.8339C118.892 43.8339 118.963 44.7806 119.085 45.9378ZM165.476 44.2029C165.278 44.3576 165.257 44.9491 165.358 47.6447C165.424 49.4349 165.537 52.5252 165.609 54.5119C165.681 56.4985 165.778 58.1241 165.824 58.1241C165.934 58.1241 171.647 55.187 176.876 52.4424L180.965 50.2964L180.474 50.0581C180.205 49.9271 178.943 49.4119 177.669 48.9133C176.396 48.4147 173.506 47.2382 171.247 46.299C165.285 43.82 165.751 43.9891 165.476 44.2029ZM164.007 44.7641C163.825 44.8711 163.817 45.7877 163.962 49.7236C164.061 52.379 164.183 55.8734 164.234 57.489C164.285 59.1046 164.369 60.9437 164.421 61.576C164.51 62.6503 164.537 62.7148 164.846 62.5619C165.217 62.3774 165.229 63.5284 164.736 51.4997C164.599 48.162 164.487 45.2503 164.487 45.0294C164.487 44.6077 164.377 44.5467 164.007 44.7641ZM158.925 46.7879C156.665 47.7091 154.278 48.6647 153.619 48.9112C151.79 49.5957 143.71 52.905 143.564 53.029C143.493 53.0892 143.51 54.0638 143.601 55.1946C143.693 56.3256 143.966 60.1089 144.21 63.602C144.453 67.0952 144.706 70.6481 144.771 71.4975L144.89 73.0417L149.426 70.6511C151.92 69.3362 156.041 67.1855 158.582 65.8716C161.124 64.5579 163.309 63.3909 163.439 63.2784C163.67 63.0777 163.581 58.3815 163.142 47.7682L163.032 45.1131L158.925 46.7879ZM234.572 46.1566C233.725 46.645 232.262 47.4729 231.321 47.996C230.379 48.5194 227.491 50.1805 224.902 51.6875C220.206 54.4215 213.134 58.4925 207.788 61.5392C206.234 62.4242 202.422 64.616 199.316 66.4096C196.209 68.2033 191.704 70.7984 189.303 72.1768C186.903 73.555 183.514 75.5085 181.773 76.5178C180.032 77.5272 176.951 79.2912 174.927 80.4378C163.442 86.9443 154.126 92.2945 154.083 92.4085C154.055 92.4803 154.171 92.577 154.339 92.6233C154.508 92.6697 156.417 93.2939 158.582 94.0103C160.747 94.7269 163.31 95.5565 164.277 95.8542C167.849 96.9541 178.459 100.336 179.167 100.6L179.898 100.873L184.13 98.2219C186.458 96.7637 199.53 88.6408 213.179 80.1709C226.828 71.7009 243.018 61.6498 249.157 57.8353C255.296 54.0206 260.456 50.8174 260.624 50.7169C260.881 50.563 260.889 50.5213 260.673 50.4528C260.389 50.3631 256.175 49.4617 248.607 47.872C245.877 47.2985 241.97 46.477 239.924 46.0462C237.879 45.6155 236.184 45.2642 236.159 45.2657C236.134 45.2672 235.42 45.6682 234.572 46.1566ZM249.505 58.4114C242.657 62.6635 229.872 70.6038 221.094 76.0563C212.317 81.5088 200.591 88.7898 195.037 92.2362C184.484 98.785 180.746 101.137 180.746 101.23C180.746 101.26 181.137 101.508 181.615 101.781L182.484 102.277L187.905 98.9087C198.759 92.164 222.514 77.3235 247.922 61.4131C250.275 59.9395 254.846 57.0805 258.079 55.0595L263.956 51.3854L263.298 51.1259C262.936 50.9832 262.486 50.8245 262.298 50.7733C262.042 50.7037 258.815 52.6307 249.505 58.4114ZM256.137 57.0713C251.525 59.968 239.818 67.2972 230.122 73.3581C220.427 79.4192 209.067 86.5213 204.878 89.1405C200.689 91.7596 194.117 95.8639 190.273 98.261C186.43 100.658 183.349 102.674 183.427 102.741C183.57 102.862 187.857 105.404 196.149 110.284C206.351 116.288 208.229 117.403 208.486 117.608C208.634 117.728 208.838 117.825 208.938 117.825C209.111 117.825 210.546 116.866 222.592 108.698C225.416 106.783 229.382 104.1 231.406 102.736C233.43 101.372 237.088 98.8993 239.536 97.2413C241.983 95.5833 246.412 92.5837 249.377 90.5754C252.342 88.567 257.502 85.0665 260.844 82.7963C264.185 80.5261 267.767 78.0934 268.802 77.3903C269.838 76.6871 273.26 74.3767 276.408 72.2559C279.556 70.1352 283.176 67.6746 284.452 66.7881C285.729 65.9015 287.294 64.8253 287.931 64.3964C288.567 63.9675 289.066 63.5533 289.038 63.4761C289.01 63.3988 286.833 62.2981 284.2 61.0301C272.228 55.2642 264.864 51.7742 264.701 51.7887C264.603 51.7972 260.75 54.1745 256.137 57.0713ZM140.697 53.9214C140.697 54.2359 140.813 56.2569 140.954 58.4125C142.009 74.5521 141.907 73.3697 142.272 73.5828C142.432 73.6763 142.593 73.7195 142.63 73.679C142.692 73.6103 142.36 68.4456 141.622 57.9942C141.35 54.1462 141.281 53.6394 141.007 53.5032C140.735 53.3682 140.697 53.4192 140.697 53.9214ZM142.291 53.4855C142.135 53.5775 142.162 54.6397 142.406 58.0479C142.581 60.4914 142.853 64.4912 143.01 66.9364C143.456 73.8438 143.463 73.8983 143.827 73.6503C144.119 73.4515 144.121 73.2551 143.867 69.3159C143.721 67.0466 143.449 63.1892 143.263 60.744C143.077 58.2988 142.877 55.6372 142.818 54.8294C142.71 53.3606 142.671 53.2612 142.291 53.4855ZM129.983 55.8615C130.039 56.4509 130.242 58.7553 130.434 60.9822C130.931 66.7616 131.08 68.3103 131.143 68.355C131.174 68.3765 132.18 68.874 133.381 69.4604L135.563 70.5267L135.561 70.0812C135.56 69.8362 135.329 66.9205 135.048 63.602C134.767 60.2835 134.537 57.4082 134.537 57.2123C134.536 56.9149 134.169 56.6859 132.313 55.8229C131.091 55.2547 130.043 54.7898 129.986 54.7898C129.928 54.7898 129.926 55.2721 129.983 55.8615ZM284.437 67.6982C281.74 69.5498 277.62 72.347 275.28 73.9142C272.941 75.4815 267.908 78.8789 264.095 81.464C257.46 85.9636 252.677 89.2004 245.464 94.0724C243.642 95.3034 240.792 97.2335 239.132 98.3615C237.471 99.4895 234.187 101.709 231.834 103.294C229.481 104.878 223.82 108.701 219.255 111.789C214.689 114.877 210.627 117.619 210.226 117.883C209.623 118.281 209.499 118.452 209.499 118.886V119.408L213.136 116.923C215.136 115.557 217.505 113.928 218.399 113.305C219.293 112.681 222.728 110.343 226.032 108.108C229.336 105.873 233.379 103.12 235.017 101.991C236.655 100.862 239.151 99.1529 240.563 98.1937C241.975 97.2343 244.735 95.3466 246.698 93.9984C248.66 92.6503 251.224 90.9042 252.395 90.1183C253.567 89.3323 257.66 86.5381 261.492 83.9089C265.324 81.2796 270.578 77.7022 273.166 75.9589C280.318 71.143 287.611 66.156 289.398 64.8597C289.43 64.8367 289.43 64.7084 289.398 64.5747C289.357 64.4051 287.857 65.3499 284.437 67.6982ZM288.552 66.3561C287.16 67.3338 286.952 67.5572 287.241 67.7613C287.533 67.9669 289.039 68.7624 289.137 68.7624C289.18 68.7624 289.267 68.3761 289.331 67.9039C289.394 67.4317 289.593 66.7781 289.773 66.4513C290.082 65.8888 290.085 65.5868 289.783 65.5868C289.709 65.5868 289.155 65.9329 288.552 66.3561ZM291.209 66.1158C291.263 66.2757 291.308 66.5836 291.308 66.8C291.308 67.0218 291.383 67.1505 291.479 67.0952C291.734 66.9488 291.686 66.4822 291.38 66.1332C291.132 65.8512 291.117 65.8497 291.209 66.1158ZM290.216 66.5501C290.045 66.8196 289.863 67.462 289.812 67.9777C289.727 68.8567 289.746 68.9242 290.129 69.0577C290.514 69.1917 290.551 69.152 290.751 68.3859C290.994 67.4612 290.968 66.194 290.704 66.1138C290.607 66.0842 290.388 66.2807 290.216 66.5501ZM292.616 66.811C292.366 66.8707 292.32 66.9855 292.399 67.3524C292.454 67.6087 292.386 68.2243 292.246 68.7206C292.107 69.217 291.993 69.6697 291.993 69.7268C291.993 69.8459 294.043 70.7243 294.13 70.6423C294.775 70.0387 295.245 69.2679 295.245 68.8148C295.245 67.3175 294.112 66.4539 292.616 66.811ZM291.65 67.6565C291.65 67.8343 291.529 68.1517 291.381 68.3618C291.086 68.7781 291.107 69.4167 291.417 69.5114C291.524 69.5441 291.697 69.3424 291.802 69.0634C292.039 68.4326 292.052 67.3334 291.822 67.3334C291.727 67.3334 291.65 67.4788 291.65 67.6565ZM286.284 68.7227C286.056 69.9994 286.138 70.4426 286.644 70.6639C287.434 71.0094 292.031 72.8907 292.085 72.8907C292.114 72.8907 292.191 72.4183 292.258 71.8408C292.393 70.6733 292.174 70.308 291.618 70.774C291.216 71.112 290.545 70.937 289.881 70.3208C289.472 69.9412 289.141 69.8057 288.405 69.717C287.358 69.5906 286.516 69.3203 286.516 69.1103C286.516 68.8192 286.75 68.7845 287.214 69.0069C288.29 69.5234 288.378 69.1092 287.314 68.5309C286.906 68.3089 286.531 68.1273 286.481 68.1273C286.431 68.1273 286.342 68.3953 286.284 68.7227ZM296.655 68.3257C296.561 68.435 296.234 69.0561 295.929 69.7063C295.357 70.9254 295.371 71.3205 295.99 71.4335C296.187 71.4696 296.271 71.3729 296.271 71.1117C296.271 70.6938 296.594 70.1943 297.34 69.4542C297.832 68.9669 297.837 68.9451 297.551 68.5412C297.233 68.0903 296.923 68.0158 296.655 68.3257ZM285.147 68.6824C284.915 68.9426 284.218 73.9151 284.365 74.2697C284.413 74.3845 284.518 74.4785 284.6 74.4785C284.757 74.4785 285.587 68.6412 285.448 68.5125C285.403 68.471 285.268 68.5476 285.147 68.6824ZM298.565 69.0183C298.449 69.0626 298.406 69.3807 298.453 69.8394C298.505 70.3551 298.421 70.8397 298.184 71.3953L297.84 72.2022L298.323 72.467C298.97 72.8218 299.01 72.8089 299.01 72.2476C299.01 71.5826 299.392 70.9548 300.133 70.4032L300.758 69.9385L300.297 69.4299C299.854 68.9418 299.181 68.7821 298.565 69.0183ZM282.778 70.2946C282.017 70.8534 281.553 71.31 281.553 71.5002C281.553 71.8154 283.475 73.6576 283.556 73.42C283.627 73.2133 284.079 69.482 284.039 69.4361C284.019 69.4135 283.452 69.7999 282.778 70.2946ZM297.256 70.1433C296.728 70.7884 296.617 71.6855 297.046 71.8383C297.436 71.9772 297.982 71.041 297.982 70.2311C297.983 69.86 297.925 69.5588 297.855 69.562C297.784 69.5652 297.514 69.8268 297.256 70.1433ZM290.429 70.1966C290.651 70.3684 290.959 70.5074 291.113 70.5055C291.324 70.5028 291.288 70.4253 290.966 70.1914C290.384 69.7695 289.882 69.7744 290.429 70.1966ZM294.843 70.4818C294.498 70.8357 294.491 70.9267 294.799 71.0364C294.962 71.0945 295.061 70.9739 295.112 70.6565C295.199 70.1074 295.205 70.1114 294.843 70.4818ZM301.389 70.3105C301.379 70.3761 301.385 70.6639 301.402 70.9502C301.422 71.28 301.24 71.7884 300.906 72.3372C300.616 72.8137 300.379 73.2392 300.379 73.283C300.379 73.3449 301.51 73.8433 301.65 73.8433C301.667 73.8433 301.677 73.4446 301.672 72.9574C301.663 72.1523 301.714 72.0288 302.222 71.6077C302.529 71.3527 302.895 71.1441 303.035 71.1441C303.398 71.1441 303.349 70.9343 302.893 70.5366C302.515 70.2074 301.427 70.0439 301.389 70.3105ZM300.071 71.0529C299.327 71.8391 299.142 72.8913 299.747 72.8903C300.078 72.8899 300.892 71.5507 300.892 71.0083C300.892 70.3686 300.709 70.3786 300.071 71.0529ZM285.933 71.599C285.885 71.8291 285.754 72.7273 285.642 73.5949L285.439 75.1722L286.833 76.4181C287.6 77.1033 288.227 77.7895 288.227 77.9429C288.227 78.1075 287.49 78.7647 286.43 79.5445C285.442 80.2717 284.633 80.9127 284.633 80.9688C284.633 81.0761 290.3 83.7323 290.361 83.6537C290.429 83.5672 292.002 73.6399 291.955 73.5983C291.929 73.5752 290.583 73.0218 288.964 72.3684L286.021 71.1804L285.933 71.599ZM292.933 72.1064C292.867 72.6358 292.848 73.1025 292.893 73.1433C293.021 73.2627 305.733 78.4475 306.133 78.5435C306.416 78.6115 306.582 78.5029 306.88 78.0548C307.091 77.7379 307.236 77.4623 307.202 77.4422C307.167 77.4224 306.812 77.1402 306.411 76.8155C305.996 76.4788 305.504 76.225 305.265 76.225C304.403 76.225 303.091 75.8667 302.627 75.5043C302.315 75.2603 302.02 75.1604 301.783 75.2179C301.281 75.3398 299.929 74.7035 299.592 74.1868C299.248 73.6593 297.861 73.0258 297.331 73.1544C297.04 73.2249 296.734 73.0841 296.1 72.5885C295.308 71.9688 293.689 71.1492 293.25 71.1457C293.136 71.1447 293.003 71.5493 292.933 72.1064ZM304.138 72.1365C304.135 72.5949 304.022 73.1487 303.888 73.367C303.753 73.5853 303.64 73.9864 303.637 74.2584C303.632 74.6963 303.715 74.7825 304.364 75.0126C305.305 75.3459 305.31 75.3449 305.213 74.8776C305.075 74.2057 305.337 73.3842 305.868 72.8232L306.376 72.286L305.846 71.7944C305.46 71.4364 305.157 71.3029 304.73 71.3029H304.144L304.138 72.1365ZM302.999 71.622C302.375 71.8553 302.034 72.4939 302.14 73.2308C302.275 74.1638 302.496 74.2933 303.015 73.7454C303.559 73.1712 303.866 72.3567 303.729 71.8502C303.615 71.4285 303.562 71.4116 302.999 71.622ZM43.7235 71.8376C43.3917 72.0425 41.2441 72.9628 34.7562 75.6806C32.7323 76.5283 26.9561 78.9543 21.92 81.0715C16.884 83.1888 12.361 85.09 11.8691 85.2968C11.3771 85.5033 10.9728 85.7234 10.9706 85.7857C10.9656 85.9211 14.0932 87.6553 19.3528 90.4335C21.4708 91.5522 26.3613 94.1608 30.2207 96.2304C34.0801 98.3 37.7095 100.234 38.2861 100.528L39.3346 101.063L55.8289 93.3883C64.9008 89.1673 72.3757 85.6686 72.4397 85.6137C72.5039 85.5586 70.0008 84.2803 66.8774 82.7726C58.8058 78.8767 46.6977 72.9851 45.2639 72.256C44.22 71.7251 44.0022 71.6658 43.7235 71.8376ZM279.479 72.6182C278.951 72.9864 277.757 73.8076 276.826 74.4432C275.896 75.0787 274.795 75.8767 274.379 76.2165L273.624 76.8341L276.848 79.9433C278.621 81.6534 280.11 83.0526 280.157 83.0526C280.204 83.0526 281.884 81.8989 283.891 80.4889L287.54 77.9251L286.044 76.6444C285.221 75.94 283.696 74.5929 282.656 73.6507C281.616 72.7087 280.691 71.9404 280.602 71.9434C280.513 71.9462 280.008 72.25 279.479 72.6182ZM307.08 73.364C307.085 73.9286 306.96 74.366 306.642 74.8924C306.398 75.2981 306.198 75.6555 306.198 75.6866C306.198 75.7455 307.846 76.5426 307.967 76.5426C308.005 76.5426 308.075 76.2198 308.123 75.8252C308.171 75.4292 308.415 74.8206 308.668 74.4669C308.955 74.064 309.086 73.713 309.02 73.5213C308.865 73.0677 308.1 72.5731 307.554 72.5731C307.091 72.5731 307.074 72.6017 307.08 73.364ZM306.039 73.3091C305.662 73.7546 305.53 75.1136 305.864 75.1136C306.112 75.1136 306.703 73.861 306.708 73.3273C306.713 72.7782 306.494 72.7724 306.039 73.3091ZM152.841 75.0872C151.198 75.9461 148.293 77.4823 146.385 78.501C144.477 79.5197 142.873 80.3533 142.819 80.3533C142.765 80.3533 140.451 79.3173 137.676 78.051C134.901 76.7847 132.595 75.7487 132.553 75.7487C132.51 75.7487 131.535 76.2563 130.386 76.8767C121.213 81.8297 112.893 83.9792 100.957 84.48C96.4402 84.6694 89.5804 84.4897 85.5874 84.077C82.8182 83.7907 78.8792 83.1975 75.4896 82.5559C72.9201 82.0697 67.1735 81.3055 66.0933 81.3066L65.4774 81.3071L65.9908 81.5964C66.2732 81.7555 68.0446 82.6147 69.9272 83.5054C71.8099 84.3962 73.4503 85.2007 73.5725 85.2933C73.7167 85.4022 73.7769 85.7495 73.7437 86.2785L73.6925 87.0957L72.1183 87.8925C71.2524 88.3307 70.503 88.7296 70.4527 88.779C70.2993 88.9296 72.413 100.109 72.6321 100.305C72.7447 100.406 75.4939 101.827 78.7414 103.462C85.693 106.962 85.428 106.816 85.3214 107.068C85.2101 107.331 87.0692 106.22 67.8735 117.499C61.2842 121.37 54.0446 125.625 51.7855 126.953C43.9108 131.584 44.6607 131.185 44.2661 130.952C37.064 126.689 27.7004 121.457 27.4394 121.55C27.0827 121.677 21.7489 124.658 21.7489 124.73C21.7489 124.762 22.2303 125.057 22.8186 125.385C23.407 125.713 24.447 126.328 25.1301 126.751C25.813 127.175 28.4316 128.688 30.9492 130.114C33.4666 131.54 38.4145 134.372 41.9444 136.408C45.4744 138.443 52.945 142.729 58.5459 145.933C64.1467 149.136 70.9627 153.042 73.6925 154.613C87.9579 162.823 98.7843 169.037 104.802 172.469C108.495 174.575 111.93 176.544 112.435 176.843C112.949 177.148 113.469 177.347 113.615 177.294C114.192 177.089 119.991 173.02 119.866 172.909C119.792 172.843 115.958 170.595 111.345 167.913C106.733 165.232 101.9 162.422 100.606 161.668C99.091 160.787 98.2524 160.204 98.2524 160.031C98.2524 159.86 99.4189 159.028 101.461 157.743C106.099 154.826 110.26 152.167 110.694 151.845L111.07 151.566L110.573 148.629C110.3 147.013 109.827 144.101 109.522 142.157L108.967 138.623L107.24 137.689C106.29 137.175 105.427 136.657 105.323 136.539C105.218 136.42 105.079 135.785 105.013 135.127L104.894 133.931L106.579 132.958C107.506 132.423 109.15 131.504 110.233 130.915C111.315 130.326 113.048 129.363 114.084 128.775C115.119 128.188 119.047 125.995 122.812 123.903C126.577 121.81 131.525 119.051 133.807 117.771C136.089 116.491 138.117 115.444 138.313 115.444C138.62 115.444 148.067 119.975 153.533 122.744C154.522 123.245 157.179 124.554 159.438 125.654C161.697 126.754 166.549 129.14 170.22 130.956L176.895 134.259L176.947 134.998L176.998 135.736L174.904 137.062L172.81 138.387L172.853 140.213C172.957 144.63 173.191 148.987 173.331 149.117C173.415 149.195 174.405 149.714 175.532 150.271C182.288 153.61 187.01 155.976 187.127 156.079C187.36 156.284 187.087 156.628 186.171 157.282C185.261 157.933 176.336 164.69 172.959 167.285C162.116 175.618 158.242 178.579 153.106 182.459C149.811 184.948 146.839 187.178 146.502 187.414L145.889 187.844L140.426 184.65C137.422 182.894 133.833 180.819 132.45 180.04L129.937 178.623L126.76 180.806C125.012 182.006 123.582 183.031 123.582 183.083C123.582 183.136 125.373 184.208 127.562 185.465C129.75 186.723 134.73 189.593 138.627 191.844L145.714 195.936L146.329 195.461C147.588 194.49 169.515 178.334 181.402 169.62C188.574 164.362 190.833 162.699 202.578 154.031C205.125 152.152 207.469 150.429 207.786 150.204L208.363 149.795L203.754 147.441C201.219 146.147 197.643 144.319 195.807 143.38C192.594 141.737 181.35 136.012 169.536 130.004C149.956 120.046 143.858 116.883 143.809 116.658C143.772 116.484 145.856 115.112 150.741 112.096C154.583 109.724 157.739 107.775 157.754 107.763C157.77 107.752 157.676 105.564 157.545 102.9C157.415 100.237 157.306 97.5847 157.303 97.0071L157.299 95.9569L155.255 95.2886C154.132 94.9209 153.123 94.5209 153.015 94.3996C152.906 94.2783 152.776 93.7516 152.725 93.2294L152.632 92.2796L153.434 91.8341C156.133 90.3336 172.145 81.2022 172.335 81.0546C172.439 80.9745 156.171 73.5258 155.893 73.5258C155.857 73.5258 154.484 74.2284 152.841 75.0872ZM292.584 74.6131C292.524 75.0194 292.174 77.2331 291.806 79.5326C291.438 81.832 291.137 83.8073 291.137 83.9217C291.137 84.1061 291.626 84.3992 291.746 84.2869C291.771 84.263 292.031 82.7099 292.322 80.8358C292.614 78.9616 292.918 77.3668 292.999 77.2919C293.081 77.216 293.971 77.6085 295.008 78.178C296.033 78.7404 297.192 79.3516 297.586 79.5362L298.301 79.8721L298.42 78.994C298.485 78.511 298.509 78.0917 298.474 78.062C298.439 78.0324 297.41 77.6321 296.186 77.1726C293.823 76.2852 293.345 76.0182 293.638 75.7468C293.758 75.6353 294.036 75.6565 294.517 75.814C295.535 76.1471 302.886 79.0537 303.845 79.5021C304.292 79.7112 304.658 79.8098 304.658 79.7214C304.658 79.6328 304.893 79.4708 305.182 79.3614C305.695 79.1663 305.619 79.1277 301.202 77.3436C298.726 76.3433 295.798 75.1536 294.696 74.6996L292.693 73.8745L292.584 74.6131ZM300.109 74.1415C300.252 74.3556 301.333 74.7971 301.688 74.7868C301.863 74.7819 301.591 74.6033 301.085 74.3899C300.069 73.9619 299.974 73.9378 300.109 74.1415ZM303.046 74.1396C302.972 74.2503 302.958 74.3837 303.015 74.4361C303.168 74.5782 303.335 74.3692 303.252 74.139C303.194 73.9777 303.154 73.9777 303.046 74.1396ZM309.853 74.884C309.866 75.6893 309.897 75.7587 310.216 75.6844C310.408 75.6398 310.674 75.6652 310.806 75.7412C310.969 75.8348 311.231 75.743 311.618 75.4567C311.931 75.2243 312.188 74.9772 312.188 74.9075C312.188 74.8378 311.984 74.6056 311.735 74.3914C311.404 74.1061 311.09 74.0021 310.561 74.0021H309.84L309.853 74.884ZM308.974 74.796C308.579 75.3759 308.306 76.3281 308.487 76.4961C308.545 76.5497 308.745 76.4651 308.932 76.3081C309.298 76.0012 309.519 75.2297 309.416 74.6184C309.355 74.2563 309.337 74.264 308.974 74.796ZM313.101 75.0775C312.987 75.145 312.918 75.4981 312.94 75.9011C312.976 76.5399 313.034 76.6272 313.557 76.8252C314.099 77.0305 314.154 77.0212 314.441 76.6742C314.857 76.1731 314.832 75.8719 314.336 75.3749C313.918 74.9572 313.483 74.8522 313.101 75.0775ZM303.289 75.4311C303.43 75.5158 303.622 75.585 303.716 75.585C303.811 75.585 303.772 75.5158 303.631 75.4311C303.49 75.3465 303.297 75.2773 303.203 75.2773C303.109 75.2773 303.147 75.3465 303.289 75.4311ZM311.932 75.6842C311.593 75.9243 311.593 75.9299 311.921 76.1555C312.408 76.4897 312.531 76.4397 312.531 75.9075C312.531 75.3726 312.426 75.3335 311.932 75.6842ZM315.513 76.1877C315.411 76.253 315.361 76.5964 315.401 76.9659C315.462 77.5196 315.546 77.6442 315.916 77.7306C316.269 77.8125 316.458 77.7358 316.841 77.3556C317.106 77.0926 317.323 76.8367 317.323 76.7871C317.323 76.6393 316.232 76.0674 315.954 76.0693C315.812 76.0702 315.614 76.1236 315.513 76.1877ZM309.655 76.7331C309.378 76.9908 309.395 77.3365 309.687 77.3365C309.817 77.3365 309.96 77.1579 310.005 76.9396C310.094 76.5067 309.975 76.4364 309.655 76.7331ZM310.761 76.8818C310.587 77.4835 310.626 77.6322 311.007 77.8213C311.347 77.99 311.36 77.9713 311.244 77.4696C311.054 76.6426 310.888 76.4411 310.761 76.8818ZM311.506 76.9737C311.51 77.3818 311.776 77.7128 311.998 77.5856C312.298 77.4138 312.221 77.0462 311.846 76.8602C311.563 76.7196 311.504 76.7393 311.506 76.9737ZM314.661 76.874C314.598 76.9689 314.631 77.1261 314.736 77.2233C314.876 77.353 314.927 77.3071 314.927 77.0507C314.927 76.6672 314.838 76.6082 314.661 76.874ZM307.225 77.0189C307.366 77.1036 307.559 77.1728 307.653 77.1728C307.747 77.1728 307.708 77.1036 307.567 77.0189C307.426 76.9343 307.234 76.8651 307.139 76.8651C307.045 76.8651 307.084 76.9343 307.225 77.0189ZM318.292 77.2174C318.366 77.3267 318.467 77.7347 318.516 78.1242C318.598 78.7696 318.664 78.8528 319.253 79.0605C319.866 79.2765 319.922 79.269 320.323 78.92C320.555 78.7173 320.746 78.484 320.746 78.4016C320.746 78.3192 320.447 77.9745 320.081 77.6353C319.55 77.1428 319.29 77.0189 318.788 77.0189C318.327 77.0189 318.194 77.0721 318.292 77.2174ZM271.027 78.2533C270.18 78.8341 266.753 81.1744 263.411 83.4535C252.585 90.8374 252.115 91.1699 252.115 91.442C252.114 91.7658 251.788 94.9927 250.991 102.554C250.657 105.726 250.407 108.417 250.436 108.533C250.468 108.66 251.994 107.66 254.254 106.031C257.153 103.942 267.996 96.1875 271.176 93.929C271.616 93.6164 271.635 93.5178 272.417 87.4984C273.145 81.9008 273.242 81.3654 273.574 81.1485C273.773 81.0183 274.283 80.6107 274.707 80.243L275.477 79.5743L274.198 78.376C273.494 77.7169 272.839 77.182 272.743 77.1874C272.646 77.1926 271.874 77.6723 271.027 78.2533ZM312.548 77.6021C312.444 77.8136 312.359 78.0118 312.359 78.0428C312.359 78.1071 313.538 78.7655 313.653 78.7655C313.695 78.7655 313.729 78.4954 313.729 78.1652C313.729 77.6488 313.659 77.5407 313.233 77.3913C312.786 77.2349 312.718 77.2557 312.548 77.6021ZM317.246 77.5805L316.795 78.0326L317.187 78.2347C317.795 78.5477 318.008 78.4897 318.005 78.0113C318 77.2136 317.753 77.0734 317.246 77.5805ZM307.744 78.2388C307.546 78.4732 307.405 78.7658 307.432 78.8891C307.474 79.0774 309.432 79.9562 309.545 79.8371C309.565 79.8154 309.635 79.4352 309.699 78.9924L309.816 78.1872L309.142 78C308.219 77.7433 308.155 77.7543 307.744 78.2388ZM314.173 77.9297C314.008 78.0832 314.056 78.6067 314.236 78.6067C314.327 78.6067 314.479 78.471 314.575 78.3051C314.705 78.0804 314.689 77.9818 314.512 77.9191C314.382 77.8727 314.23 77.8775 314.173 77.9297ZM293.206 79.7579C293.091 80.6529 292.962 81.5283 292.919 81.7029C292.858 81.9518 293.027 82.115 293.701 82.4572C294.173 82.6972 294.626 82.8938 294.707 82.8938C294.787 82.8938 294.904 82.3759 294.966 81.7426C295.028 81.1094 295.124 80.263 295.18 79.8616L295.282 79.1315L294.405 78.631C293.923 78.3557 293.502 78.1304 293.471 78.1304C293.44 78.1304 293.321 78.8629 293.206 79.7579ZM314.822 78.6707L314.461 79.1977L315.393 79.4705C315.906 79.6206 316.349 79.7198 316.376 79.6911C316.404 79.6623 316.388 79.404 316.341 79.1171C316.28 78.7495 316.112 78.5267 315.771 78.3629C315.504 78.235 315.263 78.1334 315.235 78.1371C315.207 78.1409 315.021 78.381 314.822 78.6707ZM299.142 79.2816C299.1 79.7582 299.148 80.188 299.253 80.2855C299.355 80.3792 299.989 80.6853 300.662 80.9659L301.887 81.4759L302.852 80.8489C303.383 80.504 303.745 80.1806 303.657 80.1302C303.358 79.9584 299.493 78.448 299.354 78.448C299.277 78.448 299.182 78.8232 299.142 79.2816ZM310.572 78.8154C310.278 80.1442 310.272 80.1337 311.557 80.6601C312.211 80.9279 312.972 81.1472 313.247 81.1472C314.146 81.1472 316.98 80.7817 316.98 80.666C316.98 80.6039 316.525 80.5053 315.968 80.4468C315.408 80.3881 314.777 80.2118 314.556 80.0524C314.336 79.894 313.848 79.6731 313.472 79.5615C313.095 79.4497 312.306 79.1582 311.718 78.9133L310.649 78.4683L310.572 78.8154ZM321.373 78.5539C321.311 78.612 321.259 78.9265 321.259 79.2528C321.259 79.769 321.326 79.8675 321.773 80.0119C322.177 80.1428 322.286 80.1328 322.286 79.9648C322.286 79.8474 322.477 79.5832 322.711 79.3776C323.259 78.8954 323.25 78.8316 322.603 78.6223C321.99 78.4241 321.54 78.3991 321.373 78.5539ZM316.809 79.1625C316.809 79.6031 317.162 79.6918 317.484 79.3324C317.646 79.151 317.618 79.071 317.345 78.9354C316.86 78.6947 316.809 78.7165 316.809 79.1625ZM320.588 79.3344C320.596 79.5194 320.637 79.557 320.691 79.4305C320.741 79.3158 320.735 79.1788 320.678 79.1261C320.621 79.0734 320.581 79.1671 320.588 79.3344ZM323.201 79.4751C322.742 79.7736 322.584 80.3035 322.918 80.4224C323.701 80.7012 324.115 80.3433 323.826 79.6374C323.635 79.172 323.658 79.178 323.201 79.4751ZM324.313 79.9564C324.369 80.6145 324.411 80.6709 324.841 80.6709C325.351 80.6709 326.158 80.007 325.978 79.7358C325.875 79.5824 324.811 79.2447 324.424 79.2428C324.325 79.2422 324.278 79.5445 324.313 79.9564ZM305.398 79.6996L305.025 79.9881L305.618 80.2501C306.446 80.6166 306.54 80.5866 306.54 79.9564C306.54 79.4843 306.482 79.4014 306.155 79.4059C305.943 79.4089 305.603 79.541 305.398 79.6996ZM318.047 79.9084C317.798 80.5202 317.958 80.6648 318.888 80.6685C319.476 80.6707 319.719 80.4797 319.719 80.0146C319.719 79.8713 318.703 79.4006 318.393 79.4006C318.316 79.4006 318.161 79.6291 318.047 79.9084ZM295.778 81.4067C295.666 82.4225 295.597 83.2715 295.624 83.2931C295.897 83.5149 297.812 84.2906 297.867 84.2018C297.907 84.1374 297.994 83.2892 298.06 82.317L298.18 80.5491L297.195 80.0543C296.654 79.782 296.159 79.5594 296.095 79.5594C296.031 79.5594 295.888 80.3906 295.778 81.4067ZM317.408 79.877C317.35 79.9643 317.384 80.0358 317.484 80.0358C317.583 80.0358 317.665 79.9643 317.665 79.877C317.665 79.7896 317.631 79.7182 317.59 79.7182C317.548 79.7182 317.467 79.7896 317.408 79.877ZM307.292 80.1036C307.101 80.5648 307.31 81.0612 307.756 81.206C308.112 81.3219 308.311 81.275 308.755 80.971L309.309 80.5915L308.481 80.2439C307.48 79.8238 307.411 79.8157 307.292 80.1036ZM320.163 80.1526C319.938 80.3616 320.081 80.6709 320.403 80.6709C320.592 80.6709 320.746 80.5713 320.746 80.4497C320.746 80.2103 320.33 79.998 320.163 80.1526ZM326.907 80.1256C326.907 80.175 326.987 80.3536 327.084 80.5226C327.295 80.8878 328.325 80.973 328.176 80.6129C328.042 80.2898 326.907 79.8538 326.907 80.1256ZM275.394 80.6137C275.099 80.8441 274.92 81.0897 274.996 81.1593C275.219 81.3627 277.759 82.2322 277.859 82.1393C277.968 82.038 276.275 80.1945 276.072 80.1945C275.994 80.1945 275.689 80.3832 275.394 80.6137ZM326.137 80.5121C326.079 80.5994 326.194 80.6709 326.394 80.6709C326.593 80.6709 326.709 80.5994 326.65 80.5121C326.592 80.4248 326.477 80.3533 326.394 80.3533C326.311 80.3533 326.195 80.4248 326.137 80.5121ZM328.619 80.5859C328.619 80.7238 328.767 80.8297 328.961 80.8297C329.149 80.8297 329.303 80.7965 329.303 80.7558C329.303 80.7153 329.149 80.6056 328.961 80.5121C328.688 80.3765 328.619 80.3914 328.619 80.5859ZM304.257 80.9797C304.201 81.2414 304.102 81.934 304.038 82.5186C303.94 83.3963 303.962 83.5673 304.161 83.4991C304.293 83.4537 304.805 83.2931 305.3 83.1423C305.94 82.947 306.198 82.7865 306.198 82.5834C306.198 82.4267 306.245 82.0805 306.302 81.8143C306.397 81.3743 306.347 81.302 305.746 81.021C304.531 80.4519 304.372 80.4475 304.257 80.9797ZM298.948 81.2723C298.903 81.4219 298.815 82.0337 298.751 82.632L298.637 83.7199L299.75 82.8701C300.363 82.4029 300.871 81.9818 300.878 81.9345C300.886 81.8871 300.473 81.6577 299.961 81.4244C299.122 81.0427 299.021 81.0277 298.948 81.2723ZM310.233 81.2522C310.051 81.6933 310.132 81.7609 310.671 81.6174C311.407 81.4216 311.428 81.3679 310.841 81.178C310.431 81.0456 310.313 81.0601 310.233 81.2522ZM301.423 82.6023L299.649 83.8986L300.461 84.2814C301.116 84.5905 301.36 84.6335 301.724 84.5045C301.973 84.4167 302.365 84.3576 302.596 84.3735C302.961 84.3984 303.031 84.3184 303.13 83.7671C303.365 82.4538 303.458 81.306 303.33 81.306C303.257 81.306 302.399 81.8894 301.423 82.6023ZM316.693 81.5264C315.64 81.6236 314.738 81.742 314.688 81.7896C314.638 81.8374 316.02 82.4381 317.759 83.1245C319.498 83.8109 320.95 84.3435 320.987 84.308C321.024 84.2725 321.166 83.5824 321.303 82.7747L321.552 81.306L320.079 81.3279C319.269 81.34 317.745 81.4292 316.693 81.5264ZM322.209 81.6633C321.928 82.8684 321.761 84.5345 321.908 84.671C321.999 84.7552 323.712 85.4587 325.716 86.2344L329.358 87.6448L330.846 86.5438C332.718 85.1591 332.87 84.9979 332.446 84.8522C332.271 84.7919 330.167 83.9694 327.772 83.0243C323.2 81.2209 322.36 81.0154 322.209 81.6633ZM327.805 82.3165C329.193 82.8805 331.042 83.6104 331.913 83.9384C332.784 84.2666 333.591 84.6132 333.706 84.7088C333.919 84.8847 333.834 85.4905 332.75 91.5473C332.562 92.5952 332.357 93.8507 332.295 94.3372L332.181 95.2218L328.303 98.2248C326.17 99.8764 322.817 102.511 320.851 104.079L317.277 106.93L316.743 106.645C316.091 106.297 308.407 102.999 304.315 101.312C302.668 100.633 299.88 99.4618 298.12 98.7099C296.36 97.958 294.866 97.3428 294.801 97.3428C294.736 97.3428 294.723 98.0751 294.773 98.9703C295.094 104.759 300.442 111.127 308.925 115.822C317.053 120.321 325.095 122.717 335.122 123.627C349.717 124.952 363.206 120.817 367.774 113.618C369.95 110.189 370.237 106.678 368.661 102.785C367.805 100.673 367.213 99.6567 365.827 97.929C361.653 92.7228 354.916 88.3311 346.589 85.3881C340.094 83.0924 334.248 81.9194 326.65 81.387L325.281 81.2911L327.805 82.3165ZM283.364 81.6734C283.129 81.8328 282.978 82.4441 282.688 84.4106L282.315 86.9427L279.894 88.6099C277.67 90.1415 277.463 90.3264 277.356 90.8831C277.292 91.2166 277.268 91.5151 277.301 91.5465C277.348 91.5894 282.56 88.0456 282.86 87.7674C282.935 87.6978 283.771 81.5648 283.713 81.5108C283.688 81.4873 283.531 81.5605 283.364 81.6734ZM308.647 81.8597L308.166 82.2547L308.709 82.0869C309.007 81.9945 309.294 81.8168 309.345 81.6918C309.488 81.3462 309.181 81.42 308.647 81.8597ZM273.943 81.8055C273.899 81.9238 273.586 84.164 273.247 86.7839C272.91 89.4038 272.587 91.8607 272.531 92.2437C272.409 93.0741 272.238 93.1424 274.843 91.3215C276.409 90.2264 276.772 89.8957 276.844 89.4955C276.893 89.2267 277.088 87.7922 277.278 86.3076C277.468 84.823 277.66 83.4567 277.703 83.2712C277.774 82.9745 277.594 82.8668 276.202 82.3706C275.333 82.0607 274.487 81.7584 274.323 81.6988C274.14 81.6323 273.994 81.6734 273.943 81.8055ZM307.054 81.8711C307.054 82.0072 307.132 82.0737 307.228 82.0189C307.323 81.964 307.357 81.8527 307.303 81.7714C307.157 81.5512 307.054 81.5921 307.054 81.8711ZM284.462 81.9903C284.462 82.1193 284.273 83.5364 284.041 85.1394C283.638 87.9286 283.599 88.0694 283.142 88.406C282.88 88.5996 280.663 90.1675 278.215 91.8901C275.768 93.6129 269.606 98.0328 264.523 101.712C259.44 105.392 253.202 109.903 250.66 111.736C233.96 123.783 228.686 127.59 228.181 127.962L227.609 128.384L230.833 129.672L234.056 130.96L235.512 129.829C236.313 129.207 237.1 128.604 237.26 128.488C237.513 128.306 238.169 128.562 242.254 130.435C244.841 131.621 247 132.592 247.051 132.592C247.103 132.592 248.514 131.534 250.186 130.241C253.184 127.923 261.385 121.686 267.817 116.831L271.111 114.345L272.524 114.89C273.301 115.189 277.335 116.713 281.489 118.276L289.041 121.119L290.491 119.813L291.94 118.506L292.055 117.473L292.169 116.439L289.3 115.364C287.722 114.773 284.351 113.49 281.809 112.512C279.268 111.535 277.054 110.689 276.889 110.633C276.154 110.384 276.168 110.371 284.633 103.927L289.169 100.475L289.382 99.3455C289.499 98.7243 290.02 95.5009 290.54 92.1824C291.059 88.8639 291.529 85.8974 291.583 85.5902L291.682 85.0318L288.212 83.4467C286.303 82.575 284.678 81.8379 284.602 81.8089C284.525 81.7796 284.462 81.8614 284.462 81.9903ZM311.353 82.1861C310.752 82.3071 310.236 82.4291 310.206 82.4572C310.076 82.5778 309.834 84.4113 309.936 84.5C310.121 84.6602 320.24 88.6573 320.293 88.5913C320.336 88.5387 320.704 86.2079 320.798 85.3895C320.825 85.1644 320.029 84.7849 316.895 83.5262C314.73 82.6571 312.843 81.9505 312.702 81.956C312.561 81.9618 311.954 82.0653 311.353 82.1861ZM281.361 83.0931C280.176 83.9294 280.218 83.9232 279.411 83.3854C279.001 83.1126 278.622 82.9567 278.567 83.0386C278.441 83.228 277.606 89.1296 277.694 89.2112C277.73 89.2444 278.632 88.6621 279.699 87.9171L281.638 86.5627L281.912 84.6091C282.062 83.5348 282.168 82.635 282.147 82.6097C282.127 82.5845 281.773 82.802 281.361 83.0931ZM307.949 83.0345C307.453 83.1934 307.005 83.3627 306.953 83.4106C306.823 83.5313 306.499 85.7664 306.598 85.8585C306.643 85.8997 307.225 85.5962 307.893 85.1842C308.962 84.5249 309.108 84.3759 309.11 83.9422C309.111 83.6712 309.159 83.2887 309.215 83.0923C309.342 82.6536 309.163 82.6453 307.949 83.0345ZM292.675 83.2511C292.674 83.4475 292.631 83.8584 292.578 84.164C292.485 84.7037 292.51 84.7333 293.43 85.1879C293.952 85.4452 294.408 85.6239 294.445 85.5848C294.482 85.5457 294.562 85.1043 294.623 84.6039L294.733 83.694L293.882 83.2939C292.837 82.8025 292.678 82.7969 292.675 83.2511ZM304.786 84.0465C303.453 84.5043 303.439 84.8857 304.736 85.4757C305.25 85.7096 305.704 85.8495 305.744 85.7866C305.9 85.5421 306.052 83.6883 305.915 83.6982C305.836 83.704 305.327 83.8608 304.786 84.0465ZM295.34 84.9911C295.276 85.5153 295.263 85.9806 295.311 86.0256C295.36 86.0705 295.725 85.8485 296.123 85.5326C296.521 85.2164 296.91 84.9579 296.987 84.9579C297.392 84.9579 297.026 84.6439 296.291 84.3606L295.456 84.0383L295.34 84.9911ZM298.733 84.6031C298.524 84.7306 298.225 86.8633 298.416 86.8633C298.48 86.8633 299.034 86.4937 299.646 86.0418L300.759 85.2204L300.013 84.8582C299.198 84.4629 299.021 84.4275 298.733 84.6031ZM300.873 86.0356C300.178 86.5411 299.353 87.1215 299.039 87.3253C298.726 87.5294 298.534 87.7494 298.612 87.8144C298.689 87.8793 301.372 88.9749 304.572 90.2488C307.773 91.5225 312.229 93.3153 314.475 94.2326L318.559 95.9004L321.621 93.5794C323.304 92.3028 324.681 91.2162 324.68 91.1646C324.679 91.1132 322.889 90.3793 320.701 89.534C318.514 88.6885 315.091 87.3372 313.095 86.5313L309.467 85.0656L307.895 85.9902L306.323 86.9147L304.376 86.0157C303.305 85.5213 302.363 85.1167 302.283 85.1167C302.203 85.1167 301.568 85.5302 300.873 86.0356ZM296.996 85.8757C296.595 86.2006 296.267 86.5145 296.269 86.573C296.272 86.6913 297.46 87.0865 297.547 86.9982C297.627 86.9171 297.855 85.2747 297.785 85.2803C297.753 85.2828 297.398 85.5508 296.996 85.8757ZM292.333 85.7121C292.331 85.8649 292.285 86.1455 292.23 86.3352C292.147 86.624 292.28 86.7596 293.042 87.1634L293.953 87.6462L294.256 87.0689C294.422 86.7514 294.54 86.4797 294.516 86.4652C294.209 86.2726 292.522 85.4343 292.443 85.4343C292.383 85.4343 292.334 85.5594 292.333 85.7121ZM321.546 85.7845C321.396 86.3535 321.046 88.9432 321.113 88.9876C321.224 89.0605 325.107 90.5035 325.316 90.5494C325.522 90.5946 328.619 88.339 328.619 88.144C328.619 88.0684 323.961 86.2471 321.773 85.467C321.701 85.4414 321.599 85.5843 321.546 85.7845ZM331.554 86.882C330.863 87.4138 330.362 87.9077 330.442 87.9798C330.621 88.1419 332.408 88.7991 332.482 88.7302C332.592 88.6281 333.005 85.9108 332.91 85.913C332.856 85.9143 332.246 86.3504 331.554 86.882ZM70.0984 87.5397C68.4982 88.2606 60.9698 91.7432 53.3686 95.2793C44.2116 99.539 39.5492 101.789 39.5509 101.947C39.5605 102.811 39.7637 102.73 50.5874 97.5465C67.8475 89.281 73.0935 86.6948 73.0935 86.4516C73.0935 86.3287 73.0743 86.2283 73.0507 86.2286C73.0271 86.229 71.6986 86.819 70.0984 87.5397ZM10.876 87.1351C10.9425 87.4659 11.0095 87.7444 11.0245 87.754C11.1157 87.812 19.1705 92.103 25.5997 95.5189C29.7415 97.7194 34.3921 100.209 35.9344 101.051C37.4766 101.893 38.7665 102.583 38.8011 102.583C38.8355 102.583 38.8593 102.35 38.8536 102.066C38.8437 101.556 38.7734 101.513 32.9062 98.4113C23.0171 93.183 12.9992 87.8338 11.8448 87.165L10.7548 86.5337L10.876 87.1351ZM295.048 87.4984C295.034 87.5857 295.014 87.7298 295.005 87.8185C294.996 87.9073 295.212 88.1161 295.485 88.2825C295.939 88.5589 296.017 88.564 296.384 88.3411C296.953 87.9949 296.891 87.8793 295.984 87.5927C295.038 87.2936 295.08 87.2979 295.048 87.4984ZM291.858 88.729C291.755 89.4058 291.726 90.0108 291.792 90.0737C291.859 90.1364 292.276 90.3582 292.72 90.5664C293.653 91.0048 293.618 91.043 293.795 89.3974L293.908 88.359L293.055 87.9287C292.587 87.6921 292.168 87.4984 292.124 87.4984C292.081 87.4984 291.961 88.0521 291.858 88.729ZM296.106 89.4959C295.236 90.1732 294.56 90.8215 294.56 90.9787C294.56 91.1324 294.772 91.3499 295.031 91.462C297.525 92.5422 305.415 95.7404 305.467 95.6921C305.589 95.5786 306.138 91.6108 306.039 91.5562C305.849 91.452 297.806 88.2923 297.729 88.2923C297.687 88.2923 296.957 88.8339 296.106 89.4959ZM327.885 89.6377C327.058 90.2877 326.38 90.8682 326.377 90.9277C326.375 90.9873 326.94 91.2647 327.633 91.5441L328.892 92.0524L330.543 90.7677L332.193 89.4832L331.152 89.044C329.481 88.339 329.554 88.3257 327.885 89.6377ZM294.696 89.2388C294.632 89.6402 294.662 89.6816 294.924 89.5518C295.397 89.3171 295.454 89.1161 295.097 88.9392C294.813 88.7982 294.759 88.8385 294.696 89.2388ZM69.0161 89.4514C68.569 89.6972 68.4675 89.8398 68.5421 90.1162C68.5945 90.3098 68.9111 91.8899 69.2457 93.6276C70.9711 102.589 71.9045 107.193 72.0497 107.455C72.1251 107.592 72.267 107.565 72.5611 107.359L72.968 107.074L72.4291 104.074C71.4303 98.5136 69.8268 89.9627 69.7054 89.549L69.5849 89.1386L69.0161 89.4514ZM63.7659 91.9681C57.9794 94.7632 46.9444 100.031 44.6808 101.078C43.5994 101.578 42.6908 102.006 42.6617 102.03C42.5693 102.103 46.9767 121.594 47.1147 121.722C47.1467 121.752 48.4803 121.021 50.0781 120.098C54.1648 117.737 59.0851 114.948 65.6485 111.271C68.7549 109.531 71.3108 108.095 71.3284 108.081C71.3459 108.066 71.1739 107.127 70.9461 105.993C70.7183 104.86 69.9428 100.86 69.223 97.1046C68.5029 93.3494 67.8664 90.2297 67.8081 90.1718C67.7499 90.1138 65.9309 90.9222 63.7659 91.9681ZM331.001 91.2391C330.397 91.7239 329.88 92.1772 329.854 92.2466C329.81 92.3612 331.703 93.1195 331.784 93.0193C331.846 92.9415 332.191 90.4419 332.145 90.3993C332.12 90.3765 331.605 90.7544 331.001 91.2391ZM15.0741 90.7532C15.0741 90.818 15.5305 92.4166 16.0885 94.3055C16.6464 96.1943 17.4989 99.1687 17.9831 100.915C18.9778 104.504 19.9763 107.978 20.2236 108.712C20.3148 108.983 20.564 109.278 20.7773 109.368C21.1492 109.525 21.1208 109.372 20.0833 105.621C18.4156 99.5898 16.1013 91.5727 15.956 91.3226C15.7996 91.0537 15.0741 90.5853 15.0741 90.7532ZM291.476 90.9519C291.475 91.0174 291.36 91.7497 291.223 92.5794C290.874 94.6803 290.849 94.5833 291.839 95.0484C292.319 95.2742 292.747 95.426 292.79 95.386C292.884 95.2985 293.355 92.4887 293.359 91.9866C293.361 91.7197 293.152 91.5332 292.512 91.2324C291.593 90.8006 291.481 90.7701 291.476 90.9519ZM273.252 93.3098C265.288 98.9568 263.344 100.351 242.36 115.462C236.476 119.698 230.334 124.112 228.71 125.271C227.087 126.429 225.758 127.437 225.758 127.511C225.758 127.585 226.026 127.727 226.354 127.828L226.95 128.01L230.676 125.348C232.725 123.883 237.559 120.398 241.418 117.603C245.278 114.807 251.362 110.406 254.939 107.823C258.516 105.24 262.521 102.339 263.839 101.377C270.033 96.8555 271.207 96.0038 273.765 94.1767C276.328 92.3461 276.51 92.1818 276.601 91.6064C276.654 91.2682 276.654 90.9944 276.601 90.9978C276.547 91.0011 275.04 92.0416 273.252 93.3098ZM322.341 93.871C320.569 95.1853 319.073 96.3434 319.015 96.4444C318.891 96.6633 318.303 100.214 318.381 100.276C318.411 100.3 320.65 98.5644 323.356 96.4195L328.277 92.5193L327.721 92.2977C327.414 92.1757 326.803 91.9422 326.363 91.7786L325.562 91.4814L322.341 93.871ZM251.036 91.8617C250.776 92.0381 250.663 92.6772 250.313 95.9374C249.666 101.957 248.888 109.803 248.933 109.845C248.955 109.866 249.099 109.794 249.252 109.686C249.482 109.524 249.693 107.933 250.458 100.598C250.969 95.7073 251.377 91.694 251.365 91.6794C251.354 91.6646 251.206 91.7467 251.036 91.8617ZM16.9567 91.908C16.9567 91.9754 17.679 94.5655 18.5616 97.6638C19.4442 100.762 20.5686 104.762 21.0603 106.552C21.5521 108.342 21.9774 109.878 22.0054 109.966C22.0617 110.141 27.0389 112.975 27.1257 112.882C27.1553 112.85 26.3767 110.045 25.3955 106.649C24.2117 102.551 23.6687 100.42 23.7818 100.315C23.9564 100.153 26.5819 101.487 29.149 103.042L30.4136 103.808L31.7239 108.474C32.4446 111.041 33.247 113.951 33.5071 114.94L33.98 116.738L35.9511 117.866C37.0354 118.487 39.0007 119.622 40.3185 120.39C41.6364 121.158 42.7375 121.725 42.7656 121.649C42.8159 121.513 42.067 118.288 39.6707 108.324L38.4359 103.189L36.0398 101.873C32.8164 100.103 17.154 91.7855 17.044 91.7855C16.9961 91.7855 16.9567 91.8406 16.9567 91.908ZM306.552 93.7934C306.435 94.8104 306.3 95.7372 306.252 95.8528C306.2 95.9801 306.391 96.1586 306.738 96.3051C310.717 97.9863 317.398 100.66 317.465 100.598C317.559 100.511 318.209 96.5187 318.137 96.4665C317.991 96.3601 307.028 91.9442 306.91 91.9442C306.83 91.9442 306.669 92.7764 306.552 93.7934ZM294.338 92.2113C294.29 92.2828 294.195 92.7632 294.126 93.279L294 94.2169L294.955 93.5171C295.48 93.1324 295.914 92.771 295.92 92.714C295.925 92.657 295.717 92.5394 295.458 92.4523C295.2 92.3655 294.861 92.2464 294.706 92.1878C294.55 92.1292 294.385 92.1399 294.338 92.2113ZM247.749 94.1354C240.985 98.767 227.919 107.67 224.389 110.052C221.43 112.048 212.1 118.413 211.639 118.749C211.227 119.05 211.21 119.131 211.208 120.865C211.207 121.857 211.093 125.951 210.956 129.963C210.818 133.974 210.724 137.274 210.747 137.296C210.77 137.317 212.802 135.892 215.263 134.13C218.72 131.653 219.75 130.835 219.795 130.528C219.843 130.205 219.95 130.13 220.367 130.129C220.745 130.128 221.299 129.82 222.464 128.966C223.935 127.886 224.299 127.511 223.876 127.511C223.781 127.511 223.704 127.396 223.704 127.255C223.704 127.05 223.82 127.019 224.293 127.102C224.85 127.199 225.06 127.076 228.272 124.766C241.582 115.194 245.036 112.7 246.484 111.616L248.126 110.387L248.24 108.985C248.303 108.215 248.704 104.309 249.131 100.306C249.559 96.3028 249.885 92.9606 249.855 92.8788C249.826 92.7971 248.878 93.3625 247.749 94.1354ZM324.324 96.5154C321.821 98.4987 319.4 100.42 318.944 100.784C318.118 101.445 318.115 101.452 317.91 102.849C317.797 103.619 317.715 104.26 317.728 104.272C317.793 104.336 331.267 93.8425 331.24 93.7486C331.204 93.6197 329.333 92.8939 329.06 92.9031C328.958 92.9066 326.827 94.532 324.324 96.5154ZM153.467 93.4923C153.528 93.7326 153.628 93.9811 153.689 94.0447C153.75 94.1084 155.993 94.871 158.673 95.7394C161.353 96.6078 166.049 98.1462 169.108 99.1581C172.167 100.17 176.014 101.438 177.657 101.977C180.993 103.071 179.31 102.15 194.866 111.393C197.784 113.127 202.082 115.675 204.417 117.056L208.663 119.565L208.611 118.981C208.558 118.402 208.513 118.37 204.193 115.807C201.793 114.383 198.404 112.383 196.663 111.361C194.921 110.34 190.994 108.032 187.934 106.233C179.154 101.068 180.505 101.678 171.761 98.9364C163.815 96.4455 158.581 94.7686 155.36 93.6813C154.341 93.3372 153.473 93.0557 153.431 93.0557C153.39 93.0557 153.406 93.2521 153.467 93.4923ZM295.457 93.9579C294.773 94.4495 294.237 94.8733 294.266 94.8996C294.363 94.99 304.71 99.4069 304.824 99.4069C304.935 99.4069 305.403 96.5478 305.306 96.4668C305.162 96.3478 297.01 93.0563 296.868 93.06C296.775 93.0622 296.14 93.4663 295.457 93.9579ZM13.0994 94.6548C7.44974 97.8486 4.02163 101.546 2.91498 105.638C2.62506 106.71 2.79159 109.25 3.23538 110.523C4.2722 113.498 6.7275 116.133 10.7175 118.553C12.0742 119.375 13.2621 120.048 13.3571 120.048C13.587 120.048 19.5257 116.847 19.5178 116.728C19.5145 116.676 18.6865 116.176 17.6779 115.615C14.3588 113.769 8.66062 110.481 8.41399 110.269C8.22864 110.11 8.2182 110.009 8.36949 109.84C8.47817 109.719 10.7505 108.483 13.4191 107.094L18.2711 104.568L17.698 102.583C17.3825 101.491 16.6902 99.0436 16.1592 97.1443C15.6139 95.1934 15.109 93.6908 14.9989 93.6908C14.8918 93.6908 14.0371 94.1246 13.0994 94.6548ZM327.832 97.3155C325.846 98.8586 322.765 101.252 320.986 102.633C318.193 104.802 317.148 105.772 317.628 105.753C317.695 105.75 318.675 104.993 319.804 104.07C320.934 103.147 324.034 100.708 326.693 98.6502C329.352 96.5921 331.528 94.8129 331.528 94.6964C331.528 94.58 331.509 94.4903 331.485 94.4971C331.462 94.5038 329.818 95.7721 327.832 97.3155ZM290.721 95.7802C290.633 96.1556 290.11 99.4882 290.11 99.6776C290.11 99.7338 290.303 99.6121 290.538 99.4069C290.773 99.2018 290.966 98.9393 290.966 98.8235C290.966 98.7078 291.116 98.613 291.299 98.613C291.95 98.613 292.469 97.9649 292.587 97.0063L292.696 96.1141L291.96 95.8377C291.554 95.6857 291.129 95.527 291.016 95.4849C290.901 95.4423 290.77 95.5732 290.721 95.7802ZM293.82 95.7007C293.568 95.9347 294.267 96.2881 298.803 98.2203C312.699 104.139 316.237 105.65 316.51 105.783C316.748 105.898 316.809 105.862 316.809 105.608C316.809 105.213 316.602 105.114 310.391 102.533C305.121 100.344 302.91 99.409 297.594 97.1243C293.69 95.4468 293.977 95.5549 293.82 95.7007ZM158.057 97.8588C158.116 98.754 158.28 102.309 158.421 105.758C158.563 109.208 158.753 112.994 158.843 114.173C158.933 115.352 159.008 116.366 159.009 116.426C159.009 116.486 159.992 117.03 161.192 117.635C163.466 118.782 185.003 129.527 193.325 133.668C195.961 134.979 200.343 137.168 203.063 138.533C205.782 139.898 208.046 140.979 208.094 140.935C208.141 140.891 208.243 138.692 208.321 136.049C208.399 133.405 208.547 128.849 208.65 125.923L208.838 120.604L208.274 120.166C207.768 119.772 207.7 119.756 207.603 120.007C207.544 120.161 207.445 122.93 207.383 126.161C207.206 135.42 207.07 138.784 206.872 138.784C206.699 138.784 203.384 137.165 197.604 134.256C196.004 133.451 191.999 131.452 188.704 129.814C185.41 128.175 181.097 126.029 179.12 125.045C177.143 124.06 172.83 121.918 169.536 120.284C166.241 118.65 162.828 116.957 161.95 116.521C161.073 116.084 160.324 115.645 160.287 115.546C160.25 115.446 160.099 112.756 159.951 109.569C159.804 106.381 159.61 102.344 159.521 100.598C159.432 98.8512 159.357 97.2578 159.356 97.0568C159.353 96.7913 159.19 96.6286 158.759 96.4614C158.433 96.3348 158.117 96.2313 158.058 96.2313C157.999 96.2313 157.998 96.9636 158.057 97.8588ZM293.362 96.6997C293.362 96.777 293.312 96.9606 293.252 97.1073C293.154 97.3437 293.183 97.3499 293.508 97.1614C293.941 96.9109 293.97 96.7754 293.619 96.6502C293.477 96.6 293.362 96.6222 293.362 96.6997ZM306.023 96.8325C306.021 96.8947 305.918 97.5738 305.793 98.3412C305.631 99.3431 305.62 99.7675 305.754 99.8461C306.158 100.083 316.883 104.472 316.936 104.423C317.03 104.336 317.384 101.474 317.308 101.414C317.239 101.359 308.205 97.5892 306.754 97.0095C306.354 96.8498 306.025 96.7701 306.023 96.8325ZM160.112 98.0301C160.167 98.6563 160.334 101.848 160.482 105.123C160.63 108.398 160.802 112.037 160.864 113.211L160.978 115.344L163.203 116.447C164.427 117.054 167.123 118.39 169.194 119.417C171.264 120.445 172.971 121.275 172.985 121.262C172.999 121.249 172.828 116.916 172.605 111.633C172.381 106.35 172.196 101.773 172.193 101.463L172.189 100.899L167.953 99.5066C165.623 98.7408 162.883 97.8391 161.864 97.5028L160.01 96.8915L160.112 98.0301ZM293.484 98.0503C293.316 98.1656 293.109 98.4828 293.025 98.7554C292.885 99.2086 292.916 99.2723 293.389 99.4995C293.674 99.636 293.948 99.7102 293.997 99.6641C294.047 99.6181 294.021 99.1889 293.939 98.7105C293.802 97.912 293.765 97.8578 293.484 98.0503ZM367.812 97.9739C367.812 98.063 367.582 98.0862 367.272 98.0285C366.837 97.9479 366.759 97.9718 366.874 98.1516C367.04 98.4126 368.348 100.247 368.443 100.351C368.478 100.391 368.744 100.203 369.033 99.9345C369.631 99.3804 369.605 99.0754 368.897 98.2946C368.487 97.8426 367.812 97.643 367.812 97.9739ZM290.833 100.179C290.011 100.858 289.933 100.984 289.836 101.789L289.731 102.662L290.551 102.943C291.001 103.097 291.423 103.169 291.487 103.102C291.552 103.034 291.701 102.302 291.819 101.474C291.937 100.647 292.067 99.8878 292.109 99.788C292.305 99.3124 291.635 99.5181 290.833 100.179ZM292.516 101.511C292.401 102.318 292.268 103.134 292.22 103.323C292.148 103.609 292.27 103.723 292.946 104C293.392 104.183 293.773 104.314 293.793 104.291C293.855 104.219 294.218 101.388 294.218 100.974C294.218 100.676 294.067 100.51 293.613 100.31C293.28 100.162 292.945 100.042 292.867 100.042C292.789 100.042 292.631 100.703 292.516 101.511ZM369.224 100.396C368.809 100.806 368.75 101.096 369.004 101.469C369.131 101.654 369.223 101.575 369.439 101.096C369.825 100.239 369.721 99.9025 369.224 100.396ZM172.883 101.59C172.888 101.83 173.066 106.416 173.277 111.78C173.595 119.847 173.704 121.557 173.909 121.672C174.045 121.749 175.851 122.659 177.922 123.694C190.021 129.743 193.158 131.291 193.214 131.239C193.249 131.208 193.22 126.654 193.15 121.119L193.023 111.057L191.121 109.935C190.074 109.318 187.986 108.08 186.48 107.183C180.413 103.569 180.416 103.57 176.568 102.318C174.6 101.678 172.963 101.153 172.931 101.153C172.899 101.153 172.878 101.35 172.883 101.59ZM24.6598 101.505C24.6605 101.617 25.1606 103.388 25.771 105.441C26.3817 107.493 27.1591 110.142 27.4988 111.328L28.1163 113.485L30.5213 114.821C33.0697 116.238 33.3187 116.362 33.1693 116.137C33.1176 116.06 32.3717 113.46 31.5119 110.361C30.652 107.262 29.9087 104.602 29.8601 104.451C29.8115 104.3 28.7946 103.614 27.6003 102.927C24.7835 101.307 24.6581 101.247 24.6598 101.505ZM285.232 104.347C283.161 105.929 280.592 107.894 279.522 108.714L277.578 110.205L278.153 110.426C286.61 113.67 292.335 115.792 292.335 115.682C292.335 115.647 292.643 113.31 293.019 110.489C293.395 107.669 293.704 105.284 293.704 105.189C293.704 105.037 291.411 104.001 289.53 103.303L288.865 103.057L288.966 102.264C289.022 101.828 289.051 101.471 289.032 101.471C289.013 101.471 287.303 102.765 285.232 104.347ZM41.1743 102.689C40.8919 102.828 40.6389 102.959 40.612 102.979C40.5852 103 41.0699 105.116 41.6889 107.682C43.0388 113.277 45.1935 122.462 45.1951 122.628C45.1971 122.844 45.665 122.753 46.0549 122.46L46.4379 122.172L46.0641 120.695C45.8586 119.883 45.198 116.994 44.5962 114.275C43.9943 111.555 43.2347 108.187 42.9082 106.79C42.5818 105.393 42.2258 103.839 42.1173 103.337C42.009 102.834 41.8679 102.427 41.8039 102.43C41.7401 102.434 41.4567 102.55 41.1743 102.689ZM294.576 104.258C294.463 105.127 293.816 109.803 293.139 114.65C291.703 124.935 291.643 126.033 292.403 128.146C293.518 131.25 295.484 134.068 298.496 136.878C300.613 138.852 302.106 139.954 304.871 141.58L306.626 142.613L306.838 141.215C306.954 140.446 307.358 137.994 307.735 135.768C308.27 132.612 310.523 118.975 310.699 117.837C310.72 117.701 309.847 117.111 308.509 116.356C302.118 112.754 297.728 108.596 295.423 103.965L294.782 102.678L294.576 104.258ZM39.5911 103.332C39.2814 103.435 39.3081 103.633 40.0457 106.705C40.4133 108.236 41.3925 112.34 42.2215 115.825C43.5974 121.608 44.0554 123.063 44.4008 122.744C44.5204 122.634 40.0207 103.416 39.846 103.29C39.8234 103.274 39.7089 103.293 39.5911 103.332ZM193.811 116.66C193.874 119.426 193.925 123.951 193.925 126.718V131.747L194.395 131.942C194.835 132.124 199.609 134.494 204.251 136.835C205.366 137.397 206.3 137.833 206.328 137.804C206.368 137.763 206.682 125.95 206.788 120.48L206.812 119.244L200.837 115.712C197.55 113.769 194.672 112.057 194.44 111.907C194.209 111.756 193.947 111.633 193.859 111.633C193.76 111.633 193.741 113.558 193.811 116.66ZM367.312 115.372C367.284 115.709 365.508 117.39 364.239 118.28C359.599 121.533 353.738 123.474 345.99 124.324C343.727 124.573 337.4 124.533 334.476 124.252C327.162 123.55 320.854 121.991 314.412 119.292L313.297 118.826L312.736 122.176C312.428 124.019 311.945 126.919 311.662 128.622C311.38 130.325 310.69 134.382 310.128 137.637C309.567 140.892 309.108 143.586 309.108 143.624C309.108 143.723 310.465 144.275 312.694 145.081C316.457 146.442 321.879 147.675 326.65 148.253C329.947 148.653 337.681 148.653 340.685 148.253C350.027 147.01 357.133 143.516 360.768 138.378C361.258 137.686 361.773 136.762 361.913 136.325C362.516 134.436 367.47 115.528 367.401 115.374C367.349 115.259 367.321 115.258 367.312 115.372ZM133.983 118.5C122.185 125.032 105.961 134.109 105.959 134.18C105.957 134.223 106.63 134.611 107.453 135.042C108.276 135.472 111.183 137.053 113.912 138.553C116.642 140.054 122.688 143.372 127.348 145.927C132.007 148.482 137.62 151.567 139.82 152.783C143.363 154.74 143.853 154.967 144.099 154.767C144.349 154.565 146.981 152.881 158.497 145.56C160.426 144.333 164.316 141.852 167.14 140.048C169.964 138.243 173.064 136.281 174.028 135.687C174.993 135.093 175.782 134.565 175.781 134.513C175.781 134.461 174.837 133.96 173.685 133.4C172.532 132.84 169.241 131.224 166.37 129.809C154.757 124.084 138.434 116.079 138.374 116.079C138.365 116.079 136.389 117.168 133.983 118.5ZM311.333 118.177C311.333 118.284 310.83 121.41 310.216 125.124C309.602 128.838 308.872 133.271 308.593 134.974C306.661 146.774 306.618 146.964 305.517 148.529L304.691 149.703L305.178 150.037L305.665 150.371L306.245 149.699C307.302 148.471 307.509 148.084 307.792 146.803C308.116 145.338 309.127 139.524 310.733 129.893C311.708 124.046 312.323 120.442 312.606 118.922C312.67 118.578 312.585 118.467 312.087 118.247C311.376 117.933 311.333 117.929 311.333 118.177ZM209.988 119.93L209.536 120.286L209.329 126.876C208.952 138.814 208.899 141.008 208.986 141.006C209.033 141.005 209.808 140.449 210.71 139.77C211.611 139.091 213.979 137.369 215.973 135.944L219.597 133.353V132.637V131.92L219.154 132.19C218.91 132.338 216.833 133.811 214.539 135.463C212.244 137.115 210.277 138.467 210.166 138.467C209.954 138.467 209.965 137.809 210.378 125.684C210.482 122.626 210.538 120 210.504 119.849C210.447 119.6 210.395 119.608 209.988 119.93ZM290.865 120.31C289.024 122.066 287.699 124.242 287.01 126.638C286.472 128.509 286.502 131.191 287.084 133.256C288.684 138.936 293.858 144.365 301.565 148.453C302.735 149.074 303.747 149.581 303.814 149.581C303.986 149.581 305.591 147.377 305.489 147.283C305.443 147.24 304.524 146.693 303.448 146.068C300.689 144.464 299.003 143.244 297.127 141.493C294.913 139.427 293.882 138.114 292.596 135.72C290.55 131.913 290.301 129.534 291.269 123.065C291.55 121.188 291.756 119.626 291.726 119.595C291.696 119.564 291.309 119.886 290.865 120.31ZM291.541 129.575C291.798 135.644 296.143 141.15 304.434 145.91C306.013 146.817 305.882 146.875 306.195 145.136C306.297 144.568 306.42 143.92 306.467 143.695C306.546 143.325 306.414 143.208 305.05 142.44C298.422 138.709 293.859 133.958 291.815 128.661L291.464 127.749L291.541 129.575ZM223.102 129.329L221.277 130.67L221.922 130.92C222.277 131.058 222.615 131.151 222.673 131.127C222.731 131.103 223.56 130.512 224.516 129.813L226.253 128.543L225.706 128.272C225.405 128.123 225.107 127.998 225.042 127.994C224.978 127.99 224.105 128.591 223.102 129.329ZM225.013 130.22C223.359 131.452 223.336 131.479 223.772 131.637C224.017 131.726 224.391 131.862 224.603 131.941C224.815 132.019 225.388 132.231 225.877 132.411L226.765 132.739L226.818 130.839C226.847 129.794 226.832 128.945 226.785 128.952C226.738 128.958 225.941 129.529 225.013 130.22ZM227.47 130.919V132.738L228.197 132.915C228.597 133.013 229.31 133.19 229.78 133.31C230.251 133.43 230.828 133.549 231.064 133.576C231.411 133.615 231.492 133.712 231.492 134.09C231.492 134.509 231.591 134.593 232.496 134.931C233.049 135.137 233.524 135.285 233.552 135.259C233.689 135.132 233.671 131.615 233.533 131.501C233.349 131.35 227.788 129.099 227.597 129.099C227.527 129.099 227.47 129.918 227.47 130.919ZM237.842 129.872C237.785 130.257 237.739 131.225 237.739 132.024V133.476L239.75 134.383L241.761 135.29L243.317 134.931C244.708 134.61 244.957 134.494 245.648 133.853L246.423 133.135L242.184 131.154L237.945 129.172L237.842 129.872ZM364.485 129.416C364.427 129.635 364.115 130.811 363.791 132.03C363.346 133.707 363.253 134.277 363.411 134.369C363.827 134.613 366.657 135.621 366.732 135.552C366.774 135.513 366.687 134.827 366.538 134.027C366.279 132.632 365.59 130.748 364.911 129.575C364.592 129.023 364.589 129.022 364.485 129.416ZM235.829 130.388C234.407 131.488 234.351 131.622 234.328 133.993L234.316 135.315L235.642 134.446L236.968 133.577L237.054 131.496C237.101 130.352 237.127 129.416 237.112 129.416C237.097 129.416 236.52 129.854 235.829 130.388ZM220.385 131.414C220.328 131.552 220.281 131.912 220.281 132.214C220.281 132.825 220.403 132.807 221.375 132.054L221.87 131.671L221.341 131.417C220.679 131.099 220.516 131.099 220.385 131.414ZM222.775 132.482C222.728 132.761 222.664 133.646 222.631 134.45L222.573 135.911L223.758 136.403C224.41 136.673 224.962 136.873 224.986 136.847C225.057 136.768 225.213 132.751 225.145 132.751C225.11 132.751 224.582 132.576 223.971 132.363L222.86 131.975L222.775 132.482ZM221.102 133.045C220.373 133.569 220.296 133.687 220.289 134.293C220.282 134.93 220.316 134.976 221.009 135.258L221.736 135.554L221.872 135.096C221.947 134.845 221.985 134.15 221.957 133.552L221.907 132.465L221.102 133.045ZM225.845 134.219C225.784 134.765 225.758 135.668 225.789 136.226C225.837 137.11 225.894 137.258 226.229 137.372L226.614 137.504V135.462C226.614 133.746 226.571 133.404 226.343 133.323C226.194 133.27 226.046 133.227 226.015 133.227C225.983 133.227 225.906 133.674 225.845 134.219ZM227.401 135.09C227.337 136.009 227.308 136.782 227.336 136.808C227.365 136.834 228.139 136.279 229.058 135.573C229.976 134.868 230.707 134.273 230.682 134.251C230.656 134.229 229.934 134.033 229.077 133.815L227.518 133.42L227.401 135.09ZM246.534 133.883L246.039 134.366L246.895 134.26C247.889 134.136 248.403 134.017 248.311 133.932C248.276 133.899 247.973 133.766 247.638 133.636C247.042 133.405 247.02 133.41 246.534 133.883ZM237.669 134.437C237.541 134.745 237.535 136.403 237.661 136.403C237.859 136.403 240.477 135.581 240.477 135.519C240.477 135.483 239.868 135.169 239.124 134.822C237.996 134.296 237.754 134.232 237.669 134.437ZM251.478 134.455C251.342 134.543 253.172 135.468 256.755 137.123C259.772 138.517 262.258 139.673 262.279 139.693C262.301 139.713 262.26 140.284 262.189 140.964C262.118 141.643 261.858 144.27 261.61 146.803L261.16 151.407L260.419 152.042C260.012 152.392 257.611 154.353 255.084 156.402C252.557 158.45 249.141 161.236 247.494 162.594C245.847 163.952 244.375 165.152 244.223 165.262C243.988 165.432 243.004 164.991 237.719 162.345C234.294 160.63 229.412 158.191 226.871 156.926C224.329 155.661 221.724 154.341 221.081 153.994C220.439 153.648 219.87 153.403 219.818 153.451C219.581 153.672 219.719 158.772 220.001 160.219C221.005 165.359 223.805 169.98 228.668 174.526C232.541 178.146 236.581 180.829 241.846 183.278C249.253 186.724 256.709 188.557 265.636 189.127C271.983 189.532 278.913 188.73 285.02 186.884C291.913 184.8 298.512 180.354 301.564 175.735C303.815 172.33 304.844 168.479 304.473 164.849C303.613 156.42 297.059 148.105 286.711 142.314C279.694 138.388 271.59 135.786 263.056 134.721C260.865 134.447 251.812 134.239 251.478 134.455ZM235.471 135.315L234.316 136.111V136.903C234.316 137.806 234.281 137.802 235.956 137.09L236.883 136.697V135.597C236.883 134.992 236.825 134.502 236.754 134.508C236.684 134.514 236.106 134.877 235.471 135.315ZM248.264 134.761C248.076 134.798 246.882 135.006 245.611 135.224C244.341 135.442 243.194 135.655 243.063 135.698C242.931 135.74 244.232 136.418 245.953 137.205C247.674 137.991 249.102 138.615 249.127 138.59C249.152 138.566 249.228 137.671 249.297 136.601L249.421 134.656L249.014 134.674C248.79 134.685 248.452 134.723 248.264 134.761ZM250.045 135.41C250.036 135.738 249.979 136.671 249.917 137.485L249.805 138.964L253.791 140.872L257.778 142.781L258.326 142.386C258.628 142.168 259.415 141.528 260.073 140.964L261.272 139.937L255.753 137.376C252.718 135.967 250.195 134.815 250.148 134.815C250.1 134.815 250.054 135.083 250.045 135.41ZM105.783 135.572V136.171L108.735 137.771C117.33 142.432 135.254 152.235 140.381 155.081C141.854 155.899 143.11 156.568 143.172 156.568C143.234 156.568 143.261 156.301 143.232 155.975C143.171 155.298 145.334 156.556 126.235 146.088C120.776 143.096 114.73 139.774 112.8 138.707C107.975 136.037 106.006 134.974 105.885 134.974C105.829 134.974 105.783 135.243 105.783 135.572ZM172.103 137.662C169.938 139.043 164.585 142.464 160.208 145.263C155.831 148.063 150.346 151.555 148.019 153.024C145.237 154.78 143.787 155.789 143.783 155.972C143.775 156.386 144.039 156.316 145.026 155.642C145.516 155.307 149.73 152.579 154.389 149.579C159.049 146.58 164.671 142.937 166.883 141.484C169.095 140.031 172.118 138.075 173.601 137.136C175.954 135.647 176.649 135.107 176.168 135.142C176.097 135.147 174.268 136.281 172.103 137.662ZM231.175 135.96C231.116 136.422 231.066 137.172 231.065 137.628C231.064 138.371 231.112 138.48 231.534 138.687C231.968 138.899 232.069 138.885 232.818 138.508L233.631 138.099V137.051V136.004L232.562 135.608C231.974 135.39 231.446 135.191 231.389 135.166C231.331 135.141 231.235 135.499 231.175 135.96ZM229.01 136.432C228.21 137.05 227.534 137.608 227.507 137.67C227.48 137.732 227.879 137.933 228.394 138.116C229.169 138.391 229.416 138.417 229.843 138.267C230.354 138.088 230.357 138.08 230.411 136.689C230.44 135.92 230.465 135.294 230.465 135.299C230.465 135.304 229.81 135.814 229.01 136.432ZM220.215 135.976C220.16 136.167 220.114 137.116 220.113 138.085L220.11 139.848L220.825 140.108C221.218 140.251 221.556 140.352 221.575 140.331C221.595 140.31 221.665 139.399 221.731 138.307L221.852 136.321L221.084 135.974L220.316 135.628L220.215 135.976ZM240.135 136.411C237.886 137.021 237.567 137.177 237.567 137.673C237.567 138.103 237.796 138.231 242.745 140.577C245.592 141.927 248.089 143.079 248.294 143.138C248.635 143.235 248.674 143.176 248.768 142.403C248.824 141.941 248.888 141.063 248.91 140.452L248.949 139.34L245.44 137.725C243.511 136.837 241.778 136.11 241.589 136.11C241.401 136.11 240.747 136.245 240.135 136.411ZM362.327 137.943C361.161 142.69 359.378 145.293 355.412 148.033C352.083 150.333 346.497 152.201 340.257 153.1C338.194 153.397 337.066 153.458 333.582 153.462C331.196 153.464 328.577 153.377 327.506 153.26C320.913 152.539 314.973 151.141 309.96 149.129C308.261 148.447 307.972 148.374 307.824 148.585C307.73 148.719 307.32 149.255 306.914 149.776C306.507 150.297 306.204 150.751 306.24 150.785C306.491 151.018 311.591 152.87 313.985 153.598C321.847 155.989 327.882 156.844 335.721 156.679C344.944 156.484 351.804 154.761 357.683 151.164C359.471 150.07 362.283 147.65 363.471 146.184C364.817 144.523 366.021 141.975 366.539 139.689C366.96 137.831 367.049 137.963 364.816 137.134C363.733 136.732 362.815 136.403 362.776 136.403C362.737 136.403 362.535 137.096 362.327 137.943ZM222.452 138.519C222.395 139.574 222.373 140.46 222.402 140.487C222.431 140.514 223.048 140.097 223.774 139.56C224.952 138.687 225.086 138.532 225.04 138.104C224.994 137.678 224.853 137.568 223.772 137.113L222.556 136.601L222.452 138.519ZM235.471 138.035L234.316 138.525V139.22C234.316 139.864 234.338 139.899 234.632 139.706C235.797 138.942 236.868 138.028 236.875 137.792C236.885 137.441 236.86 137.445 235.471 138.035ZM226.152 138.618C225.848 138.847 225.754 139.137 225.656 140.139L225.535 141.376L225.972 141.073C226.345 140.813 226.426 140.599 226.527 139.606C226.592 138.966 226.619 138.419 226.587 138.389C226.555 138.36 226.359 138.462 226.152 138.618ZM227.299 139.187C227.299 139.972 227.398 139.981 228.283 139.278C228.779 138.883 228.771 138.849 228.129 138.641C227.331 138.383 227.299 138.404 227.299 139.187ZM361.084 139.094C359.185 142.075 354.314 145.311 349.206 146.983C339.863 150.041 329.787 150.164 318.117 147.36C314.758 146.554 312.617 145.873 309.946 144.765L308.988 144.367L308.695 146.038C308.533 146.957 308.427 147.733 308.459 147.762C308.641 147.931 312.876 149.524 314.401 149.997C318.209 151.179 324.751 152.404 329.132 152.755C335.5 153.266 342.236 152.532 348.209 150.676C353.648 148.987 358.111 145.815 360.029 142.277C360.498 141.411 361.524 138.773 361.426 138.683C361.398 138.657 361.244 138.842 361.084 139.094ZM235.824 139.737C235.101 140.261 234.402 140.69 234.271 140.69C234.14 140.69 233.16 140.291 232.093 139.804C230.693 139.164 230.067 138.954 229.844 139.049C229.674 139.122 228.219 140.177 226.612 141.393L223.689 143.606L226.017 144.728C227.298 145.345 230.055 146.697 232.144 147.732C244.474 153.841 244.263 153.746 244.655 153.417C244.852 153.253 246.206 152.168 247.665 151.007C252.88 146.854 253.313 146.5 253.313 146.382C253.313 146.316 249.828 144.644 245.569 142.665C241.309 140.687 237.751 139.004 237.662 138.926C237.374 138.675 237.163 138.768 235.824 139.737ZM171.436 139.313L170.94 139.681L171.06 142.13C171.126 143.478 171.292 146.473 171.428 148.787C171.564 151.102 171.726 154.013 171.788 155.258C171.849 156.502 171.945 157.518 172.001 157.515C172.057 157.512 172.278 157.374 172.492 157.209L172.881 156.908L172.626 152.093C172.486 149.445 172.318 145.404 172.254 143.111C172.189 140.819 172.09 138.943 172.034 138.944C171.978 138.944 171.709 139.11 171.436 139.313ZM233.05 139.15C232.766 139.342 232.776 139.369 233.188 139.543C233.6 139.717 233.631 139.702 233.631 139.337C233.631 138.894 233.493 138.849 233.05 139.15ZM109.816 139.537C110.118 141.036 112.794 157.932 112.797 158.362C112.8 158.809 113.675 159.769 113.79 159.45C113.873 159.218 110.824 139.708 110.696 139.656C110.677 139.647 110.451 139.519 110.194 139.37L109.727 139.099L109.816 139.537ZM223.587 140.503L222.358 141.404L222.347 142.221C222.336 142.957 222.491 143.23 222.917 143.23C222.94 143.23 223.376 142.941 223.887 142.588L224.817 141.946L224.902 140.762C224.95 140.11 224.95 139.583 224.902 139.589C224.855 139.596 224.264 140.007 223.587 140.503ZM249.648 140.256C249.601 140.538 249.515 141.427 249.457 142.231L249.352 143.693L251.723 144.795L254.094 145.897L254.774 145.317C255.147 144.999 255.868 144.404 256.376 143.996L257.299 143.255L253.516 141.499L249.733 139.742L249.648 140.256ZM111.707 141.364C112.249 144.557 113.232 150.679 113.915 155.121C114.376 158.121 114.742 160.02 114.883 160.143C115.008 160.251 117.19 161.537 119.732 162.999C122.273 164.462 125.079 166.077 125.967 166.589C126.855 167.1 127.61 167.492 127.645 167.46C127.68 167.427 127.358 164.731 126.93 161.468C125.958 154.068 125.872 153.155 126.132 153.005C126.375 152.866 133.97 157.007 134.115 157.357C134.204 157.57 134.492 160.182 135.472 169.654C135.625 171.131 135.801 172.092 135.939 172.209C136.283 172.499 142.939 176.295 142.994 176.232C143.021 176.202 142.673 171.961 142.221 166.809C141.769 161.657 141.395 157.191 141.389 156.885C141.378 156.362 141.3 156.288 140.053 155.624C139.325 155.236 136.534 153.708 133.851 152.228C131.169 150.747 127.433 148.7 125.55 147.678C123.667 146.655 119.764 144.522 116.876 142.937C113.987 141.352 111.593 140.055 111.554 140.055C111.516 140.055 111.585 140.644 111.707 141.364ZM163.62 144.381C160.089 146.674 154.56 150.256 151.335 152.343L145.471 156.136L145.572 156.947C145.675 157.766 146.01 161.869 146.718 170.982C146.974 174.27 147.166 175.934 147.287 175.904C147.448 175.865 151.749 172.676 166.943 161.331C169.107 159.715 170.957 158.273 171.054 158.126C171.177 157.942 171.168 156.813 171.027 154.474C170.915 152.613 170.692 148.642 170.531 145.652C170.369 142.661 170.193 140.213 170.139 140.213C170.086 140.213 167.152 142.089 163.62 144.381ZM219.939 141.325C219.939 141.849 219.975 142.277 220.02 142.277C220.186 142.277 221.651 141.259 221.651 141.143C221.651 141.043 220.216 140.372 220.003 140.372C219.968 140.372 219.939 140.801 219.939 141.325ZM260.073 141.815C259.32 142.432 258.691 142.984 258.675 143.043C258.659 143.102 259.212 143.409 259.904 143.725L261.161 144.3L261.264 143.09C261.32 142.425 261.404 141.613 261.449 141.285C261.495 140.958 261.512 140.691 261.488 140.692C261.463 140.693 260.827 141.199 260.073 141.815ZM221.137 142.436C221.137 142.524 221.214 142.595 221.308 142.595C221.402 142.595 221.479 142.524 221.479 142.436C221.479 142.349 221.402 142.277 221.308 142.277C221.214 142.277 221.137 142.349 221.137 142.436ZM220.453 144.191V145.31L221.05 144.888C221.544 144.538 221.63 144.393 221.545 144.046C221.445 143.634 220.902 143.071 220.605 143.071C220.521 143.071 220.453 143.575 220.453 144.191ZM256.352 144.851C255.481 145.558 254.741 146.157 254.707 146.182C254.674 146.207 255.329 146.545 256.163 146.934L257.68 147.641L259.215 146.399C260.059 145.716 260.776 145.085 260.808 144.996C260.865 144.839 259.88 144.316 258.577 143.813L257.937 143.565L256.352 144.851ZM221.666 145.272L220.397 146.349L220.723 146.861C220.977 147.26 221.765 147.734 224.302 149.015C226.091 149.918 228.415 151.056 229.466 151.543L231.376 152.428L231.49 151.124C231.553 150.407 231.579 149.429 231.548 148.952L231.492 148.085L227.384 146.137C225.125 145.066 223.199 144.191 223.105 144.192C223.011 144.193 222.363 144.679 221.666 145.272ZM259.648 146.868L258.366 147.951L259.451 148.459C260.048 148.738 260.575 148.931 260.623 148.886C260.731 148.786 261.055 146.117 260.982 145.925C260.953 145.849 260.353 146.273 259.648 146.868ZM251.749 148.589C250.479 149.615 248.315 151.361 246.941 152.47L244.442 154.485L244.382 156.439C244.348 157.514 244.326 158.409 244.332 158.427C244.354 158.493 249.879 154.072 253.485 151.104L257.134 148.102L255.694 147.421C254.902 147.046 254.21 146.736 254.156 146.731C254.102 146.727 253.019 147.563 251.749 148.589ZM220.193 148.67C220.133 149.04 220.109 149.603 220.14 149.92L220.196 150.497L221.129 149.72C222.173 148.851 222.155 148.712 220.934 148.241L220.302 147.997L220.193 148.67ZM253.827 151.675C251.709 153.43 248.697 155.884 247.135 157.131L244.294 159.397L244.184 160.245C244.123 160.711 244.073 161.511 244.073 162.022L244.071 162.95L245.135 162.101C245.72 161.634 248.133 159.68 250.497 157.759C252.861 155.837 256.033 153.265 257.547 152.042C259.061 150.82 260.307 149.767 260.315 149.702C260.331 149.581 258.045 148.464 257.81 148.478C257.737 148.482 255.945 149.921 253.827 151.675ZM232.202 150.082C231.992 152.829 231.981 152.78 232.905 153.242C233.351 153.465 235.805 154.696 238.358 155.978C240.91 157.259 243.118 158.351 243.264 158.403C243.565 158.51 243.687 157.807 243.77 155.491L243.817 154.176L242.104 153.362C241.162 152.914 238.601 151.666 236.412 150.588C234.224 149.511 232.406 148.629 232.373 148.629C232.34 148.629 232.263 149.283 232.202 150.082ZM221.522 150.209C220.84 150.809 220.281 151.336 220.281 151.38C220.281 151.424 221.186 151.905 222.292 152.448C223.399 152.992 225.784 154.177 227.592 155.081C229.401 155.986 230.961 156.726 231.058 156.726C231.166 156.726 231.245 156.11 231.261 155.139C231.275 154.265 231.294 153.472 231.303 153.376C231.317 153.241 223.771 149.454 222.934 149.175C222.84 149.143 222.205 149.608 221.522 150.209ZM304.227 150.38C304.053 150.641 304.603 151.125 304.832 150.913C304.953 150.8 304.905 150.662 304.679 150.472C304.443 150.274 304.315 150.248 304.227 150.38ZM257.834 152.639C250.711 158.441 246.921 161.514 245.647 162.52C244.606 163.343 244.242 163.729 244.242 164.013C244.242 164.469 243.922 164.691 247.321 161.878C248.593 160.825 251.751 158.245 254.34 156.143C260.864 150.847 260.55 151.119 260.479 150.81C260.431 150.604 259.775 151.058 257.834 152.639ZM219.939 152.311C219.94 152.625 220.439 152.927 223.405 154.409C232.052 158.729 242.903 164.174 243.429 164.456C243.5 164.494 243.558 164.349 243.558 164.132C243.558 163.792 243.286 163.606 241.547 162.753C240.441 162.211 238.034 161 236.198 160.062C234.363 159.125 230.589 157.241 227.812 155.876C225.035 154.511 222.128 153.068 221.351 152.67C219.988 151.969 219.939 151.957 219.939 152.311ZM231.848 155.314C231.782 156.284 231.752 157.099 231.781 157.124C231.83 157.167 237.874 160.195 241.718 162.102L243.386 162.93L243.388 162.17C243.388 161.752 243.437 160.937 243.496 160.359L243.603 159.307L241.398 158.229C240.186 157.636 237.592 156.341 235.634 155.351C233.676 154.361 232.05 153.551 232.021 153.551C231.992 153.551 231.914 154.344 231.848 155.314ZM126.748 154.297C126.792 154.542 126.981 155.956 127.168 157.441C127.355 158.926 127.715 161.784 127.968 163.792C128.221 165.801 128.486 167.594 128.558 167.777C128.637 167.978 129.911 168.812 131.77 169.881C133.465 170.855 134.879 171.652 134.912 171.652C134.946 171.652 134.879 170.776 134.763 169.707C134.647 168.637 134.321 165.527 134.038 162.795C133.755 160.064 133.479 157.762 133.424 157.681C133.352 157.572 127.81 154.425 126.794 153.916C126.725 153.881 126.704 154.053 126.748 154.297ZM217.963 156.122C217.487 156.498 215.273 158.192 213.042 159.887C210.811 161.582 208.986 163.014 208.986 163.07C208.986 163.125 209.929 163.643 211.082 164.221C216.173 166.773 219.293 168.317 219.357 168.317C219.511 168.317 219.413 160.973 219.25 160.267C219.153 159.848 219.018 158.59 218.95 157.472L218.827 155.439L217.963 156.122ZM144.362 156.911L144.005 157.282L144.812 167.173C145.256 172.614 145.654 177.097 145.696 177.136C145.739 177.176 145.927 177.047 146.115 176.851C146.454 176.497 146.454 176.465 146.158 172.843C145.993 170.834 145.656 166.547 145.409 163.316C145.161 160.085 144.904 157.238 144.839 156.991L144.719 156.54L144.362 156.911ZM142.154 157.558C142.204 158.017 142.592 162.502 143.016 167.523L143.788 176.653L144.22 177.011C144.839 177.522 144.934 177.463 144.86 176.614C144.823 176.199 144.49 172.108 144.118 167.523C143.229 156.552 143.364 157.513 142.652 157.079L142.063 156.721L142.154 157.558ZM220.014 171.096C219.935 175.288 219.867 181.218 219.862 184.275L219.854 189.832L220.319 191.209C222.731 198.333 228.427 204.427 236.797 208.839C241.995 211.578 246.817 213.208 252.885 214.278C260.388 215.601 267.031 215.623 273.765 214.348C279.613 213.24 284.314 211.38 288.404 208.557C290.355 207.21 292.825 204.934 294.252 203.17C295.409 201.738 297.094 198.649 297.627 196.977C297.823 196.366 298.948 191.443 300.127 186.038C301.307 180.633 302.313 176.149 302.363 176.074C302.412 176 302.417 175.939 302.372 175.939C302.328 175.939 302.064 176.278 301.787 176.693C301.015 177.848 299.087 179.836 297.39 181.226C290.75 186.666 280.182 189.903 269.04 189.91C261.549 189.914 253.774 188.547 246.467 185.941C242.563 184.548 236.728 181.606 233.631 179.469C229.772 176.806 225.722 172.995 223.704 170.127C222.704 168.706 220.876 165.418 220.458 164.287C220.16 163.482 220.156 163.542 220.014 171.096ZM218.296 179.873C215.655 183.291 214.181 187.173 214 191.182C213.85 194.512 214.312 196.959 215.703 200.209C217.111 203.498 219.154 206.196 222.757 209.521C230.935 217.068 242.119 221.893 255.874 223.81C258.902 224.232 263.413 224.392 267.102 224.209C272.195 223.956 275.83 223.408 280.296 222.218C284.063 221.216 286.395 220.26 290.18 218.168C292.742 216.752 294.065 215.786 296.467 213.576C299.349 210.923 300.978 208.637 302.349 205.32C302.887 204.019 303.722 201.214 303.603 201.108C303.556 201.067 299.114 199.155 298.375 198.857C298.256 198.809 298.136 198.931 298.092 199.146C297.304 203.01 296.084 205.768 294.023 208.347C288.886 214.774 280.519 218.742 269.425 220.01C266.897 220.3 260.922 220.34 258.191 220.086C251.974 219.509 245.402 217.917 240.306 215.755C230.211 211.472 222.698 204.595 220.04 197.206C219.041 194.432 219.009 194.065 219.061 186.14C219.087 182.189 219.084 178.958 219.053 178.96C219.023 178.963 218.682 179.374 218.296 179.873ZM300.641 187.093C300.602 187.202 300.146 189.258 299.628 191.662C299.11 194.066 298.639 196.146 298.582 196.285C298.499 196.484 299.019 196.751 301.097 197.58L303.716 198.623L303.765 196.95C303.847 194.149 302.987 190.762 301.499 188.02C300.873 186.867 300.763 186.748 300.641 187.093ZM219.843 193.246C220.075 196.346 221.92 200.401 224.66 203.836C226.027 205.549 229.599 208.815 231.708 210.279C240.636 216.478 253.075 219.935 265.048 219.544C270.623 219.362 274.322 218.775 278.9 217.347C281.771 216.451 282.713 216.047 285.339 214.586C287.726 213.257 288.972 212.394 290.646 210.911C292.986 208.837 294.855 206.304 296.015 203.635C296.551 202.401 297.351 199.915 297.212 199.915C297.183 199.915 296.874 200.433 296.524 201.066C295.506 202.907 294.104 204.613 291.993 206.578C289.529 208.872 287.504 210.214 284.12 211.794C274.268 216.394 261.521 217.274 249.12 214.21C244.2 212.994 240.814 211.723 236.772 209.577C233.622 207.904 232.643 207.298 230.427 205.652C225.873 202.269 222.212 197.762 220.175 193.031L219.754 192.055L219.843 193.246ZM298.248 197.49C298.065 197.934 298.16 198.139 298.625 198.298C298.884 198.387 300.674 199.108 302.604 199.901C304.534 200.694 306.161 201.343 306.221 201.343C306.281 201.343 306.367 201.162 306.412 200.941C306.515 200.444 306.719 200.548 302.056 198.719C299.156 197.581 298.322 197.312 298.248 197.49Z" fill="white"/>
</svg>
