<svg viewBox="0 0 407 215" fill="none" xmlns="http://www.w3.org/2000/svg">
<g clip-path="url(#clip0_655_1670)">
<g opacity="0.7">
<path fill-rule="evenodd" clip-rule="evenodd" d="M168.602 -1.78856C168.365 -1.68267 168.008 -1.40447 167.809 -1.1704C167.476 -0.781004 167.439 -0.45274 167.365 2.695L167.284 6.13467L166.047 6.83065C165.367 7.21349 164.773 7.52679 164.727 7.52679C164.681 7.52679 164.643 6.57724 164.643 5.41655C164.643 3.13227 164.462 2.45968 163.726 2.01118C163.256 1.72487 162.108 1.67466 161.587 1.91746C160.801 2.28331 160.701 2.78935 160.7 6.38839L160.7 9.78798L159.364 10.5287C158.629 10.9362 157.984 11.2695 157.931 11.2695C157.877 11.2695 157.834 10.2801 157.834 9.0708C157.834 6.52375 157.651 5.99354 156.629 5.57155C155.829 5.24126 154.816 5.45444 154.259 6.07011C153.913 6.45373 153.891 6.6825 153.891 10.0267V13.5763L152.568 14.2942C151.84 14.689 151.195 15.0121 151.134 15.0121C151.074 15.0121 151.024 13.9912 151.024 12.7431C151.024 10.1621 150.858 9.67321 149.859 9.30986C149.062 9.01996 148.306 9.16795 147.679 9.73683L147.172 10.1976L147.082 13.7758L146.993 17.3539L145.649 18.1318L144.305 18.9098L144.215 16.4019L144.126 13.894L143.54 13.4394C142.842 12.8972 142.059 12.8464 141.225 13.2893C140.4 13.7267 140.275 14.3352 140.274 17.9132L140.273 21.0483L139.021 21.7728C138.332 22.1714 137.727 22.4975 137.677 22.4975C137.626 22.4975 137.585 21.4625 137.584 20.1973C137.584 18.2046 137.538 17.8314 137.24 17.4063C136.525 16.3855 134.703 16.3855 133.988 17.4063C133.676 17.8511 133.644 18.2208 133.644 21.3514L133.643 24.8058L132.254 25.5828L130.866 26.3597L130.776 23.9219C130.663 20.8423 130.452 20.4702 128.82 20.4702C128.271 20.4702 127.951 20.5812 127.509 20.9249L126.923 21.3797L126.87 25.0196L126.816 28.6593L125.531 29.36C124.824 29.7455 124.183 30.0842 124.106 30.1127C124.029 30.1414 123.967 29.0995 123.967 27.7977C123.967 25.2293 123.817 24.7284 122.943 24.3821C122.097 24.0465 121.289 24.1728 120.634 24.7431L120.025 25.2733L120.023 28.8366L120.022 32.3999L118.729 33.1017C118.018 33.4877 117.374 33.8268 117.297 33.8554C117.22 33.8841 117.158 32.8068 117.158 31.4616V29.0159L116.548 28.4857C115.858 27.8852 115.161 27.7977 114.268 28.1997C113.33 28.6216 113.215 29.1295 113.215 32.8466V36.1883L111.892 36.9061C111.164 37.301 110.513 37.6241 110.445 37.6241C110.377 37.6241 110.335 37.3961 110.353 37.1173C110.37 36.8384 110.376 35.7454 110.366 34.6881C110.348 32.7805 110.344 32.7624 109.825 32.31C109.406 31.9457 109.144 31.8541 108.52 31.8541C108.089 31.8541 107.554 31.9678 107.323 32.1085C106.519 32.5985 106.406 33.1606 106.406 36.6691V39.9346L105.12 40.6507C104.413 41.0446 103.768 41.3668 103.687 41.3668C103.605 41.3668 103.539 40.2535 103.539 38.8929C103.539 36.4364 103.536 36.4161 103.073 36.0135C102.817 35.7903 102.447 35.5636 102.251 35.5095C101.629 35.3378 100.712 35.5882 100.264 36.052C99.8603 36.4693 99.8268 36.6561 99.7155 39.1124C99.6503 40.5513 99.5962 42.1909 99.5953 42.7562L99.5939 43.7839L98.3593 44.4467C97.6803 44.8111 97.0763 45.1094 97.0169 45.1094C96.9576 45.1094 96.9091 44.0163 96.9091 42.6803V40.2511L96.3944 39.8033C95.5094 39.033 94.5124 39.0026 93.5577 39.7167L93.0565 40.0916L92.9669 43.7714L92.8773 47.4512L91.5334 48.2294L90.1895 49.0076L90.0755 47.0194C90.0128 45.9261 89.9524 44.8425 89.9411 44.6113C89.8965 43.6949 88.6129 43.0004 87.4577 43.2679C86.3482 43.5247 86.2575 43.8372 86.1577 47.745L86.0681 51.2535L83.5729 52.6264C82.2005 53.3815 80.9304 54.1152 80.7506 54.257C80.4544 54.4903 80.4236 54.8145 80.4236 57.7026V60.8907L80.9612 61.3277C81.4509 61.7258 81.4982 61.8529 81.4934 62.7547L81.488 63.7448L80.2344 64.4076C79.5447 64.772 78.9021 65.0703 78.8061 65.0703C78.7011 65.0703 78.6317 64.1765 78.6317 62.823V60.5757L78.0803 60.172C77.3329 59.6246 76.1723 59.6123 75.4611 60.1442L74.9583 60.5202L74.8687 63.8323L74.7791 67.1444L73.4352 67.8911C72.696 68.3018 72.0309 68.6421 71.9569 68.6474C71.8829 68.6527 71.8225 67.7955 71.8225 66.7425C71.8225 64.6323 71.7062 64.3322 70.7147 63.8861C69.6281 63.397 68.2107 64.0425 68.0102 65.1177C67.9577 65.4 67.9205 66.8052 67.9278 68.2405C67.935 69.6757 67.8667 70.9137 67.7762 70.9917C67.6855 71.0697 65.3537 72.3858 62.5942 73.9165C49.3799 81.2462 43.9929 84.3431 43.6677 84.7973C43.3827 85.1951 43.3326 85.5867 43.332 87.4144C43.3313 89.7219 43.4843 90.3037 44.2489 90.8993C44.4835 91.0821 45.8645 91.8767 47.3183 92.6657L49.9613 94.0997V101.014V107.927L48.3852 108.793C46.1498 110.02 46.1975 109.895 46.2023 114.549C46.2059 117.931 46.2421 118.394 46.549 118.983C46.9497 119.751 46.1416 119.276 61.6983 127.882C67.513 131.099 75.6168 135.591 79.7069 137.866C83.7969 140.14 89.4413 143.278 92.2501 144.839C95.0589 146.4 103.848 151.29 111.782 155.704C119.715 160.119 129.593 165.614 133.733 167.915C145.78 174.612 177.064 192.099 204.602 207.53C211.156 211.202 216.921 214.345 217.414 214.513C218.657 214.939 220.688 214.937 221.931 214.51C222.867 214.188 225.32 212.8 243.991 202.037C252.478 197.144 254.136 196.245 254.422 196.378C254.609 196.465 256.76 197.67 259.203 199.055C265.89 202.848 266.356 203.081 267.233 203.081C267.731 203.081 268.342 202.916 269.04 202.593C269.621 202.325 274.289 199.698 279.414 196.756C284.539 193.813 290.627 190.328 292.943 189.012C296.718 186.866 297.195 186.546 297.557 185.928C297.958 185.241 297.96 185.198 297.96 177.966V170.694L311.175 163.124C318.444 158.96 325.461 154.95 326.769 154.211L329.149 152.868L329.905 153.281C330.322 153.507 332.678 154.823 335.142 156.204C339.406 158.594 339.665 158.715 340.518 158.714C341.491 158.714 340.454 159.278 359.182 148.567C361.503 147.24 363.477 146.001 363.662 145.756C363.974 145.34 363.991 144.727 363.991 133.927C363.991 120.98 364.085 121.79 362.492 120.902C358.001 118.395 355.349 117 355.072 117C354.619 117 354.356 117.13 351.228 118.908C349.728 119.761 348.428 120.435 348.341 120.406C347.959 120.279 343.474 117.692 343.474 117.599C343.474 117.542 344.018 117.183 344.684 116.801C359.165 108.477 359.177 108.47 359.435 107.937C359.815 107.153 359.75 103.668 359.343 102.982C359.127 102.619 358.318 102.065 356.499 101.033C349.828 97.2503 311.86 76.1522 306.083 73.0182C303.523 71.6294 303.36 71.5118 303.28 70.997C303.234 70.6964 303.185 67.8641 303.172 64.7031C303.155 60.4987 303.089 58.8583 302.928 58.5924C302.8 58.3806 300.056 56.7527 296.347 54.6891C292.849 52.7421 286.882 49.4152 283.087 47.2958C279.293 45.1765 273.769 42.11 270.813 40.4815C267.856 38.8528 264.784 37.1577 263.987 36.7145C263.189 36.2713 262.457 35.9087 262.359 35.9087C262.261 35.9087 260.333 36.9462 258.075 38.2143C255.817 39.4825 253.346 40.857 252.585 41.269L251.201 42.018L249.27 40.8645L247.339 39.7111L247.292 33.6464C247.246 27.684 247.239 27.5758 246.86 27.2251C246.438 26.8344 242.158 24.4128 232.377 19.0311C228.878 17.1062 224.241 14.5477 222.073 13.3457C216.577 10.2985 208.269 5.70099 207.224 5.1282L206.351 4.64977L205.432 5.09577C204.926 5.34091 202.558 6.62761 200.17 7.95485L195.828 10.3681L193.182 8.91906C191.726 8.12203 189.971 7.14254 189.281 6.74223C187.714 5.83229 186.92 5.60306 185.622 5.68477C184.519 5.75417 184.608 5.71378 180.561 7.97435C179.313 8.67173 178.244 9.24218 178.187 9.24218C178.129 9.24218 178.082 7.8563 178.081 6.16227C178.081 3.38459 178.046 3.0334 177.732 2.58397C177.238 1.87894 176.219 1.62335 175.344 1.98483C174.33 2.4037 174.14 2.94358 174.14 5.4061C174.14 6.57256 174.102 7.52679 174.055 7.52679C174.009 7.52679 173.363 7.20086 172.622 6.80242L171.273 6.07806V2.62654C171.273 -1.20673 171.234 -1.3527 170.09 -1.76844C169.362 -2.03324 169.156 -2.03605 168.602 -1.78856ZM204.676 7.18527C203.798 7.66464 201.265 9.0708 199.047 10.3101C196.83 11.5495 190.419 15.125 184.802 18.2559C179.184 21.3868 170.214 26.3941 164.868 29.3832C159.523 32.3725 154.739 35.0379 154.237 35.3064C153.501 35.7008 153.371 35.8307 153.564 35.9815C153.695 36.0843 156.866 37.8561 160.611 39.9191C170.978 45.6298 178.57 49.8236 185.907 53.8939L192.568 57.5887L196.3 55.4562C198.353 54.2833 202.533 51.908 205.588 50.1778C208.643 48.4474 216.142 44.1925 222.252 40.7224C228.363 37.2523 235.999 32.9426 239.221 31.1454C242.443 29.3481 245.08 27.8425 245.08 27.7996C245.081 27.7255 243.018 26.5717 233.81 21.4968C226.358 17.3901 212.955 9.98385 210.695 8.72476C209.463 8.03829 207.964 7.21505 207.364 6.89521L206.273 6.31369L204.676 7.18527ZM185.339 7.22613C184.727 7.38394 179.472 10.2125 179.39 10.4284C179.36 10.5063 180.147 11.0207 181.139 11.5718C182.131 12.1229 183.013 12.6889 183.1 12.8295C183.186 12.97 183.282 14.0107 183.313 15.1417C183.358 16.8332 183.413 17.1835 183.621 17.1143C183.842 17.0403 188.256 14.6098 192.749 12.0871L194.264 11.2369L192.848 10.4459C188.589 8.06745 186.959 7.2149 186.673 7.2149C186.498 7.2149 186.247 7.18621 186.116 7.15112C185.984 7.11603 185.635 7.14987 185.339 7.22613ZM165.945 8.58082L164.649 9.32015L164.646 11.9322C164.644 13.3689 164.694 14.5443 164.756 14.5443C164.817 14.5443 165.419 14.2461 166.092 13.8815L167.316 13.2188L167.33 11.1135C167.338 9.95562 167.388 8.74518 167.442 8.42347C167.495 8.10191 167.472 7.8393 167.39 7.84008C167.308 7.84086 166.658 8.17411 165.945 8.58082ZM171.273 9.32015C171.273 10.135 171.324 10.8016 171.386 10.8016C171.594 10.8016 173.946 9.47734 173.953 9.35602C173.961 9.23906 171.581 7.83868 171.376 7.83868C171.319 7.83868 171.273 8.50534 171.273 9.32015ZM200.008 11.2245C199.529 11.4455 197.444 12.5633 195.374 13.7087C193.304 14.8542 188.224 17.6371 184.085 19.8933L176.559 23.9953L176.415 29.2193C176.327 32.4581 176.337 34.5883 176.442 34.8252C176.555 35.0797 177.515 35.7008 179.322 36.6884C180.812 37.5032 186.203 40.4788 191.301 43.3008C196.399 46.1228 200.732 48.4601 200.929 48.4948C201.281 48.5571 201.781 48.2899 211.591 42.8066C213.611 41.6771 217.522 39.496 220.281 37.9598L225.299 35.1664L225.346 29.7874C225.389 24.8391 225.367 24.3827 225.077 24.0887C224.903 23.9131 222.019 22.2665 218.669 20.4298C215.318 18.5929 210.14 15.7448 207.163 14.1003C204.186 12.4559 201.554 11.0458 201.315 10.9668C200.977 10.8548 200.687 10.912 200.008 11.2245ZM172.572 11.9068L171.273 12.6833V14.7713C171.273 16.7843 171.256 16.8766 170.814 17.334C170.234 17.9336 169.375 18.0941 168.556 17.7557C167.74 17.4188 167.479 16.9978 167.373 15.8485L167.283 14.8744L165.963 15.6498L164.643 16.4251L164.642 18.4086C164.642 20.0891 164.589 20.4672 164.298 20.883C163.85 21.5219 162.91 21.8104 162.066 21.568C161.092 21.2883 160.802 20.8869 160.701 19.6803L160.611 18.6101L159.236 19.3745L157.861 20.139L157.803 22.345L157.744 24.5511L157.159 25.0058C156.489 25.5261 155.629 25.6054 154.784 25.2249C154.068 24.9029 153.891 24.5495 153.891 23.4434C153.891 22.9232 153.842 22.4975 153.781 22.4975C153.721 22.4975 153.076 22.8206 152.348 23.2154L151.024 23.9333V26.0199C151.024 28.0759 151.017 28.1137 150.532 28.5865C149.876 29.2249 148.85 29.3526 148.018 28.8993C147.317 28.5166 147.082 28.0425 147.082 27.0097C147.082 26.5865 147.032 26.2401 146.971 26.2401C146.91 26.2401 146.265 26.5682 145.537 26.9692L144.215 27.6981V29.866V32.0341L143.691 32.4899C143.273 32.8542 143.011 32.9458 142.387 32.9458C141.041 32.9458 140.46 32.3756 140.287 30.8839L140.183 29.9915L138.884 30.7014L137.585 31.4113V33.4187C137.585 34.6431 137.502 35.5857 137.371 35.8351C136.785 36.9538 134.443 36.9538 133.857 35.8351C133.739 35.6102 133.643 35.0378 133.643 34.5629C133.643 34.088 133.58 33.7228 133.504 33.7515C133.427 33.7801 132.782 34.1192 132.071 34.5052L130.779 35.207L130.778 37.3632L130.776 39.5194L130.252 39.9753C129.846 40.3283 129.566 40.4311 129.006 40.4311C127.506 40.4311 126.834 39.7842 126.834 38.3408C126.834 37.8608 126.79 37.4681 126.736 37.4681C126.682 37.4681 126.037 37.8212 125.303 38.2525L123.967 39.0371V41.1166C123.967 42.9653 123.927 43.2404 123.605 43.5957C123.094 44.1616 122.165 44.4024 121.371 44.1745C120.407 43.8974 120.025 43.3604 120.025 42.2814C120.025 41.7783 119.973 41.3668 119.91 41.3668C119.721 41.3668 117.437 42.6472 117.295 42.833C117.222 42.9271 117.162 43.9208 117.16 45.0413C117.158 47.0594 117.153 47.0821 116.665 47.4863C116.028 48.0134 115.366 48.148 114.555 47.9152C113.677 47.6632 113.217 46.9795 113.216 45.9281C113.216 45.4779 113.176 45.1094 113.128 45.1094C113.079 45.1094 112.484 45.4194 111.805 45.7984L110.57 46.4872L110.495 48.5664C110.415 50.8211 110.281 51.2081 109.456 51.5796C108.791 51.8787 108.142 51.8787 107.478 51.5796C106.782 51.2663 106.523 50.8256 106.41 49.7574L106.317 48.8693L105.062 49.5576L103.808 50.2459L103.718 52.4472L103.629 54.6484L103.043 55.103C102.225 55.7391 101.095 55.7431 100.285 55.1131C99.7838 54.7234 99.7034 54.5488 99.6328 53.7003C99.5401 52.5862 99.5759 52.5898 97.9806 53.5326L96.9091 54.1659V55.1736C96.9091 56.09 96.9429 56.1815 97.2812 56.1815C97.4859 56.1815 97.8891 56.3866 98.1772 56.6373C98.6431 57.0429 98.701 57.1997 98.701 58.0575C98.701 58.765 98.7606 59.0019 98.925 58.947C99.0482 58.9057 100.883 57.9044 103.002 56.7217C110.395 52.5948 122.859 45.6495 130.418 41.4441C134.606 39.1137 140.573 35.7819 143.678 34.04C146.782 32.2981 152.507 29.1047 156.4 26.9436C162.839 23.3694 167.005 21.0459 177.186 15.353C179.108 14.2784 180.749 13.348 180.833 13.2854C180.963 13.1887 178.46 11.5813 178.18 11.5813C178.126 11.5813 178.082 11.9146 178.081 12.3221C178.08 13.9636 176.731 14.7266 175.065 14.0289C174.446 13.7694 174.14 13.1172 174.14 12.057C174.14 11.538 174.079 11.1173 174.005 11.1219C173.932 11.1266 173.286 11.4798 172.572 11.9068ZM159.133 12.3746L157.834 13.1511V15.8018V18.4524L158.864 17.8795C159.431 17.5642 160.076 17.2031 160.297 17.077C160.689 16.8541 160.701 16.7732 160.701 14.2145C160.701 12.7662 160.64 11.5851 160.566 11.5898C160.492 11.5944 159.847 11.9477 159.133 12.3746ZM195.63 15.2724C186.647 20.1998 185.54 20.807 182.211 22.6328C180.433 23.6078 178.978 24.4541 178.978 24.5134C178.978 24.5728 180.248 25.3148 181.8 26.1623C183.352 27.0097 188.318 29.7244 192.834 32.1949L201.045 36.6866L207.617 33.0552C211.231 31.0579 216.144 28.3448 218.534 27.0259C220.924 25.7073 222.88 24.5865 222.88 24.5354C222.88 24.4844 221.972 23.9435 220.864 23.3336C219.755 22.7237 214.977 20.0872 210.247 17.4746C205.516 14.862 201.479 12.6469 201.274 12.5521C200.95 12.4016 200.235 12.7459 195.63 15.2724ZM176.559 17.378C173.8 18.9334 165.091 23.8005 157.207 28.1937C149.322 32.5869 140.009 37.7811 136.51 39.7365C133.011 41.6917 127.125 44.9738 123.429 47.0299C119.733 49.086 115.097 51.6674 113.126 52.7665C111.155 53.8654 107.163 56.0884 104.256 57.7062L98.9698 60.6477L98.9189 62.227C98.8721 63.6721 98.8983 63.8203 99.2269 63.9733C99.5364 64.1175 100.543 63.6066 106.535 60.2633C110.357 58.1308 116.064 54.9478 119.218 53.1899C122.372 51.4319 129.992 47.1629 136.152 43.7031C142.311 40.2433 148.44 36.8065 149.77 36.0654C153.101 34.2103 176.958 20.8616 179.605 19.3719L181.755 18.1616V16.354C181.755 15.3599 181.715 14.5473 181.666 14.5482C181.617 14.5491 179.319 15.8224 176.559 17.378ZM152.324 16.1173L151.024 16.8938V19.5525V22.211L151.696 21.8581C152.066 21.6639 152.711 21.304 153.13 21.0581L153.891 20.6112V17.9676C153.891 16.5136 153.831 15.3278 153.757 15.3324C153.683 15.3371 153.038 15.6903 152.324 16.1173ZM145.604 19.8689L144.215 20.6686V23.2984C144.215 24.7448 144.259 25.9282 144.313 25.9282C144.367 25.9282 145.012 25.5752 145.746 25.1438L147.082 24.3593V21.7131C147.082 20.2575 147.062 19.0672 147.037 19.0678C147.013 19.0684 146.368 19.4289 145.604 19.8689ZM138.887 23.5515L137.591 24.2908L137.588 26.9809C137.587 28.4605 137.623 29.6709 137.669 29.6709C137.715 29.6709 138.32 29.3517 139.013 28.9617L140.273 28.2523V25.5309C140.273 24.034 140.253 22.81 140.228 22.8108C140.203 22.8115 139.6 23.1448 138.887 23.5515ZM178.082 30.1383V34.3482L179.168 34.9336C181.264 36.0631 196.419 44.4245 198.555 45.6298L200.122 46.5148V42.1808V37.8468L195.867 35.5231C182.63 28.2955 178.266 25.9282 178.179 25.9282C178.126 25.9282 178.082 27.8227 178.082 30.1383ZM220.55 27.5978C218.924 28.5029 215.9 30.1726 213.83 31.3082C211.761 32.4438 208.296 34.3638 206.132 35.5747C203.967 36.7856 202.123 37.7975 202.034 37.8234C201.944 37.8494 201.857 39.7919 201.839 42.1965C201.815 45.1978 201.863 46.5036 201.995 46.4594C202.1 46.4245 203.233 45.8018 204.514 45.0757C206.591 43.898 221.087 35.8165 223.014 34.762L223.775 34.3454V30.1367C223.775 27.822 223.715 25.9336 223.641 25.9401C223.567 25.9467 222.176 26.6927 220.55 27.5978ZM132.165 27.3542L130.776 28.1539V30.7968C130.776 32.2502 130.839 33.4162 130.915 33.3875C130.992 33.359 131.637 33.0198 132.347 32.6339L133.64 31.9321L133.641 29.2421C133.642 27.7625 133.623 26.5525 133.598 26.5531C133.573 26.5537 132.929 26.9143 132.165 27.3542ZM236.14 34.5574C231.064 37.4154 224.008 41.4033 220.46 43.4191C198.625 55.8263 194.599 58.1227 194.075 58.4662C193.533 58.8218 193.492 58.9125 193.492 59.7701V60.6917L198.555 57.7887C201.339 56.1921 206.116 53.4687 209.171 51.7368C212.227 50.0047 216.984 47.3025 219.744 45.7316C230.626 39.5375 234.827 37.1564 239.903 34.3061C242.81 32.6735 245.249 31.2927 245.322 31.2377C245.472 31.126 245.6 29.3584 245.458 29.3601C245.409 29.3607 241.215 31.6994 236.14 34.5574ZM125.269 31.1928L123.973 31.9321L123.97 34.5442C123.968 35.9807 124.022 37.1563 124.089 37.1563C124.157 37.1563 124.801 36.823 125.521 36.4155L126.829 35.6748L126.831 33.0627C126.833 31.6262 126.773 30.4513 126.699 30.452C126.625 30.4528 125.982 30.7861 125.269 31.1928ZM163.776 32.5857C163.645 32.6314 162.596 33.1778 161.447 33.8L159.357 34.9312L159.307 36.792C159.259 38.5585 159.277 38.6691 159.665 38.9747C160.39 39.546 167.751 43.55 168.076 43.55C168.44 43.55 172.327 41.4647 172.662 41.0903C172.894 40.8294 172.978 38.1746 172.774 37.5135C172.701 37.2748 171.411 36.4721 168.575 34.8994C164.252 32.5027 164.153 32.455 163.776 32.5857ZM238.917 36.5562C235.27 38.6239 229.505 41.899 226.105 43.8343C218.323 48.2639 195.541 61.1914 193.806 62.1628C193.533 62.3154 193.492 62.6075 193.492 64.404V66.4698L194.814 65.7311C195.542 65.3248 200.36 62.5829 205.521 59.638C214.145 54.7178 224.101 49.0483 239.634 40.2134L245.637 36.7987V34.7943C245.637 33.6918 245.617 32.7914 245.592 32.7932C245.567 32.7953 242.564 34.4885 238.917 36.5562ZM162.942 34.6778C162.352 35.0062 161.845 35.3387 161.815 35.4167C161.768 35.5399 167.149 38.6051 167.786 38.8178C168.006 38.8911 170.371 37.7977 170.369 37.6241C170.368 37.5542 166.252 35.2406 164.65 34.4101L164.016 34.081L162.942 34.6778ZM118.457 34.9278L117.158 35.6534V38.3541C117.158 39.8396 117.192 41.0549 117.234 41.0549C117.276 41.0549 117.921 40.7029 118.668 40.2728L120.025 39.4906V36.842C120.025 35.3852 119.964 34.1953 119.89 34.1978C119.816 34.2002 119.171 34.5287 118.457 34.9278ZM160.88 37.4543C160.88 38.0543 160.906 38.0784 162.537 38.9658C163.449 39.4619 164.776 40.205 165.486 40.6173C166.196 41.0294 166.821 41.3668 166.875 41.3668C166.928 41.3668 166.972 41.0948 166.972 40.7625V40.1583L164.005 38.5013C162.373 37.5899 161.002 36.8444 160.959 36.8444C160.915 36.8444 160.88 37.1188 160.88 37.4543ZM148.028 38.7834C146.331 39.7359 144.856 40.5908 144.75 40.6831C144.612 40.8027 145.47 41.3605 147.743 42.6293C149.495 43.6074 151.037 44.4314 151.169 44.4604C151.368 44.5039 151.388 43.8687 151.283 40.7957C151.214 38.7511 151.147 37.0722 151.135 37.0647C151.124 37.0574 149.725 37.8307 148.028 38.7834ZM152.995 38.3102V39.1776L154.832 40.2165C156.632 41.2344 160.626 43.434 168.84 47.9295C174.077 50.7964 181.943 55.1582 187.072 58.0402C189.273 59.2768 191.255 60.3901 191.477 60.5143C191.878 60.7391 191.88 60.7371 191.88 59.8109V58.8821L179.202 51.8581C168.101 45.7076 155.689 38.8741 153.667 37.7998L152.995 37.4427V38.3102ZM256.119 41.0221C252.768 42.8975 248.535 45.2752 246.712 46.3055C244.888 47.336 239.042 50.6363 233.72 53.6396C228.399 56.6428 222.19 60.1506 219.923 61.4348C217.656 62.7188 214.471 64.5223 212.845 65.4426C211.219 66.3628 209.869 67.1642 209.844 67.2236C209.802 67.3276 212.498 68.8525 220.102 73.0258C222.073 74.1076 227.153 76.9268 231.391 79.2908C245.684 87.2631 248.76 88.9375 248.981 88.8637C249.102 88.8232 250.395 88.0957 251.854 87.2469C255.689 85.0158 269.181 77.3132 285.954 67.7792C293.987 63.2138 300.706 59.3852 300.887 59.2712C301.258 59.0378 302.915 60.0012 285.032 50.0529C270.566 42.0058 262.802 37.7421 262.487 37.6729C262.336 37.6394 259.47 39.1466 256.119 41.0221ZM111.827 38.666L110.527 39.3736V42.0894V44.8052L111.647 44.1741C112.263 43.8269 112.87 43.4882 112.996 43.4212C113.17 43.3284 113.212 42.6623 113.175 40.6288L113.126 37.9583L111.827 38.666ZM243.307 39.8338C242.075 40.5312 239.253 42.1332 237.036 43.3939C234.818 44.6547 227.964 48.55 221.804 52.0501C215.645 55.5502 208.307 59.7263 205.498 61.33C202.689 62.9339 198.839 65.1307 196.942 66.2118L193.492 68.1777V71.4323C193.492 73.2223 193.538 74.7267 193.594 74.7754C193.65 74.8239 194.92 74.1817 196.416 73.348C197.913 72.5145 199.272 71.7889 199.437 71.7356C199.637 71.671 201.058 72.3626 203.693 73.8064L207.648 75.974V71.6763C207.648 68.0578 207.694 67.2955 207.935 66.8523C208.165 66.4313 209.035 65.8663 212.281 64.0317C214.513 62.77 218.879 60.3012 221.984 58.5458C230.887 53.5108 243.101 46.6294 244.427 45.9016L245.637 45.2375V41.8985C245.637 40.0623 245.617 38.5612 245.592 38.5629C245.567 38.5646 244.539 39.1366 243.307 39.8338ZM169.795 39.5927C168.596 40.2669 168.585 40.2792 168.585 40.9758C168.585 41.3624 168.631 41.6786 168.688 41.6786C168.745 41.6786 169.349 41.3643 170.032 40.98C171.223 40.3095 171.273 40.2566 171.273 39.6637C171.273 39.324 171.212 39.0161 171.138 38.9792C171.065 38.9426 170.46 39.2186 169.795 39.5927ZM152.995 42.8041V44.7451L154.563 45.6056C155.426 46.0789 156.595 46.7244 157.162 47.0402L158.192 47.6141V45.6755V43.737L155.997 42.5271C154.79 41.8617 153.62 41.215 153.399 41.0901L152.995 40.8631V42.8041ZM247.249 42.8482C247.249 43.5773 247.285 44.1738 247.329 44.1738C247.372 44.1738 247.94 43.8835 248.59 43.5289L249.771 42.8839L248.606 42.2034C247.964 41.829 247.397 41.5227 247.344 41.5227C247.292 41.5227 247.249 42.1192 247.249 42.8482ZM105.015 42.439L103.714 43.1768L103.665 45.8586C103.638 47.3335 103.665 48.5402 103.725 48.5402C103.785 48.5402 104.413 48.218 105.12 47.8241L106.406 47.108V44.3933C106.406 42.9003 106.386 41.6838 106.361 41.69C106.337 41.6963 105.731 42.0333 105.015 42.439ZM136.779 45.1356C133.428 47.0293 127.259 50.489 123.071 52.8242C118.882 55.1593 113.157 58.3516 110.348 59.9184C101.446 64.884 90.0999 71.3466 90.0999 71.4516C90.0999 71.5073 90.3618 71.6855 90.6822 71.8477C92.7033 72.8715 113.941 84.7298 127.272 92.2777C128.92 93.2109 129.476 93.4538 129.691 93.3342C129.844 93.2487 134.25 90.7223 139.483 87.7197C153.729 79.5445 178.168 65.649 180.906 64.1674L182.207 63.4635L181.354 62.9641C178.827 61.4849 143.058 41.6729 142.937 41.6857C142.901 41.6896 140.13 43.2421 136.779 45.1356ZM255.94 42.6393C255.447 42.9069 252.746 44.3901 249.937 45.9348C247.128 47.4798 242.411 50.0738 239.455 51.699C236.498 53.3244 233.777 54.8234 233.407 55.0302L232.735 55.4061L232.74 60.901L232.746 66.3959L233.144 66.6395C233.362 66.7732 234.549 67.4337 235.781 68.1069C237.013 68.7801 242.174 71.6245 247.249 74.4278C252.325 77.231 256.659 79.6083 256.881 79.7104C257.388 79.9442 256.943 80.1594 263.274 76.621C266.139 75.0196 271.448 72.0698 275.071 70.0657L281.658 66.4219L281.611 60.8815L281.564 55.3411L276.636 52.6186C263.143 45.1642 257.544 42.1468 257.207 42.1494C257.003 42.151 256.433 42.3715 255.94 42.6393ZM248.253 48.5385C235.627 55.5055 235.207 55.745 235.367 55.8716C235.447 55.9348 237.891 57.2839 240.798 58.8695C243.706 60.4553 248.452 63.0621 251.345 64.6624C254.238 66.2628 256.753 67.6411 256.933 67.7251C257.202 67.8502 258.847 67.0075 266.008 63.0752C270.819 60.4338 275.716 57.7494 276.889 57.11C278.064 56.4706 279.031 55.8822 279.04 55.8022C279.049 55.7222 276.953 54.4942 274.383 53.0732C261.094 45.7259 257.613 43.8266 257.328 43.768C257.139 43.7292 253.544 45.6191 248.253 48.5385ZM159.984 46.1363V47.4845L160.477 47.2063C160.748 47.0533 161.281 46.75 161.661 46.5324L162.353 46.1368L161.888 45.818C161.632 45.6428 161.099 45.3393 160.703 45.1437L159.984 44.7882V46.1363ZM98.2082 46.2146L96.9091 46.9911V49.637C96.9091 51.0922 96.9591 52.2829 97.02 52.2829C97.1139 52.2829 98.5633 51.5343 99.3969 51.0556C99.5878 50.946 99.6623 50.2781 99.7197 48.1672C99.7607 46.657 99.7297 45.4251 99.6509 45.4297C99.5718 45.4344 98.9226 45.7876 98.2082 46.2146ZM136.6 46.694C136.107 46.9617 132.438 48.9753 128.446 51.1685C124.455 53.3617 119.456 56.1074 117.337 57.2701L113.484 59.3841L113.437 64.9537L113.39 70.5232L114.602 71.2093C117.812 73.0263 137.198 83.7107 137.632 83.9019C138.115 84.1149 138.231 84.0614 142.649 81.5842C145.137 80.1895 150.438 77.2298 154.429 75.0068C158.42 72.784 161.828 70.8553 162.002 70.7208C162.294 70.4949 162.314 70.0649 162.271 65.0055L162.224 59.5343L160.033 58.2867C157.918 57.0829 156.406 56.2439 143.95 49.3655C140.798 47.6251 138.057 46.2024 137.858 46.204C137.658 46.2056 137.092 46.4261 136.6 46.694ZM162.304 47.8467C160.278 49.0187 160.005 49.2538 160.348 49.5326C160.766 49.8724 166.914 53.2185 167.12 53.2185C167.223 53.2185 167.355 53.0854 167.415 52.9224C167.647 52.2849 168.623 51.3347 169.486 50.9059L170.391 50.4557L167.379 48.805C165.722 47.8971 164.243 47.113 164.092 47.0626C163.929 47.0084 163.204 47.3262 162.304 47.8467ZM135.883 48.7593C134.897 49.3061 129.979 52.0153 124.952 54.7802C119.926 57.5449 115.789 59.8251 115.76 59.8473C115.73 59.8696 117.867 61.0666 120.508 62.5074C123.15 63.9483 128.153 66.6957 131.626 68.6129C137.553 71.8845 137.968 72.0864 138.373 71.8984C139.836 71.2194 159.926 59.9826 159.831 59.8964C159.727 59.8014 147.913 53.2271 140.793 49.3015C139.256 48.454 137.925 47.7616 137.836 47.763C137.748 47.7642 136.868 48.2127 135.883 48.7593ZM91.4818 50.0009L90.0862 50.7726L90.1378 52.0251L90.1895 53.2775L90.7786 53.41C91.3866 53.5467 92.069 54.2899 92.0702 54.817C92.0711 55.1396 92.2469 55.1624 92.6682 54.8943C92.9416 54.7203 92.9701 54.3978 92.9264 51.9641L92.8773 49.2295L91.4818 50.0009ZM170.593 51.9909C169.792 52.3359 169.099 52.9974 168.784 53.7182C168.602 54.135 168.632 54.1561 172.58 56.3558C180.852 60.9657 183.55 62.4994 183.857 62.767C184.143 63.0158 184.175 63.4134 184.175 66.7857V70.5284H184.712H185.25L185.246 67.1366C185.242 62.4283 185.082 61.2785 184.209 59.703C182.993 57.5067 182.483 57.0804 178.409 54.8503C176.406 53.7541 174.308 52.5874 173.747 52.2581C172.546 51.5532 171.763 51.4869 170.593 51.9909ZM84.5452 53.7723C83.7076 54.2389 82.9982 54.684 82.9685 54.7613C82.9389 54.8387 83.9063 55.447 85.1186 56.1132C86.3306 56.7795 87.5039 57.4264 87.7256 57.5507C88.1264 57.7756 88.1288 57.7718 88.1288 56.9133C88.1288 56.0705 88.1143 56.0455 87.5233 55.8758C86.5499 55.5962 86.2587 55.1944 86.1577 53.9911L86.0681 52.9238L84.5452 53.7723ZM82.0363 56.4154C82.0363 56.5584 82.123 56.6501 82.229 56.6194C82.3349 56.5887 82.4216 56.4968 82.4216 56.4154C82.4216 56.334 82.3349 56.2422 82.229 56.2114C82.123 56.1807 82.0363 56.2724 82.0363 56.4154ZM92.3845 56.6618C92.1179 56.7968 92.0709 57.0618 92.0709 58.4279V60.0349L93.4351 60.7675C94.1856 61.1705 94.8403 61.4646 94.8903 61.4211C94.9403 61.3776 94.9254 60.9528 94.8572 60.4771C94.7674 59.8524 94.657 59.6123 94.4592 59.6123C94.3087 59.6123 93.9112 59.3737 93.5761 59.0821C93.0063 58.5862 92.9669 58.4853 92.9669 57.5226C92.9669 56.4625 92.9185 56.3911 92.3845 56.6618ZM234.351 61.3666L234.353 65.6161L239.592 68.4949C242.473 70.0783 247.386 72.7975 250.51 74.5377C253.634 76.2781 256.236 77.7018 256.292 77.7018C256.348 77.7018 256.372 75.7577 256.346 73.3816L256.298 69.0613L245.457 63.0987C239.495 59.8192 234.556 57.1318 234.482 57.1267C234.408 57.1214 234.349 59.0294 234.351 61.3666ZM268.886 63.1494L258.001 69.1523V73.4271C258.001 75.7783 258.071 77.7018 258.158 77.7018C258.244 77.7018 260.361 76.5582 262.861 75.1603C265.362 73.7624 270.25 71.0466 273.725 69.1254L280.041 65.6319V61.3746C280.041 59.0329 279.98 57.1237 279.907 57.1318C279.833 57.1399 274.874 59.8478 268.886 63.1494ZM85.4409 59.8462C85.4409 60.8325 85.48 61.6396 85.5278 61.6396C85.5757 61.6396 86.0192 61.4229 86.5134 61.1583C87.4099 60.6783 87.412 60.6752 87.412 59.849C87.412 59.0298 87.4029 59.0159 86.5451 58.5369C86.0684 58.2707 85.625 58.0528 85.5595 58.0528C85.4943 58.0528 85.4409 58.8598 85.4409 59.8462ZM185.866 59.2527C186.432 60.5267 186.71 61.5293 186.761 62.4763L186.82 63.5889L189.272 64.9534C190.62 65.7039 191.761 66.3179 191.807 66.3179C191.853 66.3179 191.868 65.4253 191.84 64.3344L191.79 62.3508L188.766 60.6608C186.95 59.6464 185.791 59.0835 185.866 59.2527ZM295.362 64.0813C292.109 65.9369 287.634 68.4855 285.417 69.7448C283.199 71.0042 275.861 75.1889 269.11 79.0442C262.359 82.8995 255.243 86.9578 253.297 88.0623L249.758 90.0709V91.0646V92.0583L250.699 91.5343C252.309 90.6375 260.682 85.859 272.067 79.3394C293.136 67.2748 297.68 64.6716 299.559 63.5889L301.454 62.4972L301.508 61.6006C301.538 61.1073 301.497 60.7047 301.418 60.7058C301.34 60.7067 298.614 62.2257 295.362 64.0813ZM115.049 65.4582L115.097 69.7838L119.756 72.3578C123.588 74.4749 132.075 79.1952 136.286 81.5515L137.227 82.0778V77.724V73.3702L136.107 72.7554C131.138 70.0283 115.783 61.5784 115.437 61.381L115.002 61.1326L115.049 65.4582ZM156.478 63.565C154.302 64.7789 149.444 67.4798 145.681 69.5672L138.839 73.3622V77.6502C138.839 80.3487 138.904 81.9191 139.013 81.8863C139.109 81.8578 144.024 79.1326 149.937 75.8305L160.687 69.8266L160.694 65.5772C160.698 63.2399 160.64 61.3345 160.566 61.3428C160.492 61.3511 158.652 62.3511 156.478 63.565ZM92.0709 63.6668C92.0709 64.6103 92.1104 65.3822 92.1587 65.3822C92.2069 65.3822 92.8117 65.0669 93.5027 64.6816C95.1799 63.7459 95.1906 63.4696 93.5837 62.5927C92.9373 62.2399 92.3326 61.9514 92.2397 61.9514C92.1444 61.9514 92.0709 62.6973 92.0709 63.6668ZM86.7422 62.8417L85.4454 63.5533L85.4879 66.3001C85.5113 67.8109 85.5943 69.0338 85.6721 69.0179C85.75 69.002 86.3347 68.7026 86.9712 68.3528L88.1288 67.7166V64.912C88.1288 63.3694 88.1087 62.1125 88.084 62.1188C88.0592 62.125 87.4556 62.4503 86.7422 62.8417ZM217.664 65.0371L215.443 66.2516L215.392 68.095C215.358 69.3363 215.411 70.0103 215.552 70.1588C215.668 70.2801 217.605 71.3981 219.857 72.6433C223.465 74.6382 223.996 74.8864 224.33 74.7309C225.085 74.3791 228.348 72.4897 228.477 72.3299C228.549 72.2396 228.609 71.3895 228.611 70.4406C228.614 68.7562 228.602 68.7062 228.121 68.3233C227.432 67.7753 220.265 63.8228 219.96 63.8228C219.918 63.8228 218.885 64.3692 217.664 65.0371ZM298.856 65.6668C293.42 68.8242 256.269 90.0943 251.595 92.7254L249.758 93.7593V95.8056C249.758 97.513 249.8 97.8379 250.013 97.7668C250.154 97.7198 252.19 96.5666 254.538 95.204C256.886 93.8413 263.444 90.0707 269.11 86.8249C285.695 77.3256 296.623 71.0698 299.166 69.6194L301.536 68.2672L301.54 66.2009C301.542 65.0644 301.524 64.1398 301.499 64.1462C301.474 64.1524 300.285 64.8367 298.856 65.6668ZM180.591 66.0314C170.964 71.4302 131.106 94.1451 130.663 94.4849C130.33 94.7399 130.296 94.8854 130.394 95.6099L130.507 96.442L135.435 93.6508C138.145 92.1157 143.911 88.8361 148.247 86.3632C163.483 77.6744 173.19 72.1402 177.809 69.5095L182.472 66.8532L182.526 65.9617C182.556 65.4714 182.515 65.0717 182.436 65.0736C182.358 65.0753 181.527 65.5064 180.591 66.0314ZM186.862 72.0007C186.862 75.6509 186.923 78.6324 186.997 78.626C187.071 78.6196 188.179 78.0055 189.461 77.2615L191.79 75.9085L191.838 72.0021L191.886 68.0955L189.598 66.8401C188.34 66.1496 187.21 65.535 187.086 65.4742C186.909 65.3866 186.862 66.7363 186.862 72.0007ZM218.86 66.0203C218.276 66.3581 217.768 66.6599 217.732 66.6912C217.696 66.7224 219.003 67.4976 220.635 68.4138C222.589 69.5098 223.71 70.0487 223.914 69.9893C224.084 69.9399 224.652 69.667 225.175 69.3828C225.907 68.9856 226.072 68.8289 225.892 68.7037C225.582 68.4891 220.007 65.3786 219.959 65.3944C219.939 65.4009 219.445 65.6827 218.86 66.0203ZM93.4676 66.3609C92.2888 67.007 92.2657 67.0327 92.258 67.6977L92.2501 68.3757L92.8325 68.0454C93.1529 67.8638 93.7173 67.5633 94.0868 67.3777C94.6997 67.0699 94.7588 66.981 94.7588 66.3672C94.7588 65.997 94.7387 65.696 94.714 65.6982C94.6893 65.7003 94.1284 65.9985 93.4676 66.3609ZM80.0204 66.5849L78.8109 67.2996V70.0966C78.8109 71.635 78.8713 72.8702 78.9453 72.8415C79.0193 72.813 79.6225 72.5089 80.2858 72.1658L81.4919 71.542L81.509 68.9689C81.5185 67.5537 81.5532 66.273 81.5862 66.123C81.6781 65.7055 81.3396 65.8053 80.0204 66.5849ZM98.3784 68.93C95.4358 70.4821 95.6547 70.2054 95.6547 72.3706V74.2159L99.0896 76.1538C100.979 77.2197 102.956 78.3261 103.482 78.6124L104.44 79.1331L106.601 77.9269C107.79 77.2635 108.887 76.6123 109.039 76.4795C109.267 76.282 109.301 75.9418 109.228 74.592C109.18 73.6864 109.088 72.8403 109.025 72.7116C108.962 72.583 108.044 71.9897 106.986 71.3934C103.713 69.5489 100.629 67.8773 100.499 67.8773C100.43 67.8773 99.476 68.3511 98.3784 68.93ZM216.966 68.7913V69.3936L219.846 70.9746C221.43 71.8443 222.806 72.5557 222.903 72.5557C223.001 72.5557 223.055 72.2991 223.025 71.9857C222.971 71.4322 222.884 71.3685 220.056 69.8025C218.454 68.9151 217.104 68.1892 217.055 68.1892C217.006 68.1892 216.966 68.4603 216.966 68.7913ZM170.556 75.3064C164.199 78.9483 156.862 83.1434 154.25 84.6291C151.638 86.1146 145.631 89.5341 140.9 92.2279C136.17 94.9219 131.876 97.3593 131.358 97.6445L130.418 98.163V100.261C130.418 101.899 130.467 102.334 130.642 102.241C131.399 101.842 140.868 96.4294 150.845 90.6939C156.813 87.2631 170.862 79.242 177.014 75.7525C179.585 74.2945 181.885 72.9736 182.125 72.8172C182.547 72.5427 182.562 72.4669 182.562 70.595C182.562 69.1413 182.506 68.6605 182.338 68.6709C182.215 68.6786 176.913 71.6646 170.556 75.3064ZM209.297 69.7038L209.351 70.5945L214.591 73.4854C236.852 85.7653 240.505 87.7871 244.457 90.0134C246.322 91.0636 247.955 91.9588 248.086 92.0024C248.268 92.0633 248.324 91.864 248.324 91.1635C248.324 90.2914 248.295 90.2297 247.742 89.9491C247.422 89.7866 242.967 87.3377 237.842 84.507C232.717 81.6763 225.782 77.8533 222.432 76.0116C219.081 74.1699 214.776 71.7968 212.866 70.738C210.956 69.6793 209.36 68.813 209.318 68.813C209.277 68.813 209.267 69.2138 209.297 69.7038ZM86.809 70.1251L85.5787 70.8055L85.6085 72.6804C85.6427 74.8381 85.4244 75.5127 84.5679 75.8982C83.8847 76.2057 83.2405 76.2085 82.5703 75.9069C81.8883 75.6 81.6392 75.1707 81.5127 74.0849L81.4092 73.1968L80.1548 73.8851L78.9005 74.5733L78.8109 76.7746L78.7213 78.9758L78.1361 79.4303C77.3453 80.0448 76.2184 80.066 75.4201 79.4813C74.9099 79.1078 74.8687 79.0027 74.8687 78.0778C74.8687 77.528 74.818 77.0781 74.7562 77.0781C74.5888 77.0781 71.6435 78.7027 71.6464 78.7935C71.6478 78.8363 72.8138 79.525 74.2376 80.3239L76.8262 81.7765L82.3793 78.7039L87.9326 75.6314L88.0148 73.2749C88.0601 71.9787 88.1528 70.5848 88.2207 70.1775C88.2884 69.7702 88.2755 69.4387 88.1917 69.4408C88.1078 69.443 87.4857 69.751 86.809 70.1251ZM99.1776 70.1572L97.9521 70.856L101.028 72.5635C102.72 73.5027 104.173 74.2711 104.257 74.2711C104.545 74.2711 106.581 73.1018 106.531 72.9657C106.49 72.8529 100.529 69.4139 100.434 69.4477C100.417 69.4536 99.8517 69.773 99.1776 70.1572ZM73.1216 70.4735L71.8225 71.1749V73.1232C71.8225 74.1946 71.7395 75.2063 71.6379 75.3713C71.203 76.0786 69.5909 76.3719 68.7972 75.8881C68.2618 75.5617 67.8803 74.7626 67.8803 73.9673V73.3416L66.5812 74.0618C65.8668 74.4579 65.183 74.861 65.0618 74.9575C64.8936 75.0918 65.4324 75.4545 67.3462 76.4955C68.7236 77.2448 69.9319 77.8578 70.0313 77.8578C70.1306 77.8578 71.2597 77.2636 72.5403 76.5376L74.8687 75.2172V72.483C74.8687 70.3933 74.8159 69.7515 74.6447 69.7604C74.5216 69.7668 73.8361 70.0877 73.1216 70.4735ZM225.795 70.6466L224.679 71.2301L224.675 72.0498L224.671 72.8696L225.832 72.2057C226.989 71.5444 226.993 71.5394 226.997 70.8013C226.999 70.394 226.981 70.061 226.956 70.0618C226.931 70.0624 226.409 70.3255 225.795 70.6466ZM295.899 73.1805C292.943 74.881 288.703 77.3131 286.478 78.5854C282.33 80.9567 266.36 90.1128 255.895 96.1189L250.027 99.4873L250.067 107.564C250.089 112.006 250.148 115.676 250.197 115.719C250.246 115.762 250.404 115.712 250.547 115.609C250.75 115.462 250.821 114.882 250.866 113L250.923 110.58L251.508 110.125C252.339 109.479 253.508 109.48 254.252 110.126C254.749 110.559 254.775 110.649 254.775 111.92C254.775 112.655 254.816 113.257 254.867 113.257C254.918 113.257 255.522 112.931 256.211 112.533L257.463 111.808L257.463 109.609C257.464 107.062 257.665 106.499 258.734 106.044C259.524 105.707 260.332 105.816 260.933 106.339C261.411 106.755 261.585 107.315 261.585 108.442C261.585 108.861 261.639 109.203 261.706 109.203C261.773 109.203 262.338 108.914 262.961 108.561L264.093 107.918L264.094 106.027C264.095 104.986 264.178 103.874 264.28 103.557C264.52 102.803 265.205 102.341 266.08 102.341C267.571 102.341 268.105 102.895 268.117 104.456C268.121 105.007 268.154 105.459 268.19 105.459C268.226 105.46 268.851 105.137 269.579 104.742L270.902 104.024V101.847C270.902 100.649 270.985 99.5346 271.087 99.3696C271.572 98.5802 273.247 98.3566 274.068 98.9714C274.517 99.307 274.574 99.4634 274.636 100.531C274.674 101.183 274.739 101.717 274.782 101.717C274.825 101.717 275.216 101.489 275.651 101.21L276.443 100.704L276.45 98.1944L276.457 95.6852L279.396 90.4737L282.335 85.2624L287.205 82.5347C291.783 79.971 293.143 79.2728 293.57 79.2671C293.668 79.2657 295.523 80.243 297.691 81.4389L301.633 83.6132L301.691 81.0863C301.762 77.9713 301.545 70.0554 301.389 70.0748C301.326 70.0826 298.856 71.4803 295.899 73.1805ZM184.175 76.0644C184.175 78.3373 184.218 80.197 184.27 80.197C184.323 80.197 184.565 80.0836 184.808 79.9451L185.25 79.6933V75.8126V71.9319H184.712H184.175V76.0644ZM97.2694 72.8286C97.2716 73.4123 97.2766 73.4163 100.171 75.0508C101.766 75.9514 103.181 76.7118 103.317 76.7406C103.499 76.7794 103.548 76.6414 103.506 76.2035C103.451 75.6245 103.395 75.5838 100.433 73.9289C98.7739 73.0021 97.383 72.2438 97.342 72.2438C97.301 72.2438 97.2683 72.507 97.2694 72.8286ZM209.261 74.2495V76.0994L211.89 77.5634C213.336 78.3685 214.586 79.0508 214.667 79.0793C214.838 79.139 214.831 76.2987 214.659 75.5978C214.562 75.2027 214.162 74.9218 212.05 73.7655C210.679 73.0143 209.49 72.3997 209.409 72.3997C209.328 72.3997 209.261 73.2322 209.261 74.2495ZM89.5623 73.8419V74.6937L94.3556 77.3489C109.416 85.6917 118.978 91.0148 122.623 93.0847C124.89 94.372 127.208 95.6823 127.775 95.9963L128.805 96.5672V95.6556V94.7439L125.714 93.0237C124.014 92.0776 119.276 89.427 115.186 87.1337C104.425 81.0997 90.147 73.1854 89.8325 73.0804C89.6119 73.0067 89.5623 73.1469 89.5623 73.8419ZM303.336 78.8377V84.5056L310.011 88.2612C313.682 90.3268 317.459 92.4461 318.405 92.971C320.026 93.871 320.212 94.0319 321.683 95.8036C322.541 96.8367 323.32 97.8577 323.414 98.0724C323.513 98.3009 323.584 101.761 323.584 106.42V114.377L323.091 114.747C322.82 114.95 320.22 116.463 317.313 118.107C314.405 119.751 310.312 122.068 308.216 123.256C303.114 126.147 303.498 125.994 302.519 125.518L301.723 125.131L301.72 126.562C301.719 127.35 301.658 128.073 301.586 128.17C301.478 128.314 281.065 140.118 276.727 142.544C274.762 143.643 274.492 143.621 271.798 142.136C260.991 136.177 260.602 135.945 260.542 135.411C260.491 134.961 260.436 134.916 260.048 135C259.499 135.12 258.912 134.86 255.698 133.072C254.302 132.294 253.12 131.659 253.071 131.659C253.023 131.659 252.983 131.999 252.983 132.414C252.983 132.94 252.888 133.241 252.67 133.405C252.497 133.534 247.921 136.166 242.501 139.255C226.402 148.427 220.908 151.604 220.92 151.732C220.926 151.799 224.038 153.639 227.836 155.822C232.514 158.51 234.794 159.909 234.903 160.159C234.992 160.362 235.064 161.323 235.064 162.293C235.064 163.879 235.113 164.15 235.547 164.973C235.866 165.576 236.034 166.164 236.04 166.697C236.049 167.386 235.971 167.578 235.512 168.002C235.217 168.276 234.715 168.597 234.398 168.715C233.696 168.976 232.327 168.974 231.488 168.711L230.869 168.516L226.895 170.789L222.921 173.062L222.945 173.946C222.972 174.938 222.619 175.507 221.681 175.985C219.837 176.925 216.559 175.975 215.863 174.3C215.662 173.816 215.049 173.427 210.522 170.904C206.386 168.598 205.214 168.016 204.389 167.859C201.994 167.401 200.781 165.794 201.708 164.305C202.011 163.818 202.09 163.376 202.132 161.954C202.18 160.32 202.213 160.178 202.631 159.826C202.877 159.619 204.732 158.521 206.752 157.386C208.773 156.252 210.531 155.238 210.659 155.134C210.892 154.946 210.337 154.616 200.716 149.228C198.935 148.231 198.888 148.19 198.834 147.574L198.778 146.942L195.911 148.611C189.919 152.101 186.809 153.803 186.425 153.803C186.207 153.803 184.905 153.185 183.533 152.431C179.844 150.402 179.181 150.006 179.035 149.748C178.963 149.62 178.874 147.392 178.837 144.797L178.771 140.08H177.38C173.771 140.08 170.099 138.549 166.558 135.568C164.61 133.928 163.41 132.6 162.391 130.957C162.019 130.357 161.697 129.844 161.675 129.817C161.653 129.791 159.747 130.861 157.438 132.195C154.385 133.96 153.096 134.622 152.709 134.622C152.336 134.622 151.136 134.045 148.689 132.69L145.201 130.758L145.085 129.376C145.022 128.616 144.961 124.819 144.951 120.937C144.938 116.192 144.871 113.881 144.747 113.881C144.645 113.881 141.424 115.666 137.589 117.847C133.755 120.029 130.452 121.891 130.25 121.985C129.967 122.117 129.75 122.096 129.299 121.895C128.381 121.485 123.17 118.585 122.771 118.261C122.453 118.004 122.398 117.693 122.293 115.589C122.228 114.279 122.175 112.166 122.175 110.893V108.579H121.033C119.5 108.579 116.728 107.947 114.921 107.186C111.288 105.656 107.302 102.3 105.411 99.1821L104.773 98.1284L101.989 99.7864C98.5612 101.828 96.2083 103.121 95.9187 103.121C95.663 103.121 89.3066 99.638 88.7111 99.1717C88.3157 98.862 88.3074 98.7846 88.284 95.1015C88.2709 93.0365 88.2103 89.4342 88.1496 87.0963L88.0392 82.8454L86.5161 83.7372C85.6784 84.2278 83.2604 85.6022 81.1429 86.7915C77.8909 88.6181 77.214 88.9405 76.7864 88.8659C76.5081 88.8176 73.8461 87.4325 70.8708 85.788C64.7406 82.4 62.6991 81.2691 62.6496 81.2346C62.6306 81.2214 62.5702 79.9768 62.5152 78.4688L62.415 75.7271L58.4729 77.9379C56.3047 79.1538 52.4745 81.3031 49.9613 82.7139C47.4482 84.1247 45.4001 85.3452 45.4099 85.4259C45.4198 85.5067 46.3874 86.1043 47.5602 86.7536C54.588 90.6457 68.6684 98.4659 71.6433 100.129C73.5651 101.204 77.5566 103.427 80.5132 105.07C87.3007 108.842 97.7742 114.679 105.421 118.951C108.673 120.768 114.398 123.961 118.143 126.045C123.947 129.276 131.495 133.492 153.175 145.613C155.195 146.742 165.718 152.638 176.559 158.715C187.4 164.792 197.479 170.442 198.958 171.27C204.271 174.247 212.801 179.044 215.131 180.365C216.437 181.105 217.825 181.853 218.214 182.026C219.108 182.423 220.189 182.428 221.064 182.039C221.437 181.874 230.243 176.834 240.633 170.84C263.418 157.695 282.205 146.867 288.642 143.169C291.254 141.669 298.592 137.436 304.948 133.763C316.587 127.037 351.084 107.161 355.363 104.716C356.629 103.992 357.596 103.347 357.513 103.281C357.355 103.158 346.778 97.259 333.888 90.1062C329.748 87.8092 324.749 85.0337 322.778 83.9384C320.807 82.843 316.09 80.2308 312.295 78.1334C308.501 76.0359 304.933 74.0612 304.366 73.7449L303.336 73.1699V78.8377ZM197.419 74.4793C196.294 75.1085 187.472 80.1004 177.813 85.5727C168.155 91.0449 157.25 97.2143 153.579 99.2826C149.909 101.351 146.929 103.105 146.957 103.181C147.013 103.331 149.05 104.486 157.654 109.249C160.759 110.968 167.331 114.632 172.258 117.392C181.596 122.621 185.491 124.768 185.873 124.895C185.997 124.937 186.451 124.765 186.883 124.514C187.315 124.263 192.184 121.475 197.703 118.32C203.222 115.164 210.56 110.968 214.01 108.995C220.284 105.407 234.982 97.0591 237.377 95.723C238.076 95.3328 238.648 94.9867 238.648 94.9537C238.648 94.9208 235.138 92.9378 230.848 90.5473C226.558 88.1567 220.934 85.0141 218.349 83.5636C209.648 78.6798 199.892 73.3354 199.678 73.3354C199.56 73.3354 198.544 73.8502 197.419 74.4793ZM106.182 74.9196C104.988 75.5473 104.973 75.5642 104.973 76.2296C104.973 76.6004 105.033 76.9332 105.107 76.9691C105.181 77.0051 105.786 76.7252 106.451 76.3472C107.645 75.6688 107.66 75.651 107.66 74.9655C107.66 74.5836 107.6 74.2739 107.526 74.2775C107.452 74.2809 106.847 74.5699 106.182 74.9196ZM179.874 75.8004C176.856 77.511 172.191 80.1783 149.68 93.0655C139.825 98.7077 131.5 103.461 131.179 103.628L130.597 103.931V111.964C130.597 118.909 130.632 119.985 130.856 119.91C130.999 119.862 133.922 118.218 137.352 116.257C140.782 114.295 143.847 112.559 144.163 112.398L144.738 112.106L144.79 107.46L144.842 102.814L145.47 102.286C145.814 101.996 149.121 100.053 152.816 97.9695C163.297 92.0604 166.86 90.048 174.946 85.4679L182.472 81.2053L182.521 77.8161C182.547 75.9521 182.507 74.4276 182.431 74.4283C182.355 74.429 181.204 75.0466 179.874 75.8004ZM216.429 77.6176V78.9371L217.593 78.2908C218.234 77.9354 218.758 77.5972 218.758 77.5395C218.758 77.4316 216.729 76.2983 216.536 76.2983C216.477 76.2983 216.429 76.892 216.429 77.6176ZM64.1568 78.4203L64.2069 80.4023L66.6894 81.7811C68.0549 82.5394 69.2063 83.1599 69.2483 83.1599C69.2902 83.1599 69.302 82.2717 69.2744 81.1858L69.2242 79.2119L66.9844 77.9838C65.7524 77.3084 64.601 76.6845 64.4255 76.5971C64.1258 76.4479 64.1094 76.5578 64.1568 78.4203ZM89.6413 76.6252C89.5791 76.7127 89.5861 77.5902 89.6569 78.5753C89.8063 80.6584 89.5223 80.3428 92.9221 82.204L94.938 83.3076V81.3219C94.938 79.5998 94.8964 79.3137 94.6244 79.1657C94.452 79.0718 93.2857 78.4259 92.0326 77.7305C90.7104 76.9967 89.7069 76.5327 89.6413 76.6252ZM85.2547 78.7634C83.9205 79.5089 81.6828 80.766 80.2822 81.5568L77.7358 82.9948V84.9617C77.7358 86.0435 77.8019 86.9052 77.8827 86.8765C77.9635 86.848 80.2616 85.5667 82.9896 84.0291L87.9496 81.2338V79.3118C87.9496 78.2548 87.8892 77.394 87.8152 77.3988C87.7412 77.4037 86.5892 78.0178 85.2547 78.7634ZM188.296 81.016C185.191 82.7396 179.789 85.7341 176.29 87.6704L169.929 91.1911L169.882 96.6764L169.835 102.162L174.989 105.01C177.824 106.576 182.789 109.321 186.023 111.111C193.62 115.315 194.154 115.596 194.532 115.596C194.706 115.596 197.264 114.254 200.218 112.613C203.171 110.972 208.491 108.021 212.039 106.055C215.586 104.088 218.59 102.365 218.713 102.225C218.883 102.032 218.937 100.661 218.937 96.6273V91.2849L218.355 90.9066C217.837 90.5704 206.587 84.3404 197.933 79.5978C196.152 78.6218 194.578 77.8631 194.349 77.8699C194.124 77.8767 191.4 79.2923 188.296 81.016ZM218.256 79.5319C216.446 80.5768 216.265 80.7225 216.553 80.8965C217.445 81.4338 223.437 84.7357 223.649 84.8065C223.806 84.8589 224.008 84.6677 224.211 84.2746C224.559 83.604 225.735 82.5391 226.498 82.2029C226.981 81.9908 226.976 81.9872 224.259 80.4853C222.761 79.6575 221.253 78.8412 220.908 78.6712L220.281 78.362L218.256 79.5319ZM189.457 82.1212C186.794 83.6015 181.893 86.3103 178.565 88.1405C175.237 89.9706 172.537 91.5246 172.565 91.5937C172.594 91.6628 174.915 92.973 177.724 94.505C180.532 96.0372 185.274 98.6407 188.26 100.291C191.247 101.941 193.885 103.368 194.124 103.463C194.506 103.614 194.743 103.533 196.13 102.771C198.076 101.703 210.614 94.8369 213.964 93.0055C215.318 92.2649 216.425 91.6238 216.424 91.5809C216.423 91.538 214.63 90.5113 212.438 89.2993C201.615 83.3124 194.504 79.4179 194.407 79.4233C194.347 79.4268 192.12 80.6408 189.457 82.1212ZM70.931 82.1775L70.9355 84.1735L73.4194 85.5381C74.7856 86.2886 75.9526 86.9026 76.0132 86.9026C76.0736 86.9026 76.1231 86.0341 76.1231 84.9728V83.0428L73.7626 81.7369C72.4644 81.0186 71.2951 80.3747 71.1643 80.3061C70.9715 80.2051 70.9275 80.5595 70.931 82.1775ZM96.5507 81.683C96.5507 82.4953 96.5992 83.1599 96.6586 83.1599C96.822 83.1599 99.2353 81.8458 99.236 81.7564C99.2364 81.7135 98.6323 81.3472 97.8937 80.9422L96.5507 80.206V81.683ZM289.885 82.7908C287.969 83.8744 285.972 85.003 285.447 85.299C284.921 85.595 284.541 85.8802 284.601 85.9329C284.828 86.1299 289.809 88.8955 289.861 88.8531C289.891 88.829 289.75 88.5731 289.549 88.2847C288.822 87.2481 289.189 85.6552 290.373 84.6975C291.979 83.3994 295.312 82.8557 297.823 83.4824C298.132 83.5593 298.309 83.5629 298.217 83.4904C298.037 83.3486 293.488 80.8207 293.412 80.8207C293.387 80.8207 291.8 81.7073 289.885 82.7908ZM89.8508 90.1384C89.9511 97.1647 89.9965 98.0805 90.2558 98.3012C90.6062 98.5997 94.8118 100.938 94.998 100.938C95.1756 100.938 94.9267 85.3288 94.7443 85.0183C94.6135 84.7959 90.1047 82.2242 89.8454 82.2242C89.7863 82.2242 89.7886 85.7855 89.8508 90.1384ZM98.6257 83.7403L96.4975 84.9338L96.6274 92.8957C96.6989 97.2748 96.7885 100.885 96.8266 100.918C96.9171 100.997 104.077 96.8732 104.077 96.7422C104.077 96.687 103.875 95.9503 103.629 95.1051C102.513 91.2778 103.702 87.7876 106.55 86.528L107.345 86.1763L104.412 84.5665C102.798 83.6812 101.315 82.8645 101.116 82.752C100.791 82.5676 100.539 82.6674 98.6257 83.7403ZM226.875 83.6407C226.315 83.9532 225.209 85.2307 225.209 85.5647C225.21 85.6574 225.592 85.941 226.06 86.1954C229.207 87.9058 239.707 93.8611 240.037 94.1225C240.426 94.4316 240.44 94.5373 240.441 97.261C240.442 98.8114 240.493 100.547 240.555 101.117L240.668 102.154L241.208 101.99L241.748 101.826L241.621 97.5275C241.501 93.4653 241.468 93.1606 241.024 91.9914C240.765 91.3108 240.173 90.247 239.709 89.6271C238.959 88.628 238.673 88.3984 237.188 87.6017C236.266 87.1076 234.134 85.941 232.449 85.0096C229.519 83.3895 229.344 83.316 228.418 83.3185C227.751 83.3202 227.27 83.4208 226.875 83.6407ZM292.981 85.0055C292.461 85.1668 291.828 85.4666 291.576 85.6719C291.092 86.0658 290.716 86.576 290.833 86.6783C290.872 86.712 291.826 86.5717 292.953 86.3666C294.081 86.1615 295.89 85.8693 296.974 85.7172L298.944 85.4409L298.138 85.1286C296.965 84.6738 294.26 84.6093 292.981 85.0055ZM301.279 85.5615C302.184 87.4467 300.859 89.3038 298.034 90.1086C296.818 90.4555 293.583 90.5077 292.694 90.1949C292.409 90.0948 292.146 90.0393 292.109 90.0717C292.071 90.104 294.199 91.3478 296.837 92.8355C299.475 94.323 303.274 96.4701 305.279 97.6066L308.924 99.6729L310.386 98.8482C311.19 98.3946 312.896 97.4276 314.177 96.6992C315.458 95.9709 316.857 95.1826 317.286 94.9474L318.066 94.5198L316.432 93.6005C313.993 92.2278 314.051 92.2473 314.364 92.8999C315.093 94.4185 314.027 96.2176 311.917 97.0287C309.99 97.7694 306.751 97.7835 304.87 97.0592C303.959 96.7087 302.87 95.8971 302.52 95.3081C302.153 94.6895 302.19 93.3294 302.592 92.67C303.027 91.9589 304.146 91.2224 305.435 90.7992C306.714 90.3795 308.922 90.2247 310.064 90.4748C310.527 90.5763 310.934 90.6343 310.969 90.6038C311.023 90.5565 303.677 86.4095 301.682 85.3612L301.015 85.0102L301.279 85.5615ZM297.512 87.1293C293.57 87.7361 291.868 88.0497 291.868 88.1692C291.868 88.2322 292.314 88.4291 292.86 88.6067C294.086 89.0063 296.219 89.0389 297.609 88.6796C298.629 88.416 299.931 87.4736 299.931 86.9989C299.931 86.8602 299.911 86.7521 299.886 86.7586C299.862 86.7654 298.793 86.932 297.512 87.1293ZM44.944 88.1941C44.944 89.0821 45.0195 89.4398 45.2576 89.682C45.43 89.8573 50.9738 92.9988 57.5769 96.663C75.5152 106.617 85.8111 112.339 90.0103 114.688C96.9345 118.56 112.911 127.48 116.082 129.244C121.215 132.099 133.641 139.037 137.585 141.25C139.606 142.383 148.516 147.367 157.386 152.325C166.256 157.283 175.448 162.426 177.813 163.754C180.179 165.082 183.807 167.118 185.877 168.279C187.946 169.44 192.341 171.909 195.643 173.766C214.534 184.391 218.178 186.395 218.604 186.395C218.902 186.395 218.937 186.259 218.937 185.094V183.794L218.245 183.613C217.865 183.514 215.103 182.054 212.108 180.368C205.27 176.519 199.514 173.285 192.865 169.556C190.007 167.953 181.5 163.18 173.961 158.948C153.006 147.187 149.768 145.374 141.169 140.576C136.783 138.13 130.978 134.89 128.267 133.377C125.557 131.863 117.816 127.549 111.065 123.789C104.314 120.028 97.0166 115.955 94.8484 114.737C90.5405 112.316 68.4835 100.01 59.9064 95.2419C56.9497 93.5982 52.4782 91.1121 49.9698 89.7169C47.4611 88.3218 45.3042 87.1454 45.1764 87.1028C44.9987 87.0434 44.944 87.3005 44.944 88.1941ZM280.779 91.2784C279.472 93.6107 278.468 95.5711 278.549 95.6347C278.631 95.6985 281.036 97.0475 283.894 98.6327C286.752 100.218 292.184 103.25 295.966 105.371C299.748 107.491 302.905 109.169 302.981 109.098C303.057 109.027 304.173 107.144 305.462 104.914L307.805 100.86L307.368 100.548C307.128 100.376 305.659 99.5233 304.103 98.6524C302.548 97.7816 297.324 94.8414 292.495 92.1186C287.666 89.396 283.589 87.139 283.435 87.103C283.224 87.0537 282.573 88.0773 280.779 91.2784ZM108.223 87.553C106.869 87.759 105.82 88.6545 105.239 90.0994C104.814 91.1585 104.796 93.5185 105.203 94.8288C107.214 101.299 114.032 106.722 120.668 107.129L122.175 107.222V103.009C122.175 100.692 122.095 98.4319 121.998 97.9859C121.631 96.3029 120.333 94.0731 119.039 92.9055C118.224 92.1693 110.135 87.6129 109.452 87.505C109.206 87.466 108.653 87.4877 108.223 87.553ZM242.488 90.9001C242.734 91.4451 243.128 93.4774 243.129 94.2067L243.13 94.9337L245.593 96.3372C246.947 97.1092 248.116 97.7641 248.19 97.7927C248.435 97.8873 248.347 93.9491 248.1 93.7679C247.839 93.5754 243.234 91.0173 242.712 90.7742C242.405 90.6314 242.375 90.6485 242.488 90.9001ZM306.247 92.0634C305.514 92.2654 304.909 92.5612 304.5 92.9175C303.877 93.4594 303.655 93.9832 304.113 93.8303C304.245 93.7863 306.079 93.4844 308.189 93.1595C312.36 92.5175 312.432 92.4754 310.212 91.9722C308.833 91.6597 307.609 91.6879 306.247 92.0634ZM171.452 97.0839V101.375L174.095 102.824C178.431 105.201 186.173 109.486 189.943 111.595C191.884 112.681 193.518 113.569 193.575 113.569C193.631 113.569 193.656 111.626 193.63 109.252L193.582 104.934L189.55 102.699C187.333 101.47 182.535 98.8376 178.888 96.8503C175.242 94.8628 172.077 93.1368 171.855 93.0147L171.452 92.7926V97.0839ZM210.864 96.3923C207.469 98.2667 202.595 100.953 200.033 102.361L195.374 104.922L195.326 109.246C195.3 111.624 195.321 113.569 195.373 113.569C195.425 113.569 198.793 111.721 202.857 109.462C206.921 107.204 211.698 104.561 213.472 103.589C215.246 102.618 216.838 101.718 217.011 101.59C217.295 101.379 217.325 100.965 217.325 97.1707C217.325 94.8682 217.26 92.9844 217.18 92.9844C217.101 92.9844 214.258 94.518 210.864 96.3923ZM309.249 94.465C307.623 94.7469 305.99 95.0235 305.62 95.0797C305.251 95.1358 304.948 95.2437 304.948 95.3194C304.948 95.3952 305.395 95.6026 305.941 95.7802C307.155 96.1755 309.296 96.2132 310.65 95.8635C312.164 95.4722 313.772 93.8898 312.609 93.9361C312.387 93.945 310.875 94.183 309.249 94.465ZM51.6841 103.472C51.7473 108.039 51.8491 111.823 51.9106 111.881C51.9718 111.939 56.3763 114.402 61.6983 117.354C74.4242 124.412 86.3256 131.019 96.4041 136.621C100.906 139.124 104.636 141.171 104.692 141.171C104.748 141.171 104.793 137.424 104.793 132.845C104.793 125.789 104.755 124.506 104.538 124.433C104.398 124.387 101.556 122.825 98.222 120.963C86.978 114.684 69.814 105.129 61.6087 100.582C57.1245 98.0963 53.1185 95.8614 52.7065 95.6152C52.2946 95.3691 51.8701 95.1676 51.7635 95.1676C51.6251 95.1676 51.6024 97.5544 51.6841 103.472ZM123.272 96.2203C123.446 96.7991 123.592 97.6629 123.598 98.1398C123.604 98.6165 123.709 99.1236 123.832 99.2666C123.956 99.4098 125.105 100.121 126.386 100.848L128.715 102.17L128.766 100.191C128.794 99.1023 128.751 98.193 128.672 98.1699C128.592 98.1468 127.335 97.4619 125.879 96.6479C124.422 95.8337 123.169 95.1676 123.094 95.1676C123.018 95.1676 123.099 95.6414 123.272 96.2203ZM314.382 98.3255L309.57 101.016L306.809 105.813L304.049 110.611L304.095 117.236L304.142 123.861L307.905 121.735C309.975 120.565 313.845 118.382 316.506 116.884C319.167 115.385 321.485 114.051 321.658 113.918C321.948 113.694 321.971 113.123 321.971 106.16V98.6443L320.691 97.1399C319.986 96.3124 319.362 95.6355 319.302 95.6355C319.243 95.6355 317.029 96.8461 314.382 98.3255ZM233.362 99.6651C227.462 102.99 208.735 113.675 190.312 124.228L186.862 126.204V127.138C186.862 127.652 186.911 128.072 186.971 128.072C187.03 128.072 190.354 126.195 194.357 123.9C206.254 117.082 215.274 111.921 221.177 108.555C224.232 106.812 229.454 103.826 232.78 101.919L238.827 98.4503V97.5887C238.827 97.1148 238.767 96.7293 238.693 96.7319C238.619 96.7346 236.22 98.0545 233.362 99.6651ZM243.266 104.953C243.293 109.392 243.345 113.099 243.383 113.192C243.452 113.362 248.323 115.98 248.388 115.883C248.407 115.854 248.393 112.168 248.357 107.691L248.292 99.5523L245.896 98.2178C244.579 97.4836 243.437 96.883 243.359 96.883C243.281 96.8829 243.239 100.515 243.266 104.953ZM278.07 99.8347V102.474L279.045 102.387C279.956 102.305 280.057 102.331 280.568 102.776L281.116 103.253V106.442C281.116 108.196 281.165 109.833 281.224 110.08C281.312 110.443 281.706 110.736 283.297 111.62C284.377 112.22 285.337 112.735 285.429 112.763C285.527 112.794 285.596 111.867 285.597 110.502C285.597 107.84 285.784 107.351 286.926 107.023C287.808 106.77 288.736 107.047 289.193 107.698C289.504 108.143 289.537 108.513 289.537 111.63L289.538 115.071L290.714 115.724C291.361 116.082 291.977 116.376 292.083 116.376C292.218 116.376 292.24 115.815 292.157 114.544C292.028 112.553 292.161 111.866 292.788 111.285C293.283 110.826 294.218 110.667 294.924 110.922C295.953 111.293 295.989 111.437 295.989 115.224V118.68L298.453 120.05C301.64 121.822 301.723 121.889 301.723 122.688C301.723 123.287 301.959 123.705 302.296 123.705C302.375 123.705 302.44 120.776 302.44 117.195L302.439 110.684L300.155 109.415C298.898 108.718 295.209 106.654 291.957 104.83C283.949 100.338 278.27 97.1949 278.16 97.1949C278.111 97.1949 278.07 98.3827 278.07 99.8347ZM154.967 100.716C152.227 102.197 152.257 102.157 152.318 104.266L152.368 106.006L154.608 107.294C155.84 108.003 157.758 109.082 158.87 109.693L160.893 110.804L162.902 109.745C165.774 108.232 165.539 108.538 165.539 106.318C165.539 104.119 165.76 104.426 163.12 102.963C162.134 102.417 160.41 101.457 159.288 100.83C158.167 100.203 157.159 99.6922 157.048 99.6949C156.938 99.6975 156.001 100.157 154.967 100.716ZM230.047 105.173C220.919 110.412 217.922 112.13 198.823 123.073L187.042 129.823V131.832C187.042 132.938 187.076 133.842 187.117 133.842C187.159 133.842 191.453 131.391 196.659 128.395C213.974 118.433 216.649 116.897 223.596 112.936C227.391 110.771 232.37 107.926 234.661 106.613L238.827 104.224V102.191C238.827 101.073 238.807 100.164 238.783 100.171C238.758 100.179 234.827 102.429 230.047 105.173ZM123.811 105.811C123.823 108.32 123.884 111.945 123.945 113.868L124.056 117.364L126.52 118.735L128.984 120.106L128.962 114.693C128.95 111.716 128.89 108.053 128.828 106.552L128.715 103.823L126.386 102.544C125.105 101.84 123.996 101.261 123.922 101.257C123.848 101.253 123.798 103.302 123.811 105.811ZM155.818 101.964C155.251 102.271 154.789 102.569 154.791 102.626C154.794 102.726 159.849 105.555 160.501 105.822C160.721 105.912 161.138 105.781 161.921 105.375C162.531 105.058 163.03 104.755 163.03 104.701C163.03 104.567 157.535 101.544 157.152 101.466C156.985 101.433 156.384 101.656 155.818 101.964ZM275.427 103.007L274.665 103.492V105.098V106.704L275.337 107.067C275.707 107.268 276.11 107.483 276.233 107.546C276.409 107.637 276.457 107.103 276.457 105.079C276.457 103.659 276.397 102.503 276.323 102.51C276.249 102.517 275.846 102.74 275.427 103.007ZM240.978 103.479L240.53 103.676L240.482 107.767C240.435 111.782 240.442 111.868 240.832 112.327C241.215 112.778 241.228 112.907 241.181 115.815C241.116 119.853 241.101 119.8 242.529 120.579C243.166 120.926 243.718 121.21 243.757 121.21C243.796 121.21 243.856 120.07 243.891 118.676C243.926 117.283 244.016 115.996 244.092 115.817C244.21 115.539 244.061 115.396 243.066 114.833C242.427 114.47 241.856 114.067 241.799 113.936C241.741 113.806 241.694 111.354 241.694 108.488C241.694 105.622 241.634 103.278 241.56 103.279C241.486 103.28 241.224 103.37 240.978 103.479ZM153.891 104.583C153.891 105.128 153.954 105.179 156.266 106.519C157.571 107.275 158.942 108.054 159.312 108.25L159.984 108.604L159.978 107.929L159.973 107.253L157.225 105.736C153.788 103.838 153.891 103.874 153.891 104.583ZM146.366 105.568L146.367 106.474L153.4 110.366C161.262 114.717 181.757 126.151 183.784 127.317C184.506 127.732 185.172 128.072 185.263 128.072C185.354 128.072 185.429 127.687 185.429 127.216C185.429 126.399 185.399 126.344 184.757 125.985C184.387 125.778 182.19 124.559 179.874 123.276C175.976 121.116 174.065 120.051 164.464 114.693C160.683 112.583 146.956 104.969 146.589 104.778C146.421 104.691 146.366 104.885 146.366 105.568ZM353.957 107.217C351.69 108.525 343.022 113.52 334.694 118.318C326.366 123.115 311.932 131.436 302.619 136.808C293.306 142.179 279.678 150.038 272.336 154.271C264.994 158.504 251.89 166.072 243.218 171.088C222.546 183.043 222.385 183.134 221.446 183.445L220.64 183.712L220.588 185.054C220.549 186.068 220.592 186.395 220.767 186.394C220.894 186.393 226.987 182.937 234.307 178.714C241.627 174.49 253.077 167.889 259.752 164.044C266.427 160.199 280.758 151.931 291.599 145.671C315.364 131.949 350.841 111.513 354.978 109.162C357.94 107.479 357.972 107.455 358.083 106.812C358.144 106.454 358.168 105.864 358.136 105.501L358.078 104.839L353.957 107.217ZM269.324 106.562C268.225 107.237 268.035 107.42 268.035 107.81C268.035 108.061 268.074 108.267 268.12 108.267C268.167 108.267 268.812 107.941 269.554 107.543C270.799 106.874 270.902 106.778 270.902 106.295C270.902 106.007 270.837 105.772 270.758 105.772C270.678 105.772 270.033 106.128 269.324 106.562ZM233.362 109.034C230.405 110.731 222.544 115.238 215.891 119.051C209.239 122.863 200.026 128.154 195.419 130.809L187.042 135.635L187.156 143.666C187.219 148.084 187.285 151.714 187.303 151.735C187.335 151.771 192.615 148.805 196.852 146.372L198.868 145.214V143.827C198.868 143.064 198.948 142.256 199.046 142.033C199.167 141.754 199.984 141.199 201.641 140.268L204.058 138.91L204.062 135.401C204.065 131.566 204.185 131.035 205.14 130.602C205.797 130.304 206.9 130.469 207.452 130.948C207.908 131.345 207.919 131.406 208.007 133.99L208.096 136.627L209.369 135.934L210.641 135.24L210.765 132.684C210.833 131.278 210.836 129.945 210.771 129.721C210.707 129.497 210.711 128.917 210.781 128.432C210.954 127.224 211.576 126.668 212.755 126.668C213.438 126.668 213.684 126.751 214.113 127.124L214.637 127.58V130.243C214.637 131.708 214.678 132.906 214.729 132.906C214.779 132.906 215.384 132.58 216.072 132.182L217.325 131.457V127.966C217.325 123.969 217.429 123.535 218.477 123.154C219.27 122.866 219.549 122.868 220.274 123.167C221.156 123.531 221.267 123.916 221.267 126.598C221.267 127.923 221.322 129.008 221.39 129.008C221.457 129.008 222.098 128.674 222.814 128.267L224.116 127.526L224.169 123.826L224.223 120.125L224.681 119.727C225.544 118.977 227.029 119.068 227.664 119.909C227.928 120.26 228.003 120.779 228.076 122.778L228.166 125.219L229.42 124.497L230.674 123.775L230.764 120.001L230.853 116.227L231.333 115.81C232.024 115.208 233.252 115.195 233.926 115.783C234.514 116.295 234.674 117.11 234.693 119.689L234.706 121.52L235.916 120.846L237.125 120.172L237.247 116.547C237.379 112.646 237.454 112.348 238.389 111.978L238.827 111.804V108.866C238.827 107.25 238.807 105.932 238.783 105.938C238.758 105.944 236.319 107.337 233.362 109.034ZM162.71 106.64C161.643 107.248 161.549 107.381 161.629 108.171L161.686 108.731L162.806 108.089C163.897 107.464 163.926 107.429 163.926 106.765C163.926 106.39 163.866 106.087 163.792 106.092C163.718 106.096 163.231 106.343 162.71 106.64ZM146.365 110.127V112.134L148.945 113.554C150.364 114.334 151.573 114.973 151.633 114.973C151.692 114.973 151.741 114.105 151.741 113.044V111.115L150.98 110.676C150.561 110.435 149.351 109.761 148.292 109.178L146.365 108.119V110.127ZM274.665 111.453C274.665 114.324 274.684 114.489 275.016 114.581C275.209 114.634 275.572 114.889 275.822 115.149C276.24 115.581 276.278 115.743 276.278 117.09C276.278 117.898 276.317 118.559 276.366 118.559C276.414 118.559 277.019 118.244 277.71 117.859L278.966 117.158V116.065C278.966 115.174 278.914 114.973 278.683 114.973C278.528 114.973 278.165 114.768 277.877 114.517L277.353 114.061V111.902V109.742L276.125 109.083C275.449 108.72 274.845 108.423 274.781 108.423C274.717 108.423 274.665 109.787 274.665 111.453ZM269.368 109.322L268.125 110.064L268.077 113.839L268.029 117.613L268.525 117.881C269.552 118.437 269.64 118.647 269.644 120.561C269.646 121.533 269.711 122.305 269.787 122.276C269.864 122.247 270.509 121.908 271.22 121.522L272.512 120.821L272.513 119.772C272.515 118.785 272.486 118.71 272.022 118.501C271.751 118.379 271.368 118.125 271.171 117.935C270.83 117.608 270.813 117.371 270.813 113.085C270.813 110.607 270.767 108.579 270.712 108.579C270.656 108.579 270.051 108.913 269.368 109.322ZM48.7966 110.262L47.9007 110.852L47.8501 112.596L47.7994 114.34L49.3732 115.227C50.2387 115.715 58.0025 120.021 66.626 124.796C82.9848 133.853 109.305 148.463 119.308 154.039C122.511 155.824 125.978 157.753 127.013 158.325C128.048 158.897 133.41 161.879 138.929 164.951C144.448 168.024 151.826 172.129 155.325 174.075C173.386 184.12 184.011 190.042 188.206 192.402C208.922 204.06 216.792 208.458 217.488 208.769C217.824 208.919 218.559 209.078 219.121 209.122C221.084 209.277 219.254 210.243 244.692 195.624C246.882 194.365 248.676 193.289 248.679 193.234C248.681 193.178 247.466 192.452 245.979 191.621L243.276 190.109L242.888 190.423C242.143 191.026 240.994 191.307 239.275 191.307C237.254 191.307 236.257 190.998 235.269 190.066C234.079 188.942 234.106 187.708 235.342 186.632C235.786 186.246 235.887 186.07 235.728 185.959C234.742 185.274 230.281 182.956 230.049 183.009C229.888 183.046 228.642 183.724 227.282 184.517C225.249 185.701 224.852 185.992 225.053 186.152C225.188 186.26 226.71 187.141 228.434 188.111C232.909 190.629 232.556 190.226 232.556 192.803V194.941L233.183 195.752C233.878 196.651 233.984 197.337 233.518 197.917C232.671 198.969 229.618 198.985 228.975 197.94C228.79 197.64 228.78 197.64 228.163 197.957C227.468 198.314 227.454 198.355 227.741 199.188C228.325 200.886 225.828 202.113 223.654 201.197L222.882 200.871L222.254 201.209C221.908 201.395 221.626 201.594 221.626 201.652C221.627 201.709 221.788 201.966 221.984 202.224C223.024 203.591 221.848 205.109 219.75 205.109C218.862 205.109 218.371 204.947 217.745 204.452C217.436 204.207 217.286 204.18 216.995 204.315C216.795 204.409 216.467 204.485 216.266 204.485C215.939 204.485 201.731 196.379 200.078 195.249C199.688 194.983 199.406 194.654 199.406 194.468C199.406 194.291 199.129 193.912 198.791 193.627C198.454 193.341 198.149 192.948 198.114 192.753C198.005 192.146 198.288 191.347 198.76 190.929C199.009 190.708 199.437 190.3 199.712 190.022C199.987 189.743 202.429 188.247 205.14 186.698C207.85 185.148 210.067 183.821 210.067 183.748C210.067 183.627 207.624 182.213 201.018 178.512C199.589 177.711 195.114 175.197 191.073 172.926L183.727 168.796L183.637 173.712L183.547 178.628L180.002 180.662C176.793 182.503 176.415 182.681 176.024 182.526C175.787 182.432 174.036 181.485 172.134 180.422C170.231 179.359 163.111 175.38 156.311 171.58C137.448 161.038 126.779 155.102 118.412 150.493C114.223 148.186 110.353 146.038 109.811 145.721L108.825 145.144L108.774 143.469C108.746 142.548 108.683 141.795 108.634 141.795C108.585 141.795 108.004 142.111 107.343 142.497C106.68 142.884 105.931 143.199 105.671 143.199C105.15 143.199 105.22 143.236 90.727 135.168C75.681 126.792 66.2707 121.565 58.1455 117.07C54.1218 114.844 50.6344 112.869 50.3955 112.68C50.0008 112.368 49.9613 112.215 49.9613 111.003C49.9613 110.27 49.901 109.671 49.8269 109.671C49.7529 109.672 49.2894 109.938 48.7966 110.262ZM262.794 110.404C261.772 111.02 261.585 111.202 261.585 111.584C261.585 112.111 261.562 112.116 262.974 111.312C263.885 110.794 264.074 110.61 264.132 110.182C264.169 109.901 264.156 109.672 264.102 109.673C264.048 109.675 263.459 110.004 262.794 110.404ZM153.315 113.296C153.345 114.004 153.386 114.671 153.407 114.778C153.429 114.896 153.962 114.673 154.751 114.215L156.058 113.457L154.751 112.773C154.032 112.396 153.402 112.07 153.352 112.048C153.302 112.026 153.285 112.588 153.315 113.296ZM262.794 113.066L261.585 113.771V119.289C261.585 125.402 261.542 125.672 260.528 126.038C259.807 126.298 258.592 126.16 258.141 125.768C257.573 125.274 257.472 124.442 257.467 120.223C257.465 118.007 257.4 116.218 257.322 116.246C257.245 116.275 256.64 116.611 255.979 116.994L254.775 117.69V119.597C254.775 121.365 254.745 121.536 254.362 121.924C254.043 122.245 253.739 122.36 253.043 122.418C252.234 122.485 252.077 122.445 251.552 122.038C251.07 121.662 250.95 121.438 250.877 120.772C250.828 120.327 250.756 119.963 250.719 119.963C250.549 119.963 248.145 121.424 248.145 121.528C248.145 121.592 249.899 122.612 252.043 123.794C254.186 124.977 256.764 126.423 257.771 127.008C258.778 127.593 259.646 128.072 259.701 128.072C259.756 128.072 261.129 127.299 262.753 126.354L265.706 124.637V123.465C265.706 122.395 265.671 122.283 265.303 122.16C265.081 122.086 264.738 121.869 264.541 121.678C264.201 121.347 264.183 121.11 264.183 116.918C264.183 114.491 264.142 112.473 264.093 112.433C264.044 112.393 263.459 112.678 262.794 113.066ZM282.908 113.967V114.837L283.625 114.486C284.019 114.293 284.342 114.087 284.342 114.029C284.342 113.97 284.019 113.737 283.625 113.51L282.908 113.097V113.967ZM256.074 114.293C254.951 114.91 254.775 115.068 254.775 115.458C254.775 115.705 254.816 115.908 254.867 115.908C254.918 115.908 255.522 115.582 256.211 115.184C257.274 114.569 257.463 114.392 257.463 114.014C257.463 113.769 257.443 113.571 257.418 113.574C257.394 113.576 256.789 113.9 256.074 114.293ZM146.545 121.032C146.545 124.879 146.596 128.456 146.659 128.98L146.774 129.935L149.123 131.237C150.415 131.954 151.554 132.581 151.655 132.632C151.902 132.757 151.774 116.997 151.525 116.731C151.336 116.529 146.827 114.037 146.649 114.037C146.592 114.037 146.545 117.185 146.545 121.032ZM155.347 115.566L153.309 116.766L153.426 124.633C153.491 128.96 153.574 132.526 153.609 132.557C153.681 132.619 155.284 131.743 158.282 130.002C161.221 128.294 160.959 128.628 160.485 127.194C159.898 125.416 159.906 122.464 160.503 121.157C161.038 119.982 162.204 118.743 163.158 118.335C163.571 118.158 163.909 117.978 163.909 117.936C163.908 117.848 157.839 114.475 157.562 114.409C157.465 114.385 156.468 114.906 155.347 115.566ZM283.894 115.997C282.946 116.567 282.48 117.122 283.373 116.618C285.379 115.484 285.452 115.432 285.014 115.449C284.89 115.454 284.386 115.7 283.894 115.997ZM47.8111 117.064C47.8111 117.615 47.863 118.184 47.9266 118.328C47.9903 118.472 48.6153 118.911 49.3154 119.303C50.6365 120.043 73.5773 132.765 80.9612 136.853C83.2772 138.135 87.5106 140.486 90.3686 142.077C93.2267 143.668 98.8712 146.805 102.912 149.048C119.28 158.135 143.06 171.363 154.071 177.508C167.172 184.818 168.476 185.547 175.125 189.278C178.772 191.324 183.973 194.239 186.683 195.756C189.393 197.273 197.336 201.727 204.333 205.654C211.331 209.58 217.4 212.927 217.82 213.091C218.845 213.492 220.46 213.492 221.501 213.091C221.941 212.922 227.208 209.956 233.207 206.5C239.206 203.045 246.029 199.12 248.37 197.779L252.626 195.342L251.483 194.708L250.341 194.074L236.703 201.912C229.201 206.223 222.68 209.915 222.21 210.117C221.497 210.423 221.076 210.484 219.654 210.486C217.508 210.489 217.139 210.36 213.664 208.398C212.179 207.559 207.093 204.709 202.362 202.065C197.632 199.421 191.866 196.193 189.55 194.891C183.586 191.537 154.247 175.138 147.763 171.532C144.777 169.872 138.383 166.315 133.553 163.626C124.801 158.755 119.261 155.677 95.6547 142.577C88.8052 138.775 78.0807 132.823 71.8225 129.349C59.0507 122.259 51.2632 117.946 49.1998 116.82L47.8111 116.062V117.064ZM289.538 121.455C289.538 124.319 289.468 126.179 289.354 126.365C289.094 126.787 288.24 127.136 287.468 127.136C286.964 127.136 286.676 127.015 286.205 126.606L285.596 126.076V121.616C285.596 119.163 285.555 117.156 285.504 117.156C285.454 117.156 284.849 117.482 284.16 117.88L282.908 118.605V124.281V129.957L282.468 130.34C281.946 130.795 280.699 130.866 279.86 130.488C279.02 130.11 278.933 129.552 278.997 124.99C279.044 121.727 279.009 120.91 278.828 120.971C278.703 121.013 278.121 121.33 277.535 121.677L276.47 122.306L276.419 127.984L276.368 133.661L275.936 134.061C275.16 134.78 273.764 134.787 272.948 134.077L272.515 133.7V129.171C272.515 126.679 272.471 124.641 272.418 124.641C272.365 124.641 271.72 124.975 270.985 125.382L269.649 126.123L269.648 128.004C269.648 129.853 269.64 129.892 269.155 130.293C268.526 130.813 267.858 130.955 267.081 130.732C266.227 130.487 265.858 130.075 265.751 129.248C265.7 128.858 265.628 128.54 265.591 128.54C265.553 128.54 264.958 128.866 264.269 129.265C263.154 129.911 263.05 130.011 263.33 130.181C264.633 130.968 274.28 136.243 274.518 136.298C274.797 136.363 278.314 134.391 294.15 125.288C296.933 123.689 299.191 122.332 299.167 122.274C299.128 122.175 296.407 120.587 296.277 120.587C296.244 120.587 296.172 121.024 296.117 121.56C296.03 122.394 295.936 122.594 295.462 122.963C294.364 123.817 292.624 123.407 292.243 122.205C292.147 121.903 292.109 120.941 292.159 120.068C292.208 119.195 292.183 118.406 292.103 118.314C291.938 118.124 289.791 116.844 289.638 116.844C289.583 116.844 289.538 118.919 289.538 121.455ZM250.027 117.634C249.368 118.001 248.984 118.012 248.402 117.681C248.156 117.54 247.913 117.462 247.863 117.506C247.812 117.55 247.794 118.082 247.823 118.689L247.876 119.792L249.345 118.981C250.592 118.293 250.816 118.104 250.824 117.741C250.835 117.241 250.751 117.23 250.027 117.634ZM331.289 124.508C325.524 127.842 320.789 130.622 320.768 130.686C320.73 130.796 331.484 136.961 331.715 136.961C331.777 136.961 331.827 135.575 331.827 133.881C331.827 130.366 331.918 130.058 333.197 129.246C333.605 128.986 336.848 127.125 340.402 125.109C343.956 123.093 346.867 121.409 346.87 121.366C346.875 121.3 343.207 119.182 342.13 118.629C341.812 118.466 340.59 119.129 331.289 124.508ZM350.886 120.794C348.731 122.023 344.59 124.392 341.682 126.059C338.775 127.726 336.008 129.307 335.533 129.572L334.67 130.053L337.773 131.821C339.48 132.793 340.997 133.59 341.145 133.591C341.545 133.596 361.438 122.121 361.269 121.984C360.894 121.678 355.195 118.559 355.011 118.559C354.897 118.559 353.04 119.565 350.886 120.794ZM277.679 119.568C276.59 120.204 276.094 120.587 276.359 120.587C276.57 120.587 278.966 119.132 278.966 119.004C278.966 118.814 278.987 118.804 277.679 119.568ZM164.174 119.481C162.332 120.21 161.314 122.593 161.743 125.175C162.311 128.593 164.461 131.887 168.024 134.8C170.916 137.164 174.053 138.484 177.145 138.637L178.807 138.719L178.728 134.292C178.642 129.51 178.571 129.075 177.575 127.223C176.33 124.906 175.945 124.572 171.981 122.366C166.297 119.203 166.256 119.183 165.551 119.187C165.199 119.188 164.58 119.321 164.174 119.481ZM241.157 123.299C241.157 124.209 241.203 124.953 241.26 124.953C241.52 124.953 243.843 123.451 243.844 123.282C243.845 123.104 242.014 121.931 241.429 121.736C241.196 121.658 241.157 121.883 241.157 123.299ZM235.918 122.509L234.71 123.16L234.708 125.924L234.706 128.689L235.826 128.06C236.442 127.714 237.008 127.377 237.085 127.311C237.161 127.245 237.201 125.991 237.174 124.525L237.125 121.859L235.918 122.509ZM271.049 123.311C269.856 124.007 269.289 124.482 269.891 124.282C270.311 124.141 272.289 122.961 272.425 122.771C272.646 122.46 272.221 122.627 271.049 123.311ZM247.793 123.433C247.796 123.54 248.945 124.294 250.346 125.109L252.894 126.59L252.995 128.193C253.063 129.29 253.176 129.862 253.353 130.007C253.671 130.269 258.652 133.062 258.8 133.062C258.859 133.062 258.885 132.214 258.857 131.178L258.807 129.293L253.431 126.272C250.475 124.611 247.995 123.248 247.921 123.245C247.847 123.241 247.79 123.325 247.793 123.433ZM357.625 126.012C355.115 127.451 350.513 130.083 347.398 131.86C344.284 133.637 341.602 135.22 341.439 135.377C341.168 135.638 341.146 136.585 341.188 146.357L341.234 157.053L349.656 152.267C354.288 149.634 359.046 146.921 360.228 146.236L362.379 144.992V134.193C362.379 128.253 362.336 123.394 362.283 123.394C362.231 123.394 360.134 124.572 357.625 126.012ZM290.12 129.281C284.773 132.347 279.311 135.475 277.98 136.232L275.561 137.609V139.545V141.481L276.771 140.804C277.436 140.431 282.052 137.78 287.029 134.912C292.006 132.045 296.986 129.184 298.094 128.556L300.11 127.414V125.56C300.11 124.54 300.05 123.706 299.976 123.706C299.902 123.706 295.467 126.215 290.12 129.281ZM242.456 125.983L241.157 126.693V128.837C241.157 130.883 241.138 130.996 240.738 131.323C239.711 132.163 238.093 132.018 237.529 131.035C237.356 130.735 237.215 130.157 237.215 129.751L237.215 129.013L235.966 129.673L234.717 130.333L234.711 132.493L234.706 134.653L234.097 135.183C233.406 135.784 232.564 135.886 231.656 135.478C230.941 135.156 230.764 134.802 230.764 133.696C230.764 133.176 230.723 132.75 230.672 132.75C230.622 132.75 230.023 133.073 229.341 133.467L228.102 134.185L228.044 136.415C227.979 138.926 227.874 139.153 226.63 139.478C225.802 139.693 225.133 139.56 224.566 139.067C224.191 138.74 224.134 138.545 224.134 137.595V136.499L222.7 137.292L221.267 138.084V140.237V142.391L220.715 142.795C219.965 143.344 218.64 143.363 217.934 142.835C217.526 142.529 217.431 142.306 217.341 141.441L217.235 140.411L215.936 141.131L214.637 141.852V143.936C214.637 145.941 214.62 146.034 214.197 146.402C213.86 146.695 213.568 146.785 212.951 146.785C211.437 146.785 210.908 146.353 210.746 144.986L210.647 144.16L209.147 145.028C207.824 145.795 207.684 145.919 207.961 146.084C208.134 146.186 209.303 146.849 210.559 147.556L212.842 148.842L214.053 148.178C215.568 147.348 230.983 138.579 236.093 135.641C238.187 134.437 242.359 132.049 245.365 130.333C248.371 128.618 250.83 127.179 250.83 127.136C250.828 127.061 248.247 125.551 247.94 125.447C247.856 125.418 247.787 125.818 247.787 126.335C247.787 127.085 247.705 127.357 247.383 127.683C246.637 128.439 244.681 128.354 244.155 127.544C244.037 127.363 243.899 126.778 243.848 126.244L243.755 125.274L242.456 125.983ZM106.406 133.365C106.406 137.658 106.451 141.171 106.506 141.171C106.56 141.171 107.097 140.88 107.699 140.525L108.793 139.878L108.674 133.312C108.54 125.907 108.725 126.773 107.093 125.919L106.406 125.559V133.365ZM229.284 126.282L228.076 126.987V129.731V132.474L228.479 132.245C228.701 132.118 229.306 131.789 229.823 131.512L230.764 131.008V128.292C230.764 126.799 230.703 125.577 230.628 125.577C230.553 125.577 229.948 125.894 229.284 126.282ZM263.108 127.847C261.278 128.919 260.584 129.413 260.544 129.669C260.49 130.013 260.499 130.011 260.902 129.613C261.13 129.389 262.343 128.627 263.599 127.92C264.855 127.213 265.838 126.572 265.783 126.496C265.66 126.322 266.012 126.144 263.108 127.847ZM179.639 127.558C179.883 128.141 180.136 129.174 180.202 129.853L180.322 131.088L182.797 132.465C184.159 133.222 185.308 133.842 185.351 133.842C185.394 133.842 185.425 132.947 185.42 131.854L185.41 129.865L182.43 128.228C180.792 127.327 179.393 126.57 179.323 126.544C179.253 126.519 179.395 126.975 179.639 127.558ZM110.232 129.188C110.296 129.973 110.348 133.712 110.348 137.498V144.381L115.59 147.249C118.472 148.826 122.363 150.972 124.236 152.017C126.108 153.062 133.688 157.284 141.079 161.4C148.471 165.515 157.26 170.412 160.611 172.282C167.066 175.885 174.796 180.18 175.17 180.373C175.348 180.464 175.394 178.81 175.394 172.312V164.136L171.497 161.95C169.353 160.747 164.818 158.202 161.417 156.293C155.951 153.225 150.045 149.921 124.952 135.894C114.836 130.239 110.348 127.76 110.228 127.76C110.166 127.76 110.168 128.402 110.232 129.188ZM244.651 132.383C237.031 136.769 220.939 145.947 216.656 148.35L213.748 149.982L213.745 151.597C213.741 152.947 213.784 153.198 214.001 153.125C214.144 153.078 215.092 152.567 216.107 151.991C217.257 151.337 218.221 150.906 218.669 150.844C219.211 150.769 222.517 148.955 232.287 143.372C239.383 139.316 246.575 135.215 248.27 134.257L251.352 132.516L251.361 130.528C251.367 129.434 251.351 128.546 251.326 128.554C251.301 128.561 248.298 130.285 244.651 132.383ZM222.566 130.113L221.267 130.889V133.631V136.373L221.76 136.094C222.031 135.941 222.676 135.572 223.193 135.275L224.134 134.733V132.026C224.134 130.538 224.073 129.323 223.999 129.328C223.926 129.333 223.28 129.686 222.566 130.113ZM354.245 129.956C352.324 130.284 349.984 131.606 347.834 133.575C344.85 136.309 343.295 139.347 343.295 142.442C343.295 145.225 344.683 146.913 347.387 147.418C348.712 147.666 350.203 147.41 352.048 146.617C353.252 146.101 353.887 145.681 355.299 144.47C358.708 141.546 360.497 138.257 360.497 134.914C360.497 133.086 360.047 132.003 358.872 131.005C357.611 129.933 356.221 129.618 354.245 129.956ZM262.122 133.176V135.038L267.543 138.051C270.524 139.709 273.145 141.167 273.366 141.292L273.769 141.519V139.582V137.644L268.192 134.561C265.124 132.865 262.503 131.441 262.368 131.396C262.168 131.329 262.122 131.661 262.122 133.176ZM353.479 131.718C352.26 132.154 350.642 133.155 350.642 133.473C350.642 133.599 350.771 133.919 350.929 134.185C351.329 134.858 351.205 136.503 350.684 137.435C349.841 138.942 348.107 140.024 346.27 140.189C345.115 140.293 345.092 140.324 344.956 141.984C344.777 144.174 345.599 145.533 347.339 145.925C351.148 146.782 357.072 142.142 358.538 137.153C359.148 135.079 358.956 133.219 358.035 132.266C357.081 131.279 355.302 131.065 353.479 131.718ZM318.561 131.943L318.138 132.241L319.652 133.096C320.484 133.566 323.531 135.294 326.423 136.937C329.315 138.58 331.759 139.924 331.855 139.924C331.95 139.924 332.004 139.696 331.973 139.417C331.923 138.968 331.723 138.798 330.214 137.926C327.047 136.094 319.394 131.782 319.189 131.713C319.076 131.676 318.794 131.779 318.561 131.943ZM333.584 137.207C333.643 141.92 333.613 142.107 332.821 142.107C332.603 142.107 331.544 141.605 330.468 140.991C322.126 136.233 316.657 133.169 316.505 133.168C316.406 133.167 315.053 133.888 313.499 134.77L310.673 136.374L310.722 138.574L310.772 140.774L315.476 143.451C319.178 145.559 327.715 150.352 339.129 156.732L339.532 156.958L339.523 146.452L339.513 135.947L336.593 134.349C334.987 133.469 333.64 132.75 333.601 132.75C333.561 132.75 333.554 134.756 333.584 137.207ZM180.369 140.819C180.395 145.172 180.448 148.811 180.486 148.904C180.559 149.079 185.431 151.828 185.521 151.744C185.549 151.719 185.527 148.064 185.473 143.623L185.375 135.549L183.041 134.29C181.757 133.598 180.62 133.002 180.515 132.967C180.378 132.922 180.336 135.223 180.369 140.819ZM215.923 133.934L214.637 134.65V137.365C214.637 138.858 214.675 140.08 214.721 140.08C214.767 140.08 215.372 139.76 216.065 139.37L217.325 138.661V135.94C217.325 134.443 217.299 133.218 217.267 133.218C217.235 133.218 216.63 133.54 215.923 133.934ZM347.998 135.675C346.834 137.041 345.839 138.603 346.028 138.767C346.281 138.988 347.769 138.33 348.408 137.714C349.413 136.746 349.83 135.555 349.458 134.712C349.271 134.289 349.059 134.429 347.998 135.675ZM209.216 137.682L208.007 138.379V140.25C208.007 142.02 207.983 142.141 207.574 142.498C206.256 143.645 204.065 142.86 204.065 141.24V140.554L202.714 141.321C201.971 141.743 201.36 142.136 201.356 142.194C201.352 142.252 202.421 142.921 203.731 143.681C205.874 144.923 206.149 145.042 206.478 144.86C206.678 144.749 207.708 144.172 208.767 143.578L210.692 142.497L210.693 139.729C210.694 138.206 210.634 136.966 210.56 136.973C210.486 136.979 209.882 137.298 209.216 137.682ZM308.084 137.909C307.69 138.168 307.301 138.438 307.22 138.508C307.1 138.613 308.695 139.612 308.983 139.612C309.031 139.612 309.07 139.121 309.07 138.52C309.07 137.92 309.009 137.431 308.935 137.433C308.862 137.435 308.478 137.65 308.084 137.909ZM297.683 143.914C293.752 146.18 290.427 148.128 290.294 148.243C290.093 148.419 290.513 148.708 292.867 150.018L295.68 151.584L297.584 150.538C303.799 147.122 310.398 143.37 310.45 143.224C310.47 143.167 309.214 142.372 307.658 141.457L304.83 139.794L297.683 143.914ZM200.481 145.531V147.396L202.819 148.728C204.106 149.461 205.235 150.06 205.328 150.06C205.426 150.06 205.498 149.273 205.498 148.211V146.362L203.103 145.014C201.786 144.273 200.657 143.666 200.595 143.666C200.532 143.666 200.481 144.506 200.481 145.531ZM313.191 145.616C313.191 147.453 313.19 147.455 311.713 148.267C311.245 148.524 310.862 148.779 310.862 148.833C310.862 148.887 311.547 149.514 312.385 150.225C313.978 151.578 314.19 151.973 313.58 152.453C313.4 152.595 312.09 153.352 310.669 154.136C309.247 154.92 307.562 155.85 306.925 156.203C306.034 156.695 305.589 156.844 305.003 156.844C304.285 156.844 304.149 156.765 302.728 155.535C301.85 154.775 301.116 154.261 300.977 154.308C300.845 154.353 299.658 154.995 298.338 155.734C297.018 156.473 295.841 157.078 295.723 157.078C295.605 157.078 293.218 155.806 290.419 154.251C287.62 152.697 285.236 151.394 285.122 151.355C284.912 151.285 282.024 152.858 282.016 153.047C282.014 153.103 283.605 154.047 285.551 155.143C295.609 160.81 296.877 161.578 297.43 162.337C297.844 162.906 297.96 163.244 297.96 163.886V164.708L304.635 160.875C320.494 151.766 323.769 149.848 323.636 149.747C323.401 149.57 313.354 143.978 313.269 143.978C313.226 143.978 313.191 144.715 313.191 145.616ZM310.235 145.112C309.643 145.47 306.337 147.346 302.888 149.28L296.616 152.797L296.563 153.846C296.534 154.423 296.551 154.894 296.602 154.894C296.652 154.894 297.379 154.509 298.217 154.039C299.651 153.234 299.74 153.152 299.719 152.66C299.706 152.372 299.758 152.049 299.833 151.943C300.01 151.694 307.386 147.425 307.976 147.23C308.325 147.114 308.529 147.152 308.918 147.402C309.19 147.577 309.456 147.721 309.507 147.721C309.558 147.721 310.046 147.473 310.59 147.17L311.578 146.62V145.533C311.578 144.935 311.518 144.45 311.444 144.454C311.37 144.458 310.826 144.755 310.235 145.112ZM207.111 149.189V151.123L209.499 152.463C210.812 153.2 211.941 153.803 212.008 153.803C212.074 153.803 212.128 152.969 212.128 151.949C212.128 150.1 212.127 150.095 211.635 149.815C211.364 149.66 210.236 149.021 209.127 148.394L207.111 147.255V149.189ZM304.908 150.646C303.161 151.653 301.73 152.554 301.727 152.648C301.725 152.741 302.491 153.432 303.429 154.183L305.135 155.549L308.446 153.712C310.268 152.702 311.758 151.823 311.758 151.759C311.758 151.64 308.442 148.922 308.211 148.852C308.141 148.831 306.655 149.638 304.908 150.646ZM287.522 149.769C287.054 150.035 286.671 150.307 286.671 150.373C286.671 150.439 287.175 150.77 287.791 151.109C288.407 151.449 290.262 152.473 291.912 153.385L294.914 155.045V153.99V152.936L291.743 151.147C289.998 150.163 288.527 149.342 288.472 149.321C288.418 149.301 287.99 149.502 287.522 149.769ZM318.741 154.473C315.147 156.552 309 160.092 305.083 162.341L297.96 166.429V167.678V168.927L299.17 168.25C299.835 167.878 304.451 165.237 309.428 162.381C314.405 159.526 320.453 156.067 322.867 154.695C325.282 153.323 327.321 152.151 327.399 152.091C327.527 151.992 327.279 151.823 325.729 150.949C325.279 150.695 325.238 150.716 318.741 154.473ZM218.29 152.478C217.977 152.685 218.003 152.702 218.624 152.706C219.373 152.712 219.455 152.64 218.962 152.411C218.722 152.299 218.534 152.318 218.29 152.478ZM266.269 162.029C258.577 166.468 252.163 170.169 252.016 170.255C251.809 170.376 253.44 171.358 259.357 174.672L266.964 178.932L273.319 175.295C276.815 173.295 283.22 169.629 287.554 167.148C291.888 164.667 295.393 162.58 295.344 162.511C295.295 162.442 294.714 162.079 294.054 161.705C293.394 161.331 290.047 159.436 286.616 157.492C283.186 155.549 280.351 153.959 280.317 153.959C280.282 153.959 273.96 157.59 266.269 162.029ZM216.202 154.397C214.732 154.744 213.612 155.398 213.073 156.226C212.314 157.393 212.675 158.356 214.201 159.236C215.463 159.963 216.258 160.119 218.669 160.114C220.489 160.109 220.979 160.053 221.864 159.747C224.659 158.779 225.368 157.032 223.58 155.522C222.168 154.33 218.718 153.804 216.202 154.397ZM207.648 158.567C205.924 159.55 204.489 160.415 204.461 160.488C204.405 160.633 218.368 168.516 218.668 168.51C218.825 168.506 232.432 160.808 232.777 160.527C232.89 160.435 226.653 156.766 226.383 156.766C226.329 156.766 226.281 157.66 226.276 158.754C226.271 160.003 226.179 160.96 226.028 161.327C225.502 162.612 224.227 163.585 222.172 164.273C220.947 164.682 217.891 164.843 216.414 164.576C214.169 164.171 212.029 162.913 211.349 161.6C211.038 160.999 210.99 160.602 211.011 158.832C211.024 157.696 210.978 156.769 210.909 156.773C210.841 156.776 209.373 157.584 207.648 158.567ZM212.666 160.391C212.668 161.281 214.07 162.44 215.77 162.956C217.17 163.381 220.473 163.34 221.804 162.881C223.033 162.458 224.102 161.704 224.425 161.032C224.863 160.12 224.751 160.004 223.908 160.499C222.511 161.32 221.062 161.646 218.758 161.656C216.37 161.667 214.672 161.304 213.416 160.512C212.679 160.047 212.666 160.045 212.666 160.391ZM230.578 163.513C229.047 164.391 225.923 166.161 223.636 167.448L219.478 169.787L219.477 171.464C219.476 172.385 219.521 173.14 219.578 173.14C219.717 173.14 221.248 172.279 227.852 168.488L233.452 165.273V163.593C233.452 162.668 233.432 161.913 233.407 161.915C233.382 161.916 232.109 162.636 230.578 163.513ZM203.885 163.813L203.975 165.559L210.784 169.344C214.529 171.426 217.654 173.132 217.728 173.135C217.802 173.138 217.862 172.401 217.862 171.498V169.856L216.115 168.874C210.791 165.884 203.923 162.068 203.864 162.068C203.826 162.067 203.836 162.853 203.885 163.813ZM295.003 164.605C293.778 165.347 273.6 176.878 270.152 178.807L267.879 180.079L267.867 190.801C267.861 196.697 267.898 201.522 267.95 201.522C268.001 201.522 271.005 199.826 274.625 197.752C278.244 195.679 284.391 192.166 288.284 189.946C292.177 187.726 295.583 185.702 295.855 185.448L296.347 184.987V174.463C296.347 168.675 296.287 163.943 296.213 163.947C296.139 163.952 295.595 164.248 295.003 164.605ZM177.157 172.789C177.191 176.97 177.241 180.412 177.27 180.437C177.298 180.463 178.381 179.883 179.676 179.149L182.029 177.814L181.982 172.806L181.935 167.798L179.605 166.494C178.324 165.777 177.235 165.19 177.186 165.189C177.137 165.188 177.124 168.608 177.157 172.789ZM233.452 167.025C232.765 167.385 232.704 167.455 233.039 167.497C233.536 167.558 234.104 167.299 234.35 166.899C234.6 166.492 234.421 166.517 233.452 167.025ZM289.036 169.405C288.618 169.551 275.966 176.768 274.881 177.479C274.556 177.692 273.963 178.364 273.563 178.973C273.163 179.582 272.259 180.922 271.555 181.951L270.275 183.822L270.23 190.294C270.18 197.507 270.18 197.511 271.267 197.591C271.963 197.643 272.384 197.423 280.31 192.87C282.675 191.511 286.142 189.524 288.015 188.454C289.888 187.384 291.853 186.26 292.383 185.956C294.1 184.97 294.016 185.382 294.017 177.944L294.018 171.442L293.615 171.054C293.152 170.609 290.213 169.236 289.754 169.251C289.586 169.257 289.263 169.326 289.036 169.405ZM288.775 171.215L288.105 171.63L288.687 171.972C289.007 172.16 289.938 172.678 290.756 173.122L292.243 173.931L292.19 172.873L292.136 171.814L291.061 171.312C290.47 171.036 289.864 170.808 289.715 170.805C289.566 170.803 289.143 170.987 288.775 171.215ZM241.126 176.538C236.131 179.429 231.991 181.843 231.924 181.901C231.786 182.023 231.849 182.059 244.293 188.966C249.418 191.811 255.344 195.122 257.463 196.325C264.705 200.437 266.083 201.21 266.163 201.21C266.277 201.21 266.263 196.407 266.124 187.649L266.005 180.118L263.879 178.929C262.709 178.275 259.166 176.284 256.005 174.504C252.844 172.725 250.246 171.272 250.232 171.275C250.218 171.279 246.12 173.647 241.126 176.538ZM286.151 172.731C285.987 172.904 286.119 173.043 286.815 173.432C287.293 173.699 288.02 174.188 288.432 174.518L289.18 175.119V178.179V181.24L290.479 181.996C291.193 182.413 291.879 182.805 292.002 182.868C292.179 182.958 292.226 182.198 292.225 179.27L292.224 175.557L289.382 174.037C287.818 173.2 286.498 172.516 286.448 172.516C286.398 172.516 286.264 172.613 286.151 172.731ZM279.915 176.265L275.578 178.762L274.601 180.274L273.624 181.786L274.229 182.144L274.835 182.502L275.691 181.969C276.162 181.676 278.805 180.16 281.564 178.599C284.324 177.039 286.689 175.673 286.82 175.563C287.016 175.4 286.842 175.233 285.842 174.625C285.173 174.218 284.542 173.859 284.439 173.827C284.336 173.794 282.3 174.892 279.915 176.265ZM220.2 174.556C219.406 175.01 219.405 175.011 219.937 175.011C220.552 175.011 221.267 174.63 221.267 174.301C221.267 173.993 221.125 174.027 220.2 174.556ZM282.818 179.55C280.256 181.014 277.595 182.538 276.905 182.939L275.651 183.666L275.561 185.812C275.503 187.216 275.534 187.938 275.652 187.898C275.751 187.865 278.472 186.322 281.699 184.47L287.567 181.102V178.992C287.567 177.832 287.547 176.884 287.522 176.886C287.497 176.888 285.381 178.087 282.818 179.55ZM238.146 178.785C238.004 178.909 237.931 179.587 237.931 180.804V182.637L238.514 183.018C239.378 183.584 241.799 184.836 242.031 184.836C242.141 184.836 242.393 184.695 242.59 184.524C242.9 184.254 242.948 184.006 242.946 182.692C242.945 181.797 242.852 181.014 242.722 180.79C242.44 180.305 239.425 178.619 238.818 178.607C238.567 178.602 238.265 178.682 238.146 178.785ZM184.774 180.172C180.422 180.805 178.17 183.474 179.796 186.074C181.274 188.437 185.799 189.51 189.614 188.401C194.533 186.971 195.065 182.773 190.569 180.866C188.735 180.088 186.879 179.866 184.774 180.172ZM239.544 181.215C239.544 181.923 239.577 181.97 240.351 182.377L241.157 182.801V182.063C241.157 181.355 241.124 181.308 240.351 180.901L239.544 180.477V181.215ZM184.162 181.765C182.981 182.055 181.698 182.756 181.297 183.328C180.976 183.786 180.81 184.836 181.059 184.836C181.119 184.836 181.744 184.591 182.447 184.291C184.202 183.545 185.883 183.313 187.79 183.555C189.075 183.717 189.779 183.94 191.745 184.803C191.819 184.835 191.88 184.621 191.88 184.326C191.88 183.496 191.221 182.802 189.861 182.198C188.766 181.712 188.502 181.662 186.821 181.614C185.677 181.582 184.671 181.639 184.162 181.765ZM281.688 186.156C278.208 188.156 275.144 189.831 274.879 189.878C274.454 189.953 273.788 189.738 271.933 188.923C271.859 188.891 271.798 190.449 271.798 192.386C271.798 194.323 271.836 195.908 271.882 195.908C271.928 195.908 275.376 193.96 279.543 191.579C283.71 189.198 288.182 186.654 289.482 185.926C290.782 185.198 291.849 184.567 291.853 184.524C291.864 184.42 288.324 182.493 288.15 182.508C288.076 182.514 285.168 184.156 281.688 186.156ZM272.249 183.741C271.851 184.289 271.798 184.532 271.798 185.807L271.799 187.253L272.676 187.682C273.159 187.918 273.602 188.111 273.661 188.111C273.721 188.111 273.769 187.14 273.769 185.954C273.769 183.902 273.749 183.782 273.355 183.459C273.127 183.273 272.886 183.12 272.819 183.12C272.753 183.12 272.496 183.4 272.249 183.741ZM206.709 187.527C203.975 189.092 201.737 190.413 201.736 190.463C201.736 190.513 205.007 192.43 209.005 194.724L216.275 198.893L221.593 195.868C224.518 194.205 227.652 192.428 228.557 191.92C229.463 191.411 230.188 190.947 230.17 190.887C230.152 190.827 228.581 189.903 226.68 188.832L223.222 186.885L222.69 187.147C222.184 187.396 222.165 187.443 222.295 188.111C222.536 189.35 222.379 191.492 221.998 192.134C220.958 193.89 218.607 194.769 215.335 194.625C213.153 194.53 211.819 194.096 210.7 193.118C209.719 192.26 209.44 191.556 209.44 189.932C209.44 187.48 210.102 186.345 211.986 185.565L212.889 185.192L212.468 184.936C212.237 184.795 211.966 184.68 211.864 184.681C211.763 184.682 209.443 185.962 206.709 187.527ZM185.227 184.988C184.34 185.125 183.052 185.598 182.483 185.996C182.138 186.237 182.138 186.242 182.483 186.472C182.674 186.6 183.379 186.854 184.05 187.036C185.814 187.514 188.318 187.412 189.774 186.803C190.341 186.566 190.805 186.306 190.805 186.226C190.805 186.145 190.542 185.938 190.222 185.767C188.984 185.103 186.741 184.754 185.227 184.988ZM214.052 186.415C213.081 186.605 212.041 187.102 211.608 187.581C210.043 189.313 213.887 191.276 217.547 190.614C218.918 190.367 220.219 189.603 220.483 188.892C220.594 188.593 220.65 188.269 220.607 188.171C220.563 188.072 219.956 187.962 219.219 187.921C218.256 187.867 217.701 187.744 217.124 187.455C214.787 186.286 214.758 186.276 214.052 186.415ZM237.031 187.276C235.454 188.189 236.034 189.435 238.22 189.83C239.543 190.068 241.694 189.79 241.694 189.379C241.694 189.26 237.753 187.019 237.543 187.019C237.505 187.019 237.274 187.135 237.031 187.276ZM211.232 191.336C211.232 191.472 211.519 191.818 211.87 192.106C213.27 193.256 216.618 193.601 218.669 192.807C219.707 192.405 220.55 191.759 220.55 191.364C220.55 191.125 220.398 191.153 219.341 191.589C218.181 192.067 218.039 192.087 215.891 192.087C213.743 192.087 213.602 192.067 212.442 191.589C211.462 191.185 211.232 191.137 211.232 191.336ZM201.018 192.995V194.134L208.194 198.302L215.369 202.47L215.316 201.255L215.264 200.04L208.992 196.412C205.543 194.417 202.338 192.576 201.87 192.32L201.018 191.856V192.995ZM224.582 195.846C216.716 200.365 216.966 200.209 216.966 200.583C216.966 200.756 217.008 200.898 217.059 200.898C217.109 200.898 217.591 200.644 218.129 200.333C219.206 199.71 219.845 199.626 220.368 200.038C220.695 200.296 220.741 200.293 221.313 199.986C221.831 199.707 221.904 199.593 221.845 199.15C221.726 198.252 222.058 197.834 223.547 197.003C225.158 196.104 225.882 196.002 226.421 196.598C226.762 196.975 226.765 196.975 227.274 196.685C227.71 196.436 227.788 196.285 227.801 195.67C227.819 194.841 228.011 194.668 229.822 193.844C230.845 193.379 230.942 193.291 230.942 192.828C230.943 192.549 230.882 192.327 230.809 192.334C230.735 192.34 227.933 193.921 224.582 195.846ZM229.982 195.331L229.468 195.689L230.042 196.5C230.573 197.251 230.667 197.311 231.306 197.311C231.686 197.311 232.045 197.243 232.104 197.16C232.163 197.077 231.926 196.649 231.577 196.207C231.228 195.766 230.943 195.308 230.943 195.189C230.943 194.87 230.564 194.926 229.982 195.331ZM224.357 198.18C223.711 198.517 223.622 198.622 223.775 198.87C223.874 199.031 223.955 199.296 223.955 199.459C223.955 199.985 225.418 200.342 225.89 199.931C226.008 199.828 226.105 199.62 226.105 199.468C226.105 199.164 225.376 197.778 225.218 197.781C225.164 197.782 224.776 197.961 224.357 198.18ZM218.726 201.688C218.248 201.998 218.247 202.002 218.52 202.699C218.82 203.465 219.241 203.751 219.959 203.676C220.77 203.591 220.873 203.187 220.241 202.56C219.935 202.258 219.633 201.865 219.568 201.688C219.424 201.293 219.334 201.293 218.726 201.688Z" fill="white"/>
</g>
</g>
<defs>
<clipPath id="clip0_655_1670">
<rect width="407" height="215" fill="white"/>
</clipPath>
</defs>
</svg>
