<svg width="242" height="196" viewBox="0 0 242 196" fill="none" xmlns="http://www.w3.org/2000/svg">
<path fill-rule="evenodd" clip-rule="evenodd" d="M123.973 30.3729C118.196 31.2299 117.297 31.4037 115.782 31.9579C114.317 32.4937 114.046 32.532 112.53 32.42C110.977 32.3053 107.474 32.7028 100.981 33.731C95.7911 34.553 90.9181 38.1708 87.0277 44.0907C85.5194 46.3859 83.031 51.8086 82.1645 54.6892C81.5975 56.5735 81.4013 56.9977 80.973 57.2667C80.6909 57.4437 80.0904 58.1509 79.6385 58.8384C78.6936 60.2757 78.7122 60.2527 78.0238 60.8166C77.2745 61.4304 76.836 62.6287 76.8313 64.0748C76.8291 64.7467 76.9044 65.5181 76.9987 65.7895C77.1519 66.2299 77.1181 66.2939 76.6826 66.3897C74.6551 66.8358 72.647 67.0661 70.9361 67.0489C69.1758 67.0311 68.8461 67.0819 68.2587 67.4609C67.3318 68.0587 65.405 68.4508 47.6096 71.6625C39.0408 73.209 32.0298 74.548 32.0298 74.6381C32.0298 74.7283 32.1859 74.802 32.3766 74.802C32.5674 74.802 40.1065 73.4635 49.1305 71.8278C64.2634 69.0846 65.6189 68.8691 66.5835 69.0543C70.0154 69.713 73.5202 73.4843 76.013 79.2005C78.5442 85.0051 79.6882 91.3265 79.4823 98.3715C79.2924 104.87 77.927 109.618 75.3974 112.574C73.5363 114.749 75.0702 114.262 53.7963 119.442C37.3031 123.459 32.1819 124.735 32.0719 124.855C31.7319 125.227 32.5528 125.113 35.4949 124.379C46.9176 121.53 69.1787 116.137 72.2211 115.482C74.2081 115.054 76.4998 114.618 77.3137 114.512C78.2449 114.391 79.125 114.137 79.6876 113.825C80.4893 113.381 84.1858 112.327 84.9425 112.327C85.1278 112.327 85.4349 112.76 85.7485 113.463C86.6748 115.539 88.8758 119.335 90.4845 121.632C90.9117 122.242 91.3993 123.131 91.5678 123.607C92.0295 124.912 92.6865 125.762 93.5593 126.184C93.9912 126.393 94.8127 127.029 95.3854 127.599C99.8353 132.024 104.155 134.385 108.981 135.03C111.595 135.379 112.883 135.201 120.27 133.468C123.97 132.6 125.106 132.248 126.231 131.619C126.739 131.336 127.651 131.141 129.302 130.965C131.68 130.711 139.377 128.931 141.611 128.117C143.077 127.584 145.468 125.992 147.183 124.408L148.536 123.158L148.968 123.529C149.373 123.878 153.663 128.148 163.805 138.298C166.192 140.688 169.479 143.976 171.108 145.606C174.532 149.03 175.575 150.328 176.479 152.29C177.233 153.927 177.355 154.333 177.731 156.452C178.429 160.389 180.589 162.778 184.868 164.349C186.744 165.038 188.392 165.175 190.077 164.784C191.593 164.432 191.991 164.129 191.829 163.447C191.766 163.179 190.555 161.896 188.933 160.377C185.763 157.409 185.767 157.418 186.108 154.805C186.368 152.815 187.045 151.245 188.114 150.152C188.594 149.661 189.053 149.26 189.135 149.26C189.217 149.26 190.583 150.459 192.169 151.925C195.311 154.829 195.001 154.679 196.812 154.174C197.329 154.03 197.517 153.86 197.61 153.451C198.03 151.625 195.075 145.118 192.823 142.908C191.268 141.381 190.53 141.101 187.647 140.945C184.924 140.797 184.228 140.633 182.658 139.767C180.869 138.781 181.201 139.1 159.117 117.071L156.25 114.212L156.819 114.085C157.63 113.903 157.8 113.695 158.491 112.039C159.057 110.681 159.157 110.554 159.739 110.446C160.72 110.266 161.228 109.877 161.816 108.856C162.288 108.035 162.357 107.735 162.352 106.516C162.343 104.398 161.523 102.834 160.072 102.172C159.662 101.984 159.175 101.92 158.741 101.997L158.058 102.118L158.177 101.347C158.242 100.923 158.414 99.8648 158.559 98.9958C158.704 98.1268 158.826 97.127 158.829 96.7739C158.833 96.4208 158.862 96.132 158.895 96.132C158.928 96.132 159.802 95.9649 160.837 95.7607C162.995 95.3349 163.775 95.0181 164.951 94.0909C165.884 93.356 163.826 93.8892 190.989 87.3431C197.993 85.655 206.654 83.5647 210.236 82.6981C213.819 81.8312 216.806 81.122 216.875 81.122C216.944 81.122 217 80.9958 217 80.8418C217 80.6217 216.874 80.5984 216.413 80.7339C216.09 80.8287 205.112 83.4926 192.017 86.6534C178.923 89.8142 168.105 92.4437 167.979 92.4968C167.852 92.5498 168.286 91.9897 168.943 91.252C171.617 88.2482 172.926 83.6784 172.921 77.3695C172.915 70.4159 170.966 63.013 167.903 58.3107C166.1 55.5428 163.359 53.0675 161.449 52.4829C160.598 52.2222 160.735 52.1914 171.678 50.1925C209.856 43.2185 216.746 41.9385 216.898 41.792C216.99 41.7021 217.026 41.5846 216.977 41.5309C216.928 41.4772 214.007 41.9672 210.486 42.6197C206.965 43.2723 193.883 45.6749 181.415 47.9586C159.419 51.9876 158.681 52.1092 156.578 52.051C155.385 52.0178 154.031 52.0616 153.569 52.1481L152.728 52.3057L151.628 49.9889C150.615 47.8545 150.549 47.638 150.786 47.2412C150.936 46.9912 151.384 46.7169 151.854 46.5875C153.447 46.1489 154.32 44.8438 154.32 42.8988C154.32 41.2927 153.988 40.2791 153.15 39.329C152.302 38.3656 151.48 38.0612 150.27 38.2621C149.416 38.4037 149.394 38.3932 148.297 37.3475C147.047 36.1553 147.023 36.1506 144.482 36.5721L142.863 36.8407L141.953 36.0037C138.681 32.9943 135.238 31.0383 131.883 30.2829C130.076 29.876 127.095 29.9098 123.973 30.3729ZM124.425 30.7118L122.257 31.0312L123.758 31.2895C133.835 33.0228 143.298 44.671 148.469 61.7071C150.108 67.1078 151.053 71.6615 151.819 77.8633C152.186 80.8344 152.233 82.0048 152.227 88.0345C152.221 94.3095 152.183 95.1293 151.75 98.4033C151.491 100.359 150.98 103.32 150.614 104.983C150.248 106.647 149.977 108.031 150.012 108.059C150.046 108.087 151.071 109.11 152.288 110.332L154.501 112.555L154.875 111.602C157.162 105.769 158.696 97.7304 159.004 89.9605C159.723 71.8095 154.623 52.9061 145.777 40.9281C142.189 36.0694 137.644 32.5306 133.077 31.0403C131.006 30.364 127.648 30.2367 124.425 30.7118ZM118.825 31.5723C117.63 31.7623 115.07 32.5458 115.196 32.6833C115.239 32.7311 115.952 32.5824 116.779 32.3529C126.675 29.6076 137.296 37.4452 144.279 52.6478C147.883 60.4943 150.193 69.3919 151.288 79.6408C151.644 82.9793 151.584 93.7788 151.19 97.0208C150.809 100.161 150.299 103.14 149.729 105.564C149.276 107.491 149.407 108.332 149.886 106.568C150.393 104.701 151.229 99.8346 151.525 97.0208C151.926 93.2248 152.062 86.0731 151.807 82.2083C150.846 67.6371 146.527 53.8044 139.838 43.881C137.858 40.9433 134.312 37.1272 132 35.4467C128.896 33.1907 125.955 31.9442 122.84 31.5644C120.881 31.3257 120.371 31.3267 118.825 31.5723ZM119.006 32.2751C118.707 32.3157 117.854 32.4935 117.109 32.6703C115.856 32.9673 115.795 33.0044 116.296 33.1638C116.594 33.2586 117.098 33.2865 117.415 33.2258C118.359 33.0457 121.058 33.5037 122.799 34.1397C125.935 35.2848 128.953 37.4004 131.863 40.4922L133.702 42.4461L134.785 42.4783C136.164 42.5196 136.713 42.9379 137.429 44.4932C137.88 45.474 137.976 45.9358 138.01 47.2872C138.049 48.8805 138.068 48.9403 139.171 51.033C140.465 53.4907 141.943 56.8609 142.676 59.0276L143.186 60.5348L143.857 60.4364C144.731 60.3082 145.512 60.8083 146.194 61.9337C147.418 63.9513 147.323 66.9958 145.985 68.5983C145.66 68.9882 145.656 69.0802 145.909 70.2771C146.428 72.7241 147.066 77.1011 147.299 79.8118C147.483 81.9397 147.597 82.5713 147.811 82.6447C148.797 82.9811 149.133 83.2384 149.605 84.0174C150.302 85.1686 150.639 87.2202 150.361 88.6329C149.994 90.5054 149.295 91.392 148.184 91.392C147.64 91.392 147.636 91.4003 147.636 92.4765C147.636 94.287 147.104 99.2482 146.641 101.761L146.204 104.131L147.589 105.57L148.974 107.01L149.21 106.163C149.638 104.63 150.516 99.623 150.831 96.9151C151.271 93.129 151.272 82.7328 150.833 78.8507C149.206 64.47 144.72 51.7745 138.113 42.852C132.636 35.456 125.33 31.412 119.006 32.2751ZM110.245 32.8308C110.096 32.8725 108.845 33.0593 107.465 33.2464L104.957 33.5861L106.923 34.0235C111.532 35.0483 115.51 37.5453 119.656 42.017C126.488 49.3859 131.83 61.3651 134.258 74.7668C134.729 77.3636 135.353 82.4589 135.353 83.7051C135.353 84.5858 135.432 84.759 136.346 85.8792C136.893 86.5485 137.585 87.6407 137.884 88.3061C138.38 89.4069 138.572 90.2467 139.157 93.8608C139.262 94.5125 139.58 95.5948 139.864 96.2659C140.388 97.5054 141.833 99.9756 141.956 99.8415C141.992 99.801 142.156 98.3944 142.319 96.7156C142.845 91.2905 142.513 81.9715 141.577 75.8882C139.589 62.9761 135.024 51.244 128.934 43.3995C125.029 38.3691 119.821 34.4705 115.498 33.3423C114.082 32.9728 110.86 32.659 110.245 32.8308ZM101.574 34.0375C99.7083 34.4148 98.2475 34.827 97.2764 35.2502C95.7528 35.9144 95.9345 36.006 97.5167 35.3715C108.724 30.8752 121.857 40.846 129.119 59.3652C131.824 66.2613 133.833 74.9134 134.551 82.7542C134.618 83.4889 134.758 84.1473 134.861 84.2172C135.1 84.3782 134.945 82.2632 134.441 78.4733C132.475 63.6898 126.674 49.886 119.092 41.9522C115.123 37.7983 110.859 35.1842 106.632 34.3127C105.495 34.0782 102.247 33.9015 101.574 34.0375ZM118.554 33.9813C118.604 34.033 119.416 34.3561 120.36 34.6996C128.287 37.5841 135.685 46.8233 140.292 59.5945C143.558 68.6449 145.289 78.7105 145.285 88.627C145.284 92.9969 145.078 96.0878 144.545 99.7473C144.256 101.729 144.223 102.338 144.393 102.562C144.755 103.039 144.856 102.898 145.07 101.613C147.937 84.4045 144.718 64.0888 136.897 50.0317C132.414 41.9747 126.352 36.1107 120.878 34.5352C119.104 34.0247 118.446 33.8679 118.554 33.9813ZM122.641 34.7748C125.718 36.1393 128.502 38.3055 131.476 41.6508C139.233 50.3752 144.65 64.7214 146.119 80.4308C146.731 86.9805 146.462 95.7017 145.475 101.267C145.174 102.968 145.169 103.175 145.424 103.489C145.579 103.679 145.762 103.835 145.832 103.835C145.963 103.835 146.586 100.02 146.919 97.1772C147.247 94.3798 147.41 88.3146 147.254 84.7449C146.75 73.2789 144.415 63.1673 140.118 53.8458C137.648 48.4888 135.074 44.5155 131.798 41.0046C128.814 37.806 125.937 35.7441 122.866 34.602C121.023 33.9169 120.908 34.0059 122.641 34.7748ZM100.429 34.9024C96.7697 35.6322 93.1092 37.7865 90.3688 40.8227C86.9329 44.6297 84.4804 49.12 82.4501 55.3218L81.8768 57.0726L82.5187 56.9409C82.8719 56.8686 83.4477 56.5962 83.7987 56.3359C84.5016 55.8143 85.7586 55.5337 86.5832 55.714C88.5039 56.1339 90.4535 59.3361 90.8397 62.7051C90.9699 63.8427 91.0498 63.8913 92.2069 63.5399C92.6843 63.395 93.0774 63.0387 93.6408 62.2402C96.5642 58.097 100.794 56.2253 104.743 57.3276C110.696 58.9893 116.279 67.0165 118.549 77.1803C119.047 79.4134 119.484 82.262 119.74 84.9482L119.85 86.1079L120.602 85.3126C121.679 84.1732 122.68 83.492 123.276 83.492C123.819 83.492 123.89 83.3749 123.626 82.9177C123.056 81.9339 124.83 81.0233 127.315 81.0233C129.08 81.0233 130.766 81.5808 132.762 82.8247C133.526 83.3004 134.173 83.6895 134.201 83.6895C134.277 83.6895 134.098 81.9499 133.703 78.8507C133.028 73.5577 131.411 66.6978 129.745 62.0595C124.523 47.5185 116.446 37.8738 107.35 35.3171C105.633 34.8347 101.893 34.6105 100.429 34.9024ZM121.473 35.7526C121.638 35.885 122.522 36.5675 123.438 37.2696C124.354 37.9717 126.084 39.6142 127.283 40.9196C129.01 42.8012 129.55 43.2804 129.89 43.2318C130.909 43.0856 132.824 46.1765 132.824 47.9682C132.824 48.3004 132.976 48.8082 133.162 49.0965C133.994 50.3856 136.241 55.2283 137.346 58.1132C138.248 60.4656 138.644 61.2878 138.897 61.3303C139.776 61.478 140.026 61.5981 140.475 62.0883L140.956 62.615L140.488 61.2529C136.848 50.6686 131.465 42.3004 125.508 37.9674C124.714 37.3893 123.481 36.5975 122.768 36.2079C121.471 35.4985 120.911 35.3013 121.473 35.7526ZM144.789 36.9248L143.657 37.1146L144.924 38.4862C145.621 39.2407 146.191 39.9509 146.191 40.0645C146.191 40.183 146.402 40.2268 146.688 40.1672C146.961 40.1103 147.774 39.9618 148.494 39.8373C149.214 39.7131 149.804 39.533 149.804 39.4374C149.804 39.3418 149.182 38.6833 148.421 37.9741C146.912 36.5654 146.918 36.5673 144.789 36.9248ZM95.9175 37.9581C95.5383 38.1059 95.09 38.3636 94.9211 38.5307C94.752 38.698 94.0463 38.9336 93.3525 39.0544C91.9022 39.3072 91.3716 39.7376 90.5386 41.3374C90.201 41.9853 89.7998 42.4503 89.3966 42.6606C89.0107 42.8617 88.5819 43.344 88.2654 43.9327C87.8287 44.745 87.7557 45.0926 87.7557 46.362C87.7557 48.7191 88.6699 50.438 90.1303 50.8263C90.4139 50.9017 90.9753 51.2191 91.3778 51.5319C92.1966 52.1677 94.3655 53.0665 95.0969 53.0728C95.3592 53.0752 95.9282 53.2527 96.3613 53.4676C99.5111 55.0302 102.365 51.7436 102.359 46.5595C102.356 43.5665 101.585 41.1011 100.103 39.3428C98.8219 37.8228 97.4381 37.365 95.9175 37.9581ZM95.6133 38.5607C95.1796 38.8319 95.1773 38.8433 95.5548 38.85C95.771 38.8538 96.7159 39.31 97.6547 39.8638L99.3613 40.8705L99.7336 42.2243C99.9383 42.9689 100.29 44.4697 100.514 45.5597L100.923 47.5416L99.944 49.612C98.5905 52.474 98.5792 52.4872 97.2231 52.7679L96.0649 53.0076L96.8705 53.2587C98.3684 53.7252 99.5288 53.045 100.446 51.163C101.453 49.0975 101.623 46.2952 100.924 43.3092C100.472 41.3794 99.1128 39.2115 97.939 38.5479C97.3037 38.1888 96.1988 38.1947 95.6133 38.5607ZM145.107 39.4494C145.523 39.9926 145.904 40.4369 145.954 40.4369C146.003 40.4369 145.704 39.9926 145.288 39.4494C144.872 38.9063 144.491 38.4619 144.441 38.4619C144.392 38.4619 144.691 38.9063 145.107 39.4494ZM99.2529 39.167C100.066 40.1502 100.849 41.6642 101.216 42.9632C101.934 45.5038 101.856 48.8078 101.03 50.8551C100.636 51.8307 100.707 51.9806 101.135 51.0767C101.718 49.8435 101.989 48.4353 101.986 46.6582C101.98 43.1903 100.994 40.4164 99.258 38.9865L98.7744 38.5882L99.2529 39.167ZM151.788 39.4163C152.957 41.0063 153.45 44.0113 152.782 45.4732L152.512 46.0657L152.953 45.5263C153.216 45.204 153.446 44.608 153.524 44.0451C153.772 42.2571 152.761 39.4212 151.685 38.8852C151.242 38.6646 151.245 38.677 151.788 39.4163ZM150.715 39.3013C151.402 40.0971 151.94 41.3008 152.177 42.5721C152.375 43.6359 152.369 43.9898 152.131 44.9877C151.92 45.8737 151.908 46.1062 152.083 45.9474C152.864 45.2394 152.87 42.3734 152.094 40.7034C151.655 39.7575 150.875 38.8569 150.495 38.8569C150.405 38.8569 150.504 39.0568 150.715 39.3013ZM150.113 39.2589C150.23 39.4257 150.574 40.2404 150.877 41.0693C151.46 42.6588 151.597 44.2465 151.262 45.524C151.169 45.8761 151.159 46.1645 151.239 46.1645C151.553 46.1645 151.881 44.8185 151.871 43.5709C151.863 42.5127 151.751 42.0166 151.289 40.989C150.974 40.2894 150.532 39.5456 150.308 39.3363C150.084 39.1269 149.996 39.0922 150.113 39.2589ZM93.807 39.3835C93.5586 39.4263 93.159 39.5085 92.9191 39.566C92.4851 39.6703 92.4858 39.6728 93.0566 40.0522C93.372 40.2622 94.1207 40.6593 94.7201 40.9352C95.7726 41.4197 95.8628 41.4288 97.3496 41.2013L98.8893 40.9659L97.3868 40.1095C95.8864 39.2545 95.2753 39.1307 93.807 39.3835ZM91.6162 40.1776C91.398 40.4709 91.408 40.4946 91.6993 40.3751C91.8812 40.3005 92.1657 40.2381 92.3315 40.2365C92.592 40.2337 92.5962 40.2075 92.3619 40.0419C91.9892 39.7787 91.9013 39.7947 91.6162 40.1776ZM153.25 40.2394C153.514 40.844 153.597 40.956 153.597 40.7052C153.597 40.5991 153.471 40.34 153.316 40.129C153.051 39.7676 153.048 39.7739 153.25 40.2394ZM148.63 40.2353C148.332 40.3204 147.742 40.4008 147.32 40.4136C146.898 40.4265 146.552 40.4682 146.552 40.5063C146.552 40.9505 147.164 42.2172 147.996 43.4982C148.561 44.3672 149.176 45.367 149.362 45.7201C149.614 46.1966 149.828 46.362 150.193 46.362C150.464 46.362 150.724 46.2944 150.771 46.2119C150.868 46.0398 150.591 43.3238 150.283 41.4244C150.094 40.2614 150.032 40.1379 149.623 40.1107C149.375 40.0941 148.928 40.1502 148.63 40.2353ZM91.0342 41.4732C90.1995 42.4327 90.3646 42.6108 91.7378 42.2328C92.909 41.9103 93.1937 41.9605 93.8682 42.6081C95.7244 44.3899 95.8713 48.7928 94.1211 50.1913C93.7811 50.4631 93.2495 50.6157 92.4502 50.6714C91.8055 50.7162 91.2781 50.8235 91.2781 50.9098C91.2781 51.1746 92.8052 51.892 93.3673 51.8912C94.1845 51.89 94.9766 51.2414 95.4531 50.1832C95.835 49.3353 95.8843 48.9545 95.8843 46.8557C95.8843 44.6714 95.8445 44.3929 95.377 43.3013C94.5683 41.4128 93.7092 40.6344 92.4332 40.6344C91.881 40.6344 91.6365 40.781 91.0342 41.4732ZM95.1169 42.0736C95.4923 42.6981 95.5337 42.7189 95.6639 42.3495C95.8225 41.9004 95.7063 41.727 95.1169 41.5323L94.7107 41.398L95.1169 42.0736ZM97.2015 41.6071C96.7338 41.6786 96.2867 41.8076 96.208 41.8941C95.8295 42.3094 96.202 44.9344 96.8872 46.6823L97.2421 47.5878L98.7309 47.4488C99.5495 47.3722 100.277 47.2509 100.348 47.179C100.419 47.1071 100.181 45.7831 99.8189 44.2365L99.1608 41.4244L98.6064 41.4509C98.3013 41.4653 97.6691 41.5356 97.2015 41.6071ZM153.792 41.9346C153.801 42.1647 153.844 42.2115 153.901 42.0541C153.953 41.9115 153.947 41.741 153.887 41.6755C153.827 41.6099 153.784 41.7264 153.792 41.9346ZM91.82 42.722C91.82 42.7917 92.0169 43.1046 92.2575 43.4172C93.3151 44.7914 93.7325 47.3982 93.1728 49.1329C92.8321 50.1891 92.9508 50.3643 93.4271 49.5079C94.3064 47.9269 93.9684 44.8505 92.7486 43.3317C92.4199 42.9225 91.82 42.5287 91.82 42.722ZM92.9576 43.023C93.7614 44.2323 93.9932 44.7488 94.1845 45.7564C94.4253 47.0248 94.3084 48.4553 93.8919 49.3357C93.6881 49.7667 93.6661 49.9353 93.8209 49.879C93.9442 49.834 94.195 49.4921 94.3778 49.1195C94.756 48.3482 94.8315 46.1562 94.5216 44.9362C94.3162 44.1276 93.6189 43.1198 93.0243 42.7718C92.6487 42.552 92.6475 42.5565 92.9576 43.023ZM91.5572 43.8075C92.5792 45.4681 92.8402 48.1367 92.1323 49.6883C91.9336 50.1237 91.9074 50.3151 92.0534 50.2663C92.4849 50.1222 93.0844 48.4801 93.0844 47.4423C93.0844 45.5275 92.296 43.5023 91.3709 43.0416C90.9959 42.8547 91.0124 42.9225 91.5572 43.8075ZM135.407 43.3771C136.034 44.2058 136.52 45.2326 136.775 46.2705C136.883 46.7076 137.085 47.2355 137.224 47.4435C137.446 47.7755 137.458 47.688 137.32 46.7248C137.055 44.8797 136.499 43.7992 135.443 43.0793L134.901 42.7096L135.407 43.3771ZM89.2113 43.1836C89.1554 43.2819 89.2669 43.3177 89.4587 43.263C90.0373 43.0975 90.8937 43.8148 91.3731 44.8663C91.7159 45.6186 91.8182 46.1485 91.8124 47.1413C91.8034 48.7033 91.4098 49.627 90.5371 50.1354L89.9233 50.4929L90.432 50.5012C91.1919 50.5136 91.5638 50.2136 91.8886 49.3262C92.7703 46.9165 91.5492 43.0045 89.9152 43.0045C89.5837 43.0045 89.2669 43.085 89.2113 43.1836ZM115.287 43.1933C115.03 43.2784 114.619 43.4917 114.374 43.6675C114.129 43.8432 113.42 44.0629 112.8 44.1557C111.804 44.3044 111.577 44.4263 110.863 45.1918C110.419 45.6689 109.833 46.4149 109.563 46.8494C109.292 47.2841 108.775 47.952 108.413 48.334C107.726 49.0594 107.174 50.5995 107.174 51.7932C107.174 53.4508 108.264 55.7262 109.352 56.3416C109.66 56.5156 110.284 56.9689 110.74 57.3491C112.118 58.4993 113.23 59.0257 114.184 58.9793C114.69 58.9546 115.264 59.0703 115.61 59.2662C116.492 59.7673 117.944 59.6914 119.054 59.0863C120.775 58.149 121.784 56.0057 121.94 52.9581C122.111 49.6339 121.339 46.7372 119.788 44.8825C118.408 43.231 116.891 42.6616 115.287 43.1933ZM135.225 44.4484C136.176 45.9128 136.532 46.1481 135.975 44.9435C135.628 44.1926 135.042 43.4463 134.592 43.181C134.422 43.0809 134.707 43.6511 135.225 44.4484ZM115.212 43.6991C114.679 43.9896 114.678 43.9925 115.155 43.8938C115.542 43.8136 115.925 44.0281 117.052 44.9565C118.67 46.2897 119.408 47.0518 119.53 47.5175C119.646 47.9593 120.125 51.5035 120.275 53.0319C120.414 54.4508 120.431 54.4127 118.739 56.632C117.508 58.2457 117.092 58.5894 116.352 58.6001C115.729 58.6089 115.545 58.9212 116.072 59.0756C117.299 59.4349 118.752 58.8991 119.448 57.8314C120.448 56.2946 120.789 55.0575 120.866 52.682C120.968 49.5457 120.385 47.2724 118.952 45.2165C118.02 43.8798 116.221 43.1498 115.212 43.6991ZM88.7692 44.1371C87.7277 45.2759 87.8661 47.9996 89.0303 49.2751C89.6513 49.9553 89.9918 50.0493 90.5826 49.7037C91.6923 49.0543 91.7559 45.6081 90.6825 44.2959C90.0368 43.5063 89.395 43.453 88.7692 44.1371ZM119.038 44.8398C121.675 48.0198 122.105 54.8424 119.858 57.8695L119.384 58.5082L119.851 58.0516C120.107 57.8004 120.583 56.9652 120.907 56.1953C121.397 55.034 121.512 54.4895 121.583 52.9982C121.63 52.0095 121.582 50.5987 121.477 49.863C121.161 47.6475 120.019 45.2919 118.759 44.2532C118.184 43.7792 118.219 43.8521 119.038 44.8398ZM130.476 44.524C130.824 44.9585 131.344 45.7941 131.633 46.3811C132.254 47.6443 132.473 47.3842 131.926 46.0329C131.474 44.9155 131.117 44.4527 130.386 44.0403L129.844 43.7342L130.476 44.524ZM113.858 44.4521L112.142 44.6342L113.045 45.5056C113.542 45.9849 114.354 46.6728 114.851 47.0341L115.754 47.6909L117.335 47.4822C118.204 47.3674 118.915 47.224 118.914 47.1634C118.914 47.0441 117.229 45.5485 116.206 44.7583C115.592 44.2846 115.522 44.2756 113.858 44.4521ZM111.452 45.1367C111.174 45.4722 111.193 45.487 111.791 45.4106C112.306 45.3448 112.384 45.2791 112.215 45.0559C111.941 44.6958 111.805 44.7103 111.452 45.1367ZM110.696 46.1378C110.398 46.3396 110 46.7974 109.812 47.1551L109.469 47.8055L110.083 47.6641C110.42 47.5861 111.105 47.4731 111.606 47.4127C112.411 47.3155 112.582 47.3647 113.105 47.8458C114.055 48.7201 114.626 50.1648 114.723 51.9447C114.871 54.6319 113.969 56.2131 112.263 56.2603C111.799 56.2731 111.175 56.3407 110.877 56.4104L110.336 56.537L111.006 57.0961C112.28 58.1581 113.539 57.9799 114.561 56.5933C116.48 53.9902 115.684 48.0873 113.181 46.3511C112.214 45.681 111.466 45.6168 110.696 46.1378ZM96.3079 47.6011C96.2472 48.8939 96.2538 48.9176 96.5577 48.4851C96.9392 47.9418 96.9466 47.7711 96.624 46.9325L96.3704 46.2727L96.3079 47.6011ZM150.099 47.052C150.156 47.2144 150.276 47.2981 150.365 47.2379C150.62 47.0657 150.553 46.757 150.261 46.757C150.1 46.757 150.036 46.8729 150.099 47.052ZM114.708 47.5693C114.827 47.7306 115.086 48.2582 115.282 48.7416L115.638 49.6207L115.651 48.824C115.662 48.127 115.59 47.9801 115.077 47.6514C114.674 47.3939 114.558 47.368 114.708 47.5693ZM117.525 47.8134L116.044 47.9943L115.989 48.6099C115.91 49.5066 116.127 52.0302 116.399 53.3558L116.633 54.5033L117.91 54.3698C120.056 54.1452 120.032 54.1609 119.906 53.1028C119.546 50.0649 119.218 47.8294 119.119 47.7379C119.057 47.6799 118.339 47.7138 117.525 47.8134ZM98.1917 47.9254C97.564 48.0087 97.1552 48.1813 96.971 48.4406C96.5407 49.0468 94.9984 52.4704 95.1037 52.5856C95.2547 52.7509 97.9247 52.2625 98.2128 52.017C98.4617 51.8049 100.31 48.1555 100.31 47.8762C100.31 47.7259 99.5627 47.7433 98.1917 47.9254ZM111.274 48.5511C112.121 49.5401 112.639 50.9775 112.727 52.5832C112.792 53.7625 112.738 54.1036 112.361 54.9038C111.898 55.8882 111.982 56.1183 112.559 55.4414C113.983 53.7706 113.24 49.4438 111.328 48.2655L110.696 47.8764L111.274 48.5511ZM112.106 48.3417C112.361 48.5615 112.799 49.2504 113.079 49.8723C113.515 50.844 113.586 51.2394 113.585 52.682C113.584 53.9298 113.498 54.5383 113.25 55.052L112.917 55.7432L113.432 55.1955C113.933 54.6637 113.948 54.5898 113.948 52.628C113.948 50.8669 113.89 50.4854 113.499 49.6484C113.032 48.6476 112.376 47.942 111.912 47.942C111.735 47.942 111.802 48.0806 112.106 48.3417ZM108.98 48.3267C108.768 48.4851 108.825 48.5291 109.251 48.5321C110.905 48.5437 112.224 51.2513 111.794 53.7544C111.618 54.7802 110.715 55.8384 110 55.8558C109.523 55.8674 109.49 55.8963 109.793 56.0345C110.658 56.4295 111.915 55.5222 112.232 54.2732C112.677 52.5228 112.229 50.3187 111.18 49.0969C110.48 48.2817 109.501 47.939 108.98 48.3267ZM108.796 48.9931C108.077 49.3853 107.67 50.3844 107.673 51.7549C107.678 53.926 108.549 55.447 109.786 55.447C111.963 55.447 111.958 49.9752 109.78 49.0063C109.349 48.8145 109.129 48.8116 108.796 48.9931ZM94.3615 51.9088C93.8164 52.2283 93.7838 52.2885 94.0906 52.4086C94.2822 52.4839 94.4923 52.5759 94.5571 52.6134C94.622 52.651 94.76 52.4149 94.8639 52.0893C94.9677 51.7634 95.0365 51.5078 95.0169 51.5213C94.9972 51.5345 94.7022 51.7089 94.3615 51.9088ZM153.281 52.6138C153.058 52.6664 152.875 52.7507 152.875 52.8011C152.875 52.8514 153.083 53.3414 153.337 53.8901C153.615 54.4897 153.89 54.8493 154.028 54.7917C154.154 54.7389 154.787 54.6337 155.435 54.5578L156.614 54.4198L157.762 55.5406L158.911 56.6612L159.935 56.5312C161.515 56.3308 162.667 57.1034 163.502 58.924C164.691 61.515 163.802 64.4147 161.635 65.0164C160.903 65.2197 160.678 65.3927 160.373 65.9881C159.834 67.041 158.821 68.3842 158.248 68.8067C157.974 69.0083 157.79 69.2892 157.839 69.4306C157.945 69.7351 158.764 75.0528 158.928 76.4958L159.041 77.4985L160.028 77.409C160.999 77.3209 161.028 77.3339 161.768 78.1838L162.521 79.0483L163.794 78.9829C164.892 78.9264 165.154 78.9815 165.695 79.3824C167.22 80.5117 167.895 82.9157 167.299 85.0916C166.944 86.3872 166.296 87.0364 164.985 87.4108C163.824 87.7424 163.818 87.7472 163.549 88.6965C163.305 89.5555 163.179 89.7032 162.276 90.1969C161.725 90.4981 160.854 90.8947 160.341 91.0784C159.299 91.4517 159.404 91.1627 159.094 94.5115C158.98 95.7418 158.983 95.7536 159.404 95.6458C159.638 95.5859 160.478 95.4044 161.271 95.2427C163.207 94.8475 164.487 94.1272 165.805 92.6894C168.342 89.9222 169.786 85.4475 169.982 79.7395C170.344 69.2516 166.323 58.2799 160.642 54.2483C158.786 52.9318 157.879 52.6253 155.674 52.569C154.582 52.5411 153.504 52.5613 153.281 52.6138ZM158.655 52.682C158.804 52.7872 159.19 52.8747 159.513 52.8765C159.865 52.8783 160.082 52.9719 160.055 53.1099C160.03 53.2367 160.267 53.4254 160.581 53.5288C160.896 53.6323 161.19 53.8719 161.235 54.0615C161.285 54.2701 161.569 54.4575 161.955 54.5367C162.306 54.6086 162.702 54.8138 162.837 54.9927C163.054 55.2827 163.031 55.3044 162.629 55.1928L162.177 55.0678L162.629 55.4505C162.877 55.6611 163.259 55.8353 163.476 55.8376C163.694 55.84 163.922 55.9308 163.984 56.0395C164.045 56.1485 163.916 56.237 163.695 56.237C163.307 56.237 163.305 56.2482 163.622 56.632C163.802 56.8492 164.133 57.027 164.358 57.027C164.903 57.027 165.338 57.2211 165.338 57.4644C165.338 57.5768 165.143 57.6088 164.887 57.5383C164.638 57.4702 164.435 57.4895 164.435 57.5814C164.435 57.9216 165.265 58.5775 165.776 58.6406C166.066 58.6763 166.339 58.8207 166.381 58.9613C166.436 59.1463 166.328 59.1813 165.988 59.0879C165.445 58.9388 165.414 59.0373 165.799 59.68C165.962 59.952 166.336 60.1994 166.696 60.2731C167.505 60.4392 167.774 60.8674 166.99 60.7416C166.678 60.6914 166.422 60.6764 166.422 60.7082C166.422 60.74 166.559 61.0801 166.727 61.464C166.985 62.0557 167.122 62.162 167.63 62.162C167.959 62.162 168.229 62.2509 168.229 62.3595C168.229 62.4681 168.025 62.557 167.777 62.557C167.242 62.557 167.246 62.5305 167.62 63.5506C167.886 64.2798 167.961 64.3434 168.415 64.2343C169.043 64.0837 169.294 64.4447 168.679 64.6133C168.154 64.7573 168.14 64.8446 168.492 65.7658C168.715 66.349 168.826 66.4406 169.215 66.3594C169.767 66.2439 169.835 66.6121 169.29 66.7681C168.953 66.8645 168.922 66.9683 169.036 67.629C169.212 68.6546 169.27 68.721 169.871 68.5766C170.198 68.4982 170.396 68.5312 170.396 68.6639C170.396 68.781 170.295 68.8784 170.17 68.88C169.617 68.8875 169.453 69.2157 169.583 70.0569C169.704 70.8421 169.742 70.8858 170.239 70.806C170.566 70.7536 170.743 70.8026 170.703 70.9347C170.668 71.0523 170.453 71.1779 170.227 71.2142C169.872 71.2709 169.83 71.3629 169.925 71.8808C169.985 72.211 170.035 72.6147 170.035 72.7776C170.035 73.0032 170.168 73.0448 170.591 72.9522C170.991 72.8649 171.127 72.8997 171.074 73.0756C171.033 73.2105 170.824 73.3492 170.608 73.3839C170.296 73.4339 170.218 73.5761 170.228 74.0752C170.247 75.0232 170.434 75.4166 170.757 75.1928C171.112 74.9479 171.299 74.9511 171.299 75.2019C171.299 75.3131 171.096 75.4887 170.848 75.592C170.435 75.7636 170.396 75.8821 170.396 76.9696C170.396 78.2338 170.557 78.4186 171.15 77.8326C171.424 77.5613 171.48 77.5548 171.48 77.7949C171.48 77.9539 171.352 78.2565 171.196 78.4674C171.039 78.6781 170.963 78.7398 171.026 78.6039C171.156 78.3222 170.959 78.2855 170.611 78.5268C170.453 78.6371 170.393 79.0356 170.431 79.7458C170.483 80.7343 170.506 80.7799 170.79 80.4677C171.155 80.0662 171.299 80.0462 171.299 80.3974C171.299 80.5419 171.103 80.7752 170.863 80.9156C170.438 81.1643 170.223 81.6468 170.218 82.3633C170.216 82.6509 170.28 82.6781 170.565 82.5114C171.028 82.2407 171.119 82.2531 171.119 82.5877C171.119 82.7419 170.883 82.9246 170.596 82.9937C170.18 83.0937 170.055 83.2483 169.985 83.7499C169.877 84.5253 169.908 84.5676 170.381 84.2911C170.686 84.1126 170.757 84.1278 170.757 84.3701C170.757 84.5348 170.557 84.7244 170.312 84.7916C170.068 84.8589 169.817 85.105 169.756 85.3384C169.412 86.6556 169.395 86.5701 169.921 86.1934C170.638 85.6799 170.491 86.0988 169.674 86.9015C168.858 87.7023 168.675 88.2774 169.403 87.7564C169.659 87.5726 169.854 87.5242 169.854 87.6441C169.854 87.7604 169.62 88.0025 169.333 88.1824C169.046 88.3626 168.716 88.6772 168.599 88.8818C168.412 89.2096 168.431 89.2387 168.759 89.1247C169.326 88.928 169.208 89.3637 168.601 89.7067C168.007 90.0431 167.613 90.5534 168.109 90.3455C168.575 90.1499 168.463 90.5584 167.972 90.8426C167.504 91.1135 166.362 92.5774 166.501 92.7287C166.676 92.9207 167.883 91.9205 168.841 90.7883C170.035 89.3781 171.328 86.6378 171.831 84.4493C173.681 76.4071 171.806 65.0648 167.544 58.5082C165.712 55.6909 163.373 53.6106 161.21 52.8749C160.006 52.4653 158.15 52.3253 158.655 52.682ZM115.844 53.941C115.844 54.0903 115.797 54.5126 115.739 54.8792L115.634 55.5457L115.981 55.079C116.19 54.798 116.296 54.4247 116.246 54.1409C116.158 53.6398 115.844 53.4836 115.844 53.941ZM117.962 54.7512C116.827 54.9426 116.451 55.0984 116.004 55.5631C115.324 56.2713 113.818 58.4326 113.925 58.5489C113.967 58.5957 114.731 58.4875 115.622 58.3086L117.241 57.9833L118.304 56.5792C118.888 55.807 119.473 55.0141 119.603 54.8173C119.877 54.4024 120.002 54.4073 117.962 54.7512ZM154.91 55.0401C153.938 55.2133 153.838 55.3332 154.21 55.886C154.377 56.1333 154.844 56.8913 155.249 57.5701C155.654 58.2491 156.031 58.8045 156.087 58.8045C156.318 58.8045 159.292 58.1673 159.352 58.1049C159.502 57.9479 158.541 56.7404 157.543 55.8321C156.444 54.832 156.308 54.7911 154.91 55.0401ZM84.1323 56.5362C83.7978 56.8218 83.8034 56.8303 84.2568 56.7183C84.6345 56.6251 85.087 56.8547 86.4674 57.8407C88.4002 59.2212 88.3466 59.127 88.9053 62.1219C89.2694 64.0742 89.3372 64.2513 89.6403 64.0463C90.0644 63.7598 89.7069 61.3266 88.997 59.6687C88.4883 58.4802 87.2965 56.9375 86.5698 56.5265C85.904 56.1501 84.5787 56.1554 84.1323 56.5362ZM87.949 57.2407C89.1323 58.6658 90.1865 61.4135 90.1921 63.0885C90.1934 63.4351 90.2756 63.7736 90.3749 63.8407C90.6343 64.0159 90.5983 63.3357 90.262 61.7071C89.8064 59.4999 88.8547 57.6072 87.7936 56.7979C87.2479 56.3815 87.257 56.4076 87.949 57.2407ZM82.9689 57.3005L81.4335 57.5207L82.0657 58.0421C82.4134 58.3289 83.1314 58.8088 83.6614 59.1084C84.6193 59.65 84.6336 59.6517 86.1551 59.4043C86.9967 59.2674 87.6605 59.1325 87.6301 59.1047C87.473 58.9605 84.5613 57.0309 84.5351 57.0536C84.5182 57.0684 83.8133 57.1794 82.9689 57.3005ZM161.167 57.7676C162.102 59.0448 162.508 60.3086 162.517 61.9645C162.521 62.8197 162.425 63.6407 162.291 63.9071C162.163 64.1607 162.099 64.4137 162.15 64.4694C162.201 64.5249 162.42 64.1889 162.638 63.7228C163.399 62.0915 162.779 58.686 161.507 57.5162C160.722 56.7935 160.548 56.9219 161.167 57.7676ZM160.288 57.955C161.526 59.4961 162.059 62.1203 161.494 63.8901C161.173 64.895 161.244 64.9548 161.728 64.0876C162.176 63.283 162.216 61.068 161.806 59.7515C161.49 58.7365 160.395 57.2245 159.977 57.2245C159.786 57.2245 159.881 57.4488 160.288 57.955ZM100.167 57.7166C98.7049 58.1662 97.4415 58.89 96.21 59.9839C95.2152 60.8672 93.3494 63.11 93.4854 63.2587C93.514 63.2899 94.1467 63.1781 94.8915 63.01C96.6409 62.6154 97.8682 62.8451 99.9135 63.9494C104.12 66.2208 107.879 72.5991 109.626 80.4308C112.638 93.9299 108.478 107.455 101.006 108.461C100.445 108.536 99.7571 108.665 99.4782 108.746L98.971 108.894L99.8324 109.542C102.519 111.563 105.757 112.357 108.355 111.631C112.495 110.476 115.666 106.61 117.566 100.399L118.183 98.3855L117.612 96.8144C117.09 95.3762 117.037 95.0169 116.977 92.5673C116.913 89.9554 116.924 89.8661 117.417 88.834C117.772 88.0914 118.124 87.6624 118.599 87.3924C119.355 86.9639 119.331 87.0383 119.284 85.2695C119.119 78.9473 116.841 71.0064 113.674 65.717C112.355 63.5125 109.404 60.2241 107.847 59.2238C105.38 57.6378 102.355 57.0442 100.167 57.7166ZM154.745 57.6688C154.892 58.0532 156.434 63.2002 156.536 63.6432C156.599 63.9195 156.632 63.8563 156.647 63.4335C156.678 62.524 155.999 59.8972 155.393 58.5841C155.098 57.945 154.81 57.422 154.754 57.422C154.697 57.422 154.693 57.5332 154.745 57.6688ZM80.6206 57.9157C80.4286 58.1687 80.4813 58.212 80.9819 58.212C81.4824 58.212 81.5352 58.1687 81.3432 57.9157C81.2194 57.7528 81.0568 57.6195 80.9819 57.6195C80.9069 57.6195 80.7443 57.7528 80.6206 57.9157ZM162.404 58.0475C162.837 58.6326 163.352 60.6509 163.372 61.8474C163.392 62.9956 163.399 63.0146 163.536 62.2607C163.776 60.929 163.11 58.3542 162.406 57.8912C162.222 57.7706 162.222 57.8014 162.404 58.0475ZM112.954 58.212C112.734 58.3676 112.757 58.4039 113.079 58.4065C113.297 58.4081 113.525 58.3206 113.586 58.212C113.729 57.9606 113.31 57.9606 112.954 58.212ZM160.404 59.5206C160.804 60.6412 160.888 61.1885 160.885 62.6557C160.881 64.3927 160.887 64.4174 161.143 63.742C161.492 62.8206 161.35 60.978 160.827 59.65C160.199 58.0542 159.841 57.9446 160.404 59.5206ZM80.4678 58.7555C79.7985 59.1377 78.8352 60.5695 79.4091 60.3288C79.5812 60.2565 80.2353 60.14 80.8628 60.0697C81.9568 59.9472 82.0297 59.9672 82.6441 60.5567C83.3666 61.2503 83.9506 62.5971 84.1327 63.9889C84.2302 64.7344 84.3263 64.927 84.6011 64.927C84.99 64.927 84.9692 64.5458 84.4721 62.5655C84.01 60.725 83.4002 59.6344 82.4745 58.9925C81.4967 58.3145 81.2835 58.2894 80.4678 58.7555ZM157.541 58.9512C156.371 59.2092 156.179 59.3061 156.308 59.5737C156.512 59.9995 157.006 62.7642 157.143 64.247L157.254 65.4434L158.807 65.1743C159.662 65.0263 160.394 64.8693 160.434 64.8253C160.539 64.7101 160.152 60.866 159.912 59.6415C159.678 58.4513 159.733 58.4673 157.541 58.9512ZM84.0744 60.3857C84.4949 61.2679 84.68 61.319 84.4923 60.5014C84.4264 60.214 84.2189 59.8893 84.0314 59.7795C83.712 59.5927 83.7147 59.6312 84.0744 60.3857ZM86.0848 59.8471L84.9559 60.0446V61.0159C84.9559 62.4237 85.3368 64.7295 85.5695 64.7293C85.6789 64.7291 86.4596 64.5958 87.3041 64.4332C88.1486 64.2707 88.8493 64.1374 88.8614 64.1372C88.8848 64.137 88.2709 60.7643 88.1152 60.0388C88.0089 59.5443 87.883 59.5323 86.0848 59.8471ZM81.634 61.0795C82.2153 61.715 82.759 63.0582 82.9044 64.2178C82.981 64.8292 83.1047 65.1245 83.2844 65.1245C83.5706 65.1245 83.5153 64.424 83.1089 62.901C82.8867 62.0686 81.809 60.582 81.4277 60.582C81.2711 60.582 81.3477 60.7664 81.634 61.0795ZM78.7324 60.9539C78.4273 61.0882 78.4559 61.1257 78.9443 61.2325C79.9915 61.4614 80.9705 63.1214 80.9779 64.6801C80.9813 65.3864 81.0391 65.5195 81.3432 65.5195C82.1146 65.5195 81.6369 62.9571 80.6439 61.7705C79.9627 60.956 79.3363 60.6884 78.7324 60.9539ZM80.8986 61.4652C81.5101 62.1742 81.9616 63.2962 82.1526 64.5814C82.322 65.7207 82.6788 65.5143 82.5527 64.3499C82.428 63.1994 81.6956 61.526 81.1257 61.0896C80.4149 60.545 80.2872 60.7564 80.8986 61.4652ZM144.491 61.0609C144.693 61.2158 145.132 61.9315 145.467 62.6516C146.004 63.8093 146.076 64.1476 146.087 65.5795C146.096 66.8151 146.018 67.3618 145.756 67.8895C145.454 68.4974 145.45 68.5468 145.723 68.2989C146.313 67.7639 146.552 66.9508 146.552 65.48C146.552 64.3019 146.457 63.8186 146.032 62.8372C145.546 61.7129 144.769 60.7795 144.32 60.7795C144.212 60.7795 144.289 60.9061 144.491 61.0609ZM144.089 61.9151C144.941 63.2334 145.287 64.518 145.293 66.394C145.298 67.7341 145.334 67.9252 145.519 67.5932C145.643 67.3712 145.736 66.5496 145.732 65.717C145.724 64.0724 145.167 62.4067 144.314 61.4743C143.567 60.6578 143.439 60.9098 144.089 61.9151ZM77.8614 61.9155C77.2082 62.7045 77.0155 64.139 77.3732 65.5471C77.5523 66.2526 77.5684 66.2631 78.2303 66.1104C78.6011 66.0247 79.3011 65.8939 79.7857 65.8199L80.6669 65.6852L80.5503 64.6001C80.4169 63.3594 79.8784 62.0725 79.3674 61.7735C78.8415 61.4658 78.182 61.528 77.8614 61.9155ZM139.728 62.1952C140.9 63.2933 141.562 66.257 141.078 68.2353C140.882 69.0381 140.876 69.2256 141.053 69.065C141.436 68.7174 141.73 66.9405 141.611 65.6937C141.426 63.7538 140.852 62.6048 139.779 62.0269L139.237 61.7348L139.728 62.1952ZM144.2 63.6298C144.483 64.5456 144.76 65.4567 144.815 65.6542C144.87 65.8517 144.877 65.576 144.83 65.0417C144.753 64.1692 143.997 61.9645 143.774 61.9645C143.725 61.9645 143.917 62.7138 144.2 63.6298ZM139.629 63.5056C140.13 64.5727 140.286 65.1802 140.386 66.458C140.533 68.3256 140.682 68.6514 140.842 67.4542C141.059 65.8219 140.523 63.6681 139.636 62.6064C138.983 61.8264 138.981 62.1245 139.629 63.5056ZM95.6133 63.297C95.3649 63.3345 94.5927 63.4945 93.8973 63.6525C93.2018 63.8107 88.4873 64.6949 83.4205 65.6176C78.3536 66.5404 74.0861 67.3229 73.9371 67.3568C73.7881 67.3906 74.1763 67.7044 74.7998 68.0542C79.1367 70.4874 83.3952 78.564 85.0317 87.4598C85.7093 91.143 85.9241 93.9884 85.8045 97.701C85.6811 101.529 85.3525 103.743 84.484 106.6C83.768 108.955 83.0753 110.417 82.0175 111.807C81.4983 112.489 81.386 112.734 81.6305 112.649C82.337 112.405 100.61 108.027 101.336 107.928C102.287 107.799 103.919 106.99 104.844 106.189C106.908 104.401 108.777 100.406 109.687 95.8358C110.755 90.4683 110.215 83.1055 108.309 77.0732C106.097 70.0721 102.352 65.0048 98.4132 63.6843C97.4086 63.3476 96.2986 63.1939 95.6133 63.297ZM139.344 63.742C139.338 63.7963 139.448 64.2407 139.589 64.7295C139.729 65.2183 139.846 65.4405 139.849 65.2232C139.852 64.8792 139.376 63.4805 139.344 63.742ZM125.795 64.5654C123.9 65.9804 123.862 69.9506 125.722 71.9852C126.408 72.735 126.584 72.827 127.334 72.827C128.063 72.827 128.255 72.734 128.779 72.1274C129.917 70.8078 130.074 68.3218 129.149 66.255C128.307 64.3742 126.96 63.6954 125.795 64.5654ZM126.412 64.6756C125.772 64.8407 125.233 65.5728 124.941 66.6729C124.25 69.2728 125.567 72.432 127.343 72.432C129.192 72.432 129.994 68.972 128.761 66.3122C128.167 65.0311 127.32 64.4409 126.412 64.6756ZM158.605 65.6176C157.931 65.7508 157.335 65.9095 157.279 65.9702C157.181 66.0774 157.529 68.2325 157.692 68.532C157.844 68.8098 158.416 68.3064 159.139 67.2573C159.536 66.6816 159.958 66.0109 160.077 65.7664C160.327 65.2533 160.405 65.2614 158.605 65.6176ZM141.878 67.758C141.755 68.3601 141.482 69.0929 141.27 69.3863C140.889 69.9162 140.889 69.9299 141.203 71.5215C141.784 74.4696 142.196 77.2457 142.519 80.3875L142.839 83.5043L143.422 83.8805C143.75 84.092 144.203 84.6727 144.457 85.2075C144.846 86.024 144.911 86.086 144.918 85.6469C144.932 84.8005 144.396 78.9957 144.1 76.777C143.806 74.581 142.738 68.9686 142.34 67.5231L142.102 66.6632L141.878 67.758ZM68.9697 67.6365C68.771 67.6894 68.4865 67.8472 68.3374 67.987C68.1884 68.1271 67.7128 68.3048 67.2807 68.3824L66.4948 68.5235L67.642 68.9471C69.3696 69.5852 70.4444 70.3563 72.0616 72.1184C76.836 77.3195 79.902 86.9048 79.9329 96.7245C79.9497 102.059 79.2593 106.017 77.6932 109.562C76.9396 111.268 76.5459 111.889 75.4732 113.062L74.1694 114.488L75.2726 114.375C75.8793 114.313 76.7008 114.168 77.0982 114.052L77.8208 113.842L77.324 113.639C76.5771 113.334 76.7211 113.048 77.5491 113.193C78.0048 113.272 78.4042 113.228 78.6329 113.072C79.1434 112.723 79.084 112.559 78.4217 112.488C78.1065 112.454 77.8177 112.323 77.7801 112.197C77.7306 112.033 77.8995 112.015 78.3867 112.135C79.0867 112.308 79.4864 112.178 79.8899 111.647C80.0932 111.379 80.042 111.34 79.4907 111.34C79.143 111.34 78.7574 111.206 78.6338 111.043C78.4398 110.788 78.4853 110.764 78.9662 110.869C79.8135 111.054 80.4017 110.808 80.72 110.135L81.0066 109.529L80.4974 109.567C79.6631 109.628 79.3562 109.573 79.3562 109.365C79.3562 109.256 79.7017 109.166 80.1239 109.164C80.9938 109.161 81.2026 109.05 81.4967 108.439C81.7926 107.825 81.7839 107.814 80.9508 107.746C80.5363 107.713 80.1625 107.571 80.1203 107.43C80.0644 107.245 80.1725 107.21 80.5126 107.304C81.307 107.522 81.8847 107.241 82.1679 106.5C82.3105 106.127 82.427 105.792 82.427 105.754C82.427 105.717 82.0814 105.692 81.6593 105.698C81.2371 105.705 80.8766 105.622 80.8583 105.513C80.8399 105.405 80.9546 105.345 81.1132 105.381C81.2718 105.417 81.6594 105.394 81.9747 105.329C82.4772 105.226 82.5706 105.103 82.7306 104.338L82.9134 103.465L82.0379 103.579C81.3614 103.666 81.1627 103.63 81.1631 103.418C81.1634 103.225 81.404 103.142 81.9654 103.138C82.4064 103.136 82.8157 103.08 82.8753 103.015C82.9347 102.95 83.0469 102.458 83.1246 101.921L83.2658 100.944L82.3045 101.031C81.7328 101.083 81.3432 101.039 81.3432 100.922C81.3432 100.813 81.7514 100.682 82.2503 100.63C82.7492 100.577 83.191 100.498 83.2321 100.453C83.2731 100.408 83.3626 99.909 83.4311 99.3442L83.5557 98.3174L82.6302 98.4372C81.9938 98.5196 81.7044 98.4866 81.7044 98.332C81.7044 98.2083 81.928 98.1059 82.2012 98.1043C83.341 98.0981 83.5108 97.9409 83.5108 96.8922V95.9209L82.6076 96.0518C82.0283 96.136 81.7044 96.1095 81.7044 95.9786C81.7044 95.866 82.1109 95.7129 82.6076 95.6383L83.5108 95.5024L83.511 94.3853L83.5113 93.2683L82.4958 93.3374C81.79 93.3852 81.5176 93.3402 81.6029 93.1893C81.6705 93.0698 82.0866 92.972 82.5279 92.972H83.3301V92.1982C83.3301 90.8917 83.2286 90.7744 82.2257 90.92C81.6625 91.0016 81.3432 90.9739 81.3432 90.8436C81.3432 90.731 81.7543 90.5773 82.2566 90.5017C83.2694 90.3494 83.2035 90.5511 82.8664 88.6379C82.7655 88.0647 82.7505 88.058 81.8446 88.1753C80.6871 88.3252 80.7946 87.9423 81.9638 87.7505C82.47 87.6676 82.7427 87.5305 82.6974 87.3822C82.6578 87.252 82.5352 86.7604 82.4248 86.2896L82.2241 85.4332L81.309 85.5709C80.7164 85.66 80.4329 85.6392 80.505 85.5118C80.5661 85.4036 80.9763 85.2561 81.4165 85.1838L82.2167 85.0527L81.8578 83.891L81.499 82.7291L80.6884 82.9959C80.0973 83.1902 79.8964 83.2001 79.9468 83.0316C79.9848 82.9046 80.3144 82.7184 80.6795 82.6179C81.4335 82.4099 81.4571 82.3112 81.0122 81.2281C80.6972 80.4614 80.6732 80.4466 79.8428 80.5022C79.326 80.537 78.9949 80.4764 78.9949 80.347C78.9949 80.2301 79.2321 80.1345 79.522 80.1345C80.5605 80.1345 80.6443 80.0008 80.2135 79.0313C79.8011 78.1034 79.4748 77.9697 78.5551 78.3521C78.2704 78.4704 78.0917 78.4731 78.0917 78.359C78.0917 78.1062 78.7075 77.7645 79.1636 77.7645C79.6354 77.7645 79.6347 77.4906 79.1607 76.6522C78.7612 75.9451 78.5332 75.8762 77.5818 76.1744C77.1358 76.3143 77.0016 76.3018 77.0534 76.125C77.0915 75.9949 77.4546 75.8063 77.8603 75.7064L78.5979 75.5243L78.1297 74.751C77.7057 74.0505 77.6011 73.9855 77.0188 74.0616C76.6651 74.1078 76.2223 74.2186 76.035 74.3078C75.7812 74.4285 75.7155 74.3989 75.7774 74.1915C75.8231 74.0385 76.205 73.8208 76.6257 73.708L77.3907 73.5026L76.988 72.9429C76.6076 72.4142 76.5263 72.3891 75.5236 72.4885C74.6241 72.5777 74.4942 72.5513 74.6732 72.3153C74.7895 72.1622 75.0574 72.0356 75.2688 72.034C76.0048 72.0281 76.1448 71.752 75.6629 71.2571C75.2092 70.791 75.0619 70.7846 73.6421 71.1715C73.1873 71.2954 73.1524 71.275 73.3566 71.0041C73.4843 70.8346 73.8903 70.6339 74.259 70.5583L74.9292 70.4208L74.5034 70.044C74.0379 69.6316 72.8719 69.5366 72.3105 69.8651C72.0842 69.9974 71.935 69.9974 71.86 69.8647C71.7262 69.6279 72.5004 69.2755 73.1812 69.2633C73.6389 69.255 73.6264 69.2317 72.959 68.8468C72.2513 68.4389 71.9292 68.4616 70.7309 69.005C70.6068 69.0613 70.5051 69.0065 70.5051 68.8833C70.5051 68.7601 70.81 68.509 71.1824 68.3252L71.8598 67.991L71.0773 67.928C70.586 67.8885 70.1348 67.9799 69.8645 68.1737C69.3649 68.5316 69.2406 68.5549 69.2406 68.2908C69.2406 68.1857 69.4642 67.9671 69.7374 67.805L70.2341 67.5103L69.7825 67.5253C69.5341 67.5336 69.1684 67.5836 68.9697 67.6365ZM72.4472 67.9793C76.1532 70.296 79.2639 74.8794 81.4268 81.2099C85.2091 92.2794 84.5218 106.036 79.8816 112.132C79.3742 112.799 78.7032 113.522 78.3899 113.74C77.891 114.086 77.8766 114.119 78.2724 114.003C81.7115 112.995 84.1526 108.66 85.1657 101.761C85.4665 99.7119 85.469 92.9977 85.1697 90.7008C84.3518 84.4234 82.3065 78.1261 79.7102 73.8909C78.2292 71.4755 75.9416 69.084 74.2794 68.2136C73.5235 67.818 72.6299 67.4955 72.2924 67.4969L71.6792 67.4992L72.4472 67.9793ZM159.152 77.8952C159.276 77.9501 159.479 77.9501 159.603 77.8952C159.728 77.8405 159.626 77.7957 159.377 77.7957C159.129 77.7957 159.028 77.8405 159.152 77.8952ZM160.823 78.0744C160.674 78.1068 160.236 78.1899 159.85 78.259L159.148 78.3848L159.256 79.5067C159.315 80.1234 159.53 81.1532 159.732 81.7949C159.934 82.4364 160.1 83.1253 160.1 83.3255C160.1 83.7701 160.175 83.7717 162.059 83.3626L163.566 83.0356L163.46 82.4551C163.158 80.8056 161.434 77.9415 160.823 78.0744ZM164.367 80.0476C165.608 81.4862 166.096 85.1496 165.241 86.6026L164.921 87.1458L165.304 86.7762C166.175 85.9345 166.378 83.2467 165.697 81.5616C165.303 80.5872 164.336 79.3445 163.972 79.3445C163.856 79.3445 164.033 79.6609 164.367 80.0476ZM165.102 79.7626C165.32 80.0221 165.719 80.7626 165.99 81.4082C166.592 82.846 166.686 84.9634 166.194 86.0299C165.92 86.6265 165.919 86.6654 166.184 86.4249C166.629 86.0218 166.964 84.9891 166.964 84.0235C166.964 82.3198 166.029 80.0437 165.115 79.5236L164.706 79.291L165.102 79.7626ZM163.602 80.3598C164.7 81.7619 165.169 84.0513 164.729 85.8618C164.584 86.4591 164.493 86.9783 164.527 87.0158C164.561 87.0531 164.737 86.7867 164.917 86.4235C165.414 85.4245 165.357 82.927 164.807 81.5618C164.414 80.5876 163.553 79.542 163.143 79.542C163.043 79.542 163.25 79.9099 163.602 80.3598ZM163.585 81.4611C163.925 82.2669 163.984 82.749 163.984 84.7406C163.984 86.8981 164.002 87.0257 164.229 86.4194C164.6 85.4273 164.426 82.6313 163.928 81.5798C163.377 80.4157 163.103 80.3211 163.585 81.4611ZM126.141 81.4955C125.518 81.6175 125.524 81.6235 126.582 81.8871C129.205 82.5414 132.64 84.6551 134.338 86.6607C135.566 88.111 136.352 89.8322 136.725 91.8858C137.505 96.1869 138.51 98.5196 140.673 101.049C141.175 101.636 144.227 104.743 147.456 107.955C150.684 111.167 155.074 115.533 157.21 117.659C164.877 125.287 177.011 137.334 178.133 138.431C180.484 140.731 183.866 142.079 186.021 141.574C186.706 141.414 186.714 141.404 186.176 141.382C185.312 141.348 183.25 140.608 182.137 139.934C180.441 138.906 181.982 140.398 158.825 117.346C153.42 111.966 150.323 108.893 145.341 103.967C142.392 101.052 141.385 99.86 140.321 98.0296C139.53 96.6694 138.606 94.0271 138.601 93.1144C138.596 92.0588 138.104 89.8472 137.613 88.6752C136.625 86.3165 134.993 84.5933 132.242 83.0062C129.728 81.5559 128.006 81.1297 126.141 81.4955ZM124.161 82.1988C124.041 82.3566 123.97 82.6074 124.003 82.7563C124.036 82.9052 125.42 84.4291 127.078 86.1429C128.943 88.0709 130.165 89.4883 130.284 89.861C130.554 90.7075 130.518 92.455 130.201 93.925C129.634 96.5559 128.538 98.1706 126.412 99.5097C124.775 100.54 124.257 100.33 121.824 97.6439C120.61 96.3043 119.964 95.7368 119.556 95.6531C119.001 95.5391 117.913 94.4872 117.499 93.6633C117.32 93.3078 117.3 93.3313 117.295 93.8983C117.283 95.2907 119.124 99.7976 120.771 102.41C123.106 106.111 126.008 107.634 128.953 106.705C133.118 105.392 136.116 100.744 136.544 94.9379C136.755 92.0687 135.685 88.6794 133.965 86.7737C132.283 84.9089 129.168 83.0273 126.554 82.2963C124.911 81.837 124.45 81.818 124.161 82.1988ZM159.468 85.8405C159.468 89.0647 159.501 89.5408 159.68 88.8966C159.95 87.9219 159.948 84.2848 159.676 83.0034C159.495 82.149 159.468 82.5187 159.468 85.8405ZM148.459 83.8679C149.471 85.5403 149.785 88.5996 149.096 90.0779C148.665 91.0012 149.027 90.9311 149.531 89.9937C149.818 89.4593 149.894 88.9679 149.892 87.6395C149.89 85.7084 149.628 84.7238 148.863 83.7713C148.13 82.8586 147.884 82.9175 148.459 83.8679ZM147.636 83.7719C147.636 83.9526 147.814 84.4744 148.031 84.9318C148.56 86.0469 148.712 88.977 148.297 90.063C147.883 91.1469 148.31 90.9702 148.754 89.8738C149.43 88.2006 148.936 84.6235 147.898 83.6812C147.687 83.4898 147.636 83.5076 147.636 83.7719ZM161.681 83.8465L160.281 84.1528V86.161C160.281 87.273 160.172 88.5626 160.038 89.0509L159.795 89.9325L161.216 89.5954C161.998 89.4099 162.75 89.211 162.886 89.1537C163.205 89.0202 163.509 87.4677 163.653 85.2399C163.784 83.222 163.962 83.3474 161.681 83.8465ZM123.42 84.4619C123.794 85.0365 125.005 86.1978 126.077 87.0099C126.569 87.3826 127.676 87.5599 127.542 87.2447C127.517 87.1839 126.796 86.4034 125.941 85.5105C124.566 84.0744 124.309 83.887 123.716 83.887H123.045L123.42 84.4619ZM122.087 84.3871C121.75 84.666 121.754 84.677 122.208 84.677C122.467 84.677 122.828 84.7365 123.01 84.8093C123.323 84.9342 123.322 84.9178 122.997 84.5131C122.594 84.0112 122.549 84.0049 122.087 84.3871ZM143.376 84.8251C144.379 86.5094 144.663 89.4555 143.969 90.9773C143.816 91.314 143.769 91.5895 143.866 91.5895C143.962 91.5895 144.198 91.2117 144.39 90.7501C145.102 89.0333 144.71 85.7982 143.639 84.5506C143.028 83.8404 142.881 83.9944 143.376 84.8251ZM142.94 85.2008C142.94 85.4285 143.066 86.0038 143.22 86.479C143.536 87.4558 143.584 89.7674 143.309 90.7865C143.071 91.6693 143.198 91.7874 143.561 91.0203C144.212 89.6426 144.022 86.4755 143.211 85.2095L142.94 84.7866V85.2008ZM121.444 85.1996C121.134 85.3339 119.638 86.8697 119.638 87.0539C119.638 87.1211 120.288 87.0474 121.083 86.89C122.255 86.6579 122.63 86.6502 123.07 86.8497C124.321 87.4159 125.239 89.3773 125.236 91.4773C125.235 92.9803 124.914 93.9647 124.155 94.7944C123.526 95.4817 123.391 95.5405 122.414 95.5534C121.831 95.5611 121.199 95.6337 121.009 95.7151C120.696 95.8494 120.717 95.9039 121.235 96.3078C122.594 97.3656 123.909 97.2315 124.927 95.9316C127.376 92.8037 125.716 85.4459 122.496 85.1534C122.067 85.1143 121.593 85.1352 121.444 85.1996ZM147.703 87.6915C147.724 90.081 147.753 90.3178 147.973 89.8648C148.262 89.2673 148.191 85.9943 147.876 85.3864C147.729 85.1034 147.686 85.6779 147.703 87.6915ZM125.658 87.7817C125.896 88.3009 126.13 88.8591 126.179 89.022C126.228 89.185 126.302 88.9521 126.342 88.5046C126.41 87.7635 126.364 87.6529 125.821 87.2643L125.226 86.8375L125.658 87.7817ZM122.158 87.9555C122.893 88.8709 123.17 89.5045 123.425 90.8578C123.674 92.1781 123.544 93.3838 123.053 94.3164C122.863 94.6757 122.709 95.0227 122.709 95.0876C122.709 95.3343 123.481 94.4284 123.754 93.8612C124.097 93.1486 124.127 91.0764 123.811 89.8501C123.571 88.9181 122.553 87.5469 121.978 87.3826C121.671 87.2947 121.699 87.3838 122.158 87.9555ZM123.234 87.9851C124.53 89.7559 124.784 91.7548 124.036 94.3176C123.983 94.5009 124.13 94.3407 124.363 93.9615C124.729 93.3651 124.786 93.0329 124.785 91.4927C124.783 89.5215 124.426 88.4524 123.502 87.6583C122.758 87.0182 122.635 87.1677 123.234 87.9851ZM121.158 88.0464C122.486 89.3214 123.013 92.5413 122.184 94.318C121.81 95.1179 121.807 95.1572 122.134 94.9664C123.093 94.4047 123.434 91.8879 122.822 89.8825C122.476 88.7512 121.439 87.442 120.887 87.442C120.588 87.442 120.633 87.5427 121.158 88.0464ZM119.186 87.8232C119.956 88.0268 120.406 88.3762 120.847 89.1125C121.66 90.4673 121.841 92.3353 121.288 93.6633C120.894 94.6115 120.551 94.9472 119.772 95.1495L119.186 95.3015L119.909 95.3189C121.437 95.3555 122.189 94.3662 122.2 92.3053C122.215 89.6317 121.005 87.6178 119.411 87.6597C118.702 87.6784 118.685 87.6907 119.186 87.8232ZM127.205 87.7784C126.766 87.8524 126.725 87.9478 126.623 89.1429C126.522 90.3318 126.692 92.6513 126.97 93.8606C127.078 94.3352 127.14 94.3628 127.836 94.2489C129.894 93.9113 129.828 93.9574 130.004 92.7502C130.092 92.1467 130.105 91.2202 130.032 90.6911C129.923 89.8922 129.743 89.5527 128.969 88.6873C128.457 88.1141 127.956 87.6573 127.857 87.6719C127.757 87.6867 127.464 87.7345 127.205 87.7784ZM118.14 88.6302C117.494 89.1852 117.221 90.2272 117.355 91.6239C117.54 93.5612 118.377 94.7495 119.556 94.7495C121.146 94.7495 121.797 91.7493 120.679 89.5742C120.016 88.285 118.986 87.902 118.14 88.6302ZM160.812 90.0935C159.73 90.3532 159.377 90.5264 159.377 90.7981C159.377 90.9856 161.525 90.2653 161.807 89.9837C161.901 89.8892 161.942 89.8211 161.897 89.8322C161.853 89.8434 161.364 89.9609 160.812 90.0935ZM144.475 91.2706C144.276 91.6089 143.849 92.013 143.526 92.1682C142.971 92.436 142.94 92.5061 142.94 93.5003C142.94 94.0776 142.81 95.849 142.652 97.4365L142.363 100.323L143.05 101.092C143.525 101.623 143.775 101.785 143.858 101.614C144.173 100.966 145.05 92.0327 144.896 91.0389C144.845 90.7095 144.785 90.7424 144.475 91.2706ZM126.339 93.2928C126.329 93.5236 126.203 94.0784 126.059 94.5256L125.796 95.3389L126.239 95.0215C126.695 94.6952 126.764 94.2609 126.502 93.367C126.372 92.924 126.355 92.9165 126.339 93.2928ZM128.128 94.5947C127.087 94.7971 126.116 95.4724 124.515 97.1067C123.703 97.9358 123.703 97.9366 124.244 97.8394C124.542 97.7859 125.303 97.6785 125.936 97.6003C127.024 97.466 127.147 97.395 128.248 96.2691C128.888 95.615 129.491 94.9166 129.589 94.7171C129.794 94.2978 129.696 94.2897 128.128 94.5947ZM136.923 95.5395C136.876 95.7025 136.755 96.3793 136.653 97.0435C136.081 100.77 133.641 104.65 130.841 106.286C129.695 106.956 129.685 106.968 130.212 107.099C131.808 107.495 132.326 107.7 133.732 108.492C135.47 109.47 135.995 109.935 140.521 114.501C142.298 116.294 144.972 118.971 146.462 120.448C149.578 123.538 151.501 125.454 160.106 134.046C175.933 149.848 175.752 149.651 176.982 152.439L177.557 153.741L177.852 152.044C178.561 147.972 180.628 144.525 183.482 142.655C184.497 141.99 184.525 141.952 183.996 141.952C183.191 141.952 181.007 141.101 179.849 140.337C179.303 139.976 177.902 138.748 176.736 137.607C172.175 133.145 144.519 105.626 142.229 103.27C139.673 100.641 138.367 98.7655 137.464 96.4283C137.201 95.7473 136.971 95.3693 136.923 95.5395ZM128.847 96.0973C128.031 97.1144 127.006 97.9095 126.512 97.9095C125.804 97.9095 125.683 98.1898 126.222 98.5763C126.642 98.8769 126.696 98.8621 127.435 98.2461C128.189 97.6176 129.357 96.0283 129.196 95.8516C129.151 95.8032 128.995 95.9136 128.847 96.0973ZM122.987 97.5009C122.805 97.8226 123.151 97.885 123.513 97.5957C123.853 97.3237 123.852 97.317 123.476 97.317C123.264 97.317 123.044 97.3998 122.987 97.5009ZM124.665 98.206C124.616 98.2603 124.224 98.3197 123.795 98.3381L123.016 98.3717L123.673 99.0294C124.4 99.7587 124.963 99.8523 125.793 99.3829L126.332 99.0785L125.804 98.5929C125.304 98.1335 124.867 97.985 124.665 98.206ZM118.017 100.383C114.742 111.323 107.055 115.312 99.7023 109.889L98.4626 108.975L92.2963 110.464C88.9049 111.284 85.9932 111.997 85.8261 112.051C85.5715 112.132 85.6986 112.489 86.6141 114.262C87.8735 116.701 89.2651 119.042 90.4295 120.682L91.2432 121.827L91.3724 120.978C91.5525 119.793 91.8601 119.213 93.0463 117.823C95.5586 114.88 95.6933 114.758 96.5915 114.611C97.0588 114.535 97.7217 114.264 98.0649 114.009C100.197 112.427 102.925 113.733 104.468 117.076C105.282 118.837 105.594 120.574 105.513 122.893C105.456 124.536 105.36 125.068 104.944 126.053C104.348 127.463 103.898 128.026 102.929 128.574C102.022 129.087 100.228 129.158 99.5793 128.708C99.1034 128.377 97.3333 128.407 97.523 128.742C97.5792 128.842 98.2089 129.354 98.9224 129.88C104.204 133.778 110.235 134.951 115.573 133.119C119.951 131.618 123.929 128.096 127.126 122.893C128.554 120.569 130.544 115.944 131.519 112.686C132.818 108.341 132.808 108.432 132.044 108.083C131.698 107.925 131.069 107.735 130.648 107.661C129.888 107.529 129.882 107.532 130.001 108.051C130.489 110.177 130.243 111.941 129.306 113.027C128.8 113.613 128.6 113.71 127.887 113.71C127.213 113.71 126.934 113.592 126.407 113.086C125.287 112.01 124.977 111.122 124.941 108.884L124.91 106.922L124.035 106.439C122.786 105.75 120.799 103.424 119.687 101.35C119.168 100.381 118.672 99.4571 118.586 99.297C118.474 99.087 118.315 99.3906 118.017 100.383ZM159.694 103.094C160.917 104.476 161.502 107.196 160.95 108.927C160.736 109.598 160.73 109.728 160.923 109.553C161.731 108.82 161.742 105.66 160.941 104.166C160.464 103.276 159.684 102.452 159.318 102.452C159.212 102.452 159.382 102.741 159.694 103.094ZM158.882 103.193C159.746 104.18 160.321 105.876 160.33 107.46C160.335 108.239 160.238 109.083 160.114 109.335C159.991 109.587 159.936 109.844 159.993 109.906C160.049 109.968 160.27 109.588 160.482 109.063C161.175 107.349 160.674 104.69 159.393 103.289C158.684 102.514 158.21 102.425 158.882 103.193ZM157.568 104.054C157.44 104.639 157.064 106.039 156.731 107.165C156.398 108.291 156.126 109.256 156.126 109.31C156.126 109.363 156.309 109.361 156.532 109.304C156.756 109.247 157.406 109.098 157.978 108.972C158.99 108.75 159.016 108.728 159.016 108.092C159.016 107.383 158.241 103.851 157.968 103.319C157.837 103.062 157.749 103.224 157.568 104.054ZM158.874 104.542C159.405 105.784 159.459 106.083 159.463 107.824C159.466 109.1 159.528 109.673 159.648 109.541C159.748 109.433 159.828 108.482 159.827 107.429C159.824 105.39 159.53 104.404 158.672 103.555C158.346 103.233 158.376 103.38 158.874 104.542ZM138.612 104.944C138.303 105.229 137.921 105.733 137.764 106.065C137.391 106.855 137.401 108.338 137.787 109.226C137.983 109.68 139.822 111.66 142.902 114.735C145.546 117.376 148.734 120.558 149.985 121.807C151.237 123.056 155.909 127.722 160.369 132.176C164.828 136.629 169.522 141.315 170.799 142.589C173.483 145.265 174.06 145.568 175.4 145.008C176.956 144.359 177.648 142.13 176.846 140.356C176.669 139.966 175.457 138.589 174.138 137.282C169.638 132.819 159.829 123.067 157.39 120.631C149.911 113.159 141.708 105.061 141.319 104.766C140.612 104.229 139.295 104.316 138.612 104.944ZM139.626 105.046C139.238 105.292 138.614 106.697 138.608 107.336C138.598 108.524 139.174 109.345 142.005 112.173C143.559 113.724 147.229 117.397 150.162 120.335C166.93 137.132 174.237 144.328 174.64 144.438C175.855 144.772 176.717 143.765 176.718 142.011C176.718 141.445 176.627 140.763 176.515 140.494C176.403 140.226 172.524 136.244 167.896 131.647C163.268 127.05 158.416 122.222 157.112 120.918C146.687 110.49 141.398 105.28 140.998 105.046C140.524 104.769 140.062 104.769 139.626 105.046ZM138.514 105.612C137.859 106.36 137.666 108.138 138.134 109.126C138.294 109.464 141.574 112.887 145.424 116.732C153.312 124.611 156.873 128.169 165.413 136.702C173.036 144.319 173.457 144.717 173.9 144.717C174.242 144.717 174.237 144.692 173.823 144.383C173.578 144.199 172.523 143.193 171.48 142.147C170.437 141.101 165.849 136.519 161.286 131.964C156.722 127.41 151.56 122.254 149.815 120.507C148.07 118.76 145.017 115.716 143.03 113.742C141.043 111.768 139.198 109.835 138.929 109.447C138.194 108.382 138.098 107.214 138.646 106.003C138.891 105.462 139.078 105.02 139.062 105.02C139.046 105.02 138.8 105.286 138.514 105.612ZM125.312 107.682C125.245 107.974 125.231 108.764 125.28 109.437C125.492 112.324 127.435 114.179 128.914 112.907C129.848 112.104 130.18 109.419 129.537 107.875C129.345 107.414 129.254 107.389 127.782 107.387C126.929 107.385 126.052 107.332 125.833 107.267C125.511 107.173 125.411 107.252 125.312 107.682ZM132.821 109.414C131.498 115.046 129.06 120.793 126.26 124.881C124.967 126.769 122.476 129.424 120.834 130.665C118.975 132.07 116.442 133.355 114.479 133.888C113.181 134.241 112.368 134.325 110.335 134.316C107.88 134.305 106.831 134.116 104.013 133.179C103.814 133.113 103.936 133.203 104.284 133.379C106.251 134.374 110.195 134.973 112.643 134.65C115.05 134.332 116.245 133.956 118.295 132.87C124.847 129.403 130.196 121.319 132.902 110.796C133.416 108.797 133.445 108.575 133.192 108.575C133.097 108.575 132.93 108.952 132.821 109.414ZM133.544 109.809C133.435 110.27 133.015 111.759 132.609 113.117C129.858 122.324 125.162 129.247 119.276 132.772C118.432 133.278 117.873 133.647 118.033 133.592C118.194 133.537 119.698 133.165 121.375 132.765C123.547 132.248 124.866 131.814 125.96 131.258C129.114 129.654 132.603 126.116 135.081 122.006C136.231 120.1 138.09 116.212 138.689 114.464L139.005 113.539L137.857 112.371C135.903 110.385 134.227 108.97 133.828 108.97C133.78 108.97 133.652 109.347 133.544 109.809ZM157.43 109.573C156.608 109.754 155.909 109.937 155.877 109.979C155.846 110.021 155.605 110.673 155.343 111.428L154.865 112.799L155.27 113.273C155.608 113.669 155.801 113.732 156.442 113.654C156.864 113.603 157.326 113.455 157.467 113.327C157.774 113.048 159.052 109.781 158.978 109.464C158.941 109.308 158.491 109.339 157.43 109.573ZM117.56 112.622C117.461 112.658 117.163 112.74 116.897 112.803C116.631 112.867 116.177 113.138 115.887 113.404C115.527 113.735 114.966 113.958 114.119 114.106C113.436 114.225 112.772 114.419 112.643 114.536C112.352 114.8 110.788 117.527 110.784 117.775C110.783 117.874 110.502 118.154 110.16 118.396C109.481 118.877 108.98 120.241 108.98 121.61C108.98 123.457 110.107 125.607 111.366 126.162C111.693 126.306 112.21 126.628 112.515 126.877C113.631 127.788 115.494 128.557 116.828 128.657C120.016 128.898 120.616 128.849 121.401 128.28C122.949 127.161 123.796 125.187 123.926 122.4C124.116 118.344 122.44 114.385 119.962 113.035C119.141 112.588 118.13 112.414 117.56 112.622ZM116.613 113.377C116.222 113.615 116.235 113.633 116.974 113.875C118.345 114.325 120.614 115.743 120.856 116.303C120.98 116.588 121.417 118.162 121.827 119.8L122.572 122.779L121.362 125.057C120.061 127.508 119.734 127.875 118.693 128.058C117.788 128.217 118.012 128.522 119.034 128.522C120.163 128.522 121.014 128.027 121.724 126.958C123.287 124.604 123.336 120.043 121.834 116.684C121.259 115.398 119.889 113.804 119.016 113.405C118.251 113.056 117.163 113.043 116.613 113.377ZM119.909 113.551C121.382 114.783 122.589 116.945 123.084 119.24C123.476 121.055 123.352 123.933 122.806 125.658C122.681 126.053 122.681 126.053 122.91 125.659C123.584 124.493 123.79 121.474 123.35 119.207C122.869 116.724 121.353 114.161 119.909 113.388L119.367 113.098L119.909 113.551ZM98.6841 114.102C98.4856 114.241 98.5873 114.284 99.0651 114.266C99.6216 114.244 99.9697 114.46 101.444 115.743C102.393 116.57 103.215 117.406 103.27 117.601C103.45 118.237 104.103 122.969 104.103 123.633C104.103 124.138 103.831 124.65 102.866 125.961C101.581 127.707 101.043 128.127 100.091 128.127C99.39 128.127 99.5293 128.307 100.395 128.521C103.214 129.216 105.302 124.905 104.397 120.257C103.835 117.368 102.277 114.735 100.755 114.102C100.161 113.855 99.038 113.855 98.6841 114.102ZM138.943 114.916C137.577 118.415 135.274 122.826 134.033 124.325C133.83 124.569 133.758 124.77 133.872 124.77C134.462 124.77 138.252 119.197 139.688 116.218L140.32 114.906L139.84 114.379L139.359 113.852L138.943 114.916ZM114.999 114.377C114.286 114.499 113.654 114.652 113.596 114.717C113.471 114.857 115.017 115.761 116.285 116.29C117.137 116.646 117.246 116.648 118.684 116.339L120.19 116.016L119.688 115.653C119.118 115.241 116.669 114.091 116.444 114.13C116.363 114.144 115.712 114.255 114.999 114.377ZM102.499 114.993C103.402 116.083 104 117.299 104.492 119.042C105.051 121.021 105.069 123.947 104.531 125.6C104.33 126.219 104.23 126.682 104.31 126.628C104.389 126.575 104.619 125.947 104.821 125.234C105.784 121.825 104.837 117.268 102.713 115.092C101.89 114.249 101.879 114.244 102.499 114.993ZM98.3228 114.806C98.1738 114.841 97.6642 114.925 97.1904 114.993C96.6657 115.069 96.374 115.197 96.4442 115.322C96.5076 115.434 97.2206 116.059 98.0282 116.71L99.497 117.894L100.7 117.777C102.891 117.564 102.902 117.525 101.215 116.019C99.7448 114.705 99.3904 114.557 98.3228 114.806ZM112.629 115.132C112.257 115.539 112.39 115.672 112.954 115.458C113.252 115.344 113.45 115.171 113.395 115.073C113.254 114.823 112.886 114.851 112.629 115.132ZM95.4327 115.586C95.2407 115.839 95.2934 115.882 95.7939 115.882C96.2945 115.882 96.3472 115.839 96.1552 115.586C96.0315 115.423 95.8689 115.29 95.7939 115.29C95.719 115.29 95.5564 115.423 95.4327 115.586ZM140.035 116.315C139.259 118.136 136.878 121.912 135.51 123.491C134.778 124.337 133.46 125.682 132.581 126.479C131.702 127.277 131.039 127.93 131.106 127.93C131.174 127.93 131.853 127.464 132.614 126.895C134.454 125.52 136.981 122.727 138.426 120.472C139.757 118.396 141.156 115.687 141.021 115.449C140.798 115.054 140.438 115.37 140.035 116.315ZM112.607 116.023C112.266 116.217 111.79 116.722 111.549 117.145L111.11 117.914L111.535 117.788C113.482 117.213 114.057 117.174 114.73 117.568C116.841 118.804 117.562 123.205 115.963 125.095C115.484 125.661 115.206 125.8 114.219 125.966C112.453 126.262 112.401 126.309 113.225 126.856C114.649 127.8 116.129 127.336 117.025 125.665C117.625 124.545 117.842 121.995 117.467 120.48C116.602 116.994 114.418 114.992 112.607 116.023ZM140.804 117.062C139.061 120.528 136.69 123.828 134.602 125.695C132.648 127.441 132.515 127.596 133.726 126.712C135.229 125.614 138.01 122.693 139.138 121.028C139.62 120.316 140.436 118.989 140.951 118.079C141.742 116.682 141.85 116.383 141.642 116.156C141.434 115.928 141.303 116.069 140.804 117.062ZM94.2824 117.112C93.5714 117.907 93.5557 117.95 93.9531 118.016C94.1825 118.054 94.6214 117.989 94.9283 117.872C95.9325 117.49 96.6319 117.609 97.3337 118.283C98.3068 119.217 98.7305 120.279 98.8259 122.022C98.9744 124.741 98.1691 125.882 95.9453 126.102C95.3653 126.16 94.8908 126.276 94.8908 126.361C94.8908 126.7 96.1444 127.337 96.8088 127.336C98.4654 127.334 99.4316 125.805 99.5522 122.995C99.7074 119.381 97.9901 116.277 95.8359 116.277C95.1254 116.277 94.9397 116.377 94.2824 117.112ZM118.683 116.761C118.109 116.901 117.586 117.072 117.522 117.142C117.329 117.353 117.935 120.637 118.401 121.906L118.836 123.091L119.553 123.037C119.947 123.008 120.687 122.875 121.196 122.741L122.122 122.498L121.377 119.536C120.529 116.167 120.643 116.284 118.683 116.761ZM116.513 117.421C117 118.174 117.021 118.185 117.078 117.709C117.145 117.153 117.019 116.974 116.422 116.777C116.014 116.642 116.016 116.653 116.513 117.421ZM141.463 117.932C138.669 123.082 134.926 126.941 130.673 129.056L128.94 129.917L129.934 129.786C132.593 129.434 135.354 128.272 137.492 126.606C139.725 124.866 142.378 121.812 143.906 119.222C144.208 118.71 144.207 118.709 143.163 117.717L142.119 116.723L141.463 117.932ZM98.6857 117.704C98.6866 117.734 98.8873 118.203 99.1317 118.746L99.5759 119.733L99.5817 119.015C99.586 118.464 99.4827 118.223 99.1357 117.974C98.8873 117.796 98.6848 117.675 98.6857 117.704ZM114.051 117.951C115.413 118.761 116.371 121.971 115.847 123.968C115.612 124.865 115.745 124.961 116.12 124.166C116.59 123.173 116.43 121.027 115.777 119.568C115.275 118.448 114.471 117.652 113.857 117.668C113.703 117.672 113.786 117.794 114.051 117.951ZM101.143 118.119L99.9 118.321L100.001 120.311C100.115 122.536 100.542 124.375 100.946 124.375C101.089 124.375 101.785 124.266 102.492 124.133L103.778 123.892L103.661 122.899C103.216 119.121 102.969 117.858 102.681 117.887C102.519 117.903 101.828 118.008 101.143 118.119ZM113.445 118.334C113.731 118.597 114.199 119.282 114.485 119.858C115.147 121.187 115.328 123.439 114.872 124.672L114.581 125.461L115.021 124.921C116.212 123.459 115.532 119.529 113.876 118.309C113.067 117.713 112.788 117.729 113.445 118.334ZM96.6415 118.696C97.4047 119.576 97.7255 120.337 97.9592 121.825C98.1211 122.856 98.1073 123.273 97.8857 124.069C97.5645 125.224 97.627 125.407 98.0826 124.647C98.3292 124.236 98.4132 123.717 98.4132 122.606C98.4132 120.773 97.9953 119.486 97.1306 118.656C96.2965 117.855 95.9372 117.885 96.6415 118.696ZM112.765 118.761C114.06 120.04 114.645 123.075 113.948 124.899C113.697 125.556 113.699 125.588 113.976 125.337C114.768 124.618 114.979 122.683 114.47 120.808C114.161 119.671 112.914 118.055 112.345 118.055C112.15 118.055 112.293 118.295 112.765 118.761ZM96.0644 119.154C97.2067 120.79 97.5524 123.35 96.8418 124.907C96.6476 125.333 96.6276 125.501 96.7784 125.437C97.2132 125.255 97.6003 123.977 97.6003 122.724C97.6003 121.125 97.1718 119.772 96.3975 118.925C95.517 117.963 95.325 118.094 96.0644 119.154ZM110.877 118.45C110.572 118.593 110.605 118.621 111.089 118.633C113.563 118.693 114.494 124.373 112.232 125.609C111.726 125.885 111.679 125.954 111.994 125.954C113.244 125.955 113.862 124.958 113.849 122.962C113.837 120.946 113.049 119.132 111.934 118.549C111.293 118.215 111.362 118.222 110.877 118.45ZM93.1747 118.662C92.8566 118.798 92.8523 118.818 93.1386 118.831C94.178 118.875 95.325 120.498 95.5425 122.232C95.7463 123.858 94.9634 125.597 93.9285 125.817C93.6673 125.873 93.7363 125.91 94.135 125.928C94.9784 125.966 95.3453 125.691 95.682 124.771C96.6628 122.091 94.9437 117.902 93.1747 118.662ZM94.9654 118.945C96.1747 120.17 96.7356 123.495 95.9943 125.044L95.6265 125.812L96.0736 125.353C96.9258 124.478 97.0878 122.285 96.428 120.558C96.0859 119.663 95.1232 118.45 94.7553 118.45C94.5602 118.45 94.6231 118.598 94.9654 118.945ZM110.195 119.289C109.848 119.575 109.342 120.825 109.342 121.396C109.342 122.53 109.777 123.871 110.384 124.605C110.934 125.271 111.117 125.374 111.668 125.323C113.427 125.16 113.707 121.422 112.098 119.585C111.578 118.992 110.718 118.858 110.195 119.289ZM143.398 120.645C141.279 123.882 138.551 126.558 135.686 128.211C133.882 129.251 132.317 129.797 130.275 130.098C128.454 130.366 127.88 130.49 127.976 130.595C128.139 130.772 131.727 130.273 132.973 129.899C135.646 129.098 138.113 127.459 140.611 124.826C142.661 122.665 144.959 119.407 144.602 119.166C144.513 119.105 143.971 119.771 143.398 120.645ZM92.3715 119.624C91.0272 121.094 91.984 125.362 93.6578 125.362C95.0933 125.362 95.6697 122.698 94.691 120.586C94.0888 119.287 93.0674 118.863 92.3715 119.624ZM143.934 121.264C141.917 124.314 139.268 127.008 136.617 128.704C136.071 129.054 135.787 129.294 135.985 129.237C136.184 129.181 137.441 128.863 138.778 128.531C142.36 127.643 144.588 126.382 147.283 123.718L148.247 122.765L146.722 121.209C145.884 120.354 145.156 119.649 145.105 119.644C145.053 119.639 144.527 120.368 143.934 121.264ZM117.985 123.131C117.936 124.063 117.972 124.296 118.14 124.143C118.515 123.802 118.57 123.278 118.304 122.585L118.048 121.919L117.985 123.131ZM120.299 123.365C119.042 123.648 118.823 123.765 118.352 124.408C117.75 125.228 116.344 127.949 116.457 128.073C116.498 128.118 117.198 127.998 118.012 127.807C119.685 127.414 119.712 127.386 121.154 124.704C122.025 123.084 122.07 122.975 121.851 123.02C121.776 123.035 121.078 123.19 120.299 123.365ZM99.8929 123.913C99.8246 124.365 99.7166 124.898 99.6529 125.098C99.5522 125.413 99.5905 125.405 99.9457 125.036C100.304 124.664 100.333 124.518 100.186 123.851L100.017 123.091L99.8929 123.913ZM101.781 124.671C100.698 124.905 100.552 125.008 99.2 126.474C97.5734 128.239 97.6106 128.315 99.8346 127.779L101.256 127.436L102.425 125.905C103.705 124.23 103.716 124.251 101.781 124.671ZM115.605 127.524C114.96 127.853 114.943 127.884 115.334 127.999C115.942 128.177 115.948 128.174 116.173 127.633C116.286 127.362 116.36 127.147 116.337 127.156C116.315 127.164 115.985 127.33 115.605 127.524ZM97.1487 127.724C96.6885 127.846 96.6567 127.891 96.937 128.024C97.1561 128.128 97.3664 128.073 97.5627 127.858C97.7253 127.68 97.8207 127.545 97.7744 127.558C97.7284 127.571 97.4468 127.646 97.1487 127.724ZM187.376 141.529L186.744 141.669L187.499 141.79C189.192 142.061 191.107 143.668 192.596 146.069C193.649 147.767 195.065 151.04 195.45 152.667L195.765 154.001L196.403 153.876C196.753 153.807 197.101 153.712 197.175 153.666C197.612 153.393 196.908 150.678 195.761 148.213C194.299 145.07 192.452 142.683 190.902 141.933C190.026 141.51 188.336 141.316 187.376 141.529ZM184.819 142.425C181.995 143.528 179.28 147.218 178.41 151.136C177.973 153.106 177.977 156.348 178.418 157.752C178.856 159.146 179.727 160.64 180.58 161.458C181.339 162.185 183.368 163.352 184.836 163.904C186.854 164.664 189.363 164.816 189.363 164.178C189.363 164.043 188.123 162.799 186.608 161.414C185.093 160.028 183.742 158.666 183.605 158.387C183.229 157.618 183.426 154.4 183.933 153.02C184.833 150.573 186.528 148.859 188.198 148.707L189.129 148.623L192.07 151.307C193.687 152.783 195.072 153.949 195.148 153.897C195.511 153.652 194.296 149.929 193.16 147.808C191.594 144.883 189.962 143.095 188.258 142.438C187.342 142.084 185.706 142.078 184.819 142.425ZM187.056 149.48C185.171 150.5 183.769 153.521 183.766 156.567C183.766 157.456 183.862 158.013 184.08 158.379C184.254 158.67 185.594 159.995 187.06 161.324C188.744 162.851 189.724 163.875 189.724 164.107C189.724 164.487 190.07 164.473 191.124 164.048C191.903 163.734 191.89 163.717 188.25 160.29C185.874 158.053 185.57 157.586 185.57 156.179C185.57 153.929 186.382 151.549 187.659 150.056C188.619 148.934 188.418 148.743 187.056 149.48Z" fill="white"/>
</svg>
