<svg width="242" height="196" viewBox="0 0 242 196" fill="none" xmlns="http://www.w3.org/2000/svg">
<path opacity="0.8" fill-rule="evenodd" clip-rule="evenodd" d="M113.123 19.5888C112.979 19.9379 112.862 20.3641 112.862 20.5354C112.862 20.7069 112.397 21.041 111.829 21.2782C110.972 21.6353 110.648 21.6611 109.927 21.4288C108.949 21.1134 108.797 21.2237 107.829 22.9532L107.304 23.8918L107.953 24.5326C108.34 24.9148 108.651 25.565 108.723 26.1449C108.829 26.9963 108.745 27.1948 108.045 27.7459C107.305 28.3285 107.27 28.4272 107.565 29.0852C107.74 29.4759 108.154 30.11 108.485 30.4942C109.055 31.1553 109.138 31.1774 110.03 30.9055C110.85 30.655 111.085 30.6813 111.851 31.1101C112.448 31.4442 112.822 31.8957 113.016 32.5182C113.294 33.4128 113.333 33.4359 114.679 33.5083C116.233 33.5919 116.673 33.3644 116.889 32.3665C116.988 31.9066 117.362 31.4977 118.003 31.148C118.836 30.6932 119.09 30.6589 119.865 30.8958C120.943 31.2248 121.156 31.0938 122.056 29.5463L122.713 28.4177L121.991 27.8397C121.008 27.0537 120.97 25.4872 121.912 24.5782L122.556 23.9567L122.072 22.9855C121.223 21.2813 120.993 21.1086 120 21.4288C118.673 21.8567 117.228 21.1841 116.909 19.9902L116.671 19.0987L115.027 19.0263C113.466 18.9575 113.371 18.9855 113.123 19.5888ZM113.767 20.5398C113.624 21.248 113.39 21.4677 112.209 22.002C111.061 22.5215 110.695 22.5868 110.101 22.3779C109.512 22.1706 109.318 22.2027 109.027 22.5557C108.301 23.4375 108.3 23.8991 109.021 24.3851C109.619 24.7879 109.71 25.0241 109.71 26.1768C109.71 27.3088 109.608 27.5855 109.02 28.0533C108.342 28.5927 108.338 28.6157 108.769 29.3869C109.173 30.1095 109.282 30.1591 110.139 30.0104C110.831 29.8904 111.399 29.9907 112.343 30.3999C113.408 30.8611 113.652 31.0938 113.839 31.8281C114.042 32.6212 114.149 32.7052 114.95 32.7052C115.714 32.7052 115.876 32.5971 116.122 31.9234C116.503 30.8832 118.694 29.5468 119.425 29.9089C120.262 30.3234 120.711 30.1863 121.163 29.378C121.589 28.617 121.584 28.5922 120.907 28.0934C120.315 27.6567 120.217 27.3977 120.217 26.2706C120.217 25.1881 120.337 24.8411 120.898 24.2998C121.612 23.6107 121.603 23.5526 120.573 22.1684C120.537 22.1196 120.138 22.1985 119.687 22.3441C118.984 22.5708 118.685 22.5207 117.599 21.9952C116.552 21.4891 116.301 21.2352 116.16 20.5439C116.001 19.7586 115.926 19.7061 114.964 19.7061C114.002 19.7061 113.926 19.7591 113.767 20.5398ZM129.018 21.8615C127.972 22.4624 127.146 23.3179 126.802 24.1562C126.613 24.6188 126.522 30.8246 126.522 43.3351C126.522 61.616 126.528 61.8425 127.073 62.8822C127.455 63.6128 127.997 64.1374 128.846 64.599L130.069 65.2638L169.695 65.3277C197.143 65.3719 209.642 65.3119 210.362 65.1324C211.754 64.7856 213.311 63.4466 213.693 62.2682C213.915 61.5823 214 56.438 214 43.6741V26.0283L212.35 25.3363C210.484 24.5537 209.028 23.4649 208.209 22.2403L207.652 21.4069L168.729 21.4079C131.216 21.4086 129.777 21.4252 129.018 21.8615ZM130.331 22.314C130.042 22.3808 129.479 22.65 129.079 22.9124C127.51 23.9426 127.573 23.0881 127.574 43.3232C127.575 61.2705 127.591 61.8869 128.087 62.6387C128.368 63.0656 128.924 63.6123 129.322 63.8536C130.01 64.2705 131.995 64.2948 169.987 64.3539C207.633 64.4124 209.98 64.3915 210.829 63.9894C211.324 63.7549 211.975 63.2544 212.274 62.8771C212.811 62.2001 212.819 61.9601 212.889 44.403L212.959 26.6146L211.387 25.9474C210.255 25.4668 209.39 24.8404 208.296 23.7081L206.776 22.1361L168.816 22.1643C147.938 22.1796 130.62 22.2469 130.331 22.314ZM72.2754 22.5297C69.9019 22.8449 65.994 23.7295 63.6697 24.4777C47.7947 29.5886 36.5017 43.357 35.448 58.8857L35.2872 61.2547L34.1448 61.2851C33.5164 61.3019 32.8841 61.3429 32.7396 61.3762C32.5951 61.4095 32.3574 61.4506 32.2113 61.4673C32.033 61.4877 31.9683 75.2474 32.0143 103.268L32.0829 145.039L32.8775 146.093C34.4508 148.178 30.1678 147.996 77.6034 147.996C112.571 147.997 119.854 147.94 120.567 147.665C121.66 147.243 122.748 146.049 123.096 144.891C123.513 143.502 123.472 61.9329 123.055 61.5463C122.881 61.3859 122.113 61.2547 121.347 61.2547H119.955V59.8887C119.955 56.3117 118.447 50.2232 116.558 46.1706C111.006 34.2593 99.9656 25.935 85.8042 22.9831C83.8952 22.5851 74.2837 22.2632 72.2754 22.5297ZM113.519 23.3228C110.906 24.4356 110.834 27.8394 113.398 29.0655C115.636 30.1363 118.375 28.5509 118.378 26.1824C118.379 24.9155 117.686 23.9227 116.397 23.3456C115.086 22.7586 114.848 22.7569 113.519 23.3228ZM71.0932 23.6989C63.1866 25.0137 57.1772 27.5734 51.2106 32.1685C33.3296 45.9386 31.3757 71.0672 46.9178 87.3745C50.1661 90.7824 55.1654 94.3595 59.4232 96.3217C65.59 99.1638 73.8108 100.628 80.7253 100.117C86.5174 99.6877 90.8685 98.5758 95.918 96.2343C107.376 90.9209 115.416 81.1978 118.114 69.3944C118.837 66.2284 119.092 60.4646 118.652 57.2155C117.449 48.3256 113.289 40.4877 106.488 34.2972C100.806 29.1253 94.4151 25.8648 86.6091 24.1547C84.2312 23.634 83.063 23.5344 78.4487 23.4591C74.6972 23.3979 72.4658 23.4708 71.0932 23.6989ZM113.255 24.4232C111.52 26.0273 112.626 28.5018 115.077 28.5018C116.79 28.5018 117.892 26.9978 117.331 25.426C116.776 23.869 114.468 23.3014 113.255 24.4232ZM165.533 25.8726C163.514 26.4754 162.179 27.2879 160.362 29.0181C157.03 32.1921 153.145 37.0691 148.662 43.7076C147.282 45.7498 146.127 47.3899 146.094 47.3522C146.06 47.3146 145.007 45.9439 143.754 44.3063C141.18 40.9445 140.6 40.4753 139.299 40.701C138.565 40.8284 135.454 42.6106 135.454 42.9036C135.454 42.9522 135.998 43.5749 136.662 44.2873C137.683 45.381 140.567 49.2795 143.411 53.4086C143.935 54.1686 144.371 54.4947 145.113 54.6791C146.35 54.9874 147.757 54.6674 148.515 53.9052C148.814 53.6042 150.745 50.7339 152.805 47.5267C158.956 37.9542 163.268 32.1491 167.216 28.1293C168.139 27.1895 168.81 26.2932 168.763 26.064C168.656 25.5402 166.978 25.4406 165.533 25.8726ZM165.209 26.9844C163.523 27.5457 162.762 28.0445 161.049 29.7099C157.622 33.042 154.213 37.3439 149.381 44.4356C147.721 46.8707 146.282 48.863 146.182 48.863C146.082 48.863 144.972 47.4973 143.715 45.8283C141.101 42.3572 140.378 41.5738 139.788 41.5738C139.289 41.5738 137.868 42.2145 137.242 42.7216C136.826 43.0584 136.832 43.1157 137.334 43.6034C138.161 44.4083 141.252 48.4886 142.942 51.0068C144.703 53.6302 145.295 54.0897 146.623 53.8593C147.706 53.6713 147.687 53.6965 152.654 45.9473C157.855 37.8315 162.165 32.0393 166.348 27.542C167.418 26.3906 167.246 26.3063 165.209 26.9844ZM74.0633 27.0109C51.7504 28.9202 36.2839 48.7467 41.1238 69.2357C41.8462 72.2945 42.5616 74.1542 44.2003 77.2334C49.208 86.6451 58.4263 93.4026 69.5171 95.7933C72.8604 96.5139 80.1326 96.6855 83.7352 96.1286C93.8078 94.5721 102.993 89.0546 108.63 81.1742C113.27 74.688 115.197 68.2453 114.878 60.2828C114.795 58.2115 114.536 55.6967 114.302 54.6944C110.593 38.8073 96.4676 27.6594 79.1055 26.9166C77.6606 26.8547 75.3917 26.8972 74.0633 27.0109ZM176.479 27.5168C173.14 29.0453 172.943 33.415 176.13 35.2839C179.305 37.1466 183.204 35.3357 183.475 31.8728C183.759 28.2372 180.007 25.9012 176.479 27.5168ZM74.5083 27.8688C67.8027 28.6063 62.5399 30.2983 57.6957 33.2745C49.135 38.534 43.6252 46.3964 41.749 56.0308C41.1743 58.9812 41.1884 64.5429 41.7782 67.5721C44.1656 79.8342 53.62 90.0326 66.2231 93.9401C70.1018 95.1428 73.1748 95.5734 77.792 95.5612C82.768 95.5481 86.5306 94.9256 90.5417 93.4522C104.92 88.1709 113.913 75.9683 113.913 61.7407C113.913 52.7322 110.442 44.6326 103.846 38.2519C97.0235 31.6507 88.5557 28.1694 78.5801 27.8642C76.8463 27.811 75.014 27.8132 74.5083 27.8688ZM131.261 28.192C130.899 28.8184 130.883 57.3236 131.245 58.2034L131.502 58.8286L148.123 58.7659L164.744 58.7035L164.812 46.5973C164.877 35.1547 164.855 34.4955 164.418 34.5732C163.986 34.6503 163.952 35.4064 163.888 46.2545L163.82 57.8531H147.97H132.12L132.145 43.3354L132.17 28.8177L145.042 28.6962C156.251 28.5905 157.914 28.5275 157.914 28.2102C157.914 27.8919 156.243 27.8377 144.724 27.7828C131.895 27.7216 131.527 27.7328 131.261 28.192ZM177.7 27.9602C175.895 28.4704 174.862 29.7436 174.86 31.4617C174.857 33.6725 176.422 35.0951 178.865 35.1029C180.41 35.108 181.331 34.5365 182.164 33.0554C182.887 31.7722 182.817 30.5496 181.957 29.4329C181.023 28.2192 179.117 27.5598 177.7 27.9602ZM178.273 28.9248C178.273 29.1843 178.378 29.4564 178.506 29.5296C178.826 29.7125 179.409 29.0205 179.2 28.7069C178.912 28.2766 178.273 28.4267 178.273 28.9248ZM177.026 28.8706C176.496 29.0465 176.649 29.6681 177.223 29.6681C177.511 29.6681 177.748 29.5106 177.748 29.3179C177.748 28.8954 177.47 28.7231 177.026 28.8706ZM179.881 29.0254C179.652 29.2805 179.667 29.427 179.943 29.6389C180.219 29.8505 180.377 29.8369 180.606 29.5818C180.835 29.3267 180.82 29.1802 180.544 28.9683C180.268 28.7567 180.11 28.7703 179.881 29.0254ZM198.588 31.4967C197.987 32.7628 197.61 33.7986 197.752 33.7986C198.003 33.7986 200.077 29.8943 200.077 29.4207C200.077 28.7265 199.568 29.4365 198.588 31.4967ZM187.205 31.5985C187.205 32.9033 187.312 33.7986 187.468 33.7986C187.612 33.7986 187.73 33.3613 187.73 32.8267C187.73 31.5334 188.333 31.5375 189.049 32.8352C189.707 34.029 190.221 33.8953 189.67 32.6739C189.31 31.8786 189.316 31.7623 189.733 31.3356C190.091 30.9704 190.136 30.7238 189.94 30.2075C189.723 29.6314 189.531 29.5371 188.448 29.4725L187.205 29.3984V31.5985ZM190.62 31.2301C190.62 33.208 190.953 33.7986 192.069 33.7986C193.056 33.7986 193.51 32.9407 193.51 31.0717C193.51 29.7701 193.427 29.4251 193.116 29.4251C192.801 29.4251 192.722 29.7866 192.722 31.2214C192.722 32.6975 192.641 33.0464 192.269 33.1783C191.546 33.4351 191.145 32.6443 191.145 30.958C191.145 30.0981 191.03 29.4251 190.883 29.4251C190.731 29.4251 190.62 30.1888 190.62 31.2301ZM194.298 31.6119C194.298 32.9076 194.405 33.7986 194.56 33.7986C194.706 33.7986 194.83 33.1207 194.839 32.28L194.855 30.7615L195.683 32.28C196.139 33.1154 196.605 33.7986 196.718 33.7986C196.832 33.7986 196.925 32.8146 196.925 31.6119C196.925 30.3161 196.818 29.4251 196.662 29.4251C196.518 29.4251 196.394 30.0537 196.387 30.8222L196.374 32.2193L195.594 30.8222C195.166 30.0537 194.698 29.4251 194.556 29.4251C194.406 29.4251 194.298 30.3397 194.298 31.6119ZM200.874 29.895C200.404 30.708 200.537 32.9395 201.083 33.3965C202.304 34.4182 203.492 33.5506 203.492 31.6376C203.492 29.9171 203.171 29.4251 202.047 29.4251C201.426 29.4251 201.062 29.5706 200.874 29.895ZM204.28 31.6119C204.28 32.9076 204.387 33.7986 204.543 33.7986C204.687 33.7986 204.806 33.4225 204.806 32.9626C204.806 31.7494 205.213 31.7008 206.013 32.818C206.399 33.3574 206.817 33.7986 206.942 33.7986C207.292 33.7986 207.226 33.5989 206.468 32.351L205.766 31.1964L206.337 30.4555C206.651 30.0481 206.907 29.6494 206.907 29.5699C206.907 29.1804 206.413 29.5233 205.65 30.4412L204.806 31.4573V30.4412C204.806 29.8824 204.687 29.4251 204.543 29.4251C204.387 29.4251 204.28 30.3161 204.28 31.6119ZM71.7124 30.0352C67.1594 30.7738 62.3791 32.5799 58.2211 35.1321C55.4767 36.8166 51.0532 40.9666 49.0904 43.6976C45.24 49.0552 43.5816 53.9021 43.3315 60.5258C43.1729 64.7334 43.6641 68.143 44.9568 71.8054C46.4513 76.0404 49.2782 80.4949 52.4468 83.6084L54.0542 85.1877L57.0516 82.3327C59.4818 80.0179 60.189 79.4778 60.79 79.4778C61.7116 79.4778 62.1616 79.0813 62.1616 78.2695C62.1616 77.8108 62.7219 77.129 64.2631 75.7117L66.3647 73.7793V74.8061C66.3647 75.371 66.4829 75.8332 66.6274 75.8332C66.7719 75.8332 66.8901 75.4979 66.8901 75.088C66.8901 74.4718 66.9747 74.3676 67.379 74.4861C67.6669 74.5707 68.1256 74.4363 68.4954 74.1591C69.0739 73.7256 69.0973 73.6258 68.7941 72.8815L68.4652 72.0741L72.196 68.6173L75.9268 65.1603L77.2535 65.1912C79.7538 65.2487 81.3355 63.889 81.3373 61.6797C81.3384 60.5423 81.3786 60.4874 84.0959 57.9136C85.6127 56.4771 86.854 55.2431 86.8542 55.1711C86.8548 55.0995 86.286 54.5222 85.5904 53.8885L84.326 52.7365L82.7664 54.2658C81.9087 55.1067 80.6683 56.3398 80.0099 57.0061C78.9153 58.1138 78.7083 58.2195 77.5926 58.2406C75.3447 58.2829 73.4798 60.2522 73.8205 62.2237C73.9679 63.0761 73.8311 63.2447 68.0341 69.362C63.7932 73.8374 62.016 75.5528 61.814 75.3659C61.4331 75.0136 59.9791 75.0333 59.5872 75.3958C59.4098 75.5598 59.2719 76.3463 59.2719 77.1951V78.7027L57.0834 80.9733C54.0774 84.0921 54.1465 84.0476 53.3536 83.3586C52.9966 83.0485 52.7074 82.7317 52.7108 82.6549C52.7142 82.5779 53.1871 82.1933 53.7616 81.8001C54.3361 81.407 54.8061 80.9424 54.8061 80.7675C54.8061 80.25 54.494 80.3933 53.3389 81.4418L52.2461 82.4338L51.6871 81.708C51.3797 81.3088 51.131 80.8897 51.1339 80.7767C51.137 80.6637 51.6114 80.2624 52.188 79.885C52.7649 79.5074 53.1682 79.0961 53.0844 78.9705C53.0003 78.8448 52.4079 79.0902 51.7677 79.5154C51.1276 79.9407 50.5643 80.2427 50.5163 80.1868C50.1438 79.7543 49.5522 78.8529 49.5522 78.718C49.5522 78.6267 50.087 78.2622 50.7406 77.9079C51.3945 77.5534 51.8563 77.1545 51.7672 77.0211C51.6661 76.87 51.3669 76.921 50.9726 77.1564C50.6248 77.3642 50.0521 77.706 49.6998 77.9164C49.0751 78.2896 49.047 78.2765 48.5513 77.3829L48.043 76.4666L49.3228 75.918C50.0269 75.6164 50.603 75.2551 50.603 75.1154C50.603 74.758 50.4868 74.7845 49.0079 75.4777L47.6928 76.0939L47.3918 75.2955C47.2263 74.8562 47.1338 74.4422 47.1866 74.3753C47.2391 74.3085 48.1092 73.9234 49.1198 73.5193C50.1304 73.1155 51.0057 72.6507 51.0648 72.4867C51.2368 72.0092 50.5373 72.1366 48.6572 72.925C47.6912 73.3301 46.7999 73.6034 46.6764 73.5329C46.5527 73.4622 46.326 73.071 46.1726 72.6641C45.9627 72.1074 45.9727 71.9006 46.2122 71.8316C46.3877 71.7809 46.9728 71.6139 47.5126 71.4604C48.0524 71.3068 48.5618 71.0799 48.6446 70.956C48.8765 70.6087 47.8042 70.6892 46.745 71.0983C46.222 71.3005 45.7704 71.4373 45.7418 71.4021C45.7131 71.3668 45.5526 70.9628 45.3848 70.5038C45.0309 69.5348 45.1612 69.4017 46.6838 69.1764C47.2333 69.095 47.7561 68.9196 47.8452 68.7862C48.0488 68.4815 47.0592 68.4728 45.9419 68.7689C45.0007 69.0187 44.9608 68.9905 44.7073 67.8967L44.5292 67.1279L45.9025 66.9248C46.6578 66.813 47.3261 66.5822 47.3875 66.4114C47.4724 66.1754 47.2265 66.1412 46.3583 66.2683C44.4341 66.5496 44.4362 66.5504 44.3492 65.5867L44.2691 64.6948L45.7284 64.5261C47.6657 64.3021 47.5927 63.9274 45.6117 63.9274H44.0355V63.085V62.2427L46.9909 62.1739C49.4098 62.1175 49.9462 62.039 49.9462 61.7407C49.9462 61.4384 49.4426 61.3762 46.9906 61.3762H44.035L44.0353 60.4306L44.0355 59.4847L45.6117 59.637C46.4786 59.7208 47.1879 59.6934 47.1879 59.5763C47.1879 59.2594 46.4865 59.068 45.3275 59.068C44.2998 59.068 44.2982 59.0665 44.2982 58.0839V57.1001L45.8744 57.2651C46.9194 57.3744 47.4506 57.3433 47.4506 57.173C47.4506 57.0318 46.8004 56.8411 46.0058 56.7493C44.4853 56.5736 44.3781 56.4443 44.7333 55.2175C44.872 54.7384 45.018 54.6706 45.649 54.7923C46.062 54.8723 46.7545 55.0057 47.1879 55.0893C47.6686 55.1818 47.976 55.1412 47.976 54.9853C47.976 54.8443 47.3258 54.5948 46.5312 54.4303C44.945 54.1018 44.9626 54.1232 45.3748 53.0298C45.7076 52.1463 45.7081 52.1461 47.1958 52.6318C47.8144 52.8337 48.3732 52.9501 48.4373 52.8908C48.7044 52.6437 48.1798 52.3125 47.0634 52.0234C45.7536 51.6842 45.7538 51.6849 46.1568 50.6159L46.4392 49.8665L48.5789 50.7011C50.9902 51.6417 51.1283 51.6687 51.1283 51.1985C51.1283 51.0044 50.237 50.5291 49.0268 50.0779C47.8709 49.6469 46.9252 49.2025 46.9252 49.0902C46.9252 48.6973 47.537 47.6482 47.7658 47.6482C47.893 47.6482 48.4604 47.8668 49.0268 48.1341C49.5931 48.4014 50.1866 48.6201 50.3452 48.6201C50.8709 48.6201 50.3208 48.1346 49.2059 47.6149C48.6017 47.333 48.069 47.0713 48.0222 47.0334C47.8512 46.8945 48.7859 45.4614 49.0475 45.4614C49.1959 45.4614 49.7523 45.7347 50.2838 46.0688C51.3214 46.721 51.6537 46.8118 51.6537 46.4435C51.6537 46.3155 51.1231 45.9233 50.4748 45.5717C49.2369 44.9009 49.2217 44.8117 50.1519 43.6602C50.5147 43.211 50.563 43.2221 51.5965 43.9902C52.1846 44.4273 52.8164 44.7385 53.0006 44.6817C53.1926 44.6224 52.8133 44.2227 52.1108 43.7443C51.4373 43.2856 50.8859 42.8555 50.8854 42.7887C50.8848 42.7219 51.1725 42.3414 51.5245 41.9429L52.1641 41.2188L53.1679 42.1251C54.0716 42.9415 54.8061 43.2809 54.8061 42.8825C54.8061 42.8003 54.3035 42.3192 53.6896 41.8131L52.5732 40.893L53.2168 40.2547L53.8604 39.6167L55.906 41.4975C57.5216 42.9831 58.0191 43.3157 58.2737 43.0802C58.5282 42.8448 58.1689 42.3849 56.5643 40.892L54.5324 39.0017L55.2918 38.3289L56.051 37.6561L57.1015 38.793C57.6795 39.4181 58.2232 39.8234 58.3099 39.6937C58.3969 39.5637 58.0349 38.9893 57.5055 38.4173L56.5433 37.3776L57.2654 36.803C57.6626 36.4869 58.0698 36.2286 58.1702 36.2289C58.2705 36.2291 58.6885 36.7211 59.0991 37.3222C59.5097 37.9234 59.9528 38.4151 60.0842 38.4151C60.479 38.4151 60.3611 38.0803 59.5485 36.8953L58.7744 35.7662L59.6938 35.2407C60.1992 34.9515 60.6487 34.755 60.6921 34.8036C60.7357 34.8522 61.1121 35.438 61.5287 36.1052C62.0252 36.9004 62.3155 37.1786 62.3709 36.9128C62.4174 36.6898 62.1442 36.0515 61.7641 35.4944C61.384 34.9375 61.1111 34.4513 61.1576 34.4141C61.3107 34.2916 62.921 33.5557 63.0356 33.5557C63.0973 33.5557 63.402 34.1023 63.7128 34.7705C64.0236 35.4387 64.3927 35.9854 64.5332 35.9854C64.8744 35.9854 64.8684 35.955 64.2631 34.649C63.6009 33.2201 63.6022 33.2048 64.4068 32.8659C65.5514 32.3833 65.7261 32.5228 66.3739 34.4333C66.9319 36.0787 67.4418 36.7712 67.8306 36.4113C67.902 36.3455 67.602 35.3836 67.1641 34.2741C66.7264 33.1645 66.397 32.237 66.4322 32.2132C66.563 32.1245 68.2884 31.6119 68.4558 31.6119C68.5514 31.6119 68.781 32.1583 68.9662 32.8262C69.1511 33.4939 69.4285 34.1123 69.5822 34.2003C69.8528 34.355 69.7995 33.8382 69.3608 32.0553C69.2155 31.4661 69.2938 31.3818 70.2011 31.15C71.388 30.8467 71.5088 30.9619 71.7573 32.6328C72.0087 34.3237 72.4409 34.0669 72.3516 32.28L72.2754 30.7615H73.3262H74.3769L74.4563 32.0371C74.5658 33.7962 75.0337 33.6485 75.0337 31.8548V30.397H76.0845H77.1353V33.0697C77.1353 35.2276 77.2078 35.7424 77.5117 35.7424C78.0823 35.7424 78.2465 34.9353 78.1458 32.6214L78.0547 30.5185L79.0398 30.4432L80.0249 30.3676V31.8403C80.0249 32.6598 80.1413 33.3127 80.2876 33.3127C80.4321 33.3127 80.5503 33.0529 80.5503 32.7356C80.5503 32.4183 80.6267 31.8045 80.7203 31.372C80.8839 30.6157 80.9302 30.5904 81.9242 30.7138C82.4927 30.7843 82.9976 30.8788 83.0459 30.9235C83.0943 30.9682 83.0246 31.5453 82.8912 32.2059C82.742 32.9451 82.7428 33.4939 82.8933 33.6332C83.0443 33.7729 83.2595 33.2877 83.4557 32.3653C83.7082 31.1784 83.8608 30.8948 84.1978 30.9869C84.4311 31.0506 84.9541 31.1762 85.3603 31.2659C85.8205 31.3674 86.0485 31.5489 85.9658 31.7482C85.5904 32.653 85.2641 34.1089 85.4073 34.2413C85.654 34.4695 86.0212 33.7957 86.2083 32.7723C86.3002 32.2691 86.4857 31.7943 86.6204 31.7173C87.0053 31.4974 88.743 32.1143 88.6153 32.4258C88.0111 33.9007 87.3142 36.2481 87.4445 36.3686C87.7942 36.692 88.1538 36.1494 88.8244 34.2865L89.5219 32.3498L90.5548 32.8372L91.5877 33.3246L91.0448 34.3089C90.7461 34.8502 90.5519 35.4761 90.6131 35.6999C90.6851 35.9623 90.9423 35.654 91.3377 34.8313C91.6747 34.1298 92.0511 33.5557 92.1741 33.5557C92.519 33.5557 93.9478 34.2775 93.9478 34.4517C93.9478 34.5368 93.6418 35.0893 93.2679 35.6795C92.8939 36.2697 92.6672 36.8256 92.7641 36.9153C92.9522 37.0895 93.285 36.7134 94.0011 35.5177C94.5381 34.6216 94.7527 34.5983 95.6805 35.3364L96.3919 35.9023L95.6953 36.8506C95.312 37.3723 94.9986 37.883 94.9986 37.9856C94.9986 38.4428 95.5103 38.0937 96.1495 37.2003C96.532 36.6657 96.9318 36.2289 97.0382 36.2296C97.1446 36.2303 97.5746 36.4847 97.9941 36.7952L98.7567 37.3597L97.7603 38.3797C97.2121 38.9407 96.8511 39.4789 96.958 39.5756C97.065 39.6723 97.619 39.267 98.1893 38.6749L99.2262 37.5983L99.9302 38.2494L100.634 38.9006L98.6989 40.7023C97.3744 41.9356 96.8144 42.6256 96.9239 42.8893C97.0116 43.1011 97.1958 43.2746 97.3326 43.2746C97.4695 43.2746 98.4213 42.4317 99.4476 41.4018L101.313 39.5289L102.029 40.1903L102.744 40.8519L101.564 41.7956C100.048 43.0081 100.37 43.3735 101.919 42.1995L103.089 41.3129L103.641 41.9621C103.944 42.319 104.193 42.6988 104.193 42.8057C104.193 42.9126 103.723 43.3079 103.148 43.684C102.573 44.0602 102.1 44.4499 102.097 44.5502C102.086 44.8999 102.658 44.7281 103.513 44.125C104.587 43.3672 104.861 43.3657 105.392 44.1143C105.905 44.8391 105.788 45.041 104.448 45.7377C103.45 46.2567 103.103 46.6763 103.673 46.6763C103.82 46.6763 104.43 46.3905 105.028 46.0411L106.116 45.4062L106.593 45.9804C107.309 46.8408 107.197 47.117 105.9 47.6997C105.25 47.992 104.718 48.3185 104.718 48.4254C104.718 48.7418 105.198 48.6514 106.314 48.1249C107.509 47.5607 107.715 47.6149 108.083 48.5902C108.345 49.2856 108.335 49.2946 106.572 49.9341C105.597 50.2881 104.573 50.731 104.299 50.9179C103.86 51.2165 103.85 51.2765 104.217 51.4082C104.447 51.4908 105.546 51.1749 106.658 50.706L108.68 49.8539L108.94 50.5126C109.083 50.8749 109.245 51.2911 109.3 51.4376C109.354 51.5841 108.76 51.8903 107.978 52.1182C107.197 52.3461 106.557 52.6362 106.557 52.763C106.557 53.0784 106.792 53.0558 108.232 52.6019C108.916 52.3864 109.518 52.2496 109.569 52.2982C109.621 52.3466 109.743 52.7829 109.841 53.2679L110.019 54.1497L108.682 54.4463C107.947 54.6094 107.345 54.855 107.345 54.9921C107.345 55.2287 107.918 55.1796 109.534 54.8045C110.129 54.6662 110.235 54.7425 110.445 55.461C110.576 55.9081 110.641 56.3454 110.59 56.4331C110.539 56.5209 109.906 56.6679 109.184 56.7597C107.36 56.9917 107.455 57.4791 109.285 57.2804C110.597 57.1378 110.711 57.1662 110.858 57.6721C111.21 58.8862 111.088 59.067 109.907 59.085C109.293 59.0944 108.554 59.1921 108.265 59.3019C107.78 59.4864 107.775 59.5153 108.202 59.6764C108.457 59.7726 109.182 59.7794 109.814 59.6919L110.963 59.5325L111.071 60.3861L111.178 61.2397L108.28 61.3079C105.763 61.3672 105.37 61.4321 105.293 61.8014C105.214 62.1868 105.493 62.2266 108.274 62.2266C110.964 62.2266 111.322 62.274 111.183 62.611C111.095 62.8224 111.023 63.2051 111.023 63.4614C111.023 63.8643 110.827 63.9274 109.578 63.9274C107.7 63.9274 107.717 64.3092 109.603 64.5273L111.073 64.6972L110.893 65.5879C110.795 66.0778 110.684 66.5061 110.649 66.5397C110.614 66.5732 110.004 66.4988 109.293 66.3747C108.583 66.2505 107.901 66.2396 107.778 66.3504C107.539 66.5666 107.953 66.7112 109.513 66.9544C110.369 67.0881 110.497 67.1942 110.494 67.7652C110.487 68.9249 110.24 69.0513 108.715 68.6793C107.916 68.4842 107.285 68.4378 107.198 68.5678C107.036 68.8105 107.19 68.8759 108.856 69.2702C110.022 69.5465 110.151 69.7785 109.719 70.8286C109.469 71.437 109.453 71.4402 108.373 71.0876C107.129 70.6816 106.557 70.6357 106.557 70.9421C106.557 71.0585 107.092 71.292 107.746 71.4613C108.4 71.6307 109.002 71.8703 109.085 71.9937C109.215 72.1881 108.719 73.6464 108.523 73.6464C108.484 73.6464 107.599 73.3111 106.557 72.9012C105.516 72.4913 104.479 72.2214 104.253 72.3015C104.016 72.3859 103.944 72.5302 104.083 72.6427C104.306 72.823 106.124 73.564 107.722 74.1263C108.387 74.3603 108.39 74.3712 107.967 75.192L107.539 76.0212L106.121 75.4413C104.543 74.7959 104.456 74.776 104.456 75.0627C104.456 75.1735 105.047 75.5202 105.769 75.8332C106.492 76.1461 107.083 76.4967 107.083 76.6122C107.083 76.7783 106.622 77.5571 106.126 78.2287C106.091 78.2768 105.73 78.1009 105.325 77.838C104.098 77.0434 103.448 76.7861 103.285 77.031C103.201 77.1559 103.726 77.5663 104.451 77.9429C105.176 78.3193 105.768 78.6821 105.768 78.7489C105.767 78.8157 105.49 79.1901 105.152 79.5808L104.537 80.2913L103.315 79.4793C102.643 79.0324 102.004 78.7491 101.895 78.8492C101.787 78.9496 102.014 79.244 102.4 79.504C102.786 79.764 103.361 80.1712 103.679 80.4091L104.255 80.8411L103.598 81.5482L102.94 82.2552L101.745 81.3494C101.088 80.8513 100.483 80.5449 100.4 80.6684C100.317 80.792 100.745 81.2739 101.351 81.7389C102.445 82.5801 102.449 82.5881 102.003 83.2179C101.756 83.5663 101.412 83.8513 101.238 83.8513C101.064 83.8513 100.063 83.0626 99.0142 82.0988C97.5016 80.7089 97.0397 80.4084 96.7826 80.6463C96.5254 80.8841 96.9318 81.3839 98.746 83.0619L101.034 85.1777L102.477 83.8591C106.67 80.0291 110.144 73.7592 111.463 67.643C112.103 64.6714 112.09 58.5023 111.438 55.6663C108.432 42.5955 98.4357 33.1224 84.6221 30.2522C82.0172 29.7111 74.4904 29.5845 71.7124 30.0352ZM175.827 29.825C175.455 30.1688 175.666 30.64 176.191 30.64C176.558 30.64 176.708 30.508 176.651 30.2349C176.557 29.7876 176.108 29.5646 175.827 29.825ZM177.354 30.154C177.073 30.5744 177.492 30.8905 178.134 30.7418C178.472 30.663 178.985 30.715 179.272 30.8572C179.999 31.2168 180.581 30.6145 179.964 30.1411C179.617 29.8746 179.507 29.8792 179.308 30.1696C179.142 30.4118 179.068 30.4257 179.065 30.2148C179.063 30.0478 178.894 29.911 178.689 29.911C178.485 29.911 178.258 30.0478 178.185 30.2148C178.079 30.4577 178.048 30.4577 178.031 30.2148C178.006 29.851 177.582 29.8131 177.354 30.154ZM180.687 30.3362C180.736 30.57 180.95 30.7615 181.163 30.7615C181.376 30.7615 181.59 30.57 181.638 30.3362C181.7 30.0379 181.559 29.911 181.163 29.911C180.767 29.911 180.625 30.0379 180.687 30.3362ZM187.73 30.64C187.73 31.3271 187.801 31.3937 188.453 31.3242C189.026 31.2632 189.175 31.122 189.175 30.64C189.175 30.1579 189.026 30.0167 188.453 29.9557C187.801 29.8863 187.73 29.9528 187.73 30.64ZM201.287 30.2954C200.906 31.2134 201.22 32.9572 201.803 33.164C202.395 33.3742 202.967 32.6129 202.967 31.6143C202.967 30.3192 202.746 29.911 202.047 29.911C201.717 29.911 201.375 30.084 201.287 30.2954ZM176.827 31.1279C176.545 31.5504 176.967 32.7966 177.438 32.9283C178.357 33.1856 180.112 33.0204 180.112 32.6766C180.112 32.4919 179.876 32.3408 179.587 32.3408C179.298 32.3408 179.061 32.4635 179.061 32.6134C179.061 32.8058 178.949 32.8 178.68 32.5935C178.47 32.4324 178.058 32.3714 177.764 32.4577C177.289 32.5971 177.246 32.5349 177.384 31.8998C177.538 31.1874 177.148 30.6473 176.827 31.1279ZM175.384 31.632C175.384 32.2242 175.998 32.1406 176.125 31.531C176.176 31.2911 176.042 31.1259 175.797 31.1259C175.553 31.1259 175.384 31.3337 175.384 31.632ZM177.861 31.3961C177.652 31.7093 178.197 32.0886 178.864 32.0942C179.15 32.0963 179.324 31.9141 179.324 31.6119C179.324 31.2586 179.149 31.1259 178.683 31.1259C178.33 31.1259 177.96 31.2474 177.861 31.3961ZM179.764 31.4666C179.599 31.8641 179.793 32.0978 180.287 32.0978C180.48 32.0978 180.638 31.8791 180.638 31.6119C180.638 31.0593 179.979 30.9498 179.764 31.4666ZM181.254 31.5008C181.168 31.7071 181.164 31.9367 181.244 32.0111C181.475 32.2239 181.951 31.8631 181.951 31.476C181.951 31.0098 181.45 31.0278 181.254 31.5008ZM175.786 32.5709C175.555 32.9166 175.85 33.3127 176.338 33.3127C176.568 33.3127 176.7 33.1419 176.651 32.9076C176.548 32.4195 176.024 32.2154 175.786 32.5709ZM180.818 32.4977C180.457 32.8316 180.644 33.3472 181.097 33.2665C181.35 33.2213 181.557 33.0311 181.557 32.8437C181.557 32.4601 181.094 32.2431 180.818 32.4977ZM119.422 33.0823C119.26 33.3615 118.927 33.5486 118.665 33.5075C117.661 33.3501 116.933 34.5511 117.638 35.203C117.876 35.4232 117.87 35.6246 117.611 36.0717C117.16 36.8509 117.625 37.6862 118.51 37.6862C118.879 37.6862 119.267 37.8908 119.429 38.1722C119.616 38.4956 119.979 38.6581 120.514 38.6581C121.096 38.6581 121.355 38.5245 121.455 38.1722C121.55 37.8364 121.813 37.6862 122.307 37.6862C123.188 37.6862 123.853 36.6451 123.338 36.0714C123.099 35.8051 123.103 35.5954 123.357 35.1564C123.634 34.6784 123.614 34.4838 123.231 33.9437C122.918 33.5024 122.626 33.344 122.3 33.4395C121.987 33.5316 121.727 33.4094 121.538 33.0814C121.146 32.4042 119.814 32.4049 119.422 33.0823ZM176.814 33.5768C176.544 33.9821 177.152 34.4466 177.515 34.1113C177.818 33.8309 177.628 33.3127 177.223 33.3127C177.095 33.3127 176.911 33.4315 176.814 33.5768ZM179.915 33.4871C179.385 33.663 179.539 34.2846 180.112 34.2846C180.401 34.2846 180.638 34.1271 180.638 33.9345C180.638 33.5119 180.36 33.3397 179.915 33.4871ZM119.968 33.9055C119.795 34.098 119.409 34.2892 119.109 34.3307C118.64 34.3954 118.563 34.5776 118.563 35.6209C118.563 36.6779 118.637 36.846 119.128 36.9136C119.439 36.9563 119.821 37.2127 119.978 37.4836L120.263 37.9758L120.776 37.4666C121.058 37.1864 121.402 36.9437 121.541 36.9269C121.68 36.9102 121.902 36.8829 122.034 36.8662C122.394 36.8207 122.712 36.4713 122.394 36.4713C122.092 36.4713 122.082 35.152 122.381 34.8748C122.664 34.6131 122.347 34.2846 121.81 34.2846C121.547 34.2846 121.185 34.1206 121.006 33.9201C120.597 33.4645 120.366 33.4614 119.968 33.9055ZM178.142 33.7986C177.922 34.1276 178.219 34.5276 178.683 34.5276C178.891 34.5276 179.061 34.3089 179.061 34.0416C179.061 33.5386 178.428 33.371 178.142 33.7986ZM74.8235 37.9778C74.4547 38.3189 74.4037 38.9011 74.7429 38.9011C74.8719 38.9011 75.0455 38.7371 75.1288 38.5366C75.336 38.0366 76.2513 38.0767 76.4664 38.5952C76.581 38.8714 76.4538 39.1591 76.1005 39.424C75.4238 39.9308 75.4243 40.0268 76.1052 40.1913C76.4972 40.2863 76.6269 40.4821 76.5649 40.8855C76.4559 41.5937 75.6765 41.7475 75.0124 41.1916C74.4337 40.7071 74.1513 40.8211 74.4066 41.436C74.689 42.1166 75.7881 42.379 76.514 41.9392C77.1791 41.5359 77.3664 40.427 76.8497 39.949C76.644 39.7588 76.644 39.6392 76.8497 39.5216C77.2317 39.3032 77.2133 38.3415 76.82 37.9778C76.6466 37.8174 76.1974 37.6862 75.8218 37.6862C75.4461 37.6862 74.9969 37.8174 74.8235 37.9778ZM78.1524 38.0888C77.9278 38.3396 77.7941 39.0804 77.7975 40.0557C77.8017 41.3146 77.9015 41.687 78.3074 41.9616C79.0088 42.4359 79.6705 42.3875 80.2876 41.8168C80.9496 41.2045 81.0197 39.0393 80.404 38.2264C79.9127 37.5776 78.6781 37.502 78.1524 38.0888ZM92.8164 37.8629C92.6162 38.1787 91.5257 42.8161 91.629 42.9116C91.7477 43.0215 95.9333 40.8065 96.3693 40.4032C96.6121 40.1787 96.4781 39.9532 95.7751 39.4033C94.5767 38.4662 92.9658 37.6274 92.8164 37.8629ZM78.5641 38.4878C78.4842 38.6802 78.455 39.4259 78.4994 40.1449C78.5743 41.3576 78.6276 41.4523 79.2368 41.4523C79.8699 41.4523 79.8936 41.3957 79.8936 39.873C79.8936 38.4193 79.8465 38.2876 79.3014 38.2159C78.9647 38.1717 78.6465 38.289 78.5641 38.4878ZM176.479 39.4087C174.783 40.2056 173.939 41.5318 173.939 43.399C173.939 44.6499 174.062 45.0602 174.691 45.8987C177.386 49.4957 183.527 47.8163 183.527 43.4826C183.527 40.1342 179.674 37.9071 176.479 39.4087ZM78.9741 39.873C78.9741 40.0066 79.0923 40.116 79.2368 40.116C79.3813 40.116 79.4995 40.0066 79.4995 39.873C79.4995 39.7394 79.3813 39.63 79.2368 39.63C79.0923 39.63 78.9741 39.7394 78.9741 39.873ZM176.805 40.3325C175.422 41.1129 174.858 41.983 174.858 43.3395C174.858 45.4862 176.402 46.9598 178.65 46.9598C180.994 46.9598 182.475 45.5792 182.474 43.3961C182.473 42.0304 181.92 41.0587 180.732 40.3342C179.748 39.734 177.868 39.733 176.805 40.3325ZM187.205 43.5176V45.7044H188.503C190.121 45.7044 190.51 45.2738 188.984 45.172C187.979 45.1047 187.853 45.0272 187.779 44.4288C187.707 43.8534 187.789 43.7606 188.37 43.7606C189.2 43.7606 189.266 43.3376 188.453 43.2309C188.03 43.1753 187.838 42.9634 187.779 42.485C187.7 41.853 187.753 41.8168 188.764 41.8168C189.351 41.8168 189.832 41.7074 189.832 41.5738C189.832 41.4402 189.241 41.3308 188.518 41.3308H187.205V43.5176ZM190.413 43.3976C190.488 45.4602 190.939 46.2635 191.096 44.6161C191.205 43.4695 191.753 43.5239 192.267 44.7325C192.494 45.267 192.807 45.7044 192.963 45.7044C193.331 45.7044 193.323 45.6133 192.857 44.5823C192.512 43.8184 192.512 43.677 192.857 43.3577C193.327 42.9228 193.366 42.024 192.932 41.6224C192.758 41.462 192.103 41.3308 191.477 41.3308H190.337L190.413 43.3976ZM193.772 43.5378C193.772 45.1946 193.854 45.7199 194.101 45.6451C194.281 45.5902 194.466 45.1438 194.511 44.653C194.619 43.4702 195.161 43.5072 195.682 44.7325C195.909 45.267 196.222 45.7044 196.378 45.7044C196.771 45.7044 196.733 45.3217 196.257 44.4701C195.892 43.8177 195.892 43.7088 196.257 43.3713C196.74 42.9247 196.786 42.0287 196.347 41.6224C196.173 41.462 195.523 41.3308 194.902 41.3308H193.772V43.5378ZM197.503 41.6224C197.022 42.0666 197.096 44.8561 197.6 45.3227C198.154 45.8346 199.109 45.8054 199.642 45.26C200.228 44.6613 200.243 42.2478 199.664 41.7125C199.176 41.2609 197.949 41.2096 197.503 41.6224ZM200.744 41.6346C200.687 41.8017 200.678 42.2663 200.726 42.6672C200.774 43.0681 200.825 43.9154 200.839 44.5502C200.871 45.943 201.391 46.1148 201.391 44.7325C201.391 44.0791 201.507 43.7606 201.745 43.7606C201.94 43.7606 202.312 44.1979 202.573 44.7325C202.833 45.267 203.147 45.7044 203.269 45.7044C203.599 45.7044 203.541 45.2818 203.105 44.5019C202.764 43.8918 202.764 43.7742 203.105 43.5123C203.572 43.1541 203.615 42.0272 203.177 41.6224C202.758 41.2351 200.878 41.2446 200.744 41.6346ZM191.145 42.5457C191.145 43.1527 191.251 43.2746 191.774 43.2746C192.446 43.2746 192.801 42.777 192.554 42.1812C192.471 41.9808 192.12 41.8168 191.774 41.8168C191.251 41.8168 191.145 41.9388 191.145 42.5457ZM194.56 42.5457C194.56 43.1527 194.666 43.2746 195.189 43.2746C195.535 43.2746 195.886 43.1106 195.969 42.9102C196.216 42.3144 195.861 41.8168 195.189 41.8168C194.666 41.8168 194.56 41.9388 194.56 42.5457ZM197.878 42.1883C197.334 43.4991 197.99 45.4517 198.869 45.1395C199.234 45.0102 199.3 44.7082 199.236 43.46C199.167 42.1215 199.09 41.9295 198.6 41.8646C198.271 41.8212 197.975 41.9541 197.878 42.1883ZM201.391 42.5457C201.391 43.2328 201.461 43.2994 202.113 43.2299C202.686 43.1689 202.835 43.0278 202.835 42.5457C202.835 42.0636 202.686 41.9225 202.113 41.8615C201.461 41.792 201.391 41.8586 201.391 42.5457ZM58.9435 44.5089C58.6908 44.6452 58.4838 44.9699 58.4838 45.2306C58.4838 45.7901 58.8879 45.8613 59.1043 45.3399C59.309 44.8462 60.2983 44.877 60.5087 45.3836C60.628 45.6713 60.3537 46.0504 59.5808 46.6661C58.7933 47.2934 58.4838 47.7264 58.4838 48.2014C58.4838 48.8324 58.544 48.863 59.7818 48.863C60.4958 48.863 61.1528 48.7537 61.2421 48.6201C61.3401 48.4735 60.9873 48.3771 60.3537 48.3771C59.7758 48.3771 59.2343 48.2743 59.1503 48.1487C59.0665 48.0233 59.4731 47.5136 60.0542 47.0164C60.8042 46.3745 61.1108 45.9145 61.1108 45.431C61.1108 44.4334 59.9783 43.9516 58.9435 44.5089ZM62.1616 44.7325C61.4996 45.3448 61.4294 47.5099 62.0452 48.3229C62.6226 49.0856 63.8565 49.0489 64.4208 48.2527C65.0103 47.4205 64.8177 45.0447 64.1223 44.5745C63.4398 44.1129 62.7734 44.1666 62.1616 44.7325ZM91.1146 45.8305C90.6502 46.7015 90.2701 47.5216 90.2701 47.6528C90.2701 47.784 90.6838 47.8911 91.1895 47.8911C91.9337 47.8911 92.1089 47.9837 92.1089 48.3771C92.1089 48.6444 92.2271 48.863 92.3716 48.863C92.5161 48.863 92.6343 48.6444 92.6343 48.3771C92.6343 48.1098 92.7525 47.8911 92.897 47.8911C93.0415 47.8911 93.1597 47.7271 93.1597 47.5267C93.1597 47.3262 93.0415 47.1622 92.897 47.1622C92.7525 47.1622 92.6343 46.8823 92.6343 46.5404C92.6343 46.1879 92.5206 45.9835 92.3716 46.0688C92.2271 46.1514 92.1089 46.4311 92.1089 46.6906C92.1089 47.006 91.9282 47.1622 91.5638 47.1622C91.0403 47.1622 91.0495 47.1095 91.7947 45.837C92.5006 44.6314 92.5797 44.2465 92.1215 44.2465C92.0322 44.2465 91.5791 44.9594 91.1146 45.8305ZM94.0978 44.6282C93.8091 44.8953 93.6851 45.4745 93.6851 46.5548C93.6851 48.64 94.5318 49.3711 96.0667 48.6116C96.4936 48.4002 96.5748 48.0923 96.5748 46.685C96.5748 44.8462 96.2193 44.2465 95.1299 44.2465C94.7895 44.2465 94.325 44.4183 94.0978 44.6282ZM94.6634 45.008C93.8246 45.4422 94.1461 48.3771 95.0325 48.3771C96.032 48.3771 96.5078 45.4624 95.5828 45.0046C95.287 44.8581 94.9508 44.8593 94.6634 45.008ZM62.4243 46.5127C62.4243 48.1378 62.7069 48.5413 63.618 48.2179C63.9353 48.1052 64.007 47.7495 63.9463 46.5854C63.8725 45.1628 63.837 45.0935 63.1467 45.0202C62.4245 44.9431 62.4243 44.9439 62.4243 46.5127ZM62.9497 46.6906C62.9497 46.832 63.0679 46.8804 63.2124 46.7978C63.3568 46.7151 63.4751 46.5995 63.4751 46.5404C63.4751 46.4814 63.3568 46.4333 63.2124 46.4333C63.0679 46.4333 62.9497 46.5492 62.9497 46.6906ZM87.3147 49.7633C85.7614 50.2315 84.4907 50.6948 84.4907 50.7927C84.4907 50.8909 85.5066 51.8261 86.7478 52.8714C88.2846 54.1655 89.068 54.6779 89.2022 54.477C89.4707 54.0751 90.3675 49.4919 90.2406 49.1699C90.1768 49.0086 89.0795 49.2311 87.3147 49.7633ZM87.5961 50.5221C86.9199 50.7454 86.2942 50.9968 86.2054 51.0807C86.1166 51.1645 86.6057 51.69 87.2919 52.2489C88.6994 53.3947 88.7454 53.3683 89.0963 51.2034C89.2997 49.9499 89.311 49.955 87.5961 50.5221ZM176.82 51.1336C174.832 51.968 173.639 53.8688 173.877 55.8211C174.415 60.2364 180.839 61.2858 183.03 57.3161C184.078 55.4158 183.319 52.7873 181.378 51.5992C180.143 50.8435 178.026 50.627 176.82 51.1336ZM176.805 52.2239C175.412 53.0347 174.858 53.8933 174.858 55.2452C174.858 57.3662 176.455 58.9073 178.651 58.9047C180.977 58.902 182.474 57.4648 182.475 55.2316C182.476 54.0765 182.375 53.8457 181.468 52.9467C180.57 52.0562 180.304 51.9359 179.038 51.8492C177.952 51.7746 177.425 51.8633 176.805 52.2239ZM187.205 55.4233C187.205 56.7191 187.312 57.6101 187.468 57.6101C187.612 57.6101 187.73 57.2274 187.73 56.7597C187.73 55.9815 187.796 55.9093 188.5 55.9093C189.428 55.9093 190.095 55.3512 190.095 54.5729C190.095 53.7271 189.413 53.2366 188.237 53.2366H187.205V55.4233ZM191.08 53.499C190.714 53.6963 190.62 54.0812 190.62 55.3869C190.62 57.1813 190.874 57.6101 191.934 57.6101C192.989 57.6101 193.247 57.1796 193.247 55.4233C193.247 54.5 193.113 53.696 192.932 53.5281C192.55 53.1753 191.705 53.162 191.08 53.499ZM193.772 53.4324C193.772 53.54 194.052 54.4969 194.393 55.5584C195.022 57.5146 195.655 58.0968 195.831 56.8812C195.977 55.8697 196.351 55.789 196.542 56.7281C196.64 57.2131 196.866 57.6101 197.045 57.6101C197.35 57.6101 198.501 54.458 198.501 53.6219C198.501 52.9866 198.045 53.187 197.858 53.9048C197.762 54.2721 197.553 55.0103 197.393 55.5448L197.103 56.5167L196.797 55.5592C196.4 54.3125 195.949 54.1987 195.728 55.289C195.553 56.1501 195.086 56.7327 195.086 56.0893C195.086 55.4255 194.272 53.2366 194.025 53.2366C193.886 53.2366 193.772 53.3248 193.772 53.4324ZM199.137 53.5631C199.063 53.7427 199.037 54.6993 199.08 55.6892L199.158 57.4886L200.31 57.5649C200.943 57.6069 201.588 57.5248 201.742 57.3827C201.939 57.2 201.698 57.1242 200.918 57.1242C199.867 57.1242 199.814 57.0894 199.814 56.3952C199.814 55.8284 199.931 55.6663 200.34 55.6663C200.629 55.6663 200.865 55.557 200.865 55.4233C200.865 55.2897 200.629 55.1804 200.34 55.1804C199.931 55.1804 199.814 55.0183 199.814 54.4514C199.814 53.7631 199.873 53.7225 200.865 53.7225C201.443 53.7225 201.916 53.6132 201.916 53.4795C201.916 53.0988 199.297 53.1775 199.137 53.5631ZM202.234 55.3429C202.285 56.7597 202.417 57.4823 202.638 57.5501C202.865 57.6196 202.967 57.3438 202.967 56.6584C202.967 55.3592 203.521 55.3495 204.149 56.6382C204.409 57.1728 204.723 57.6101 204.846 57.6101C205.175 57.6101 205.117 57.1876 204.681 56.4076C204.34 55.7975 204.34 55.6799 204.681 55.418C204.894 55.2545 205.068 54.8101 205.068 54.4303C205.068 53.6091 204.456 53.2366 203.105 53.2366H202.158L202.234 55.3429ZM187.73 54.5729C187.73 55.3925 187.782 55.4501 188.453 55.3786C189.062 55.314 189.175 55.1874 189.175 54.5729C189.175 53.9585 189.062 53.8319 188.453 53.7672C187.782 53.6958 187.73 53.7534 187.73 54.5729ZM191.332 53.8741C191.229 53.9689 191.145 54.6769 191.145 55.4474C191.145 56.6574 191.221 56.8705 191.697 57.0105C192.532 57.2554 192.758 56.8518 192.67 55.2766C192.602 54.0488 192.514 53.8338 192.054 53.7731C191.759 53.7339 191.434 53.7796 191.332 53.8741ZM202.967 54.4514C202.967 55.0693 203.068 55.1804 203.632 55.1804C203.998 55.1804 204.365 55.0149 204.449 54.8127C204.647 54.336 204.09 53.7225 203.46 53.7225C203.087 53.7225 202.967 53.9004 202.967 54.4514ZM76.1948 59.526C74.321 60.5829 74.4347 63.0712 76.4013 64.045C77.306 64.4931 77.4547 64.5018 78.5028 64.1665C79.3632 63.8915 79.7433 63.5931 80.1048 62.9091C81.3723 60.5107 78.6402 58.1468 76.1948 59.526ZM52.1134 59.8904C51.6038 60.364 51.5129 60.7688 51.9164 60.7688C52.0664 60.7688 52.1791 61.4977 52.1791 62.4696C52.1791 63.405 52.2902 64.1704 52.4263 64.1704C52.8503 64.1704 52.886 63.8694 52.7274 61.6347C52.5805 59.5661 52.5514 59.4837 52.1134 59.8904ZM54.018 60.0399C53.356 60.6521 53.2859 62.8173 53.9016 63.6303C54.479 64.393 55.7129 64.3563 56.2772 63.5601C56.8667 62.7279 56.6741 60.3521 55.9788 59.8819C55.2963 59.4203 54.6298 59.474 54.018 60.0399ZM97.5381 59.716C97.4417 59.8049 97.3629 60.3516 97.3629 60.9308C97.3629 61.9657 97.3781 61.9836 98.2542 61.9836C99.2551 61.9836 99.6241 62.4686 99.1915 63.216C98.8592 63.7906 98.4727 63.8094 97.8418 63.2809C97.2683 62.801 96.8692 63.0471 97.2672 63.6354C97.6479 64.1976 99.0268 64.2977 99.5629 63.8018C100.063 63.3387 100.126 62.2069 99.6746 61.7893C99.5012 61.6289 99.0284 61.4977 98.6238 61.4977C98.0143 61.4977 97.8882 61.3935 97.8882 60.8903C97.8882 60.4534 98.0298 60.2828 98.3921 60.2828C99.1353 60.2828 99.745 60.0202 99.5787 59.7714C99.4106 59.5196 97.7976 59.4757 97.5381 59.716ZM101.303 59.731C100.663 59.9565 100.523 60.3266 100.519 61.8175C100.514 63.6556 100.82 64.1704 101.917 64.1704C103.16 64.1704 103.405 63.8043 103.405 61.9489C103.405 60.5311 103.326 60.2595 102.821 59.9322C102.209 59.5359 101.954 59.5019 101.303 59.731ZM54.4669 60.4344C54.179 60.7007 54.2471 63.3936 54.5457 63.5644C54.6915 63.6475 55.0514 63.6451 55.3459 63.5588C55.8198 63.4196 55.8721 63.2311 55.8033 61.903C55.736 60.6077 55.6528 60.3946 55.1894 60.3334C54.8944 60.2943 54.5694 60.3399 54.4669 60.4344ZM101.2 60.6672C100.88 61.4394 101.036 63.1351 101.457 63.4585C102.394 64.1777 103.217 62.5328 102.762 60.8526C102.58 60.1842 101.456 60.0505 101.2 60.6672ZM76.9677 61.3762C76.7593 61.8777 77.0417 62.4696 77.4888 62.4696C78.0148 62.4696 78.5354 61.8141 78.355 61.3794C78.1582 60.9046 77.1642 60.9024 76.9677 61.3762ZM54.8061 61.998C54.8061 62.1394 54.9243 62.1877 55.0688 62.1051C55.2133 62.0225 55.3315 61.9069 55.3315 61.8478C55.3315 61.7888 55.2133 61.7407 55.0688 61.7407C54.9243 61.7407 54.8061 61.8566 54.8061 61.998ZM33.0023 103.213C33.0023 143.555 33.0104 144.214 33.5222 145.192C33.808 145.738 34.4287 146.401 34.9013 146.666C35.748 147.139 36.3795 147.146 77.6606 147.146C118.942 147.146 119.573 147.139 120.42 146.666C120.893 146.401 121.513 145.738 121.799 145.192C122.311 144.214 122.319 143.555 122.319 103.213V62.2266H121.177H120.034L119.877 64.6175C118.962 78.501 109.216 91.6241 95.3926 97.5857C79.6921 104.357 61.1224 101.472 48.546 90.3084C40.9263 83.5442 36.0632 74.0082 35.4446 64.6175L35.2872 62.2266H34.1448H33.0023V103.213ZM188.546 69.4145C182.491 70.9205 178.497 76.6022 179.574 82.178C179.985 84.3059 181.33 86.8329 182.716 88.0839C183.599 88.8804 183.8 88.9696 183.941 88.6289C184.054 88.3566 183.786 87.8891 183.133 87.2204C178.255 82.2271 180.104 74.0089 186.79 70.9649C188.399 70.2326 188.902 70.1262 191.154 70.0426C194.3 69.9257 195.967 70.3286 198.277 71.7641C203.85 75.2287 204.874 82.3787 200.492 87.2299C199.482 88.3483 199.34 88.7108 199.915 88.7108C200.517 88.7108 202.187 86.8047 203.01 85.1787C205.602 80.0558 203.744 73.9701 198.66 70.9309C195.674 69.1458 191.9 68.5802 188.546 69.4145ZM137.881 70.5691C135.529 71.3581 134.051 73.3424 134.051 75.7117C134.051 78.0644 135.194 79.6819 137.555 80.6722C138.647 81.1303 139.261 81.1684 145.603 81.1733L152.469 81.1786L153.874 80.5C155.964 79.4899 156.832 78.218 156.943 76.0001C157.024 74.3809 156.967 74.1574 156.159 72.9279C155.489 71.9084 154.962 71.4456 153.878 70.9234L152.469 70.2448L145.603 70.2632C141.025 70.2756 138.452 70.3774 137.881 70.5691ZM138.678 71.2004C137.515 71.4686 136.672 72.0173 135.8 73.0759C135.146 73.8687 135.06 74.1776 135.06 75.7309C135.06 77.3352 135.131 77.5704 135.876 78.4226C137.528 80.3131 137.603 80.3282 145.436 80.3282C151.772 80.3282 152.489 80.2862 153.413 79.8619C156.21 78.5778 157.014 74.9055 154.987 72.6769C153.598 71.1503 153.321 71.0998 146.093 71.0502C142.481 71.0255 139.144 71.093 138.678 71.2004ZM190.175 71.6958C187.198 72.1176 184.585 73.9234 183.209 76.5091C182.425 77.9803 182.345 78.3356 182.345 80.3282C182.345 82.3157 182.427 82.678 183.199 84.1293C184.213 86.0345 185.865 87.5283 187.947 88.4231C189.205 88.9638 189.808 89.0648 191.802 89.0697C193.86 89.0745 194.378 88.9846 195.804 88.3755C198.903 87.0518 201.083 84.1174 201.329 80.9403C201.768 75.2688 196.394 70.8148 190.175 71.6958ZM139.331 71.9436C136.236 72.3047 134.693 75.8397 136.678 78.0214C137.966 79.4382 138.209 79.4778 145.572 79.4778C150.03 79.4778 152.495 79.3857 152.875 79.2052C155.353 78.0272 156.106 75.2146 154.435 73.3774C153.145 71.9594 152.689 71.8722 146.356 71.8336C143.177 71.8141 140.016 71.8637 139.331 71.9436ZM69.4296 72.3506C69.3332 72.4396 69.2544 73.2596 69.2544 74.1729C69.2544 75.5435 69.329 75.8332 69.6813 75.8332C70.0154 75.8332 70.074 75.675 69.9505 75.1043C69.8291 74.5432 69.8875 74.3753 70.2032 74.3753C70.4289 74.3753 70.7473 74.7034 70.9109 75.1043C71.0746 75.5052 71.3562 75.8332 71.5367 75.8332C71.8771 75.8332 71.7481 75.2355 71.2889 74.6859C71.1242 74.4886 71.182 74.2585 71.4613 74.0002C71.9594 73.5395 72.0045 72.8857 71.5661 72.4801C71.2309 72.1701 69.7233 72.0787 69.4296 72.3506ZM72.4067 74.1324V76.0761H73.442C74.0115 76.0761 74.5503 75.9668 74.6396 75.8332C74.7839 75.6174 74.2217 75.4918 73.2605 75.5248C73.08 75.5312 72.9321 75.2751 72.9321 74.9558C72.9321 74.6018 73.0858 74.3753 73.3262 74.3753C73.5429 74.3753 73.7202 74.266 73.7202 74.1324C73.7202 73.9987 73.5429 73.8894 73.3262 73.8894C73.0811 73.8894 72.9321 73.66 72.9321 73.2819C72.9321 72.7498 73.0459 72.6745 73.8516 72.6745C74.3572 72.6745 74.771 72.5652 74.771 72.4315C74.771 72.2979 74.239 72.1886 73.5889 72.1886H72.4067V74.1324ZM75.3489 72.4801C74.7802 73.0062 75.0114 73.6505 75.9531 74.1647C76.9679 74.7184 77.0543 74.9053 76.4953 75.3344C76.2153 75.5494 75.9783 75.5547 75.5759 75.3555C75.1424 75.1409 75.0337 75.1587 75.0337 75.4437C75.0337 76.2567 76.9768 76.1913 77.2592 75.3691C77.4857 74.7084 77.1594 74.1564 76.2986 73.7446C75.3387 73.2856 75.4614 72.8205 76.5694 72.7195C77.0307 72.6774 77.3396 72.5409 77.2561 72.4157C77.0388 72.0906 75.722 72.1351 75.3489 72.4801ZM77.9336 72.657C77.5582 73.3058 77.8227 73.792 78.7437 74.1447C79.3148 74.3637 79.5048 74.5828 79.447 74.9565C79.3676 75.4709 78.9747 75.5508 78.1204 75.2267C77.409 74.9568 77.5642 75.5601 78.2843 75.8633C78.7366 76.054 79.0608 76.0504 79.4664 75.8497C80.5025 75.3368 80.0181 74.0206 78.624 73.5616C77.8965 73.3223 78.2475 72.806 79.1964 72.7195C80.2196 72.6262 80.0315 72.1886 78.9678 72.1886C78.4829 72.1886 78.1057 72.3594 77.9336 72.657ZM80.5503 73.7506C80.5503 75.4099 80.9278 76.0761 81.8677 76.0761C82.7015 76.0761 83.0538 75.3016 82.9569 73.6802C82.8389 71.7021 82.3892 71.7602 82.3892 73.7536C82.3892 75.3669 82.2132 75.6991 81.4934 75.4434C81.1718 75.3293 81.0757 74.9376 81.0757 73.7419C81.0757 72.8684 80.9606 72.1886 80.813 72.1886C80.6651 72.1886 80.5503 72.8713 80.5503 73.7506ZM83.7027 74.0109C83.7027 75.0637 83.8135 75.8332 83.9654 75.8332C84.1098 75.8332 84.2281 75.5052 84.2281 75.1043C84.2281 74.6467 84.3628 74.3753 84.5903 74.3753C84.7894 74.3753 85.0994 74.7034 85.2788 75.1043C85.4583 75.5052 85.7091 75.8332 85.836 75.8332C86.1368 75.8332 86.1279 75.7367 85.7588 74.9876C85.5231 74.5092 85.5231 74.2952 85.7588 74.0772C86.2096 73.6603 86.1386 72.509 85.6513 72.336C85.4228 72.2549 84.8908 72.1886 84.4692 72.1886H83.7027V74.0109ZM86.647 74.0716L86.7237 75.9547L87.8401 76.0293C88.5008 76.0735 88.9566 75.9991 88.9566 75.847C88.9566 75.6111 88.7682 75.5603 87.6431 75.4925C87.4264 75.4794 87.2112 75.2228 87.165 74.922C87.1012 74.5063 87.2112 74.3753 87.6247 74.3753C87.9239 74.3753 88.1685 74.266 88.1685 74.1324C88.1685 73.9987 87.9321 73.8894 87.6431 73.8894C87.2577 73.8894 87.1177 73.7273 87.1177 73.2819C87.1177 72.7498 87.2315 72.6745 88.0371 72.6745C88.5428 72.6745 88.9566 72.5652 88.9566 72.4315C88.9566 72.2979 88.4196 72.1886 87.7634 72.1886H86.5702L86.647 74.0716ZM189.126 72.8679C185.377 74.1071 183.265 76.8036 183.265 80.3496C183.265 87.3924 192.474 90.9148 197.861 85.9324C200.931 83.093 201.22 78.7328 198.554 75.4687C196.521 72.9799 192.306 71.8171 189.126 72.8679ZM67.1499 73.1656C66.6505 74.0284 67.5224 74.5269 68.2036 73.7679C68.4644 73.4771 68.4644 73.3298 68.2036 73.039C67.7625 72.5474 67.4885 72.5802 67.1499 73.1656ZM69.7798 73.2819C69.7798 73.8364 69.8759 73.9115 70.5022 73.8447C71.0218 73.7895 71.2246 73.6313 71.2246 73.2819C71.2246 72.9326 71.0218 72.7744 70.5022 72.7192C69.8759 72.6524 69.7798 72.7275 69.7798 73.2819ZM84.2281 73.299C84.2281 73.8073 84.3379 73.9088 84.8191 73.8456C85.199 73.7956 85.4401 73.5725 85.4942 73.2212C85.5625 72.7761 85.4527 72.6745 84.9032 72.6745C84.3534 72.6745 84.2281 72.7904 84.2281 73.299ZM138.315 73.0382C136.775 73.8126 136.177 75.9884 137.133 77.3384C137.995 78.555 138.915 78.7489 143.826 78.7489H148.31L147.68 77.8904C147.334 77.4184 146.973 76.7079 146.879 76.3118C146.671 75.4362 147.148 73.9628 147.879 73.2212L148.418 72.6745L143.709 72.6842C140.16 72.6915 138.832 72.7787 138.315 73.0382ZM149.771 72.9063C148.779 73.2858 148.006 74.3073 147.891 75.3929C147.755 76.6658 148.167 77.4553 149.354 78.1949C152.207 79.9732 155.578 77.0007 153.969 74.1243C153.287 72.9046 151.29 72.3251 149.771 72.9063ZM191.408 75.3674C191.408 77.0247 191.49 77.5495 191.736 77.474C191.957 77.4062 192.09 76.6836 192.141 75.2668C192.204 73.5023 192.151 73.1605 191.812 73.1605C191.478 73.1605 191.408 73.5429 191.408 75.3674ZM160.725 73.938C160.542 74.1078 160.41 74.9218 160.41 75.8869C160.41 77.4191 160.46 77.5653 161.067 77.8212C161.558 78.0282 161.889 78.0282 162.38 77.8212C162.987 77.5653 163.037 77.4191 163.037 75.8869C163.037 74.0745 162.786 73.6464 161.723 73.6464C161.348 73.6464 160.899 73.7776 160.725 73.938ZM163.825 75.6974C163.825 76.8255 163.935 77.811 164.069 77.8878C164.44 78.0996 164.644 77.2286 164.489 76.0927C164.317 74.8236 164.59 74.9609 165.393 76.5461C166.34 78.4155 166.715 78.1786 166.715 75.7117C166.715 73.3971 166.259 72.8706 166.137 75.0435L166.058 76.4406L165.281 75.0435C164.167 73.0407 163.825 73.194 163.825 75.6974ZM161.122 74.284C161.019 74.3787 160.935 75.0824 160.935 75.8478C160.935 76.9086 161.037 77.275 161.363 77.3906C162.164 77.6752 162.541 77.0638 162.458 75.6121C162.392 74.4582 162.3 74.2432 161.844 74.1829C161.549 74.1438 161.224 74.1895 161.122 74.284ZM90.848 75.3958C90.4327 75.78 90.4327 78.8021 90.848 79.1862C91.0214 79.3466 91.556 79.4778 92.0356 79.4778C92.72 79.4778 92.9753 79.3417 93.2186 78.8478C93.6904 77.8904 93.0202 76.9256 91.8867 76.9295C91.1322 76.9321 91.044 76.8634 91.1125 76.3242C91.2063 75.5841 92.0651 75.3596 92.5337 75.9525C92.9856 76.524 93.5136 76.2015 93.1513 75.5754C92.8387 75.0355 91.3621 74.9203 90.848 75.3958ZM94.2631 75.3958C94.0807 75.5645 93.9478 76.3719 93.9478 77.31C93.9478 79.083 94.2431 79.5385 95.3926 79.5385C96.5422 79.5385 96.8375 79.083 96.8375 77.31C96.8375 75.4857 96.5876 75.1043 95.3926 75.1043C94.9447 75.1043 94.4364 75.2355 94.2631 75.3958ZM59.9568 75.9746C59.869 76.186 59.7973 76.7509 59.7973 77.2298V78.1009L60.6844 77.1518C61.1723 76.6299 61.5143 76.065 61.4444 75.8964C61.2626 75.4588 60.1464 75.5173 59.9568 75.9746ZM94.6327 75.9746C94.5449 76.186 94.4732 76.7783 94.4732 77.291C94.4732 78.5836 94.6939 78.9918 95.3926 78.9918C96.0914 78.9918 96.3121 78.5836 96.3121 77.291C96.3121 75.9984 96.0914 75.5902 95.3926 75.5902C95.0624 75.5902 94.7204 75.7632 94.6327 75.9746ZM95.2613 77.291C95.2613 77.4247 95.3795 77.534 95.524 77.534C95.6685 77.534 95.7867 77.4247 95.7867 77.291C95.7867 77.1574 95.6685 77.0481 95.524 77.0481C95.3795 77.0481 95.2613 77.1574 95.2613 77.291ZM91.1661 77.6241C90.874 78.328 91.1716 78.8704 91.8499 78.8704C92.4005 78.8704 92.503 78.7559 92.503 78.1414C92.503 77.57 92.375 77.3957 91.9109 77.3348C91.5633 77.2891 91.2554 77.4089 91.1661 77.6241ZM60.9794 78.5059C60.7162 78.7749 60.5602 79.0494 60.6324 79.1162C60.7047 79.1831 60.9789 79.0178 61.2421 78.7489C61.5054 78.4799 61.6614 78.2053 61.5892 78.1385C61.5169 78.0717 61.2427 78.2369 60.9794 78.5059ZM75.6376 79.4681C73.8896 80.4536 73.3976 82.9275 74.6709 84.3273C76.0317 85.8231 77.859 86.1999 79.4362 85.3104C82.7076 83.4657 81.4277 78.9897 77.6296 78.9928C76.9519 78.9933 76.1328 79.1886 75.6376 79.4681ZM75.6642 80.5469C74.6186 81.5139 74.4878 82.5682 75.2662 83.7493C76.4189 85.4972 79.0747 85.377 80.1042 83.5296C80.5511 82.7276 80.5802 82.4722 80.317 81.6597C79.6529 79.6095 77.2889 79.0441 75.6642 80.5469ZM76.9036 81.1786C76.7304 81.7132 76.4291 82.1505 76.2337 82.1505C75.8449 82.1505 75.4482 83.2461 75.7007 83.6234C75.9484 83.9944 76.3059 83.665 76.9737 82.4499C77.5632 81.3771 77.6013 81.3523 77.792 81.9197C78.372 83.6438 79.8665 84.5324 79.7131 83.0617C79.6605 82.5555 79.4893 82.272 79.2368 82.272C79.0201 82.272 78.5746 81.8072 78.2467 81.2394C77.9189 80.6715 77.5535 80.2067 77.4345 80.2067C77.3157 80.2067 77.0767 80.6441 76.9036 81.1786ZM72.9321 89.4397V91.6265H73.9769C75.2659 91.6265 75.9881 90.848 75.5924 89.8853C75.4587 89.56 75.4104 88.9978 75.485 88.6365C75.6744 87.7197 75.1566 87.253 73.9508 87.253H72.9321V89.4397ZM76.6451 89.136C76.3214 90.1718 76.054 91.1257 76.0508 91.256C76.0395 91.7215 76.5455 91.637 76.6832 91.1505C76.8789 90.458 78.3434 90.4505 78.5801 91.1406C78.7485 91.6316 79.2368 91.8216 79.2368 91.3962C79.2368 90.6935 77.8501 87.253 77.5669 87.253C77.3764 87.253 76.9808 88.0613 76.6451 89.136ZM79.7622 89.4397C79.7622 90.7355 79.8691 91.6265 80.0249 91.6265C80.1694 91.6265 80.2876 91.1891 80.2876 90.6546C80.2876 89.9505 80.3966 89.6827 80.6838 89.6827C80.9018 89.6827 81.269 90.1201 81.5005 90.6546C81.7317 91.1891 82.0852 91.6265 82.2865 91.6265C82.7509 91.6265 82.7451 91.5262 82.2279 90.6009C81.8375 89.9028 81.8375 89.7894 82.2279 89.1783C82.4612 88.8131 82.6519 88.4022 82.6519 88.2654C82.6519 87.7256 81.7847 87.253 80.7943 87.253H79.7622V89.4397ZM73.4575 88.3464C73.4575 88.8284 73.5899 88.9538 74.0988 88.9538C74.4515 88.9538 74.8064 88.8544 74.8876 88.7327C75.1705 88.3094 74.7106 87.7389 74.0861 87.7389C73.5907 87.7389 73.4575 87.8677 73.4575 88.3464ZM80.2876 88.4678C80.2876 89.155 80.358 89.2215 81.01 89.152C81.5832 89.0911 81.7324 88.9499 81.7324 88.4678C81.7324 87.9858 81.5832 87.8446 81.01 87.7836C80.358 87.7141 80.2876 87.7807 80.2876 88.4678ZM77.2335 89.171C76.9558 90.1327 76.9679 90.1687 77.5658 90.1687C78.2562 90.1687 78.3148 89.8914 77.8419 88.8673L77.5214 88.1734L77.2335 89.171ZM137.687 88.5623C132.997 90.4571 132.806 96.5995 137.374 98.5668C138.706 99.1403 138.897 99.1541 145.603 99.1563L152.469 99.1587L153.878 98.4801C154.962 97.9579 155.489 97.4948 156.159 96.4755C156.954 95.2658 157.023 95.0087 156.941 93.5414C156.817 91.342 155.83 89.8487 153.874 88.9037L152.469 88.2249L145.472 88.2343C140.297 88.2414 138.27 88.3269 137.687 88.5623ZM138.253 89.3083C134.148 90.6619 133.802 95.9237 137.687 97.9062C138.344 98.2415 139.517 98.3217 144.753 98.3887C151.575 98.476 152.85 98.3292 154.331 97.2856C155.325 96.5854 156.193 95.0281 156.199 93.9348C156.212 91.8124 154.65 89.7374 152.654 89.2247C151.07 88.818 139.537 88.8848 138.253 89.3083ZM73.4575 90.2741C73.4575 90.9387 73.5647 91.1396 73.9172 91.1369C74.679 91.1306 75.0846 90.7545 74.9909 90.1412C74.9257 89.7146 74.7114 89.5408 74.1799 89.4845C73.5114 89.4133 73.4575 89.4721 73.4575 90.2741ZM138.941 89.9444C137.736 90.1726 136.83 90.8674 136.223 92.0279C135.25 93.8854 135.829 95.6611 137.815 96.9112C138.661 97.4433 138.864 97.4579 145.488 97.4579C152.749 97.4579 153.089 97.4095 154.27 96.2053C155.611 94.8379 155.641 92.8149 154.345 91.29C153.215 89.9619 152.722 89.8768 145.932 89.8389C142.494 89.82 139.347 89.8674 138.941 89.9444ZM181.186 89.9072C180.723 90.1786 180.763 92.6103 181.235 92.888C182.143 93.4211 183.002 92.6893 183.002 91.3835C183.002 90.0445 182.144 89.3467 181.186 89.9072ZM202.231 89.9743C202.058 90.1347 201.916 90.7688 201.916 91.3835C201.916 92.5666 202.249 93.0844 203.01 93.0844C203.611 93.0844 204.018 92.3627 204.018 91.2953C204.018 90.0236 202.995 89.2675 202.231 89.9743ZM204.878 89.8793C204.525 90.0868 204.438 90.5552 204.501 91.9139C204.532 92.5826 204.679 92.8484 205.081 92.9665C205.928 93.2153 206.382 92.6703 206.382 91.4025C206.382 89.9442 205.789 89.3438 204.878 89.8793ZM207.009 90.0297C206.922 90.2403 206.925 90.6881 207.017 91.0249C207.16 91.5539 207.256 91.6012 207.718 91.3726C208.092 91.1872 208.228 90.9131 208.171 90.458C208.079 89.7252 207.261 89.4235 207.009 90.0297ZM208.307 91.3848C207.257 93.5297 207.559 93.6213 208.69 91.5004C209.597 89.7991 209.638 89.682 209.337 89.6839C209.229 89.6847 208.766 90.45 208.307 91.3848ZM200.602 90.2901C200.377 90.5419 200.367 90.6546 200.57 90.6546C200.745 90.6546 200.865 91.1014 200.865 91.748C200.865 92.3493 200.983 92.8414 201.128 92.8414C201.274 92.8414 201.391 92.1934 201.391 91.3835C201.391 89.9053 201.193 89.6317 200.602 90.2901ZM207.28 90.2525C207.181 90.4916 207.218 90.7965 207.363 90.9301C207.715 91.256 207.986 90.6033 207.685 90.1534C207.504 89.882 207.426 89.9009 207.28 90.2525ZM181.426 91.3835C181.426 92.4436 181.496 92.6215 181.885 92.5522C182.242 92.4888 182.345 92.2254 182.345 91.3835C182.345 90.5416 182.242 90.2782 181.885 90.2148C181.496 90.1456 181.426 90.3234 181.426 91.3835ZM202.441 91.3835C202.441 92.4436 202.511 92.6215 202.901 92.5522C203.257 92.4888 203.361 92.2254 203.361 91.3835C203.361 90.5416 203.257 90.2782 202.901 90.2148C202.511 90.1456 202.441 90.3234 202.441 91.3835ZM204.962 90.5939C204.708 91.3536 204.973 92.473 205.426 92.5554C205.852 92.6334 205.909 92.4818 205.909 91.262C205.909 90.2615 205.872 90.1687 205.48 90.1687C205.273 90.1687 205.04 90.3601 204.962 90.5939ZM138.081 91.1884C136.76 92.0177 136.331 93.3242 136.916 94.7397C138.023 97.4214 142.023 97.3566 143.047 94.6401C143.498 93.4427 143.299 92.5982 142.329 91.5935C141.303 90.5317 139.414 90.3516 138.081 91.1884ZM143.376 91.3828C143.769 91.8753 143.992 92.5639 144.064 93.5088C144.156 94.7091 144.074 95.0376 143.487 95.8329L142.803 96.7591L147.687 96.6833L152.571 96.6075L153.469 95.7C154.187 94.9747 154.368 94.5918 154.368 93.7936C154.368 93.2442 154.166 92.4791 153.92 92.093C153.118 90.8383 152.272 90.6546 147.293 90.6546H142.794L143.376 91.3828ZM209.061 91.4321C208.313 92.1241 209.131 93.4534 209.928 92.8414C210.145 92.6749 210.322 92.3554 210.322 92.1314C210.322 91.7341 209.85 91.1406 209.534 91.1406C209.447 91.1406 209.235 91.2718 209.061 91.4321ZM160.725 91.9181C160.542 92.0879 160.41 92.9019 160.41 93.867C160.41 95.3992 160.46 95.5454 161.067 95.8013C161.558 96.0083 161.889 96.0083 162.38 95.8013C162.987 95.5454 163.037 95.3992 163.037 93.867C163.037 92.0546 162.786 91.6265 161.723 91.6265C161.348 91.6265 160.899 91.7577 160.725 91.9181ZM163.825 93.8334C163.825 95.4903 163.907 96.0156 164.153 95.9408C164.334 95.8858 164.519 95.4395 164.563 94.9487C164.627 94.2533 164.757 94.0563 165.154 94.0563C165.435 94.0563 165.664 93.9469 165.664 93.8133C165.664 93.6796 165.427 93.5703 165.139 93.5703C164.85 93.5703 164.613 93.4153 164.613 93.2258C164.613 93.0362 164.541 92.7082 164.454 92.4968C164.324 92.1853 164.496 92.1125 165.358 92.1125C165.942 92.1125 166.494 92.0031 166.583 91.8695C166.684 91.7186 166.192 91.6265 165.285 91.6265H163.825V93.8334ZM166.977 93.8133C166.977 95.1091 167.084 96 167.24 96C167.385 96 167.503 95.5627 167.503 95.0281C167.503 94.1534 167.568 94.0563 168.16 94.0563C168.521 94.0563 168.816 93.9469 168.816 93.8133C168.816 93.6796 168.521 93.5703 168.16 93.5703C167.605 93.5703 167.503 93.4568 167.503 92.8414C167.503 92.153 167.561 92.1125 168.554 92.1125C169.131 92.1125 169.604 92.0031 169.604 91.8695C169.604 91.7358 169.013 91.6265 168.291 91.6265H166.977V93.8133ZM209.271 92.1125C209.271 92.3797 209.39 92.5984 209.534 92.5984C209.679 92.5984 209.797 92.3797 209.797 92.1125C209.797 91.8452 209.679 91.6265 209.534 91.6265C209.39 91.6265 209.271 91.8452 209.271 92.1125ZM161.122 92.2641C161.019 92.3588 160.935 93.0625 160.935 93.8279C160.935 95.2682 161.248 95.6676 162.129 95.3549C162.446 95.2422 162.518 94.8865 162.457 93.7224C162.391 92.4373 162.307 92.2242 161.844 92.163C161.549 92.1239 161.224 92.1696 161.122 92.2641ZM177.877 96.0037C177.697 96.2722 177.754 99.3339 177.948 99.8269C178.2 100.469 178.536 100.087 178.536 99.1587C178.536 98.3586 178.626 98.1868 179.046 98.1868C179.326 98.1868 179.629 98.0775 179.718 97.9438C179.81 97.8061 179.589 97.7009 179.208 97.7009C178.636 97.7009 178.536 97.592 178.536 96.9719C178.536 96.3033 178.611 96.243 179.44 96.243C179.937 96.243 180.417 96.1337 180.506 96C180.606 95.8504 180.164 95.7571 179.355 95.7571C178.633 95.7571 177.968 95.8681 177.877 96.0037ZM180.9 97.9237V100.131H182.214C182.936 100.131 183.527 100.021 183.527 99.8876C183.527 99.754 183.118 99.6447 182.619 99.6447H181.71L181.634 97.7811C181.584 96.5596 181.444 95.8829 181.229 95.8171C180.982 95.7415 180.9 96.2663 180.9 97.9237ZM184.105 96.0486C183.922 96.218 183.79 97.0295 183.79 97.9839C183.79 99.3604 183.873 99.6685 184.298 99.8791C185.744 100.595 186.54 99.9078 186.54 97.9438C186.54 97.1287 186.392 96.3864 186.183 96.1541C185.767 95.69 184.559 95.6288 184.105 96.0486ZM186.946 95.7976C186.978 96.4245 188.247 100.006 188.461 100.072C188.621 100.122 188.894 99.6903 189.068 99.1138L189.383 98.0653L189.628 98.9157C189.885 99.807 190.252 100.309 190.488 100.091C190.696 99.8986 191.922 95.9082 191.806 95.8011C191.534 95.5498 191.174 96.1296 190.743 97.5121L190.269 99.0372L189.895 97.8561C189.487 96.562 189.281 96.6002 188.766 98.0653L188.424 99.0372L188.003 97.4754C187.771 96.6165 187.438 95.8693 187.262 95.8151C187.086 95.761 186.944 95.7529 186.946 95.7976ZM193.565 97.8238C193.641 99.8864 194.091 100.69 194.248 99.0423C194.358 97.8906 194.925 97.9455 195.449 99.1587C195.681 99.6933 195.989 100.131 196.135 100.131C196.509 100.131 196.464 99.7358 195.995 98.8963C195.63 98.2439 195.63 98.1351 195.995 97.7976C196.478 97.351 196.523 96.4549 196.084 96.0486C195.911 95.8883 195.256 95.7571 194.629 95.7571H193.489L193.565 97.8238ZM197.333 97.8471C196.945 98.9969 196.687 99.9919 196.759 100.058C196.976 100.259 197.45 99.8828 197.45 99.5088C197.45 99.2729 197.74 99.1587 198.339 99.1587C199.021 99.1587 199.261 99.2775 199.372 99.6692C199.451 99.9498 199.636 100.111 199.782 100.028C199.956 99.928 199.917 99.4794 199.667 98.7274C199.457 98.0959 199.15 97.1695 198.983 96.6682C198.817 96.1672 198.536 95.7571 198.359 95.7571C198.182 95.7571 197.72 96.6976 197.333 97.8471ZM199.814 96C199.814 96.1337 200.046 96.243 200.329 96.243C200.788 96.243 200.851 96.4427 200.92 98.1261C201.018 100.539 201.496 100.497 201.599 98.067C201.667 96.4423 201.732 96.243 202.19 96.243C202.473 96.243 202.704 96.1337 202.704 96C202.704 95.8664 202.054 95.7571 201.259 95.7571C200.465 95.7571 199.814 95.8664 199.814 96ZM203.229 97.9438V100.131H204.543C206.068 100.131 206.327 99.71 204.871 99.5985C204.016 99.5331 203.875 99.4352 203.803 98.855C203.731 98.2796 203.814 98.1868 204.394 98.1868C204.765 98.1868 205.068 98.0775 205.068 97.9438C205.068 97.8102 204.773 97.7009 204.412 97.7009C203.857 97.7009 203.755 97.5874 203.755 96.9719C203.755 96.2836 203.813 96.243 204.806 96.243C205.384 96.243 205.856 96.1337 205.856 96C205.856 95.8664 205.265 95.7571 204.543 95.7571H203.229V97.9438ZM42.8269 96.5256C42.7231 96.6809 42.5639 97.1444 42.473 97.5556C42.239 98.6137 41.2208 98.9174 39.9798 98.2993L39.0551 97.8389L38.1304 98.6679C37.0568 99.6303 37.016 99.8424 37.7424 100.696C38.2423 101.284 38.2515 101.378 37.8758 102.05C37.5737 102.59 37.2562 102.791 36.6162 102.849L35.7606 102.925V104.383V105.84L36.6162 105.917C37.2562 105.974 37.5737 106.175 37.8756 106.715C38.2507 107.386 38.2413 107.486 37.7424 108.134C37.0392 109.047 37.0539 109.132 38.0718 110.045C39.08 110.949 39.385 110.991 40.2685 110.348C40.8031 109.959 41.0332 109.923 41.5588 110.145C42.4602 110.525 42.7123 110.151 41.93 109.595C41.1039 109.008 41.0001 109.011 40.0462 109.639L39.2597 110.157L38.6986 109.638C38.1443 109.125 38.1435 109.109 38.6248 108.283C39.0727 107.513 39.0801 107.372 38.7162 106.522C38.3986 105.78 38.1328 105.553 37.3688 105.373C36.5151 105.17 36.4174 105.064 36.4174 104.34C36.4174 103.658 36.5119 103.532 37.0239 103.532C37.8785 103.532 38.4112 103.07 38.7727 102.015C39.0498 101.205 39.0238 101.033 38.535 100.459C38.0198 99.8529 38.0127 99.7846 38.4244 99.3643C38.9666 98.8098 39.3963 98.7996 40.2551 99.3198C40.8858 99.7023 40.9849 99.6957 42.0848 99.2015C43.0778 98.7554 43.2475 98.5722 43.2475 97.947C43.2475 97.255 43.3047 97.2149 44.2982 97.2149C45.2949 97.2149 45.349 97.2531 45.349 97.9575C45.349 98.6043 45.5019 98.7627 46.5335 99.1847C47.655 99.6434 47.758 99.6476 48.4633 99.2625C49.1623 98.8805 49.2511 98.8812 49.9031 99.2765L50.598 99.6976L50.0316 100.433C49.4875 101.14 49.4818 101.21 49.8853 102.217L50.3051 103.264L48.9267 103.635C46.3457 104.329 44.1385 106.381 43.3428 108.826C42.8755 110.262 42.8553 113.088 43.3131 112.948C43.5167 112.886 43.7038 112.147 43.8054 111.003C44.0114 108.683 44.728 107.277 46.4219 105.868C48.1239 104.453 49.5698 104.019 53.1642 103.846C55.8159 103.718 56.1196 103.657 56.1196 103.251C56.1196 102.862 56.3237 102.924 57.5644 103.686C58.359 104.174 59.0092 104.597 59.0092 104.626C59.0092 104.655 58.3711 105.07 57.5912 105.549C56.2801 106.354 56.1629 106.385 56.0394 105.948C55.9317 105.567 55.6732 105.476 54.6994 105.476C53.8018 105.476 53.4926 105.569 53.4926 105.84C53.4926 106.096 53.7721 106.205 54.431 106.205C55.2989 106.205 55.363 106.255 55.2876 106.873C55.234 107.31 55.3199 107.52 55.5364 107.479C55.9638 107.398 60.3227 104.8 60.3227 104.626C60.3227 104.437 55.9157 101.831 55.5965 101.831C55.3333 101.831 55.2303 102.161 55.3118 102.743C55.3425 102.962 54.8208 103.045 53.4385 103.043C51.2663 103.038 51.0096 102.942 50.6174 101.988C50.3846 101.422 50.4269 101.186 50.8636 100.619C51.5607 99.7137 51.5445 99.6347 50.4661 98.6679L49.5414 97.8389L48.6495 98.2828C47.3965 98.907 46.3483 98.5719 46.1045 97.4691C46.0068 97.0273 45.7672 96.5727 45.5723 96.4583C45.0467 96.1502 43.0449 96.1993 42.8269 96.5256ZM109.499 96.5346C109.326 96.695 109.184 97.1376 109.184 97.5181C109.184 98.068 109.01 98.2782 108.336 98.5401C107.578 98.8348 107.413 98.8207 106.785 98.407C105.847 97.7893 105.753 97.8073 104.713 98.7993L103.817 99.6546L104.297 100.48C104.665 101.111 104.719 101.465 104.53 101.993C104.319 102.583 104.126 102.693 103.187 102.756C102.305 102.817 102.091 102.923 102.091 103.303C102.091 103.75 102.307 103.775 106.141 103.775C109.05 103.775 110.221 103.693 110.296 103.485C110.368 103.286 110.705 103.368 111.369 103.748C111.901 104.052 112.335 104.374 112.333 104.463C112.327 104.797 110.392 105.79 110.291 105.511C110.222 105.319 108.944 105.233 106.141 105.233C102.717 105.233 102.091 105.289 102.091 105.598C102.091 105.861 102.383 105.962 103.141 105.962C104.078 105.962 104.23 106.047 104.546 106.752C104.861 107.454 104.846 107.605 104.415 108.121C103.751 108.915 103.797 109.149 104.797 110.045C105.775 110.923 106.177 110.995 106.863 110.421C107.63 109.779 109.026 110.252 109.142 111.194C109.274 112.267 109.64 112.522 111.046 112.522C112.391 112.522 112.862 112.151 112.862 111.089C112.862 110.203 114.585 109.742 115.226 110.457C115.741 111.03 116.365 110.89 117.309 109.989L118.182 109.156L117.618 108.311C117.137 107.591 117.099 107.373 117.367 106.83C117.546 106.466 117.97 106.135 118.358 106.057C119.677 105.793 119.692 105.773 119.692 104.383C119.692 103.513 119.575 102.998 119.364 102.937C119.183 102.886 118.706 102.777 118.304 102.695C117.223 102.476 116.938 101.572 117.615 100.511L118.15 99.6721L117.224 98.7474L116.298 97.8223L115.297 98.3443C114.406 98.8086 114.22 98.8295 113.61 98.5335C113.15 98.3112 112.867 97.9249 112.754 97.367C112.661 96.9083 112.401 96.4678 112.177 96.3881C111.475 96.139 109.829 96.2294 109.499 96.5346ZM184.502 96.3946C184.399 96.4894 184.315 97.1367 184.315 97.833C184.315 99.1852 184.72 99.7654 185.476 99.4972C185.833 99.3706 185.9 99.0625 185.837 97.853C185.771 96.5679 185.687 96.3548 185.224 96.2936C184.929 96.2544 184.604 96.3001 184.502 96.3946ZM194.298 96.9719C194.298 97.5821 194.402 97.7009 194.937 97.7009C195.344 97.7009 195.636 97.5254 195.742 97.2171C195.967 96.5603 195.706 96.243 194.939 96.243C194.402 96.243 194.298 96.3611 194.298 96.9719ZM198.152 97.2574C198.056 97.61 197.905 98.0728 197.817 98.2857C197.695 98.5787 197.823 98.6728 198.341 98.6728C199.109 98.6728 199.117 98.6426 198.656 97.4623L198.326 96.616L198.152 97.2574ZM109.972 97.9526C109.972 98.5999 109.821 98.7498 108.738 99.1796C107.549 99.6507 107.471 99.6532 106.649 99.2437C105.831 98.836 105.773 98.837 105.259 99.2671L104.723 99.7159L105.26 100.519C105.762 101.27 105.769 101.369 105.382 102.062L104.968 102.803L106.091 102.802C107.046 102.8 107.277 102.698 107.633 102.118C108.457 100.779 111.195 100.184 112.861 100.981C113.981 101.516 114.941 102.819 115.115 104.04C115.457 106.442 112.978 108.645 110.345 108.28C109.37 108.145 108.898 107.895 107.996 107.036C107.076 106.161 106.693 105.962 105.928 105.962H104.989L105.417 106.791C105.826 107.584 105.82 107.648 105.271 108.294L104.697 108.968L105.335 109.558L105.972 110.148L106.736 109.626L107.5 109.104L108.719 109.603C109.767 110.031 109.951 110.214 110.022 110.887C110.091 111.55 110.221 111.684 110.863 111.752C111.69 111.839 112.063 111.498 112.07 110.651C112.073 110.25 112.377 109.991 113.284 109.62L114.495 109.125L115.278 109.641L116.062 110.157L116.611 109.649C117.151 109.149 117.152 109.128 116.677 108.312C116.23 107.544 116.224 107.412 116.6 106.541C116.93 105.776 117.183 105.561 117.955 105.392C118.803 105.207 118.904 105.101 118.904 104.401C118.904 103.7 118.802 103.594 117.928 103.393C117.129 103.208 116.884 103 116.571 102.237C116.225 101.392 116.233 101.237 116.658 100.571C117.115 99.8556 117.113 99.824 116.572 99.3234C116.032 98.8239 115.995 98.8217 115.23 99.2396C114.473 99.6532 114.399 99.6517 113.298 99.2007C112.388 98.8287 112.119 98.5761 111.988 97.9735C111.842 97.2963 111.725 97.2149 110.898 97.2149C110.042 97.2149 109.972 97.2706 109.972 97.9526ZM42.1699 101.163C40.9712 101.898 39.9821 103.749 40.2041 104.843C40.5117 106.361 41.9587 107.892 42.8014 107.593C43.1306 107.477 43.0042 107.252 42.1804 106.49C41.3035 105.679 41.1459 105.377 41.1459 104.509C41.1459 102.528 42.6771 101.18 44.6539 101.421C45.5203 101.526 45.9419 101.766 46.7158 102.592C47.5073 103.438 47.7199 103.556 47.8567 103.226C48.0748 102.701 47.1112 101.447 46.1295 100.977C44.996 100.435 43.2222 100.519 42.1699 101.163ZM109.475 101.653C109.13 101.818 108.672 102.199 108.458 102.5C108.084 103.025 108.1 103.046 108.865 103.046C109.531 103.046 109.638 102.967 109.523 102.56C109.447 102.291 109.515 102.074 109.676 102.074C110.07 102.074 113.651 104.211 113.645 104.442C113.643 104.543 113.081 104.962 112.397 105.374C109.344 107.21 109.7 107.072 109.533 106.485C109.435 106.137 109.179 105.962 108.768 105.962C107.957 105.962 108.167 106.461 109.219 107.036C111.442 108.25 114.247 106.863 114.247 104.548C114.247 102.145 111.691 100.594 109.475 101.653ZM128.216 103.553C128.119 103.698 128.147 103.918 128.28 104.04C128.424 104.173 145.298 104.238 170.406 104.201C207.434 104.147 212.292 104.097 212.292 103.775C212.292 103.453 207.427 103.404 170.343 103.349C140.28 103.305 128.343 103.363 128.216 103.553ZM47.5688 106.29C45.7562 107.051 44.6836 109.08 44.9926 111.165C45.146 112.2 45.1079 112.32 44.588 112.445C43.4671 112.716 44.2179 113.13 45.9611 113.202L47.7133 113.273V114.098C47.7133 114.552 47.8066 114.977 47.9206 115.042C48.2111 115.208 54.5607 111.722 54.463 111.45C54.3398 111.107 48.1938 107.903 47.9387 108.049C47.8147 108.119 47.7133 108.554 47.7133 109.014C47.7133 109.807 47.6665 109.85 46.7939 109.85C45.7026 109.85 45.6065 109.457 46.4048 108.263C46.9573 107.436 48.5137 106.691 49.6888 106.691C50.5273 106.691 51.391 107.492 51.391 108.27C51.391 109.003 52.057 109.093 52.2566 108.387C52.3331 108.116 52.7607 107.778 53.2068 107.634C53.7503 107.459 54.018 107.211 54.018 106.884C54.018 106.537 53.8969 106.439 53.5995 106.544C52.4035 106.969 51.8736 106.973 51.3832 106.563C50.7172 106.005 48.607 105.855 47.5688 106.29ZM94.8672 108.311C93.791 108.614 93.1266 109.083 91.1879 110.906C87.6434 114.238 82.4299 120.87 78.191 127.438L76.5405 129.996L73.948 126.383C71.3678 122.787 70.1481 121.512 69.2883 121.512C68.7032 121.512 66.0944 122.972 65.7469 123.494C65.538 123.808 65.6633 124.091 66.3169 124.779C67.4507 125.974 70.2781 129.917 72.884 133.939C74.0651 135.761 75.2192 137.32 75.4482 137.401C76.2973 137.702 77.5829 137.545 78.0334 137.085C78.2832 136.829 79.769 134.54 81.3352 131.998C87.243 122.41 93.2525 114.149 97.3242 110.019C98.2206 109.111 98.8841 108.263 98.7995 108.136C98.5689 107.791 96.3594 107.889 94.8672 108.311ZM149.578 108.858L148.72 109.567L148.649 127.199C148.57 146.852 148.519 146.232 150.278 146.912C151.066 147.216 155.019 147.268 177.634 147.268C201.799 147.268 204.149 147.233 204.995 146.861C206.693 146.116 206.645 146.679 206.645 127.732C206.645 116.194 206.553 110.387 206.364 109.926C206.21 109.55 205.835 108.996 205.53 108.695L204.977 108.149H177.706H150.436L149.578 108.858ZM150.773 109.121C150.457 109.239 150.073 109.554 149.919 109.82C149.729 110.149 149.639 115.876 149.639 127.771V145.239L150.247 145.767L150.855 146.296H177.68H204.505L205.049 145.655C205.588 145.021 205.594 144.851 205.594 127.581C205.594 110.777 205.576 110.126 205.092 109.573L204.589 108.999L177.968 108.952C162.939 108.925 151.097 108.999 150.773 109.121ZM48.6653 109.881C48.5232 110.538 48.4378 110.578 47.1945 110.578H45.8744V111.538V112.497L47.2536 112.57C48.5213 112.638 48.6393 112.695 48.7123 113.279L48.7922 113.915L50.867 112.793C52.0081 112.177 52.9475 111.601 52.9546 111.516C52.9614 111.43 52.0333 110.87 50.8917 110.272L48.8161 109.184L48.6653 109.881ZM60.3752 111.599C60.1367 111.82 60.0611 115.534 60.064 126.846C60.0663 135.071 60.1625 141.938 60.2778 142.106C60.4433 142.347 63.9944 142.399 77.1521 142.349L93.8165 142.287V130.381C93.8165 119.96 93.7673 118.475 93.4224 118.475C93.0785 118.475 93.0197 119.955 92.9601 130.079L92.892 141.683L77.0669 141.62L61.2421 141.558L61.1744 126.921L61.1066 112.284L74.0431 112.221C86.1231 112.162 86.9851 112.13 87.0678 111.733C87.1511 111.332 86.3848 111.307 73.9233 111.307C63.9813 111.307 60.6122 111.38 60.3752 111.599ZM152.65 112.096C152.581 112.264 152.555 119.398 152.592 127.951L152.66 143.502L177.546 143.563L202.431 143.625L202.574 143.078C202.653 142.776 202.685 135.641 202.645 127.222L202.573 111.915L177.675 111.853C157.895 111.804 152.751 111.854 152.65 112.096ZM153.58 127.587V142.651H177.617H201.653V127.587V112.522H177.617H153.58V127.587ZM187.643 115.6C187.546 115.689 187.468 115.957 187.468 116.196C187.468 116.509 187.193 116.673 186.483 116.782C184.837 117.035 184.876 116.988 185.032 118.581L185.176 120.054H184.067C182.744 120.054 182.695 120.618 184.007 120.738C184.827 120.813 184.841 120.835 184.841 122.086C184.841 123.601 185.14 123.942 186.469 123.942C187.404 123.942 187.468 123.989 187.468 124.671C187.468 125.072 187.588 125.4 187.734 125.4C187.881 125.4 188.649 125.062 189.44 124.649L190.879 123.898L192.198 124.649C193.831 125.579 194.035 125.582 194.035 124.684C194.035 124.003 194.095 123.965 195.283 123.895L196.531 123.821L196.611 122.788C196.692 121.76 196.697 121.755 197.728 121.755C198.473 121.755 198.764 121.653 198.764 121.391C198.764 121.111 198.43 121.026 197.334 121.026H195.904L195.823 122.037C195.747 122.994 195.698 123.049 194.889 123.07C194.14 123.089 194.035 123.015 194.035 122.464C194.035 122.119 193.96 121.767 193.869 121.683C193.778 121.598 193.039 121.869 192.227 122.285L190.751 123.041L189.346 122.241C187.845 121.386 187.481 121.469 187.472 122.666C187.468 123.111 187.321 123.213 186.68 123.213H185.892V120.419V117.625H186.661C187.26 117.625 187.45 117.746 187.515 118.171C187.596 118.7 187.705 118.72 190.817 118.786L194.035 118.855V118.24C194.035 117.699 194.146 117.625 194.955 117.625C195.854 117.625 195.874 117.646 195.874 118.609V119.594L197.232 119.52C198.913 119.43 199.348 118.84 197.735 118.84H196.662V117.872C196.662 117.055 196.565 116.882 196.034 116.759C195.688 116.679 195.127 116.65 194.786 116.694C194.279 116.76 194.151 116.653 194.083 116.106L194 115.438H190.909C189.209 115.438 187.739 115.511 187.643 115.6ZM158.84 118.002C157.176 120.779 156.909 122.135 157.774 123.41C158.324 124.22 159.664 124.914 160.677 124.914C161.564 124.914 162.76 124.219 163.31 123.383C164.18 122.064 163.984 120.948 162.405 118.232C161.629 116.896 160.824 115.771 160.617 115.732C160.38 115.688 159.726 116.522 158.84 118.002ZM188.256 117.129V118.111H190.751H193.247L193.246 117.2L193.245 116.288L190.75 116.218L188.256 116.148V117.129ZM159.574 118.416C157.892 121.118 157.745 122.219 158.91 123.395C159.452 123.943 160.874 124.135 161.843 123.791C162.389 123.597 163.037 122.44 163.037 121.659C163.037 121.119 161.235 117.561 160.72 117.085C160.609 116.982 160.093 117.581 159.574 118.416ZM129.949 117.733C129.446 118.294 129.74 119.134 130.594 119.57C131.132 119.845 131.382 120.159 131.382 120.56C131.382 121.173 130.853 121.297 129.872 120.912C129.149 120.628 129.32 121.241 130.049 121.548C130.969 121.936 131.998 121.626 132.195 120.902C132.43 120.032 132.178 119.622 131.118 119.155C129.939 118.635 129.979 117.988 131.192 117.992C131.699 117.993 132.039 117.871 132.039 117.688C132.039 117.259 130.341 117.296 129.949 117.733ZM132.564 117.625C132.564 117.758 132.796 117.868 133.079 117.868C133.538 117.868 133.601 118.067 133.67 119.751C133.768 122.164 134.246 122.122 134.348 119.692C134.417 118.067 134.481 117.868 134.939 117.868C135.222 117.868 135.454 117.758 135.454 117.625C135.454 117.491 134.804 117.382 134.009 117.382C133.214 117.382 132.564 117.491 132.564 117.625ZM135.931 119.443C135.539 120.653 135.361 121.58 135.505 121.663C135.641 121.741 135.817 121.575 135.896 121.294C136.098 120.579 137.694 120.56 137.894 121.269C138.043 121.796 138.619 121.948 138.587 121.452C138.576 121.285 138.306 120.329 137.988 119.328C137.182 116.797 136.781 116.819 135.931 119.443ZM139.132 119.569C139.132 120.864 139.238 121.755 139.394 121.755C139.539 121.755 139.657 121.318 139.657 120.783C139.657 119.603 140.226 119.466 140.704 120.532C140.882 120.929 141.192 121.38 141.393 121.534C141.914 121.934 141.887 121.061 141.356 120.36C140.986 119.872 140.997 119.787 141.487 119.334C142.092 118.774 142.137 118.521 141.749 117.852C141.543 117.495 141.195 117.382 140.304 117.382H139.132V119.569ZM142.153 117.625C142.242 117.758 142.544 117.868 142.825 117.868C143.287 117.868 143.335 118.049 143.335 119.812C143.335 120.945 143.444 121.755 143.597 121.755C143.751 121.755 143.86 120.945 143.86 119.812C143.86 118.049 143.908 117.868 144.37 117.868C144.651 117.868 144.953 117.758 145.042 117.625C145.144 117.473 144.602 117.382 143.597 117.382C142.593 117.382 142.051 117.473 142.153 117.625ZM139.657 118.597C139.657 119.284 139.727 119.35 140.379 119.281C140.953 119.22 141.102 119.079 141.102 118.597C141.102 118.115 140.953 117.973 140.379 117.912C139.727 117.843 139.657 117.91 139.657 118.597ZM136.687 118.842C136.38 119.903 136.473 120.297 137.03 120.297C137.632 120.297 137.67 119.991 137.197 118.963L136.862 118.237L136.687 118.842ZM172.201 119.317C171.466 119.996 171.288 120.04 169.003 120.106C165.812 120.198 165.838 120.641 169.039 120.732C171.396 120.799 171.52 120.831 172.149 121.522C172.622 122.042 173.035 122.241 173.641 122.241C174.6 122.241 175.646 121.657 175.646 121.121C175.646 120.836 175.941 120.774 177.026 120.832C178.35 120.902 178.403 120.932 178.355 121.573C178.328 121.941 178.387 122.237 178.487 122.232C178.842 122.213 181.52 120.644 181.606 120.404C181.695 120.159 178.964 118.792 178.607 118.903C178.504 118.935 178.454 119.207 178.496 119.508C178.568 120.018 178.476 120.054 177.11 120.054C176.01 120.054 175.646 119.968 175.646 119.704C175.646 119.199 174.603 118.597 173.729 118.597C173.248 118.597 172.7 118.855 172.201 119.317ZM172.716 119.917C172.193 120.979 172.905 121.714 174.171 121.42C174.946 121.24 175.186 120.492 174.683 119.827C174.151 119.125 173.083 119.174 172.716 119.917ZM188.46 123.473C188.33 124.293 188.292 124.27 189.163 123.903C189.996 123.552 190.004 123.364 189.202 123.026C188.624 122.782 188.564 122.819 188.46 123.473ZM192.243 123.172L191.634 123.606L192.322 123.895C193.248 124.286 193.247 124.287 193.247 123.456C193.247 122.616 193.087 122.571 192.243 123.172ZM172.793 124.644C172.34 125.431 171.969 126.142 171.969 126.224C171.969 126.305 172.264 126.372 172.625 126.372C173.258 126.372 173.282 126.428 173.282 127.951V129.53H167.12H160.958L160.881 127.769C160.773 125.293 160.295 125.552 160.203 128.137L160.127 130.267L167.164 130.203L174.202 130.138L174.278 128.255C174.352 126.436 174.377 126.372 175.001 126.372C175.356 126.372 175.646 126.305 175.646 126.224C175.646 125.924 173.991 123.213 173.807 123.213C173.703 123.213 173.247 123.857 172.793 124.644ZM134.431 124.339C132.091 125.418 130.772 127.67 131.077 130.064C131.701 134.957 137.899 137 141.634 133.546C146.63 128.925 140.76 121.422 134.431 124.339ZM135.6 124.778C134.104 125.289 133.325 125.902 132.62 127.12C132.103 128.012 132.014 128.469 132.092 129.821C132.171 131.201 132.307 131.587 132.991 132.372C134.121 133.67 135.574 134.381 137.104 134.386C140.278 134.396 142.527 132.328 142.541 129.386C142.556 126.107 138.87 123.66 135.6 124.778ZM135.446 125.947C133.692 126.766 133.02 127.846 133.141 129.652C133.301 132.048 134.835 133.418 137.359 133.418C138.737 133.418 139.995 132.729 140.922 131.468C141.435 130.77 141.525 130.39 141.44 129.272C141.314 127.604 140.528 126.494 139.026 125.863C137.611 125.268 136.86 125.286 135.446 125.947ZM135.42 126.781C132.669 128.36 133.942 132.689 137.157 132.689C140.422 132.689 141.868 128.942 139.357 126.987C138.412 126.252 136.515 126.153 135.42 126.781ZM183.676 127.83C183.444 128.398 184.669 131.839 185.104 131.839C185.48 131.839 186.648 128.917 186.658 127.951C186.663 127.485 186.648 127.483 186.298 127.91C186.098 128.155 185.794 128.893 185.624 129.55C185.453 130.208 185.229 130.745 185.127 130.745C185.024 130.745 184.785 130.171 184.594 129.47C184.404 128.768 184.154 128.03 184.037 127.83C183.849 127.506 183.809 127.506 183.676 127.83ZM187.482 129.337C187.168 130.312 186.851 131.301 186.778 131.535C186.704 131.769 186.782 131.96 186.949 131.96C187.117 131.96 187.316 131.742 187.391 131.474C187.49 131.126 187.75 130.988 188.311 130.988C188.872 130.988 189.132 131.126 189.23 131.474C189.306 131.742 189.525 131.96 189.717 131.96C190 131.96 189.989 131.718 189.658 130.685C188.483 127.022 188.269 126.889 187.482 129.337ZM190.475 127.898C190.396 128.086 190.368 129.049 190.411 130.039L190.489 131.839L191.736 131.913C192.487 131.957 192.984 131.885 192.984 131.731C192.984 131.59 192.571 131.474 192.065 131.474H191.145V129.666C191.145 127.99 190.807 127.097 190.475 127.898ZM193.494 128.119C193.407 131.303 193.455 131.96 193.772 131.96C193.927 131.96 194.035 131.115 194.035 129.909C194.035 128.781 193.917 127.791 193.772 127.708C193.627 127.625 193.503 127.81 193.494 128.119ZM194.823 129.773V131.96H195.833C197.252 131.96 197.713 131.407 197.713 129.707C197.713 128.139 197.184 127.587 195.684 127.587H194.823V129.773ZM195.349 129.911V131.507L196.071 131.43C196.763 131.356 196.797 131.29 196.872 129.834L196.95 128.316H196.149H195.349V129.911ZM188.206 128.939C188.129 129.064 187.988 129.467 187.893 129.834C187.748 130.395 187.806 130.502 188.251 130.502C188.588 130.502 188.774 130.347 188.763 130.077C188.735 129.436 188.366 128.681 188.206 128.939ZM156.741 135.346C156.427 135.889 156.379 139.713 156.68 140.152C156.836 140.378 161.674 140.453 177.582 140.476C188.967 140.492 198.345 140.447 198.422 140.375C198.599 140.211 198.526 135.353 198.343 135.079C198.268 134.967 188.939 134.876 177.61 134.876C157.516 134.876 157.007 134.887 156.741 135.346ZM157.52 137.67V139.735H177.617H197.713V137.67V135.605H177.617H157.52V137.67ZM158.223 136.25C158.126 136.341 158.046 137.052 158.046 137.832V139.249H171.193H184.34L184.262 137.731L184.184 136.212L171.292 136.149C164.202 136.115 158.321 136.16 158.223 136.25ZM137.818 138.764V139.735H132.814H127.811L127.889 141.254L127.967 142.773L132.893 142.839L137.818 142.905V143.75C137.818 144.267 137.947 144.595 138.148 144.595C138.713 144.595 144.254 141.506 144.254 141.191C144.254 140.881 138.721 137.806 138.146 137.797C137.938 137.794 137.818 138.145 137.818 138.764ZM138.606 139.73V140.454L133.681 140.52L128.755 140.586L128.672 141.254L128.589 141.922H133.58C138.333 141.922 138.579 141.945 138.737 142.406C138.828 142.672 138.829 143 138.739 143.135C138.649 143.27 138.694 143.38 138.839 143.38C139.175 143.38 142.809 141.364 142.809 141.177C142.809 141.021 139.078 139.006 138.789 139.006C138.689 139.006 138.606 139.332 138.606 139.73Z" fill="white"/>
</svg>
