<svg width="242" height="196" viewBox="0 0 242 196" fill="none" xmlns="http://www.w3.org/2000/svg">
<path opacity="0.7" fill-rule="evenodd" clip-rule="evenodd" d="M178.045 12.2005C176.272 12.5409 174.488 13.282 173.649 14.0272L173.223 14.4059V15.6521C173.223 16.3375 173.28 17.0146 173.349 17.1568C173.526 17.519 174.516 18.2359 175.193 18.4915C175.998 18.7955 176.993 18.8463 178.306 18.6502C178.923 18.5581 179.501 18.4827 179.59 18.4827C179.679 18.4827 179.894 18.683 180.069 18.9278C180.244 19.1725 180.525 19.4677 180.695 19.5836C180.916 19.7344 180.999 19.8985 180.986 20.1596C180.977 20.3605 181.012 20.6307 181.065 20.7604C181.145 20.9561 181.112 20.996 180.866 20.996C180.467 20.996 179.746 21.3568 179.333 21.7627C179.049 22.0418 178.972 22.0701 178.857 21.9385C178.781 21.8521 178.676 21.7324 178.623 21.6724C178.449 21.4767 176.931 21.0107 176.235 20.9392C175.058 20.8184 172.975 21.3894 172.22 22.0399C171.913 22.3051 171.64 22.3061 171.21 22.0432C171.025 21.9305 170.833 21.8373 170.783 21.8361C170.678 21.8334 167.317 20.3747 163.961 18.875C162.668 18.2975 160.373 17.2855 158.859 16.6261C157.346 15.9666 156.032 15.3782 155.94 15.3187C155.847 15.2594 155.772 15.0696 155.772 14.8972C155.772 14.2017 154.104 13.4749 152.786 13.5966C152.18 13.6526 151.993 13.6107 150.757 13.1428C148.562 12.312 147.668 12.1612 144.898 12.1535C141.266 12.1435 140.082 12.3968 136.398 13.9714C135.389 14.4029 135.326 14.4155 134.755 14.3033C133.426 14.0421 131.34 15.0521 131.34 15.9571C131.34 16.0808 131.217 16.1944 131.038 16.2382C130.871 16.2787 130.705 16.3407 130.668 16.3762C130.631 16.4116 130.36 16.5395 130.064 16.6603C128.53 17.2881 126.96 17.9633 125.66 18.5553C124.862 18.9185 124.188 19.2157 124.163 19.2157C124.137 19.2157 123.733 19.3857 123.264 19.5934C122.796 19.801 121.265 20.4673 119.862 21.0738C118.459 21.6804 116.586 22.4926 115.7 22.8788C114.814 23.2649 113.485 23.8432 112.747 24.1637C111.653 24.6385 106.036 27.0941 104.424 27.8023C104.202 27.8996 102.42 28.6751 100.464 29.5258C98.5072 30.3764 96.5741 31.2257 96.168 31.4132C95.7619 31.6005 95.0974 31.8947 94.6913 32.0668C94.2852 32.239 93.7113 32.4873 93.416 32.6187C93.1207 32.7501 91.8823 33.2809 90.664 33.7981C89.4458 34.3152 88.0276 34.9333 87.5127 35.1715C86.6019 35.5928 86.5432 35.6046 85.3648 35.6059C84.2844 35.6069 84.0864 35.6382 83.5353 35.8947C82.742 36.2642 82.4649 36.5084 82.3545 36.9355C82.2783 37.231 82.1126 37.3494 81.1958 37.7643C77.4461 39.4614 75.6083 40.9091 74.1 43.354C73.0037 45.1311 72.8091 45.7594 72.7135 47.8309C72.6555 49.087 72.5956 49.4802 72.4623 49.4802C72.1884 49.4802 70.6434 50.2058 70.1471 50.5676C69.5254 51.0207 69.3278 51.36 69.242 52.1218C69.1331 53.0888 69.0814 53.2195 68.784 53.2803C68.5216 53.3338 68.514 53.2868 68.514 51.6355C68.514 50.0059 68.5015 49.9268 68.212 49.7214C67.9376 49.5267 65.224 48.2236 65.0931 48.2236C65.0626 48.2236 64.4624 47.9408 63.7593 47.5952L62.4807 46.9669H60.8313H59.1817L58.109 47.5236C57.519 47.8297 56.3091 48.3933 55.4204 48.7759C53.0254 49.8071 53.1515 49.6346 53.1015 51.943L53.0597 53.8657L53.5802 54.2648C53.8664 54.4843 54.752 54.9231 55.548 55.2399L56.9953 55.8159L56.9093 56.4868C56.8258 57.1372 56.7968 57.1791 55.9662 57.8482C54.3462 59.1535 53.4148 60.3027 52.7797 61.7799L52.3724 62.7275L52.3915 88.9078L52.4105 115.088L51.5933 115.559C51.1438 115.819 50.478 116.275 50.1138 116.574L49.4515 117.118V124.55V131.983L48.5454 132.376C47.4178 132.866 47.4102 132.87 44.149 134.328C42.6723 134.988 41.1319 135.67 40.7258 135.843C40.0496 136.132 36.5036 137.698 33.7685 138.917C33.1537 139.19 32.5044 139.522 32.3254 139.653L32 139.891V142.325V144.758L32.3983 145.02C32.6174 145.163 33.1158 145.421 33.5058 145.593C36.4515 146.887 48.2043 152.103 51.8008 153.712C53.3513 154.406 55.0125 155.145 55.4925 155.355C55.9724 155.565 57.5732 156.27 59.0499 156.922C60.5266 157.574 62.067 158.249 62.4731 158.421C62.8792 158.594 63.2718 158.77 63.3457 158.813C63.4195 158.856 63.9632 159.1 64.5538 159.355C65.1445 159.61 67.1078 160.481 68.9167 161.291C70.7256 162.1 74.1992 163.647 76.6357 164.727C79.0722 165.808 82.7873 167.456 84.8916 168.39C86.9959 169.324 90.409 170.832 92.4763 171.742C94.5436 172.652 96.5674 173.55 96.9734 173.737C97.3795 173.924 99.3428 174.796 101.336 175.673C107.346 178.32 108.774 178.951 112.79 180.737C117.383 182.781 117.908 183 118.217 183C118.471 183 119.357 182.685 120.332 182.247C120.981 181.956 124.292 180.502 126.373 179.595C128.558 178.643 141.073 173.088 143.824 171.85C145.264 171.202 146.925 170.469 147.516 170.221C148.106 169.973 149.224 169.48 149.999 169.125C152.053 168.187 154.223 167.218 156.51 166.22C158.706 165.261 159.135 165.071 160.94 164.252C161.605 163.951 162.42 163.586 162.752 163.442C163.341 163.187 165.112 162.401 174.968 158.026C177.589 156.863 180.58 155.543 181.613 155.093C182.647 154.643 183.976 154.051 184.567 153.779C185.157 153.507 186.637 152.85 187.856 152.319C189.074 151.788 190.645 151.092 191.346 150.773C192.047 150.454 193.014 150.015 193.494 149.799C194.259 149.454 201.026 146.46 203.428 145.404C203.908 145.193 205.599 144.439 207.187 143.729C208.774 143.018 210.737 142.145 211.55 141.787C215.881 139.879 218.301 138.762 218.631 138.518L219 138.245V135.818V133.391L218.649 133.117C218.457 132.967 217.626 132.552 216.804 132.195C215.981 131.838 215.097 131.455 214.838 131.343C214.58 131.231 212.738 130.397 210.744 129.49C205.134 126.938 202.369 125.707 201.381 125.322C200.882 125.128 200.475 124.954 200.475 124.936C200.475 124.917 200.792 124.772 201.179 124.615C202.891 123.918 205.062 122.426 206.078 121.249C207.891 119.148 208.824 116.818 208.787 114.484C208.77 113.415 208.79 113.325 209.092 113.063C209.657 112.575 209.734 112.461 209.868 111.91C210.049 111.163 209.915 110.776 209.314 110.307L208.798 109.904V80.0152C208.798 63.5761 208.845 50.1103 208.903 50.0911C209.214 49.9883 209.87 49.1659 209.948 48.7807C210.084 48.1128 209.792 47.3181 209.334 47.1069C208.958 46.9336 208.957 46.9314 208.877 45.5102C208.725 42.7858 208.17 41.1649 206.775 39.3631C204.908 36.952 203.673 36.0959 199.162 34.088C198.06 33.5971 197.929 33.5084 198.021 33.3125C198.079 33.1908 198.125 32.573 198.124 31.9394C198.124 31.0311 198.071 30.7049 197.876 30.3974C197.44 29.7118 196.665 29.1312 195.692 28.7616C195.184 28.5689 194.618 28.3434 194.434 28.2603C193.202 27.7065 192.63 27.5735 191.722 27.6296C191.227 27.6601 190.712 27.7312 190.577 27.7876C190.393 27.8645 190.142 27.8174 189.571 27.5988L188.809 27.3076L188.735 25.2854C188.653 23.0789 188.623 22.9961 187.805 22.724C187.492 22.6199 187.411 22.5202 187.373 22.1971C187.315 21.6935 186.652 21.1306 186.006 21.0359L185.548 20.969L185.64 20.4851C185.69 20.2189 185.822 19.9224 185.932 19.8262C186.043 19.73 186.234 19.5123 186.357 19.3426C186.48 19.1728 186.717 18.9024 186.885 18.7417L187.19 18.4494L188.112 18.6231C189.515 18.8872 190.63 18.8544 191.427 18.5254C192.433 18.1102 193.194 17.6259 193.387 17.2784C193.497 17.0804 193.559 16.5299 193.556 15.7889C193.55 14.6592 193.534 14.5964 193.151 14.1658C192.423 13.3489 190.898 13.0094 189.705 13.3985C189.207 13.5606 189.358 13.5787 187.151 13.0908C186.073 12.8523 185.034 12.8841 184.486 13.172C184.235 13.3037 183.951 13.5393 183.855 13.6956C183.58 14.1404 183.236 14.0532 182.781 13.4236C181.799 12.0673 180.495 11.7303 178.045 12.2005ZM177.947 13.0526C176.957 13.2925 175.991 13.6869 175.476 14.0618C175.151 14.2977 175.134 14.3411 175.325 14.4498C175.499 14.5492 175.617 14.5167 175.955 14.2761C176.927 13.583 178.898 13.0389 180.447 13.0356C180.99 13.0345 181.152 13.0046 181.009 12.9325C180.669 12.7607 178.858 12.8318 177.947 13.0526ZM141.431 13.4045C140.327 13.6271 138.477 14.2564 136.939 14.9326L136.431 15.156L136.837 15.3897C138.005 16.062 138.985 17.5822 138.99 18.7286L138.991 19.1316L139.428 18.9076C140.759 18.224 142.69 17.5873 143.742 17.4848C144.584 17.4027 146.606 17.655 147.499 17.9534C148.306 18.2234 148.299 18.224 148.351 17.8833C148.485 16.9904 149.324 15.7573 150.381 14.8984C150.716 14.6261 150.963 14.3885 150.931 14.3704C150.756 14.2727 149.224 13.732 148.744 13.599C146.806 13.0615 143.562 12.9751 141.431 13.4045ZM179.331 14.0217C178.146 14.2493 176.289 15.0439 176.596 15.1918C176.958 15.3665 177.911 15.4239 178.944 15.333C180.101 15.2314 180.852 15.0387 181.137 14.7712C181.233 14.6814 181.39 14.608 181.488 14.608C181.789 14.608 181.848 14.401 181.622 14.1321C181.436 13.9109 181.308 13.8762 180.704 13.8839C180.318 13.8888 179.7 13.9508 179.331 14.0217ZM185.113 14.0395C184.855 14.2413 184.838 14.5033 185.084 14.5033C185.183 14.5033 185.508 14.6409 185.806 14.8091C186.489 15.1948 187.087 15.3259 188.546 15.4092C189.562 15.4673 189.778 15.4479 190.291 15.2529C190.613 15.1305 191.08 14.8931 191.33 14.7255C191.77 14.4303 191.776 14.4172 191.507 14.3049C191.088 14.1301 190.452 14.1648 189.591 14.4098L188.815 14.6304L187.362 14.2527C185.741 13.8314 185.419 13.8008 185.113 14.0395ZM152.564 14.7429C151.797 14.9339 150.598 15.8956 150.052 16.7565C149.41 17.7707 149.319 18.5988 149.76 19.4173C150.217 20.2655 150.341 20.1926 150.292 19.1044C150.249 18.1744 150.26 18.1368 150.796 17.2922C151.583 16.0537 153.148 14.8191 153.934 14.8179C154.067 14.8177 154.139 14.7703 154.094 14.7127C153.988 14.5792 153.155 14.5956 152.564 14.7429ZM182.905 15.136C182.304 15.2413 181.778 15.5577 181.617 15.9118C181.499 16.1692 181.537 16.2366 181.984 16.5556C182.423 16.87 182.565 16.9109 183.189 16.9039C184.651 16.8875 185.394 16.4327 185.042 15.7694C184.767 15.2528 183.828 14.9744 182.905 15.136ZM174.305 15.472C174.327 16.3907 174.522 16.8466 175.043 17.198C175.806 17.7131 176.303 17.7796 177.999 17.5938C178.794 17.5067 179.48 17.4321 179.522 17.4282C179.565 17.4241 179.479 17.3788 179.331 17.3275C179.145 17.2627 179.308 17.242 179.868 17.2594L180.674 17.2847L180.717 17.697C180.799 18.4737 182.169 19.5352 183.077 19.5253C184.169 19.5134 184.676 19.353 185.259 18.836C185.619 18.5171 185.86 18.1881 185.913 17.9419C185.959 17.7275 186.071 17.5046 186.161 17.4464C186.333 17.3348 187.198 17.4066 189.055 17.6868C189.946 17.8212 190.111 17.8195 190.599 17.6714C191.212 17.485 191.874 17.1547 192.102 16.921C192.255 16.765 192.482 15.4596 192.372 15.3736C192.34 15.3485 191.99 15.5199 191.595 15.7547C191.2 15.9894 190.635 16.2337 190.339 16.2976C189.753 16.4242 187.285 16.3515 186.544 16.1857L186.111 16.0888L186.11 16.5265C186.11 17.0873 185.729 17.4396 184.835 17.7055C183.496 18.104 181.909 17.8718 180.894 17.1285C180.536 16.8661 180.455 16.7358 180.501 16.493L180.559 16.1874L178.853 16.2511C177.728 16.2931 176.935 16.2729 176.522 16.1917C175.896 16.0688 174.862 15.5632 174.66 15.2812C174.474 15.0226 174.297 15.118 174.305 15.472ZM133.42 15.4334L133.018 15.5011L133.65 15.6898C134.619 15.9793 135.652 16.842 136.335 17.9315C136.884 18.8075 136.911 18.8925 136.911 19.8018C136.911 20.4619 136.853 20.8083 136.724 20.93C136.476 21.1632 136.613 21.2539 136.959 21.0854C137.111 21.0114 137.396 20.6713 137.593 20.3297C137.903 19.7913 137.942 19.6094 137.886 18.9647C137.769 17.6096 136.494 16.0522 135.098 15.5591C134.48 15.3407 134.129 15.3145 133.42 15.4334ZM153.825 15.9535C152.669 16.5066 151.614 17.8498 151.507 18.9058C151.465 19.3141 151.502 19.5199 151.63 19.6001C151.842 19.7334 159.699 23.2558 164.162 25.2184C165.86 25.9651 167.496 26.6868 167.797 26.8218L168.344 27.0673L168.5 26.4141C168.694 25.5997 169.291 24.6406 170.148 23.7685C170.833 23.0711 170.891 22.9857 170.68 22.9857C170.61 22.9857 170.202 22.8295 169.774 22.6385C169.345 22.4474 168.421 22.0409 167.719 21.7351C167.018 21.4292 166.051 21.0019 165.571 20.7854C165.092 20.569 162.856 19.5798 160.604 18.5872C158.353 17.5947 156.007 16.5525 155.392 16.2712C154.778 15.99 154.264 15.7601 154.251 15.7604C154.238 15.7606 154.047 15.8475 153.825 15.9535ZM132.346 16.8014C131.915 17.0039 130.447 17.6572 129.46 18.0859C129.128 18.2302 128.614 18.455 128.319 18.5854C126.947 19.1912 125.706 19.7336 125.03 20.0219C123.608 20.6293 122.943 20.9206 122.211 21.2578C121.4 21.6312 121.099 21.7621 118.05 23.0632C116.905 23.5516 115.153 24.3165 114.156 24.763C113.16 25.2096 111.468 25.9523 110.398 26.4135C109.327 26.8746 108.149 27.3821 107.78 27.5412C107.411 27.7002 106.565 28.0773 105.901 28.3791C105.236 28.681 103.967 29.2335 103.081 29.6069C101.094 30.4447 100.488 30.7077 98.7857 31.4691C97.1263 32.2116 94.3997 33.4016 93.1475 33.93C92.6307 34.1481 91.8152 34.5028 91.3352 34.7182C90.2157 35.2206 89.7631 35.4173 88.449 35.9722C87.8584 36.2218 87.361 36.4327 87.3437 36.4412C87.3265 36.4495 87.6485 36.7273 88.0596 37.0583C88.941 37.7683 89.5596 38.7276 89.7253 39.6416C89.7896 39.9965 89.8704 40.3088 89.9049 40.3357C89.9393 40.3626 90.2136 40.2634 90.5145 40.1152C90.8153 39.967 91.087 39.8459 91.1183 39.8459C91.1743 39.8459 92.4201 39.3004 93.3595 38.8645C93.6237 38.7419 94.6808 38.271 95.7087 37.818C96.7365 37.365 97.9702 36.8166 98.4501 36.5993C98.93 36.3819 99.5945 36.0878 99.9268 35.9457C102.842 34.6991 103.782 34.2904 104.847 33.8065C105.523 33.4995 106.113 33.2484 106.158 33.2484C106.204 33.2484 106.678 33.0443 107.212 32.7949C107.746 32.5454 108.575 32.1733 109.055 31.9681C109.535 31.7628 110.2 31.4784 110.532 31.3361C110.864 31.1937 111.868 30.7671 112.762 30.3882C113.656 30.0093 115.136 29.3593 116.051 28.9438C116.965 28.5284 117.986 28.0717 118.318 27.929C118.65 27.7863 119.315 27.494 119.795 27.2796C120.275 27.0651 121.12 26.7011 121.674 26.4707C122.228 26.2402 123.95 25.4948 125.5 24.8141C127.051 24.1335 129.376 23.1205 130.668 22.5632C134.669 20.8375 135.564 20.4366 135.676 20.3216C135.872 20.1197 135.67 19.0686 135.317 18.4478C134.893 17.7027 134.298 17.1007 133.701 16.8132C133.164 16.5541 132.879 16.5516 132.346 16.8014ZM181.009 17.6824C181.009 17.8592 181.37 17.992 181.479 17.855C181.52 17.8028 181.431 17.709 181.282 17.6465C181.067 17.557 181.009 17.5646 181.009 17.6824ZM185.003 17.9237C185.095 17.9528 185.246 17.9528 185.339 17.9237C185.431 17.8947 185.355 17.8709 185.171 17.8709C184.986 17.8709 184.911 17.8947 185.003 17.9237ZM142.949 18.7413C142.27 18.9087 140.89 19.4623 140.535 19.7093C140.276 19.8897 140.269 19.9939 140.334 22.6077L140.401 25.319L141.115 25.5306C142.522 25.9473 143.954 27.2803 143.957 28.1754L143.958 28.6003L144.932 28.7964C148.862 29.5883 152.398 30.8734 154.924 32.428C156.119 33.1636 157.578 34.2992 158.327 35.0759C159.106 35.8842 160.016 37.3699 160.352 38.3798C160.423 38.5942 160.471 49.5269 160.467 64.7346L160.461 90.7229L161.22 91.1767C162.606 92.0071 163.086 92.3343 163.322 92.612C163.538 92.8661 163.556 93.3743 163.557 99.2328L163.558 105.578L164.9 106.214C165.639 106.563 166.243 106.8 166.243 106.741C166.243 106.501 167.213 105.41 167.88 104.9C168.751 104.234 169.296 103.941 170.64 103.416C176.013 101.314 184.083 101.712 188.491 104.298C190.213 105.308 191.053 106.398 191.174 107.784C191.282 109.016 190.832 109.93 189.604 110.976C188.071 112.281 186.305 113.03 183.256 113.666C182.683 113.786 182.019 113.885 181.78 113.885C181.108 113.888 180.988 113.998 181.035 114.564C181.076 115.061 181.084 115.069 181.681 115.209C182.732 115.457 183.291 115.977 183.291 116.708C183.291 117.02 183.355 117.155 183.526 117.206C184.06 117.362 185.688 118.194 186.157 118.549C186.64 118.915 186.68 118.926 187.091 118.796C187.327 118.721 187.788 118.545 188.116 118.404C188.622 118.187 188.896 118.148 189.936 118.144C191.108 118.14 191.209 118.159 192.36 118.592C193.021 118.84 193.8 119.19 194.093 119.37C194.385 119.549 194.717 119.68 194.831 119.66C195.737 119.502 197.788 118.479 198.68 117.74C199.563 117.009 200.126 116.029 200.266 114.983C200.48 113.38 200.472 113.181 200.18 112.978C199.204 112.301 199.151 110.587 200.091 110.073L200.407 109.9L200.442 80.0364L200.476 50.1723L200.088 49.8525C199.874 49.6766 199.602 49.3818 199.483 49.1975C199.04 48.5123 199.341 47.2441 200.012 46.964C200.316 46.8367 200.34 46.7685 200.34 46.026C200.34 44.1864 199.75 42.85 198.473 41.8002C197.733 41.1919 197.221 40.907 195.253 40.0092C193.953 39.4162 193.741 39.3492 193.663 39.5069C193.372 40.1013 191.091 40.9978 189.87 40.9978C189.006 40.9978 188.526 40.868 187.075 40.2418C184.604 39.176 183.875 38.388 183.728 36.6221C183.662 35.8247 183.626 35.7381 183.285 35.5487C183.081 35.4355 182.883 35.3428 182.844 35.3428C182.805 35.3428 181.62 34.8245 180.21 34.1909C178.8 33.5573 177.611 33.039 177.568 33.039C177.526 33.039 177.382 33.1468 177.249 33.2787C177.116 33.4106 176.656 33.657 176.227 33.8264C175.185 34.2375 173.932 34.3062 173.046 34.0005C171.974 33.6305 169.76 32.5147 169.317 32.1207C168.501 31.3964 168.057 30.2645 167.956 28.6565L167.921 28.0964L163.893 26.2967C161.678 25.3069 158.356 23.8192 156.51 22.9908C154.664 22.1625 152.889 21.3672 152.566 21.2237C152.088 21.0115 151.931 20.9854 151.729 21.0841C150.921 21.4774 149.247 20.8065 148.579 19.822C147.969 18.9221 144.733 18.3011 142.949 18.7413ZM183.193 20.3405L182.356 20.3776L182.378 21.0126C182.392 21.3936 182.475 21.7057 182.587 21.793C182.819 21.9741 183.883 21.9846 184.063 21.8076C184.265 21.6095 184.37 20.2582 184.182 20.2832C184.098 20.2943 183.653 20.32 183.193 20.3405ZM138.734 20.9216C138.669 21.0533 138.362 21.3408 138.051 21.5602C137.026 22.2824 135.864 22.536 135.098 22.2047C134.793 22.0728 134.694 22.0881 134.006 22.3739L133.249 22.6883L133.152 25.4289C133.099 26.9362 133.077 28.286 133.104 28.4284C133.141 28.6285 133.304 28.7342 133.823 28.8935C134.756 29.18 137.143 29.1948 138.152 28.9203C138.54 28.8148 138.859 28.697 138.861 28.6585C138.906 27.8293 138.948 20.6818 138.908 20.6818C138.876 20.6818 138.798 20.7897 138.734 20.9216ZM183.426 20.7866C183.426 20.8442 183.482 20.8913 183.552 20.8913C183.622 20.8913 183.716 20.8442 183.761 20.7866C183.807 20.729 183.75 20.6818 183.635 20.6818C183.52 20.6818 183.426 20.729 183.426 20.7866ZM175.377 21.9593C175.048 22.0035 174.452 22.1646 174.052 22.3173C173.235 22.6291 171.637 23.7523 171.185 24.332C171.022 24.5419 170.851 24.7372 170.806 24.766C170.63 24.8777 169.867 26.2086 169.666 26.7557C169.549 27.0725 169.418 27.8736 169.376 28.5359C169.308 29.598 169.333 29.8196 169.592 30.4122C169.899 31.1158 170.584 31.9918 170.828 31.9918C170.911 31.9918 170.929 31.9152 170.873 31.8085C170.479 31.0617 170.375 30.4199 170.452 29.1927C170.496 28.4884 170.588 27.8287 170.657 27.7266C170.725 27.6246 170.858 27.329 170.953 27.0698C171.368 25.9304 172.722 24.2023 173.798 23.4395C174.535 22.9169 175.538 22.3824 176.186 22.1675L176.781 21.9703L176.378 21.9247C176.156 21.8995 175.706 21.9151 175.377 21.9593ZM180.611 22.141C180.535 22.2525 180.472 22.5138 180.472 22.7218C180.472 23.2145 180.862 23.5163 181.89 23.819C182.927 24.1242 184.052 24.0723 185.105 23.6704C185.98 23.3367 186.138 23.1442 186.084 22.4847C186.05 22.0701 185.997 21.9856 185.753 21.9586C185.567 21.938 185.433 21.9947 185.38 22.1157C185.239 22.4426 184.684 22.6668 183.767 22.7682C182.696 22.8864 181.919 22.7197 181.339 22.248C180.892 21.884 180.797 21.8701 180.611 22.141ZM180.814 22.2454C180.771 22.2991 180.788 22.3676 180.851 22.3979C180.913 22.4282 180.965 22.3843 180.965 22.3004C180.965 22.1239 180.922 22.1085 180.814 22.2454ZM176.988 22.8965C176.372 23.0378 175.282 23.6104 174.581 24.1619C173.826 24.7555 172.64 26.2343 172.218 27.1085C171.155 29.3114 171.6 31.9988 173.169 32.8593C173.961 33.2936 174.626 33.3342 175.472 32.9999C176.265 32.6864 176.396 32.5649 176.172 32.3537C175.943 32.1387 175.531 32.1592 175.554 32.3845C175.583 32.6755 174.848 32.6772 174.297 32.3874C173.5 31.9686 173.077 31.3001 172.991 30.3283C172.92 29.5168 173.136 27.9727 173.353 27.7505C173.409 27.6929 173.494 27.518 173.542 27.3617C173.656 26.9867 174.468 25.9066 175.185 25.1738C175.51 24.8418 176.112 24.4095 176.571 24.1789C177.017 23.9546 177.383 23.7194 177.384 23.6561C177.384 23.5929 177.629 23.4553 177.927 23.3504C178.96 22.9869 178.199 22.6191 176.988 22.8965ZM131.603 23.3406C131.495 23.4206 130.35 23.9337 129.057 24.4807C127.765 25.0278 126.175 25.7163 125.523 26.0108C124.871 26.3053 124.317 26.5462 124.291 26.5462C124.265 26.5462 123.253 26.9898 122.041 27.5319C120.829 28.074 119.359 28.7169 118.776 28.9606C118.192 29.2042 117.382 29.5558 116.976 29.742C116.57 29.9281 115.331 30.4714 114.224 30.9493C110.663 32.4855 107.112 34.0293 103.149 35.7636C102.004 36.2644 100.796 36.7914 100.464 36.9347C100.131 37.078 98.8327 37.6429 97.5775 38.1901C96.3224 38.7373 94.3289 39.5987 93.1475 40.1043C89.9803 41.46 89.8586 41.5179 89.8586 41.6681C89.8586 41.8975 88.7977 42.7633 88.1589 43.0553C87.6245 43.2997 87.4693 43.322 86.7241 43.2625C85.9055 43.197 85.8685 43.2053 84.8868 43.6751C82.4384 44.8464 81.267 46.34 81.267 48.2907V49.234L82.1061 49.5346C83.2873 49.9578 84.3977 50.8391 84.6783 51.576C84.7956 51.8841 84.8916 52.2875 84.8916 52.4723C84.8916 52.7716 84.9394 52.8137 85.3279 52.8574C86.1395 52.9487 88.9787 53.6568 90.2139 54.0761C93.165 55.0779 94.9057 55.9499 96.822 57.3862C98.754 58.8343 99.7426 59.9259 100.628 61.5896L101.067 62.4133L101.1 86.5516C101.119 99.8277 101.134 110.707 101.134 110.729C101.135 110.75 101.211 110.721 101.303 110.663C101.395 110.606 101.893 110.38 102.41 110.162C102.927 109.944 103.894 109.507 104.558 109.192C105.922 108.545 106.117 108.458 107.725 107.777L108.878 107.288L108.967 104.286C109.015 102.634 109.055 99.4468 109.055 97.2023C109.055 92.4212 108.919 92.8531 110.79 91.6893L111.974 90.953L112.067 89.8257C112.118 89.2057 112.149 77.412 112.135 63.6176L112.109 38.5368L112.442 37.8038C113.363 35.7782 114.852 34.144 117.12 32.6713C119.372 31.2091 122.521 29.8941 125.567 29.144C126.49 28.9166 127.35 28.6869 127.478 28.6333C127.606 28.5797 127.803 28.5359 127.914 28.5359C128.026 28.5359 128.118 28.4608 128.118 28.3688C128.118 27.865 128.58 27.0406 129.131 26.5628C129.658 26.1055 130.845 25.5319 131.642 25.3499C131.845 25.3033 131.877 25.1559 131.877 24.2456C131.877 23.6679 131.859 23.1952 131.838 23.1952C131.817 23.1952 131.711 23.2606 131.603 23.3406ZM179.486 26.1935C179.524 27.5106 179.575 28.6416 179.6 28.7068C179.669 28.8831 181.178 29.5714 181.984 29.7932L182.687 29.9872L183.493 29.3708C183.936 29.0317 184.449 28.6639 184.634 28.5534C185.233 28.1947 186.796 27.5935 187.129 27.5935H187.453V25.7085C187.453 24.1028 187.423 23.8235 187.252 23.8235C187.141 23.8235 187.05 23.867 187.05 23.9204C187.05 24.0934 185.529 24.669 184.634 24.8351C183.521 25.0414 182.309 24.9697 181.096 24.626C180.59 24.4824 180.005 24.2377 179.797 24.0818L179.418 23.7987L179.486 26.1935ZM177.5 24.8721C176.828 25.1489 175.746 26.1235 175.187 26.9544C174.59 27.8434 174.297 28.7412 174.297 29.6837C174.297 30.5009 174.468 30.8913 174.786 30.7965C174.949 30.7475 176.971 31.4939 177.452 31.7807C177.526 31.8248 178.432 32.228 179.466 32.6767C182.136 33.836 182.06 33.8019 183.06 34.2806C183.663 34.5688 183.986 34.6715 184.017 34.5843C184.042 34.512 184.14 34.1935 184.235 33.8767C184.329 33.56 184.45 33.2301 184.503 33.1437C184.556 33.0573 184.734 32.751 184.899 32.463C185.55 31.3289 187.111 29.8107 188.652 28.8155L189.246 28.4312L188.685 28.4181C188.377 28.4109 188.049 28.3969 187.956 28.3868C187.3 28.3155 185.738 29.0216 184.448 29.9722C183.962 30.3301 183.384 30.696 183.162 30.7855C182.789 30.9358 182.696 30.9316 181.918 30.7282C181.129 30.5222 179.451 29.85 178.993 29.557C178.88 29.4849 178.654 29.2902 178.489 29.124C178.203 28.8349 178.19 28.7321 178.19 26.7415C178.19 25.5974 178.145 24.6634 178.09 24.6659C178.034 24.6685 177.769 24.7612 177.5 24.8721ZM140.421 26.9389C140.501 27.4284 140.737 27.8143 140.737 27.4573C140.737 27.2377 141.049 27.2248 141.272 27.4352C141.475 27.6254 141.676 27.547 141.676 27.2781C141.676 27.1111 140.665 26.4415 140.413 26.4415C140.372 26.4415 140.376 26.6653 140.421 26.9389ZM131.036 26.7949C130.759 26.928 130.498 27.0633 130.456 27.0955C130.359 27.1715 130.696 27.5935 130.854 27.5935C130.92 27.5935 131.048 27.6718 131.138 27.7675C131.234 27.8707 131.391 27.9147 131.521 27.8756C131.693 27.8244 131.742 27.6674 131.742 27.1778C131.742 26.8305 131.697 26.5477 131.642 26.5495C131.586 26.5513 131.314 26.6618 131.036 26.7949ZM130.994 27.1746C130.994 27.2898 131.042 27.384 131.1 27.384C131.158 27.384 131.205 27.2898 131.205 27.1746C131.205 27.0594 131.158 26.9651 131.1 26.9651C131.042 26.9651 130.994 27.0594 130.994 27.1746ZM140.968 27.8171C140.839 27.8732 140.681 27.8934 140.617 27.8621C140.503 27.8075 140.293 28.2246 140.394 28.3035C140.462 28.3567 141.239 28.0363 141.334 27.9156C141.454 27.7643 141.228 27.7035 140.968 27.8171ZM129.415 27.9779C129.255 28.1022 129.321 29.2671 129.507 29.6144C129.871 30.2925 131.614 31.1474 133.286 31.4676C134.965 31.7891 138.064 31.702 139.595 31.2904C140.47 31.0553 141.408 30.7041 141.408 30.6117C141.408 30.5644 141.467 30.5257 141.541 30.5257C141.778 30.5257 142.229 30.1678 142.493 29.7706C142.675 29.4955 142.75 29.1669 142.75 28.6449C142.75 28.2394 142.705 27.9081 142.649 27.9088C142.594 27.9095 142.43 28.1026 142.286 28.338C141.73 29.242 140.071 30.0661 138.173 30.3807C136.784 30.611 134.133 30.5292 133.028 30.2221C131.517 29.8018 130.126 28.9936 129.732 28.3066C129.606 28.0876 129.464 27.9398 129.415 27.9779ZM191.682 28.6324C191.022 28.7628 189.979 29.1654 189.299 29.5524C188.354 30.09 186.91 31.5267 186.251 32.5855C185.934 33.0941 185.62 33.5938 185.554 33.6959C185.488 33.798 185.331 34.3484 185.206 34.9192C184.829 36.6459 185.204 37.9719 186.305 38.7969L186.792 39.1616L186.575 38.6921C186.273 38.0395 186.187 36.8254 186.363 35.7074C186.628 34.0231 187.909 32.0911 189.733 30.6268C190.686 29.8615 192.299 28.9894 192.95 28.8878C193.46 28.8082 193.487 28.6412 192.99 28.6392C192.787 28.6385 192.501 28.6187 192.353 28.5953C192.205 28.572 191.903 28.5886 191.682 28.6324ZM131.676 28.7471C131.723 28.8056 131.817 28.8264 131.886 28.7932C132.072 28.7035 132.037 28.6407 131.801 28.6407C131.686 28.6407 131.63 28.6885 131.676 28.7471ZM126.641 29.8973C125.303 30.2401 122.418 31.2095 121.309 31.6891C117.264 33.4383 114.575 35.8041 113.758 38.3336C113.286 39.7965 113.432 40.7541 114.352 42.2114C116.351 45.3799 122.243 48.0661 129.259 49.0077C131.603 49.3223 133.149 49.4119 136.172 49.4084C139.702 49.4042 141.173 49.2987 143.978 48.849C146.201 48.4927 146.899 48.341 148.657 47.832C151.608 46.9776 154.031 45.8513 155.862 44.4826C158.071 42.831 158.988 41.4207 158.992 39.6677C158.994 38.6401 158.783 37.9471 158.186 37.0184C156.715 34.7318 154.246 32.9865 150.335 31.467C148.545 30.7716 144.905 29.6879 144.36 29.6879C144.282 29.6879 144.226 30.0681 144.224 30.6042C144.22 31.7726 143.987 32.1845 142.921 32.91L142.11 33.4616L142.179 34.1304C142.291 35.2158 142.161 35.5113 141.277 36.1863C140.334 36.9056 139.245 37.2643 137.45 37.446C134.744 37.72 132.181 37.2128 130.764 36.1231C130.037 35.5637 129.817 35.0065 129.944 34.043L130.031 33.3795L129.443 33.0333C128.204 32.3027 127.816 31.6705 127.862 30.4523C127.878 30.0304 127.866 29.6672 127.836 29.6452C127.807 29.6231 127.269 29.7366 126.641 29.8973ZM193.953 29.689C192.066 29.8975 189.243 31.9945 188.314 33.8767C188.186 34.1359 188.04 34.3951 187.989 34.4527C187.611 34.8783 187.393 37.1215 187.626 38.1821C187.848 39.1893 188.913 40.0073 189.969 39.9809C190.617 39.9647 191.792 39.5716 192.276 39.2092L192.602 38.9652L192.209 38.8393C191.864 38.7289 191.804 38.7372 191.723 38.9063C191.523 39.3194 190.694 39.4436 190.001 39.164C189.48 38.9538 188.93 38.3055 188.93 37.9017C188.93 37.7231 188.889 37.5451 188.839 37.5063C188.679 37.3816 188.808 36.1746 189.065 35.3907C189.663 33.5667 191.425 31.7274 193.352 30.9157C194.447 30.4541 195.511 30.5681 196.165 31.2169C196.452 31.5016 196.439 31.8837 196.131 32.1874C196.019 32.2973 196.078 32.3888 196.384 32.5804L196.783 32.8301L196.965 32.4895C197.176 32.0951 197.086 31.1898 196.792 30.7523C196.601 30.4673 195.812 29.7963 195.659 29.788C195.613 29.7855 195.333 29.7486 195.038 29.706C194.742 29.6634 194.254 29.6557 193.953 29.689ZM129.057 31.0021C129.057 31.0338 129.146 31.1937 129.255 31.3575C129.657 31.9644 131.64 32.8705 133.286 33.1995C134.715 33.4851 137.64 33.4633 139.044 33.1566C140.857 32.7607 142.738 31.8919 143.014 31.3232C143.174 30.9929 143.026 30.8993 142.732 31.1455C142.358 31.4583 140.146 32.2594 139.126 32.4515C136.052 33.0302 132.319 32.5989 130.028 31.4007C129.137 30.9345 129.057 30.9018 129.057 31.0021ZM194.687 31.4996C194.628 31.791 194.662 31.9946 194.773 32.0105C194.963 32.0377 195.021 31.6753 194.849 31.5408C194.768 31.4778 194.695 31.4592 194.687 31.4996ZM193.158 31.9918C193.113 32.0494 193.139 32.0965 193.217 32.0965C193.296 32.0965 193.36 32.0494 193.36 31.9918C193.36 31.9342 193.333 31.887 193.3 31.887C193.268 31.887 193.204 31.9342 193.158 31.9918ZM193.695 32.7798C193.621 32.7932 193.3 32.8657 192.98 32.941C192.487 33.0572 192.379 33.0552 192.267 32.9274C192.169 32.8167 192.157 32.8404 192.221 33.017C192.287 33.2011 192.191 33.3568 191.809 33.6867C191.051 34.3417 190.541 35.3078 190.541 36.0889C190.541 36.7071 190.566 36.7558 191.127 37.2237L191.713 37.7126L191.881 36.831C192.163 35.3547 193.17 34.0494 194.578 33.3381C195.02 33.1146 195.19 32.9749 195.076 32.9282C194.881 32.8482 193.9 32.7427 193.695 32.7798ZM140.542 33.8638C138.771 34.5311 134.93 34.678 132.749 34.1616C132.158 34.0217 131.56 33.8689 131.419 33.822C131.177 33.7418 131.167 33.7746 131.249 34.3876C131.357 35.1919 131.472 35.3643 132.107 35.6739C133.482 36.3437 135.344 36.6049 137.348 36.4092C139.935 36.1566 141.214 35.2994 140.983 33.9727C140.94 33.7245 140.923 33.7202 140.542 33.8638ZM195.105 34.1322C194.509 34.4403 194.137 34.78 193.635 35.4747C193.165 36.1246 192.817 37.4498 193.043 37.7307C193.122 37.8285 194.086 38.3095 195.186 38.7996C197.549 39.8526 198.219 40.2045 199.014 40.8091C200.844 42.2003 201.537 43.614 201.672 46.2309L201.75 47.7464L202.421 47.9542C203.402 48.2581 206.08 48.2626 206.851 47.9618L207.388 47.7523L207.387 45.5532C207.385 43.4482 207.369 43.3115 207.007 42.3592C206.274 40.4317 204.497 38.276 202.637 37.0597C201.624 36.3974 196.185 33.872 195.795 33.8829C195.674 33.8863 195.363 33.9984 195.105 34.1322ZM84.2213 36.6898C83.904 36.7617 83.92 36.7782 84.5297 37.0084C85.4872 37.37 86.5409 38.2516 87.1343 39.1877C87.602 39.9257 87.6491 40.0814 87.7107 41.0951L87.7778 42.1988L88.0795 41.8988C88.8163 41.1658 88.815 39.9685 88.0758 38.7681C87.179 37.3112 85.4921 36.4017 84.2213 36.6898ZM83.4906 37.95C83.4498 38.0016 83.0385 38.1949 82.5766 38.3798C81.0892 38.9748 79.1408 39.9677 78.3109 40.5535C76.1489 42.0797 74.4623 44.5906 74.0244 46.9347C73.9471 47.3488 73.8837 48.7717 73.8837 50.0965C73.8837 52.8999 73.7774 52.7053 75.4711 52.9993C76.3291 53.1482 76.6357 53.1552 77.6152 53.0483C78.7822 52.921 79.7859 52.6153 79.796 52.3841C79.799 52.3133 79.7978 51.4307 79.7932 50.4227C79.7885 49.4148 79.8468 48.1895 79.9225 47.7C80.2298 45.7118 82.0377 43.7966 84.8147 42.5171C85.5476 42.1795 86.2575 41.8172 86.392 41.7123C87.1345 41.1331 86.041 38.8845 84.6514 38.1332C84.1369 37.8551 83.6293 37.775 83.4906 37.95ZM190.138 38.0103C190.138 38.2193 190.364 38.3029 190.451 38.126C190.491 38.0448 190.437 37.9522 190.331 37.9205C190.219 37.8872 190.138 37.9251 190.138 38.0103ZM158.598 43.6276C158.104 44.3186 155.988 45.9134 154.691 46.5729C149.631 49.1446 143.686 50.4071 136.508 50.4342C132.021 50.4511 128.318 50.0427 124.443 49.1032C120.539 48.157 116.333 46.112 114.535 44.2863C113.403 43.1366 113.487 43.191 113.579 43.6682C113.69 44.2487 114.659 45.3824 115.761 46.2219C120.587 49.8979 129.26 51.8438 138.781 51.3868C143.555 51.1577 147.485 50.4503 150.951 49.1962C154.208 48.0181 156.538 46.6819 157.863 45.2324C158.566 44.4644 159.027 43.6943 158.969 43.3877C158.934 43.2084 158.866 43.2523 158.598 43.6276ZM158.61 46.0746C158.064 46.6999 156.219 47.9951 154.929 48.6586C153.745 49.2676 151.658 50.1284 150.667 50.4167C150.411 50.4913 149.959 50.6224 149.664 50.708C146.701 51.5662 142.74 52.2069 139.059 52.423C134.821 52.6718 129.112 52.217 125.097 51.3109C122.383 50.6981 119.052 49.4945 117.213 48.4617C116.106 47.8397 114.381 46.5942 113.911 46.0768L113.626 45.7626L113.656 56.8631L113.687 67.9636L114.123 68.6832C115.276 70.5818 117.759 72.3453 121.119 73.6521C122.126 74.0438 123.312 74.4631 123.755 74.5839C125.838 75.1522 128.919 75.7019 131.608 75.9851C133.511 76.1856 139.207 76.1566 141.129 75.9366C147.896 75.1624 152.987 73.4501 156.332 70.8231C157.786 69.681 158.602 68.6129 158.844 67.5381C158.935 67.1304 158.975 63.2653 158.959 56.3133C158.945 50.4817 158.93 45.711 158.93 45.711C158.928 45.7114 158.784 45.875 158.61 46.0746ZM58.4458 48.4935C57.8182 48.8073 56.7762 49.2866 56.1301 49.5587C55.4841 49.8308 54.9555 50.087 54.9555 50.128C54.9555 50.169 55.3331 50.3442 55.7945 50.5174C56.256 50.6905 57.2074 51.1287 57.9088 51.4914L59.1841 52.1506H60.8333C61.7793 52.1506 62.5234 52.106 62.5785 52.0459C62.6312 51.9883 62.8557 51.8625 63.0772 51.7665C63.2987 51.6704 63.933 51.3903 64.4867 51.1441C65.0405 50.8979 65.8106 50.5687 66.1982 50.4125L66.9027 50.1283L65.7955 49.6325C65.1864 49.3597 64.4628 49.0254 64.1875 48.8895C63.9123 48.7537 63.6567 48.6425 63.6196 48.6425C63.5826 48.6425 63.2218 48.4775 62.8177 48.2759C62.1093 47.9224 62.0389 47.9096 60.835 47.9162L59.5869 47.9231L58.4458 48.4935ZM200.609 48.4791C200.609 48.5669 200.865 48.8469 201.179 49.1011C202.581 50.237 206.123 50.3004 208.039 49.2239C208.42 49.0095 208.876 48.4592 208.752 48.3626C208.716 48.3346 208.213 48.4897 207.635 48.7072C206.642 49.0806 206.496 49.1052 205.039 49.1453C203.307 49.193 202.167 49.0252 201.179 48.5779C200.723 48.3714 200.609 48.3515 200.609 48.4791ZM81.3428 51.2343C81.3889 51.6807 81.4441 52.0599 81.4653 52.0772C81.4865 52.0944 81.6512 52.0796 81.8314 52.0443C82.227 51.9668 82.6574 51.4384 82.5466 51.1662C82.4774 50.9961 81.5414 50.4227 81.333 50.4227C81.2922 50.4227 81.2966 50.7879 81.3428 51.2343ZM72.2728 50.7242C72.2728 50.7748 72.1067 50.8702 71.9036 50.9361C71.7005 51.002 71.463 51.1754 71.3757 51.3213C71.2414 51.5456 71.2517 51.597 71.4428 51.6536C71.5671 51.6905 71.7788 51.8291 71.9134 51.9618C72.3776 52.4195 72.5413 52.2778 72.5413 51.4176C72.5413 50.9638 72.4846 50.6322 72.407 50.6322C72.3332 50.6322 72.2728 50.6735 72.2728 50.7242ZM201.786 80.7065C201.815 104.334 201.858 110.818 201.988 110.914C202.599 111.369 205.291 111.527 206.583 111.183L207.254 111.004L207.338 110.323C207.385 109.949 207.43 96.3837 207.439 80.1783L207.456 50.7138L206.952 50.7847C205.383 51.0056 203.28 50.9613 202.018 50.6811C201.75 50.6215 201.75 50.6646 201.786 80.7065ZM54.2843 52.2391C54.2843 53.3394 54.3193 53.5558 54.5192 53.6924C54.7002 53.8161 57.0951 54.8195 57.6707 55.013C57.7279 55.0322 57.7746 54.4848 57.7746 53.7964V52.545L56.8684 52.0732C55.8991 51.5686 54.5219 50.9463 54.3741 50.9463C54.3247 50.9463 54.2843 51.528 54.2843 52.2391ZM66.6346 51.2316C66.3024 51.3803 65.517 51.745 64.8894 52.0421L63.7484 52.5823L63.7376 53.7802C63.7317 54.4391 63.7473 55.0095 63.7723 55.0479C63.8116 55.1087 64.2464 54.9533 65.2302 54.527C65.375 54.4641 65.8922 54.27 66.3795 54.0954L67.2655 53.7781L67.352 52.9119C67.4677 51.753 67.4625 50.9447 67.3394 50.9539C67.2839 50.958 66.9669 51.083 66.6346 51.2316ZM71.6016 51.4699C71.6016 51.5275 71.6958 51.5747 71.8109 51.5747C71.9259 51.5747 71.9828 51.5275 71.9372 51.4699C71.8915 51.4123 71.7974 51.3652 71.7279 51.3652C71.6584 51.3652 71.6016 51.4123 71.6016 51.4699ZM81.9383 51.627C81.9383 51.7134 81.9987 51.7841 82.0725 51.7841C82.1463 51.7841 82.2067 51.7134 82.2067 51.627C82.2067 51.5406 82.1463 51.4699 82.0725 51.4699C81.9987 51.4699 81.9383 51.5406 81.9383 51.627ZM83.4149 52.1542C83.4149 52.4325 81.804 53.591 80.9751 53.9087C79.8493 54.3401 78.4812 54.544 76.7028 54.5454C74.1146 54.5474 72.2923 53.9526 70.9304 52.6612C70.6719 52.4162 70.4094 52.2128 70.3469 52.2094C70.2845 52.2058 70.2618 52.5291 70.2966 52.9277C70.36 53.6543 70.5694 54.019 71.1508 54.4149C71.5655 54.6973 72.9115 55.2399 73.1973 55.2399C73.3446 55.2399 73.4983 55.2818 73.539 55.3331C73.6148 55.4288 73.8134 55.4632 75.4275 55.6603C77.3407 55.8938 79.887 55.5797 81.5676 54.903C82.7299 54.435 83.3318 53.9716 83.5411 53.3839C83.7199 52.8818 83.7244 52.1304 83.5492 52.0459C83.4753 52.0103 83.4149 52.059 83.4149 52.1542ZM80.7301 53.0469C80.7301 53.1079 80.7905 53.1287 80.8643 53.0931C80.9382 53.0575 80.9986 53.0077 80.9986 52.9822C80.9986 52.9568 80.9382 52.936 80.8643 52.936C80.7905 52.936 80.7301 52.986 80.7301 53.0469ZM58.8485 54.3022V55.459L59.5533 55.7149C60.4228 56.0308 61.3484 56.0509 62.0556 55.7694C62.5552 55.5705 62.5691 55.5493 62.6534 54.8531C62.7009 54.4611 62.7401 53.9164 62.7406 53.6429L62.7416 53.1455H60.795H58.8485V54.3022ZM85.0258 54.7059C85.0258 55.5268 84.988 55.6643 84.6463 56.0846C84.4376 56.3414 83.9543 56.7555 83.5724 57.005L82.878 57.4585V58.3965C82.878 59.4394 82.7528 59.7158 82.0504 60.2239C80.6662 61.2253 78.5206 61.6695 75.8247 61.5128C73.919 61.4021 72.1815 60.8009 71.3119 59.9513C70.8371 59.4875 70.633 58.699 70.793 57.9468C70.8945 57.4698 70.8787 57.3712 70.6863 57.282C70.5621 57.2244 70.1479 56.9344 69.7657 56.6377C69.0014 56.0442 68.7845 55.6257 68.7833 54.7425C68.7826 54.2654 68.6297 54.0203 68.4916 54.2753C68.4176 54.4121 67.1482 54.9838 65.9054 55.44C64.8576 55.8248 64.747 55.8924 64.8304 56.0976C64.9755 56.4543 64.9048 57.5764 64.7318 57.6598C64.6253 57.7111 64.5732 58.2859 64.5653 59.498C64.5555 61.0183 64.5862 61.2971 64.7888 61.5204C65.3222 62.1084 64.9449 63.2821 64.0182 63.9168C61.9992 65.2996 58.3552 65.0684 57.1867 63.4834C56.6925 62.8126 56.6478 62.4731 56.9622 61.7754C57.1867 61.2767 57.2376 60.9073 57.2376 59.7728C57.2376 58.9928 57.1833 58.3815 57.1137 58.3815C56.9251 58.3815 55.8657 59.3923 55.1928 60.2142C54.229 61.3917 53.825 62.4538 53.8222 63.8178C53.8187 65.4861 54.5883 66.7719 56.5316 68.3443C57.9107 69.4604 59.0592 70.09 61.332 70.976C64.0771 72.046 67.6032 72.8734 70.8999 73.2211C73.0889 73.4519 79.7375 73.4813 81.6698 73.2688C84.9764 72.9051 88.0157 72.2892 90.3955 71.5005C93.0192 70.631 94.8495 69.7313 96.5843 68.4582C100.71 65.4301 100.579 61.714 96.2257 58.3488C93.7347 56.4229 90.8243 55.1662 86.4689 54.1355L85.0258 53.7941V54.7059ZM69.8564 54.986C69.8564 55.2643 70.5435 55.8691 71.3246 56.2783C72.9907 57.1513 74.8517 57.4986 77.3925 57.4109C79.2032 57.3484 80.7055 57.0879 81.8384 56.64C82.586 56.3445 83.8177 55.4438 83.8177 55.1926C83.8177 54.9697 83.7202 54.9877 83.2474 55.298C81.1013 56.7068 75.9892 57.1389 72.7287 56.1873C71.8311 55.9253 71.59 55.8196 70.6289 55.2669C70.0836 54.9534 69.8564 54.8708 69.8564 54.986ZM58.2173 56.7257C58.3055 57.2382 58.5996 57.4492 59.5643 57.6923C61.2978 58.1291 63.3494 57.6465 63.6039 56.742C63.7202 56.3294 63.5398 56.2318 63.1266 56.4836C62.9517 56.5901 62.4109 56.7546 61.9247 56.8493C60.8873 57.0512 60.0532 56.9686 58.8742 56.5476L58.1417 56.286L58.2173 56.7257ZM72.0359 58.4172C72.0738 58.7857 72.2073 59.2038 72.3359 59.3568C72.6038 59.6759 73.657 60.0911 74.774 60.3181C76.4091 60.6503 79.0684 60.462 80.4155 59.9185C81.0443 59.6649 81.6666 59.0535 81.6907 58.6659C81.7135 58.2972 81.6714 57.8242 81.6115 57.7775C81.5906 57.7613 81.3065 57.8372 80.9802 57.9463C79.1386 58.5622 76.2787 58.6693 73.9012 58.2116C73.1162 58.0605 72.4167 57.8955 72.3466 57.8451C72.0524 57.6331 71.9706 57.7835 72.0359 58.4172ZM58.4458 60.4251C58.4458 61.8381 58.3959 62.5309 58.2839 62.6707C58.1501 62.838 58.1674 62.9119 58.3846 63.0992C59.452 64.02 62.0146 64.0324 63.1149 63.1224C63.4317 62.8603 63.5219 62.7184 63.4212 62.6398C63.3301 62.5687 63.2785 61.7821 63.2785 60.4651V58.4017L62.6058 58.601C61.6856 58.8738 60.1577 58.8693 59.2192 58.5911C58.8307 58.4759 58.4979 58.3816 58.4794 58.3816C58.4608 58.3815 58.4458 59.3011 58.4458 60.4251ZM53.7582 67.5447C53.7446 68.1189 54.7584 69.3445 56.0749 70.3457C57.0077 71.0548 59.4067 72.3703 60.6608 72.8602C61.6061 73.2295 63.4253 73.8049 64.6819 74.1322C67.1947 74.7866 71.6671 75.3747 75.0919 75.5009C76.9124 75.568 80.544 75.4344 81.9322 75.2492C82.3417 75.1946 83.2807 75.0717 84.019 74.9761C86.6456 74.636 87.4948 74.4516 90.3284 73.6066C93.2846 72.725 95.3439 71.7052 97.3794 70.1145C98.2095 69.4659 98.8099 68.8899 99.091 68.4725C99.5226 67.8318 99.6449 67.3876 99.3898 67.3876C99.316 67.3876 99.2556 67.4397 99.2556 67.5034C99.2556 67.6382 98.619 68.2902 97.8482 68.9451C96.1192 70.4139 92.1718 72.2347 89.095 72.9826C87.63 73.3387 84.3815 73.9524 82.9679 74.14C76.9585 74.9377 69.0394 74.399 63.4128 72.8097C59.4309 71.685 55.5762 69.5405 53.923 67.5297C53.7695 67.343 53.7629 67.3435 53.7582 67.5447ZM99.1393 70.1365C98.1357 71.26 95.6495 72.7667 93.2326 73.7161C90.1114 74.9423 86.9918 75.6711 82.4081 76.2446C80.6119 76.4695 74.9045 76.5644 72.9019 76.4028C66.5886 75.8937 61.7648 74.698 57.7814 72.6548C57.1077 72.3092 56.0513 71.6081 55.224 70.9572L53.8144 69.8485L53.8815 80.8497L53.9487 91.851L54.4455 92.6351C55.2728 93.941 56.9826 95.3375 59.206 96.5237C60.4739 97.2 63.6231 98.338 65.357 98.7462C67.4539 99.2399 68.2007 99.3707 70.4432 99.6367C80.689 100.852 91.2226 98.9652 96.5227 94.9649C97.8415 93.9695 98.5807 93.2058 99.1147 92.2871L99.5172 91.5947L99.5541 80.6431C99.5745 74.6196 99.5789 69.6915 99.564 69.6915C99.5491 69.6915 99.358 69.8918 99.1393 70.1365ZM158.655 70.2391C158.446 70.485 157.724 71.1173 157.05 71.6441C154.119 73.9337 149.534 75.661 144.025 76.5518C140.713 77.0874 135.237 77.2782 131.877 76.9751C125.782 76.4255 120.852 75.0884 117.472 73.0684C116.378 72.4148 114.408 70.9342 113.958 70.4274C113.75 70.1934 113.552 70.0237 113.517 70.0504C113.483 70.0771 113.549 70.3134 113.663 70.5754C114.014 71.3781 115.478 72.6919 117.311 73.8479C119.965 75.5218 124.348 76.9356 128.762 77.5419C131.599 77.9316 132.771 78.0088 135.904 78.0128C140.1 78.0182 142.956 77.7489 146.442 77.02C151.457 75.9711 156.166 73.7343 158.105 71.4793C158.675 70.8165 159.203 69.9248 159.082 69.8301C159.055 69.8091 158.863 69.9932 158.655 70.2391ZM158.341 72.8845C155.741 75.2161 150.361 77.426 145.234 78.269C144.495 78.3904 143.619 78.536 143.287 78.5927C140.932 78.9942 134.905 79.1598 131.809 78.9081C127.684 78.5727 123.894 77.7703 120.667 76.5492C118.236 75.6292 116.618 74.7627 114.996 73.5122L113.62 72.4515V85.2671V98.0827L114.017 98.7081C115.588 101.177 119.643 103.5 124.695 104.825C125.354 104.997 128.036 105.563 128.588 105.646C128.809 105.679 129.56 105.803 130.256 105.92C130.952 106.038 131.572 106.134 131.632 106.134C131.693 106.134 131.742 105.343 131.742 104.375V102.615L132.187 102.279C132.815 101.804 133.262 101.736 135.769 101.736C138.392 101.737 138.74 101.821 139.232 102.574C139.518 103.011 139.538 103.157 139.505 104.585C139.486 105.431 139.504 106.15 139.545 106.182C139.626 106.246 142.579 105.918 144.294 105.655C147.638 105.142 151.11 104.071 153.886 102.697C156.28 101.511 158.292 99.7392 158.84 98.3328C158.966 98.0109 158.995 94.9517 158.965 85.1369L158.926 72.36L158.341 72.8845ZM152.183 89.789C150.228 90.6481 149.314 91.1548 149.065 91.5185C148.919 91.7305 148.878 92.5935 148.869 95.6502C148.859 99.3422 148.87 99.5241 149.12 99.7404C149.581 100.139 150.957 100.794 151.333 100.794C151.789 100.794 155.172 99.2276 155.986 98.6396L156.577 98.2134V94.177V90.1407L156.229 89.8691C155.783 89.5209 154.611 89.0645 154.168 89.0662C153.979 89.0669 153.086 89.3922 152.183 89.789ZM152.953 90.5915C151.093 91.3565 150.305 91.7797 150.131 92.1063C150.038 92.2824 150.002 93.5672 150.027 95.8428L150.066 99.311L150.388 99.5779C150.565 99.7247 150.758 99.8212 150.818 99.7924C150.878 99.7636 150.923 98.0402 150.918 95.9624C150.911 92.9055 150.944 92.1593 151.092 92.0511C151.363 91.8527 154.673 90.3216 154.831 90.3216C155.044 90.3216 154.989 90.1413 154.754 90.071C154.439 89.9765 154.47 89.9673 152.953 90.5915ZM154.027 91.629C153.399 91.9344 152.656 92.2944 152.376 92.4291L151.866 92.6739L151.891 96.1054C151.905 97.9928 151.943 99.5371 151.976 99.5371C152.079 99.5371 154.497 98.3363 154.939 98.0657L155.359 97.8092L155.397 94.4318C155.423 92.2254 155.39 91.0579 155.302 91.0641C155.228 91.0695 154.654 91.3236 154.027 91.629ZM160.584 95.3677C160.639 98.8186 160.531 99.9825 160.05 101.125C159.637 102.105 158.948 103.203 158.276 103.95L157.651 104.645V110.571V116.497L158.087 116.682C158.701 116.943 160.76 116.944 161.372 116.684C161.61 116.583 161.86 116.418 161.927 116.318C161.998 116.212 162.077 111.287 162.114 104.668L162.178 93.2014L161.434 92.6516C161.025 92.3492 160.655 92.1018 160.611 92.1018C160.568 92.1018 160.556 93.5715 160.584 95.3677ZM111.164 92.8613L110.387 93.4109L110.426 105.506L110.465 117.601L111.069 117.839C111.906 118.169 113.717 118.132 114.466 117.771L114.962 117.532V111.103V104.674L114.164 103.751C113.337 102.795 112.546 101.643 112.546 101.396C112.546 101.318 112.495 101.21 112.433 101.155C112.062 100.828 111.952 99.723 111.983 96.6049C112.001 94.8482 112.051 93.1635 112.094 92.8611C112.138 92.5586 112.122 92.3114 112.058 92.3115C111.994 92.3116 111.592 92.5589 111.164 92.8613ZM99.0678 94.2065C98.1047 95.3668 95.5083 97.0552 93.0804 98.0999C90.3923 99.2565 86.3212 100.236 82.0725 100.748C80.1796 100.976 74.912 101.068 72.947 100.908C71.1815 100.764 67.9586 100.301 65.9634 99.9048C62.8801 99.293 59.1831 97.8784 57.1034 96.5146C55.7255 95.611 55.3198 95.2971 54.5132 94.5104C54.0703 94.0785 53.747 93.8311 53.7947 93.9606C53.8425 94.0902 53.9191 94.2986 53.965 94.4236C54.3714 95.5307 57.227 97.7143 59.6581 98.7769C63.3725 100.4 66.2648 101.088 72.0714 101.73C73.7516 101.916 77.6095 101.977 79.5061 101.849C88.6131 101.231 95.7636 98.7565 98.8221 95.1627C99.3087 94.5909 99.7642 93.7204 99.6312 93.6166C99.6066 93.5974 99.353 93.8628 99.0678 94.2065ZM99.3898 96.1763C99.3898 96.5864 96.9063 98.3361 94.9598 99.2975C90.2596 101.619 83.7986 102.89 76.7079 102.887C69.7706 102.885 64.0347 101.823 59.1659 99.6399C58.3638 99.2803 57.4672 98.839 57.1734 98.6594C56.1959 98.0615 54.7595 97.0188 54.3229 96.59L53.8918 96.1666L53.8875 108.97C53.8845 117.906 53.9276 121.902 54.0299 122.201C54.1106 122.436 54.4534 122.954 54.7917 123.351C57.438 126.463 62.9918 128.816 69.8829 129.745C70.9681 129.891 71.8852 130.011 71.9211 130.011C71.9569 130.011 72.0054 129.23 72.0289 128.275L72.0714 126.539L72.5587 126.19C72.9925 125.881 73.1612 125.834 74.0951 125.766C74.6722 125.723 75.9135 125.713 76.8536 125.743C78.3325 125.79 78.6187 125.828 78.9773 126.027C79.7069 126.433 79.7904 126.687 79.7904 128.502V130.145L80.8308 130.071C83.0984 129.911 86.3445 129.386 88.5833 128.817C90.3381 128.371 90.1688 128.426 92.2749 127.613C96.0274 126.165 98.7621 124.166 99.3832 122.419C99.5548 121.936 99.6602 96.0812 99.4905 96.0812C99.435 96.0812 99.3898 96.1241 99.3898 96.1763ZM113.492 100.199C113.488 100.247 113.807 100.812 114.201 101.456C115.637 103.805 118.35 105.904 121.867 107.387C123.709 108.164 126.954 109.094 129.057 109.447C132.069 109.952 131.742 110.075 131.742 108.438C131.742 107.69 131.691 107.077 131.628 107.077C131.48 107.077 127.962 106.586 127.178 106.455C125.316 106.146 121.596 105.092 120.066 104.441C117.748 103.453 115.065 101.744 113.85 100.48C113.656 100.278 113.495 100.152 113.492 100.199ZM158.345 101.032C157.226 102.176 154.471 103.769 151.957 104.724C149.953 105.486 146.919 106.285 144.633 106.653C143.616 106.816 140.347 107.181 139.898 107.182C139.531 107.182 139.528 107.188 139.501 107.941C139.486 108.358 139.474 108.983 139.474 109.329V109.957L140.072 109.929C142.626 109.809 147.34 108.801 149.731 107.865C153.14 106.529 154.941 105.389 157.013 103.255C157.728 102.518 158.961 100.733 158.826 100.628C158.799 100.607 158.582 100.789 158.345 101.032ZM134.027 102.757C133.016 102.826 132.8 103.161 133.454 103.647C134.242 104.233 136.303 104.307 137.433 103.79C138.329 103.381 138.422 102.867 137.624 102.743C137.198 102.676 135.078 102.684 134.027 102.757ZM176.781 103.1C172.433 103.429 168.854 104.876 167.738 106.757C167.269 107.546 167.26 108.686 167.716 109.381C168.206 110.127 169.558 111.07 170.935 111.624C173.095 112.494 174.704 112.8 177.653 112.902C180.505 113 182.526 112.734 185.442 111.876C186.345 111.611 187.967 110.737 188.693 110.126C189.272 109.638 189.471 109.374 189.661 108.848C190.107 107.608 189.752 106.676 188.416 105.584C187.503 104.837 186.545 104.372 184.895 103.875C182.636 103.195 179.494 102.895 176.781 103.1ZM176.29 103.991C173.597 104.346 171.644 104.987 170.326 105.949C168.318 107.414 168.509 108.969 170.863 110.313C172.511 111.255 174.744 111.745 177.922 111.861C180.408 111.952 182.905 111.618 184.733 110.95C185.046 110.836 185.339 110.742 185.383 110.742C185.593 110.742 187.064 109.848 187.417 109.505C188.297 108.651 188.511 108.038 188.193 107.289C187.759 106.271 186.113 105.174 184.129 104.582C183.09 104.272 179.921 103.772 179.602 103.868C179.483 103.903 179.402 104.352 179.334 105.346L179.236 106.773L178.612 106.742L177.989 106.71L177.953 105.401C177.923 104.322 177.877 104.07 177.692 103.962C177.569 103.89 177.434 103.836 177.393 103.843C177.351 103.85 176.855 103.917 176.29 103.991ZM133.085 116.814C133.085 128.981 133.086 129.062 133.357 129.258C134.056 129.766 136.181 129.862 137.347 129.439L138.052 129.183L138.052 120.931C138.052 116.393 138.067 110.853 138.086 108.622C138.104 106.39 138.089 104.578 138.052 104.595C137.305 104.948 136.824 105.033 135.568 105.034C134.437 105.035 134.136 104.998 133.655 104.801L133.085 104.567V116.814ZM175.326 105.137C173.573 105.501 172.77 105.761 171.525 106.367C170.733 106.752 170.163 107.224 170.372 107.322C170.427 107.347 171.627 107.428 173.039 107.503L175.606 107.638L176.223 107.227C176.815 106.831 176.839 106.793 176.842 106.239C176.845 105.578 176.717 104.875 176.595 104.884C176.55 104.888 175.979 105.001 175.326 105.137ZM180.426 105.263C180.312 105.802 180.32 106.579 180.441 106.721C180.495 106.784 180.796 106.962 181.11 107.115C181.489 107.3 181.681 107.468 181.681 107.615C181.681 107.835 181.703 107.836 184.362 107.791C185.837 107.766 187.083 107.715 187.13 107.678C187.27 107.569 186.697 106.933 186.148 106.589C184.999 105.869 182.674 105.093 181.196 104.935L180.511 104.862L180.426 105.263ZM155.168 106.462C153.296 107.691 150.871 108.789 148.135 109.647L146.71 110.094L146.672 110.652C146.651 110.959 146.575 111.256 146.504 111.311C146.295 111.475 146.348 111.547 146.845 111.776C147.138 111.911 147.314 112.072 147.314 112.206C147.314 112.444 147.976 112.803 149.865 113.592C150.493 113.854 152.153 114.591 153.554 115.23C154.955 115.869 156.148 116.355 156.206 116.31C156.264 116.265 156.296 113.872 156.276 110.992L156.242 105.757L155.168 106.462ZM116.414 106.108C116.391 106.267 116.388 108.618 116.408 111.333L116.444 116.269L116.813 116.388C117.493 116.608 118.328 117.261 118.431 117.654C118.592 118.266 118.462 118.504 117.601 119.17C116.697 119.869 115.293 120.469 114.038 120.694C113.006 120.879 111.188 120.771 110.263 120.472C109.396 120.19 108.227 119.593 107.613 119.119C107.12 118.738 106.83 118.117 106.959 117.719C107.059 117.405 107.868 116.733 108.488 116.447L108.921 116.247L108.931 113.835C108.936 112.508 108.969 110.747 109.004 109.921C109.039 109.096 109.02 108.442 108.961 108.468C108.902 108.494 107.676 109.041 106.236 109.683C104.796 110.325 103.075 111.097 102.41 111.399L101.202 111.949L101.165 113.477L101.128 115.006L102.403 115.754C103.105 116.165 103.771 116.641 103.883 116.811C104.063 117.082 104.088 118.482 104.088 128.304V139.489L104.697 139.741C105.601 140.115 106.102 140.607 106.102 141.12C106.102 141.352 106.013 141.674 105.905 141.838C105.652 142.22 104.63 142.921 103.936 143.189C103.397 143.397 103.396 143.399 103.707 143.529C104.482 143.851 112.182 147.28 113.552 147.914C116.184 149.13 116.403 149.206 117.092 149.134C117.624 149.079 117.848 149.116 118.46 149.357C119.053 149.592 119.255 149.745 119.534 150.17C119.839 150.634 119.953 150.711 120.541 150.85C120.99 150.956 121.746 151.004 122.882 150.997C124.286 150.989 124.665 150.952 125.2 150.765C125.57 150.636 125.891 150.442 125.962 150.304C126.33 149.59 127.356 149.071 128.403 149.071C129.077 149.07 129.316 149.002 130.611 148.438C131.41 148.09 132.127 147.766 132.205 147.718C132.283 147.67 132.769 147.452 133.286 147.235C134.983 146.521 135.425 146.329 136.172 145.982C137.051 145.573 139.716 144.367 141.171 143.72L142.209 143.258L142.111 142.892C142.056 142.69 142.024 142.082 142.039 141.54C142.098 139.385 143.177 137.932 145.277 137.182C145.677 137.039 146.058 136.923 146.124 136.923C146.191 136.923 146.569 136.755 146.965 136.55C147.918 136.056 148.763 135.87 150.069 135.865C150.856 135.863 151.314 135.918 151.775 136.072C152.638 136.361 153.223 136.433 153.659 136.304C153.982 136.208 154.027 136.139 154.027 135.74C154.027 134.583 154.895 133.506 156.329 132.887C157.004 132.595 157.14 132.576 158.609 132.567C160.352 132.557 159.912 132.683 162.887 131.341L164.162 130.765L164.244 129.786C164.289 129.247 164.372 128.674 164.428 128.512C164.515 128.265 164.485 128.209 164.244 128.159C163.977 128.105 163.896 127.975 163.798 127.445C163.757 127.226 162.288 126.512 157.383 124.33C156.017 123.722 154.386 122.99 153.758 122.704C144.97 118.695 143.948 118.258 143.522 118.324C143.177 118.378 142.894 118.269 141.558 117.565C140.7 117.112 139.877 116.693 139.73 116.632C139.463 116.523 139.461 116.552 139.492 122.036C139.508 125.069 139.523 127.668 139.525 127.812C139.528 128.015 139.666 128.131 140.139 128.327C141.037 128.698 141.408 129.089 141.408 129.662C141.408 130.282 141.092 130.617 139.884 131.28C138.572 132.001 137.962 132.2 136.656 132.331C134.548 132.543 132.753 132.202 131.183 131.29C130.019 130.614 129.594 130.151 129.594 129.557C129.594 129.227 130.256 128.649 131.053 128.283L131.737 127.969L131.74 120.979C131.742 114.205 131.734 113.989 131.49 113.989C131.123 113.989 129.537 113.507 128.484 113.076C126.898 112.426 125.836 111.273 125.836 110.2C125.836 110.034 125.762 109.904 125.668 109.903C125.303 109.899 121.767 108.647 120.647 108.124C119.347 107.517 117.52 106.512 116.948 106.089C116.494 105.754 116.466 105.755 116.414 106.108ZM163.558 110.989V115.111L164.263 115.521C165.69 116.35 165.788 117.089 164.591 117.999C164.21 118.288 163.52 118.664 163.057 118.832C162.594 119.002 162.215 119.158 162.215 119.181C162.215 119.203 162.412 119.291 162.652 119.376C162.892 119.46 163.37 119.661 163.715 119.822C164.06 119.983 165.242 120.521 166.343 121.018C168.202 121.856 168.407 121.924 169.223 121.964L170.102 122.008L170.163 120.694C170.201 119.865 170.294 119.267 170.415 119.071C170.653 118.685 171.909 117.888 172.887 117.502C173.434 117.286 173.626 117.152 173.627 116.987C173.63 116.097 174.564 115.234 175.666 115.105C175.936 115.073 175.98 115 176.016 114.536L176.056 114.003L175.411 113.932C174.246 113.803 172.28 113.368 171.173 112.994C169.675 112.487 168.537 111.886 167.602 111.106C166.67 110.329 166.121 109.487 165.929 108.542L165.791 107.86L164.75 107.364C164.178 107.091 163.676 106.868 163.634 106.868C163.592 106.868 163.558 108.722 163.558 110.989ZM177.263 107.623C176.802 107.816 176.412 108.266 176.412 108.606C176.412 108.994 176.934 109.334 177.852 109.542C178.707 109.736 179.36 109.674 180.142 109.325C181.15 108.876 181.215 108.298 180.314 107.796C179.944 107.59 179.675 107.543 178.727 107.518C177.986 107.499 177.473 107.536 177.263 107.623ZM170.001 108.286C170.001 108.358 170.13 108.487 170.785 109.067C171.305 109.527 173.039 110.323 173.523 110.323C173.645 110.323 173.782 110.37 173.827 110.428C173.981 110.622 174.713 110.536 175.158 110.271C175.4 110.127 175.674 110.009 175.767 110.009C175.878 110.009 175.902 109.945 175.836 109.826C175.78 109.725 175.632 109.407 175.506 109.119L175.277 108.596L173.008 108.419C170.51 108.224 170.001 108.201 170.001 108.286ZM170.538 108.518C170.538 108.649 171.2 108.73 172.888 108.806C173.626 108.839 174.472 108.884 174.767 108.906L175.304 108.947L174.767 108.812C174.472 108.738 173.535 108.644 172.686 108.603C171.837 108.561 171.007 108.503 170.84 108.472C170.674 108.441 170.538 108.462 170.538 108.518ZM180.145 108.678C180.196 108.782 180.271 108.84 180.312 108.808C180.354 108.775 180.312 108.691 180.221 108.62C180.088 108.517 180.073 108.529 180.145 108.678ZM185.171 108.757C184.322 108.797 183.25 108.836 182.788 108.843C182.175 108.854 181.949 108.896 181.949 109.001C181.949 109.11 182.158 109.139 182.822 109.122C183.302 109.11 183.694 109.14 183.694 109.188C183.694 109.237 183.309 109.276 182.837 109.276C182.086 109.276 181.954 109.307 181.774 109.522C181.331 110.049 180.754 110.4 180.22 110.466C179.586 110.545 179.476 110.642 179.722 110.904C179.883 111.076 179.963 111.083 180.438 110.972C180.733 110.903 181.103 110.847 181.262 110.847C181.42 110.847 181.655 110.804 181.783 110.752C181.911 110.7 182.288 110.601 182.62 110.531C183.524 110.341 183.972 110.222 184.95 109.915C185.288 109.809 185.311 109.773 185.151 109.614C184.988 109.452 184.993 109.448 185.199 109.573C185.457 109.731 185.559 109.692 186.426 109.096C186.898 108.772 187.028 108.628 186.815 108.666C186.76 108.676 186.02 108.717 185.171 108.757ZM127.178 110.507C127.178 110.729 127.574 111.171 128.118 111.555C128.551 111.861 130.74 112.715 131.306 112.798L131.742 112.863V111.972V111.08L131.163 111.012C130.602 110.947 128.095 110.508 127.48 110.368C127.239 110.313 127.178 110.341 127.178 110.507ZM144.831 110.505C144.273 110.655 141.655 111.038 140.602 111.124C139.334 111.228 139.394 111.183 139.394 112.015V112.761L140.032 112.702C141.919 112.527 145.001 111.363 145.42 110.667C145.602 110.364 145.481 110.33 144.831 110.505ZM176.428 110.528C176.308 110.632 176.127 110.739 176.026 110.767C175.683 110.862 176.017 110.97 176.834 111.028C177.533 111.077 177.661 111.059 177.74 110.897C177.803 110.769 177.735 110.648 177.527 110.516C177.148 110.277 176.715 110.282 176.428 110.528ZM200.743 111.639C200.743 111.73 201.018 112.009 201.355 112.261C202.21 112.9 203.439 113.195 204.954 113.125C206.715 113.043 208.002 112.588 208.472 111.879C208.744 111.468 208.646 111.402 208.171 111.676C206.675 112.537 202.641 112.543 201.244 111.685C200.832 111.432 200.743 111.424 200.743 111.639ZM144.428 112.585C143.349 113.057 141.837 113.509 140.569 113.738L139.528 113.927V114.574V115.221L140.475 115.66C140.995 115.901 141.63 116.241 141.884 116.416L142.347 116.733L142.351 116.382C142.355 115.891 142.575 115.199 142.907 114.631C143.371 113.836 144.818 112.843 145.905 112.574C146.17 112.508 146.17 112.506 145.913 112.358C145.551 112.151 145.352 112.181 144.428 112.585ZM92.4778 113.823C91.4449 114.312 90.3122 114.905 89.9607 115.142L89.3216 115.571V119.489V123.406L89.7196 123.76C90.1557 124.147 91.5511 124.775 91.9763 124.775C92.2603 124.775 94.6945 123.65 95.8424 122.989C96.2187 122.772 96.6875 122.445 96.8842 122.263L97.2419 121.931L97.2261 118.248C97.2174 116.222 97.1717 114.425 97.1249 114.254C97.0622 114.026 96.8146 113.821 96.196 113.484C94.8605 112.757 94.6994 112.772 92.4778 113.823ZM145.654 113.781C144.603 114.301 144.018 114.922 143.693 115.865C143.525 116.35 143.609 117.026 143.836 117.026C143.91 117.026 144.738 117.387 145.676 117.828C146.614 118.269 148.56 119.157 149.999 119.802C151.439 120.446 153.191 121.233 153.892 121.551C154.594 121.869 156.406 122.683 157.92 123.36C159.433 124.038 160.853 124.678 161.074 124.782C161.296 124.887 161.973 125.189 162.579 125.453C163.185 125.717 163.718 125.98 163.763 126.036C163.881 126.186 164.095 126.052 164.095 125.828C164.095 125.723 164.333 125.266 164.624 124.812C165.031 124.178 165.372 123.829 166.092 123.313L167.03 122.64L166.536 122.36C166.264 122.206 164.531 121.406 162.685 120.583C160.839 119.761 158.393 118.654 157.248 118.125C155.09 117.128 148.902 114.364 147.546 113.792C147.12 113.612 146.664 113.465 146.532 113.465C146.401 113.465 146.006 113.607 145.654 113.781ZM201.683 114.318C201.683 116.569 200.3 118.457 197.75 119.689L196.703 120.195L197.084 120.376C198.061 120.839 199.535 122.864 199.535 123.741C199.535 124.039 199.727 124.223 199.86 124.054C199.902 124.002 200.193 123.855 200.507 123.728C202.778 122.811 205.052 120.967 206.085 119.204C206.957 117.717 207.267 116.711 207.406 114.928C207.495 113.789 207.488 113.747 207.242 113.826C206.017 114.218 203.253 114.168 201.918 113.729C201.708 113.66 201.683 113.724 201.683 114.318ZM94.4228 114.097C94.3121 114.149 93.4966 114.526 92.6106 114.933C91.7246 115.34 90.8939 115.771 90.7647 115.89C90.5511 116.087 90.5298 116.427 90.5298 119.635C90.5298 123.303 90.5258 123.276 91.1035 123.617C91.3304 123.751 91.3411 123.579 91.3319 119.952L91.3222 116.147L92.8163 115.434C93.638 115.042 94.3507 114.721 94.4001 114.719C94.4495 114.718 94.641 114.625 94.8256 114.512C95.0101 114.4 95.2669 114.306 95.3961 114.305C95.5252 114.304 95.631 114.261 95.631 114.209C95.631 113.998 94.7951 113.92 94.4228 114.097ZM177.203 115.319C177.221 116.406 177.251 116.553 177.472 116.62C177.883 116.747 178.708 116.72 179.181 116.566C179.696 116.399 179.797 116.117 179.8 114.853L179.801 114.093H178.492H177.183L177.203 115.319ZM95.1543 115.335C94.7151 115.557 93.9177 115.957 93.3824 116.224L92.4092 116.71V120.114C92.4092 121.986 92.4411 123.518 92.4802 123.518C92.5348 123.518 95.6646 121.92 95.8779 121.783C95.9169 121.758 96.0061 114.931 95.9672 114.931C95.9594 114.931 95.5936 115.113 95.1543 115.335ZM175.505 116.157C174.978 116.309 174.834 116.528 174.834 117.185C174.834 117.97 175.084 118.27 176.058 118.655C176.843 118.965 178.422 119.145 179.348 119.03C180.275 118.915 181.628 118.312 181.881 117.9C182.166 117.436 182.148 116.577 181.848 116.377C181.426 116.094 181.298 116.07 181.371 116.285C181.475 116.596 180.287 117.415 179.6 117.506C178.585 117.641 177.387 117.569 176.767 117.334C176.068 117.071 175.584 116.594 175.707 116.293C175.754 116.177 175.773 116.087 175.749 116.091C175.726 116.096 175.616 116.126 175.505 116.157ZM163.424 116.446C163.424 116.701 162.678 117.281 161.955 117.588C161.435 117.809 161.068 117.882 160.403 117.896C159.925 117.907 159.532 117.926 159.532 117.94C159.531 117.953 159.782 118.064 160.089 118.186C160.484 118.343 160.787 118.391 161.119 118.349C162.134 118.221 163.845 117.382 163.993 116.94C164.028 116.835 163.95 116.647 163.819 116.521C163.542 116.254 163.424 116.232 163.424 116.446ZM101.176 119.622C101.245 122.263 101.223 123.069 101.064 123.78C100.705 125.387 100.118 126.443 98.605 128.207L98.156 128.731L98.163 134.738L98.1699 140.745L98.7397 141.033C99.2176 141.274 99.4513 141.32 100.189 141.316C101.32 141.31 102.35 141.041 102.574 140.693C102.705 140.488 102.742 137.931 102.744 128.959L102.746 117.488L102.175 117.068C100.973 116.182 101.08 115.91 101.176 119.622ZM51.4987 117.01L50.794 117.516L50.796 129.235C50.7972 135.681 50.8424 141.007 50.8967 141.071C51.357 141.613 53.7215 141.778 54.7877 141.341L55.3582 141.107V134.887V128.667L54.6049 127.795C53.5384 126.559 52.9849 125.652 52.5836 124.482L52.2349 123.466L52.3055 119.984C52.3443 118.069 52.3372 116.502 52.2897 116.503C52.2423 116.503 51.8863 116.731 51.4987 117.01ZM116.439 117.565C116.439 117.839 115.74 118.369 114.941 118.703C114.192 119.015 113.943 119.063 112.881 119.099C111.877 119.133 111.54 119.101 110.888 118.909C110.057 118.665 108.826 117.859 108.982 117.661C109.104 117.508 108.745 117.519 108.545 117.675C108.048 118.063 108.844 118.766 110.497 119.4C111.197 119.668 111.405 119.696 112.68 119.696C113.984 119.696 114.156 119.671 114.986 119.364C115.971 119 117.11 118.253 117.11 117.971C117.11 117.799 116.718 117.444 116.529 117.444C116.479 117.444 116.439 117.499 116.439 117.565ZM173.199 118.413C173.102 118.485 172.763 118.681 172.446 118.849C172.129 119.017 171.82 119.224 171.759 119.308C171.614 119.511 171.745 120.408 171.934 120.505C172.063 120.572 174.327 121.371 175.606 121.801C175.846 121.881 176.239 122.014 176.479 122.096C176.719 122.178 177.053 122.276 177.221 122.314L177.528 122.383L177.49 121.208L177.452 120.034L176.754 119.894C176.371 119.818 175.652 119.612 175.158 119.438C174.664 119.263 174.238 119.12 174.212 119.12C174.185 119.12 174.163 119.208 174.163 119.315C174.163 119.595 173.653 120.062 173.348 120.062C173.045 120.062 173.012 119.929 173.273 119.76C173.374 119.694 173.494 119.464 173.539 119.249C173.584 119.034 173.659 118.729 173.706 118.57C173.771 118.352 173.742 118.282 173.584 118.282C173.47 118.282 173.297 118.341 173.199 118.413ZM183.182 118.585C183.202 118.784 183.272 118.87 183.386 118.835C183.599 118.772 183.607 118.854 183.412 119.098C183.272 119.274 183.409 119.82 183.769 120.52C183.855 120.688 183.825 120.704 183.553 120.637C183.069 120.517 182.934 120.362 182.748 119.715C182.654 119.388 182.547 119.12 182.509 119.12C182.471 119.12 182.345 119.184 182.228 119.262C181.959 119.443 179.509 120.062 179.063 120.062H178.727V121.278C178.727 122.208 178.767 122.481 178.895 122.442C180.988 121.798 183.24 121.061 183.291 121.003C183.328 120.962 183.51 120.895 183.694 120.854C183.879 120.812 184.29 120.704 184.607 120.614L185.185 120.449L185.095 119.863C185.011 119.313 184.645 118.806 184.333 118.806C184.267 118.806 184.015 118.688 183.773 118.544C183.213 118.211 183.146 118.215 183.182 118.585ZM189.085 119.101C188.949 119.173 189.01 119.226 189.33 119.313C191.129 119.802 193.794 121.961 195.07 123.964C195.667 124.901 196.179 126.03 196.179 126.409C196.179 126.54 196.231 126.672 196.294 126.703C196.473 126.789 196.566 128.482 196.437 129.287C196.373 129.685 196.224 130.155 196.106 130.333L195.892 130.656L196.289 130.427C196.507 130.301 196.768 130.074 196.868 129.922C196.969 129.769 197.085 129.621 197.127 129.592C197.17 129.563 197.312 129.328 197.443 129.068C197.894 128.18 197.672 125.701 197.035 124.492C195.812 122.176 193.629 120.199 191.346 119.34C190.679 119.089 189.367 118.95 189.085 119.101ZM186.782 119.951C186.782 120.004 186.897 120.077 187.037 120.111C188.152 120.388 190.758 122.238 191.91 123.573C193.383 125.279 194.332 127.491 194.516 129.644C194.592 130.541 194.624 130.646 194.741 130.377C194.816 130.205 194.931 130.036 194.997 130.002C195.063 129.968 195.184 129.623 195.267 129.234C195.738 127.013 194.014 123.578 191.44 121.612C190.087 120.579 188.431 119.853 187.428 119.853C187.073 119.853 186.782 119.897 186.782 119.951ZM172.082 120.167C172.128 120.225 172.252 120.272 172.359 120.272C172.465 120.272 172.552 120.225 172.552 120.167C172.552 120.11 172.428 120.062 172.276 120.062C172.124 120.062 172.037 120.11 172.082 120.167ZM195.508 120.693C195.508 120.76 195.779 121.056 196.111 121.352C196.817 121.982 198.019 123.762 198.142 124.36C198.197 124.628 198.298 124.775 198.427 124.775C198.588 124.775 198.616 124.648 198.572 124.106C198.509 123.338 197.85 122.178 197.078 121.476C196.582 121.026 195.508 120.49 195.508 120.693ZM186.648 122.006V122.914L187.299 123.504C188.652 124.731 189.612 125.995 190.372 127.55C190.887 128.605 191.073 129.315 191.205 130.725C191.354 132.328 191.139 133.475 190.522 134.369C190.019 135.098 189.913 135.213 189.343 135.64C188.57 136.219 188.907 136.22 190.022 135.642C191.606 134.821 192.423 134.003 192.981 132.681C193.263 132.015 193.214 128.893 192.908 127.969C192.387 126.396 191.802 125.364 190.724 124.119C189.647 122.874 188.218 121.797 186.815 121.172C186.687 121.115 186.648 121.309 186.648 122.006ZM171.413 122.124C171.45 122.924 171.46 122.943 171.901 123.155C172.148 123.273 172.774 123.517 173.29 123.697C173.807 123.876 174.532 124.128 174.901 124.257C175.27 124.385 175.898 124.577 176.296 124.684C176.694 124.791 177.104 124.933 177.206 124.999C177.462 125.165 177.5 125.107 177.528 124.51C177.581 123.363 177.741 123.513 175.774 122.863C175.442 122.753 174.979 122.596 174.747 122.515C174.514 122.433 174.29 122.366 174.25 122.366C174.209 122.366 173.584 122.142 172.861 121.869C172.137 121.595 171.507 121.358 171.46 121.341C171.413 121.323 171.392 121.676 171.413 122.124ZM185.238 121.402C185.164 121.454 184.832 121.579 184.5 121.678C183.866 121.869 183.396 122.026 182.285 122.42C180.86 122.926 180.645 122.993 179.703 123.226L178.732 123.466L178.73 124.277C178.728 124.724 178.781 125.089 178.847 125.089C179.017 125.089 181.563 124.294 182.687 123.891C183.204 123.705 183.899 123.473 184.231 123.374C185.364 123.037 185.458 122.933 185.412 122.068C185.386 121.569 185.326 121.34 185.238 121.402ZM186.782 121.516C186.782 121.574 186.842 121.65 186.916 121.686C186.99 121.721 187.05 121.703 187.05 121.646C187.05 121.588 186.99 121.512 186.916 121.476C186.842 121.441 186.782 121.459 186.782 121.516ZM168.618 123.041C166.986 123.495 165.564 124.905 165.137 126.491C164.842 127.589 165.362 127.307 166.321 125.849C166.921 124.937 168.066 123.982 169.241 123.414C169.657 123.212 169.999 123.012 170 122.968C170.003 122.843 169.175 122.886 168.618 123.041ZM169.681 124.183C169.044 124.554 167.265 125.921 167.342 125.981C167.381 126.012 167.683 125.947 168.012 125.836C168.342 125.726 168.949 125.577 169.361 125.505C170.172 125.364 170.27 125.244 170.27 124.401C170.27 123.951 170.154 123.908 169.681 124.183ZM171.457 124.376C171.365 125.419 171.39 125.527 171.74 125.631C172.676 125.908 174.52 126.855 175.86 127.746C176.683 128.293 177.388 128.803 177.427 128.879C177.531 129.08 177.534 127.532 177.431 126.768C177.347 126.136 177.326 126.107 176.861 125.961C176.595 125.877 176.197 125.746 175.975 125.669C175.754 125.592 174.697 125.237 173.626 124.88C172.555 124.523 171.634 124.209 171.579 124.183C171.523 124.156 171.469 124.243 171.457 124.376ZM184.829 124.23C184.631 124.36 182.885 124.925 180.741 125.554L178.794 126.125L178.758 128.097C178.715 130.421 178.764 130.549 179.617 130.348C179.903 130.28 180.711 129.967 181.412 129.651C182.113 129.336 183.276 128.832 183.996 128.532L185.305 127.987V126.067C185.305 124.135 185.257 123.949 184.829 124.23ZM186.467 124.586C186.499 125.245 186.545 128.15 186.528 128.348C186.509 128.571 185.931 128.86 182.923 130.151C180.299 131.278 179.725 131.479 179.143 131.475C178.673 131.472 178.416 131.288 177.158 130.063C174.643 127.614 171.496 126.148 169.424 126.461C169.114 126.508 168.815 126.548 168.76 126.551C168.704 126.553 168.659 126.595 168.659 126.645C168.659 126.694 169.043 126.762 169.513 126.797C171.736 126.958 174.927 128.757 176.611 130.796C178.258 132.792 178.995 134.578 178.996 136.576C178.996 137.491 178.699 138.711 178.383 139.092C178.048 139.495 178.172 139.543 178.761 139.237C179.075 139.074 179.694 138.787 180.137 138.599C180.58 138.411 181.425 138.034 182.016 137.762C182.607 137.489 183.483 137.102 183.963 136.901C185.055 136.444 185.956 136.052 186.957 135.599C187.385 135.406 187.785 135.247 187.844 135.247C188.077 135.247 189.205 134.375 189.379 134.061C189.48 133.878 189.639 133.587 189.731 133.414C189.984 132.941 190.073 130.594 189.87 129.737C189.415 127.814 188.268 125.858 186.757 124.429L186.446 124.135L186.467 124.586ZM54.3608 125.106C56.0979 128.272 60.3771 131.07 65.762 132.561C67.623 133.076 71.2101 133.781 71.9707 133.781C72.1828 133.781 72.2132 131.211 72.0023 131.11C71.9274 131.073 71.0967 130.952 70.1565 130.84C64.1225 130.121 58.5584 128.132 55.4472 125.581C54.9423 125.167 54.431 124.699 54.3107 124.54C53.8752 123.965 53.9022 124.27 54.3608 125.106ZM98.748 125.153C98.0875 125.797 96.6895 126.761 95.5152 127.383C94.5634 127.887 92.2517 128.847 91.201 129.174C90.7949 129.301 90.3419 129.445 90.1942 129.495C90.0465 129.545 89.3216 129.731 88.5833 129.907C87.8449 130.084 87.0592 130.273 86.8373 130.327C86.2551 130.468 81.9101 131.032 80.7636 131.114L79.7904 131.184V132.596V134.007L80.1595 133.95C80.3627 133.919 80.8308 133.864 81.1999 133.829C82.7977 133.674 84.5847 133.355 87.1737 132.763C87.8013 132.619 89.2817 132.13 90.4636 131.676C94.3885 130.169 97.1496 128.162 98.7833 125.631C99.13 125.093 99.3933 124.64 99.3682 124.624C99.3432 124.607 99.0641 124.845 98.748 125.153ZM199.535 126.423C199.535 126.919 199.467 127.213 199.312 127.385C199.189 127.522 199.013 128.003 198.92 128.453C198.558 130.216 197.67 131.079 195.34 131.931L194.299 132.311V132.733C194.299 132.965 194.249 133.237 194.188 133.337C194.127 133.437 193.894 133.813 193.67 134.171L193.263 134.823L193.546 134.966C193.702 135.045 194.192 135.264 194.635 135.454C196.478 136.24 200.031 137.918 200.374 138.164C200.738 138.424 200.743 138.445 200.743 139.717C200.743 140.601 200.79 141.007 200.894 141.007C200.977 141.007 201.492 140.795 202.04 140.535C202.587 140.276 203.064 140.064 203.1 140.064C203.136 140.064 203.39 139.953 203.666 139.818C203.941 139.682 204.831 139.274 205.643 138.911C206.455 138.548 207.391 138.121 207.724 137.962C208.056 137.803 209.506 137.157 210.945 136.527C215.715 134.437 217.409 133.649 217.298 133.571C217.237 133.529 216.704 133.293 216.114 133.047C215.523 132.801 214.466 132.339 213.765 132.02C212.598 131.488 210.116 130.391 207.388 129.2C206.797 128.942 205.68 128.438 204.905 128.079C203.576 127.464 200.499 126.1 199.837 125.832C199.538 125.711 199.535 125.717 199.535 126.423ZM73.3871 126.938C73.2486 127.22 73.6417 127.638 74.2825 127.89C75.4233 128.34 77.2727 128.167 78.213 127.522C78.5058 127.321 78.5191 126.913 78.2356 126.828C78.1188 126.793 76.9993 126.765 75.7479 126.765C73.7535 126.765 73.4621 126.786 73.3871 126.938ZM166.764 127.525C166.186 127.823 165.575 128.788 165.473 129.564C165.429 129.894 165.448 130.126 165.517 130.103C165.584 130.08 166.014 129.909 166.474 129.722C168.282 128.987 170.208 129.424 172.212 131.025C174.336 132.722 175.537 135.087 175.335 137.174C175.212 138.437 174.557 139.141 172.841 139.855C172.387 140.044 172.015 140.233 172.015 140.275C172.015 140.4 173.532 140.693 174.172 140.69C176.534 140.681 178.094 138.393 177.65 135.589C177.416 134.11 177.021 133.216 175.996 131.844C175.206 130.786 174.574 130.143 173.677 129.482C171.915 128.184 170.393 127.635 167.771 127.35C167.337 127.303 167.121 127.34 166.764 127.525ZM73.4382 131.32C73.4514 132.818 73.4665 138.412 73.4717 143.753L73.481 153.463L73.9173 153.643C74.5666 153.91 76.6674 153.966 77.4358 153.737C77.7593 153.641 78.0957 153.495 78.1834 153.413C78.304 153.299 78.3473 150.279 78.3618 140.956C78.3722 134.188 78.3637 128.65 78.3426 128.65C78.3215 128.65 78.143 128.732 77.9457 128.833C77.3944 129.115 74.6948 129.097 73.9508 128.807L73.4139 128.597L73.4382 131.32ZM131.187 129.376C130.79 129.63 130.898 129.797 131.822 130.361C132.834 130.979 133.708 131.258 134.867 131.335C136.632 131.451 138.304 131.066 139.5 130.268C140.14 129.84 140.187 129.687 139.777 129.367L139.488 129.142L139.235 129.526C138.664 130.394 137.252 130.807 135.139 130.723C134.205 130.686 133.813 130.619 133.269 130.401C132.51 130.097 131.742 129.554 131.742 129.322C131.742 129.118 131.563 129.135 131.187 129.376ZM56.7006 134.726V139.755L57.0027 139.847C57.5621 140.017 58.4345 140.581 58.6572 140.917C59.0157 141.458 58.8527 142.092 58.227 142.591C57.5234 143.154 56.2466 143.787 55.3124 144.038C54.255 144.322 52.7868 144.412 51.7974 144.255C49.7482 143.928 47.4379 142.484 47.4379 141.529C47.4379 141.067 47.9714 140.548 49.0582 139.954C49.3513 139.794 49.3561 139.749 49.4224 136.525C49.4706 134.175 49.4478 133.257 49.3411 133.257C49.2593 133.257 48.6618 133.508 48.0131 133.815C47.3645 134.121 45.0819 135.14 42.9408 136.079C40.7996 137.018 38.1114 138.2 36.967 138.706C35.8226 139.212 34.5993 139.734 34.2486 139.866C33.8978 139.998 33.6109 140.135 33.6109 140.17C33.6109 140.206 33.8375 140.318 34.1143 140.419C34.3913 140.52 35.3728 140.946 36.2958 141.367C37.706 142.009 45.9181 145.661 47.4379 146.322C48.552 146.807 51.2662 148.01 52.9419 148.762C54.9595 149.668 58.4867 151.224 62.5402 152.996C64.0169 153.641 65.7989 154.428 66.5004 154.745C71.1085 156.827 72.0247 157.239 72.0576 157.239C72.1215 157.239 81.1403 161.209 81.3342 161.323C81.4516 161.391 85.7767 163.303 87.4422 164.023C88.0634 164.291 89.6058 164.977 92.5434 166.293C93.4663 166.707 94.7651 167.283 95.4296 167.574C96.0941 167.866 97.9668 168.692 99.5912 169.411C102.176 170.556 104.619 171.628 106.639 172.505C106.971 172.649 107.817 173.026 108.518 173.342C109.22 173.658 110.065 174.035 110.398 174.18C110.73 174.324 111.545 174.688 112.21 174.988C112.874 175.287 113.962 175.759 114.626 176.035C115.291 176.312 116.335 176.767 116.946 177.047C117.558 177.326 118.148 177.554 118.258 177.554C118.368 177.554 118.683 177.445 118.958 177.311C119.234 177.177 119.942 176.864 120.533 176.616C121.124 176.368 122.06 175.964 122.614 175.719C123.168 175.474 124.98 174.673 126.641 173.94C128.302 173.206 130.84 172.076 132.279 171.429C133.719 170.782 136.015 169.755 137.38 169.148C138.746 168.542 140.408 167.798 141.072 167.496C141.737 167.194 142.945 166.667 143.757 166.325C144.569 165.983 146.14 165.29 147.247 164.785C148.866 164.047 153.107 162.16 155.906 160.932C156.164 160.819 157.071 160.418 157.92 160.042C160.433 158.929 160.506 158.896 161.276 158.57C161.682 158.398 162.648 157.964 163.424 157.605C164.199 157.247 164.969 156.92 165.135 156.879C165.301 156.839 165.435 156.773 165.432 156.734C165.429 156.695 164.722 156.356 163.862 155.982C163.001 155.607 161.72 155.036 161.014 154.712C160.309 154.387 158.554 153.592 157.114 152.944C155.674 152.297 154.104 151.575 153.624 151.341C152.777 150.929 152.72 150.917 151.71 150.943C149.98 150.987 148.541 150.536 146.987 149.461L146.324 149.003L145.577 149.311C144.705 149.672 143.337 150.283 142.012 150.903C141.495 151.145 140.468 151.593 139.73 151.898C138.991 152.204 137.995 152.63 137.515 152.845C137.035 153.06 136.431 153.329 136.172 153.443C133.7 154.535 133.175 154.801 133.071 155.014C132.589 156.004 130.897 156.71 130.025 156.285C129.837 156.194 129.654 156.228 129.145 156.45C126.998 157.385 123.9 157.811 121.075 157.561C119.283 157.402 118.334 157.202 116.995 156.7C115.978 156.319 115.837 156.292 115.478 156.407C114.688 156.663 113.249 156.014 112.682 155.147C112.45 154.793 111.933 154.535 107.485 152.549C101.775 150 95.4513 147.171 89.523 144.512C87.2341 143.485 85.1052 142.532 84.792 142.394C84.3917 142.217 84.1108 142.161 83.8469 142.206C83.5319 142.26 83.1914 142.125 81.7315 141.37C80.7747 140.874 79.9465 140.446 79.8911 140.417C79.8356 140.389 79.7904 143.03 79.7904 146.287V152.208L80.2938 152.41C80.8979 152.653 81.6064 153.222 81.7055 153.544C81.9522 154.347 81.0225 155.209 79.0816 155.976C78.1425 156.348 77.7547 156.439 76.7974 156.515C74.5945 156.689 72.8743 156.321 71.2131 155.322C70.3538 154.805 69.9919 154.385 69.9912 153.907C69.9903 153.311 70.3464 152.953 71.4338 152.454L72.0043 152.192L72.0361 146.154C72.0536 142.834 72.0687 139.645 72.0697 139.069L72.0714 138.022L71.3331 137.838C70.2622 137.571 68.2517 136.762 67.7225 136.385C66.9413 135.829 66.3948 135.097 66.2948 134.472L66.2041 133.905L65.0654 133.57C62.4707 132.806 60.0581 131.732 57.9389 130.397C57.328 130.012 56.7993 129.697 56.7643 129.697C56.7294 129.697 56.7006 131.96 56.7006 134.726ZM95.8486 130.28C94.3117 131.383 91.2332 132.766 88.3134 133.666L87.2382 133.997L87.2272 134.628C87.2196 135.059 87.1477 135.312 87.0001 135.427C86.8017 135.582 86.8256 135.627 87.2945 135.982C87.5751 136.194 88.3886 136.636 89.1024 136.964C91.9489 138.271 96.4792 140.274 96.5887 140.274C96.6527 140.274 96.7049 137.919 96.7049 135.038C96.7049 132.158 96.6597 129.803 96.6043 129.806C96.5488 129.808 96.2088 130.021 95.8486 130.28ZM166.645 130.877C165.87 131.187 164.49 131.779 163.579 132.192C162.667 132.605 161.904 132.943 161.883 132.943C161.862 132.943 161.612 133.02 161.326 133.114C160.937 133.242 160.862 133.302 161.028 133.35C161.549 133.502 162.936 134.461 163.657 135.169C165.356 136.837 166.377 138.93 166.377 140.744V141.519L167.954 140.808C173.769 138.189 173.61 138.271 173.961 137.694C174.29 137.153 174.159 135.712 173.676 134.581C173.025 133.053 171.187 131.243 169.698 130.663C168.569 130.223 168.216 130.248 166.645 130.877ZM209.84 132.518C207.656 133.068 207.921 134.681 210.245 134.983C211.466 135.141 212.934 134.575 213.165 133.856C213.283 133.491 212.894 132.965 212.311 132.699C211.818 132.474 210.418 132.372 209.84 132.518ZM209.838 133.475C209.246 133.744 209.807 134.095 210.829 134.095C211.449 134.095 211.885 133.944 211.885 133.729C211.885 133.646 211.768 133.53 211.626 133.47C211.295 133.332 210.146 133.335 209.838 133.475ZM157.047 133.717C156.036 134.061 155.235 134.898 155.235 135.609C155.235 136.027 155.359 136.08 155.608 135.768C155.885 135.423 157.211 135.012 158.016 135.022C159.666 135.043 161.598 136.361 162.667 138.194C163.482 139.592 163.762 141.205 163.356 142.159C163.08 142.808 162.17 143.57 161.542 143.677C160.957 143.778 161.052 143.904 161.76 143.966C162.542 144.035 163.11 143.913 163.787 143.53C164.509 143.122 164.875 142.533 165.015 141.554C165.221 140.11 164.884 138.807 163.917 137.305C162.287 134.773 158.994 133.053 157.047 133.717ZM67.6379 134.488C67.8704 135.211 69.2067 136.026 71.0391 136.564C71.5136 136.704 71.9408 136.818 71.9882 136.818C72.1626 136.818 72.0239 135.092 71.8436 135.019C71.7474 134.98 71.1094 134.87 70.4259 134.774C69.7425 134.678 68.8156 134.512 68.3663 134.406L67.5495 134.213L67.6379 134.488ZM85.5417 134.356C85.4335 134.44 82.367 134.914 81.0419 135.051L79.81 135.178L79.7666 135.956C79.7427 136.384 79.7574 136.75 79.799 136.77C79.9985 136.865 82.2772 136.324 83.3959 135.916C84.6822 135.446 85.9655 134.715 85.9655 134.452C85.9655 134.312 85.6812 134.247 85.5417 134.356ZM217.331 134.817C217.241 134.93 213.119 136.811 208.126 139.017C207.13 139.458 205.777 140.062 205.12 140.36C204.464 140.658 203.907 140.902 203.883 140.902C203.858 140.902 203.339 141.132 202.727 141.413C201.491 141.982 201.352 142.045 199.065 143.051C198.179 143.441 195.732 144.524 193.628 145.457C191.524 146.391 188.473 147.733 186.849 148.439C185.225 149.146 183.14 150.064 182.218 150.48C181.295 150.896 179.51 151.687 178.251 152.237C176.992 152.787 175.482 153.461 174.895 153.733C174.308 154.006 173.646 154.309 173.425 154.407C172.978 154.605 169.605 156.076 168.659 156.486C168.327 156.629 166.817 157.298 165.303 157.971C163.789 158.643 160.86 159.94 158.792 160.853C156.725 161.765 154.127 162.919 153.02 163.416C151.163 164.251 150.434 164.572 148.791 165.281C148.459 165.424 146.526 166.283 144.495 167.189C142.465 168.096 139.022 169.627 136.844 170.592C134.665 171.557 130.105 173.584 126.708 175.097C123.312 176.609 120.186 177.979 119.761 178.141L118.989 178.436V179.872C118.989 180.661 118.953 181.382 118.908 181.473C118.863 181.564 118.883 181.639 118.953 181.639C119.023 181.639 120.011 181.224 121.149 180.718C122.287 180.212 124.275 179.333 125.567 178.766C128.074 177.665 129.103 177.209 130.601 176.535C131.613 176.08 132.267 175.791 133.219 175.378C133.551 175.234 133.983 175.028 134.179 174.921C134.375 174.815 134.566 174.727 134.603 174.727C134.672 174.727 135.317 174.444 137.515 173.451C138.216 173.134 139.062 172.756 139.394 172.611C139.726 172.466 140.24 172.241 140.535 172.109C140.831 171.978 142.099 171.423 143.354 170.876C144.609 170.329 145.787 169.8 145.972 169.701C146.311 169.519 147.039 169.195 148.388 168.625C148.794 168.454 149.255 168.251 149.412 168.175C149.569 168.099 150.083 167.877 150.553 167.681C151.446 167.309 152.65 166.776 157.248 164.716C158.762 164.038 160.695 163.18 161.544 162.81C162.393 162.439 163.511 161.936 164.028 161.692C164.544 161.448 166.024 160.784 167.317 160.217C168.609 159.649 171.297 158.458 173.29 157.57C175.284 156.681 177.308 155.79 177.788 155.588C178.267 155.387 178.792 155.159 178.954 155.081C179.388 154.871 180.099 154.554 181.748 153.836C183.417 153.11 189.314 150.483 191.145 149.649C191.809 149.347 193.923 148.403 195.843 147.552C197.763 146.702 200.391 145.533 201.683 144.956C202.975 144.379 204.364 143.767 204.77 143.596C205.176 143.425 205.643 143.22 205.807 143.14C206.317 142.892 209.361 141.53 209.404 141.53C209.426 141.53 209.858 141.349 210.363 141.128C210.868 140.907 211.613 140.583 212.019 140.41C212.425 140.236 213.06 139.95 213.429 139.775C214.119 139.446 216.508 138.367 217.233 138.057L217.641 137.882L217.616 136.303C217.593 134.855 217.536 134.558 217.331 134.817ZM191.441 136.021C190.605 136.605 189.229 137.237 188.798 137.234C188.612 137.233 188.196 137.139 187.875 137.025C187.553 136.911 187.173 136.818 187.03 136.818C186.73 136.818 185.707 137.204 185.709 137.317C185.71 137.359 185.964 137.488 186.273 137.603C186.582 137.718 187.613 138.174 188.564 138.616L190.293 139.419L191.222 138.983L192.151 138.547V137.054C192.151 136.233 192.136 135.563 192.118 135.566C192.099 135.568 191.795 135.773 191.441 136.021ZM157.852 136.078C157.275 136.194 155.906 136.721 155.906 136.827C155.906 136.877 156.081 136.988 156.296 137.075C156.51 137.161 156.783 137.308 156.902 137.4C157.162 137.604 158.124 137.518 158.24 137.281C158.281 137.199 158.405 137.132 158.516 137.132C158.669 137.132 158.699 137.056 158.638 136.818C158.563 136.526 158.585 136.504 158.95 136.504C159.166 136.504 159.415 136.56 159.504 136.629C159.618 136.719 159.665 136.721 159.665 136.636C159.665 136.478 158.991 136.111 158.583 136.048C158.403 136.02 158.074 136.034 157.852 136.078ZM193.477 136.132C193.45 136.154 193.446 136.649 193.469 137.233C193.51 138.247 193.527 138.299 193.839 138.391C194.548 138.602 194.215 138.859 191.752 139.999C191.053 140.323 190.402 140.588 190.306 140.588C190.123 140.588 187.324 139.348 185.541 138.477C184.97 138.198 184.423 137.97 184.326 137.97C184.229 137.97 183.187 138.401 182.009 138.927C180.832 139.454 179.596 140.002 179.264 140.147C178.932 140.291 178.207 140.611 177.653 140.857C176.145 141.529 175.359 141.74 174.355 141.74C173.446 141.74 172.172 141.468 171.37 141.104C171.126 140.993 170.854 140.902 170.766 140.902C170.644 140.902 170.606 141.957 170.606 145.27V149.638L170.069 149.918C169.564 150.182 168.6 150.601 166.932 151.282C166.106 151.619 166.147 151.627 164.5 150.799C162.891 149.989 158.141 147.814 157.982 147.814C157.948 147.814 157.92 147.869 157.92 147.938C157.92 148.006 157.788 148.171 157.628 148.304C157.468 148.437 157.366 148.568 157.401 148.596C157.646 148.787 164.461 151.883 165.762 152.394L166.288 152.601L166.97 152.318C167.345 152.162 167.894 151.928 168.189 151.798C168.484 151.668 169.481 151.23 170.404 150.825C171.327 150.419 172.565 149.864 173.156 149.591C173.747 149.318 174.532 148.965 174.901 148.807C175.816 148.416 178.151 147.404 178.727 147.151C178.986 147.037 179.59 146.779 180.07 146.578C180.55 146.377 181.486 145.969 182.15 145.67C182.815 145.372 183.721 144.971 184.164 144.779C184.607 144.587 185.181 144.337 185.439 144.222C185.698 144.108 186.181 143.897 186.513 143.753C186.846 143.61 187.689 143.232 188.387 142.914C189.086 142.596 190.113 142.148 190.669 141.92C191.226 141.692 192.225 141.26 192.89 140.96C193.554 140.66 194.521 140.233 195.038 140.012C195.555 139.79 196.189 139.516 196.447 139.403C196.706 139.29 197.299 139.033 197.765 138.832C198.232 138.631 198.564 138.432 198.504 138.39C198.443 138.348 197.941 138.125 197.387 137.896C196.14 137.38 194.811 136.772 194.081 136.386C193.777 136.225 193.505 136.111 193.477 136.132ZM84.2875 136.715C82.6591 137.336 81.736 137.601 80.6294 137.767L79.7904 137.892V138.504V139.115L81.0462 139.691C81.737 140.009 82.3787 140.34 82.4723 140.428C82.7617 140.7 82.8388 140.611 82.9095 139.924C83.0366 138.689 84.159 137.349 85.5072 136.822C86.1108 136.587 86.2241 136.501 86.1446 136.339C86.0296 136.105 85.7283 136.166 84.2875 136.715ZM148.388 136.949C148.018 137.038 147.975 137.072 148.187 137.108C149.556 137.343 151.824 138.707 153.17 140.103C154.492 141.474 155.546 143.54 155.762 145.181C155.94 146.537 155.632 148.336 155.183 148.567C155.105 148.607 155.074 148.666 155.115 148.697C155.247 148.801 156.303 148.016 156.632 147.569C157.473 146.427 157.465 144.257 156.611 142.42C155.605 140.255 153.815 138.445 151.744 137.499C150.346 136.86 149.404 136.706 148.388 136.949ZM153.49 137.244C155.221 138.329 156.507 139.713 157.516 141.581C157.826 142.154 158.322 143.554 158.322 143.854C158.322 144.163 158.543 144.071 158.794 143.659C158.983 143.348 159.013 143.102 158.952 142.376C158.91 141.882 158.776 141.266 158.655 141.007C157.812 139.2 156.13 137.766 154.278 137.277C153.137 136.976 153.056 136.973 153.49 137.244ZM160.369 137.443C160.285 137.549 159.896 137.717 159.504 137.818C159.112 137.919 158.604 138.079 158.374 138.174L157.956 138.347L158.539 139.127C159.318 140.17 159.908 141.578 159.953 142.504C159.966 142.775 160.004 142.996 160.037 142.996C160.163 142.996 161.141 142.536 161.141 142.477C161.141 142.443 161.346 142.33 161.595 142.225C162.152 141.991 162.35 141.675 162.35 141.016C162.35 139.947 161.714 138.501 160.84 137.585C160.546 137.276 160.512 137.266 160.369 137.443ZM86.3011 137.528C86.0796 137.618 85.5964 137.933 85.2272 138.229C84.4554 138.846 84.0845 139.533 84.0855 140.343L84.0861 140.884L85.0594 141.298C85.5946 141.526 87.5127 142.386 89.3216 143.21C91.1305 144.033 93.3657 145.046 94.2886 145.459C95.2115 145.873 97.5977 146.943 99.5912 147.837C109.67 152.356 112.413 153.573 112.514 153.573C112.575 153.573 112.639 153.397 112.657 153.181C112.725 152.33 113.577 151.071 114.611 150.293L115.187 149.859L109.403 147.284C102.843 144.363 102.04 144.002 94.6242 140.642C86.5959 137.006 87.1105 137.198 86.3011 137.528ZM145.61 138.124C144.96 138.344 144.016 139.074 143.697 139.605C143.165 140.488 143.021 142.578 143.492 142.578C143.661 142.578 144.898 141.702 144.898 141.583C144.898 141.554 144.83 141.53 144.746 141.53C144.21 141.53 143.892 140.551 144.26 140.037C144.844 139.222 145.695 138.86 146.81 138.951C148.745 139.109 150.92 140.564 152.313 142.632C153.008 143.663 153.395 144.923 153.407 146.19C153.422 147.679 153.168 148.367 152.367 149.02C151.472 149.749 150.922 149.683 149.118 148.632C148.482 148.262 148.41 148.244 148.01 148.362C147.775 148.431 147.586 148.513 147.59 148.543C147.604 148.647 148.345 149.059 149.073 149.367C150.484 149.966 151.685 149.991 152.875 149.447C153.628 149.103 154.048 148.608 154.438 147.605C154.694 146.949 154.724 146.687 154.66 145.68C154.53 143.601 153.265 141.38 151.298 139.777C149.513 138.322 147.096 137.62 145.61 138.124ZM38.7017 139.08C37.693 139.518 37.3947 140.109 37.9194 140.629C38.5234 141.228 39.9152 141.542 40.9577 141.314C41.7027 141.152 42.6054 140.518 42.6046 140.159C42.6025 139.066 40.2375 138.412 38.7017 139.08ZM198.192 139.787C196.666 140.482 196.123 140.721 190.272 143.279C187.503 144.49 184.09 145.987 182.687 146.606C181.285 147.225 179.261 148.111 178.19 148.575C175.684 149.662 168.222 152.988 167.503 153.339L166.952 153.608L166.865 154.711C166.778 155.823 166.862 156.125 167.178 155.829C167.272 155.74 167.395 155.668 167.451 155.668C167.507 155.668 168.028 155.464 168.609 155.214C169.19 154.965 170.119 154.572 170.673 154.34C171.226 154.108 172.344 153.622 173.156 153.259C173.968 152.896 174.829 152.512 175.069 152.405C175.309 152.299 175.702 152.124 175.942 152.015C176.44 151.791 178.06 151.069 178.82 150.732C179.101 150.607 179.664 150.364 180.07 150.19C180.476 150.017 181.231 149.687 181.748 149.458C182.264 149.229 182.989 148.915 183.359 148.76C183.728 148.606 184.285 148.353 184.598 148.199C184.91 148.045 185.194 147.918 185.23 147.918C185.265 147.918 186.278 147.476 187.481 146.936C188.684 146.396 189.879 145.861 190.138 145.747C190.396 145.633 191.132 145.297 191.773 145.001C192.415 144.705 192.967 144.463 193.002 144.463C193.053 144.463 194.777 143.698 197.756 142.355C197.996 142.247 198.419 142.06 198.696 141.939C198.973 141.819 199.247 141.685 199.304 141.642C199.362 141.6 199.393 141.048 199.372 140.416L199.333 139.267L198.192 139.787ZM39.7667 139.73C39.4964 139.747 39.1724 139.852 39.0424 139.964C38.8151 140.16 38.8236 140.172 39.2923 140.325C39.8727 140.514 40.4547 140.527 40.9208 140.362C41.7696 140.06 41.0179 139.648 39.7667 139.73ZM145.614 140.09C145.413 140.341 145.422 140.695 145.632 140.758C145.996 140.867 146.509 140.705 146.509 140.481C146.509 140.319 146.414 140.272 146.073 140.265L145.636 140.257L146.039 140.113L146.442 139.969L146.081 139.964C145.882 139.962 145.672 140.018 145.614 140.09ZM147.657 140.474C147.614 140.529 147.636 140.601 147.706 140.635C147.776 140.668 147.868 140.651 147.911 140.597C147.955 140.542 147.933 140.47 147.863 140.436C147.793 140.403 147.7 140.42 147.657 140.474ZM104.088 140.825C104.088 141.236 102.284 142.263 101.562 142.263C101.401 142.263 101.269 142.303 101.269 142.351C101.269 142.457 101.871 142.682 102.153 142.682C102.518 142.682 103.664 142.166 104.227 141.748C104.831 141.3 104.871 141.072 104.39 140.823C104.122 140.685 104.088 140.685 104.088 140.825ZM149.261 140.902C149.215 140.96 149.242 141.007 149.32 141.007C149.398 141.007 149.462 140.96 149.462 140.902C149.462 140.844 149.436 140.797 149.403 140.797C149.37 140.797 149.307 140.844 149.261 140.902ZM56.8349 141.152C56.8349 141.4 55.9684 142.021 55.186 142.334C54.1921 142.732 52.5249 142.797 51.4457 142.479C50.4639 142.191 49.6137 141.706 49.507 141.374C49.4091 141.07 49.2856 141.046 48.9912 141.276C48.6602 141.534 48.7346 141.691 49.4087 142.153C51.6339 143.681 54.7548 143.659 56.9447 142.099C57.5609 141.66 57.5692 141.645 57.3719 141.363C57.1406 141.033 56.8349 140.913 56.8349 141.152ZM33.3424 142.716C33.3424 143.798 33.3901 144.258 33.5102 144.335C33.7227 144.47 39.7882 147.185 39.8788 147.185C39.9158 147.185 40.1064 147.274 40.3024 147.383C40.6086 147.552 45.1901 149.594 47.4379 150.562C47.844 150.737 48.3365 150.968 48.5325 151.075C48.7285 151.182 48.9203 151.269 48.9589 151.269C48.9974 151.269 50.1359 151.772 51.4888 152.386C52.8417 153 54.2809 153.644 54.687 153.816C55.0931 153.988 56.4523 154.585 57.7075 155.144C58.9626 155.702 60.352 156.314 60.795 156.505C61.8307 156.95 71.1152 161.066 77.1726 163.766C79.7568 164.918 82.3242 166.059 82.878 166.3C84.2687 166.908 84.4409 166.984 87.7778 168.468C89.4022 169.19 90.9728 169.886 91.2681 170.015C91.5635 170.144 92.4696 170.545 93.2818 170.905C95.7106 171.984 101.393 174.5 104.76 175.986C108.468 177.623 110.486 178.524 114.465 180.319C116.074 181.045 117.418 181.639 117.451 181.639C117.485 181.639 117.513 180.938 117.513 180.082V178.525L114.459 177.164C112.779 176.415 110.649 175.473 109.726 175.07C107.521 174.107 104.281 172.678 100.799 171.134C99.2488 170.446 95.8659 168.952 93.2818 167.813C90.6976 166.674 87.8282 165.407 86.9052 164.998C85.9823 164.59 83.4893 163.489 81.3653 162.553C75.7188 160.065 73.0012 158.857 70.6619 157.794C69.5175 157.274 66.7688 156.058 64.5538 155.092C62.3388 154.126 59.8319 153.02 58.9828 152.634C58.1337 152.248 55.959 151.281 54.15 150.484C52.3411 149.687 48.4749 147.975 45.5585 146.679C38.9531 143.744 37.8087 143.237 35.9443 142.424C35.1236 142.067 34.2778 141.68 34.0649 141.564C33.8521 141.449 33.6026 141.321 33.5102 141.28C33.3792 141.22 33.3424 141.536 33.3424 142.716ZM146.979 141.377C146.757 141.456 146.38 141.523 146.14 141.526C145.9 141.528 145.704 141.577 145.704 141.635C145.704 141.693 145.886 141.74 146.109 141.74C147.078 141.74 148.78 143.054 149.484 144.345C149.877 145.066 149.92 145.246 149.926 146.216C149.929 146.807 149.954 147.29 149.981 147.29C150.007 147.29 150.321 147.1 150.677 146.867C151.469 146.35 151.675 145.927 151.551 145.074C151.443 144.327 151.126 143.722 150.421 142.917C149.761 142.165 149.305 141.831 148.469 141.487C147.733 141.184 147.556 141.171 146.979 141.377ZM168.391 141.692C167.984 141.894 167.396 142.185 167.082 142.339L166.511 142.619V146.473C166.511 148.593 166.545 150.327 166.587 150.327C166.629 150.327 166.856 150.214 167.091 150.075C167.326 149.937 167.911 149.666 168.391 149.473L169.263 149.123L169.33 145.222C169.374 142.655 169.351 141.322 169.263 141.324C169.189 141.325 168.797 141.491 168.391 141.692ZM150.67 142.159C150.67 142.354 150.706 142.382 150.832 142.284C150.957 142.187 150.957 142.131 150.832 142.033C150.706 141.935 150.67 141.963 150.67 142.159ZM144.622 143.347C143.999 143.654 143.126 144.061 142.683 144.25C142.24 144.439 141.782 144.659 141.666 144.738C141.549 144.817 141.416 144.881 141.369 144.881C141.323 144.881 140.966 145.03 140.575 145.211C138.982 145.95 131.762 149.144 131.138 149.386C130.769 149.529 130.445 149.656 130.418 149.667C130.391 149.678 130.726 149.946 131.163 150.261C132.247 151.044 133.079 152.306 133.083 153.174C133.085 153.579 133.222 153.595 133.896 153.269C134.225 153.109 134.857 152.822 135.3 152.631C135.743 152.44 137.344 151.731 138.857 151.056C140.371 150.381 141.972 149.676 142.415 149.49C142.858 149.303 143.371 149.068 143.556 148.967C143.74 148.865 144.284 148.629 144.764 148.441C146.029 147.946 148.706 146.745 148.832 146.615C148.891 146.554 148.912 146.24 148.88 145.918C148.741 144.554 147.119 142.787 146.005 142.787C145.868 142.787 145.246 143.039 144.622 143.347ZM164.953 144.101C164.813 144.248 164.328 144.508 163.874 144.677C162.82 145.072 161.912 145.087 160.652 144.73L159.747 144.474L159.541 144.704C159.428 144.83 159.207 145.028 159.051 145.143C158.86 145.284 158.737 145.542 158.678 145.929C158.63 146.245 158.56 146.599 158.523 146.714C158.47 146.882 158.584 146.969 159.094 147.154C159.445 147.281 160.904 147.934 162.337 148.604C163.769 149.274 165.008 149.842 165.089 149.866C165.193 149.897 165.236 149.032 165.236 146.872C165.236 145.201 165.229 143.834 165.221 143.834C165.213 143.834 165.092 143.955 164.953 144.101ZM151.725 147.864C151.69 147.891 151.544 147.933 151.401 147.958C150.843 148.052 150.536 148.156 150.536 148.252C150.536 148.307 150.672 148.32 150.838 148.281C151.135 148.212 151.135 148.214 150.872 148.371C150.62 148.522 150.618 148.536 150.843 148.604C151.097 148.681 151.528 148.443 151.768 148.094C151.893 147.911 151.864 147.755 151.725 147.864ZM155.839 149.599C155.078 149.974 154.44 150.222 154.233 150.222C154.12 150.222 154.027 150.258 154.028 150.301C154.029 150.344 154.981 150.801 156.143 151.317C157.305 151.833 159.131 152.655 160.202 153.143C161.272 153.631 162.918 154.372 163.86 154.789L165.571 155.548L165.567 154.534L165.563 153.521L163.935 152.788C163.04 152.385 161.456 151.661 160.415 151.18C159.375 150.699 158.12 150.147 157.627 149.952C157.135 149.758 156.693 149.551 156.646 149.492C156.526 149.34 156.303 149.369 155.839 149.599ZM127.808 150.185C127.761 150.221 127.977 150.378 128.289 150.532C130.026 151.392 131.457 153.589 131.141 154.908C131.045 155.307 131.241 155.36 131.53 155.013C132.599 153.735 131.372 151.153 129.298 150.318C128.814 150.123 127.982 150.049 127.808 150.185ZM116.304 150.476C115.628 150.823 114.763 151.589 114.377 152.183C113.978 152.797 113.702 153.883 113.829 154.342C113.94 154.745 114.284 155.289 114.381 155.214C114.419 155.184 114.478 154.837 114.511 154.445C114.591 153.48 114.751 153.061 115.318 152.318C115.815 151.668 117.165 150.603 117.644 150.485C118.112 150.369 117.94 150.222 117.345 150.228C116.986 150.232 116.6 150.324 116.304 150.476ZM126.984 151.26C126.943 151.312 126.381 151.505 125.735 151.689C123.612 152.295 120.95 152.232 119.016 151.532L118.304 151.274L117.794 151.525C116.795 152.017 115.997 153.039 115.774 154.11C115.698 154.477 115.635 154.808 115.634 154.846C115.633 154.935 116.707 155.435 117.647 155.783C118.747 156.19 119.691 156.376 121.392 156.519C123.935 156.733 126.18 156.42 128.418 155.537C130.149 154.855 130.317 154.455 129.477 153.009C128.833 151.902 127.318 150.838 126.984 151.26ZM71.6153 153.614C71.3326 153.849 71.3163 153.904 71.481 154.068C72.1242 154.707 73.5576 155.308 74.8234 155.468C75.4529 155.547 75.9952 155.544 76.7699 155.457C77.9992 155.319 78.5269 155.153 79.4113 154.627C80.1685 154.177 80.4405 153.841 80.2444 153.599C80.0179 153.319 79.8733 153.348 79.5501 153.737C78.8618 154.565 77.3145 154.997 75.3263 154.916C74.3707 154.876 74.0953 154.82 73.4449 154.53C72.7402 154.215 72.417 153.978 72.0713 153.524C71.9499 153.364 71.9056 153.373 71.6153 153.614ZM117.262 173.074C116.555 173.261 115.902 173.799 115.902 174.195C115.902 175.037 116.828 175.573 118.29 175.579C120.792 175.588 121.785 174.011 119.786 173.205C119.237 172.983 117.875 172.913 117.262 173.074ZM117.407 174.019C116.768 174.259 117.385 174.723 118.345 174.725C119.373 174.729 119.953 174.22 119.182 173.991C118.733 173.858 117.796 173.873 117.407 174.019Z" fill="white"/>
</svg>
