<svg width="579" height="312" viewBox="0 0 579 312" fill="none" xmlns="http://www.w3.org/2000/svg">
<path d="M518.02 251C513.687 251 510.653 250.22 508.92 248.66C507.187 247.1 506.32 244.413 506.32 240.6V214.08H430.4C425.373 214.08 422.86 211.653 422.86 206.8V191.72C422.86 188.773 423.12 186.607 423.64 185.22C424.16 183.66 425.373 181.753 427.28 179.5L509.18 80.18C511.26 77.7533 512.993 76.1933 514.38 75.5C515.94 74.6333 518.367 74.2 521.66 74.2H537.52C541.853 74.2 544.887 75.1533 546.62 77.06C548.353 78.7933 549.22 81.6533 549.22 85.64V182.62H564.82C568.98 182.62 571.84 183.487 573.4 185.22C574.96 186.953 575.74 189.813 575.74 193.8V203.16C575.74 207.147 574.96 210.007 573.4 211.74C571.84 213.3 568.98 214.08 564.82 214.08H549.22V240.6C549.22 244.413 548.353 247.1 546.62 248.66C544.887 250.22 541.853 251 537.52 251H518.02ZM514.64 182.62V122.04L466.28 182.62H514.64Z" fill="white"/>
<path fill-rule="evenodd" clip-rule="evenodd" d="M288.413 63.7328C288.261 63.7627 288.019 63.9161 287.875 64.0735C287.732 64.231 286.739 66.032 285.67 68.0755C282.611 73.9211 282.13 74.9049 282.13 75.3199C282.13 75.5753 282.296 75.9081 282.617 76.2979C283.933 77.8946 289.62 83.9027 292.697 86.9469L296.155 90.3693L295.373 90.858C292.085 92.912 285.154 97.4432 285.021 97.6252C284.931 97.7488 284.857 97.9533 284.857 98.0797C284.857 98.3876 286.182 99.8444 287.805 101.321L289.129 102.526L288.246 103.585C286.538 105.634 284.469 108.376 284.389 108.696C284.274 109.155 284.752 109.794 286.406 111.392C287.897 112.831 290.516 114.925 293.625 117.161C294.696 117.932 295.621 118.606 295.68 118.66C295.785 118.756 295.462 119.564 293.758 123.465C293.077 125.025 292.901 125.555 292.962 125.86C293.005 126.076 294.25 127.923 295.742 129.984C297.228 132.037 298.582 133.923 298.75 134.174C299.342 135.055 299.679 135.334 300.236 135.402C300.528 135.438 301.44 135.533 302.262 135.615C308.044 136.188 313.961 138.142 318.993 141.14C322.999 143.527 326.326 146.338 329.59 150.093C330.907 151.609 331.095 151.893 331.772 153.391C333.531 157.281 334.868 162.242 335.313 166.535C335.54 168.729 335.574 173.063 335.38 175.175C334.964 179.704 333.731 184.314 331.743 188.775C330.589 191.366 329.786 192.817 328.089 195.38C324.48 200.832 319.784 205.613 314.439 209.278C307.202 214.241 299.984 217.08 291.741 218.205C289.311 218.537 283.801 218.608 281.14 218.342C274.86 217.715 269.221 216.098 263.732 213.353C261.845 212.409 261.7 212.307 260.198 210.877C255.856 206.743 252.662 202.038 250.184 196.124C247.36 189.387 246.191 181.887 246.864 174.834C247.699 166.088 250.819 158.321 256.242 151.489C261.184 145.263 266.933 140.855 273.882 137.961C275.656 137.222 275.734 137.178 275.815 136.866C275.854 136.716 275.851 135.388 275.809 133.916C275.718 130.764 275.869 128.825 276.415 126.117C276.895 123.742 276.915 123.04 276.512 122.683C276.222 122.425 272.775 120.957 267.453 118.824C265.917 118.209 264.617 117.668 264.564 117.623C264.511 117.578 264.805 117.015 265.218 116.373C266.459 114.438 266.674 114.016 266.674 113.507C266.674 112.594 266.391 112.359 262.206 109.799C259.953 108.421 258.96 107.916 257.712 107.513C257.319 107.386 256.976 107.263 256.949 107.24C256.888 107.187 260.557 101.87 262.421 99.3126C264.481 96.4861 264.564 96.2851 264.09 95.2579C263.742 94.5032 263.347 94.1953 260.959 92.8159C258.562 91.4313 256.785 90.5766 251.672 88.3505C249.744 87.5106 248.15 86.8087 248.131 86.7907C248.112 86.7727 248.273 84.5224 248.488 81.7898C248.704 79.0572 248.88 76.7061 248.88 76.5652C248.88 75.8859 247.878 75.2531 244.485 73.7894L243.272 73.2661L242.277 73.5901C240.97 74.0156 237.081 75.6425 234.073 77.0217C231.379 78.2573 230.826 78.6767 230.826 79.4858C230.826 79.9795 231.275 80.9755 234.967 88.6716C236.118 91.0722 237.061 93.1617 237.061 93.3147C237.061 93.4679 236.945 93.7403 236.804 93.9202C236.663 94.1001 234.383 95.6948 231.738 97.4639L226.927 100.681L225.922 99.7942C224.49 98.5313 223.325 97.5933 220.371 95.3209C216.133 92.062 215.009 91.2816 214.55 91.2816C214.319 91.2816 210.885 94.4896 208.745 96.705C205.59 99.9714 200.071 106.345 199.581 107.287C199.479 107.483 199.396 107.84 199.395 108.081C199.395 108.478 199.709 108.84 202.787 111.992C204.652 113.902 206.817 116.099 207.596 116.872L209.014 118.279L207.149 120.979C206.123 122.464 204.487 124.896 203.514 126.384C202.54 127.872 201.683 129.089 201.61 129.089C201.537 129.089 200.76 128.803 199.884 128.452C197.692 127.575 189.759 124.608 188.83 124.318C188.088 124.085 188.062 124.086 187.603 124.336C187.108 124.606 186.942 124.931 184.237 130.914C182.18 135.466 179.652 142.236 179.652 143.196C179.652 143.679 179.741 143.814 180.724 144.831C183.155 147.345 188.666 152.142 190.596 153.423C191.681 154.143 191.853 154.305 191.792 154.551C191.753 154.708 191.386 156.275 190.975 158.032L190.229 161.226L188.934 161.315C188.223 161.364 185.111 161.498 182.019 161.614C178.928 161.729 176.297 161.856 176.174 161.895C175.648 162.063 175.385 162.253 175.242 162.569C174.851 163.43 174.47 175.587 174.689 180.22L174.816 182.917L176.734 185.044C180.167 188.848 184.026 192.475 185.189 192.992C185.722 193.229 185.798 193.228 188.681 192.959C190.302 192.808 191.673 192.735 191.727 192.795C191.845 192.928 192.801 196.765 192.733 196.833C192.671 196.896 179.673 202.294 179.299 202.412C178.872 202.547 178.483 203.115 178.483 203.603C178.483 204.542 180.298 210.086 182.017 214.401C182.531 215.69 183.604 218.069 184.403 219.687L185.855 222.63L187.468 224.147C189.653 226.201 191.07 227.432 193.225 229.147C196.724 231.931 196.731 231.935 197.854 231.555C198.92 231.194 202.377 229.665 204.956 228.414C206.122 227.848 207.127 227.417 207.19 227.456C207.252 227.494 207.778 228.183 208.357 228.986L209.41 230.446L207.942 231.886C207.134 232.678 205.187 234.525 203.616 235.991C202.044 237.456 200.218 239.182 199.557 239.826C198.373 240.978 198.355 241.005 198.355 241.616C198.355 242.18 198.427 242.325 199.148 243.225C201.889 246.645 207.24 252.33 210.629 255.424C213.807 258.323 218.021 261.604 221.674 264.02C223.146 264.994 223.494 265.144 223.947 265C224.396 264.857 228.12 261.471 231.955 257.721L233.538 256.172L234.585 256.985C235.161 257.432 235.632 257.823 235.632 257.854C235.632 257.885 234.968 259.3 234.155 260.999C231.997 265.514 231.359 266.923 231.272 267.359C231.207 267.684 231.298 267.89 231.816 268.592C232.602 269.655 238.019 275.111 239.12 275.948C240.123 276.71 244.365 278.744 247.939 280.175C250.778 281.313 256.063 283.084 258.339 283.662L259.81 284.035L260.169 283.633C260.778 282.95 264.042 276.711 265.244 273.932C265.476 273.394 265.682 272.937 265.7 272.915C265.718 272.894 266.558 273.086 267.566 273.341C273.143 274.75 277.864 275.52 283.147 275.881C285.762 276.06 292.484 276.056 295.491 275.873C297.254 275.766 297.902 275.767 297.968 275.875C298.018 275.955 298.128 276.62 298.214 277.352C298.398 278.933 298.274 278.718 301.038 282.23C303.963 285.949 304.952 287.085 305.348 287.185C306.234 287.408 313.926 286.148 318.302 285.063C321.972 284.153 327.3 282.488 328.528 281.866C328.837 281.709 329.044 281.497 329.098 281.281C329.148 281.082 328.794 278.5 328.248 275.072C327.733 271.845 327.359 269.161 327.418 269.11C327.476 269.059 328.167 268.764 328.953 268.454C332.143 267.197 339.094 263.831 341.735 262.263C342.408 261.864 342.999 261.583 343.049 261.64C343.099 261.696 343.493 262.27 343.923 262.915C344.717 264.105 349.784 270.351 350.411 270.914C350.909 271.36 351.337 271.24 353.405 270.071C359.886 266.407 366.167 261.927 370.099 258.164C370.895 257.402 371.022 257.219 371.022 256.83C371.022 256.394 370.182 254.768 366.208 247.509C365.612 246.421 365.125 245.49 365.125 245.44C365.125 245.39 365.933 244.513 366.92 243.491C369.198 241.133 371.929 238.018 373.965 235.453C374.84 234.352 375.632 233.433 375.726 233.41C375.82 233.387 377.444 234.282 379.334 235.398C381.225 236.514 382.863 237.428 382.975 237.428C383.087 237.428 383.179 237.481 383.179 237.546C383.179 237.611 383.598 237.934 384.111 238.263C385.209 238.968 385.876 239.056 386.438 238.568C387.57 237.585 391.753 230.903 394.287 226.029C395.599 223.507 398.082 218.115 398.184 217.569C398.242 217.262 398.197 216.983 398.043 216.682C397.919 216.44 396.526 214.931 394.947 213.329L392.076 210.415L390.582 209.663C389.761 209.249 388.65 208.721 388.114 208.488C387.579 208.256 387.089 208.018 387.027 207.96C386.965 207.901 387.268 206.697 387.71 205.254C388.147 203.824 388.823 201.407 389.211 199.884C389.6 198.36 389.942 197.09 389.972 197.06C390.002 197.03 391.627 197.093 393.584 197.2C400.688 197.587 403.532 197.702 403.871 197.617C404.408 197.482 404.567 197.099 404.987 194.927C406.344 187.919 406.766 183.205 406.657 176.268C406.594 172.208 406.588 172.136 406.266 171.43C405.716 170.225 402.179 165.085 401.511 164.521C401.141 164.208 401.07 164.2 398.098 164.115C396.429 164.068 394.096 164.029 392.913 164.029L390.764 164.029L390.615 163.083C390.416 161.813 390.08 160.242 389.938 159.922C389.874 159.779 389.73 159.034 389.618 158.268C389.415 156.891 389.37 156.245 389.499 156.565C389.535 156.654 389.705 156.728 389.876 156.728C390.232 156.728 401.509 153.261 402.791 152.757C403.659 152.416 404.09 152.048 404.09 151.646C404.09 151.283 403.161 151.214 402.442 151.524C402.122 151.661 401.734 151.774 401.579 151.775C401.424 151.775 401.145 151.855 400.959 151.953C400.773 152.05 400.351 152.17 400.021 152.22C399.69 152.27 399.386 152.366 399.344 152.433C399.303 152.501 399.155 152.556 399.017 152.556C398.878 152.556 398.765 152.607 398.765 152.67C398.765 152.732 398.477 152.821 398.125 152.868C397.773 152.915 397.466 152.997 397.443 153.05C397.397 153.155 395.041 153.859 394.732 153.861C394.628 153.861 394.382 153.946 394.186 154.049C393.791 154.255 392.305 154.719 391.307 154.948C390.809 155.061 390.655 155.058 390.614 154.933C390.584 154.845 390.478 154.772 390.376 154.772C390.275 154.772 390.192 154.714 390.192 154.642C390.192 154.57 390.116 154.512 390.021 154.512C389.833 154.512 389.023 153.649 389.023 153.448C389.023 153.379 388.965 153.359 388.894 153.403C388.819 153.45 388.764 153.331 388.764 153.125C388.764 152.782 388.756 152.778 388.573 153.02C388.391 153.262 388.382 153.257 388.378 152.907C388.376 152.705 388.321 152.574 388.255 152.614C388.19 152.655 388.103 152.614 388.061 152.524C388.02 152.434 388.003 152.58 388.024 152.849C388.048 153.157 388.016 153.292 387.939 153.215C387.871 153.147 387.805 152.927 387.791 152.726C387.777 152.525 387.756 152.258 387.745 152.132C387.734 152.007 387.641 151.904 387.539 151.904C387.437 151.904 387.328 151.772 387.297 151.611C387.259 151.413 387.234 151.466 387.221 151.774C387.206 152.115 387.17 152.181 387.079 152.036C387.011 151.929 386.988 151.713 387.027 151.556C387.067 151.399 387.032 151.164 386.951 151.034C386.817 150.818 386.81 150.823 386.879 151.078C386.922 151.234 386.891 151.401 386.812 151.45C386.732 151.5 386.679 151.462 386.692 151.363C386.748 150.959 386.676 150.6 386.54 150.6C386.457 150.6 386.426 150.717 386.468 150.877C386.538 151.146 386.533 151.147 386.317 150.91C385.818 150.363 385.451 149.733 385.436 149.395C385.399 148.599 385.381 148.515 385.251 148.515C385.166 148.515 385.147 148.696 385.2 149.003C385.282 149.467 385.275 149.479 385.079 149.232C384.899 149.005 384.853 148.996 384.728 149.166C384.606 149.331 384.595 149.324 384.66 149.124C384.702 148.993 384.651 148.801 384.547 148.696C384.339 148.487 384.09 147.701 384.089 147.251C384.088 147.093 384.219 146.872 384.38 146.758C384.628 146.583 384.643 146.533 384.478 146.427C384.37 146.358 383.99 146.292 383.633 146.279C383.111 146.261 383.073 146.246 383.438 146.204C383.689 146.176 385.617 145.66 387.725 145.06C393.624 143.378 398.556 142.003 398.58 142.034C398.592 142.049 398.836 142.472 399.123 142.974C399.41 143.476 400.12 144.674 400.701 145.636C401.283 146.598 401.796 147.537 401.842 147.722C401.932 148.084 402.311 148.94 402.568 149.361C402.655 149.504 402.82 149.768 402.935 149.948C403.05 150.128 403.218 150.501 403.308 150.779C403.485 151.327 403.693 151.222 403.615 150.625C403.59 150.432 403.603 150.348 403.646 150.437C403.775 150.715 404.08 150.626 404.023 150.328C403.982 150.117 404.008 150.087 404.139 150.196C404.341 150.364 404.55 150.005 404.666 149.288C404.755 148.742 404.627 147.966 404.465 148.067C404.403 148.106 404.381 148.061 404.416 147.967C404.485 147.78 404.146 146.349 403.697 144.929C403.538 144.427 403.308 143.665 403.185 143.234C403.062 142.804 402.93 142.364 402.891 142.257C402.852 142.149 402.661 141.533 402.468 140.888C401.919 139.058 400.507 135.339 399.624 133.396C398.184 130.227 396.181 126.673 393.71 122.897C392.501 121.05 392.216 120.758 391.609 120.75C391.423 120.748 389.816 121.323 388.037 122.029C380.485 125.025 378.42 125.83 378.303 125.823C378.234 125.819 377.722 125.12 377.164 124.27C376.606 123.419 375.776 122.221 375.319 121.606L374.489 120.488L377.376 118.107C378.964 116.797 381.212 114.967 382.372 114.039C384.728 112.155 384.946 111.849 384.574 110.961C384.174 110.009 379.471 102.128 378.858 101.385C375.004 96.7099 367.871 89.9456 364.243 87.5246C363.575 87.0784 363.545 87.0715 363.139 87.2663C362.716 87.4692 360.759 89.2654 354.974 94.7592C353.213 96.4318 351.671 97.8002 351.547 97.8002C351.424 97.8002 350.819 97.4253 350.203 96.9672C349.099 96.1455 346.871 94.6698 345.281 93.7069L344.465 93.2128L345.891 90.4331C346.675 88.9043 347.609 87.1351 347.966 86.5015C348.755 85.1011 348.835 84.8046 348.586 84.2075C348.255 83.4127 343.661 76.8649 342.305 75.2559C341.741 74.5867 340.737 74.0787 336.388 72.2616C331.026 70.0211 325.451 68.0728 324.418 68.0784C323.479 68.0836 323.437 68.1457 321.58 72.2474C321.045 73.4305 319.953 75.8945 319.155 77.723C318.357 79.5515 317.657 81.1355 317.6 81.243C317.427 81.5704 316.662 81.5361 315.042 81.128C313.187 80.661 310.693 80.1766 308.535 79.864L306.951 79.6345L306.866 78.9069C306.616 76.7502 305.744 73.7802 304.554 71.0321C303.644 68.9301 301.2 64.4202 300.814 64.1308C300.576 63.9526 300.075 63.8733 298.56 63.7749C296.685 63.6531 288.98 63.621 288.413 63.7328ZM288.299 65.9244C286.441 69.3633 283.556 75.083 283.587 75.266C283.678 75.8045 292.53 85.0847 296.264 88.5567C297.706 89.8976 297.734 89.9341 297.693 90.4387C297.645 91.0283 297.843 90.8746 293.819 93.4471C292.498 94.2921 290.43 95.6172 289.225 96.3918C288.02 97.1664 286.982 97.8002 286.919 97.8002C286.553 97.8002 287.025 98.1387 288.84 99.1778C290.932 100.375 291.35 100.755 291.351 101.454C291.352 101.869 291.276 101.974 288.326 105.631L285.886 108.656L286.307 108.914C286.539 109.055 289.04 110.523 291.865 112.176C294.69 113.828 297.185 115.32 297.41 115.491C297.966 115.914 298.184 116.468 298.006 117.006C297.93 117.234 297.14 119.068 296.25 121.08C295.36 123.093 294.591 124.868 294.541 125.024C294.456 125.292 294.491 125.308 295.146 125.308C295.528 125.308 296.548 125.396 297.412 125.504C308.19 126.843 319.355 133.289 326.542 142.322C330.275 147.014 332.841 151.744 334.589 157.152C336.53 163.161 337.214 169.404 336.617 175.663C335.429 188.114 328.538 200.031 317.523 208.683C312.042 212.988 304.78 216.604 298.244 218.281C293.744 219.435 290.961 219.764 285.767 219.756C282.34 219.75 281.306 219.702 279.402 219.46C271.419 218.445 264.528 215.874 257.907 211.44C254.397 209.089 252.236 207.284 249.249 204.208C246.349 201.222 244.338 198.618 242.231 195.122C239.311 190.279 237.192 184.69 236.102 178.956C235.55 176.053 235.332 173.715 235.324 170.612C235.314 166.376 235.668 163.549 236.746 159.27C237.534 156.146 238.355 153.962 239.984 150.66C244.26 141.99 250.955 134.814 259.422 129.826C260.959 128.921 264.405 127.223 265.37 126.896L266.079 126.656L266.368 124.907C266.528 123.945 266.802 122.497 266.977 121.69C267.153 120.883 267.249 120.193 267.191 120.158C267.134 120.122 264.701 119.151 261.785 118.001C256.113 115.762 255.605 115.529 255.2 114.98C254.822 114.466 254.968 114.118 256.653 111.525C257.45 110.299 258.102 109.239 258.102 109.169C258.102 109.099 257.123 108.704 255.926 108.29C251.093 106.619 249.12 105.9 248.813 105.698C248.578 105.543 248.49 105.37 248.49 105.057C248.49 104.476 249.162 103.506 255.348 95.1517C256.453 93.659 257.306 92.3928 257.242 92.3377C257.075 92.1913 253.851 90.7382 249.984 89.0657C243.567 86.2906 242.723 85.8956 242.288 85.4667C241.875 85.059 241.866 85.0247 241.865 83.8961C241.864 83.2616 241.988 81.0228 242.139 78.9214C242.29 76.8198 242.385 75.0711 242.349 75.0354C242.205 74.8908 236.449 77.3156 233.8 78.637C232.914 79.0786 232.166 79.4639 232.137 79.4932C232.072 79.5576 232.756 81.0177 235.763 87.2401C237.028 89.8573 238.13 92.1981 238.211 92.4418C238.639 93.7212 238.18 94.7418 236.725 95.7497C234.584 97.2323 226.562 102.543 226.123 102.768C225.523 103.076 224.891 103.083 224.445 102.786C224.257 102.661 222.829 101.239 221.273 99.6253C217.357 95.567 214.686 92.8461 214.619 92.8461C214.467 92.8461 210.16 97.0733 208.443 98.9083C205.563 101.987 200.812 107.548 200.828 107.822C200.831 107.867 201.722 108.567 202.809 109.377C206.651 112.24 210.61 115.339 210.86 115.679C211.225 116.175 211.296 117.078 211.014 117.628C210.888 117.872 209.948 119.288 208.924 120.773C207.901 122.258 206.103 124.938 204.929 126.728C202.682 130.156 202.463 130.393 201.552 130.393C201.28 130.393 199.427 129.739 196.932 128.763C194.64 127.867 192.736 127.134 192.701 127.134C192.665 127.134 191.662 126.751 190.473 126.282C189.284 125.814 188.266 125.477 188.211 125.533C188.036 125.712 185.768 130.633 184.571 133.432C183.082 136.912 180.871 142.741 180.993 142.864C181.02 142.89 182.731 143.346 184.795 143.877C190.126 145.249 193.211 146.122 193.816 146.432C194.141 146.598 194.418 146.868 194.551 147.148C194.829 147.733 194.781 147.997 193.232 154.381C192.563 157.142 191.908 159.866 191.778 160.436C191.649 161.005 191.423 161.65 191.277 161.87C190.772 162.629 190.53 162.676 186.641 162.775C180.2 162.938 176.488 163.113 176.399 163.257C176.352 163.333 176.278 164.285 176.234 165.374C176.19 166.463 176.088 168.878 176.007 170.743C175.883 173.617 175.93 181.847 176.072 181.989C176.094 182.012 177.45 181.819 179.084 181.561C185.914 180.483 188.835 180.064 189.52 180.064C190.875 180.064 191.124 180.475 191.479 183.293C191.918 186.784 192.622 190.624 193.495 194.293C194.116 196.903 194.118 197.12 193.529 197.751C193.259 198.04 188.623 200.076 183.094 202.333C180.268 203.487 179.973 203.636 179.939 203.931C179.897 204.288 181.499 209.323 182.497 211.969C183.399 214.364 184.466 216.844 185.636 219.268L186.655 221.38L188.252 220.621C189.13 220.204 192.079 218.74 194.806 217.368C201.299 214.101 200.888 214.116 202.51 217.09C204.882 221.439 206.829 224.584 208.885 227.389C210.489 229.578 210.694 229.941 210.694 230.594C210.694 231.029 210.576 231.191 209.42 232.328C208.719 233.017 206.235 235.368 203.9 237.551C201.565 239.734 199.654 241.561 199.654 241.612C199.654 241.821 202.015 244.662 204.194 247.075C207.225 250.43 212.279 255.368 212.526 255.215C212.59 255.176 214.357 253.284 216.453 251.011C221.598 245.434 223.148 243.857 223.597 243.744C224.189 243.595 224.837 243.878 226.085 244.828C229.582 247.492 233.2 249.929 236.541 251.869C237.577 252.471 238.502 253.038 238.597 253.13C238.691 253.222 238.797 253.525 238.832 253.804C238.887 254.254 238.668 254.775 236.883 258.433C234.312 263.7 232.757 267.034 232.804 267.177C232.881 267.408 239.611 270.427 243.295 271.883C244.864 272.503 250.575 274.453 250.822 274.453C250.901 274.453 251.002 274.35 251.047 274.225C251.091 274.099 251.639 272.794 252.264 271.324C252.889 269.854 254.056 267.097 254.858 265.197C256.972 260.186 256.937 260.243 257.914 260.243C258.24 260.243 259.744 260.563 261.259 260.955C264.602 261.821 267.17 262.345 270.181 262.774C277.978 263.885 285.631 264.063 292.715 263.297C296.158 262.925 296.773 262.91 297.081 263.189C297.23 263.325 297.431 263.589 297.527 263.775C297.623 263.961 298.085 266.834 298.554 270.16C299.725 278.461 299.6 277.843 300.108 277.843C301.003 277.843 308.692 276.469 311.743 275.764C314.716 275.077 320.171 273.578 320.589 273.333C320.683 273.278 320.355 271.763 319.289 267.32C318.184 262.719 317.458 259.425 317.458 259.017C317.458 258.486 317.788 257.811 318.169 257.56C318.358 257.436 319.429 256.987 320.55 256.562C325.253 254.779 329.581 252.777 333.563 250.542C334.671 249.921 335.702 249.38 335.855 249.341C336.66 249.135 337.405 250.048 340.494 255.028C344.31 261.181 344.892 262.087 345.068 262.155C345.337 262.258 351.155 258.405 355.497 255.246C358.52 253.048 363.047 249.387 363.047 249.14C363.047 249.08 362.532 248.371 361.903 247.564C360.809 246.161 356.24 240.21 354.949 238.506C354.339 237.7 353.955 236.962 353.955 236.592C353.955 236.486 354.087 236.245 354.248 236.057C354.504 235.759 354.587 235.732 354.895 235.85C355.108 235.931 355.222 236.055 355.182 236.159C355.142 236.264 355.629 236.781 356.407 237.46C357.117 238.079 358.685 239.484 359.89 240.582C361.096 241.679 362.541 242.985 363.102 243.484L364.12 244.391L366.214 242.245C368.979 239.409 374.338 233.08 374.344 232.643C374.346 232.506 373.474 231.822 373.113 231.678C372.691 231.509 371.968 230.876 371.23 230.028C369.675 228.243 367.854 226.021 367.853 225.91C367.852 225.679 368.352 225.165 368.44 225.308C368.488 225.387 368.606 225.421 368.7 225.385C368.86 225.324 370.275 226.838 372.523 229.475C372.981 230.013 373.611 230.722 373.923 231.05C374.234 231.379 374.499 231.774 374.51 231.927C374.531 232.206 374.532 232.206 374.805 231.949C375.304 231.477 375.798 231.611 377.639 232.715C379.298 233.709 383.443 235.902 383.52 235.825C383.616 235.728 380.415 230.932 380.036 230.604C379.473 230.117 372.493 226.584 372.398 226.738C372.358 226.803 372.145 226.687 371.925 226.48C371.704 226.274 370.771 225.719 369.851 225.248C368.93 224.776 367.859 224.213 367.471 223.996C366.815 223.629 366.698 223.606 365.85 223.678C365.347 223.721 364.926 223.766 364.915 223.78C364.904 223.793 364.497 224.332 364.01 224.977C362.818 226.558 358.243 232.293 357.629 232.977C357.238 233.413 357.044 233.528 356.683 233.537C355.999 233.556 355.773 233.527 355.774 233.419C355.775 233.277 356.946 231.768 360.935 226.77C363.396 223.686 364.592 222.288 364.865 222.174C365.091 222.08 365.555 222.037 365.966 222.071C366.778 222.138 368.031 222.74 375.386 226.598C377.85 227.891 379.971 228.95 380.099 228.951C380.518 228.955 385.538 221.059 388.139 216.305C389.942 213.011 390.712 211.521 390.712 211.33C390.712 211.224 389.794 210.727 388.471 210.118C382.239 207.247 377.688 205.088 377.335 204.835C376.769 204.431 376.51 203.86 376.599 203.216C376.64 202.923 377.084 201.613 377.587 200.304C378.968 196.708 380.088 193.242 380.966 189.842C381.991 185.872 382.038 185.749 382.62 185.471C383.042 185.27 383.28 185.263 385.114 185.397C387.646 185.583 396.015 186.284 397.377 186.425C397.935 186.483 398.421 186.484 398.456 186.427C398.568 186.245 398.744 184.917 399.273 180.26C400.025 173.645 400.187 171.743 400.28 168.444L400.364 165.492L398.103 165.415C396.86 165.373 393.388 165.303 390.387 165.259C384.605 165.177 384.272 165.139 383.95 164.534C383.879 164.401 383.734 163.367 383.628 162.237C383.522 161.107 383.38 159.889 383.311 159.531C383.041 158.119 382.788 156.053 382.663 154.251C382.591 153.211 382.447 151.686 382.342 150.861C382.085 148.846 382.083 148.123 382.334 148.123C382.442 148.123 382.529 148.237 382.529 148.376C382.529 148.516 382.582 148.662 382.647 148.703C382.712 148.743 382.736 148.886 382.701 149.021C382.665 149.157 382.7 149.307 382.778 149.355C382.859 149.406 382.92 149.865 382.92 150.445C382.922 151.691 383.052 152.591 383.179 152.23C383.231 152.081 383.299 152.377 383.349 152.965C383.436 153.998 383.656 154.827 383.708 154.316C383.747 153.936 383.93 155.372 383.945 156.174C383.952 156.55 384.01 156.858 384.074 156.858C384.138 156.858 384.231 157.342 384.28 157.934C384.329 158.525 384.445 159.361 384.538 159.792C384.631 160.222 384.781 161.314 384.873 162.218L385.039 163.863L386.09 163.945C386.667 163.99 387.687 164.027 388.356 164.028L389.572 164.029L389.482 163.409C389.432 163.069 389.22 161.939 389.01 160.9C388.8 159.86 388.514 158.406 388.375 157.668C388.038 155.883 387.852 155.294 387.627 155.294C387.524 155.294 387.406 155.162 387.364 155C387.322 154.839 387.313 154.707 387.344 154.707C387.375 154.707 387.21 154.524 386.978 154.302C386.746 154.079 386.556 153.8 386.556 153.683C386.556 153.565 386.499 153.469 386.429 153.469C386.359 153.469 386.183 153.205 386.036 152.882C385.89 152.559 385.692 152.295 385.597 152.295C385.501 152.295 385.214 151.987 384.959 151.611C384.703 151.234 384.195 150.486 383.829 149.949C383.464 149.411 383.073 148.78 382.961 148.546C382.845 148.303 382.626 148.087 382.449 148.043C382.273 147.998 382.144 147.872 382.15 147.751C382.156 147.615 382.184 147.597 382.226 147.7C382.38 148.084 382.477 147.796 382.511 146.852C382.543 145.968 382.589 145.797 382.887 145.484C383.348 144.998 383.902 144.807 389.05 143.357C396.183 141.348 398.031 140.82 398.07 140.781C398.163 140.687 396.706 135.637 395.825 133C394.492 129.014 391.926 122.564 391.504 122.14C391.442 122.078 391.17 122.141 390.89 122.284C390.191 122.64 385.916 124.374 383.114 125.439C381.828 125.927 380.004 126.626 379.061 126.991C377.1 127.75 376.447 127.824 375.781 127.362C375.481 127.153 374.875 126.228 373.685 124.158C371.937 121.117 369.984 118.15 367.503 114.768C366.127 112.893 366.034 112.727 366.035 112.16C366.035 111.796 366.133 111.393 366.28 111.151C366.566 110.68 369.665 108.17 374.38 104.591C376.601 102.904 377.682 102.006 377.621 101.898C377.4 101.511 373.804 97.688 371.86 95.7751C369.045 93.0047 365.708 90.1019 363.888 88.8405L363.496 88.5686L360.382 91.5032C358.669 93.1172 356.273 95.3779 355.059 96.5267C353.845 97.6756 352.676 98.7253 352.461 98.8593C351.791 99.2783 351.105 99.1835 350.166 98.5422C349.714 98.2332 348.526 97.4196 347.526 96.7341C344.937 94.9598 342.371 93.4866 338.363 91.474C336.165 90.3703 334.797 89.6084 334.673 89.4186C334.371 88.9554 334.298 88.3576 334.477 87.8059C334.625 87.3503 336.984 82.8538 339.758 77.7385C340.357 76.6356 340.823 75.7096 340.794 75.6809C340.66 75.5466 334.986 73.0585 333.061 72.2899C330.75 71.367 324.953 69.3793 324.573 69.3793C324.311 69.3793 324.427 69.1381 321.343 76.0934C318.636 82.1973 318.66 82.1494 318.121 82.5114C317.518 82.9158 316.753 82.8953 314.885 82.4251C311.682 81.6184 307.782 81.0284 302.781 80.5943C301.103 80.4485 299.52 80.271 299.265 80.1997C298.732 80.051 298.318 79.6555 298.105 79.0919C297.898 78.545 298.067 76.9026 299.152 68.9347C299.435 66.8617 299.645 65.1451 299.62 65.12C299.52 65.019 292.712 64.8017 290.854 64.8403L288.863 64.8815L288.299 65.9244ZM300.148 71.1622C299.298 77.4906 299.192 78.6098 299.419 78.8327C299.603 79.0138 301.181 79.1927 304.098 79.3631L305.609 79.4515L305.564 79.1413C305.209 76.6963 304.85 75.3768 303.884 72.9562C303.25 71.3691 301.326 67.3962 300.932 66.86C300.781 66.6546 300.674 67.2413 300.148 71.1622ZM243.631 75.7348C243.491 77.0537 243.165 82.5665 243.165 83.6013C243.165 84.2435 243.223 84.6479 243.327 84.7328C243.498 84.8718 246.641 86.1971 246.8 86.1971C246.851 86.1971 246.932 85.5665 246.98 84.7956C247.029 84.0248 247.179 81.8981 247.314 80.0697C247.501 77.5376 247.524 76.7107 247.408 76.6005C247.269 76.4681 243.937 74.9852 243.779 74.9852C243.741 74.9852 243.674 75.3226 243.631 75.7348ZM340.447 79.1838C339.769 80.4862 338.609 82.6703 337.869 84.0374C336.14 87.2364 335.642 88.2292 335.642 88.4782C335.642 88.6099 336.33 89.0104 337.622 89.6311C338.712 90.1543 340.442 91.0366 341.468 91.5919C342.493 92.147 343.349 92.5831 343.369 92.5607C343.389 92.5384 344.023 91.2881 344.778 89.7823C345.533 88.2765 346.444 86.5085 346.803 85.8531L347.456 84.6617L347.156 84.2234C345.476 81.7666 341.87 76.8098 341.765 76.8131C341.719 76.8146 341.126 77.8814 340.447 79.1838ZM258.062 93.6609C257.424 94.4534 253.075 100.368 251.376 102.754C250.259 104.323 249.979 104.798 250.123 104.879C250.381 105.024 255.535 106.81 255.568 106.766C255.583 106.747 256.282 105.74 257.122 104.529C258.528 102.501 260.463 99.7733 262.298 97.2324C262.704 96.6692 263.037 96.1219 263.037 96.0164C263.037 95.9108 262.876 95.6661 262.68 95.4726C262.317 95.1152 258.891 93.1068 258.644 93.1068C258.569 93.1068 258.308 93.3562 258.062 93.6609ZM221.563 98.1295C221.861 98.4862 222.773 99.4431 223.59 100.256C224.756 101.418 225.138 101.725 225.374 101.69C225.896 101.614 225.792 101.391 224.893 100.661C224.412 100.27 223.548 99.5398 222.973 99.037C222.397 98.534 221.722 97.9782 221.473 97.8018L221.02 97.4811L221.563 98.1295ZM289.482 101.204C289.686 101.418 289.875 101.53 289.901 101.452C289.966 101.255 289.706 100.971 289.382 100.886C289.143 100.823 289.155 100.862 289.482 101.204ZM376.925 104.275C371.893 108.13 368.364 110.884 367.885 111.328C367.581 111.61 367.333 111.959 367.333 112.103C367.333 112.574 370.322 116.408 371.911 117.975C372.729 118.782 373.47 119.442 373.558 119.442C373.646 119.442 374.722 118.604 375.948 117.58C377.175 116.555 379.338 114.789 380.755 113.655C382.755 112.054 383.318 111.538 383.269 111.351C383.184 111.027 378.59 103.152 378.484 103.148C378.437 103.147 377.736 103.654 376.925 104.275ZM257.908 111.93C257.086 113.18 256.413 114.261 256.413 114.332C256.413 114.402 256.486 114.489 256.575 114.525C256.665 114.56 258.132 115.153 259.836 115.842C261.54 116.531 263.009 117.095 263.1 117.095C263.192 117.095 263.47 116.758 263.719 116.345C263.968 115.933 264.442 115.149 264.773 114.604C265.104 114.058 265.375 113.548 265.375 113.47C265.375 113.354 260.686 110.333 259.694 109.809C259.416 109.663 259.333 109.762 257.908 111.93ZM289.403 112.322C289.403 112.457 295.198 116.752 296.269 117.411C296.48 117.54 296.672 117.288 296.675 116.879C296.677 116.552 295.866 116.005 292.456 114.036C291.241 113.334 290.058 112.646 289.825 112.505C289.593 112.365 289.403 112.283 289.403 112.322ZM208.03 115.385C208.887 116.254 209.646 116.946 209.719 116.922C209.791 116.898 209.85 116.755 209.85 116.604C209.85 116.406 209.389 115.986 208.162 115.067L206.473 113.804L208.03 115.385ZM268.372 121.43C268.088 122.836 267.474 126.169 267.432 126.531C267.393 126.861 267.811 127.381 270.895 130.848L274.402 134.789L274.479 131.581C274.558 128.302 274.654 127.577 275.432 124.36L275.614 123.608L275.138 123.405C274.876 123.293 273.96 122.918 273.103 122.571C272.246 122.225 270.908 121.672 270.129 121.343C269.351 121.015 268.668 120.745 268.612 120.745C268.556 120.745 268.448 121.053 268.372 121.43ZM374.81 123.418C376.132 125.842 376.645 126.565 376.879 126.33C376.946 126.263 374.778 122.976 374.441 122.636C374.37 122.564 374.536 122.916 374.81 123.418ZM294.988 126.589C294.988 126.651 299.026 132.28 299.879 133.408L300.434 134.142L301.446 134.233C302.546 134.332 305.444 134.741 306.483 134.944C313.285 136.271 320.538 139.827 325.823 144.427C326.387 144.918 327.029 145.467 327.25 145.646L327.651 145.972L327.335 145.516C325.39 142.704 322.787 139.806 320.136 137.501C313.749 131.948 306.273 128.27 298.82 127.013C297.194 126.739 294.988 126.495 294.988 126.589ZM266.024 128.01C265.111 128.356 261.76 129.998 260.504 130.715C250.622 136.353 242.584 145.909 239.026 156.248C237.381 161.028 236.674 165.266 236.672 170.37C236.67 174.351 236.99 177.074 237.917 180.977C238.481 183.351 238.877 184.668 239.624 186.648C242.813 195.107 248.025 202.141 255.566 208.165C256.082 208.577 256.16 208.611 255.955 208.335C255.814 208.145 255.106 207.206 254.381 206.249C252.669 203.987 251.834 202.64 250.514 200.011C247.884 194.774 246.414 189.935 245.604 183.845C245.346 181.903 245.389 175.177 245.672 173.22C247.236 162.415 251.469 153.944 259.128 146.296C263.213 142.218 267.76 139.081 272.368 137.164C273.305 136.774 274.073 136.417 274.074 136.37C274.076 136.323 273.367 135.502 272.5 134.545C271.633 133.588 269.957 131.705 268.775 130.36C267.593 129.016 266.535 127.921 266.423 127.926C266.311 127.932 266.132 127.97 266.024 128.01ZM396.039 129.356C396.038 129.395 396.413 130.568 396.872 131.963C397.331 133.358 398.129 135.996 398.645 137.824L399.584 141.149L401.205 143.924C402.096 145.45 402.842 146.681 402.864 146.66C402.926 146.597 402.145 143.801 401.938 143.345C401.836 143.119 401.752 142.875 401.752 142.802C401.752 142.729 401.708 142.65 401.655 142.626C401.601 142.602 401.448 142.143 401.314 141.605C400.81 139.573 399.031 135.084 397.604 132.243C396.775 130.593 396.043 129.242 396.039 129.356ZM182.521 144.708C182.55 144.94 188.442 150.22 189.978 151.391C191.082 152.232 192.138 152.854 192.251 152.728C192.54 152.405 193.502 147.762 193.317 147.577C193.248 147.508 192.995 147.404 192.754 147.347C192.055 147.181 183.807 144.997 183.127 144.798C182.787 144.699 182.515 144.658 182.521 144.708ZM384.808 148.375C384.767 148.442 384.793 148.533 384.865 148.578C384.938 148.623 384.997 148.569 384.997 148.457C384.997 148.228 384.919 148.194 384.808 148.375ZM384.867 149.599C384.867 149.702 384.955 149.859 385.062 149.949C385.169 150.038 385.257 150.165 385.257 150.231C385.257 150.297 385.316 150.422 385.389 150.508C385.894 151.109 386.036 151.306 386.036 151.403C386.036 151.463 386.095 151.513 386.166 151.513C386.369 151.513 386.32 151.327 386.036 151.022C385.893 150.868 385.776 150.687 385.776 150.62C385.776 150.553 385.689 150.464 385.582 150.423C385.474 150.382 385.387 150.258 385.387 150.148C385.387 150.038 385.328 149.949 385.257 149.949C385.185 149.949 385.127 149.864 385.127 149.761C385.127 149.657 385.069 149.537 384.997 149.492C384.926 149.448 384.867 149.496 384.867 149.599ZM386.296 151.749C386.296 151.807 386.398 151.969 386.523 152.108C386.648 152.247 386.866 152.581 387.007 152.849C387.149 153.118 387.302 153.338 387.349 153.338C387.395 153.338 387.506 153.514 387.595 153.729C387.683 153.944 387.807 154.12 387.87 154.12C387.933 154.12 387.984 154.21 387.984 154.32C387.984 154.43 388.072 154.554 388.179 154.595C388.286 154.636 388.374 154.752 388.374 154.851C388.374 154.951 388.432 155.033 388.504 155.033C388.575 155.033 388.634 155.121 388.634 155.229C388.634 155.336 388.692 155.424 388.764 155.424C388.835 155.424 388.894 155.389 388.894 155.346C388.894 155.194 388.446 154.512 388.346 154.512C388.29 154.512 388.244 154.422 388.244 154.312C388.244 154.202 388.156 154.078 388.049 154.037C387.942 153.996 387.855 153.88 387.855 153.779C387.855 153.679 387.738 153.496 387.595 153.373C387.452 153.25 387.335 153.108 387.335 153.057C387.335 152.887 386.518 151.643 386.406 151.643C386.346 151.643 386.296 151.691 386.296 151.749ZM387.335 152.288C387.335 152.427 387.393 152.577 387.464 152.621C387.539 152.667 387.581 152.561 387.566 152.368C387.534 151.981 387.335 151.912 387.335 152.288ZM387.725 154.681C387.725 154.875 387.783 155.033 387.855 155.033C387.926 155.033 387.984 155.125 387.984 155.236C387.984 155.348 388.041 155.405 388.109 155.362C388.188 155.313 388.178 155.152 388.085 154.931C387.853 154.384 387.725 154.294 387.725 154.681ZM401.565 169.071C401.418 172.65 400.857 178.357 400.121 183.759C399.64 187.282 399.6 187.008 401.016 189.834C401.683 191.165 402.513 192.885 402.861 193.657C403.228 194.469 403.53 194.99 403.58 194.895C403.805 194.469 404.642 189.459 404.927 186.844C405.441 182.113 405.534 173.516 405.086 172.076C404.936 171.593 402.35 167.644 401.752 166.985C401.698 166.926 401.614 167.864 401.565 169.071ZM185.887 181.821C183.779 182.13 181.061 182.566 179.847 182.788C178.633 183.011 177.503 183.193 177.336 183.193C177.169 183.193 177.052 183.246 177.076 183.311C177.171 183.568 181.532 188.162 182.666 189.199C185.415 191.714 185.529 191.798 186.203 191.798C186.81 191.798 191.378 191.409 191.437 191.353C191.454 191.337 191.293 190.363 191.078 189.19C190.744 187.36 190.3 184.43 189.977 181.922C189.928 181.546 189.85 181.242 189.803 181.248C189.757 181.253 187.994 181.511 185.887 181.821ZM383.958 186.636C383.958 186.665 385.075 188.411 386.44 190.514C387.805 192.619 389.114 194.639 389.35 195.004L389.778 195.668L391.641 195.757C392.666 195.806 395.549 195.958 398.047 196.096C400.546 196.233 402.609 196.326 402.633 196.302C402.657 196.278 401.757 194.374 400.633 192.07C399.05 188.822 398.53 187.868 398.32 187.825C398.172 187.795 396.209 187.618 393.959 187.432C391.709 187.247 388.599 186.979 387.048 186.839C383.971 186.56 383.958 186.559 383.958 186.636ZM382.843 187.847C381.946 191.71 380.847 195.298 379.216 199.685C378.549 201.478 377.965 203.102 377.917 203.295C377.835 203.624 377.885 203.674 378.718 204.095C379.68 204.581 385.505 207.312 385.58 207.312C385.807 207.312 388.634 197.342 388.634 196.539C388.634 196.273 386.471 192.785 384.174 189.346C383.01 187.604 382.922 187.505 382.843 187.847ZM390.257 215.11C388.28 218.838 385.903 222.833 383.337 226.737L381.325 229.801L381.65 230.388C382.436 231.803 385.795 236.776 385.965 236.776C386.313 236.776 389.855 231.375 391.78 227.911C393.63 224.578 396.816 217.915 396.816 217.377C396.816 217.105 394.31 214.41 392.776 213.033L391.816 212.171L390.257 215.11ZM194.004 219.24C190.647 220.922 187.841 222.326 187.77 222.36C187.473 222.5 192.393 226.872 195.591 229.308C196.836 230.257 197.098 230.405 197.395 230.331C197.815 230.225 201.846 228.417 204.502 227.144C205.885 226.48 206.398 226.174 206.326 226.055C206.27 225.964 205.807 225.244 205.296 224.456C204.286 222.895 202.954 220.609 201.479 217.905C200.855 216.76 200.465 216.178 200.323 216.18C200.205 216.181 197.362 217.558 194.004 219.24ZM359.15 241.815C360.396 243.611 364.951 249.432 365.969 250.53C366.516 251.12 366.55 251.138 366.321 250.725C366.181 250.474 365.642 249.448 365.123 248.444C363.779 245.844 363.531 245.486 362.486 244.641C361.973 244.226 360.969 243.357 360.254 242.71C359.54 242.064 359.043 241.661 359.15 241.815ZM221.988 246.978C221.021 247.999 218.98 250.184 217.454 251.834C215.927 253.483 214.391 255.131 214.041 255.497L213.404 256.163L215.199 257.598C217.489 259.43 219.802 261.143 221.884 262.551L223.527 263.662L223.962 263.276C226.341 261.164 228.768 258.918 230.48 257.242L232.546 255.22L230.954 253.396C230.079 252.393 228.744 250.84 227.988 249.943C226.893 248.646 223.798 245.118 223.757 245.12C223.752 245.12 222.956 245.956 221.988 246.978ZM227.969 247.92C227.969 248.252 233.655 254.585 234.811 255.541C235.37 256.003 235.917 256.455 236.027 256.547C236.2 256.691 236.316 256.532 236.899 255.356L237.572 253.998L235.141 252.539C233.191 251.369 230.441 249.566 228.223 248.004C228.083 247.906 227.969 247.868 227.969 247.92ZM362.705 251.201C359.564 253.951 354.158 257.922 348.63 261.54C347.165 262.498 345.944 263.301 345.917 263.323C345.856 263.372 346.183 263.782 348.997 267.183L351.126 269.757L351.988 269.279C356.817 266.608 359.673 264.784 363.545 261.897C365.387 260.523 368.248 258.129 369.052 257.288L369.537 256.781L368.076 255.024C365.735 252.208 364.072 250.272 363.96 250.231C363.903 250.21 363.338 250.646 362.705 251.201ZM335.027 251.197C331.072 253.568 325.327 256.221 319.954 258.161C319.505 258.323 319.154 258.505 319.175 258.565C319.195 258.625 320.898 260.754 322.96 263.297L326.709 267.921L327.246 267.712C329.09 266.994 332.713 265.374 335.298 264.11C338.18 262.701 341.766 260.775 342.1 260.457C342.224 260.339 341.763 259.512 340.02 256.721C337.872 253.282 336.221 250.77 336.048 250.678C336.003 250.654 335.544 250.888 335.027 251.197ZM319.493 262.557C319.736 263.614 320.337 266.152 320.829 268.195C321.321 270.239 321.788 272.229 321.867 272.618C322.001 273.275 322.117 273.434 323.533 274.9C324.371 275.767 325.604 277.084 326.275 277.827L327.493 279.179L327.399 278.413C327.347 277.992 327.104 276.356 326.859 274.779C326.613 273.201 326.315 271.273 326.197 270.495C326.028 269.389 325.908 268.982 325.648 268.641C325.466 268.4 324.118 266.729 322.653 264.927C321.189 263.125 319.815 261.424 319.601 261.147C319.387 260.87 319.175 260.641 319.131 260.638C319.087 260.636 319.25 261.499 319.493 262.557ZM259.092 261.963C259.145 262.05 259.777 262.948 260.496 263.959C261.215 264.971 262.68 267.065 263.751 268.613L265.7 271.428L266.609 271.702C269.233 272.492 273.791 273.461 277.064 273.923C283.491 274.831 288.843 275.015 295.604 274.562L297.842 274.412L297.774 273.944C297.736 273.686 297.418 271.429 297.066 268.928C296.715 266.427 296.395 264.349 296.356 264.31C296.317 264.271 295.395 264.338 294.306 264.46C290.894 264.84 289.443 264.936 285.832 265.02C277.503 265.214 268.665 264.231 260.999 262.259C259.039 261.755 258.955 261.742 259.092 261.963ZM257.408 262.552C257.306 262.752 256.692 264.176 256.044 265.718C255.395 267.26 254.228 270.025 253.45 271.864L252.036 275.207L255.711 278.641C257.733 280.53 259.435 282.091 259.494 282.111C259.687 282.176 262.135 277.47 263.873 273.693C264.603 272.106 264.609 272.081 264.387 271.737C264.263 271.546 263.335 270.216 262.325 268.782C261.315 267.348 259.892 265.312 259.163 264.258C258.434 263.204 257.783 262.307 257.716 262.266C257.648 262.224 257.51 262.353 257.408 262.552ZM235.569 270.817C236.354 271.613 237.697 272.905 238.554 273.688C239.907 274.923 240.327 275.22 241.736 275.942C243.768 276.982 245.509 277.769 248.162 278.844C251.127 280.047 257.676 282.225 257.172 281.841C257.053 281.751 255.603 280.389 253.95 278.815C251.876 276.84 250.795 275.901 250.464 275.787C243.997 273.567 238.048 271.24 235.342 269.875C234.79 269.596 234.295 269.369 234.241 269.369C234.187 269.369 234.785 270.02 235.569 270.817ZM320.835 274.601C320.155 274.876 316.509 275.902 313.988 276.528C310.913 277.291 307.793 277.921 303.572 278.633C301.899 278.915 300.51 279.167 300.484 279.192C300.389 279.288 304.021 283.945 305.263 285.319L305.834 285.951L307.847 285.673C314.171 284.799 319.501 283.589 324.667 281.856C325.952 281.424 327.077 281.032 327.165 280.984C327.272 280.927 326.897 280.431 326.061 279.522C325.366 278.766 324.037 277.316 323.108 276.3C322.179 275.285 321.361 274.458 321.29 274.462C321.218 274.466 321.014 274.529 320.835 274.601Z" fill="white"/>
<path d="M98.02 251C93.6867 251 90.6533 250.22 88.92 248.66C87.1867 247.1 86.32 244.413 86.32 240.6V214.08H10.4C5.37333 214.08 2.86 211.653 2.86 206.8V191.72C2.86 188.773 3.12 186.607 3.64 185.22C4.16 183.66 5.37333 181.753 7.28 179.5L89.18 80.18C91.26 77.7533 92.9933 76.1933 94.38 75.5C95.94 74.6333 98.3667 74.2 101.66 74.2H117.52C121.853 74.2 124.887 75.1533 126.62 77.06C128.353 78.7933 129.22 81.6533 129.22 85.64V182.62H144.82C148.98 182.62 151.84 183.487 153.4 185.22C154.96 186.953 155.74 189.813 155.74 193.8V203.16C155.74 207.147 154.96 210.007 153.4 211.74C151.84 213.3 148.98 214.08 144.82 214.08H129.22V240.6C129.22 244.413 128.353 247.1 126.62 248.66C124.887 250.22 121.853 251 117.52 251H98.02ZM94.64 182.62V122.04L46.28 182.62H94.64Z" fill="white"/>
</svg>
