<svg viewBox="0 0 20 20" fill="none" xmlns="http://www.w3.org/2000/svg">
<path d="M17 8.06603V3.82604L15.3013 5.52604C14.2598 4.312 12.8342 3.49172 11.2618 3.2018C9.68938 2.91189 8.06521 3.16985 6.65978 3.93272C5.25434 4.69559 4.15248 5.91732 3.53771 7.39441C2.92295 8.87151 2.8324 10.5148 3.28114 12.0506C3.72988 13.5864 4.69082 14.922 6.00392 15.8349C7.31701 16.7478 8.90299 17.1829 10.4977 17.0678C12.0924 16.9527 13.5996 16.2943 14.7681 15.2022C15.9367 14.1101 16.6962 12.6504 16.9201 11.066H15.5112C15.29 12.3308 14.6435 13.4818 13.6789 14.3284C12.7143 15.1749 11.4895 15.6661 10.2077 15.7203C8.92592 15.7746 7.66408 15.3888 6.63146 14.6269C5.59883 13.8649 4.85746 12.7726 4.53029 11.5311C4.20312 10.2896 4.3098 8.97349 4.83264 7.80099C5.35548 6.62849 6.26308 5.67006 7.40491 5.08465C8.54675 4.49923 9.85423 4.322 11.1105 4.58235C12.3668 4.84269 13.4965 5.52497 14.3121 6.51603L12.7633 8.06603H17Z" fill="CurrentColor"/>
</svg>
