<svg viewBox="0 0 20 20" fill="none" xmlns="http://www.w3.org/2000/svg">
<path d="M16.3383 8.73415L16.4525 8.62082C17.1237 7.94757 17.5006 7.03567 17.5006 6.08499C17.5006 5.13431 17.1237 4.22241 16.4525 3.54915C15.7796 2.87733 14.8675 2.5 13.9167 2.5C12.9658 2.5 12.0537 2.87733 11.3808 3.54915L3.54915 11.3808C2.87733 12.0537 2.5 12.9658 2.5 13.9167C2.5 14.8675 2.87733 15.7796 3.54915 16.4525C4.22241 17.1237 5.13431 17.5006 6.08499 17.5006C7.03567 17.5006 7.94757 17.1237 8.62082 16.4525L13.9133 11.1558C14.1861 10.8819 14.3716 10.5333 14.4466 10.1541C14.5216 9.77488 14.4827 9.38194 14.3348 9.02479C14.1869 8.66764 13.9366 8.36226 13.6154 8.14712C13.2942 7.93198 12.9166 7.81671 12.53 7.81582C12.0111 7.81613 11.5136 8.02233 11.1467 8.38915L5.59915 13.9358" stroke="CurrentColor" stroke-width="1.5" stroke-miterlimit="10" stroke-linecap="round" stroke-linejoin="round"/>
</svg>
