<svg viewBox="0 0 26 26" fill="none" xmlns="http://www.w3.org/2000/svg">
<path d="M21.1821 3.24611C20.9213 3.26545 20.6653 3.32663 20.424 3.42729H20.4207C20.1892 3.51911 19.0882 3.98223 17.4145 4.68423L11.4166 7.21029C7.11281 9.02217 2.88213 10.8064 2.88213 10.8064L2.9325 10.7869C2.9325 10.7869 2.64081 10.8828 2.33613 11.0916C2.14746 11.2108 1.98539 11.3677 1.86 11.5523C1.7105 11.7717 1.59025 12.1072 1.63494 12.4542C1.70806 13.0408 2.08831 13.3926 2.36131 13.5868C2.63756 13.7834 2.90081 13.8752 2.90081 13.8752H2.90731L6.87475 15.2118C7.05269 15.783 8.08375 19.1727 8.33156 19.9535C8.47781 20.4199 8.62 20.7116 8.79794 20.9342C8.88298 21.048 8.98562 21.143 9.10587 21.2194C9.16833 21.257 9.23556 21.2859 9.30575 21.3055L9.26512 21.2958C9.27731 21.299 9.28706 21.3088 9.296 21.312C9.3285 21.321 9.35044 21.3242 9.39187 21.3307C10.0199 21.5209 10.5245 21.1309 10.5245 21.1309L10.5529 21.1081L12.8954 18.9753L16.8214 21.9872L16.9107 22.0254C17.7289 22.3845 18.5577 22.1847 18.9956 21.832C19.4368 21.477 19.6082 21.0228 19.6082 21.0228L19.6367 20.9497L22.6706 5.40736C22.7567 5.02386 22.7786 4.66473 22.6836 4.31617C22.586 3.96315 22.3596 3.65959 22.049 3.46548C21.7886 3.30704 21.4865 3.23061 21.1821 3.24611ZM21.1 4.91173C21.0967 4.96292 21.1065 4.95723 21.0837 5.05554V5.06448L18.0783 20.4451C18.0653 20.467 18.0434 20.515 17.9832 20.5629C17.9199 20.6133 17.8695 20.645 17.6054 20.5402L12.8036 16.8587L9.90294 19.5026L10.5123 15.6107L18.3578 8.29823C18.6812 7.99761 18.5731 7.93423 18.5731 7.93423C18.5959 7.56536 18.0848 7.82617 18.0848 7.82617L8.19181 13.9549L8.18856 13.9386L3.44681 12.342V12.3388L3.43463 12.3364L3.459 12.3266L3.485 12.3136L3.51019 12.3047C3.51019 12.3047 7.74412 10.5204 12.0479 8.70854C14.2027 7.80098 16.3737 6.88692 18.0434 6.18167C19.0336 5.76486 20.0249 5.35048 21.0171 4.93854C21.0837 4.91254 21.0521 4.91173 21.1 4.91173Z" fill="CurrentColor"/>
</svg>
