<svg xmlns="http://www.w3.org/2000/svg" viewBox="0 0 30 30" fill="none">
  <path fill-rule="evenodd" clip-rule="evenodd" d="M6.83667 6.83667C7.01246 6.66111 7.25074 6.5625 7.49918 6.5625C7.74761 6.5625 7.98589 6.66111 8.16168 6.83667L23.1617 21.8367C23.2538 21.9225 23.3277 22.026 23.3789 22.141C23.4301 22.256 23.4577 22.3801 23.4599 22.506C23.4621 22.6319 23.439 22.7569 23.3918 22.8737C23.3447 22.9904 23.2745 23.0965 23.1855 23.1855C23.0965 23.2745 22.9904 23.3447 22.8737 23.3918C22.7569 23.439 22.6319 23.4621 22.506 23.4599C22.3801 23.4577 22.256 23.4301 22.141 23.3789C22.026 23.3277 21.9225 23.2538 21.8367 23.1617L6.83667 8.16168C6.66111 7.98589 6.5625 7.74761 6.5625 7.49918C6.5625 7.25074 6.66111 7.01246 6.83667 6.83667Z" fill="CurrentColor"/>
  <path fill-rule="evenodd" clip-rule="evenodd" d="M23.1626 6.83667C23.3381 7.01246 23.4367 7.25074 23.4367 7.49918C23.4367 7.74761 23.3381 7.98589 23.1626 8.16168L8.16255 23.1617C7.98483 23.3273 7.74978 23.4174 7.5069 23.4131C7.26402 23.4089 7.03229 23.3105 6.86052 23.1387C6.68876 22.9669 6.59037 22.7352 6.58608 22.4923C6.5818 22.2495 6.67195 22.0144 6.83755 21.8367L21.8376 6.83667C22.0133 6.66111 22.2516 6.5625 22.5001 6.5625C22.7485 6.5625 22.9868 6.66111 23.1626 6.83667Z" fill="CurrentColor"/>
</svg>