<svg width="492" height="626" viewBox="0 0 492 626" fill="none" xmlns="http://www.w3.org/2000/svg">
<path d="M211.509 1.33591C297.919 -6.02332 376.091 16.4166 431.369 83.7523C524.327 196.985 506.338 349.351 393.322 440.525C398.068 451.453 402.365 461.837 406.236 473.09C423.88 524.379 408.321 592.644 361.981 625.441C349.715 611.939 333.392 596.776 320.258 582.876C348.955 534.083 354.72 500.567 319.31 450.179C311.908 439.645 299.008 430.331 299.004 417.476C305.122 412.671 318.485 406.235 325.901 402.151C427.397 346.255 447.846 236.392 393.189 142.346C384.172 128.499 375.785 118.942 363.417 107.624C330.331 76.8516 285.796 60.4565 240.025 62.2014C66.0344 67.4062 6.35844 297.494 145.529 391.048C160.74 401.272 182.084 409.918 195.105 421.783C176.468 441.75 170.271 453.986 154.139 474.376C74.9509 437.529 15.5594 368.942 2.88843 283.048C-7.44944 215.741 10.2049 147.204 51.9581 92.5589C90.3999 42.6036 147.885 9.73471 211.509 1.33591Z" fill="#FF6E00"/>
<path d="M166.87 202.779C237.174 206.089 275.657 247.328 342.779 232.564C354.229 230.046 371.622 221.245 383.051 216.211C381.387 262.453 379.835 296.914 348.134 335.049C324.748 363.181 291.511 379.234 254.385 382.7C260.26 449.675 301.624 452.778 300.408 528.22C295.226 552.862 270.904 575.632 243.4 573.299C207.681 570.272 182.279 536.493 190.538 501.307C201.431 454.899 232.358 433.379 235.094 382.673C189.089 374.394 159.699 362.05 133.431 322.427C112.009 290.117 107.869 260.111 110.244 222.324C127.905 208.147 144.927 203.996 166.87 202.779Z" fill="#216AFF"/>
</svg>
