<svg xmlns="http://www.w3.org/2000/svg" viewBox="0 0 155 41" fill="none">
  <path fill-rule="evenodd" clip-rule="evenodd" d="M10.7679 6.70391C13.6595 6.69129 16.5956 7.30012 18.6946 9.44911C21.6689 12.4942 21.1608 17.0765 21.1604 20.9896L21.1704 31.1564C19.9845 31.1922 18.6939 31.1684 17.4996 31.1676L17.5176 27.8272C14.3684 31.269 10.3062 32.3941 5.79031 31.2415C3.51599 30.6609 1.89294 29.3942 0.73085 27.3254C-0.026349 25.6341 -0.228202 23.6874 0.281376 21.9089C2.33406 14.7456 12.3624 15.765 17.5629 17.1652C17.494 16.3115 17.401 15.2265 17.2049 14.4305C15.846 8.9132 8.49902 9.64601 4.5356 11.3051C4.07466 11.4981 3.5797 11.6468 3.10107 11.7692C2.83565 10.787 2.44782 9.72539 2.15963 8.7039C5.4502 7.40207 6.66914 6.97882 10.2364 6.73143C10.413 6.71355 10.5905 6.70438 10.7679 6.70391ZM17.4913 20.1907C15.6082 19.4629 11.8127 18.9144 9.82666 19.158C6.87077 19.365 3.50784 20.671 3.7983 24.3268C3.88648 25.4529 4.4164 26.4959 5.26901 27.2209C6.90711 28.622 9.61569 28.9116 11.6452 28.4685C13.6818 28.0102 15.4236 27.1619 16.6218 25.3312C17.6606 23.7443 17.511 22.0164 17.4913 20.1907Z" fill="#FF6E00"/>
  <path fill-rule="evenodd" clip-rule="evenodd" d="M87.6775 6.71295C90.5322 6.70731 93.574 7.2928 95.6929 9.38802C98.7555 12.4166 98.1665 16.895 98.1656 20.8694L98.1722 31.17L94.6477 31.1674L94.6063 27.7793C93.6899 28.7215 92.8449 29.5346 91.7083 30.2099C88.0774 32.3667 82.6541 32.1951 79.3732 29.4194C78.6761 28.8294 78.2339 28.1139 77.7785 27.3323C77.0672 25.8313 76.8593 24.1347 77.1867 22.5021C78.5181 15.592 87.4159 15.5555 92.6802 16.718C93.3379 16.8631 93.9965 16.9963 94.6561 17.1309C94.4011 9.983 89.0681 9.26949 83.3268 10.7133C82.2871 10.9748 81.27 11.4329 80.2454 11.7715C79.8117 10.844 79.4721 9.7675 79.1381 8.79042C82.2854 7.42614 83.8848 6.94908 87.3398 6.73161C87.4517 6.71966 87.5646 6.71342 87.6775 6.71295ZM94.6345 20.2267C92.7687 19.4981 88.7323 18.8671 86.7697 19.1565C84.9227 19.3315 83.0024 19.7681 81.7483 21.3011C81.0323 22.166 80.6915 23.2883 80.8025 24.4128C81.1469 28.1965 85.7752 29.109 88.7841 28.4403C90.8089 27.9552 92.6381 27.0169 93.7625 25.1761C94.7946 23.4869 94.5978 22.109 94.6345 20.2267Z" fill="#FF6E00"/>
  <path fill-rule="evenodd" clip-rule="evenodd" d="M127.124 6.62587C130.199 6.38929 133.081 7.25371 135.372 9.37919C138.044 11.8574 139.111 15.5433 139.267 19.1199C139.286 19.5528 139.301 20.1686 138.988 20.5046C138.716 20.7958 122.098 20.6203 120.146 20.6773C120.467 22.2142 120.786 23.3856 121.629 24.7389C122.759 26.5201 124.537 27.7744 126.575 28.2276C129.356 28.8606 131.873 28.2101 134.234 26.6933C134.904 26.1808 135.442 25.6627 136.054 25.0864C136.919 25.7642 137.545 26.4957 138.548 27.0792L138.529 27.1026C134.407 32.3004 126.016 33.3018 120.902 29.0735C118.447 27.0021 116.901 24.026 116.601 20.7977C115.903 13.7497 119.822 7.35956 127.072 6.63304C127.093 6.62931 127.1 6.62779 127.124 6.62587ZM135.412 17.5854C135.079 12.8996 131.942 9.39598 127.143 9.77376C123.748 10.3513 121.536 12.584 120.583 15.9704C120.43 16.5154 120.384 16.8806 120.186 17.4325L120.254 17.5369C120.894 17.6706 122.5 17.6239 123.226 17.6233L128.465 17.6163C130.718 17.6169 133.179 17.6605 135.412 17.5854Z" fill="#216AFF"/>
  <path d="M35.5156 6.91129C40.0282 6.50932 44.1107 7.735 46.9975 11.4129C51.8521 17.5977 50.9126 25.92 45.0105 30.8999C45.2584 31.4968 45.4828 32.0639 45.685 32.6786C46.6064 35.48 45.7938 39.2086 43.3738 41C42.7332 40.2625 41.8808 39.4343 41.1949 38.6751C42.6935 36.01 42.9946 34.1793 41.1454 31.4272C40.7588 30.8518 40.0851 30.3431 40.0849 29.6409C40.4044 29.3785 41.1023 29.027 41.4895 28.8039C46.79 25.7509 47.858 19.7501 45.0036 14.6133C44.5327 13.857 44.0947 13.3349 43.4488 12.7168C41.7209 11.036 39.3951 10.1405 37.0048 10.2358C27.9184 10.5201 24.8018 23.0875 32.0698 28.1974C32.8642 28.7559 33.9789 29.2281 34.6589 29.8762C33.6856 30.9668 33.362 31.6351 32.5195 32.7488C28.384 30.7362 25.2824 26.99 24.6206 22.2985C24.0808 18.6221 25.0027 14.8786 27.1832 11.8939C29.1908 9.16533 32.1929 7.37003 35.5156 6.91129Z" fill="#FF6E00"/>
  <path d="M53.2415 7.10753C54.4629 7.05935 55.6858 7.05772 56.9074 7.10265L56.9025 7.41189C56.8701 10.5038 56.8605 13.5958 56.8736 16.6879C56.8702 20.6939 56.1816 26.7252 61.3474 28.0216C63.728 28.6191 66.517 28.17 68.316 26.3528C69.2425 25.4136 69.898 24.2346 70.2115 22.9436C70.5891 21.3786 70.4566 18.0687 70.4552 16.3357L70.4621 7.08956C71.5263 7.07111 73.1804 7.01977 74.2 7.12665C74.2263 9.32774 74.1065 11.8143 74.1104 14.0992L74.1045 23.6555C74.1043 26.2015 74.0575 28.5588 74.2489 31.1011C73.2146 31.2292 71.534 31.1677 70.4619 31.154C70.4599 29.9027 70.4891 28.5896 70.3492 27.3521C68.2562 30.3836 66.0428 31.5775 62.3705 31.6623C58.0265 31.7627 54.3673 29.2075 53.4672 24.7867C53.0573 22.7739 53.2309 19.972 53.2319 17.8507L53.2415 7.10753Z" fill="#FF6E00"/>
  <path d="M104.754 0.0698612C105.778 -0.0364749 107.48 0.00953347 108.56 0.0119711L108.552 7.0649L116.171 7.09071L116.124 10.3335L108.567 10.3255L108.549 20.0708C108.549 21.4721 108.508 22.8936 108.551 24.2927C108.704 29.1917 112.837 28.3794 116.037 27.5475L116.029 30.5979L114.592 31.1813C112.918 31.6437 111.797 31.7922 110.052 31.5058C104.127 30.1349 104.87 25.3883 104.872 20.4593L104.886 10.3421C103.792 10.3318 102.697 10.3362 101.602 10.3553C101.563 9.28386 101.589 8.14948 101.597 7.07302L104.734 7.07513C104.788 4.80492 104.749 2.35374 104.754 0.0698612Z" fill="#216AFF"/>
  <path d="M33.1843 17.9142C36.8559 18.0949 38.8656 20.3474 42.371 19.541C42.9689 19.4035 43.8773 18.9227 44.4742 18.6478C44.3872 21.1735 44.3062 23.0558 42.6506 25.1388C41.4293 26.6753 39.6936 27.5522 37.7547 27.7414C38.0615 31.3996 40.2217 31.5691 40.1582 35.6898C39.8876 37.0357 38.6174 38.2795 37.181 38.152C35.3156 37.9867 33.9891 36.1416 34.4204 34.2198C34.9892 31.685 36.6044 30.5096 36.7473 27.74C34.3447 27.2878 32.8099 26.6136 31.4381 24.4494C30.3193 22.6846 30.1031 21.0456 30.2271 18.9817C31.1495 18.2073 32.0384 17.9806 33.1843 17.9142Z" fill="#216AFF"/>
  <path d="M142.58 0.029939C143.785 0.000668916 145.079 0.0254177 146.29 0.0273391L146.277 21.1819L146.286 27.4845C146.288 28.6025 146.332 30.066 146.258 31.1616C145.023 31.1707 143.787 31.1659 142.551 31.1473C142.607 26.8958 142.623 22.6439 142.598 18.3922L142.58 0.029939Z" fill="#216AFF"/>
  <path d="M151.281 0.0243482C152.493 0.00580341 153.75 0.0227614 154.966 0.0226945L154.961 19.5091C154.96 23.3622 154.91 27.3318 155 31.1689L151.264 31.1712L151.281 0.0243482Z" fill="#216AFF"/>
</svg>