<svg xmlns="http://www.w3.org/2000/svg" xmlns:xlink="http://www.w3.org/1999/xlink"><defs>
<clipPath id="clip0_566_2673">
<rect width="24" height="24" fill="white"/>
</clipPath>

<clipPath id="clip0_566_2668">
<rect width="24" height="24" fill="white"/>
</clipPath>

<clipPath id="clip0_566_2663">
<rect width="24" height="24" fill="white"/>
</clipPath>
</defs><symbol id="icon-arrow-right" viewBox="0 0 9 16"><g fill="none">
<path d="M-0.000601768 1.28386L1.25784 -0.000419617L8.11228 6.99892C8.22277 7.11107 8.31046 7.24444 8.3703 7.39135C8.43013 7.53825 8.46094 7.69579 8.46094 7.85491C8.46094 8.01402 8.43013 8.17156 8.3703 8.31847C8.31046 8.46537 8.22277 8.59874 8.11228 8.71089L1.25784 15.7139L0.000584602 14.4296L6.43396 7.85672L-0.000601768 1.28386Z" fill="white"/>
</g></symbol><symbol id="icon-arrow-top-right" viewBox="0 0 20 20"><g fill="none">
  <path d="M18.207 18.5V1H0.707031M18.207 1L0.707031 18.5" stroke="CurrentColor" stroke-width="2"/>
</g></symbol><symbol id="icon-attach" viewBox="0 0 20 20"><g fill="none">
<path d="M16.3383 8.73415L16.4525 8.62082C17.1237 7.94757 17.5006 7.03567 17.5006 6.08499C17.5006 5.13431 17.1237 4.22241 16.4525 3.54915C15.7796 2.87733 14.8675 2.5 13.9167 2.5C12.9658 2.5 12.0537 2.87733 11.3808 3.54915L3.54915 11.3808C2.87733 12.0537 2.5 12.9658 2.5 13.9167C2.5 14.8675 2.87733 15.7796 3.54915 16.4525C4.22241 17.1237 5.13431 17.5006 6.08499 17.5006C7.03567 17.5006 7.94757 17.1237 8.62082 16.4525L13.9133 11.1558C14.1861 10.8819 14.3716 10.5333 14.4466 10.1541C14.5216 9.77488 14.4827 9.38194 14.3348 9.02479C14.1869 8.66764 13.9366 8.36226 13.6154 8.14712C13.2942 7.93198 12.9166 7.81671 12.53 7.81582C12.0111 7.81613 11.5136 8.02233 11.1467 8.38915L5.59915 13.9358" stroke="CurrentColor" stroke-width="1.5" stroke-miterlimit="10" stroke-linecap="round" stroke-linejoin="round"/>
</g></symbol><symbol id="icon-breadcrumb" viewBox="0 0 6 9"><g fill="none">
  <path d="M0.5 0.5L4.5 4.5L0.5 8.5" stroke="CurrentColor" stroke-linecap="round"/>
</g></symbol><symbol id="icon-check" viewBox="0 0 10 7"><g fill="none">
<path d="M1 2.42857L4.13043 5L9 1" stroke="CurrentColor" stroke-width="2" stroke-linecap="round"/>
</g></symbol><symbol id="icon-cross" viewBox="0 0 16 16"><g fill="none">
  <path d="M15 1L1 15" stroke="CurrentColor" stroke-width="2" stroke-linecap="round"/>
  <path d="M1 1L15 15" stroke="CurrentColor" stroke-width="2" stroke-linecap="round"/>
</g></symbol><symbol id="icon-delete" viewBox="0 0 16 16"><g fill="none">
<path d="M12 4L4 12M4 4L12 12" stroke="#CE4242" stroke-width="2" stroke-linecap="round" stroke-linejoin="round"/>
</g></symbol><symbol id="icon-download" viewBox="0 0 20 20"><g fill="none">
<path d="M9.9987 12.834L5.83203 8.66732L6.9987 7.45898L9.16536 9.62565V2.83398H10.832V9.62565L12.9987 7.45898L14.1654 8.66732L9.9987 12.834ZM4.9987 16.1673C4.54036 16.1673 4.14814 16.0043 3.82203 15.6782C3.49592 15.352 3.33259 14.9595 3.33203 14.5007V12.0007H4.9987V14.5007H14.9987V12.0007H16.6654V14.5007C16.6654 14.959 16.5023 15.3515 16.1762 15.6782C15.8501 16.0048 15.4576 16.1679 14.9987 16.1673H4.9987Z" fill="CurrentColor"/>
</g></symbol><symbol id="icon-loc" viewBox="0 0 24 24"><g fill="none">
<g clip-path="url(#clip0_566_2673)">
<path d="M12 2C8.13 2 5 5.13 5 9C5 10.74 5.5 12.37 6.41 13.84C7.36 15.38 8.61 16.7 9.57 18.24C10.04 18.99 10.38 19.69 10.74 20.5C11 21.05 11.21 22 12 22C12.79 22 13 21.05 13.25 20.5C13.62 19.69 13.95 18.99 14.42 18.24C15.38 16.71 16.63 15.39 17.58 13.84C18.5 12.37 19 10.74 19 9C19 5.13 15.87 2 12 2ZM12 11.75C10.62 11.75 9.5 10.63 9.5 9.25C9.5 7.87 10.62 6.75 12 6.75C13.38 6.75 14.5 7.87 14.5 9.25C14.5 10.63 13.38 11.75 12 11.75Z" fill="white"/>
</g>

</g></symbol><symbol id="icon-mail" viewBox="0 0 24 24"><g fill="none">
<g clip-path="url(#clip0_566_2668)">
<path d="M20 4H4C2.9 4 2.01 4.9 2.01 6L2 18C2 19.1 2.9 20 4 20H20C21.1 20 22 19.1 22 18V6C22 4.9 21.1 4 20 4ZM20 8L12 13L4 8V6L12 11L20 6V8Z" fill="white"/>
</g>

</g></symbol><symbol id="icon-max" viewBox="0 0 16 16"><g fill="none">
<path fill-rule="evenodd" clip-rule="evenodd" d="M8.17189 15.9543C6.60169 15.9543 5.87199 15.7241 4.60362 14.8032C3.80132 15.8392 1.26075 16.6489 1.14995 15.2637C1.14995 14.2239 0.92072 13.3452 0.660929 12.3859C0.351482 11.2041 0 9.888 0 7.98102C0 3.42646 3.72111 0 8.12987 0C12.5424 0 16 3.59529 16 8.02321C16.0148 12.3827 12.5125 15.9311 8.17189 15.9543ZM8.23685 3.93678C6.08977 3.82552 4.41641 5.31812 4.04583 7.6587C3.7402 9.59641 4.2827 11.9562 4.74497 12.079C4.96655 12.1327 5.52434 11.6799 5.87199 11.3307C6.44687 11.7296 7.11631 11.9691 7.81279 12.0252C10.0375 12.1327 11.9385 10.4317 12.0878 8.19974C12.1748 5.96306 10.4619 4.06863 8.23685 3.94063V3.93678Z" fill="CurrentColor"/>
</g></symbol><symbol id="icon-minus" viewBox="0 0 18 18"><g fill="none">
  <path d="M3.75 9H14.25" stroke="CurrentColor" stroke-linecap="round" stroke-linejoin="round"/>
</g></symbol><symbol id="icon-plus" viewBox="0 0 18 18"><g fill="none">
  <path d="M9 3.75V14.25" stroke="CurrentColor" stroke-linecap="round" stroke-linejoin="round"/>
  <path d="M3.75 9H14.25" stroke="CurrentColor" stroke-linecap="round" stroke-linejoin="round"/>
</g></symbol><symbol id="icon-tel" viewBox="0 0 24 24"><g fill="none">
<g clip-path="url(#clip0_566_2663)">
<path d="M6.62 10.79C8.06 13.62 10.38 15.93 13.21 17.38L15.41 15.18C15.68 14.91 16.08 14.82 16.43 14.94C17.55 15.31 18.76 15.51 20 15.51C20.55 15.51 21 15.96 21 16.51V20C21 20.55 20.55 21 20 21C10.61 21 3 13.39 3 4C3 3.45 3.45 3 4 3H7.5C8.05 3 8.5 3.45 8.5 4C8.5 5.25 8.7 6.45 9.07 7.57C9.18 7.92 9.1 8.31 8.82 8.59L6.62 10.79Z" fill="white"/>
</g>

</g></symbol><symbol id="icon-tg" viewBox="0 0 26 26"><g fill="none">
<path d="M21.1821 3.24611C20.9213 3.26545 20.6653 3.32663 20.424 3.42729H20.4207C20.1892 3.51911 19.0882 3.98223 17.4145 4.68423L11.4166 7.21029C7.11281 9.02217 2.88213 10.8064 2.88213 10.8064L2.9325 10.7869C2.9325 10.7869 2.64081 10.8828 2.33613 11.0916C2.14746 11.2108 1.98539 11.3677 1.86 11.5523C1.7105 11.7717 1.59025 12.1072 1.63494 12.4542C1.70806 13.0408 2.08831 13.3926 2.36131 13.5868C2.63756 13.7834 2.90081 13.8752 2.90081 13.8752H2.90731L6.87475 15.2118C7.05269 15.783 8.08375 19.1727 8.33156 19.9535C8.47781 20.4199 8.62 20.7116 8.79794 20.9342C8.88298 21.048 8.98562 21.143 9.10587 21.2194C9.16833 21.257 9.23556 21.2859 9.30575 21.3055L9.26512 21.2958C9.27731 21.299 9.28706 21.3088 9.296 21.312C9.3285 21.321 9.35044 21.3242 9.39187 21.3307C10.0199 21.5209 10.5245 21.1309 10.5245 21.1309L10.5529 21.1081L12.8954 18.9753L16.8214 21.9872L16.9107 22.0254C17.7289 22.3845 18.5577 22.1847 18.9956 21.832C19.4368 21.477 19.6082 21.0228 19.6082 21.0228L19.6367 20.9497L22.6706 5.40736C22.7567 5.02386 22.7786 4.66473 22.6836 4.31617C22.586 3.96315 22.3596 3.65959 22.049 3.46548C21.7886 3.30704 21.4865 3.23061 21.1821 3.24611ZM21.1 4.91173C21.0967 4.96292 21.1065 4.95723 21.0837 5.05554V5.06448L18.0783 20.4451C18.0653 20.467 18.0434 20.515 17.9832 20.5629C17.9199 20.6133 17.8695 20.645 17.6054 20.5402L12.8036 16.8587L9.90294 19.5026L10.5123 15.6107L18.3578 8.29823C18.6812 7.99761 18.5731 7.93423 18.5731 7.93423C18.5959 7.56536 18.0848 7.82617 18.0848 7.82617L8.19181 13.9549L8.18856 13.9386L3.44681 12.342V12.3388L3.43463 12.3364L3.459 12.3266L3.485 12.3136L3.51019 12.3047C3.51019 12.3047 7.74412 10.5204 12.0479 8.70854C14.2027 7.80098 16.3737 6.88692 18.0434 6.18167C19.0336 5.76486 20.0249 5.35048 21.0171 4.93854C21.0837 4.91254 21.0521 4.91173 21.1 4.91173Z" fill="CurrentColor"/>
</g></symbol><symbol id="icon-update" viewBox="0 0 20 20"><g fill="none">
<path d="M17 8.06603V3.82604L15.3013 5.52604C14.2598 4.312 12.8342 3.49172 11.2618 3.2018C9.68938 2.91189 8.06521 3.16985 6.65978 3.93272C5.25434 4.69559 4.15248 5.91732 3.53771 7.39441C2.92295 8.87151 2.8324 10.5148 3.28114 12.0506C3.72988 13.5864 4.69082 14.922 6.00392 15.8349C7.31701 16.7478 8.90299 17.1829 10.4977 17.0678C12.0924 16.9527 13.5996 16.2943 14.7681 15.2022C15.9367 14.1101 16.6962 12.6504 16.9201 11.066H15.5112C15.29 12.3308 14.6435 13.4818 13.6789 14.3284C12.7143 15.1749 11.4895 15.6661 10.2077 15.7203C8.92592 15.7746 7.66408 15.3888 6.63146 14.6269C5.59883 13.8649 4.85746 12.7726 4.53029 11.5311C4.20312 10.2896 4.3098 8.97349 4.83264 7.80099C5.35548 6.62849 6.26308 5.67006 7.40491 5.08465C8.54675 4.49923 9.85423 4.322 11.1105 4.58235C12.3668 4.84269 13.4965 5.52497 14.3121 6.51603L12.7633 8.06603H17Z" fill="CurrentColor"/>
</g></symbol><symbol id="logo-xl" viewBox="0 0 492 626"><g fill="none">
<path d="M211.509 1.33591C297.919 -6.02332 376.091 16.4166 431.369 83.7523C524.327 196.985 506.338 349.351 393.322 440.525C398.068 451.453 402.365 461.837 406.236 473.09C423.88 524.379 408.321 592.644 361.981 625.441C349.715 611.939 333.392 596.776 320.258 582.876C348.955 534.083 354.72 500.567 319.31 450.179C311.908 439.645 299.008 430.331 299.004 417.476C305.122 412.671 318.485 406.235 325.901 402.151C427.397 346.255 447.846 236.392 393.189 142.346C384.172 128.499 375.785 118.942 363.417 107.624C330.331 76.8516 285.796 60.4565 240.025 62.2014C66.0344 67.4062 6.35844 297.494 145.529 391.048C160.74 401.272 182.084 409.918 195.105 421.783C176.468 441.75 170.271 453.986 154.139 474.376C74.9509 437.529 15.5594 368.942 2.88843 283.048C-7.44944 215.741 10.2049 147.204 51.9581 92.5589C90.3999 42.6036 147.885 9.73471 211.509 1.33591Z" fill="#FF6E00"/>
<path d="M166.87 202.779C237.174 206.089 275.657 247.328 342.779 232.564C354.229 230.046 371.622 221.245 383.051 216.211C381.387 262.453 379.835 296.914 348.134 335.049C324.748 363.181 291.511 379.234 254.385 382.7C260.26 449.675 301.624 452.778 300.408 528.22C295.226 552.862 270.904 575.632 243.4 573.299C207.681 570.272 182.279 536.493 190.538 501.307C201.431 454.899 232.358 433.379 235.094 382.673C189.089 374.394 159.699 362.05 133.431 322.427C112.009 290.117 107.869 260.111 110.244 222.324C127.905 208.147 144.927 203.996 166.87 202.779Z" fill="#216AFF"/>
</g></symbol><symbol id="logo" viewBox="0 0 155 41"><g fill="none">
  <path fill-rule="evenodd" clip-rule="evenodd" d="M10.7679 6.70391C13.6595 6.69129 16.5956 7.30012 18.6946 9.44911C21.6689 12.4942 21.1608 17.0765 21.1604 20.9896L21.1704 31.1564C19.9845 31.1922 18.6939 31.1684 17.4996 31.1676L17.5176 27.8272C14.3684 31.269 10.3062 32.3941 5.79031 31.2415C3.51599 30.6609 1.89294 29.3942 0.73085 27.3254C-0.026349 25.6341 -0.228202 23.6874 0.281376 21.9089C2.33406 14.7456 12.3624 15.765 17.5629 17.1652C17.494 16.3115 17.401 15.2265 17.2049 14.4305C15.846 8.9132 8.49902 9.64601 4.5356 11.3051C4.07466 11.4981 3.5797 11.6468 3.10107 11.7692C2.83565 10.787 2.44782 9.72539 2.15963 8.7039C5.4502 7.40207 6.66914 6.97882 10.2364 6.73143C10.413 6.71355 10.5905 6.70438 10.7679 6.70391ZM17.4913 20.1907C15.6082 19.4629 11.8127 18.9144 9.82666 19.158C6.87077 19.365 3.50784 20.671 3.7983 24.3268C3.88648 25.4529 4.4164 26.4959 5.26901 27.2209C6.90711 28.622 9.61569 28.9116 11.6452 28.4685C13.6818 28.0102 15.4236 27.1619 16.6218 25.3312C17.6606 23.7443 17.511 22.0164 17.4913 20.1907Z" fill="#FF6E00"/>
  <path fill-rule="evenodd" clip-rule="evenodd" d="M87.6775 6.71295C90.5322 6.70731 93.574 7.2928 95.6929 9.38802C98.7555 12.4166 98.1665 16.895 98.1656 20.8694L98.1722 31.17L94.6477 31.1674L94.6063 27.7793C93.6899 28.7215 92.8449 29.5346 91.7083 30.2099C88.0774 32.3667 82.6541 32.1951 79.3732 29.4194C78.6761 28.8294 78.2339 28.1139 77.7785 27.3323C77.0672 25.8313 76.8593 24.1347 77.1867 22.5021C78.5181 15.592 87.4159 15.5555 92.6802 16.718C93.3379 16.8631 93.9965 16.9963 94.6561 17.1309C94.4011 9.983 89.0681 9.26949 83.3268 10.7133C82.2871 10.9748 81.27 11.4329 80.2454 11.7715C79.8117 10.844 79.4721 9.7675 79.1381 8.79042C82.2854 7.42614 83.8848 6.94908 87.3398 6.73161C87.4517 6.71966 87.5646 6.71342 87.6775 6.71295ZM94.6345 20.2267C92.7687 19.4981 88.7323 18.8671 86.7697 19.1565C84.9227 19.3315 83.0024 19.7681 81.7483 21.3011C81.0323 22.166 80.6915 23.2883 80.8025 24.4128C81.1469 28.1965 85.7752 29.109 88.7841 28.4403C90.8089 27.9552 92.6381 27.0169 93.7625 25.1761C94.7946 23.4869 94.5978 22.109 94.6345 20.2267Z" fill="#FF6E00"/>
  <path fill-rule="evenodd" clip-rule="evenodd" d="M127.124 6.62587C130.199 6.38929 133.081 7.25371 135.372 9.37919C138.044 11.8574 139.111 15.5433 139.267 19.1199C139.286 19.5528 139.301 20.1686 138.988 20.5046C138.716 20.7958 122.098 20.6203 120.146 20.6773C120.467 22.2142 120.786 23.3856 121.629 24.7389C122.759 26.5201 124.537 27.7744 126.575 28.2276C129.356 28.8606 131.873 28.2101 134.234 26.6933C134.904 26.1808 135.442 25.6627 136.054 25.0864C136.919 25.7642 137.545 26.4957 138.548 27.0792L138.529 27.1026C134.407 32.3004 126.016 33.3018 120.902 29.0735C118.447 27.0021 116.901 24.026 116.601 20.7977C115.903 13.7497 119.822 7.35956 127.072 6.63304C127.093 6.62931 127.1 6.62779 127.124 6.62587ZM135.412 17.5854C135.079 12.8996 131.942 9.39598 127.143 9.77376C123.748 10.3513 121.536 12.584 120.583 15.9704C120.43 16.5154 120.384 16.8806 120.186 17.4325L120.254 17.5369C120.894 17.6706 122.5 17.6239 123.226 17.6233L128.465 17.6163C130.718 17.6169 133.179 17.6605 135.412 17.5854Z" fill="#216AFF"/>
  <path d="M35.5156 6.91129C40.0282 6.50932 44.1107 7.735 46.9975 11.4129C51.8521 17.5977 50.9126 25.92 45.0105 30.8999C45.2584 31.4968 45.4828 32.0639 45.685 32.6786C46.6064 35.48 45.7938 39.2086 43.3738 41C42.7332 40.2625 41.8808 39.4343 41.1949 38.6751C42.6935 36.01 42.9946 34.1793 41.1454 31.4272C40.7588 30.8518 40.0851 30.3431 40.0849 29.6409C40.4044 29.3785 41.1023 29.027 41.4895 28.8039C46.79 25.7509 47.858 19.7501 45.0036 14.6133C44.5327 13.857 44.0947 13.3349 43.4488 12.7168C41.7209 11.036 39.3951 10.1405 37.0048 10.2358C27.9184 10.5201 24.8018 23.0875 32.0698 28.1974C32.8642 28.7559 33.9789 29.2281 34.6589 29.8762C33.6856 30.9668 33.362 31.6351 32.5195 32.7488C28.384 30.7362 25.2824 26.99 24.6206 22.2985C24.0808 18.6221 25.0027 14.8786 27.1832 11.8939C29.1908 9.16533 32.1929 7.37003 35.5156 6.91129Z" fill="#FF6E00"/>
  <path d="M53.2415 7.10753C54.4629 7.05935 55.6858 7.05772 56.9074 7.10265L56.9025 7.41189C56.8701 10.5038 56.8605 13.5958 56.8736 16.6879C56.8702 20.6939 56.1816 26.7252 61.3474 28.0216C63.728 28.6191 66.517 28.17 68.316 26.3528C69.2425 25.4136 69.898 24.2346 70.2115 22.9436C70.5891 21.3786 70.4566 18.0687 70.4552 16.3357L70.4621 7.08956C71.5263 7.07111 73.1804 7.01977 74.2 7.12665C74.2263 9.32774 74.1065 11.8143 74.1104 14.0992L74.1045 23.6555C74.1043 26.2015 74.0575 28.5588 74.2489 31.1011C73.2146 31.2292 71.534 31.1677 70.4619 31.154C70.4599 29.9027 70.4891 28.5896 70.3492 27.3521C68.2562 30.3836 66.0428 31.5775 62.3705 31.6623C58.0265 31.7627 54.3673 29.2075 53.4672 24.7867C53.0573 22.7739 53.2309 19.972 53.2319 17.8507L53.2415 7.10753Z" fill="#FF6E00"/>
  <path d="M104.754 0.0698612C105.778 -0.0364749 107.48 0.00953347 108.56 0.0119711L108.552 7.0649L116.171 7.09071L116.124 10.3335L108.567 10.3255L108.549 20.0708C108.549 21.4721 108.508 22.8936 108.551 24.2927C108.704 29.1917 112.837 28.3794 116.037 27.5475L116.029 30.5979L114.592 31.1813C112.918 31.6437 111.797 31.7922 110.052 31.5058C104.127 30.1349 104.87 25.3883 104.872 20.4593L104.886 10.3421C103.792 10.3318 102.697 10.3362 101.602 10.3553C101.563 9.28386 101.589 8.14948 101.597 7.07302L104.734 7.07513C104.788 4.80492 104.749 2.35374 104.754 0.0698612Z" fill="#216AFF"/>
  <path d="M33.1843 17.9142C36.8559 18.0949 38.8656 20.3474 42.371 19.541C42.9689 19.4035 43.8773 18.9227 44.4742 18.6478C44.3872 21.1735 44.3062 23.0558 42.6506 25.1388C41.4293 26.6753 39.6936 27.5522 37.7547 27.7414C38.0615 31.3996 40.2217 31.5691 40.1582 35.6898C39.8876 37.0357 38.6174 38.2795 37.181 38.152C35.3156 37.9867 33.9891 36.1416 34.4204 34.2198C34.9892 31.685 36.6044 30.5096 36.7473 27.74C34.3447 27.2878 32.8099 26.6136 31.4381 24.4494C30.3193 22.6846 30.1031 21.0456 30.2271 18.9817C31.1495 18.2073 32.0384 17.9806 33.1843 17.9142Z" fill="#216AFF"/>
  <path d="M142.58 0.029939C143.785 0.000668916 145.079 0.0254177 146.29 0.0273391L146.277 21.1819L146.286 27.4845C146.288 28.6025 146.332 30.066 146.258 31.1616C145.023 31.1707 143.787 31.1659 142.551 31.1473C142.607 26.8958 142.623 22.6439 142.598 18.3922L142.58 0.029939Z" fill="#216AFF"/>
  <path d="M151.281 0.0243482C152.493 0.00580341 153.75 0.0227614 154.966 0.0226945L154.961 19.5091C154.96 23.3622 154.91 27.3318 155 31.1689L151.264 31.1712L151.281 0.0243482Z" fill="#216AFF"/>
</g></symbol></svg>